G04*
G04 #@! TF.GenerationSoftware,Altium Limited,Altium Designer,24.0.1 (36)*
G04*
G04 Layer_Physical_Order=4*
G04 Layer_Color=12517376*
%FSLAX44Y44*%
%MOMM*%
G71*
G04*
G04 #@! TF.SameCoordinates,1E4A30F7-C8D5-4828-80FB-0036147C382C*
G04*
G04*
G04 #@! TF.FilePolarity,Positive*
G04*
G01*
G75*
%ADD10C,0.2032*%
%ADD15C,0.2540*%
%ADD17C,0.1524*%
%ADD23O,1.5000X0.5000*%
%ADD24R,1.5000X0.5000*%
%ADD28R,0.5000X0.5000*%
%ADD30R,0.5000X0.5000*%
%ADD31R,1.2700X0.8890*%
%ADD34R,1.2000X1.3000*%
%ADD36R,0.7500X0.8500*%
%ADD84C,0.1270*%
%ADD85C,0.1295*%
%ADD86C,0.3810*%
%ADD87C,0.1295*%
%ADD91C,1.0000*%
%ADD97C,1.1989*%
%ADD98C,2.9997*%
%ADD99R,1.8000X4.5000*%
%ADD100R,1.8000X4.0000*%
%ADD101R,5.0000X2.6000*%
%ADD102C,1.3000*%
%ADD103C,1.0000*%
%ADD104C,0.4000*%
%ADD105C,0.1090*%
%ADD106C,0.1090*%
%ADD107C,0.1016*%
%ADD108R,2.4000X2.8000*%
%ADD109R,1.6500X1.4000*%
%ADD110O,0.2000X0.7000*%
%ADD111O,0.7000X0.2000*%
%ADD112R,3.3000X3.3000*%
%ADD113R,0.7000X0.2000*%
%ADD114R,0.2000X0.7000*%
%ADD115R,2.0000X3.0000*%
%ADD116R,0.5650X0.2000*%
%ADD117R,0.5650X0.4000*%
G04:AMPARAMS|DCode=118|XSize=1.27mm|YSize=0.889mm|CornerRadius=0mm|HoleSize=0mm|Usage=FLASHONLY|Rotation=180.000|XOffset=0mm|YOffset=0mm|HoleType=Round|Shape=Octagon|*
%AMOCTAGOND118*
4,1,8,-0.6350,0.2223,-0.6350,-0.2223,-0.4128,-0.4445,0.4128,-0.4445,0.6350,-0.2223,0.6350,0.2223,0.4128,0.4445,-0.4128,0.4445,-0.6350,0.2223,0.0*
%
%ADD118OCTAGOND118*%

%ADD119R,0.6000X2.9000*%
G36*
X248209Y676664D02*
X248209Y643897D01*
X245415Y641104D01*
X215443D01*
X213157Y643390D01*
Y676664D01*
X214681Y678187D01*
X246684Y678187D01*
X248209Y676664D01*
D02*
G37*
G36*
X172008D02*
X172008Y643897D01*
X169214Y641104D01*
X139242D01*
X136957Y643390D01*
Y676664D01*
X138481Y678187D01*
X170485Y678187D01*
X172008Y676664D01*
D02*
G37*
G36*
X248209Y395928D02*
X248209Y363162D01*
X245415Y360368D01*
X215443D01*
X213157Y362654D01*
Y395928D01*
X214681Y397452D01*
X246684Y397453D01*
X248209Y395928D01*
D02*
G37*
G36*
X172008D02*
X172008Y363162D01*
X169214Y360368D01*
X139242D01*
X136957Y362654D01*
Y395928D01*
X138481Y397452D01*
X170485Y397453D01*
X172008Y395928D01*
D02*
G37*
G36*
X248209Y114501D02*
X248209Y81735D01*
X245415Y78941D01*
X215443D01*
X213157Y81228D01*
Y114501D01*
X214681Y116025D01*
X246684Y116025D01*
X248209Y114501D01*
D02*
G37*
G36*
X172008D02*
X172008Y81735D01*
X169214Y78941D01*
X139242D01*
X136957Y81228D01*
Y114501D01*
X138481Y116025D01*
X170485Y116025D01*
X172008Y114501D01*
D02*
G37*
G36*
X739394Y130556D02*
X737362Y128524D01*
X737362Y111506D01*
X739648Y109220D01*
X745998D01*
X747776Y107442D01*
Y101092D01*
X753618Y95250D01*
X778510D01*
X780796Y97536D01*
Y109220D01*
X778002Y112014D01*
X760984D01*
X759968Y113030D01*
Y128524D01*
X757936Y130556D01*
X739394D01*
D02*
G37*
G36*
X797306Y157734D02*
X798068Y156972D01*
Y154940D01*
X797814Y154686D01*
X790194D01*
X787654Y152146D01*
X758698D01*
X757174Y150622D01*
Y143764D01*
X755396Y141986D01*
X739394D01*
X738378Y143002D01*
Y156464D01*
X741426Y159512D01*
X781304D01*
X783082Y157734D01*
X795020D01*
X797306D01*
D02*
G37*
G36*
X739394Y321310D02*
X737362Y319278D01*
X737362Y302260D01*
X739648Y299974D01*
X745998D01*
X747776Y298196D01*
Y291846D01*
X753618Y286004D01*
X778510D01*
X780796Y288290D01*
Y299974D01*
X778002Y302768D01*
X760984D01*
X759968Y303784D01*
Y319278D01*
X757936Y321310D01*
X739394D01*
D02*
G37*
G36*
X796569Y348488D02*
X797331Y347726D01*
Y345694D01*
X797077Y345440D01*
X789457D01*
X786917Y342900D01*
X757961D01*
X756437Y341376D01*
Y334518D01*
X754659Y332740D01*
X738657D01*
X737641Y333756D01*
Y347218D01*
X740689Y350266D01*
X780567D01*
X782345Y348488D01*
X794283D01*
X796569D01*
D02*
G37*
G36*
X739394Y514350D02*
X737362Y512318D01*
X737362Y495300D01*
X739648Y493014D01*
X745998D01*
X747776Y491236D01*
Y484886D01*
X753618Y479044D01*
X778510D01*
X780796Y481330D01*
Y493014D01*
X778002Y495808D01*
X760984D01*
X759968Y496824D01*
Y512318D01*
X757936Y514350D01*
X739394D01*
D02*
G37*
G36*
X797306Y541528D02*
X798068Y540766D01*
Y538734D01*
X797814Y538480D01*
X790194D01*
X787654Y535940D01*
X758698D01*
X757174Y534416D01*
Y527558D01*
X755396Y525780D01*
X739394D01*
X738378Y526796D01*
Y540258D01*
X741426Y543306D01*
X781304D01*
X783082Y541528D01*
X795020D01*
X797306D01*
D02*
G37*
D10*
X7620Y720598D02*
G03*
X4064Y712013I8585J-8585D01*
G01*
Y109609D02*
G03*
X7620Y101024I12141J0D01*
G01*
X843665Y453970D02*
G03*
X842264Y453390I0J-1981D01*
G01*
X147746Y350012D02*
G03*
X140081Y346837I0J-10840D01*
G01*
X132416Y343662D02*
G03*
X140081Y346837I0J10840D01*
G01*
X299847D02*
G03*
X292182Y350012I-7665J-7665D01*
G01*
X299847Y346837D02*
G03*
X307512Y343662I7665J7665D01*
G01*
X54162Y350968D02*
G03*
X71801Y343662I17639J17639D01*
G01*
X46855Y368607D02*
G03*
X54162Y350968I24945J0D01*
G01*
X772947Y605291D02*
G03*
X757626Y611632I-15321J-15340D01*
G01*
X772956Y605282D02*
G03*
X772947Y605291I-15330J-15330D01*
G01*
Y412251D02*
G03*
X757626Y418592I-15321J-15340D01*
G01*
X772956Y412242D02*
G03*
X772947Y412251I-15330J-15330D01*
G01*
X828634Y366230D02*
G03*
X828640Y366236I-2150J2138D01*
G01*
D02*
G03*
X828641Y366237I-2156J2132D01*
G01*
X829515Y367111D02*
G03*
X830484Y369450I-2339J2339D01*
G01*
X828622Y366218D02*
G03*
X828634Y366230I-2138J2150D01*
G01*
X826484Y365336D02*
G03*
X828622Y366218I0J3032D01*
G01*
X826233Y365346D02*
G03*
X826484Y365336I252J3022D01*
G01*
X826233Y365346D02*
G03*
X826048Y365352I-156J-2026D01*
G01*
X824334Y173482D02*
G03*
X828683Y175283I0J6150D01*
G01*
D02*
G03*
X830484Y179632I-4349J4349D01*
G01*
X798837Y176269D02*
G03*
X805575Y173482I6738J6752D01*
G01*
X798830Y176276D02*
G03*
X798837Y176269I6745J6745D01*
G01*
X796036Y179070D02*
G03*
X782545Y184658I-13491J-13491D01*
G01*
X724783Y178683D02*
G03*
X718820Y164279I14417J-14404D01*
G01*
X724795Y178695D02*
G03*
X724789Y178689I14404J-14417D01*
G01*
X739199Y184658D02*
G03*
X724795Y178695I0J-20379D01*
G01*
X724789Y178689D02*
G03*
X724783Y178683I14410J-14410D01*
G01*
X700175Y122428D02*
G03*
X713359Y127889I0J18645D01*
G01*
D02*
G03*
X718820Y141073I-13184J13184D01*
G01*
X312059Y72898D02*
G03*
X330019Y80337I0J25400D01*
G01*
X382631Y122428D02*
G03*
X364670Y114988I0J-25400D01*
G01*
X275778Y117119D02*
G03*
X261723Y122936I-14055J-14072D01*
G01*
X275786Y117111D02*
G03*
X275778Y117119I-14063J-14063D01*
G01*
X129974Y80337D02*
G03*
X147935Y72898I17960J17960D01*
G01*
X107298Y103014D02*
G03*
X89338Y110453I-17960J-17960D01*
G01*
X65205Y130375D02*
G03*
X83165Y122936I17960J17960D01*
G01*
X47332Y148249D02*
G03*
X34144Y153709I-13187J-13194D01*
G01*
X47335Y148245D02*
G03*
X47332Y148249I-13191J-13191D01*
G01*
X392610Y620088D02*
G03*
X386299Y622702I-6311J-6311D01*
G01*
X272749D02*
G03*
X266131Y619961I0J-9358D01*
G01*
X259514Y617220D02*
G03*
X266131Y619961I0J9358D01*
G01*
X276350Y634491D02*
G03*
X281612Y647192I-12701J12701D01*
G01*
X251607Y620268D02*
G03*
X269568Y627707I0J25400D01*
G01*
X36830Y646791D02*
G03*
X45138Y626700I28448J0D01*
G01*
X47178Y624660D02*
G03*
X65139Y617220I17960J17960D01*
G01*
X48440Y627707D02*
G03*
X66401Y620268I17960J17960D01*
G01*
X39878Y646791D02*
G03*
X47318Y628830I25400J0D01*
G01*
X31632Y667199D02*
G03*
X31623Y667208I-12580J-12562D01*
G01*
X36830Y654637D02*
G03*
X31632Y667199I-17778J0D01*
G01*
X39878Y695313D02*
G03*
X35010Y707078I-16651J0D01*
G01*
D02*
G03*
X35001Y707087I-11783J-11765D01*
G01*
Y707087D02*
G03*
X34805Y707561I-670J-0D01*
G01*
X56339Y417878D02*
G03*
X54362Y422650I-6749J0D01*
G01*
X40386Y442341D02*
G03*
X44427Y432585I13797J0D01*
G01*
X35814Y438497D02*
G03*
X38622Y431718I9586J0D01*
G01*
X26417Y429403D02*
G03*
X30465Y419623I13840J0D01*
G01*
X26924Y433913D02*
G03*
X26417Y435136I-1730J0D01*
G01*
X30465Y419623D02*
G03*
X30471Y419617I9792J9780D01*
G01*
X39042Y411045D02*
G03*
X57003Y403606I17960J17960D01*
G01*
X46855Y375874D02*
G03*
X42252Y386986I-15715J0D01*
G01*
X33545Y391589D02*
G03*
X30436Y391880I-3108J-16419D01*
G01*
X42252Y386986D02*
G03*
X33545Y391589I-11816J-11816D01*
G01*
X276165Y398159D02*
G03*
X263015Y403606I-13149J-13149D01*
G01*
X281612Y385010D02*
G03*
X276165Y398159I-18596J0D01*
G01*
X344364Y349925D02*
G03*
X350627Y365047I-15121J15121D01*
G01*
X329242Y343662D02*
G03*
X344364Y349925I0J21385D01*
G01*
X372992Y407924D02*
G03*
X357187Y401383I0J-22365D01*
G01*
X357168Y401364D02*
G03*
X350627Y385559I15823J-15805D01*
G01*
X357178Y401373D02*
G03*
X357168Y401364I15814J-15814D01*
G01*
X357187Y401383D02*
G03*
X357178Y401373I15805J-15823D01*
G01*
X671649Y400485D02*
G03*
X653689Y407924I-17960J-17960D01*
G01*
X691314Y380820D02*
G03*
X709275Y373380I17960J17960D01*
G01*
X796449Y367691D02*
G03*
X802139Y365336I5690J5696D01*
G01*
X796446Y367694D02*
G03*
X796449Y367691I5693J5693D01*
G01*
X796446Y367694D02*
G03*
X782719Y373380I-13727J-13727D01*
G01*
X837117Y733298D02*
G03*
X834340Y732921I0J-10434D01*
G01*
X831970Y731940D02*
G03*
X829739Y730242I5147J-9076D01*
G01*
X834340Y732921D02*
G03*
X831970Y731940I2778J-10057D01*
G01*
X7620Y720598D02*
X11176Y724154D01*
X4064Y660400D02*
Y712013D01*
X7620Y101024D02*
X11176Y97468D01*
X4064Y109609D02*
Y166370D01*
X419328Y383197D02*
X421312Y381213D01*
X418590Y397864D02*
Y398397D01*
Y397864D02*
X419328Y397126D01*
Y383197D02*
Y397126D01*
X419960Y101137D02*
X421312Y99786D01*
X419584Y116435D02*
X419960Y116059D01*
Y101137D02*
Y116059D01*
X801624Y390724D02*
X806268D01*
X843665Y453970D02*
X848614D01*
X71801Y343662D02*
X132416D01*
X147746Y350012D02*
X292182D01*
X307512Y343662D02*
X329242D01*
X734306Y611632D02*
X757626D01*
X772956Y605282D02*
X779306Y598932D01*
X734306Y418592D02*
X757626D01*
X772956Y412242D02*
X779306Y405892D01*
X828640Y366236D02*
X828641Y366237D01*
X829515Y367111D01*
X830484Y369450D02*
Y370868D01*
X802139Y365336D02*
X824230D01*
X826048Y365352D01*
X830484Y179632D02*
Y180114D01*
X805575Y173482D02*
X824334D01*
X796036Y179070D02*
X798830Y176276D01*
X739199Y184658D02*
X782545D01*
X718820Y141073D02*
Y164279D01*
X382631Y122428D02*
X700175D01*
X147935Y72898D02*
X312059D01*
X330019Y80337D02*
X364670Y114988D01*
X83165Y122936D02*
X261723D01*
X275786Y117111D02*
X281612Y111286D01*
X107298Y103014D02*
X129974Y80337D01*
X26416Y110453D02*
X89338D01*
X47335Y148245D02*
X65205Y130375D01*
X26417Y153709D02*
X34144D01*
X392610Y620088D02*
X395224Y617474D01*
X272749Y622702D02*
X386299D01*
X65139Y617220D02*
X259514D01*
X269568Y627707D02*
X276350Y634491D01*
X281612Y647192D02*
Y661948D01*
X66401Y620268D02*
X251607D01*
X45138Y626700D02*
X47178Y624660D01*
X47318Y628830D02*
X48440Y627707D01*
X36830Y646791D02*
Y654637D01*
X39878Y646791D02*
Y695313D01*
X26416Y672415D02*
X31623Y667208D01*
X26695Y715671D02*
X34805Y707561D01*
X44427Y432585D02*
X54362Y422650D01*
X56339Y415083D02*
Y417878D01*
X40386Y442341D02*
Y448056D01*
X35814Y438497D02*
Y442468D01*
X38622Y431718D02*
X51166Y419174D01*
X26924Y426720D02*
Y433913D01*
X30471Y419617D02*
X39042Y411045D01*
X57003Y403606D02*
X263015D01*
X26416Y391880D02*
X30436D01*
X46855Y368607D02*
Y375874D01*
X281612Y381213D02*
Y385010D01*
X350627Y365047D02*
Y385559D01*
X372992Y407924D02*
X653689D01*
X671649Y400485D02*
X691314Y380820D01*
X709275Y373380D02*
X782719D01*
X604012Y740117D02*
X605176Y738952D01*
X612104Y734943D02*
X612104D01*
X608094Y738952D02*
X612104Y734943D01*
X605176Y738952D02*
X608094D01*
X4064Y448564D02*
Y660400D01*
X826500Y567805D02*
X830326Y571631D01*
X826500Y566392D02*
Y567805D01*
X830326Y571631D02*
Y572286D01*
X833628Y575588D01*
Y583764D01*
X251460Y664496D02*
X254228D01*
Y663932D02*
X256212Y661948D01*
X254228Y663932D02*
Y664496D01*
X266928Y664495D02*
X268912Y662512D01*
X263652Y664495D02*
X266928D01*
X268912Y661948D02*
Y662512D01*
X205501Y645486D02*
Y661858D01*
X205412Y661948D02*
X205501Y661858D01*
Y645486D02*
X205591Y645396D01*
X180101Y645486D02*
Y661858D01*
X180012Y661948D02*
X180101Y661858D01*
Y645486D02*
X180191Y645396D01*
X269001Y364751D02*
Y381123D01*
X268912Y381213D02*
X269001Y381123D01*
Y364751D02*
X269091Y364661D01*
X256301Y364751D02*
Y381123D01*
X256212Y381213D02*
X256301Y381123D01*
Y364751D02*
X256391Y364661D01*
X205501Y364751D02*
Y381123D01*
X205412Y381213D02*
X205501Y381123D01*
Y364751D02*
X205591Y364661D01*
X180101Y364751D02*
Y381123D01*
X180012Y381213D02*
X180101Y381123D01*
Y364751D02*
X180191Y364661D01*
X269001Y83324D02*
Y99696D01*
X268912Y99786D02*
X269001Y99696D01*
Y83324D02*
X269091Y83234D01*
X256301Y83324D02*
Y99696D01*
X256212Y99786D02*
X256301Y99696D01*
Y83324D02*
X256391Y83234D01*
X205501Y83324D02*
Y99696D01*
X205412Y99786D02*
X205501Y99696D01*
Y83324D02*
X205591Y83234D01*
X180101Y83324D02*
Y99696D01*
X180012Y99786D02*
X180101Y99696D01*
Y83324D02*
X180191Y83234D01*
X459322Y99875D02*
Y116247D01*
Y99875D02*
X459412Y99786D01*
X459232Y116337D02*
X459322Y116247D01*
X383122Y99875D02*
Y116247D01*
Y99875D02*
X383212Y99786D01*
X383032Y116337D02*
X383122Y116247D01*
X459412Y664004D02*
X461396Y665988D01*
X464820D01*
X459412Y661948D02*
Y664004D01*
X421222Y662037D02*
Y678409D01*
Y662037D02*
X421312Y661948D01*
X421132Y678499D02*
X421222Y678409D01*
X383122Y662037D02*
Y678409D01*
Y662037D02*
X383212Y661948D01*
X383032Y678499D02*
X383122Y678409D01*
X459322Y381302D02*
Y397674D01*
Y381302D02*
X459412Y381213D01*
X459232Y397764D02*
X459322Y397674D01*
X383032Y397764D02*
X383122Y397674D01*
Y381302D02*
X383212Y381213D01*
X383122Y381302D02*
Y397674D01*
X830484Y558896D02*
Y559295D01*
Y563908D01*
X281612Y99786D02*
Y111286D01*
X4962Y659502D02*
X11176D01*
X4064Y660400D02*
X4962Y659502D01*
X4064Y379222D02*
Y448564D01*
X4504Y448124D02*
X11176D01*
X4064Y448564D02*
X4504Y448124D01*
X4064Y166370D02*
Y379222D01*
X4386Y378900D02*
X11176D01*
X4064Y379222D02*
X4386Y378900D01*
X4064Y166370D02*
X4386Y166692D01*
X11176D01*
X23794Y737294D02*
X26417Y734671D01*
X11176Y737294D02*
X23794D01*
X24003Y651002D02*
X26416Y653415D01*
X11176Y651002D02*
X24003D01*
X23929Y456624D02*
X26417Y454136D01*
X11176Y456624D02*
X23929D01*
X11176Y370400D02*
X23936D01*
X26416Y372880D01*
X11176Y175192D02*
X23934D01*
X26417Y172709D01*
X11176Y88968D02*
X23931D01*
X26416Y91453D01*
X837117Y733298D02*
X848868D01*
X829363Y729865D02*
X829739Y730242D01*
X823702Y729865D02*
X829363D01*
X823325Y729488D02*
X823702Y729865D01*
X814975Y729488D02*
X823325D01*
X814975Y656082D02*
X823325D01*
X792480D02*
X798576D01*
X814975D01*
X879838Y74676D02*
X887730D01*
X879838D02*
Y83838D01*
X854538Y95676D02*
X862838D01*
Y104648D01*
X854837Y592891D02*
Y597027D01*
X585503Y690405D02*
X587502Y692404D01*
X570502Y690405D02*
X585503D01*
X604012Y731116D02*
X605496Y729632D01*
Y728226D02*
Y729632D01*
Y728226D02*
X610530Y723192D01*
X571246Y739834D02*
X572702Y738378D01*
X580712D02*
X582168Y739834D01*
X572702Y738378D02*
X580712D01*
X591570D02*
X593090Y739898D01*
X583624Y738378D02*
X591570D01*
X582168Y739834D02*
X583624Y738378D01*
X599022Y725335D02*
Y736093D01*
X596700Y738414D02*
X599022Y736093D01*
X593090Y739898D02*
X594574Y738414D01*
X596700D01*
X591504Y722990D02*
X596677D01*
X599022Y725335D01*
X589504Y720989D02*
X591504Y722990D01*
X589504Y714406D02*
Y720989D01*
X599336Y731116D02*
X604012D01*
X585503Y714406D02*
X589504D01*
X854710Y597154D02*
X854837Y597027D01*
X776986Y558038D02*
X787116Y547908D01*
X794484D01*
X777113Y532257D02*
X785462Y523908D01*
X773938Y532384D02*
X774065Y532257D01*
X777113D01*
X785462Y523908D02*
X794484D01*
X823051Y583855D02*
X823096Y583810D01*
X827559D02*
X827604Y583855D01*
X823096Y583810D02*
X827559D01*
X814484Y575288D02*
X823051Y583855D01*
X794854Y586232D02*
X797140Y583946D01*
X801533Y583855D02*
X801624Y583764D01*
X797651Y583855D02*
X801533D01*
X784306Y586232D02*
X794854D01*
X797140Y583946D02*
X797560D01*
X797651Y583855D01*
X734306Y624332D02*
X750824D01*
X794484Y551908D02*
X799098D01*
Y551929D01*
X794484Y531908D02*
X822484D01*
X824484Y533908D01*
X794484Y535908D02*
X822484D01*
X824484Y533908D01*
X871982Y458470D02*
X872362D01*
X879838D01*
X879862Y458493D01*
Y467868D01*
X854284Y479470D02*
X862838D01*
X870032D01*
X735838Y486918D02*
X742304D01*
X742134Y486749D02*
X742304Y486918D01*
X742134Y479901D02*
Y486749D01*
X776161Y474807D02*
X776224Y474870D01*
X771413Y474807D02*
X776161D01*
X771350Y474743D02*
X771413Y474807D01*
X776224Y470408D02*
Y474870D01*
X812292Y399442D02*
X812419Y399569D01*
Y404749D01*
X812546Y404876D01*
X822833Y399851D02*
X822960Y399724D01*
X822833Y399851D02*
Y404749D01*
X822706Y404876D02*
X822833Y404749D01*
X854837Y399851D02*
Y404749D01*
X854710Y404876D02*
X854837Y404749D01*
Y399851D02*
X854964Y399724D01*
X844169Y399851D02*
Y404749D01*
X844042Y404876D02*
X844169Y404749D01*
Y399851D02*
X844296Y399724D01*
X883480Y352806D02*
X888492D01*
X883607Y310007D02*
X888111D01*
X883480Y310134D02*
X883607Y310007D01*
X888111D02*
X888238Y309880D01*
X883480Y320802D02*
X888238D01*
X854284Y286430D02*
X862838D01*
X879838Y265430D02*
Y274084D01*
X871097Y265053D02*
X871985D01*
X872362Y265430D01*
X879838D01*
X862838Y286430D02*
X870314D01*
X794500Y350884D02*
X798626D01*
X805952Y358210D01*
X805952D02*
X807142Y359400D01*
X837936D01*
X794484Y358868D02*
X794500Y358852D01*
X799152D01*
X799181Y358823D01*
X794484Y338868D02*
X822484D01*
X824484Y340868D01*
X822484Y342868D02*
X824484Y340868D01*
X794484Y342868D02*
X822484D01*
X771288Y281830D02*
X776224D01*
X742188Y103008D02*
X742304Y103124D01*
X742188Y96266D02*
Y103008D01*
X735584Y103124D02*
X742304D01*
X812292Y208688D02*
Y214122D01*
X822960Y208970D02*
Y214122D01*
X833628Y208970D02*
Y214122D01*
X844296Y208970D02*
Y214122D01*
X854964Y208970D02*
Y214122D01*
X794484Y152114D02*
X822484D01*
X824484Y150114D01*
X822484Y148114D02*
X824484Y150114D01*
X794484Y148114D02*
X822484D01*
X821643Y198653D02*
X826575Y203585D01*
X827559D02*
X827935Y203962D01*
X826575Y203585D02*
X827559D01*
X874480Y130048D02*
X874501Y130027D01*
X864414Y140114D02*
X874480Y130048D01*
X780796Y144018D02*
X781329D01*
X780264D02*
X780796D01*
X786511Y307213D02*
X786765Y306959D01*
Y290739D02*
Y306959D01*
Y290739D02*
X786892Y290613D01*
X756412Y552450D02*
X773176D01*
X764866Y174062D02*
X764938Y173990D01*
X764866Y174062D02*
Y179252D01*
X764794Y179324D02*
X764866Y179252D01*
X783967Y169295D02*
X789132Y164130D01*
X794468D01*
X794484Y164114D01*
X783967Y169295D02*
Y172938D01*
X783590Y173314D02*
X783967Y172938D01*
X826484Y186962D02*
X830682Y191160D01*
X854484Y168114D02*
X869874D01*
X773938Y173990D02*
X782382D01*
X792016Y140114D02*
X794484D01*
X791378Y140752D02*
X792016Y140114D01*
X784595Y140752D02*
X791378D01*
X781329Y144018D02*
X784595Y140752D01*
X773938Y148590D02*
X775422Y147106D01*
X777176D01*
X780264Y144018D01*
X814484Y563908D02*
Y575288D01*
X779306Y598932D02*
X784306D01*
X797886D02*
X802458Y603504D01*
X784306Y598932D02*
X797886D01*
X784306Y586232D02*
Y598932D01*
X779306Y405892D02*
X784306D01*
Y393192D02*
Y405892D01*
X798140D01*
X802458Y410210D01*
X784306Y393192D02*
X790109D01*
X791269Y392032D02*
X800315D01*
X790109Y393192D02*
X791269Y392032D01*
X800315D02*
X801624Y390724D01*
X779306Y215138D02*
X784306D01*
X766606Y227838D02*
X779306Y215138D01*
X734306Y227838D02*
X766606D01*
X784306Y202438D02*
Y215138D01*
X798140D01*
X802458Y219456D01*
X799156Y202438D02*
X801624Y199970D01*
X784306Y202438D02*
X799156D01*
X801624Y199970D02*
X806268D01*
X787278Y100244D02*
Y113415D01*
X773688Y116586D02*
X784327D01*
X787122Y113792D01*
X787654D01*
X786892Y99859D02*
X787278Y100244D01*
X787654Y136398D02*
X787922Y136130D01*
X794468D01*
X794484Y136114D01*
X773688Y127254D02*
X773836Y127107D01*
X787462D01*
X787610Y126959D01*
X783082Y339344D02*
X791542Y330884D01*
X794468D01*
X773938Y339344D02*
X783082D01*
X794468Y330884D02*
X794484Y330868D01*
X830481Y100231D02*
X830637Y100076D01*
X830484Y105568D02*
Y120114D01*
X830326Y105410D02*
X830481Y105255D01*
X830326Y105410D02*
X830484Y105568D01*
X830481Y100231D02*
Y105255D01*
X818500Y105664D02*
Y120098D01*
Y100472D02*
Y105664D01*
X874501Y114575D02*
Y119359D01*
X874480Y119380D02*
X874501Y119359D01*
Y114575D02*
X874522Y114554D01*
X874501Y125243D02*
X874522Y125222D01*
X874501Y125243D02*
Y130027D01*
X874480Y157408D02*
Y162052D01*
X867979Y157408D02*
X874480D01*
X862685Y152114D02*
X867979Y157408D01*
X869908Y168148D02*
X874480Y172720D01*
X862584Y168148D02*
X869908D01*
X844296Y199970D02*
X848940D01*
X844296Y193613D02*
Y199970D01*
X833628Y194335D02*
Y199970D01*
X830834Y191541D02*
X833628Y194335D01*
X837936Y168646D02*
X841788Y172498D01*
Y172524D01*
X806440Y168646D02*
X837936D01*
X846484Y177194D02*
Y186084D01*
X844299Y175035D02*
X844325D01*
X846484Y177194D01*
X841788Y172524D02*
X844299Y175035D01*
X794500Y160130D02*
X797924D01*
X806440Y168646D01*
X794484Y160114D02*
X794500Y160130D01*
X786290Y160114D02*
X794484D01*
X752813Y168864D02*
X777541D01*
X786290Y160114D01*
X773938Y163322D02*
Y167894D01*
X818134Y295910D02*
X818468Y296244D01*
X818134Y295910D02*
X818511Y295533D01*
X818468Y296244D02*
Y310852D01*
X818511Y291215D02*
Y295533D01*
Y291215D02*
X818896Y290830D01*
X830552Y290914D02*
X830637Y290830D01*
X830468Y296306D02*
X830552Y296222D01*
Y290914D02*
Y296222D01*
X818468Y310852D02*
X818484Y310868D01*
X830468Y310852D02*
X830484Y310868D01*
X830468Y296306D02*
Y310852D01*
X773688Y307340D02*
X773815Y307213D01*
X786511D01*
X773942Y318262D02*
X786384D01*
X786638Y318516D01*
X773688Y318008D02*
X773942Y318262D01*
X786366Y326900D02*
X786398Y326868D01*
X794484D01*
X773938Y328676D02*
X774578Y328037D01*
X778278D02*
X778654Y327660D01*
X774578Y328037D02*
X778278D01*
X790728Y355836D02*
X791048D01*
X792016Y354868D02*
X794484D01*
X786205Y360359D02*
X790728Y355836D01*
X786205Y360359D02*
Y363539D01*
X791048Y355836D02*
X792016Y354868D01*
X785762Y363982D02*
X786205Y363539D01*
X785681Y364596D02*
X785828Y364449D01*
X773938Y364744D02*
X774086Y364596D01*
X785681D01*
X773938Y358870D02*
X776764D01*
X773938Y354076D02*
Y358870D01*
X753078D02*
X773938D01*
X776764D02*
X784766Y350868D01*
X752856Y358648D02*
X753078Y358870D01*
X842500Y120130D02*
Y126379D01*
Y310884D02*
Y317133D01*
X874501Y305075D02*
X874522Y305054D01*
X874480Y310134D02*
X874501Y310113D01*
Y305075D02*
Y310113D01*
X869950Y320802D02*
X874480D01*
X854500Y330852D02*
X859900D01*
X869950Y320802D01*
X874480D02*
X874501Y320781D01*
Y315997D02*
Y320781D01*
Y315997D02*
X874522Y315976D01*
X854484Y330868D02*
X854500Y330852D01*
X874252Y347933D02*
X874628Y348310D01*
X870202Y347933D02*
X874252D01*
X865137Y342868D02*
X870202Y347933D01*
X854484Y342868D02*
X865137D01*
X867277Y363474D02*
X874480D01*
X862671Y358868D02*
X867277Y363474D01*
X844296Y386080D02*
Y390724D01*
X838484Y380268D02*
X844296Y386080D01*
X838484Y370868D02*
Y380268D01*
X826484Y370868D02*
Y375634D01*
X833628Y382778D01*
Y390724D01*
X844296D02*
X848903D01*
X822960D02*
X827604D01*
X814484Y382248D02*
X822960Y390724D01*
X883480Y363474D02*
X888746D01*
X837936Y359400D02*
X841788Y363252D01*
Y363278D02*
X844299Y365789D01*
X846484Y367948D02*
Y382244D01*
X841788Y363252D02*
Y363278D01*
X844325Y365789D02*
X846484Y367948D01*
X844299Y365789D02*
X844325D01*
X794484Y350868D02*
X794500Y350884D01*
X846484Y382244D02*
X854964Y390724D01*
X743839Y215265D02*
X743966Y215392D01*
X734433Y215265D02*
X743839D01*
X734306Y215138D02*
X734433Y215265D01*
X734306Y202438D02*
X743966D01*
X784306Y227838D02*
X784433Y227711D01*
X793623D01*
X793750Y227584D01*
X784306Y240538D02*
X793750D01*
X806771Y552704D02*
X838068D01*
X797975Y543908D02*
X806771Y552704D01*
X785274Y543908D02*
X797975D01*
X846484Y563908D02*
Y568608D01*
Y561120D02*
Y563908D01*
X838068Y552704D02*
X846484Y561120D01*
Y568608D02*
X854964Y577088D01*
Y583764D01*
X874480Y541202D02*
Y545846D01*
X830580Y489712D02*
X830608Y489684D01*
X830500Y489792D02*
X830580Y489712D01*
X776732Y552450D02*
X785274Y543908D01*
X773176Y552450D02*
X776732D01*
X773390Y547664D02*
Y552236D01*
X773176Y552450D02*
X773390Y552236D01*
Y547664D02*
X773938Y547116D01*
X773815Y500507D02*
X787273D01*
X787400Y500634D01*
X773688Y500380D02*
X773815Y500507D01*
X773969Y511048D02*
X787542D01*
X773828Y511188D02*
X773969Y511048D01*
X818388Y484378D02*
Y489966D01*
Y484378D02*
X818896Y483870D01*
X818388Y489966D02*
X818500Y490078D01*
Y503892D01*
X818484Y503908D02*
X818500Y503892D01*
X830608Y483898D02*
Y489684D01*
X830500Y489792D02*
Y503892D01*
X830608Y483898D02*
X830637Y483870D01*
X830484Y503908D02*
X830500Y503892D01*
X867936Y518486D02*
X874244D01*
X874362Y513960D02*
X874480Y513842D01*
X874362Y513960D02*
Y518371D01*
X863398Y511908D02*
X867306Y508000D01*
X874268D01*
X874374Y503280D02*
X874480Y503174D01*
X854484Y511908D02*
X863398D01*
X874268Y508000D02*
X874374Y507894D01*
Y503280D02*
Y507894D01*
X854484Y523908D02*
X862514D01*
X867936Y518486D01*
X862705Y535908D02*
X867999Y541202D01*
X874268D01*
X854484Y535908D02*
X862705D01*
X870416Y552450D02*
X874480Y556514D01*
X861314Y552450D02*
X870416D01*
X860781D02*
X861314D01*
X860256Y551924D02*
X860781Y552450D01*
X854500Y551924D02*
X860256D01*
X854484Y551908D02*
X854500Y551924D01*
X844296Y577342D02*
Y583764D01*
X838484Y563908D02*
Y571530D01*
X844296Y577342D01*
Y583764D02*
X848940D01*
X824484Y533908D02*
X833120Y525272D01*
X842518D01*
X842484Y503908D02*
X842500Y503924D01*
Y510173D02*
X842530Y510204D01*
X842500Y503924D02*
Y510173D01*
X759460Y163322D02*
X764938D01*
X776224Y87122D02*
Y91004D01*
X818896Y86360D02*
Y91076D01*
X830637Y86557D02*
Y91076D01*
X843570Y70140D02*
X848578D01*
X848614Y70176D01*
X843534Y70104D02*
X843570Y70140D01*
X848614Y100004D02*
Y103886D01*
X883480Y119380D02*
X888746D01*
X883480Y130048D02*
X887222D01*
X883480Y162052D02*
X887984D01*
X883480Y172720D02*
X888492D01*
X833628Y399724D02*
Y404876D01*
X844622Y260930D02*
X848614D01*
Y288036D02*
Y290758D01*
X830637Y277057D02*
Y281830D01*
X818896Y278638D02*
Y281830D01*
X776224Y277876D02*
Y281830D01*
X760222Y339344D02*
X764938D01*
X773684Y339598D02*
X773938Y339344D01*
X771216Y339598D02*
X773684D01*
X770962Y339852D02*
X771216Y339598D01*
X854484Y128114D02*
X860200D01*
X868934Y119380D02*
X874480D01*
X854484Y152114D02*
X862685D01*
X860200Y128114D02*
X868934Y119380D01*
X854484Y140114D02*
X864414D01*
X846484Y186084D02*
X854964Y194564D01*
X826484Y180114D02*
Y186962D01*
X814500Y188898D02*
X821643Y196041D01*
X838484Y180114D02*
Y187801D01*
X814484Y180114D02*
X814500Y180130D01*
Y188898D01*
X838484Y187801D02*
X844296Y193613D01*
X818484Y120114D02*
X818500Y120098D01*
X854964Y194564D02*
Y199970D01*
X821643Y196041D02*
Y198653D01*
X818500Y100472D02*
X818896Y100076D01*
X784766Y350868D02*
X794484D01*
X883480Y556514D02*
X888746D01*
X814484Y370868D02*
Y382248D01*
X854484Y358868D02*
X862671D01*
X854484Y318868D02*
X856952D01*
X865686Y310134D01*
X874480D01*
X794499Y519923D02*
X800847D01*
X794484Y519908D02*
X794499Y519923D01*
X800847D02*
X800862Y519938D01*
D15*
X11176Y724154D02*
Y728794D01*
D17*
X615054Y716635D02*
X615527Y717109D01*
X607002Y710402D02*
X613234Y716635D01*
X615054D01*
X604502Y710402D02*
X607002D01*
X585500Y656299D02*
Y670403D01*
X581152Y651950D02*
X585500Y656299D01*
X604502Y659620D02*
Y674403D01*
X596832Y651950D02*
X604502Y659620D01*
X592328Y651950D02*
X596832D01*
X573754Y706643D02*
X576818Y709707D01*
Y725984D02*
X582168Y731334D01*
X576818Y709707D02*
Y725984D01*
X570502Y730590D02*
X571246Y731334D01*
X570740Y706643D02*
X573754D01*
X570502Y706404D02*
X570740Y706643D01*
X570502Y710405D02*
Y730590D01*
X581502Y719811D02*
X593090Y731398D01*
X581502Y714406D02*
Y719811D01*
X807466Y583982D02*
Y586922D01*
Y576834D02*
Y583982D01*
Y583982D02*
X807466Y583982D01*
X812292D01*
X801624Y592764D02*
X803318Y591070D01*
X807466Y586922D01*
X802484Y571852D02*
X807466Y576834D01*
X802484Y563908D02*
Y571852D01*
X788290Y312674D02*
X792434Y316818D01*
X770522Y312674D02*
X788290D01*
X792654Y318868D02*
X794484D01*
X792434Y318648D02*
X792654Y318868D01*
X792434Y316818D02*
Y318648D01*
X765188Y307340D02*
X770522Y312674D01*
X765188Y322868D02*
X794484D01*
X765188D02*
Y328426D01*
Y318008D02*
Y322868D01*
X764938Y328676D02*
X765188Y328426D01*
X788036Y505460D02*
X792434Y509858D01*
Y511688D01*
X792654Y511908D01*
X794484D01*
X770268Y505460D02*
X788036D01*
X765188Y500380D02*
X770268Y505460D01*
X765227Y512497D02*
X765932Y511792D01*
X765302Y515908D02*
X794484D01*
X765302D02*
Y521352D01*
Y512572D02*
Y515908D01*
X764938Y521716D02*
X765302Y521352D01*
X764938Y521716D02*
Y522779D01*
X792483Y489244D02*
X802393Y499154D01*
X788416Y476676D02*
X792483Y480744D01*
X788416Y475488D02*
Y476676D01*
X792483Y480744D02*
Y489244D01*
X802393Y499154D02*
Y503817D01*
X802484Y503908D01*
D23*
X734306Y598932D02*
D03*
Y611632D02*
D03*
Y624332D02*
D03*
X784306Y586232D02*
D03*
Y598932D02*
D03*
Y611632D02*
D03*
Y624332D02*
D03*
Y431292D02*
D03*
Y418592D02*
D03*
Y405892D02*
D03*
Y393192D02*
D03*
X734306Y431292D02*
D03*
Y418592D02*
D03*
Y405892D02*
D03*
X784306Y240538D02*
D03*
Y227838D02*
D03*
Y215138D02*
D03*
Y202438D02*
D03*
X734306Y240538D02*
D03*
Y227838D02*
D03*
Y215138D02*
D03*
D24*
Y586232D02*
D03*
Y393192D02*
D03*
Y202438D02*
D03*
D28*
X11176Y166692D02*
D03*
Y175192D02*
D03*
Y97468D02*
D03*
Y88968D02*
D03*
Y659502D02*
D03*
Y651002D02*
D03*
Y378900D02*
D03*
Y370400D02*
D03*
Y448124D02*
D03*
Y456624D02*
D03*
X593090Y739898D02*
D03*
Y731398D02*
D03*
X604012Y740117D02*
D03*
Y731116D02*
D03*
X571246Y731334D02*
D03*
Y739834D02*
D03*
X582168Y731334D02*
D03*
Y739834D02*
D03*
X581152Y651950D02*
D03*
Y643450D02*
D03*
X592328Y651950D02*
D03*
Y643450D02*
D03*
X801624Y390724D02*
D03*
Y399724D02*
D03*
X797560Y474870D02*
D03*
Y483870D02*
D03*
X812292Y208688D02*
D03*
Y200188D02*
D03*
X801624Y199970D02*
D03*
Y208970D02*
D03*
X822960Y199970D02*
D03*
Y208970D02*
D03*
X830637Y100076D02*
D03*
Y91076D02*
D03*
X833628Y199970D02*
D03*
Y208970D02*
D03*
X854964Y199970D02*
D03*
Y208970D02*
D03*
X844296Y199970D02*
D03*
Y208970D02*
D03*
X848614Y70176D02*
D03*
Y79176D02*
D03*
Y100004D02*
D03*
Y91004D02*
D03*
X797560D02*
D03*
Y100004D02*
D03*
X818896Y100076D02*
D03*
Y91076D02*
D03*
X786892Y99859D02*
D03*
Y91358D02*
D03*
X808228Y91004D02*
D03*
Y100004D02*
D03*
X776224D02*
D03*
Y91004D02*
D03*
X822960Y390724D02*
D03*
Y399724D02*
D03*
X833628Y390724D02*
D03*
Y399724D02*
D03*
X812292Y390942D02*
D03*
Y399442D02*
D03*
X844296Y390724D02*
D03*
Y399724D02*
D03*
X854964Y390724D02*
D03*
Y399724D02*
D03*
X830637Y290830D02*
D03*
Y281830D02*
D03*
X848614Y290758D02*
D03*
Y281758D02*
D03*
X797560Y281830D02*
D03*
Y290830D02*
D03*
X786892Y290613D02*
D03*
Y282113D02*
D03*
X808228Y281830D02*
D03*
Y290830D02*
D03*
X818896Y290830D02*
D03*
Y281830D02*
D03*
X776224Y290830D02*
D03*
Y281830D02*
D03*
X848614Y260930D02*
D03*
Y269930D02*
D03*
X833628Y583764D02*
D03*
Y592764D02*
D03*
X830637Y483870D02*
D03*
Y474870D02*
D03*
X844296Y583764D02*
D03*
Y592764D02*
D03*
X822960Y583764D02*
D03*
Y592764D02*
D03*
X818896Y483870D02*
D03*
Y474870D02*
D03*
X812292Y592482D02*
D03*
Y583982D02*
D03*
X801624Y583764D02*
D03*
Y592764D02*
D03*
X848614Y453970D02*
D03*
Y462970D02*
D03*
X854964Y583764D02*
D03*
Y592764D02*
D03*
X848614Y483798D02*
D03*
Y474798D02*
D03*
X808228Y474870D02*
D03*
Y483870D02*
D03*
X776224D02*
D03*
Y474870D02*
D03*
X786892Y483652D02*
D03*
Y475153D02*
D03*
X11176Y737294D02*
D03*
Y728794D02*
D03*
D30*
X811458Y219456D02*
D03*
X802458D02*
D03*
X765188Y307340D02*
D03*
X773688D02*
D03*
X765188Y318008D02*
D03*
X773688D02*
D03*
X773938Y328676D02*
D03*
X764938D02*
D03*
X547442Y58928D02*
D03*
X556442D02*
D03*
X547442Y69596D02*
D03*
X556442D02*
D03*
X764938Y137922D02*
D03*
X773938D02*
D03*
X773688Y127254D02*
D03*
X765188D02*
D03*
X773688Y116586D02*
D03*
X765188D02*
D03*
X773938Y173990D02*
D03*
X764938D02*
D03*
X773938Y163322D02*
D03*
X764938D02*
D03*
X773938Y148590D02*
D03*
X764938D02*
D03*
X874480Y162052D02*
D03*
X883480D02*
D03*
X874480Y151384D02*
D03*
X883480D02*
D03*
X874480Y130048D02*
D03*
X883480D02*
D03*
X874480Y172720D02*
D03*
X883480D02*
D03*
X874480Y119380D02*
D03*
X883480D02*
D03*
X874480Y140716D02*
D03*
X883480D02*
D03*
X874480Y363474D02*
D03*
X883480D02*
D03*
X874480Y331470D02*
D03*
X883480D02*
D03*
X874480Y352806D02*
D03*
X883480D02*
D03*
X874480Y320802D02*
D03*
X883480D02*
D03*
X773938Y364744D02*
D03*
X764938D02*
D03*
X773938Y354076D02*
D03*
X764938D02*
D03*
X773938Y339344D02*
D03*
X764938D02*
D03*
X874480Y342138D02*
D03*
X883480D02*
D03*
X874480Y310134D02*
D03*
X883480D02*
D03*
X802458Y410210D02*
D03*
X811458D02*
D03*
X773938Y547116D02*
D03*
X764938D02*
D03*
X773938Y557784D02*
D03*
X764938D02*
D03*
X802458Y603504D02*
D03*
X811458D02*
D03*
X874480Y556514D02*
D03*
X883480D02*
D03*
X773938Y532384D02*
D03*
X764938D02*
D03*
X874480Y513842D02*
D03*
X883480D02*
D03*
X874480Y545846D02*
D03*
X883480D02*
D03*
X874480Y503174D02*
D03*
X883480D02*
D03*
X764938Y521716D02*
D03*
X773938D02*
D03*
X773688Y511048D02*
D03*
X765188D02*
D03*
X874480Y524510D02*
D03*
X883480D02*
D03*
X874480Y535178D02*
D03*
X883480D02*
D03*
X773688Y500380D02*
D03*
X765188D02*
D03*
X455748Y328930D02*
D03*
X464748D02*
D03*
X455748Y318262D02*
D03*
X464748D02*
D03*
X443302Y610108D02*
D03*
X452302D02*
D03*
X443302Y599440D02*
D03*
X452302D02*
D03*
X552124Y691388D02*
D03*
X543124D02*
D03*
X552124Y702056D02*
D03*
X543124D02*
D03*
D31*
X26417Y454136D02*
D03*
Y734671D02*
D03*
X26416Y653415D02*
D03*
Y372880D02*
D03*
X26417Y172709D02*
D03*
X26416Y91453D02*
D03*
D34*
X879838Y95676D02*
D03*
Y74676D02*
D03*
X862838D02*
D03*
Y95676D02*
D03*
X879838Y286430D02*
D03*
Y265430D02*
D03*
X862838D02*
D03*
Y286430D02*
D03*
X879838Y479470D02*
D03*
Y458470D02*
D03*
X862838D02*
D03*
Y479470D02*
D03*
D36*
X742304Y103124D02*
D03*
X756804D02*
D03*
X742304Y293878D02*
D03*
X756804D02*
D03*
X742304Y486918D02*
D03*
X756804D02*
D03*
D84*
X804349Y207663D02*
G03*
X804837Y207637I488J4512D01*
G01*
X822484Y559295D02*
Y563908D01*
X818579Y564003D02*
Y567881D01*
X822198Y571500D01*
X818484Y563908D02*
X818579Y564003D01*
X804031Y558757D02*
X806484Y561210D01*
X800374Y558757D02*
X804031D01*
X806484Y561210D02*
Y563908D01*
X798839Y560292D02*
X800374Y558757D01*
X798100Y560292D02*
X798839D01*
X810344Y564048D02*
Y571354D01*
X810198Y571500D02*
X810344Y571354D01*
Y564048D02*
X810484Y563908D01*
X794258Y624332D02*
X794512Y624078D01*
X784306Y624332D02*
X794258D01*
X784306Y611632D02*
X795020D01*
X734306Y598932D02*
X742188D01*
X751078Y586232D02*
X751332Y585978D01*
X734587Y586232D02*
X751078D01*
X734306D02*
Y586513D01*
X734587Y586232D01*
X823117Y185931D02*
Y189648D01*
X822624Y185438D02*
X823117Y185931D01*
X822484Y180114D02*
X822624Y180254D01*
X823117Y189648D02*
X823304Y189836D01*
X822624Y180254D02*
Y185438D01*
X788036Y121666D02*
X792450Y126080D01*
X770268Y121666D02*
X788036D01*
X792450Y127777D02*
X792787Y128114D01*
X794484D01*
X792450Y126080D02*
Y127777D01*
X765188Y116586D02*
X770268Y121666D01*
X765188Y132463D02*
Y137672D01*
Y127254D02*
Y132463D01*
X765537Y132114D01*
X794484D01*
X764938Y137922D02*
X765188Y137672D01*
X786892Y91358D02*
X792226Y96692D01*
Y105192D02*
X802484Y115450D01*
X792226Y96692D02*
Y105192D01*
X802484Y190380D02*
X812292Y200188D01*
X802484Y180114D02*
Y190380D01*
X810484Y190943D02*
X813597Y194056D01*
X810484Y180114D02*
Y190943D01*
X803489Y207663D02*
X804349D01*
X804837Y207637D02*
X810427Y202047D01*
X801624Y208970D02*
X803489Y207663D01*
X810427Y202047D02*
X812286Y200188D01*
X791972Y287192D02*
Y295693D01*
X802484Y306204D01*
X786892Y282113D02*
X791972Y287192D01*
X802484Y381134D02*
X812292Y390942D01*
X802484Y370868D02*
Y381134D01*
X801624Y399724D02*
X803258Y398090D01*
X805144D02*
X812292Y390942D01*
X803258Y398090D02*
X805144D01*
X806436Y180161D02*
Y186896D01*
Y180161D02*
X806484Y180114D01*
X810198Y381340D02*
X810484Y381054D01*
Y370868D02*
Y381054D01*
X822624Y374024D02*
X823339Y374739D01*
Y380832D01*
X822624Y371008D02*
Y374024D01*
X822484Y370868D02*
X822624Y371008D01*
X758698Y354584D02*
X764430D01*
X764938Y354076D01*
X758680Y364744D02*
X764938D01*
X758547Y364611D02*
X758680Y364744D01*
X743331Y431165D02*
X743458Y431038D01*
X734306Y431292D02*
X734433Y431165D01*
X743331D01*
X802484Y115450D02*
Y120114D01*
X818624Y180254D02*
Y186960D01*
X818786Y187123D01*
X818484Y180114D02*
X818624Y180254D01*
Y378060D02*
X818770Y378206D01*
X818624Y371008D02*
Y378060D01*
X818484Y370868D02*
X818624Y371008D01*
X806389Y377698D02*
X806436Y377650D01*
Y370915D02*
Y377650D01*
Y370915D02*
X806484Y370868D01*
X792079Y416828D02*
X792974D01*
X793496Y416306D01*
X784306Y418592D02*
X790315D01*
X792079Y416828D01*
X784306Y431292D02*
X784814Y430784D01*
X792480D01*
X792988Y430276D01*
X734306Y393192D02*
X744728D01*
X734306Y405892D02*
X744220D01*
X802484Y306204D02*
Y310868D01*
D85*
X893608Y723562D02*
G03*
X885441Y743279I-27884J0D01*
G01*
X885384Y743336D02*
G03*
X870311Y749579I-15074J-15074D01*
G01*
X883909Y701944D02*
G03*
X883526Y701488I2426J-2426D01*
G01*
D02*
G03*
X882904Y699518I2809J-1971D01*
G01*
X881269Y694604D02*
G03*
X882904Y698552I-3951J3948D01*
G01*
X881268Y694603D02*
G03*
X881269Y694604I-3950J3950D01*
G01*
X878687Y692611D02*
G03*
X879694Y693029I0J1425D01*
G01*
X878687Y692611D02*
G03*
X877680Y692195I0J-1425D01*
G01*
D02*
G03*
X877679Y692194I1007J-1009D01*
G01*
X875030Y690277D02*
G03*
X876279Y690795I0J1767D01*
G01*
X815840Y749579D02*
G03*
X811009Y747581I0J-6839D01*
G01*
X622308Y747768D02*
G03*
X624046Y747050I1738J1745D01*
G01*
X809734D02*
G03*
X811003Y747575I0J1797D01*
G01*
X547050Y749833D02*
G03*
X528738Y742249I0J-25896D01*
G01*
X505457Y729488D02*
G03*
X523417Y736927I0J25400D01*
G01*
X469600Y729488D02*
G03*
X455684Y723726I0J-19686D01*
G01*
X449139Y717181D02*
G03*
X443434Y703408I13773J-13773D01*
G01*
X444829Y690256D02*
G03*
X444833Y690252I3382J3374D01*
G01*
X443434Y693631D02*
G03*
X444829Y690256I4777J0D01*
G01*
X445673Y688232D02*
G03*
X446190Y686982I1767J0D01*
G01*
X444843Y690243D02*
G03*
X444838Y690247I-2020J-2011D01*
G01*
X445673Y688232D02*
G03*
X444843Y690243I-2850J0D01*
G01*
X622305Y747771D02*
G03*
X617327Y749833I-4978J-4978D01*
G01*
X891043Y723528D02*
G03*
X883603Y741489I-25400J0D01*
G01*
X883594Y741498D02*
G03*
X870264Y747014I-13330J-13348D01*
G01*
X883603Y741489D02*
G03*
X883594Y741498I-13339J-13339D01*
G01*
X886981Y708571D02*
G03*
X891043Y718377I-9805J9805D01*
G01*
X881371Y702961D02*
G03*
X880339Y699866I4124J-3095D01*
G01*
X815859Y747014D02*
G03*
X812805Y745749I0J-4318D01*
G01*
X876712Y695177D02*
G03*
X879276Y696239I0J3627D01*
G01*
X875030Y695547D02*
G03*
X875924Y695177I894J894D01*
G01*
X809752Y744485D02*
G03*
X812805Y745749I0J4318D01*
G01*
X547217Y747268D02*
G03*
X530434Y740316I0J-23736D01*
G01*
X620867Y745581D02*
G03*
X623514Y744485I2647J2647D01*
G01*
X505470Y726923D02*
G03*
X525222Y735104I0J27933D01*
G01*
X470663Y726923D02*
G03*
X456753Y721167I0J-19686D01*
G01*
X450972Y715386D02*
G03*
X445999Y703373I12023J-12012D01*
G01*
X446651Y692062D02*
G03*
X446652Y692061I1577J1576D01*
G01*
X446652D02*
G03*
X448668Y691226I2015J2016D01*
G01*
X445999Y693638D02*
G03*
X446651Y692062I2229J0D01*
G01*
X449917Y690709D02*
G03*
X448668Y691226I-1249J-1249D01*
G01*
X620867Y745581D02*
G03*
X616794Y747268I-4073J-4073D01*
G01*
X888815Y706777D02*
G03*
X893608Y718367I-11617J11590D01*
G01*
X888802Y706764D02*
G03*
X888815Y706777I-11603J11603D01*
G01*
X811009Y747581D02*
G03*
X811004Y747576I4831J-4841D01*
G01*
X622305Y747771D02*
G03*
X622308Y747768I1742J1742D01*
G01*
X811003Y747575D02*
G03*
X811004Y747576I-1269J1273D01*
G01*
X455684Y723726D02*
G03*
X455680Y723722I13916J-13923D01*
G01*
X881849Y703512D02*
G03*
X881371Y702961I3646J-3646D01*
G01*
X879276Y696239D02*
G03*
X880339Y698803I-2564J2564D01*
G01*
X456753Y721167D02*
G03*
X456743Y721157I13910J-13930D01*
G01*
X450977Y715391D02*
G03*
X450972Y715386I12018J-12018D01*
G01*
X490150Y683757D02*
G03*
X485911Y682007I0J-6008D01*
G01*
X809395Y664865D02*
G03*
X812798Y665730I0J7125D01*
G01*
X868945Y727097D02*
G03*
X865911Y734420I-10357J0D01*
G01*
D02*
G03*
X858588Y737453I-7323J-7323D01*
G01*
X568509Y686404D02*
G03*
X567643Y686046I0J-1225D01*
G01*
X569227Y686404D02*
G03*
X568361Y686046I0J-1225D01*
G01*
X567494Y685687D02*
G03*
X568361Y686046I0J1225D01*
G01*
X566777Y685687D02*
G03*
X567643Y686046I0J1225D01*
G01*
X535807Y685687D02*
G03*
X532571Y684346I0J-4577D01*
G01*
X531149Y683757D02*
G03*
X532571Y684346I-0J2012D01*
G01*
X485911Y682007D02*
G03*
X485902Y681998I4239J-4257D01*
G01*
X481588Y680211D02*
G03*
X485902Y681998I0J6101D01*
G01*
X474161Y682455D02*
G03*
X474816Y680870I2244J0D01*
G01*
D02*
G03*
X474818Y680868I1589J1585D01*
G01*
X474820Y680866D02*
G03*
X476405Y680211I1585J1589D01*
G01*
X474818Y680868D02*
G03*
X474820Y680866I1587J1587D01*
G01*
X474161Y682706D02*
G03*
X473643Y683955I-1767J0D01*
G01*
X568361Y682763D02*
G03*
X567494Y683122I-866J-866D01*
G01*
X567643Y682763D02*
G03*
X568509Y682404I866J866D01*
G01*
X568361Y682763D02*
G03*
X569227Y682404I866J866D01*
G01*
X535824Y683122D02*
G03*
X534375Y682522I0J-2052D01*
G01*
X567643Y682763D02*
G03*
X566777Y683122I-866J-866D01*
G01*
X534375Y682522D02*
G03*
X534373Y682521I1449J-1453D01*
G01*
X531166Y681192D02*
G03*
X534373Y682521I-0J4536D01*
G01*
X490169Y681192D02*
G03*
X487705Y680173I0J-3489D01*
G01*
D02*
G03*
X487702Y680170I2464J-2470D01*
G01*
X481610Y677645D02*
G03*
X487700Y680168I0J8614D01*
G01*
X473022Y679036D02*
G03*
X471390Y679711I-1631J-1634D01*
G01*
X473380Y678678D02*
G03*
X475873Y677645I2494J2494D01*
G01*
X473023Y679035D02*
G03*
X473022Y679036I-1632J-1632D01*
G01*
X469917Y680229D02*
G03*
X471166Y679711I1249J1249D01*
G01*
X580674Y639076D02*
G03*
X581152Y640229I-1154J1154D01*
G01*
X895182Y695989D02*
G03*
X893897Y699098I-4403J0D01*
G01*
X893057Y701118D02*
G03*
X892540Y702367I-1767J0D01*
G01*
X893057Y701118D02*
G03*
X893892Y699103I2850J0D01*
G01*
X826798Y647299D02*
G03*
X825882Y646920I0J-1295D01*
G01*
X870479Y641821D02*
G03*
X885349Y647980I0J21030D01*
G01*
X825501Y646433D02*
G03*
X825502Y646434I-849J852D01*
G01*
X844692Y644438D02*
G03*
X837772Y647299I-6920J-6937D01*
G01*
X824652Y646082D02*
G03*
X825501Y646433I0J1203D01*
G01*
X850988Y641821D02*
G03*
X851010Y641821I21J8935D01*
G01*
X844734Y644396D02*
G03*
X850988Y641821I6276J6360D01*
G01*
X844692Y644438D02*
G03*
X844734Y644396I6318J6318D01*
G01*
X888814Y698641D02*
G03*
X890063Y698123I1249J1249D01*
G01*
X892617Y695779D02*
G03*
X891930Y697437I-2344J0D01*
G01*
D02*
G03*
X890273Y698123I-1657J-1657D01*
G01*
X886871Y653131D02*
G03*
X892617Y667001I-13870J13870D01*
G01*
X880426Y647299D02*
G03*
X883550Y649809I-9968J15602D01*
G01*
X825501Y650731D02*
G03*
X824652Y651082I-849J-852D01*
G01*
X846485Y646273D02*
G03*
X837814Y649865I-8671J-8671D01*
G01*
X870458Y644386D02*
G03*
X874153Y644759I0J18514D01*
G01*
X825502Y650730D02*
G03*
X825501Y650731I-851J-851D01*
G01*
X825882Y650244D02*
G03*
X826798Y649865I916J916D01*
G01*
X846485Y646273D02*
G03*
X851040Y644386I4555J4555D01*
G01*
X893897Y699098D02*
G03*
X893892Y699103I-3118J-3109D01*
G01*
X888707Y651339D02*
G03*
X895182Y666992I-15683J15653D01*
G01*
X888692Y651323D02*
G03*
X888707Y651339I-15668J15668D01*
G01*
X874153Y644759D02*
G03*
X880426Y647299I-3695J18142D01*
G01*
X871510Y727130D02*
G03*
X867749Y736211I-12842J0D01*
G01*
X867715Y736244D02*
G03*
X858603Y740019I-9112J-9112D01*
G01*
X837207D02*
G03*
X833308Y738410I0J-5527D01*
G01*
X825882Y738650D02*
G03*
X826798Y738271I916J916D01*
G01*
X825501Y739137D02*
G03*
X824652Y739488I-849J-852D01*
G01*
X825502Y739136D02*
G03*
X825501Y739137I-851J-851D01*
G01*
X837147Y679114D02*
G03*
X835131Y679949I-2016J-2016D01*
G01*
X837147Y679114D02*
G03*
X839304Y678220I2157J2157D01*
G01*
X846120D02*
G03*
X855773Y682219I0J13651D01*
G01*
X837216Y737453D02*
G03*
X835106Y736579I0J-2984D01*
G01*
X833182Y735705D02*
G03*
X834974Y736448I0J2535D01*
G01*
X826798Y735705D02*
G03*
X825882Y735326I0J-1295D01*
G01*
X825501Y734839D02*
G03*
X825502Y734840I-849J852D01*
G01*
X824652Y734488D02*
G03*
X825501Y734839I0J1203D01*
G01*
X838126Y682453D02*
G03*
X838614Y681274I1668J0D01*
G01*
X838616Y681272D02*
G03*
X839794Y680786I1178J1181D01*
G01*
X838126Y682943D02*
G03*
X837608Y684193I-1767J0D01*
G01*
X852983Y683291D02*
G03*
X854572Y684646I-7730J10674D01*
G01*
X851683Y682461D02*
G03*
X852983Y683291I-6430J11504D01*
G01*
X849420Y681462D02*
G03*
X851683Y682461I-4168J12502D01*
G01*
X845253Y680786D02*
G03*
X849420Y681462I0J13179D01*
G01*
X861032Y687478D02*
G03*
X871510Y712774I-25296J25296D01*
G01*
X833308Y738410D02*
G03*
X833298Y738400I3898J-3918D01*
G01*
X859209Y689283D02*
G03*
X868945Y712787I-23505J23505D01*
G01*
X838614Y681274D02*
G03*
X838616Y681272I1179J1179D01*
G01*
X553977Y699484D02*
G03*
X554486Y698254I1738J0D01*
G01*
Y698254D02*
G03*
X555852Y697689I1366J1366D01*
G01*
X553470Y700710D02*
G03*
X553467Y700713I-1232J-1227D01*
G01*
X553977Y699484D02*
G03*
X553470Y700710I-1738J0D01*
G01*
X568509Y698406D02*
G03*
X567643Y698047I0J-1225D01*
G01*
X566777Y697689D02*
G03*
X567643Y698047I0J1225D01*
G01*
X555272Y695123D02*
G03*
X554356Y694744I0J-1295D01*
G01*
D02*
G03*
X553977Y693828I916J-916D01*
G01*
X553579Y692843D02*
G03*
X553977Y693802I-959J959D01*
G01*
X567643Y694764D02*
G03*
X568509Y694406I866J866D01*
G01*
X567643Y694764D02*
G03*
X566777Y695123I-866J-866D01*
G01*
X536124Y698005D02*
G03*
X541272Y700203I0J7125D01*
G01*
X497801Y694443D02*
G03*
X502100Y696224I0J6080D01*
G01*
X502124Y696248D02*
G03*
X502114Y696238I4255J-4275D01*
G01*
X506379Y698005D02*
G03*
X502124Y696248I0J-6032D01*
G01*
X541265Y693248D02*
G03*
X536124Y695439I-5141J-4933D01*
G01*
X498864Y691878D02*
G03*
X503163Y693659I0J6080D01*
G01*
X503918Y694414D02*
G03*
X503914Y694410I2481J-2489D01*
G01*
X506399Y695439D02*
G03*
X503918Y694414I0J-3514D01*
G01*
X875453Y679196D02*
G03*
X877996Y680249I0J3596D01*
G01*
X872480Y679196D02*
G03*
X865559Y676329I0J-9789D01*
G01*
X844434Y659638D02*
G03*
X851999Y662769I0J10705D01*
G01*
X831966Y662247D02*
G03*
X838271Y659638I6305J6313D01*
G01*
X830803Y663410D02*
G03*
X827290Y664865I-3513J-3513D01*
G01*
X825501Y665731D02*
G03*
X824652Y666082I-849J-852D01*
G01*
X825502Y665730D02*
G03*
X825501Y665731I-851J-851D01*
G01*
X825882Y665244D02*
G03*
X826798Y664865I916J916D01*
G01*
X881825Y679270D02*
G03*
X882445Y679382I0J1767D01*
G01*
X881825Y679270D02*
G03*
X879810Y678435I0J-2850D01*
G01*
X876129Y676667D02*
G03*
X879802Y678427I-664J6098D01*
G01*
X875464Y676631D02*
G03*
X876129Y676667I0J6134D01*
G01*
X872490Y676631D02*
G03*
X867366Y674508I0J-7246D01*
G01*
X829001Y661584D02*
G03*
X827273Y662299I-1728J-1728D01*
G01*
X844462Y657073D02*
G03*
X853798Y660939I0J13202D01*
G01*
X830903Y659682D02*
G03*
X837208Y657073I6305J6313D01*
G01*
X825501Y661433D02*
G03*
X825502Y661434I-849J852D01*
G01*
X824652Y661082D02*
G03*
X825501Y661433I0J1203D01*
G01*
X826798Y662299D02*
G03*
X825882Y661920I0J-1295D01*
G01*
X879348Y683514D02*
G03*
X879340Y683506I1249J-1249D01*
G01*
D02*
G03*
X878831Y682265I1257J-1242D01*
G01*
X877996Y680249D02*
G03*
X878831Y682265I-2016J2016D01*
G01*
X851999Y662769D02*
G03*
X852003Y662774I-7565J7574D01*
G01*
X882445Y679382D02*
G03*
X883074Y679788I-620J1655D01*
G01*
X830899Y659686D02*
G03*
X830903Y659682I6309J6309D01*
G01*
X854227Y717909D02*
G03*
X851515Y724458I-9263J0D01*
G01*
X851911Y707893D02*
G03*
X854227Y713485I-5592J5592D01*
G01*
X844914Y704753D02*
G03*
X851499Y707482I0J9314D01*
G01*
X844883Y704753D02*
G03*
X841901Y703519I0J-4217D01*
G01*
X837692Y728751D02*
G03*
X831077Y726011I0J-9356D01*
G01*
X825528Y724004D02*
G03*
X827299Y723271I1771J1771D01*
G01*
D02*
G03*
X829070Y724004I0J2505D01*
G01*
X825326Y724312D02*
G03*
X824901Y724488I-425J-425D01*
G01*
X841342Y702960D02*
G03*
X841341Y702958I1632J-1632D01*
G01*
D02*
G03*
X840666Y701327I1634J-1631D01*
G01*
X849727Y726246D02*
G03*
X843678Y728751I-6049J-6049D01*
G01*
X851662Y717894D02*
G03*
X849690Y722655I-6732J0D01*
G01*
X850083Y709693D02*
G03*
X851662Y713505I-3812J3812D01*
G01*
X844351Y707319D02*
G03*
X850083Y709693I0J8106D01*
G01*
X844351Y707319D02*
G03*
X840463Y705708I0J-5499D01*
G01*
X838755Y726186D02*
G03*
X832144Y723451I0J-9356D01*
G01*
X827334Y720705D02*
G03*
X830859Y722165I0J4984D01*
G01*
X827334Y720705D02*
G03*
X825503Y719948I0J-2591D01*
G01*
D02*
G03*
X825502Y719946I1831J-1833D01*
G01*
X837896Y704098D02*
G03*
X839528Y704774I0J2308D01*
G01*
X824901Y719488D02*
G03*
X825326Y719664I0J601D01*
G01*
X837671Y704098D02*
G03*
X836422Y703580I0J-1767D01*
G01*
X847919Y724426D02*
G03*
X843662Y726186I-4257J-4268D01*
G01*
X847924Y724420D02*
G03*
X847919Y724426I-4263J-4263D01*
G01*
X840340Y700080D02*
G03*
X840666Y701103I-1441J1023D01*
G01*
X840148Y699854D02*
G03*
X840340Y700080I-1249J1249D01*
G01*
X860173Y144831D02*
G03*
X856984Y144114I-73J-7124D01*
G01*
X867395Y144768D02*
G03*
X867480Y144767I85J9690D01*
G01*
X867418Y147333D02*
G03*
X872628Y149532I62J7124D01*
G01*
X872621Y142576D02*
G03*
X867480Y144767I-5141J-4933D01*
G01*
X860184Y147396D02*
G03*
X860100Y147397I-85J-9690D01*
G01*
X857002Y148105D02*
G03*
X860100Y147397I3098J6416D01*
G01*
X860173Y335585D02*
G03*
X856984Y334868I-73J-7124D01*
G01*
X867395Y335522D02*
G03*
X867480Y335521I85J9690D01*
G01*
X867418Y338087D02*
G03*
X872628Y340286I62J7124D01*
G01*
X872621Y333330D02*
G03*
X867480Y335521I-5141J-4933D01*
G01*
X860184Y338150D02*
G03*
X860100Y338151I-85J-9690D01*
G01*
X857002Y338859D02*
G03*
X860100Y338151I3098J6416D01*
G01*
X809395Y738271D02*
G03*
X812798Y739136I0J7125D01*
G01*
X607389Y706038D02*
G03*
X609603Y705686I2214J6772D01*
G01*
X611465D02*
G03*
X619681Y709089I0J11620D01*
G01*
X641284Y730692D02*
G03*
X641276Y730684I18307J-18323D01*
G01*
X659591Y738271D02*
G03*
X641284Y730692I0J-25901D01*
G01*
X812798Y734840D02*
G03*
X809395Y735705I-3403J-6260D01*
G01*
X611485Y703120D02*
G03*
X621480Y707260I0J14135D01*
G01*
X609603Y703120D02*
G03*
X607355Y702756I0J-7125D01*
G01*
X643047Y728827D02*
G03*
X643037Y728817I16620J-16640D01*
G01*
X659667Y735705D02*
G03*
X643047Y728827I0J-23518D01*
G01*
X809395Y723271D02*
G03*
X812798Y724136I0J7125D01*
G01*
X614579Y697686D02*
G03*
X628105Y703288I0J19129D01*
G01*
X607373Y698045D02*
G03*
X609607Y697686I2234J6765D01*
G01*
X640260Y715444D02*
G03*
X640240Y715424I18923J-18963D01*
G01*
X659183Y723271D02*
G03*
X640260Y715444I0J-26789D01*
G01*
X812788Y719845D02*
G03*
X809395Y720705I-3393J-6265D01*
G01*
X614611Y695120D02*
G03*
X629896Y701452I0J21617D01*
G01*
X609607Y695120D02*
G03*
X607355Y694755I0J-7125D01*
G01*
X659230Y720705D02*
G03*
X642021Y713577I0J-24338D01*
G01*
X809168Y723271D02*
G03*
X809167Y723271I-1J-9690D01*
G01*
X809168Y720705D02*
G03*
X809167Y720705I-1J-7125D01*
G01*
X641132Y672120D02*
G03*
X658648Y664865I17516J17516D01*
G01*
X607385Y690040D02*
G03*
X609607Y689685I2221J6770D01*
G01*
X619489Y689576D02*
G03*
X617746Y689685I-1743J-13945D01*
G01*
X627683Y685569D02*
G03*
X619489Y689576I-9937J-9937D01*
G01*
X639332Y670292D02*
G03*
X658648Y662299I19316J19344D01*
G01*
X812798Y661434D02*
G03*
X809395Y662299I-3403J-6260D01*
G01*
X609607Y687120D02*
G03*
X607355Y686754I0J-7125D01*
G01*
X626621Y683003D02*
G03*
X616683Y687120I-9937J-9937D01*
G01*
X639318Y670306D02*
G03*
X639332Y670292I19330J19330D01*
G01*
X812788Y646439D02*
G03*
X809395Y647299I-3393J-6265D01*
G01*
X609092Y679102D02*
G03*
X608227Y679121I-865J-20033D01*
G01*
D02*
G03*
X607361Y678762I0J-1225D01*
G01*
X607355Y678756D02*
G03*
X607361Y678762I-860J873D01*
G01*
X606495Y678403D02*
G03*
X607355Y678756I0J1225D01*
G01*
X622406Y673248D02*
G03*
X622392Y673262I-14179J-14179D01*
G01*
X659461Y647299D02*
G03*
X659498Y647299I37J26903D01*
G01*
X640503Y655151D02*
G03*
X659461Y647299I18995J19052D01*
G01*
X640475Y655179D02*
G03*
X640503Y655151I19023J19023D01*
G01*
X809395Y649865D02*
G03*
X812798Y650730I0J7125D01*
G01*
X607361Y682045D02*
G03*
X608227Y681686I866J866D01*
G01*
X607361Y682045D02*
G03*
X607355Y682052I-866J-866D01*
G01*
X607355Y682052D02*
G03*
X606495Y682404I-860J-873D01*
G01*
X624184Y675097D02*
G03*
X624092Y675189I-15907J-15907D01*
G01*
X612109Y681358D02*
G03*
X608277Y681686I-3832J-22168D01*
G01*
X642275Y657007D02*
G03*
X659518Y649865I17243J17243D01*
G01*
X809168Y647299D02*
G03*
X809167Y647299I-1J-7125D01*
G01*
X611609Y678834D02*
G03*
X609092Y679102I-3382J-19764D01*
G01*
X622392Y673262D02*
G03*
X622140Y673509I-14165J-14192D01*
G01*
D02*
G03*
X611609Y678834I-13913J-14440D01*
G01*
X809168Y649865D02*
G03*
X809167Y649865I-1J-9690D01*
G01*
X624092Y675189D02*
G03*
X623969Y675311I-15815J-15999D01*
G01*
D02*
G03*
X612109Y681358I-15691J-16120D01*
G01*
X857002Y531899D02*
G03*
X860100Y531191I3098J6416D01*
G01*
X860184Y531190D02*
G03*
X860100Y531191I-85J-9690D01*
G01*
X872621Y526370D02*
G03*
X867480Y528561I-5141J-4933D01*
G01*
X867418Y531127D02*
G03*
X872628Y533326I62J7124D01*
G01*
X867395Y528562D02*
G03*
X867480Y528561I85J9690D01*
G01*
X860173Y528625D02*
G03*
X856984Y527908I-73J-7124D01*
G01*
X857002Y148105D02*
G03*
X860100Y147397I3098J6416D01*
G01*
X872621Y142576D02*
G03*
X867480Y144767I-5141J-4933D01*
G01*
X860173Y144831D02*
G03*
X856984Y144114I-73J-7124D01*
G01*
X860184Y147396D02*
G03*
X860100Y147397I-85J-9690D01*
G01*
X867395Y144768D02*
G03*
X867480Y144767I85J9690D01*
G01*
X867418Y147333D02*
G03*
X872628Y149532I62J7124D01*
G01*
X893608Y718367D02*
Y723562D01*
X885384Y743336D02*
X885441Y743279D01*
X883909Y701944D02*
X883982D01*
X882904Y698552D02*
Y699518D01*
X881268Y694603D02*
X881269Y694604D01*
X879694Y693029D02*
X881268Y694603D01*
X877679Y692194D02*
X877680Y692195D01*
X876279Y690795D02*
X877679Y692194D01*
X815840Y749579D02*
X870311D01*
X624046Y747050D02*
X809734D01*
X523417Y736927D02*
X528738Y742249D01*
X469600Y729488D02*
X505457D01*
X449139Y717181D02*
X455680Y723722D01*
X444833Y690252D02*
X444838Y690247D01*
X443434Y693631D02*
Y703408D01*
X547050Y749833D02*
X617327D01*
X891043Y718377D02*
Y723528D01*
X882919Y704510D02*
X886981Y708571D01*
X815859Y747014D02*
X870264D01*
X880339Y698803D02*
Y699866D01*
X875924Y695177D02*
X876712D01*
X623514Y744485D02*
X809752D01*
X525222Y735104D02*
X530434Y740316D01*
X470663Y726923D02*
X505470D01*
X445999Y693638D02*
Y703373D01*
X547217Y747268D02*
X616794D01*
X883982Y701944D02*
X888802Y706764D01*
X882846Y704510D02*
X882919D01*
X881849Y703512D02*
X882846Y704510D01*
X450977Y715391D02*
X456743Y721157D01*
X506984Y683757D02*
X531149D01*
X503174D02*
X506984D01*
X500634Y686297D02*
X503174Y683757D01*
X496824Y686297D02*
X500634D01*
X494284Y683757D02*
X496824Y686297D01*
X490474Y683757D02*
X494284D01*
X490150D02*
X490474D01*
X529299Y698005D02*
X535178D01*
X526524Y700780D02*
X529299Y698005D01*
X522714Y700780D02*
X526524D01*
X519938Y698005D02*
X522714Y700780D01*
X516128Y698005D02*
X519938D01*
X535178D02*
X536124D01*
X506379D02*
X516128D01*
X783605Y649865D02*
X790448D01*
X781065Y652405D02*
X783605Y649865D01*
X777255Y652405D02*
X781065D01*
X774586Y649735D02*
X777255Y652405D01*
X770776Y649735D02*
X774586D01*
X768106Y652405D02*
X770776Y649735D01*
X764296Y652405D02*
X768106D01*
X761627Y649735D02*
X764296Y652405D01*
X757817Y649735D02*
X761627D01*
X755147Y652405D02*
X757817Y649735D01*
X751337Y652405D02*
X755147D01*
X748668Y649735D02*
X751337Y652405D01*
X744857Y649735D02*
X748668D01*
X742188Y652405D02*
X744857Y649735D01*
X738378Y652405D02*
X742188D01*
X735838Y649865D02*
X738378Y652405D01*
X732028Y649865D02*
X735838D01*
X659518D02*
X732028D01*
X790448D02*
X809167D01*
X658648Y664865D02*
X777240D01*
X802899D02*
X809244D01*
X800359Y667405D02*
X802899Y664865D01*
X796549Y667405D02*
X800359D01*
X793879Y664735D02*
X796549Y667405D01*
X790070Y664735D02*
X793879D01*
X787400Y667405D02*
X790070Y664735D01*
X783590Y667405D02*
X787400D01*
X781050Y664865D02*
X783590Y667405D01*
X777240Y664865D02*
X781050D01*
X809244D02*
X809395D01*
X801370Y720705D02*
X809167D01*
X797057D02*
X801370D01*
X794517Y718165D02*
X797057Y720705D01*
X790707Y718165D02*
X794517D01*
X788037Y720835D02*
X790707Y718165D01*
X784228Y720835D02*
X788037D01*
X781558Y718165D02*
X784228Y720835D01*
X777748Y718165D02*
X781558D01*
X775208Y720705D02*
X777748Y718165D01*
X771398Y720705D02*
X775208D01*
X659230D02*
X771398D01*
X801395Y735705D02*
X806958D01*
X798855Y733165D02*
X801395Y735705D01*
X795045Y733165D02*
X798855D01*
X792376Y735835D02*
X795045Y733165D01*
X788566Y735835D02*
X792376D01*
X785896Y733165D02*
X788566Y735835D01*
X782086Y733165D02*
X785896D01*
X779417Y735835D02*
X782086Y733165D01*
X775607Y735835D02*
X779417D01*
X772937Y733165D02*
X775607Y735835D01*
X769127Y733165D02*
X772937D01*
X766458Y735835D02*
X769127Y733165D01*
X762648Y735835D02*
X766458D01*
X759978Y733165D02*
X762648Y735835D01*
X756168Y733165D02*
X759978D01*
X753499Y735835D02*
X756168Y733165D01*
X749689Y735835D02*
X753499D01*
X747019Y733165D02*
X749689Y735835D01*
X743209Y733165D02*
X747019D01*
X740539Y735835D02*
X743209Y733165D01*
X736730Y735835D02*
X740539D01*
X734060Y733165D02*
X736730Y735835D01*
X730250Y733165D02*
X734060D01*
X727710Y735705D02*
X730250Y733165D01*
X723900Y735705D02*
X727710D01*
X659667D02*
X723900D01*
X806958D02*
X809395D01*
X809395D01*
X607355Y702756D02*
X607355D01*
X868945Y712787D02*
Y727097D01*
X854572Y684646D02*
X859209Y689283D01*
X568002Y686404D02*
X568509D01*
X569227D01*
X570502D01*
X567284Y685687D02*
X568002Y686404D01*
X535807Y685687D02*
X566777D01*
X567284D01*
X567494D01*
X532571Y684346D02*
X532571Y684346D01*
X476405Y680211D02*
X481588D01*
X474161Y682455D02*
Y682706D01*
X567284Y683122D02*
X568002Y682404D01*
X568509D02*
X569227D01*
X568002D02*
X568509D01*
X535824Y683122D02*
X566777D01*
X567284D01*
X567494D01*
X569227Y682404D02*
X570502D01*
X490169Y681192D02*
X531166D01*
X531166D01*
X487700Y680168D02*
X487702Y680170D01*
X475873Y677645D02*
X481610D01*
X473022Y679036D02*
X473023Y679035D01*
X473380Y678678D01*
X471166Y679711D02*
X471390D01*
X581152Y640229D02*
Y643450D01*
X592328D01*
X895182Y666992D02*
Y695989D01*
X885349Y647980D02*
X888692Y651323D01*
X826798Y647299D02*
X837772D01*
X825502Y646434D02*
Y646541D01*
X825882Y646920D01*
X851010Y641821D02*
X870479D01*
X823325Y646082D02*
X824652D01*
X844692Y644438D02*
X844692Y644438D01*
X892617Y667001D02*
Y695779D01*
X890063Y698123D02*
X890273D01*
X883550Y649809D02*
X886871Y653131D01*
X823325Y651082D02*
X824652D01*
X851040Y644386D02*
X870458D01*
X825502Y650624D02*
Y650730D01*
Y650624D02*
X825882Y650244D01*
X826798Y649865D02*
X837814D01*
X791984Y168114D02*
X794484D01*
X788670Y171428D02*
X791984Y168114D01*
X788670Y171428D02*
Y176022D01*
X867715Y736244D02*
X867749Y736211D01*
X871510Y712774D02*
Y727130D01*
X855773Y682219D02*
X861032Y687478D01*
X839304Y678220D02*
X846120D01*
X837207Y740019D02*
X858603D01*
X825502Y739030D02*
X825882Y738650D01*
X826798Y738271D02*
X833169D01*
X823325Y739488D02*
X824652D01*
X825502Y739030D02*
Y739136D01*
X837216Y737453D02*
X858588D01*
X834974Y736448D02*
X835106Y736579D01*
X826798Y735705D02*
X833182D01*
X825502Y734947D02*
X825882Y735326D01*
X825502Y734840D02*
Y734947D01*
X823325Y734488D02*
X824652D01*
X838126Y682453D02*
Y682943D01*
X839794Y680786D02*
X845253D01*
X833169Y738271D02*
X833298Y738400D01*
X555852Y697689D02*
X566777D01*
X553467Y700713D02*
X553470Y700710D01*
X552124Y702056D02*
X553467Y700713D01*
X568509Y698406D02*
X570502D01*
X553977Y693802D02*
Y693828D01*
X552124Y691388D02*
X553579Y692843D01*
X568509Y694406D02*
X570502D01*
X555272Y695123D02*
X566777D01*
X848158Y323585D02*
X851076D01*
X846806Y322233D02*
X848158Y323585D01*
X851793Y322868D02*
X854484D01*
X851076Y323585D02*
X851793Y322868D01*
X846074Y322233D02*
X846806D01*
X846074Y327503D02*
X846806D01*
X851076Y326151D02*
X851793Y326868D01*
X846806Y327503D02*
X848158Y326151D01*
X851793Y326868D02*
X854484D01*
X848158Y326151D02*
X851076D01*
X883480Y535178D02*
X885333Y533326D01*
Y531886D02*
Y533326D01*
X891062Y532479D02*
X891794D01*
X889710Y531127D02*
X891062Y532479D01*
X886092Y531127D02*
X889710D01*
X885333Y531886D02*
X886092Y531127D01*
X885333Y527802D02*
X886092Y528561D01*
X889710D01*
X891062Y527209D01*
X891794D01*
X885333Y526362D02*
Y527802D01*
X883480Y524510D02*
X885333Y526362D01*
X593504Y714406D02*
Y715220D01*
X593856Y715572D02*
X598848D01*
X593504Y715220D02*
X593856Y715572D01*
X541272Y700203D02*
X543124Y702056D01*
X482620Y694443D02*
X497801D01*
X502100Y696224D02*
X502114Y696238D01*
X506399Y695439D02*
X536124D01*
X503163Y693659D02*
X503914Y694410D01*
X541265Y693248D02*
X541272Y693240D01*
X482298Y691878D02*
X498864D01*
X480509Y695892D02*
X481171D01*
X482620Y694443D01*
X541272Y693240D02*
X543124Y691388D01*
X481046Y690626D02*
X482298Y691878D01*
X480314Y690626D02*
X481046D01*
X872480Y679196D02*
X875453D01*
X838271Y659638D02*
X844434D01*
X831966Y662247D02*
X832713Y661500D01*
X830803Y663410D02*
X831966Y662247D01*
X823325Y666082D02*
X824652D01*
X825502Y665624D02*
Y665730D01*
Y665624D02*
X825882Y665244D01*
X826798Y664865D02*
X827290D01*
X879802Y678427D02*
X879810Y678435D01*
X872490Y676631D02*
X875464D01*
X853798Y660939D02*
X867366Y674508D01*
X837208Y657073D02*
X844462D01*
X829001Y661584D02*
X830899Y659686D01*
X823325Y661082D02*
X824652D01*
X825502Y661434D02*
Y661541D01*
X825882Y661920D01*
X826798Y662299D02*
X827273D01*
X855139Y665909D02*
X865559Y676329D01*
X852003Y662774D02*
X855139Y665909D01*
X854227Y713485D02*
Y717909D01*
X851499Y707482D02*
X851911Y707893D01*
X844883Y704753D02*
X844914D01*
X841342Y702960D02*
X841901Y703519D01*
X841341Y702958D02*
X841342Y702960D01*
X829070Y724004D02*
X831077Y726011D01*
X825502Y724029D02*
X825528Y724004D01*
X823325Y724488D02*
X824901D01*
X825326Y724312D02*
X825502Y724136D01*
X840666Y701103D02*
Y701327D01*
X837692Y728751D02*
X843678D01*
X849727Y726246D02*
X851515Y724458D01*
X851662Y713505D02*
Y717894D01*
X847924Y724420D02*
X849690Y722655D01*
X839528Y704774D02*
X840463Y705708D01*
X832144Y723451D02*
X832890Y724197D01*
X830859Y722165D02*
X832144Y723451D01*
X825502Y719840D02*
Y719946D01*
X825326Y719664D02*
X825502Y719840D01*
X823325Y719488D02*
X824901D01*
X837671Y704098D02*
X837896D01*
X838755Y726186D02*
X843662D01*
X825502Y724029D02*
Y724136D01*
X848158Y550625D02*
X849457D01*
X852175Y547908D01*
X846806Y549273D02*
X848158Y550625D01*
X852175Y547908D02*
X854484D01*
X846074Y549273D02*
X846806D01*
X852175Y555908D02*
X854484D01*
X846074Y554543D02*
X846806D01*
X849457Y553191D02*
X852175Y555908D01*
X848158Y553191D02*
X849457D01*
X846806Y554543D02*
X848158Y553191D01*
Y516625D02*
X851076D01*
X846806Y515273D02*
X848158Y516625D01*
X851793Y515908D02*
X854484D01*
X851076Y516625D02*
X851793Y515908D01*
X846074Y515273D02*
X846806D01*
X846074Y520543D02*
X846806D01*
X851076Y519191D02*
X851793Y519908D01*
X846806Y520543D02*
X848158Y519191D01*
X851793Y519908D02*
X854484D01*
X848158Y519191D02*
X851076D01*
X852175Y362868D02*
X854484D01*
X846074Y361503D02*
X846806D01*
X849457Y360151D02*
X852175Y362868D01*
X848158Y360151D02*
X849457D01*
X846806Y361503D02*
X848158Y360151D01*
Y357585D02*
X849457D01*
X852175Y354868D01*
X846806Y356233D02*
X848158Y357585D01*
X852175Y354868D02*
X854484D01*
X846074Y356233D02*
X846806D01*
X883480Y342138D02*
X885333Y340286D01*
X891062Y339439D02*
X891794D01*
X889710Y338087D02*
X891062Y339439D01*
X885333Y338846D02*
Y340286D01*
Y338846D02*
X886092Y338087D01*
X889710D01*
Y335521D02*
X891062Y334169D01*
X891794D01*
X886092Y335521D02*
X889710D01*
X885333Y333322D02*
Y334762D01*
X886092Y335521D01*
X883480Y331470D02*
X885333Y333322D01*
X883480Y151384D02*
X885333Y149532D01*
X891062Y148685D02*
X891794D01*
X889710Y147333D02*
X891062Y148685D01*
X886092Y147333D02*
X889710D01*
X885333Y148092D02*
Y149532D01*
Y148092D02*
X886092Y147333D01*
Y144767D02*
X889710D01*
X891062Y143415D01*
X891794D01*
X885333Y142568D02*
Y144008D01*
X886092Y144767D01*
X883480Y140716D02*
X885333Y142568D01*
X846806Y136749D02*
X848158Y135397D01*
X846074Y136749D02*
X846806D01*
X851793Y136114D02*
X854484D01*
X848158Y135397D02*
X851076D01*
X851793Y136114D01*
X848158Y132831D02*
X851076D01*
X851793Y132114D01*
X846806Y131479D02*
X848158Y132831D01*
X851793Y132114D02*
X854484D01*
X846074Y131479D02*
X846806D01*
X848158Y166831D02*
X849457D01*
X846806Y165479D02*
X848158Y166831D01*
X852175Y164114D02*
X854484D01*
X849457Y166831D02*
X852175Y164114D01*
X846074Y165479D02*
X846806D01*
X852175Y172114D02*
X854484D01*
X846074Y170749D02*
X846806D01*
X849457Y169397D02*
X852175Y172114D01*
X848158Y169397D02*
X849457D01*
X846806Y170749D02*
X848158Y169397D01*
X773938Y521716D02*
Y525780D01*
Y521716D02*
X773938Y521716D01*
X742009Y287710D02*
Y293583D01*
X742304Y293878D01*
X736092D02*
X742304D01*
X764322Y147974D02*
X764938Y148590D01*
X760222Y147974D02*
X764322D01*
X734306Y240538D02*
X743458D01*
X773938Y137922D02*
Y142566D01*
X811276Y219638D02*
Y224282D01*
Y219638D02*
X811458Y219456D01*
Y410210D02*
Y415726D01*
X786892Y491236D02*
X796036Y500380D01*
X786892Y483652D02*
Y491236D01*
X830580Y474813D02*
X830637Y474870D01*
X830580Y469900D02*
Y474813D01*
X818896Y469900D02*
Y474870D01*
X773688Y511048D02*
X773828Y511188D01*
X760190Y532384D02*
X764938D01*
X764684Y558038D02*
X764938Y557784D01*
X758698Y558038D02*
X764684D01*
X759968Y547116D02*
X764938D01*
X883480Y545846D02*
X887984D01*
X883480Y503174D02*
X884242Y502412D01*
X888746D01*
X883480Y513842D02*
X883988Y513334D01*
X889000D01*
X848432Y483616D02*
X848614Y483798D01*
X844042Y483616D02*
X848432D01*
X872628Y149532D02*
X874480Y151384D01*
X856984Y148114D02*
X857002Y148105D01*
X860184Y147396D02*
X867418Y147333D01*
X854484Y148114D02*
X856984D01*
X860173Y144831D02*
X867395Y144768D01*
X872628Y142568D02*
X874480Y140716D01*
X872621Y142576D02*
X872628Y142568D01*
X854484Y144114D02*
X856984D01*
X872628Y340286D02*
X874480Y342138D01*
X856984Y338868D02*
X857002Y338859D01*
X860184Y338150D02*
X867418Y338087D01*
X854484Y338868D02*
X856984D01*
X860173Y335585D02*
X867395Y335522D01*
X872628Y333322D02*
X874480Y331470D01*
X872621Y333330D02*
X872628Y333322D01*
X854484Y334868D02*
X856984D01*
X812798Y739136D02*
X814975Y739488D01*
X812798Y739136D02*
X812798D01*
X659591Y738271D02*
X809395D01*
X607355Y706050D02*
X607389Y706038D01*
X609603Y705686D02*
X611465D01*
X619681Y709089D02*
X641276Y730684D01*
X812798Y734840D02*
X812798D01*
X814975Y734488D01*
X812798Y734840D02*
X812798D01*
X621480Y707260D02*
X643037Y728817D01*
X609603Y703120D02*
X611485D01*
X604502Y702404D02*
X607355Y702756D01*
X604502Y706402D02*
X607355Y706050D01*
X812798Y724136D02*
X814975Y724488D01*
X812798Y724136D02*
X812798D01*
X809168Y723271D02*
X809395D01*
X607355Y698051D02*
X607373Y698045D01*
X609607Y697686D02*
X614579D01*
X659183Y723271D02*
X809167D01*
X628105Y703288D02*
X640240Y715424D01*
X809395Y720705D02*
X809395D01*
X809168D02*
X809395D01*
X812788Y719845D02*
X812798Y719840D01*
X809395Y720705D02*
X809395D01*
X629896Y701452D02*
X642021Y713577D01*
X609607Y695120D02*
X614611D01*
X604502Y694403D02*
X607355Y694755D01*
X607355D01*
X604502Y698403D02*
X607355Y698051D01*
X812798Y719840D02*
X814975Y719488D01*
X632750Y680502D02*
X641132Y672120D01*
X812798Y665730D02*
X814975Y666082D01*
X812798Y665730D02*
X812798D01*
X609607Y689685D02*
X617746D01*
X607355Y690050D02*
X607385Y690040D01*
X627683Y685569D02*
X632750Y680502D01*
X809395Y662299D02*
X809395D01*
X658648D02*
X809395D01*
X630936Y678688D02*
X639318Y670306D01*
X812798Y661434D02*
X812798D01*
X814975Y661082D01*
X812798Y661434D02*
X812798D01*
X609607Y687120D02*
X616683D01*
X604502Y686402D02*
X607355Y686754D01*
X607355D01*
X626621Y683003D02*
X630936Y678688D01*
X604502Y690403D02*
X607355Y690050D01*
X809395Y647299D02*
X809395D01*
X809168D02*
X809395D01*
X659498Y647299D02*
X809167D01*
X812788Y646439D02*
X812798Y646434D01*
X809395Y647299D02*
X809395D01*
X604502Y678403D02*
X606495D01*
X622406Y673248D02*
X640475Y655179D01*
X812798Y650730D02*
X814975Y651082D01*
X812798Y650730D02*
X812798D01*
X624184Y675097D02*
X642275Y657007D01*
X809168Y649865D02*
X809395D01*
X608227Y681686D02*
X608277D01*
X604502Y682404D02*
X606495D01*
X812798Y646434D02*
X814975Y646082D01*
X856984Y148114D02*
X857002Y148105D01*
X854484Y148114D02*
X856984D01*
X872628Y149532D02*
X874480Y151384D01*
X860184Y147396D02*
X867418Y147333D01*
X860173Y144831D02*
X867395Y144768D01*
X854484Y144114D02*
X856984D01*
X872628Y142568D02*
X874480Y140716D01*
X872621Y142576D02*
X872628Y142568D01*
X854484Y527908D02*
X856984D01*
X872621Y526370D02*
X872628Y526362D01*
X874480Y524510D01*
X860173Y528625D02*
X867395Y528562D01*
X854484Y531908D02*
X856984D01*
X860184Y531190D02*
X867418Y531127D01*
X856984Y531908D02*
X857002Y531899D01*
X872628Y533326D02*
X874480Y535178D01*
D86*
X853848Y592482D02*
G03*
X854837Y592891I0J1398D01*
G01*
X811458Y594495D02*
G03*
X812292Y592482I2847J0D01*
G01*
X853848D01*
X811458Y594495D02*
Y603504D01*
X833628Y592764D02*
Y597154D01*
X844296Y592764D02*
Y597154D01*
X743712Y532952D02*
X744600Y532064D01*
D87*
X809395Y720705D02*
D03*
Y647299D02*
D03*
D91*
X53086Y677926D02*
D03*
X832358Y63500D02*
D03*
D97*
X685343Y691769D02*
D03*
X710336D02*
D03*
X730352D02*
D03*
X755345D02*
D03*
X680339Y706755D02*
D03*
X700354D02*
D03*
X720344D02*
D03*
X740334D02*
D03*
X760349D02*
D03*
D98*
X784352Y692760D02*
D03*
X656336D02*
D03*
D99*
X54708Y713848D02*
D03*
D100*
X76708Y688848D02*
D03*
D101*
X104708Y736348D02*
D03*
D102*
X882306Y716913D02*
D03*
X839306D02*
D03*
Y668912D02*
D03*
X882306D02*
D03*
D103*
X109612Y84786D02*
D03*
X489612D02*
D03*
X109612Y646948D02*
D03*
X489612D02*
D03*
X109612Y366213D02*
D03*
X489612D02*
D03*
D104*
X463979Y609896D02*
D03*
X488696D02*
D03*
X460009Y636556D02*
D03*
X424434Y646430D02*
D03*
X428752Y642620D02*
D03*
X436742Y626461D02*
D03*
X875030Y690277D02*
D03*
X846582Y695548D02*
D03*
X446190Y686982D02*
D03*
X875030Y695547D02*
D03*
X846582Y690278D02*
D03*
X449917Y690709D02*
D03*
X590296Y691896D02*
D03*
X525526Y688594D02*
D03*
X579120Y681482D02*
D03*
X593344Y683260D02*
D03*
X895604Y707136D02*
D03*
X888699Y677418D02*
D03*
X887984Y692912D02*
D03*
X883288Y688988D02*
D03*
X831873Y674878D02*
D03*
X832612Y708406D02*
D03*
X837946Y689610D02*
D03*
X841300Y694711D02*
D03*
X418590Y398397D02*
D03*
X419584Y116435D02*
D03*
X473643Y683955D02*
D03*
X469917Y680229D02*
D03*
X448063Y722832D02*
D03*
X440494Y715418D02*
D03*
X239014Y649478D02*
D03*
X239268Y644398D02*
D03*
X218440Y643890D02*
D03*
X842764Y331604D02*
D03*
X892540Y702367D02*
D03*
X888814Y698641D02*
D03*
X188602Y337640D02*
D03*
Y325956D02*
D03*
Y331544D02*
D03*
X270898Y337386D02*
D03*
Y325702D02*
D03*
Y331290D02*
D03*
X256391Y364661D02*
D03*
X180191D02*
D03*
X205591D02*
D03*
X269091D02*
D03*
X230937Y363924D02*
D03*
X225348D02*
D03*
X236525D02*
D03*
X160324D02*
D03*
X154736D02*
D03*
X149149D02*
D03*
X615527Y717109D02*
D03*
X612104Y734943D02*
D03*
X788670Y176022D02*
D03*
X395224Y617474D02*
D03*
X11176Y724154D02*
D03*
X121859Y427482D02*
D03*
X117094D02*
D03*
X37084Y422402D02*
D03*
X41942Y422337D02*
D03*
X822484Y559295D02*
D03*
X822198Y571500D02*
D03*
X798100Y560292D02*
D03*
X810198Y571500D02*
D03*
X794512Y624078D02*
D03*
X795020Y611632D02*
D03*
X742188Y598932D02*
D03*
X751332Y585978D02*
D03*
X251460Y664496D02*
D03*
X263652Y664495D02*
D03*
X205591Y645396D02*
D03*
X180191D02*
D03*
X269091Y83234D02*
D03*
X256391D02*
D03*
X205591D02*
D03*
X180191D02*
D03*
X459232Y116337D02*
D03*
X383032D02*
D03*
X464820Y665988D02*
D03*
X421132Y678499D02*
D03*
X383032D02*
D03*
X459232Y397764D02*
D03*
X383032D02*
D03*
X307340Y679972D02*
D03*
X294570D02*
D03*
X287962Y677541D02*
D03*
X300662D02*
D03*
X328168Y665734D02*
D03*
X328034Y677344D02*
D03*
Y682932D02*
D03*
Y671248D02*
D03*
X328168Y746252D02*
D03*
X328034Y734642D02*
D03*
Y729054D02*
D03*
Y740738D02*
D03*
Y606732D02*
D03*
Y618416D02*
D03*
Y612828D02*
D03*
X328168Y601218D02*
D03*
X243518Y748216D02*
D03*
X242058Y719578D02*
D03*
X242388Y628364D02*
D03*
X253170Y599254D02*
D03*
X76454Y515620D02*
D03*
X76320Y527230D02*
D03*
Y532818D02*
D03*
Y521134D02*
D03*
X81026Y515620D02*
D03*
X80892Y527230D02*
D03*
Y532818D02*
D03*
Y521134D02*
D03*
X830484Y559295D02*
D03*
X20574Y462788D02*
D03*
X833882Y680466D02*
D03*
X837608Y684193D02*
D03*
X848868Y733298D02*
D03*
X839216D02*
D03*
X829739Y730242D02*
D03*
X792480Y656082D02*
D03*
X798576D02*
D03*
X887730Y74676D02*
D03*
X879838Y83838D02*
D03*
X854538Y95676D02*
D03*
X862838Y104648D02*
D03*
X812800Y143002D02*
D03*
X824256Y144006D02*
D03*
X834136Y144526D02*
D03*
X837692Y159512D02*
D03*
X825500Y159766D02*
D03*
X811530Y160782D02*
D03*
X812038Y330962D02*
D03*
X832104Y330200D02*
D03*
X825246Y342900D02*
D03*
X831088Y350266D02*
D03*
X819912Y351536D02*
D03*
X809498Y353314D02*
D03*
X810514Y520446D02*
D03*
X816102Y536702D02*
D03*
X838498Y541293D02*
D03*
X831088Y546608D02*
D03*
X831850Y527558D02*
D03*
X513588Y659384D02*
D03*
X516128Y651002D02*
D03*
X522986Y658622D02*
D03*
X510032Y667766D02*
D03*
X502920Y650748D02*
D03*
X490220Y657352D02*
D03*
X499618Y671068D02*
D03*
X519684Y670052D02*
D03*
X508254Y704596D02*
D03*
X532892Y670814D02*
D03*
X484124Y668528D02*
D03*
X43434Y95904D02*
D03*
X48768Y90570D02*
D03*
Y95904D02*
D03*
X43434Y90570D02*
D03*
Y115570D02*
D03*
X48768Y120904D02*
D03*
Y115570D02*
D03*
X43434Y120904D02*
D03*
X97282Y259080D02*
D03*
X85672Y258946D02*
D03*
X80084D02*
D03*
X91768D02*
D03*
X96774Y236728D02*
D03*
X85164Y236594D02*
D03*
X79576D02*
D03*
X91260D02*
D03*
X54356Y236982D02*
D03*
X42746Y236848D02*
D03*
X37158D02*
D03*
X48842D02*
D03*
X34036Y477520D02*
D03*
X33902Y489130D02*
D03*
Y494718D02*
D03*
Y483034D02*
D03*
X114046Y488442D02*
D03*
Y500126D02*
D03*
Y494538D02*
D03*
X114180Y482928D02*
D03*
X16256Y432054D02*
D03*
X236525Y82498D02*
D03*
X230937D02*
D03*
X225348D02*
D03*
X160324D02*
D03*
X154736D02*
D03*
X149149D02*
D03*
X160324Y644660D02*
D03*
X154736D02*
D03*
X149149D02*
D03*
X123698Y608076D02*
D03*
X525780Y729996D02*
D03*
X554605Y708080D02*
D03*
X568248Y669349D02*
D03*
X574294Y669290D02*
D03*
X303031Y735823D02*
D03*
X308365Y741157D02*
D03*
Y735823D02*
D03*
X303031Y741157D02*
D03*
X308601Y606313D02*
D03*
X303267Y611647D02*
D03*
X308601D02*
D03*
X846074Y322233D02*
D03*
Y327503D02*
D03*
X462788Y716788D02*
D03*
X414754Y747947D02*
D03*
X407424Y739394D02*
D03*
X397764Y726948D02*
D03*
X389744Y718226D02*
D03*
X433299Y743640D02*
D03*
X424424Y713994D02*
D03*
X458724Y705612D02*
D03*
X439166Y693420D02*
D03*
X433446Y706895D02*
D03*
X425906Y699053D02*
D03*
X553102Y614238D02*
D03*
X541185Y609896D02*
D03*
X563980Y622662D02*
D03*
X571759Y631806D02*
D03*
X580674Y639076D02*
D03*
X589727Y707381D02*
D03*
X891794Y532479D02*
D03*
Y527209D02*
D03*
X536827Y740408D02*
D03*
X550041Y735476D02*
D03*
X561910Y714818D02*
D03*
X557863Y727719D02*
D03*
X481584Y595856D02*
D03*
X526288Y597154D02*
D03*
X536956Y595630D02*
D03*
X528587Y622559D02*
D03*
X540512Y626872D02*
D03*
X548334Y636576D02*
D03*
X558546Y643636D02*
D03*
X566420Y652272D02*
D03*
X544169Y714349D02*
D03*
X537178Y723005D02*
D03*
X521326Y750198D02*
D03*
X489204Y745744D02*
D03*
X486156Y735076D02*
D03*
X453204Y741358D02*
D03*
X598848Y715572D02*
D03*
X610530Y723192D02*
D03*
X300662Y646354D02*
D03*
X263144Y682752D02*
D03*
X480509Y695892D02*
D03*
X480314Y690626D02*
D03*
X483881Y700535D02*
D03*
X474460Y689577D02*
D03*
X464566Y676402D02*
D03*
X846586Y684800D02*
D03*
X875030Y700817D02*
D03*
X879348Y683514D02*
D03*
X883074Y679788D02*
D03*
X854710Y597154D02*
D03*
X833628D02*
D03*
X844296D02*
D03*
X840148Y699854D02*
D03*
X836422Y703580D02*
D03*
X860806Y705411D02*
D03*
Y680413D02*
D03*
X846074Y549273D02*
D03*
Y554543D02*
D03*
Y515273D02*
D03*
Y520543D02*
D03*
Y361503D02*
D03*
Y356233D02*
D03*
X891794Y339439D02*
D03*
Y334169D02*
D03*
Y148685D02*
D03*
Y143415D02*
D03*
X846074Y136749D02*
D03*
Y131479D02*
D03*
Y165479D02*
D03*
Y170749D02*
D03*
X776986Y558038D02*
D03*
X777240Y532130D02*
D03*
X773938Y525780D02*
D03*
X830326Y571754D02*
D03*
X827604Y583855D02*
D03*
X797560Y583946D02*
D03*
X770382Y298958D02*
D03*
X776478Y299212D02*
D03*
X778002Y107696D02*
D03*
X772414D02*
D03*
X750824Y624332D02*
D03*
X799098Y551908D02*
D03*
X872362Y458470D02*
D03*
X879862Y467868D02*
D03*
X854284Y479470D02*
D03*
X870032D02*
D03*
X735838Y486918D02*
D03*
X742134Y479901D02*
D03*
X771350Y474743D02*
D03*
X776224Y470408D02*
D03*
X812546Y404876D02*
D03*
X822706D02*
D03*
X854710D02*
D03*
X844042D02*
D03*
X833628D02*
D03*
X888746Y363474D02*
D03*
X888492Y352806D02*
D03*
X888238Y309880D02*
D03*
Y320802D02*
D03*
X870314Y286430D02*
D03*
X854284D02*
D03*
X879838Y274084D02*
D03*
X872362Y265430D02*
D03*
X799181Y358823D02*
D03*
X771288Y281830D02*
D03*
X742009Y287710D02*
D03*
X736092Y293878D02*
D03*
X742188Y96266D02*
D03*
X735584Y103124D02*
D03*
X811276Y224282D02*
D03*
X812292Y214122D02*
D03*
X822960D02*
D03*
X833628D02*
D03*
X844296D02*
D03*
X854964D02*
D03*
X827935Y203962D02*
D03*
X760222Y147974D02*
D03*
X823304Y189836D02*
D03*
X786638Y307086D02*
D03*
X756412Y552450D02*
D03*
X769620Y482600D02*
D03*
X769366Y487934D02*
D03*
X743458Y240538D02*
D03*
X764794Y179324D02*
D03*
X783590Y173314D02*
D03*
X780796Y144018D02*
D03*
X773938Y142566D02*
D03*
X806268Y199970D02*
D03*
X787654Y113792D02*
D03*
Y136398D02*
D03*
X787610Y126959D02*
D03*
X786366Y326900D02*
D03*
X830326Y105410D02*
D03*
X818500Y105664D02*
D03*
X874522Y114554D02*
D03*
Y125222D02*
D03*
X874480Y157408D02*
D03*
X862584Y168148D02*
D03*
X848940Y199970D02*
D03*
X830834Y191008D02*
D03*
X813597Y194056D02*
D03*
X752813Y168864D02*
D03*
X818134Y295910D02*
D03*
X830468Y296306D02*
D03*
X786638Y318516D02*
D03*
X778654Y327660D02*
D03*
X785828Y364449D02*
D03*
X752856Y358648D02*
D03*
X811458Y415726D02*
D03*
X842530Y126410D02*
D03*
X842518Y141478D02*
D03*
X842530Y317164D02*
D03*
X874522Y305054D02*
D03*
Y315976D02*
D03*
X874628Y348310D02*
D03*
X862671Y358868D02*
D03*
X833628Y382778D02*
D03*
X827604Y390724D02*
D03*
X848903D02*
D03*
X806268Y390724D02*
D03*
X743966Y215392D02*
D03*
Y202438D02*
D03*
X806436Y186896D02*
D03*
X793750Y227584D02*
D03*
Y240538D02*
D03*
X810198Y381340D02*
D03*
X823339Y380832D02*
D03*
X818770Y378206D02*
D03*
X796036Y500380D02*
D03*
X787400Y500634D02*
D03*
X787542Y511048D02*
D03*
X818388Y489966D02*
D03*
X830580Y489712D02*
D03*
X874244Y518486D02*
D03*
X874268Y508000D02*
D03*
Y541202D02*
D03*
X861314Y552450D02*
D03*
X848940Y583764D02*
D03*
X895096Y137414D02*
D03*
Y154686D02*
D03*
Y345440D02*
D03*
Y328168D02*
D03*
Y521208D02*
D03*
Y538480D02*
D03*
X842518Y525272D02*
D03*
X842530Y510204D02*
D03*
X830580Y469900D02*
D03*
X818896D02*
D03*
X760190Y532384D02*
D03*
X758698Y558038D02*
D03*
X759968Y547116D02*
D03*
X759460Y163322D02*
D03*
X776224Y87122D02*
D03*
X818896Y86360D02*
D03*
X830637Y86557D02*
D03*
X843534Y70104D02*
D03*
X848614Y103886D02*
D03*
X888746Y119380D02*
D03*
X887222Y130048D02*
D03*
X887984Y162052D02*
D03*
X888492Y172720D02*
D03*
X844622Y260930D02*
D03*
X848614Y288036D02*
D03*
X830637Y277057D02*
D03*
X818896Y278638D02*
D03*
X776224Y277876D02*
D03*
X760222Y339344D02*
D03*
X770962Y339852D02*
D03*
X758698Y354584D02*
D03*
X758547Y364611D02*
D03*
X743458Y431038D02*
D03*
X818786Y187123D02*
D03*
X806389Y377698D02*
D03*
X793496Y416306D02*
D03*
X792988Y430276D02*
D03*
X744728Y393192D02*
D03*
X744220Y405892D02*
D03*
X888746Y556514D02*
D03*
X887984Y545846D02*
D03*
X888746Y502412D02*
D03*
X889000Y513334D02*
D03*
X842264Y453390D02*
D03*
X844042Y483616D02*
D03*
X800862Y519938D02*
D03*
X35814Y442468D02*
D03*
X51166Y419174D02*
D03*
X56339Y415083D02*
D03*
X40386Y448056D02*
D03*
D105*
X581929Y59523D02*
G03*
X582946Y59436I1017J5906D01*
G01*
X580963Y59774D02*
G03*
X581929Y59523I1983J5656D01*
G01*
X729193Y274615D02*
G03*
X733422Y272868I4229J4247D01*
G01*
X798651Y466210D02*
G03*
X800555Y467308I-1235J4342D01*
G01*
X797416Y466038D02*
G03*
X798651Y466210I0J4514D01*
G01*
X739907Y466352D02*
G03*
X743258Y465986I3351J15176D01*
G01*
X732269Y470538D02*
G03*
X739907Y466352I10989J10989D01*
G01*
X800555Y467308D02*
G03*
X800608Y467360I-3139J3243D01*
G01*
X800608Y467360D02*
G03*
X801587Y469724I-2364J2364D01*
G01*
X799008Y473422D02*
G03*
X799009Y473421I1224J1224D01*
G01*
X801268Y472596D02*
G03*
X800498Y472915I-771J-771D01*
G01*
X799009Y473421D02*
G03*
X800232Y472915I1223J1225D01*
G01*
X730324Y564852D02*
G03*
X730054Y568730I-27985J0D01*
G01*
X801587Y471825D02*
G03*
X801268Y472596I-1090J0D01*
G01*
X730324Y475233D02*
G03*
X732269Y470538I6641J0D01*
G01*
X537570Y621030D02*
G03*
X533691Y619430I0J-5501D01*
G01*
X557871Y619887D02*
G03*
X555111Y621030I-2760J-2760D01*
G01*
X533691Y619430D02*
G03*
X533680Y619419I3879J-3901D01*
G01*
X444256Y660934D02*
G03*
X441668Y656002I3405J-4932D01*
G01*
Y639140D02*
G03*
X447802Y624332I20941J0D01*
G01*
X696221Y610547D02*
G03*
X676432Y618744I-19789J-19789D01*
G01*
X458173Y618460D02*
G03*
X463587Y617794I5414J21656D01*
G01*
X529767D02*
G03*
X533674Y619412I0J5525D01*
G01*
X557871Y619887D02*
G03*
X560630Y618744I2759J2759D01*
G01*
X806779Y473421D02*
G03*
X806780Y473422I-1223J1225D01*
G01*
X805556Y472915D02*
G03*
X806779Y473421I0J1731D01*
G01*
X805291Y472915D02*
G03*
X804520Y472596I0J-1090D01*
G01*
D02*
G03*
X804201Y471825I771J-771D01*
G01*
X727710Y475216D02*
G03*
X730408Y468702I9211J0D01*
G01*
X797435Y463424D02*
G03*
X797509Y463425I0J7082D01*
G01*
X782685Y463424D02*
G03*
X782505Y463409I0J-1090D01*
G01*
X781834Y463382D02*
G03*
X782066Y463372I232J2603D01*
G01*
X731186Y467924D02*
G03*
X742176Y463372I10989J10989D01*
G01*
X781413Y463420D02*
G03*
X781324Y463424I-97J-1085D01*
G01*
X556788Y617273D02*
G03*
X554029Y618416I-2760J-2760D01*
G01*
X537580D02*
G03*
X535523Y617565I0J-2911D01*
G01*
D02*
G03*
X535522Y617564I2057J-2060D01*
G01*
X439055Y639122D02*
G03*
X445941Y622496I23512J0D01*
G01*
X439055Y656002D02*
G03*
X436467Y660934I-5993J0D01*
G01*
X694381Y608691D02*
G03*
X676420Y616130I-17960J-17960D01*
G01*
X727710Y564841D02*
G03*
X727484Y568222I-25400J0D01*
G01*
X720553Y582514D02*
G03*
X720270Y582801I-18243J-17673D01*
G01*
X446719Y621718D02*
G03*
X462504Y615180I15785J15785D01*
G01*
X530850D02*
G03*
X534756Y616798I0J5525D01*
G01*
X556791Y617271D02*
G03*
X559548Y616130I2756J2762D01*
G01*
X556788Y617273D02*
G03*
X556791Y617271I2759J2759D01*
G01*
X730054Y568730D02*
G03*
X722973Y583757I-27715J-3877D01*
G01*
D02*
G03*
X722132Y584636I-20634J-18905D01*
G01*
D02*
G03*
X722127Y584641I-19793J-19784D01*
G01*
X447802Y624332D02*
G03*
X458173Y618460I15785J15784D01*
G01*
X802469Y465525D02*
G03*
X804201Y469706I-4181J4181D01*
G01*
X797509Y463425D02*
G03*
X802443Y465499I-74J7082D01*
G01*
X782066Y463372D02*
G03*
X782505Y463409I0J2614D01*
G01*
X727484Y568222D02*
G03*
X720553Y582514I-25174J-3381D01*
G01*
X441342Y601400D02*
G03*
X436814Y603467I-4528J-3926D01*
G01*
X400955Y650337D02*
G03*
X398367Y655269I-5993J0D01*
G01*
X407693Y608675D02*
G03*
X420265Y603467I12572J12572D01*
G01*
X400955Y622777D02*
G03*
X406162Y610206I17779J0D01*
G01*
X408776Y611288D02*
G03*
X421348Y606081I12572J12572D01*
G01*
X436814D02*
G03*
X441347Y608153I0J5993D01*
G01*
X406156Y655269D02*
G03*
X403568Y650337I3405J-4932D01*
G01*
Y623860D02*
G03*
X408776Y611288I17779J0D01*
G01*
X439055Y370599D02*
G03*
X436467Y375531I-5993J0D01*
G01*
X445458Y340023D02*
G03*
X461054Y333563I15595J15595D01*
G01*
X439055Y355448D02*
G03*
X445433Y340048I21778J0D01*
G01*
X805556Y279875D02*
G03*
X806779Y280381I0J1731D01*
G01*
X805291Y279875D02*
G03*
X804520Y279555I0J-1090D01*
G01*
X804520Y279555D02*
G03*
X804201Y278785I771J-770D01*
G01*
X802960Y273019D02*
G03*
X804201Y276015I-2996J2996D01*
G01*
X797376Y270255D02*
G03*
X802190Y272249I0J6809D01*
G01*
X723579Y280097D02*
G03*
X726087Y274025I8607J0D01*
G01*
X727347Y272764D02*
G03*
X733422Y270255I6075J6097D01*
G01*
X719328Y326644D02*
G03*
X702623Y333563I-16705J-16705D01*
G01*
X723579Y316380D02*
G03*
X719328Y326644I-14516J0D01*
G01*
X444256Y375531D02*
G03*
X441668Y370599I3405J-4932D01*
G01*
X447294Y341884D02*
G03*
X461072Y336177I13778J13778D01*
G01*
X441668Y355465D02*
G03*
X447294Y341884I19207J0D01*
G01*
X801268Y279555D02*
G03*
X800498Y279875I-771J-771D01*
G01*
X801587Y278785D02*
G03*
X801268Y279555I-1090J0D01*
G01*
X799009Y280381D02*
G03*
X800232Y279875I1223J1225D01*
G01*
X800370Y274125D02*
G03*
X801587Y277064I-2939J2939D01*
G01*
X797364Y272868D02*
G03*
X800346Y274101I0J4223D01*
G01*
X726193Y316419D02*
G03*
X721204Y328464I-17034J0D01*
G01*
X726193Y280097D02*
G03*
X727939Y275869I5993J0D01*
G01*
X721158Y328510D02*
G03*
X702649Y336177I-18509J-18509D01*
G01*
X453788Y320222D02*
G03*
X449260Y322289I-4528J-3926D01*
G01*
X400955Y375267D02*
G03*
X398367Y380199I-5993J0D01*
G01*
X400955Y348880D02*
G03*
X408295Y331160I25060J0D01*
G01*
X428591Y322289D02*
G03*
X428628Y322289I37J27674D01*
G01*
X409089Y330366D02*
G03*
X428591Y322289I19540J19597D01*
G01*
X409060Y330395D02*
G03*
X409089Y330366I19568J19568D01*
G01*
X449260Y324903D02*
G03*
X453793Y326975I0J5993D01*
G01*
X406156Y380199D02*
G03*
X403568Y375267I3405J-4932D01*
G01*
Y349963D02*
G03*
X410908Y332243I25060J0D01*
G01*
D02*
G03*
X428628Y324903I17720J17720D01*
G01*
X826484Y501408D02*
G03*
X825791Y498610I5300J-2798D01*
G01*
X821224Y457150D02*
G03*
X825791Y468174I-11025J11025D01*
G01*
X724095Y457119D02*
G03*
X735053Y452586I10959J10979D01*
G01*
X692514Y596028D02*
G03*
X674554Y603467I-17960J-17960D01*
G01*
X458789D02*
G03*
X454257Y601395I0J-5993D01*
G01*
X715698Y473201D02*
G03*
X721129Y460085I18555J0D01*
G01*
X715698Y562323D02*
G03*
X708259Y580283I-25400J0D01*
G01*
X810235Y452586D02*
G03*
X821204Y457129I0J15511D01*
G01*
X823177Y498610D02*
G03*
X822487Y501403I-5993J0D01*
G01*
X819004Y458640D02*
G03*
X823177Y469257I-11418J10617D01*
G01*
X725920Y458990D02*
G03*
X735076Y455199I9156J9163D01*
G01*
X454267Y608141D02*
G03*
X458789Y606081I4522J3933D01*
G01*
X694354Y597884D02*
G03*
X674566Y606081I-19789J-19789D01*
G01*
X718312Y473216D02*
G03*
X722992Y461918I15978J0D01*
G01*
X718312Y562334D02*
G03*
X710115Y582123I-27985J0D01*
G01*
X819004Y458640D02*
G03*
X819376Y458998I-8798J9528D01*
G01*
X810206Y455199D02*
G03*
X819004Y458640I0J12968D01*
G01*
X724084Y457129D02*
G03*
X724095Y457119I10969J10969D01*
G01*
X721129Y460085D02*
G03*
X721133Y460081I13125J13116D01*
G01*
X725917Y458993D02*
G03*
X725920Y458990I9160J9160D01*
G01*
X560220Y94396D02*
G03*
X579053Y86831I18834J19662D01*
G01*
X806273Y89049D02*
G03*
X804201Y84516I3921J-4532D01*
G01*
X789961Y71046D02*
G03*
X795585Y73138I0J8607D01*
G01*
X669286Y81811D02*
G03*
X656973Y86831I-12314J-12593D01*
G01*
X553293Y101247D02*
G03*
X538721Y107188I-14572J-14900D01*
G01*
X490590D02*
G03*
X479561Y102625I0J-15610D01*
G01*
X479543Y102607D02*
G03*
X474980Y91578I11046J-11029D01*
G01*
X439055Y92674D02*
G03*
X436467Y97606I-5993J0D01*
G01*
X471678Y75625D02*
G03*
X474980Y83597I-7972J7972D01*
G01*
X462175Y70792D02*
G03*
X470147Y74094I0J11274D01*
G01*
X439055Y81570D02*
G03*
X441562Y75497I8607J0D01*
G01*
X442333Y74727D02*
G03*
X451833Y70792I9500J9502D01*
G01*
X674228Y76926D02*
G03*
X689289Y71046I15062J16353D01*
G01*
X673569Y77558D02*
G03*
X674228Y76926I15721J15721D01*
G01*
X561728Y96580D02*
G03*
X579379Y89445I17651J18264D01*
G01*
X561419Y96884D02*
G03*
X561728Y96580I17960J17960D01*
G01*
X799510Y79980D02*
G03*
X799520Y89044I-3916J4536D01*
G01*
X789961Y73660D02*
G03*
X793877Y75117I0J5993D01*
G01*
X671243Y83552D02*
G03*
X671062Y83731I-14226J-14226D01*
G01*
D02*
G03*
X657018Y89445I-14045J-14404D01*
G01*
X554521Y103709D02*
G03*
X539309Y109802I-15212J-15943D01*
G01*
X489645D02*
G03*
X478372Y105132I0J-15943D01*
G01*
X444256Y97606D02*
G03*
X441668Y92674I3405J-4932D01*
G01*
X476930Y103690D02*
G03*
X472366Y92661I11046J-11029D01*
G01*
X461093Y73406D02*
G03*
X469064Y76708I0J11274D01*
G01*
X443414Y77341D02*
G03*
X452915Y73406I9501J9501D01*
G01*
X441668Y81570D02*
G03*
X443414Y77341I5993J0D01*
G01*
X675168Y79672D02*
G03*
X690372Y73660I15204J16221D01*
G01*
X674651Y80172D02*
G03*
X675168Y79672I15721J15721D01*
G01*
X553458Y101084D02*
G03*
X553293Y101247I-14737J-14737D01*
G01*
X559801Y94806D02*
G03*
X560220Y94396I19253J19253D01*
G01*
X801218Y78001D02*
G03*
X804201Y84516I-5624J6515D01*
G01*
X669426Y81673D02*
G03*
X669286Y81811I-12453J-12455D01*
G01*
X479561Y102625D02*
G03*
X479552Y102616I11029J-11046D01*
G01*
D02*
G03*
X479543Y102607I11038J-11038D01*
G01*
X554890Y103348D02*
G03*
X554521Y103709I-15582J-15582D01*
G01*
X476938Y103699D02*
G03*
X476930Y103690I11038J-11038D01*
G01*
X469064Y76708D02*
G03*
X472366Y84680I-7972J7972D01*
G01*
X540954Y62955D02*
G03*
X540935Y62955I0J-5993D01*
G01*
X545487Y60883D02*
G03*
X540954Y62955I-4532J-3921D01*
G01*
X518574Y62955D02*
G03*
X514345Y61209I0J-5993D01*
G01*
X506464Y56892D02*
G03*
X512535Y59399I0J8607D01*
G01*
X400955Y93020D02*
G03*
X398367Y97951I-5993J0D01*
G01*
X400955Y76190D02*
G03*
X405818Y64450I16603J0D01*
G01*
X406652Y63616D02*
G03*
X422900Y56892I16248J16272D01*
G01*
X406640Y63628D02*
G03*
X406652Y63616I16260J16260D01*
G01*
X540955Y65569D02*
G03*
X545487Y67641I0J5993D01*
G01*
X540954Y65569D02*
G03*
X540931Y65569I0J-8607D01*
G01*
X518574Y65569D02*
G03*
X512502Y63062I0J-8607D01*
G01*
X506464Y59506D02*
G03*
X510692Y61252I0J5993D01*
G01*
X403568Y76200D02*
G03*
X407673Y66291I14013J0D01*
G01*
X406156Y97951D02*
G03*
X403568Y93020I3405J-4932D01*
G01*
X408490Y65474D02*
G03*
X422910Y59506I14420J14437D01*
G01*
X408481Y65483D02*
G03*
X408490Y65474I14429J14429D01*
G01*
X826484Y117614D02*
G03*
X825791Y114816I5300J-2798D01*
G01*
X564966Y62599D02*
G03*
X564973Y62596I2848J8122D01*
G01*
X564912Y62618D02*
G03*
X558397Y60883I-1982J-5656D01*
G01*
X580099Y57307D02*
G03*
X582946Y56822I2847J8122D01*
G01*
X797719D02*
G03*
X817507Y65019I0J27986D01*
G01*
X823177Y114816D02*
G03*
X822487Y117609I-5993J0D01*
G01*
X817763Y68971D02*
G03*
X823177Y82042I-13071J13071D01*
G01*
X558409Y67626D02*
G03*
X562929Y65569I4520J3936D01*
G01*
X565778Y65084D02*
G03*
X562929Y65569I-2849J-8122D01*
G01*
X565831Y65065D02*
G03*
X565836Y65063I1983J5656D01*
G01*
X797707Y59436D02*
G03*
X815667Y66876I0J25400D01*
G01*
X819628Y67140D02*
G03*
X825791Y82035I-14918J14895D01*
G01*
X819616Y67128D02*
G03*
X819628Y67140I-14907J14907D01*
G01*
X826484Y308368D02*
G03*
X825791Y305570I5300J-2798D01*
G01*
X821158Y267438D02*
G03*
X825791Y278622I-11184J11184D01*
G01*
X715668Y260822D02*
G03*
X727409Y255958I11741J11741D01*
G01*
X471235Y322289D02*
G03*
X466703Y320217I0J-5993D01*
G01*
X706120Y318262D02*
G03*
X696398Y322289I-9722J-9722D01*
G01*
X709274Y274094D02*
G03*
X714126Y262364I16604J0D01*
G01*
X709274Y310648D02*
G03*
X706120Y318262I-10768J0D01*
G01*
X798853Y255958D02*
G03*
X817333Y263613I0J26134D01*
G01*
X823177Y305570D02*
G03*
X822487Y308363I-5993J0D01*
G01*
X819299Y269275D02*
G03*
X823177Y278638I-9363J9363D01*
G01*
X466713Y326963D02*
G03*
X471235Y324903I4522J3933D01*
G01*
X707942Y320136D02*
G03*
X696434Y324903I-11508J-11508D01*
G01*
X711887Y275176D02*
G03*
X716751Y263435I16604J0D01*
G01*
X716754Y263432D02*
G03*
X728492Y258572I11738J11744D01*
G01*
X711887Y310682D02*
G03*
X707992Y320086I-13300J0D01*
G01*
X798830Y258572D02*
G03*
X815501Y265477I0J23577D01*
G01*
X714126Y262364D02*
G03*
X714137Y262353I11753J11730D01*
G01*
X716751Y263435D02*
G03*
X716754Y263432I11741J11741D01*
G01*
X806966Y485132D02*
G03*
X805291Y485825I-1675J-1678D01*
G01*
X806967Y485131D02*
G03*
X806966Y485132I-1677J-1677D01*
G01*
X804520Y486144D02*
G03*
X805291Y485825I770J771D01*
G01*
X804201Y486915D02*
G03*
X804520Y486144I1090J0D01*
G01*
Y487685D02*
G03*
X804201Y486915I771J-771D01*
G01*
X813203Y497103D02*
G03*
X813791Y499967I-6679J2864D01*
G01*
X811662Y494828D02*
G03*
X813203Y497103I-5139J5139D01*
G01*
X814137Y500815D02*
G03*
X813791Y499978I837J-837D01*
G01*
X814137Y500815D02*
G03*
X814484Y501652I-837J837D01*
G01*
X798822Y485132D02*
G03*
X798821Y485131I1675J-1678D01*
G01*
X800498Y485825D02*
G03*
X798822Y485132I0J-2371D01*
G01*
X800498Y485825D02*
G03*
X801268Y486144I0J1090D01*
G01*
X802289Y489151D02*
G03*
X801587Y487456I1694J-1694D01*
G01*
X810954Y498550D02*
G03*
X811177Y499978I-4459J1428D01*
G01*
X809806Y496667D02*
G03*
X810954Y498550I-3311J3311D01*
G01*
X810833Y500813D02*
G03*
X810831Y500815I-839J-835D01*
G01*
X811177Y499978D02*
G03*
X810833Y500813I-1183J0D01*
G01*
X810484Y501652D02*
G03*
X810831Y500815I1183J0D01*
G01*
X801268Y486144D02*
G03*
X801587Y486915I-771J771D01*
G01*
X806966Y101266D02*
G03*
X805291Y101959I-1675J-1678D01*
G01*
X806967Y101264D02*
G03*
X806966Y101266I-1677J-1677D01*
G01*
X804520Y102278D02*
G03*
X805291Y101959I771J771D01*
G01*
X804201Y103049D02*
G03*
X804520Y102278I1090J0D01*
G01*
Y103819D02*
G03*
X804201Y103049I771J-771D01*
G01*
X814137Y117021D02*
G03*
X813791Y116184I837J-837D01*
G01*
X814137Y117021D02*
G03*
X814484Y117858I-837J837D01*
G01*
X798822Y101266D02*
G03*
X798821Y101264I1675J-1678D01*
G01*
X800498Y101959D02*
G03*
X798822Y101266I0J-2371D01*
G01*
X800498Y101959D02*
G03*
X801268Y102278I0J1090D01*
G01*
X801625Y104014D02*
G03*
X801587Y103590I2359J-424D01*
G01*
X802289Y105285D02*
G03*
X801625Y104014I1694J-1694D01*
G01*
X809755Y112750D02*
G03*
X811177Y116184I-3434J3434D01*
G01*
X810484Y117858D02*
G03*
X810831Y117021I1183J0D01*
G01*
X801268Y102278D02*
G03*
X801587Y103049I-771J771D01*
G01*
X811177Y116184D02*
G03*
X810831Y117021I-1183J0D01*
G01*
X811610Y110909D02*
G03*
X813791Y116175I-5266J5266D01*
G01*
X810828Y307777D02*
G03*
X810831Y307775I839J835D01*
G01*
X810484Y308612D02*
G03*
X810828Y307777I1183J0D01*
G01*
X811177Y306938D02*
G03*
X810831Y307775I-1183J0D01*
G01*
X810806Y306000D02*
G03*
X811177Y306900I-904J900D01*
G01*
X810804Y305998D02*
G03*
X810806Y306000I-902J902D01*
G01*
X801587Y293424D02*
G03*
X801587Y293360I8260J-63D01*
G01*
X802421Y296978D02*
G03*
X801587Y293424I7426J-3617D01*
G01*
X804007Y299201D02*
G03*
X802421Y296978I5841J-5841D01*
G01*
X800498Y292254D02*
G03*
X801268Y292573I0J1090D01*
G01*
X798292Y291562D02*
G03*
X798289Y291559I1675J-1679D01*
G01*
X799967Y292254D02*
G03*
X798292Y291562I0J-2372D01*
G01*
X814137Y307775D02*
G03*
X814484Y308612I-837J837D01*
G01*
X814137Y307775D02*
G03*
X813791Y306938I837J-837D01*
G01*
X813036Y304534D02*
G03*
X813791Y306359I-1827J1825D01*
G01*
X813035Y304533D02*
G03*
X813036Y304534I-1826J1826D01*
G01*
X804201Y293423D02*
G03*
X804201Y293344I5686J-79D01*
G01*
X804616Y295476D02*
G03*
X804201Y293423I5272J-2132D01*
G01*
X805866Y297365D02*
G03*
X804616Y295476I4021J-4021D01*
G01*
X804201Y293344D02*
G03*
X804520Y292573I1090J0D01*
G01*
D02*
G03*
X805291Y292254I771J771D01*
G01*
X807496Y291562D02*
G03*
X805822Y292254I-1675J-1679D01*
G01*
X807498Y291559D02*
G03*
X807496Y291562I-1677J-1677D01*
G01*
X801268Y292573D02*
G03*
X801587Y293344I-771J771D01*
G01*
X582946Y59436D02*
X588046D01*
X590586Y61976D01*
X594396D01*
X597045Y59327D01*
X600855D01*
X603504Y61976D01*
X607314D01*
X609854Y59436D01*
X613664D01*
X797707D01*
X727710Y73660D02*
X732136D01*
X734676Y76200D01*
X738486D01*
X741135Y73551D01*
X744945D01*
X747594Y76200D01*
X751404D01*
X754053Y73551D01*
X757863D01*
X760512Y76200D01*
X764322D01*
X766971Y73551D01*
X770781D01*
X773430Y76200D01*
X777240D01*
X779780Y73660D01*
X783590D01*
X690372D02*
X727710D01*
X783590D02*
X789961D01*
X510032Y324903D02*
X696434D01*
X502376D02*
X510032D01*
X499836Y327443D02*
X502376Y324903D01*
X496026Y327443D02*
X499836D01*
X493377Y324794D02*
X496026Y327443D01*
X489567Y324794D02*
X493377D01*
X486918Y327443D02*
X489567Y324794D01*
X483108Y327443D02*
X486918D01*
X480568Y324903D02*
X483108Y327443D01*
X476758Y324903D02*
X480568D01*
X471235D02*
X476758D01*
X734568Y272868D02*
X740990D01*
X743530Y275408D01*
X747340D01*
X749989Y272759D01*
X753799D01*
X756448Y275408D01*
X760258D01*
X762907Y272759D01*
X766717D01*
X769366Y275408D01*
X773176D01*
X775716Y272868D01*
X780288D01*
X782828Y275408D01*
X786638D01*
X789178Y272868D01*
X792988D01*
X797364D01*
X733422D02*
X734568D01*
X523748Y606081D02*
X674566D01*
X519902D02*
X523748D01*
X517362Y608621D02*
X519902Y606081D01*
X513552Y608621D02*
X517362D01*
X510903Y605972D02*
X513552Y608621D01*
X507093Y605972D02*
X510903D01*
X504444Y608621D02*
X507093Y605972D01*
X500634Y608621D02*
X504444D01*
X498094Y606081D02*
X500634Y608621D01*
X494284Y606081D02*
X498094D01*
X458789D02*
X494284D01*
X730324Y511810D02*
Y564852D01*
Y502158D02*
Y511810D01*
Y502158D02*
X733372Y499110D01*
Y495300D02*
Y499110D01*
X730324Y492252D02*
X733372Y495300D01*
X730324Y488442D02*
Y492252D01*
Y475233D02*
Y488442D01*
X744982Y465986D02*
X753192D01*
X755784Y468578D01*
X759594D01*
X762295Y465877D01*
X766105D01*
X768806Y468578D01*
X772616D01*
X775208Y465986D01*
X782066D01*
Y466038D01*
X785966D01*
X788506Y468578D01*
X792316D01*
X794856Y466038D01*
X797416D01*
X743258Y465986D02*
X744982D01*
X800608Y467360D02*
X800608Y467360D01*
X799008Y473422D02*
X799009Y473421D01*
X800232Y472915D02*
X800498D01*
X797560Y474870D02*
X799008Y473422D01*
X801587Y469724D02*
Y471825D01*
X537570Y621030D02*
X555111D01*
X533674Y619412D02*
X533680Y619419D01*
X444256Y660934D02*
X446712Y661948D01*
X444256Y660934D02*
X444256Y660934D01*
X441668Y639140D02*
Y656002D01*
X463587Y617794D02*
X529767D01*
X463587D02*
X463587D01*
X560630Y618744D02*
X676432D01*
X806780Y473422D02*
X808228Y474870D01*
X806779Y473421D02*
X806780Y473422D01*
X805291Y472915D02*
X805556D01*
X727710Y475216D02*
Y564841D01*
X804201Y469706D02*
Y471825D01*
X782685Y463424D02*
X797435D01*
X781413Y463420D02*
X781834Y463382D01*
X781324Y463424D02*
X781324D01*
X781035D02*
X781324D01*
X742176Y463372D02*
X780983D01*
X537580Y618416D02*
X554029D01*
X445941Y622496D02*
X446721Y621717D01*
X535522Y617564D02*
X535523Y617565D01*
X436467Y660934D02*
X436467Y660934D01*
X434012Y661948D02*
X436467Y660934D01*
X439055Y639122D02*
Y656002D01*
X694381Y608691D02*
X720270Y582801D01*
X559548Y616130D02*
X676420D01*
X534756Y616798D02*
X535522Y617564D01*
X462504Y615180D02*
X530850D01*
X696221Y610547D02*
X722127Y584641D01*
X730408Y468702D02*
X731186Y467924D01*
X780983Y463372D02*
X781035Y463424D01*
X420265Y603467D02*
X436814D01*
X441342Y601400D02*
X441347Y601395D01*
X395912Y661948D02*
X398367Y655269D01*
X406162Y610206D02*
X407693Y608675D01*
X400955Y622777D02*
Y650337D01*
X441347Y608153D02*
X443302Y610108D01*
X441347Y608153D02*
X441347Y608153D01*
X421348Y606081D02*
X436814D01*
X406156Y655269D02*
X408612Y661948D01*
X406156Y655269D02*
Y655269D01*
X403568Y623860D02*
Y650337D01*
X441347Y601395D02*
X443302Y599440D01*
X434012Y381213D02*
X436467Y375531D01*
X445433Y340048D02*
X445458Y340023D01*
X439055Y355448D02*
Y370599D01*
X806779Y280381D02*
X808228Y281830D01*
X805291Y279875D02*
X805556D01*
X804201Y276015D02*
Y278785D01*
X802190Y272249D02*
X802960Y273019D01*
X733422Y270255D02*
X797376D01*
X464051Y333563D02*
X702623D01*
X723579Y280097D02*
Y316380D01*
X444256Y375531D02*
X446712Y381213D01*
X441668Y355465D02*
Y370599D01*
X800232Y279875D02*
X800498D01*
X797560Y281830D02*
X799009Y280381D01*
X801587Y277064D02*
Y278785D01*
X800346Y274101D02*
X800370Y274125D01*
X727939Y275869D02*
X729193Y274615D01*
X721158Y328510D02*
X721204Y328464D01*
X726193Y280097D02*
Y316419D01*
X461072Y336177D02*
X702649D01*
X461054Y333563D02*
X462975D01*
X726087Y274025D02*
X727347Y272764D01*
X408295Y331160D02*
X409060Y330395D01*
X453788Y320222D02*
X453793Y320217D01*
X395912Y381213D02*
X398367Y380199D01*
X398367Y380199D01*
X400955Y348880D02*
Y375267D01*
X409060Y330395D02*
Y330395D01*
X453793Y326975D02*
X455748Y328930D01*
X453793Y326975D02*
X453793Y326975D01*
X428628Y324903D02*
X449260D01*
X406156Y380199D02*
X408612Y381213D01*
X406156Y380199D02*
X406156Y380199D01*
X403568Y349963D02*
Y375267D01*
X453793Y320217D02*
X455748Y318262D01*
X428628Y322289D02*
X449260D01*
X826484Y501408D02*
Y503908D01*
X825791Y468174D02*
Y498610D01*
X735053Y452586D02*
X810235D01*
X458789Y603467D02*
X674554D01*
X692514Y596028D02*
X708259Y580283D01*
X715698Y473201D02*
Y562323D01*
X821204Y457129D02*
X821224Y457150D01*
X823177Y469257D02*
Y498610D01*
X822484Y501408D02*
X822487Y501403D01*
X735076Y455199D02*
X810206D01*
X454257Y608153D02*
X454267Y608141D01*
X722992Y461918D02*
X725917Y458993D01*
X718312Y473216D02*
Y562334D01*
X452302Y599440D02*
X454257Y601395D01*
X721133Y460081D02*
X724084Y457129D01*
X822484Y501408D02*
Y503908D01*
X452302Y610108D02*
X454257Y608153D01*
X694354Y597884D02*
X710115Y582123D01*
X806273Y89049D02*
X808228Y91004D01*
X806273Y89049D02*
X806273Y89049D01*
X579053Y86831D02*
X656973D01*
X689289Y71046D02*
X789961D01*
X669427Y81672D02*
X671864Y79262D01*
X490590Y107188D02*
X538721D01*
X474980Y83597D02*
Y91578D01*
X470147Y74094D02*
X471678Y75625D01*
X451833Y70792D02*
X462175D01*
X439055Y81570D02*
Y92674D01*
X441562Y75497D02*
X442333Y74727D01*
X579379Y89445D02*
X657018D01*
X799515Y89049D02*
X799520Y89044D01*
X561244Y97059D02*
X561419Y96884D01*
X793877Y75117D02*
X799510Y79980D01*
X671265Y83531D02*
X673702Y81121D01*
X671243Y83552D02*
X671265Y83531D01*
X489645Y109802D02*
X539309D01*
X476938Y103699D02*
X478372Y105132D01*
X472366Y84680D02*
Y92661D01*
X452915Y73406D02*
X461093D01*
X441668Y81570D02*
Y92674D01*
X673702Y81121D02*
X674651Y80172D01*
X553458Y101084D02*
X559406Y95201D01*
X559801Y94806D01*
X795585Y73138D02*
X801218Y78001D01*
X434012Y99786D02*
X436467Y97606D01*
X797560Y91004D02*
X799515Y89049D01*
X561243Y97059D02*
X561244Y97059D01*
X555296Y102942D02*
X555296Y102942D01*
X555296Y102942D02*
X561243Y97059D01*
X554890Y103348D02*
X555296Y102942D01*
X444256Y97606D02*
X446712Y99786D01*
X671864Y79262D02*
X673569Y77558D01*
X540954Y62955D02*
X540954D01*
X518574Y62955D02*
X538555D01*
X545487Y60883D02*
X545487Y60883D01*
X547442Y58928D01*
X512535Y59399D02*
X514345Y61209D01*
X400955Y76190D02*
Y93020D01*
X405818Y64450D02*
X406640Y63628D01*
X422900Y56892D02*
X506464D01*
X545487Y67641D02*
X547442Y69596D01*
X540954Y65569D02*
X540955D01*
X518574Y65569D02*
X538555D01*
X510692Y61252D02*
X512502Y63062D01*
X403568Y76200D02*
Y93020D01*
X422910Y59506D02*
X506464D01*
X407673Y66291D02*
X408481Y65483D01*
X538555Y62955D02*
X540935Y62955D01*
X395912Y99786D02*
X398367Y97951D01*
X538555Y65569D02*
X540931Y65569D01*
X406156Y97951D02*
X408612Y99786D01*
X826484Y117614D02*
Y120114D01*
X825791Y107677D02*
Y114816D01*
X564966Y62599D02*
X564966Y62599D01*
X564912Y62618D02*
X564966Y62599D01*
X556442Y58928D02*
X558397Y60883D01*
X564973Y62596D02*
X580099Y57307D01*
X817507Y65019D02*
X819616Y67128D01*
X582946Y56822D02*
X797719D01*
X823177Y107677D02*
Y114816D01*
X822484Y117614D02*
X822487Y117609D01*
X558397Y67641D02*
X558409Y67626D01*
X565836Y65063D02*
X580963Y59774D01*
X565778Y65084D02*
X565831Y65065D01*
X817763Y68971D02*
X818529Y69736D01*
X815667Y66876D02*
X817763Y68971D01*
X825791Y82035D02*
Y107677D01*
X822484Y117614D02*
Y120114D01*
X823177Y82042D02*
Y107677D01*
X556442Y69596D02*
X558397Y67641D01*
X826484Y308368D02*
Y310868D01*
X825791Y278622D02*
Y305570D01*
X817333Y263613D02*
X821158Y267438D01*
X471235Y322289D02*
X696398D01*
X714137Y262353D02*
X715668Y260822D01*
X709274Y274094D02*
Y310648D01*
X727409Y255958D02*
X798853D01*
X822484Y308368D02*
X822487Y308363D01*
X823177Y305570D02*
Y305570D01*
Y278638D02*
Y305570D01*
X815501Y265477D02*
X819299Y269275D01*
X728492Y258572D02*
X798830D01*
X466703Y326975D02*
X466713Y326963D01*
X707942Y320136D02*
X707992Y320087D01*
X711887Y275176D02*
Y310682D01*
X464748Y318262D02*
X466703Y320217D01*
X822484Y308368D02*
Y310868D01*
X464748Y328930D02*
X466703Y326975D01*
X806967Y485131D02*
X808228Y483870D01*
X806966Y485132D02*
X806967Y485131D01*
X804520Y487685D02*
X811662Y494828D01*
X813791Y499967D02*
Y499978D01*
X798821Y485131D02*
X798822Y485132D01*
X797560Y483870D02*
X798821Y485131D01*
X801587Y486915D02*
Y487456D01*
X802289Y489151D02*
X809806Y496667D01*
X810484Y501652D02*
Y503908D01*
X814484Y501652D02*
Y503908D01*
X806967Y101264D02*
X808228Y100004D01*
X806966Y101266D02*
X806967Y101264D01*
X804520Y103819D02*
X811610Y110909D01*
X813791Y116175D02*
Y116184D01*
X798821Y101264D02*
X798822Y101266D01*
X797560Y100004D02*
X798821Y101264D01*
X801587Y103049D02*
Y103590D01*
X802289Y105285D02*
X809755Y112750D01*
X810484Y117858D02*
Y120114D01*
X814484Y117858D02*
Y120114D01*
X810484Y308612D02*
Y310868D01*
X811177Y306900D02*
Y306938D01*
X810804Y305998D02*
X810806Y306000D01*
X804007Y299201D02*
X810804Y305998D01*
X801587Y293344D02*
Y293360D01*
X799967Y292254D02*
X800498D01*
X798290Y291559D02*
X798292Y291562D01*
X797560Y290830D02*
X798290Y291559D01*
X813791Y306359D02*
Y306938D01*
X813035Y304533D02*
X813036Y304534D01*
X805866Y297365D02*
X813035Y304533D01*
X805291Y292254D02*
X805822D01*
X807498Y291559D02*
X808228Y290830D01*
X807496Y291562D02*
X807498Y291559D01*
X814484Y308612D02*
Y310868D01*
D106*
X801268Y279555D02*
D03*
X804520Y279555D02*
D03*
X562929Y65569D02*
D03*
X823177Y305570D02*
D03*
X804520Y486144D02*
D03*
X801268Y486144D02*
D03*
D107*
X867953Y86106D02*
G03*
X871476Y87356I0J5588D01*
G01*
X859151Y80668D02*
G03*
X854139Y83820I-5029J-2436D01*
G01*
X841581Y87733D02*
G03*
X845523Y86106I3941J3961D01*
G01*
X835364Y93391D02*
G03*
X836991Y89449I5588J0D01*
G01*
X838484Y93145D02*
G03*
X840111Y89203I5588J0D01*
G01*
X835364Y114396D02*
G03*
X834925Y116568I-5588J-0D01*
G01*
X840998Y85443D02*
G03*
X844935Y83820I3937J3965D01*
G01*
X867953Y276860D02*
G03*
X871476Y278110I0J5588D01*
G01*
X859151Y271422D02*
G03*
X854139Y274574I-5029J-2436D01*
G01*
X841581Y278487D02*
G03*
X845523Y276860I3941J3961D01*
G01*
X835364Y284145D02*
G03*
X836991Y280203I5588J0D01*
G01*
X838484Y283899D02*
G03*
X840111Y279957I5588J0D01*
G01*
X835364Y305151D02*
G03*
X834925Y307322I-5588J-0D01*
G01*
X840998Y276197D02*
G03*
X844935Y274574I3937J3965D01*
G01*
X840998Y469237D02*
G03*
X844935Y467614I3937J3965D01*
G01*
X835364Y498190D02*
G03*
X834925Y500362I-5588J-0D01*
G01*
X838484Y476939D02*
G03*
X840111Y472997I5588J0D01*
G01*
X835364Y477185D02*
G03*
X836991Y473243I5588J0D01*
G01*
X841581Y471527D02*
G03*
X845523Y469900I3941J3961D01*
G01*
X859151Y464462D02*
G03*
X854139Y467614I-5029J-2436D01*
G01*
X867953Y469900D02*
G03*
X871476Y471150I0J5588D01*
G01*
X848614Y86106D02*
X867953D01*
X845523D02*
X848614D01*
Y91004D02*
X848614Y91004D01*
X848614Y86106D02*
Y91004D01*
Y276860D02*
X867953D01*
X845523D02*
X848614D01*
Y281758D02*
X848614Y281758D01*
X848614Y276860D02*
Y281758D01*
Y469900D02*
X867953D01*
X845523D02*
X848614D01*
X848614Y469900D02*
Y474798D01*
X848614Y469900D02*
X848614Y469900D01*
X838484Y93145D02*
Y120114D01*
X835364Y114396D02*
X835364Y93391D01*
X844935Y83820D02*
X848614D01*
X834484Y117614D02*
Y120114D01*
X874346Y89684D02*
X879838Y95676D01*
X871476Y87356D02*
X874346Y89684D01*
X834484Y117614D02*
X834925Y116568D01*
X859151Y80668D02*
X862838Y74676D01*
X840111Y89203D02*
X841581Y87733D01*
X836991Y89449D02*
X840998Y85443D01*
X848614Y79176D02*
Y83820D01*
X854139D01*
X838484Y283899D02*
Y310868D01*
X835364Y305151D02*
X835364Y284145D01*
X844935Y274574D02*
X848614D01*
X834484Y308368D02*
Y310868D01*
X874346Y280438D02*
X879838Y286430D01*
X871476Y278110D02*
X874346Y280438D01*
X834484Y308368D02*
X834925Y307322D01*
X859151Y271422D02*
X862838Y265430D01*
X840111Y279957D02*
X841581Y278487D01*
X836991Y280203D02*
X840998Y276197D01*
X848614Y269930D02*
Y274574D01*
X854139D01*
X848614Y467614D02*
X854139D01*
X848614Y462970D02*
Y467614D01*
X836991Y473243D02*
X840998Y469237D01*
X840111Y472997D02*
X841581Y471527D01*
X859151Y464462D02*
X862838Y458470D01*
X834484Y501408D02*
X834925Y500362D01*
X871476Y471150D02*
X874346Y473478D01*
X879838Y479470D01*
X834484Y501408D02*
Y503908D01*
X844935Y467614D02*
X848614D01*
X835364Y498190D02*
X835364Y477185D01*
X838484Y476939D02*
Y503908D01*
D108*
X521512Y646948D02*
D03*
Y84786D02*
D03*
X82112D02*
D03*
Y646948D02*
D03*
X521512Y366213D02*
D03*
X82112D02*
D03*
D109*
X747522Y149890D02*
D03*
Y121890D02*
D03*
X746785Y340644D02*
D03*
Y312644D02*
D03*
X747522Y533684D02*
D03*
Y505684D02*
D03*
D110*
X802484Y180114D02*
D03*
X806484D02*
D03*
X810484D02*
D03*
X814484D02*
D03*
X818484D02*
D03*
X822484D02*
D03*
X826484D02*
D03*
X830484D02*
D03*
X834484D02*
D03*
X838484D02*
D03*
X842484D02*
D03*
X846484D02*
D03*
Y120114D02*
D03*
X842484D02*
D03*
X838484D02*
D03*
X834484D02*
D03*
X830484D02*
D03*
X826484D02*
D03*
X822484D02*
D03*
X818484D02*
D03*
X814484D02*
D03*
X810484D02*
D03*
X806484D02*
D03*
X802484D02*
D03*
Y370868D02*
D03*
X806484D02*
D03*
X810484D02*
D03*
X814484D02*
D03*
X818484D02*
D03*
X822484D02*
D03*
X826484D02*
D03*
X830484D02*
D03*
X834484D02*
D03*
X838484D02*
D03*
X842484D02*
D03*
X846484D02*
D03*
Y310868D02*
D03*
X842484D02*
D03*
X838484D02*
D03*
X834484D02*
D03*
X830484D02*
D03*
X826484D02*
D03*
X822484D02*
D03*
X818484D02*
D03*
X814484D02*
D03*
X810484D02*
D03*
X806484D02*
D03*
X802484D02*
D03*
Y563908D02*
D03*
X806484D02*
D03*
X810484D02*
D03*
X814484D02*
D03*
X818484D02*
D03*
X822484D02*
D03*
X826484D02*
D03*
X830484D02*
D03*
X834484D02*
D03*
X838484D02*
D03*
X842484D02*
D03*
X846484D02*
D03*
Y503908D02*
D03*
X842484D02*
D03*
X838484D02*
D03*
X834484D02*
D03*
X830484D02*
D03*
X826484D02*
D03*
X822484D02*
D03*
X818484D02*
D03*
X814484D02*
D03*
X810484D02*
D03*
X806484D02*
D03*
X802484D02*
D03*
D111*
X854484Y172114D02*
D03*
Y168114D02*
D03*
Y164114D02*
D03*
Y160114D02*
D03*
Y156114D02*
D03*
Y152114D02*
D03*
Y148114D02*
D03*
Y144114D02*
D03*
Y140114D02*
D03*
Y136114D02*
D03*
Y132114D02*
D03*
Y128114D02*
D03*
X794484D02*
D03*
Y132114D02*
D03*
Y136114D02*
D03*
Y140114D02*
D03*
Y144114D02*
D03*
Y148114D02*
D03*
Y152114D02*
D03*
Y156114D02*
D03*
Y160114D02*
D03*
Y164114D02*
D03*
Y168114D02*
D03*
Y172114D02*
D03*
X854484Y362868D02*
D03*
Y358868D02*
D03*
Y354868D02*
D03*
Y350868D02*
D03*
Y346868D02*
D03*
Y342868D02*
D03*
Y338868D02*
D03*
Y334868D02*
D03*
Y330868D02*
D03*
Y326868D02*
D03*
Y322868D02*
D03*
Y318868D02*
D03*
X794484D02*
D03*
Y322868D02*
D03*
Y326868D02*
D03*
Y330868D02*
D03*
Y334868D02*
D03*
Y338868D02*
D03*
Y342868D02*
D03*
Y346868D02*
D03*
Y350868D02*
D03*
Y354868D02*
D03*
Y358868D02*
D03*
Y362868D02*
D03*
X854484Y555908D02*
D03*
Y551908D02*
D03*
Y547908D02*
D03*
Y543908D02*
D03*
Y539908D02*
D03*
Y535908D02*
D03*
Y531908D02*
D03*
Y527908D02*
D03*
Y523908D02*
D03*
Y519908D02*
D03*
Y515908D02*
D03*
Y511908D02*
D03*
X794484D02*
D03*
Y515908D02*
D03*
Y519908D02*
D03*
Y523908D02*
D03*
Y527908D02*
D03*
Y531908D02*
D03*
Y535908D02*
D03*
Y539908D02*
D03*
Y543908D02*
D03*
Y547908D02*
D03*
Y551908D02*
D03*
Y555908D02*
D03*
D112*
X824484Y150114D02*
D03*
Y340868D02*
D03*
Y533908D02*
D03*
D113*
X604502Y710402D02*
D03*
Y706402D02*
D03*
Y702404D02*
D03*
Y698403D02*
D03*
Y694403D02*
D03*
Y690403D02*
D03*
Y686402D02*
D03*
Y682404D02*
D03*
Y678403D02*
D03*
Y674403D02*
D03*
X570502Y674406D02*
D03*
Y678406D02*
D03*
Y682404D02*
D03*
Y686404D02*
D03*
Y690405D02*
D03*
Y694406D02*
D03*
Y698406D02*
D03*
Y702404D02*
D03*
Y706404D02*
D03*
Y710405D02*
D03*
D114*
X593502Y670403D02*
D03*
X589501D02*
D03*
X585500D02*
D03*
X581500D02*
D03*
X581502Y714406D02*
D03*
X585503D02*
D03*
X589504D02*
D03*
X593504D02*
D03*
D115*
X587502Y692404D02*
D03*
D116*
X823325Y719488D02*
D03*
Y724488D02*
D03*
Y734488D02*
D03*
Y739488D02*
D03*
X814975D02*
D03*
Y734488D02*
D03*
Y724488D02*
D03*
Y719488D02*
D03*
X823325Y646082D02*
D03*
Y651082D02*
D03*
Y661082D02*
D03*
Y666082D02*
D03*
X814975D02*
D03*
Y661082D02*
D03*
Y651082D02*
D03*
Y646082D02*
D03*
D117*
X823325Y729488D02*
D03*
X814975D02*
D03*
X823325Y656082D02*
D03*
X814975D02*
D03*
D118*
X26417Y435136D02*
D03*
Y715671D02*
D03*
X26416Y672415D02*
D03*
Y391880D02*
D03*
X26417Y153709D02*
D03*
X26416Y110453D02*
D03*
D119*
X459412Y99786D02*
D03*
X446712D02*
D03*
X434012D02*
D03*
X421312D02*
D03*
X408612D02*
D03*
X395912D02*
D03*
X383212D02*
D03*
X319712D02*
D03*
X307012D02*
D03*
X294312D02*
D03*
X281612D02*
D03*
X268912D02*
D03*
X256212D02*
D03*
X243512D02*
D03*
X230812D02*
D03*
X218112D02*
D03*
X205412D02*
D03*
X192712D02*
D03*
X180012D02*
D03*
X167312D02*
D03*
X154612D02*
D03*
X141912D02*
D03*
X459412Y661948D02*
D03*
X446712D02*
D03*
X434012D02*
D03*
X421312D02*
D03*
X408612D02*
D03*
X395912D02*
D03*
X383212D02*
D03*
X319712D02*
D03*
X307012D02*
D03*
X294312D02*
D03*
X281612D02*
D03*
X268912D02*
D03*
X256212D02*
D03*
X243512D02*
D03*
X230812D02*
D03*
X218112D02*
D03*
X205412D02*
D03*
X192712D02*
D03*
X180012D02*
D03*
X167312D02*
D03*
X154612D02*
D03*
X141912D02*
D03*
X459412Y381213D02*
D03*
X446712D02*
D03*
X434012D02*
D03*
X421312D02*
D03*
X408612D02*
D03*
X395912D02*
D03*
X383212D02*
D03*
X319712D02*
D03*
X307012D02*
D03*
X294312D02*
D03*
X281612D02*
D03*
X268912D02*
D03*
X256212D02*
D03*
X243512D02*
D03*
X230812D02*
D03*
X218112D02*
D03*
X205412D02*
D03*
X192712D02*
D03*
X180012D02*
D03*
X167312D02*
D03*
X154612D02*
D03*
X141912D02*
D03*
M02*
