G04*
G04 #@! TF.GenerationSoftware,Altium Limited,Altium Designer,24.0.1 (36)*
G04*
G04 Layer_Color=8388736*
%FSLAX44Y44*%
%MOMM*%
G71*
G04*
G04 #@! TF.SameCoordinates,1E4A30F7-C8D5-4828-80FB-0036147C382C*
G04*
G04*
G04 #@! TF.FilePolarity,Negative*
G04*
G01*
G75*
%ADD45P,0.9945X4X270.0*%
%ADD46O,1.7032X0.7032*%
%ADD47R,1.7032X0.7032*%
%ADD48R,0.6232X0.8632*%
G04:AMPARAMS|DCode=49|XSize=0.4032mm|YSize=1.0032mm|CornerRadius=0mm|HoleSize=0mm|Usage=FLASHONLY|Rotation=135.000|XOffset=0mm|YOffset=0mm|HoleType=Round|Shape=Round|*
%AMOVALD49*
21,1,0.6000,0.4032,0.0000,0.0000,225.0*
1,1,0.4032,0.2121,0.2121*
1,1,0.4032,-0.2121,-0.2121*
%
%ADD49OVALD49*%

G04:AMPARAMS|DCode=50|XSize=0.4032mm|YSize=1.0032mm|CornerRadius=0mm|HoleSize=0mm|Usage=FLASHONLY|Rotation=45.000|XOffset=0mm|YOffset=0mm|HoleType=Round|Shape=Round|*
%AMOVALD50*
21,1,0.6000,0.4032,0.0000,0.0000,135.0*
1,1,0.4032,0.2121,-0.2121*
1,1,0.4032,-0.2121,0.2121*
%
%ADD50OVALD50*%

%ADD51P,8.0655X4X180.0*%
%ADD52C,2.2700*%
%ADD53R,1.2032X2.9032*%
%ADD54O,1.2032X2.9032*%
%ADD55R,0.7032X0.7032*%
%ADD56R,0.6350X1.1811*%
%ADD57R,0.7032X0.7032*%
%ADD58R,1.4732X1.0922*%
%ADD59R,1.0922X1.4732*%
%ADD60R,1.2032X0.4032*%
%ADD61R,0.4702X1.5532*%
%ADD62R,0.4699X1.1049*%
%ADD63R,0.4699X1.5532*%
%ADD64P,0.9945X4X180.0*%
%ADD65R,1.4032X1.5032*%
%ADD66R,7.7032X2.4032*%
%ADD67R,0.9532X1.0532*%
G04:AMPARAMS|DCode=68|XSize=2.1532mm|YSize=1.7032mm|CornerRadius=0mm|HoleSize=0mm|Usage=FLASHONLY|Rotation=135.000|XOffset=0mm|YOffset=0mm|HoleType=Round|Shape=Rectangle|*
%AMROTATEDRECTD68*
4,1,4,1.3635,-0.1591,0.1591,-1.3635,-1.3635,0.1591,-0.1591,1.3635,1.3635,-0.1591,0.0*
%
%ADD68ROTATEDRECTD68*%

G04:AMPARAMS|DCode=69|XSize=1.0032mm|YSize=2.7032mm|CornerRadius=0mm|HoleSize=0mm|Usage=FLASHONLY|Rotation=225.000|XOffset=0mm|YOffset=0mm|HoleType=Round|Shape=Rectangle|*
%AMROTATEDRECTD69*
4,1,4,-0.6010,1.3104,1.3104,-0.6010,0.6010,-1.3104,-1.3104,0.6010,-0.6010,1.3104,0.0*
%
%ADD69ROTATEDRECTD69*%

%ADD70R,3.9032X1.3032*%
%ADD71R,3.7032X2.2032*%
%ADD72R,3.7032X1.4032*%
%ADD73R,1.2032X0.5032*%
%ADD74C,3.4032*%
%ADD75R,3.6632X0.7732*%
%ADD76R,2.5732X2.0332*%
%ADD77C,1.4021*%
%ADD78C,3.2029*%
%ADD79R,2.0032X4.7032*%
%ADD80R,2.0032X4.2032*%
%ADD81R,5.2032X2.8032*%
%ADD82C,1.5032*%
%ADD83C,1.2032*%
D45*
X465922Y611718D02*
D03*
X471932Y617728D02*
D03*
X464566Y625602D02*
D03*
X458202Y619238D02*
D03*
X443062Y634578D02*
D03*
X449072Y640588D02*
D03*
X450582Y626858D02*
D03*
X456946Y633222D02*
D03*
X427722Y649718D02*
D03*
X434086Y656082D02*
D03*
X441452Y648208D02*
D03*
X435442Y642198D02*
D03*
X420413Y657395D02*
D03*
X426423Y663405D02*
D03*
X549014Y719194D02*
D03*
X555378Y725558D02*
D03*
X540632Y727830D02*
D03*
X546996Y734194D02*
D03*
X557650Y710558D02*
D03*
X564014Y716922D02*
D03*
X484632Y605536D02*
D03*
X478268Y599172D02*
D03*
X532504Y736212D02*
D03*
X538868Y742576D02*
D03*
X578147Y690923D02*
D03*
X584157Y696933D02*
D03*
X566032Y702430D02*
D03*
X572396Y708794D02*
D03*
D46*
X357270Y645668D02*
D03*
Y632968D02*
D03*
Y620268D02*
D03*
Y607568D02*
D03*
X407270Y645668D02*
D03*
Y632968D02*
D03*
Y620268D02*
D03*
D47*
Y607568D02*
D03*
D48*
X32160Y622268D02*
D03*
X38660D02*
D03*
X45160D02*
D03*
X51660D02*
D03*
X51660Y592868D02*
D03*
X45160D02*
D03*
X38660D02*
D03*
X32160D02*
D03*
D49*
X501475Y614913D02*
D03*
X498655Y617733D02*
D03*
X495818Y620571D02*
D03*
X492998Y623391D02*
D03*
X490160Y626228D02*
D03*
X487340Y629048D02*
D03*
X484503Y631886D02*
D03*
X481683Y634706D02*
D03*
X478845Y637543D02*
D03*
X476025Y640363D02*
D03*
X473205Y643183D02*
D03*
X470368Y646021D02*
D03*
X467548Y648840D02*
D03*
X464710Y651678D02*
D03*
X461890Y654498D02*
D03*
X459053Y657336D02*
D03*
X456233Y660156D02*
D03*
X453395Y662993D02*
D03*
X450575Y665813D02*
D03*
X513509Y728747D02*
D03*
X516329Y725927D02*
D03*
X519166Y723089D02*
D03*
X521986Y720269D02*
D03*
X524824Y717432D02*
D03*
X527644Y714612D02*
D03*
X530481Y711774D02*
D03*
X533301Y708954D02*
D03*
X536139Y706117D02*
D03*
X538959Y703297D02*
D03*
X541779Y700477D02*
D03*
X544616Y697639D02*
D03*
X547436Y694819D02*
D03*
X550274Y691982D02*
D03*
X553094Y689162D02*
D03*
X555932Y686324D02*
D03*
X558751Y683504D02*
D03*
X561589Y680667D02*
D03*
X564409Y677847D02*
D03*
D50*
X450575D02*
D03*
X453395Y680667D02*
D03*
X456233Y683504D02*
D03*
X459053Y686324D02*
D03*
X461890Y689162D02*
D03*
X464710Y691982D02*
D03*
X467548Y694819D02*
D03*
X470368Y697639D02*
D03*
X473205Y700477D02*
D03*
X476025Y703297D02*
D03*
X478845Y706117D02*
D03*
X481683Y708954D02*
D03*
X484503Y711774D02*
D03*
X487340Y714612D02*
D03*
X490160Y717432D02*
D03*
X492998Y720269D02*
D03*
X495818Y723089D02*
D03*
X498655Y725927D02*
D03*
X501475Y728747D02*
D03*
X564409Y665813D02*
D03*
X561589Y662993D02*
D03*
X558751Y660156D02*
D03*
X555932Y657336D02*
D03*
X553094Y654498D02*
D03*
X550274Y651678D02*
D03*
X547436Y648840D02*
D03*
X544616Y646021D02*
D03*
X541779Y643183D02*
D03*
X538959Y640363D02*
D03*
X536139Y637543D02*
D03*
X533301Y634706D02*
D03*
X530481Y631886D02*
D03*
X527644Y629048D02*
D03*
X524824Y626228D02*
D03*
X521986Y623391D02*
D03*
X519166Y620571D02*
D03*
X516329Y617733D02*
D03*
X513509Y614913D02*
D03*
D51*
X507492Y671830D02*
D03*
D52*
X21844Y735584D02*
D03*
X876808Y65024D02*
D03*
D53*
X428752Y125504D02*
D03*
Y394661D02*
D03*
X263045D02*
D03*
X180191D02*
D03*
X263045Y125504D02*
D03*
X345898Y394661D02*
D03*
X180191Y125504D02*
D03*
X345898D02*
D03*
D54*
X428752Y65504D02*
D03*
Y334661D02*
D03*
X263045D02*
D03*
X180191D02*
D03*
X263045Y65504D02*
D03*
X345898Y334661D02*
D03*
X180191Y65504D02*
D03*
X345898D02*
D03*
D55*
X70358Y624586D02*
D03*
Y633586D02*
D03*
X237236Y627706D02*
D03*
Y636206D02*
D03*
X429006Y713994D02*
D03*
Y722994D02*
D03*
Y743640D02*
D03*
Y734640D02*
D03*
X40386Y397628D02*
D03*
Y389128D02*
D03*
X237490Y599318D02*
D03*
Y607818D02*
D03*
Y748152D02*
D03*
Y739652D02*
D03*
X81280Y633154D02*
D03*
Y624654D02*
D03*
X248412Y607754D02*
D03*
Y599254D02*
D03*
Y739716D02*
D03*
Y748216D02*
D03*
Y627770D02*
D03*
Y636270D02*
D03*
Y719514D02*
D03*
Y711014D02*
D03*
X237490Y711078D02*
D03*
Y719578D02*
D03*
D56*
X270920Y660463D02*
D03*
X277420D02*
D03*
X283920D02*
D03*
X290420D02*
D03*
Y687768D02*
D03*
X283920D02*
D03*
X277420D02*
D03*
X270920D02*
D03*
D57*
X29714Y410718D02*
D03*
X21214D02*
D03*
X40386Y453390D02*
D03*
X48886D02*
D03*
X20932Y400050D02*
D03*
X29932D02*
D03*
X21150Y389382D02*
D03*
X29650D02*
D03*
X29714Y432054D02*
D03*
X21214D02*
D03*
X20932Y453390D02*
D03*
X29932D02*
D03*
X21150Y442722D02*
D03*
X29650D02*
D03*
X634294Y606527D02*
D03*
X625294D02*
D03*
X634294Y595859D02*
D03*
X625294D02*
D03*
X633404Y638048D02*
D03*
X624404D02*
D03*
X501836Y745744D02*
D03*
X493336D02*
D03*
X502412Y596900D02*
D03*
X493912D02*
D03*
X461704Y745744D02*
D03*
X453204D02*
D03*
X624404Y627380D02*
D03*
X633404D02*
D03*
X620340Y722376D02*
D03*
X629340D02*
D03*
X620340Y733044D02*
D03*
X629340D02*
D03*
X512826Y745744D02*
D03*
X521326D02*
D03*
X513148Y596900D02*
D03*
X521648D02*
D03*
X59800Y389382D02*
D03*
X50800D02*
D03*
X29650Y421386D02*
D03*
X21150D02*
D03*
D58*
X76877Y247039D02*
D03*
Y266039D02*
D03*
X97790Y247039D02*
D03*
Y266039D02*
D03*
X35052Y247039D02*
D03*
Y266039D02*
D03*
X55965D02*
D03*
Y247039D02*
D03*
D59*
X42061Y475233D02*
D03*
X61061D02*
D03*
X42061Y495807D02*
D03*
X61061D02*
D03*
X97331Y495810D02*
D03*
X78331D02*
D03*
X97385Y475235D02*
D03*
X78385D02*
D03*
D60*
X103096Y419384D02*
D03*
Y411384D02*
D03*
Y415387D02*
D03*
X65095Y419384D02*
D03*
X103096Y423385D02*
D03*
Y427385D02*
D03*
Y431386D02*
D03*
X65095D02*
D03*
Y427385D02*
D03*
Y423385D02*
D03*
Y415387D02*
D03*
Y411384D02*
D03*
D61*
X91694Y421386D02*
D03*
X79695D02*
D03*
D62*
X75344Y406878D02*
D03*
X82344D02*
D03*
X89345D02*
D03*
X92845Y435895D02*
D03*
X85844D02*
D03*
X78844D02*
D03*
D63*
X85695Y421386D02*
D03*
D64*
X475953Y730039D02*
D03*
X469943Y736049D02*
D03*
X536822Y614052D02*
D03*
X543186Y607688D02*
D03*
X545458Y622688D02*
D03*
X551822Y616324D02*
D03*
X527855Y604731D02*
D03*
X533865Y598721D02*
D03*
X450730Y704970D02*
D03*
X444366Y711334D02*
D03*
X562476Y639452D02*
D03*
X568840Y633088D02*
D03*
X571112Y647834D02*
D03*
X577476Y641470D02*
D03*
X443110Y697350D02*
D03*
X436746Y703714D02*
D03*
X553840Y631070D02*
D03*
X560204Y624706D02*
D03*
X435490Y689730D02*
D03*
X429126Y696094D02*
D03*
X617968Y701054D02*
D03*
X624332Y694690D02*
D03*
X610348Y693434D02*
D03*
X616712Y687070D02*
D03*
X458173Y712767D02*
D03*
X452163Y718777D02*
D03*
X477563Y743669D02*
D03*
X483573Y737659D02*
D03*
X466224Y720210D02*
D03*
X459860Y726574D02*
D03*
D65*
X414900Y718226D02*
D03*
X397900D02*
D03*
X414900Y739226D02*
D03*
X397900D02*
D03*
D66*
X66548Y351564D02*
D03*
Y291564D02*
D03*
D67*
X320316Y665988D02*
D03*
X305816D02*
D03*
X320316Y681736D02*
D03*
X305816D02*
D03*
X320316Y601472D02*
D03*
X305816D02*
D03*
X320316Y616966D02*
D03*
X305816D02*
D03*
X320316Y745998D02*
D03*
X305816D02*
D03*
X320316Y730504D02*
D03*
X305816D02*
D03*
D68*
X156324Y604380D02*
D03*
X116472Y564528D02*
D03*
D69*
X113063Y618395D02*
D03*
X102457Y607789D02*
D03*
D70*
X276606Y632714D02*
D03*
Y602714D02*
D03*
X276352Y714756D02*
D03*
Y744756D02*
D03*
D71*
X94144Y149188D02*
D03*
Y62648D02*
D03*
D72*
X22834Y118418D02*
D03*
Y93418D02*
D03*
D73*
X868006Y720413D02*
D03*
Y695411D02*
D03*
Y715411D02*
D03*
Y710413D02*
D03*
Y705411D02*
D03*
Y700413D02*
D03*
Y665411D02*
D03*
Y690413D02*
D03*
Y685411D02*
D03*
Y680413D02*
D03*
Y675411D02*
D03*
Y670413D02*
D03*
X853606Y720413D02*
D03*
Y695414D02*
D03*
Y715411D02*
D03*
Y710413D02*
D03*
Y705411D02*
D03*
Y700413D02*
D03*
Y665411D02*
D03*
Y690413D02*
D03*
Y685411D02*
D03*
Y680413D02*
D03*
Y675411D02*
D03*
Y670413D02*
D03*
D74*
X876808Y233934D02*
D03*
X193294Y676402D02*
D03*
X875792Y619252D02*
D03*
X65024Y196850D02*
D03*
D75*
X41910Y607918D02*
D03*
D76*
X41910Y603418D02*
D03*
D77*
X685343Y691769D02*
D03*
X710336D02*
D03*
X730352D02*
D03*
X755345D02*
D03*
X680339Y706755D02*
D03*
X700354D02*
D03*
X720344D02*
D03*
X740334D02*
D03*
X760349D02*
D03*
D78*
X784352Y692760D02*
D03*
X656336D02*
D03*
D79*
X54708Y713848D02*
D03*
D80*
X76708Y688848D02*
D03*
D81*
X104708Y736348D02*
D03*
D82*
X882306Y716913D02*
D03*
X839306D02*
D03*
Y668912D02*
D03*
X882306D02*
D03*
D83*
X109612Y84786D02*
D03*
X489612D02*
D03*
X109612Y646948D02*
D03*
X489612D02*
D03*
X109612Y366213D02*
D03*
X489612D02*
D03*
M02*
