G04*
G04 #@! TF.GenerationSoftware,Altium Limited,Altium Designer,24.0.1 (36)*
G04*
G04 Layer_Physical_Order=2*
G04 Layer_Color=36540*
%FSLAX44Y44*%
%MOMM*%
G71*
G04*
G04 #@! TF.SameCoordinates,834C7623-C9C0-415B-A6F5-758E7DB2E3E9*
G04*
G04*
G04 #@! TF.FilePolarity,Positive*
G04*
G01*
G75*
%ADD10C,0.2032*%
%ADD85C,0.1295*%
%ADD86C,0.3810*%
%ADD97C,1.1989*%
%ADD98C,2.9997*%
%ADD99R,1.8000X4.5000*%
%ADD100R,1.8000X4.0000*%
%ADD101R,5.0000X2.6000*%
%ADD102C,1.3000*%
%ADD103C,1.0000*%
%ADD104C,0.4000*%
G36*
X874601Y753757D02*
X879005Y752700D01*
X883188Y750967D01*
X887050Y748601D01*
X890493Y745660D01*
X893434Y742216D01*
X895800Y738355D01*
X897533Y734171D01*
X898591Y729768D01*
X898939Y725337D01*
X898895Y725230D01*
Y81230D01*
X898939Y81123D01*
X898591Y76692D01*
X897533Y72289D01*
X895800Y68105D01*
X893434Y64244D01*
X890493Y60800D01*
X887050Y57859D01*
X883188Y55493D01*
X879005Y53760D01*
X874601Y52703D01*
X870171Y52354D01*
X870063Y52398D01*
X30064D01*
X29962Y52356D01*
X25554Y52703D01*
X21146Y53762D01*
X16957Y55497D01*
X13091Y57866D01*
X9644Y60810D01*
X6699Y64258D01*
X4330Y68124D01*
X2595Y72312D01*
X1537Y76721D01*
X1190Y81128D01*
X1232Y81230D01*
Y725230D01*
X1190Y725332D01*
X1537Y729739D01*
X2595Y734148D01*
X4330Y738336D01*
X6699Y742202D01*
X9644Y745650D01*
X13091Y748594D01*
X16957Y750963D01*
X21146Y752698D01*
X25554Y753757D01*
X29962Y754104D01*
X30064Y754062D01*
X519454D01*
X519706Y752792D01*
X519618Y752755D01*
X518769Y751906D01*
X518310Y750798D01*
Y749598D01*
X518769Y748490D01*
X519618Y747641D01*
X520726Y747182D01*
X521926D01*
X523035Y747641D01*
X523883Y748490D01*
X524342Y749598D01*
Y750798D01*
X523883Y751906D01*
X523035Y752755D01*
X522946Y752792D01*
X523198Y754062D01*
X870063D01*
X870171Y754106D01*
X874601Y753757D01*
D02*
G37*
%LPC*%
G36*
X308965Y744173D02*
X307765D01*
X306656Y743714D01*
X306527Y743585D01*
X305698Y742950D01*
X304868Y743585D01*
X304739Y743714D01*
X303631Y744173D01*
X302431D01*
X301322Y743714D01*
X300474Y742865D01*
X300015Y741757D01*
Y740557D01*
X300474Y739448D01*
X300603Y739319D01*
X301238Y738490D01*
X300603Y737660D01*
X300474Y737531D01*
X300015Y736423D01*
Y735223D01*
X300474Y734114D01*
X301322Y733266D01*
X302431Y732807D01*
X303631D01*
X304739Y733266D01*
X304868Y733395D01*
X305698Y734030D01*
X306527Y733395D01*
X306656Y733266D01*
X307765Y732807D01*
X308965D01*
X310073Y733266D01*
X310921Y734114D01*
X311381Y735223D01*
Y736423D01*
X310921Y737531D01*
X310793Y737660D01*
X310157Y738490D01*
X310793Y739319D01*
X310921Y739448D01*
X311381Y740557D01*
Y741757D01*
X310921Y742865D01*
X310073Y743714D01*
X308965Y744173D01*
D02*
G37*
G36*
X489804Y748760D02*
X488604D01*
X487496Y748301D01*
X486647Y747452D01*
X486188Y746344D01*
Y745144D01*
X486647Y744036D01*
X487496Y743187D01*
X488604Y742728D01*
X489804D01*
X490913Y743187D01*
X491761Y744036D01*
X492220Y745144D01*
Y746344D01*
X491761Y747452D01*
X490913Y748301D01*
X489804Y748760D01*
D02*
G37*
G36*
X453804Y744374D02*
X452604D01*
X451496Y743915D01*
X450647Y743066D01*
X450188Y741958D01*
Y740758D01*
X450647Y739650D01*
X451496Y738801D01*
X452604Y738342D01*
X453804D01*
X454912Y738801D01*
X455761Y739650D01*
X456220Y740758D01*
Y741958D01*
X455761Y743066D01*
X454912Y743915D01*
X453804Y744374D01*
D02*
G37*
G36*
X526380Y733012D02*
X525180D01*
X524072Y732553D01*
X523223Y731704D01*
X522764Y730596D01*
Y729396D01*
X523223Y728288D01*
X524072Y727439D01*
X525180Y726980D01*
X526380D01*
X527489Y727439D01*
X528337Y728288D01*
X528796Y729396D01*
Y730596D01*
X528337Y731704D01*
X527489Y732553D01*
X526380Y733012D01*
D02*
G37*
G36*
X861464Y734812D02*
X860151D01*
X859949Y734728D01*
X859730D01*
X858517Y734226D01*
X858363Y734072D01*
X858160Y733988D01*
X857232Y733059D01*
X857148Y732857D01*
X856994Y732703D01*
X856491Y731490D01*
Y731271D01*
X856408Y731069D01*
Y729756D01*
X856491Y729554D01*
Y729335D01*
X856994Y728122D01*
X857148Y727968D01*
X857232Y727766D01*
X858160Y726837D01*
X858362Y726754D01*
X858517Y726599D01*
X859730Y726097D01*
X859949D01*
X860151Y726013D01*
X861464D01*
X861666Y726097D01*
X861885D01*
X863097Y726599D01*
X863252Y726754D01*
X863454Y726837D01*
X864382Y727766D01*
X864466Y727968D01*
X864621Y728122D01*
X865123Y729335D01*
Y729554D01*
X865207Y729756D01*
Y731069D01*
X865123Y731271D01*
Y731490D01*
X864621Y732703D01*
X864466Y732857D01*
X864382Y733059D01*
X863454Y733988D01*
X863252Y734072D01*
X863097Y734226D01*
X861885Y734728D01*
X861666D01*
X861464Y734812D01*
D02*
G37*
G36*
X130724Y750364D02*
X78692D01*
Y722332D01*
X130724D01*
Y750364D01*
D02*
G37*
G36*
X11776Y727170D02*
X10576D01*
X9468Y726711D01*
X8619Y725862D01*
X8160Y724754D01*
Y723554D01*
X8619Y722446D01*
X9468Y721597D01*
X10576Y721138D01*
X11776D01*
X12884Y721597D01*
X13733Y722446D01*
X14192Y723554D01*
Y724754D01*
X13733Y725862D01*
X12884Y726711D01*
X11776Y727170D01*
D02*
G37*
G36*
X611130Y726208D02*
X609930D01*
X608822Y725749D01*
X607973Y724900D01*
X607514Y723792D01*
Y722592D01*
X607973Y721484D01*
X608822Y720635D01*
X609930Y720176D01*
X611130D01*
X612239Y720635D01*
X613087Y721484D01*
X613546Y722592D01*
Y723792D01*
X613087Y724900D01*
X612239Y725749D01*
X611130Y726208D01*
D02*
G37*
G36*
X537777Y726021D02*
X536578D01*
X535469Y725562D01*
X534621Y724713D01*
X534161Y723605D01*
Y722405D01*
X534621Y721296D01*
X535469Y720448D01*
X536578Y719989D01*
X537777D01*
X538886Y720448D01*
X539734Y721296D01*
X540193Y722405D01*
Y723605D01*
X539734Y724713D01*
X538886Y725562D01*
X537777Y726021D01*
D02*
G37*
G36*
X616127Y720125D02*
X614927D01*
X613819Y719665D01*
X612971Y718817D01*
X612511Y717708D01*
Y716508D01*
X612971Y715400D01*
X613819Y714552D01*
X614927Y714092D01*
X616127D01*
X617236Y714552D01*
X618084Y715400D01*
X618543Y716508D01*
Y717708D01*
X618084Y718817D01*
X617236Y719665D01*
X616127Y720125D01*
D02*
G37*
G36*
X463388Y719804D02*
X462188D01*
X461080Y719345D01*
X460231Y718496D01*
X459772Y717388D01*
Y716188D01*
X460231Y715080D01*
X461080Y714231D01*
X462188Y713772D01*
X463388D01*
X464496Y714231D01*
X465345Y715080D01*
X465804Y716188D01*
Y717388D01*
X465345Y718496D01*
X464496Y719345D01*
X463388Y719804D01*
D02*
G37*
G36*
X599448Y718588D02*
X598248D01*
X597140Y718129D01*
X596291Y717281D01*
X595832Y716172D01*
Y714973D01*
X596291Y713864D01*
X597140Y713016D01*
X598248Y712556D01*
X599448D01*
X600557Y713016D01*
X601405Y713864D01*
X601864Y714973D01*
Y716172D01*
X601405Y717281D01*
X600557Y718129D01*
X599448Y718588D01*
D02*
G37*
G36*
X544769Y717365D02*
X543569D01*
X542461Y716906D01*
X541612Y716058D01*
X541153Y714949D01*
Y713749D01*
X541612Y712641D01*
X542461Y711792D01*
X543569Y711333D01*
X544769D01*
X545878Y711792D01*
X546726Y712641D01*
X547185Y713749D01*
Y714949D01*
X546726Y716058D01*
X545878Y716906D01*
X544769Y717365D01*
D02*
G37*
G36*
X555205Y711096D02*
X554005D01*
X552897Y710637D01*
X552048Y709788D01*
X551589Y708680D01*
Y707480D01*
X552048Y706372D01*
X552897Y705523D01*
X554005Y705064D01*
X555205D01*
X556314Y705523D01*
X557162Y706372D01*
X557621Y707480D01*
Y708680D01*
X557162Y709788D01*
X556314Y710637D01*
X555205Y711096D01*
D02*
G37*
G36*
X459324Y708628D02*
X458124D01*
X457016Y708169D01*
X456167Y707320D01*
X455708Y706212D01*
Y705012D01*
X456167Y703904D01*
X457016Y703055D01*
X458124Y702596D01*
X459324D01*
X460433Y703055D01*
X461281Y703904D01*
X461740Y705012D01*
Y706212D01*
X461281Y707320D01*
X460433Y708169D01*
X459324Y708628D01*
D02*
G37*
G36*
X861406Y708427D02*
X860206D01*
X859098Y707968D01*
X858249Y707120D01*
X857790Y706011D01*
Y704811D01*
X858249Y703703D01*
X859098Y702855D01*
X860206Y702395D01*
X861406D01*
X862514Y702855D01*
X863363Y703703D01*
X863822Y704811D01*
Y706011D01*
X863363Y707120D01*
X862514Y707968D01*
X861406Y708427D01*
D02*
G37*
G36*
X761272Y713765D02*
X759426D01*
X757643Y713288D01*
X756044Y712365D01*
X754739Y711059D01*
X753816Y709461D01*
X753339Y707678D01*
Y705832D01*
X753816Y704049D01*
X754739Y702450D01*
X756044Y701145D01*
X757643Y700222D01*
X759426Y699745D01*
X761272D01*
X763055Y700222D01*
X764653Y701145D01*
X765959Y702450D01*
X766882Y704049D01*
X767359Y705832D01*
Y707678D01*
X766882Y709461D01*
X765959Y711059D01*
X764653Y712365D01*
X763055Y713288D01*
X761272Y713765D01*
D02*
G37*
G36*
X741257D02*
X739411D01*
X737628Y713288D01*
X736029Y712365D01*
X734724Y711059D01*
X733801Y709461D01*
X733323Y707678D01*
Y705832D01*
X733801Y704049D01*
X734724Y702450D01*
X736029Y701145D01*
X737628Y700222D01*
X739411Y699745D01*
X741257D01*
X743040Y700222D01*
X744638Y701145D01*
X745944Y702450D01*
X746867Y704049D01*
X747344Y705832D01*
Y707678D01*
X746867Y709461D01*
X745944Y711059D01*
X744638Y712365D01*
X743040Y713288D01*
X741257Y713765D01*
D02*
G37*
G36*
X701277D02*
X699431D01*
X697648Y713288D01*
X696050Y712365D01*
X694744Y711059D01*
X693822Y709461D01*
X693344Y707678D01*
Y705832D01*
X693822Y704049D01*
X694744Y702450D01*
X696050Y701145D01*
X697648Y700222D01*
X699431Y699745D01*
X701277D01*
X703060Y700222D01*
X704659Y701145D01*
X705964Y702450D01*
X706887Y704049D01*
X707365Y705832D01*
Y707678D01*
X706887Y709461D01*
X705964Y711059D01*
X704659Y712365D01*
X703060Y713288D01*
X701277Y713765D01*
D02*
G37*
G36*
X681262D02*
X679416D01*
X677633Y713288D01*
X676034Y712365D01*
X674729Y711059D01*
X673806Y709461D01*
X673329Y707678D01*
Y705832D01*
X673806Y704049D01*
X674729Y702450D01*
X676034Y701145D01*
X677633Y700222D01*
X679416Y699745D01*
X681262D01*
X683045Y700222D01*
X684643Y701145D01*
X685949Y702450D01*
X686872Y704049D01*
X687349Y705832D01*
Y707678D01*
X686872Y709461D01*
X685949Y711059D01*
X684643Y712365D01*
X683045Y713288D01*
X681262Y713765D01*
D02*
G37*
G36*
X837022Y706596D02*
X835822D01*
X834714Y706137D01*
X833865Y705288D01*
X833406Y704180D01*
Y702980D01*
X833865Y701872D01*
X834714Y701023D01*
X835822Y700564D01*
X835959D01*
X837031Y700463D01*
X837132Y699391D01*
Y699254D01*
X837592Y698145D01*
X838440Y697297D01*
X839549Y696837D01*
X840748D01*
X841857Y697297D01*
X842705Y698145D01*
X843165Y699254D01*
Y700453D01*
X842705Y701562D01*
X841857Y702410D01*
X840748Y702869D01*
X840611D01*
X839539Y702971D01*
X839438Y704043D01*
Y704180D01*
X838979Y705288D01*
X838130Y706137D01*
X837022Y706596D01*
D02*
G37*
G36*
X875630Y703833D02*
X874430D01*
X873322Y703374D01*
X872473Y702525D01*
X872014Y701417D01*
Y700217D01*
X872473Y699109D01*
X872570Y699012D01*
X873257Y698182D01*
X872570Y697352D01*
X872473Y697255D01*
X872468Y697243D01*
X852121D01*
X851472Y697114D01*
X850922Y696747D01*
X850922Y696746D01*
X850771Y696596D01*
X849285Y696905D01*
X849139Y697257D01*
X848290Y698105D01*
X847182Y698564D01*
X845982D01*
X844874Y698105D01*
X844025Y697257D01*
X843566Y696148D01*
Y694948D01*
X844025Y693840D01*
X844122Y693743D01*
X844809Y692913D01*
X844122Y692084D01*
X844025Y691987D01*
X843566Y690878D01*
Y689678D01*
X844025Y688570D01*
X844228Y688367D01*
X844759Y687541D01*
X844228Y686708D01*
X844029Y686508D01*
X843570Y685400D01*
Y684200D01*
X844029Y683091D01*
X844877Y682243D01*
X845986Y681784D01*
X847186D01*
X848294Y682243D01*
X849143Y683091D01*
X849602Y684200D01*
Y685400D01*
X849143Y686508D01*
X848940Y686711D01*
X848409Y687537D01*
X848940Y688371D01*
X849139Y688570D01*
X849598Y689678D01*
Y690625D01*
X852824Y693851D01*
X872468D01*
X872473Y693839D01*
X872570Y693742D01*
X873257Y692912D01*
X872570Y692082D01*
X872473Y691985D01*
X872014Y690877D01*
Y689677D01*
X872473Y688569D01*
X873322Y687720D01*
X874430Y687261D01*
X875630D01*
X876739Y687720D01*
X877587Y688569D01*
X878046Y689677D01*
Y690877D01*
X877587Y691985D01*
X877490Y692082D01*
X876803Y692912D01*
X877490Y693742D01*
X877587Y693839D01*
X878046Y694947D01*
Y696147D01*
X877587Y697255D01*
X877490Y697352D01*
X876803Y698182D01*
X877490Y699012D01*
X877587Y699109D01*
X878046Y700217D01*
Y701417D01*
X877587Y702525D01*
X876739Y703374D01*
X875630Y703833D01*
D02*
G37*
G36*
X893140Y705383D02*
X891940D01*
X890832Y704924D01*
X889983Y704076D01*
X889524Y702967D01*
Y702830D01*
X889423Y701758D01*
X888351Y701657D01*
X888214D01*
X887105Y701198D01*
X886257Y700349D01*
X885798Y699241D01*
Y698041D01*
X886257Y696933D01*
X887105Y696084D01*
X888214Y695625D01*
X889414D01*
X890522Y696084D01*
X891370Y696933D01*
X891830Y698041D01*
Y698178D01*
X891931Y699250D01*
X893003Y699351D01*
X893140D01*
X894249Y699811D01*
X895097Y700659D01*
X895556Y701768D01*
Y702967D01*
X895097Y704076D01*
X894249Y704924D01*
X893140Y705383D01*
D02*
G37*
G36*
X439766Y696436D02*
X438566D01*
X437458Y695977D01*
X436609Y695128D01*
X436150Y694020D01*
Y692820D01*
X436609Y691712D01*
X437458Y690863D01*
X438566Y690404D01*
X439766D01*
X440874Y690863D01*
X441723Y691712D01*
X442182Y692820D01*
Y694020D01*
X441723Y695128D01*
X440874Y695977D01*
X439766Y696436D01*
D02*
G37*
G36*
X481109Y698908D02*
X479909D01*
X478801Y698449D01*
X477952Y697601D01*
X477493Y696492D01*
Y695292D01*
X477952Y694184D01*
X478606Y693183D01*
X477757Y692334D01*
X477298Y691226D01*
Y690026D01*
X477757Y688918D01*
X478606Y688069D01*
X479714Y687610D01*
X480914D01*
X482023Y688069D01*
X482871Y688918D01*
X483330Y690026D01*
Y691226D01*
X482871Y692334D01*
X482218Y693335D01*
X483066Y694184D01*
X483525Y695292D01*
Y696492D01*
X483066Y697601D01*
X482218Y698449D01*
X481109Y698908D01*
D02*
G37*
G36*
X731275Y698779D02*
X729429D01*
X727646Y698302D01*
X726047Y697379D01*
X724742Y696074D01*
X723819Y694475D01*
X723341Y692692D01*
Y690846D01*
X723819Y689063D01*
X724742Y687465D01*
X726047Y686159D01*
X727646Y685236D01*
X729429Y684759D01*
X731275D01*
X733057Y685236D01*
X734656Y686159D01*
X735961Y687465D01*
X736884Y689063D01*
X737362Y690846D01*
Y692692D01*
X736884Y694475D01*
X735961Y696074D01*
X734656Y697379D01*
X733057Y698302D01*
X731275Y698779D01*
D02*
G37*
G36*
X711259D02*
X709414D01*
X707630Y698302D01*
X706032Y697379D01*
X704727Y696074D01*
X703804Y694475D01*
X703326Y692692D01*
Y690846D01*
X703804Y689063D01*
X704727Y687465D01*
X706032Y686159D01*
X707630Y685236D01*
X709414Y684759D01*
X711259D01*
X713042Y685236D01*
X714641Y686159D01*
X715946Y687465D01*
X716869Y689063D01*
X717347Y690846D01*
Y692692D01*
X716869Y694475D01*
X715946Y696074D01*
X714641Y697379D01*
X713042Y698302D01*
X711259Y698779D01*
D02*
G37*
G36*
X450517Y693725D02*
X449317D01*
X448209Y693266D01*
X447360Y692417D01*
X446901Y691309D01*
Y691172D01*
X446800Y690099D01*
X445728Y689998D01*
X445591D01*
X444482Y689539D01*
X443634Y688691D01*
X443175Y687582D01*
Y686383D01*
X443634Y685274D01*
X444482Y684426D01*
X445591Y683967D01*
X446790D01*
X447899Y684426D01*
X448747Y685274D01*
X449206Y686383D01*
Y686520D01*
X449308Y687592D01*
X450380Y687693D01*
X450517D01*
X451625Y688152D01*
X452474Y689000D01*
X452933Y690109D01*
Y691309D01*
X452474Y692417D01*
X451625Y693266D01*
X450517Y693725D01*
D02*
G37*
G36*
X263744Y685768D02*
X262544D01*
X261436Y685309D01*
X260587Y684460D01*
X260128Y683352D01*
Y682152D01*
X260587Y681044D01*
X261436Y680195D01*
X262544Y679736D01*
X263744D01*
X264853Y680195D01*
X265701Y681044D01*
X266160Y682152D01*
Y683352D01*
X265701Y684460D01*
X264853Y685309D01*
X263744Y685768D01*
D02*
G37*
G36*
X686266Y698779D02*
X684420D01*
X682637Y698302D01*
X681038Y697379D01*
X679733Y696074D01*
X678810Y694475D01*
X678332Y692692D01*
Y690846D01*
X678729Y689367D01*
X667180Y677818D01*
X579590D01*
X576614Y680794D01*
X575648Y681440D01*
X574508Y681666D01*
X486664D01*
X485524Y681440D01*
X484558Y680794D01*
X477969Y674205D01*
X451163D01*
X430350Y695018D01*
X429384Y695664D01*
X428244Y695890D01*
X320280D01*
X319141Y695664D01*
X318174Y695018D01*
X305723Y682566D01*
X305632Y682528D01*
X304783Y681680D01*
X304782Y681677D01*
X303661Y680556D01*
X301807D01*
X300322Y682041D01*
X299356Y682687D01*
X298216Y682914D01*
X295349D01*
X295170Y682988D01*
X293970D01*
X293879Y682950D01*
X290392D01*
X289252Y682723D01*
X288286Y682077D01*
X286344Y680136D01*
X286253Y680098D01*
X285405Y679250D01*
X284946Y678141D01*
Y676941D01*
X285405Y675833D01*
X286253Y674984D01*
X287362Y674525D01*
X288561D01*
X289670Y674984D01*
X290518Y675833D01*
X290556Y675924D01*
X291626Y676993D01*
X293879D01*
X293970Y676956D01*
X295170D01*
X295174Y676957D01*
X296982D01*
X298103Y675836D01*
X298105Y675833D01*
X298953Y674984D01*
X300062Y674525D01*
X301262D01*
X301441Y674599D01*
X304895D01*
X306034Y674826D01*
X307001Y675472D01*
X308869Y677341D01*
X309048Y677415D01*
X309897Y678263D01*
X309935Y678354D01*
X321514Y689934D01*
X427010D01*
X447823Y669121D01*
X448789Y668475D01*
X449929Y668249D01*
X479203D01*
X480343Y668475D01*
X481309Y669121D01*
X487898Y675710D01*
X573275D01*
X575593Y673391D01*
X574916Y672340D01*
X574882Y672306D01*
X573694D01*
X572586Y671847D01*
X572067Y671328D01*
X571223Y671147D01*
X570509Y671353D01*
X569956Y671906D01*
X568848Y672365D01*
X567648D01*
X566540Y671906D01*
X565691Y671057D01*
X565232Y669949D01*
Y668749D01*
X565691Y667640D01*
X566540Y666792D01*
X567648Y666333D01*
X568848D01*
X569956Y666792D01*
X570475Y667310D01*
X571319Y667492D01*
X572033Y667286D01*
X572586Y666733D01*
X573694Y666274D01*
X574894D01*
X576003Y666733D01*
X576851Y667582D01*
X577310Y668690D01*
Y669890D01*
X576895Y670892D01*
X577121Y671342D01*
X577641Y672004D01*
X578356Y671862D01*
X668414D01*
X669553Y672088D01*
X670520Y672734D01*
X682941Y685155D01*
X684420Y684759D01*
X686266D01*
X688049Y685236D01*
X689647Y686159D01*
X690953Y687465D01*
X691876Y689063D01*
X692353Y690846D01*
Y692692D01*
X691876Y694475D01*
X690953Y696074D01*
X689647Y697379D01*
X688049Y698302D01*
X686266Y698779D01*
D02*
G37*
G36*
X838208Y687208D02*
X837009D01*
X835900Y686749D01*
X835052Y685901D01*
X834593Y684792D01*
Y684655D01*
X834491Y683583D01*
X833419Y683482D01*
X833282D01*
X832174Y683023D01*
X831325Y682174D01*
X830866Y681066D01*
Y679866D01*
X831325Y678758D01*
X832174Y677909D01*
X833282Y677450D01*
X834482D01*
X835591Y677909D01*
X836439Y678758D01*
X836898Y679866D01*
Y680003D01*
X836999Y681075D01*
X838071Y681177D01*
X838208D01*
X839317Y681636D01*
X840165Y682484D01*
X840624Y683593D01*
Y684792D01*
X840165Y685901D01*
X839317Y686749D01*
X838208Y687208D01*
D02*
G37*
G36*
X861406Y683429D02*
X860206D01*
X859098Y682970D01*
X858249Y682121D01*
X857790Y681013D01*
Y679813D01*
X858249Y678704D01*
X859098Y677856D01*
X860206Y677397D01*
X861406D01*
X862514Y677856D01*
X863363Y678704D01*
X863822Y679813D01*
Y681013D01*
X863363Y682121D01*
X862514Y682970D01*
X861406Y683429D01*
D02*
G37*
G36*
X474243Y686971D02*
X473043D01*
X471935Y686512D01*
X471086Y685664D01*
X470627Y684555D01*
Y684418D01*
X470526Y683346D01*
X469454Y683245D01*
X469317D01*
X468208Y682786D01*
X467360Y681937D01*
X466901Y680829D01*
Y679629D01*
X467360Y678520D01*
X468208Y677672D01*
X469317Y677213D01*
X470517D01*
X471625Y677672D01*
X472474Y678520D01*
X472933Y679629D01*
Y679766D01*
X473034Y680838D01*
X474106Y680939D01*
X474243D01*
X475352Y681398D01*
X476200Y682247D01*
X476659Y683355D01*
Y684555D01*
X476200Y685664D01*
X475352Y686512D01*
X474243Y686971D01*
D02*
G37*
G36*
X879948Y686530D02*
X878748D01*
X877640Y686071D01*
X876791Y685222D01*
X876332Y684114D01*
Y682914D01*
X876791Y681806D01*
X877640Y680957D01*
X878748Y680498D01*
X878885D01*
X879957Y680397D01*
X880059Y679325D01*
Y679188D01*
X880518Y678079D01*
X881366Y677231D01*
X882475Y676771D01*
X883674D01*
X884783Y677231D01*
X885631Y678079D01*
X886090Y679188D01*
Y680387D01*
X885631Y681496D01*
X884783Y682344D01*
X883674Y682803D01*
X883537D01*
X882465Y682905D01*
X882364Y683977D01*
Y684114D01*
X881905Y685222D01*
X881057Y686071D01*
X879948Y686530D01*
D02*
G37*
G36*
X861381Y661331D02*
X860233D01*
X860032Y661247D01*
X859814Y661248D01*
X858752Y660810D01*
X858598Y660657D01*
X858396Y660574D01*
X857582Y659765D01*
X857497Y659564D01*
X857343Y659411D01*
X856898Y658353D01*
X856896Y658135D01*
X856812Y657934D01*
X856807Y657360D01*
X856809Y657356D01*
X856807Y657352D01*
X856806Y653230D01*
X856818Y653203D01*
X856808Y653175D01*
X856835Y652617D01*
X856926Y652425D01*
X856934Y652213D01*
X857400Y651197D01*
X857556Y651053D01*
X857642Y650859D01*
X858452Y650088D01*
X858650Y650012D01*
X858801Y649864D01*
X859839Y649449D01*
X860052Y649452D01*
X860248Y649371D01*
X860807Y649371D01*
X860807Y649371D01*
X860807Y649371D01*
X861363D01*
X861558Y649452D01*
X861770Y649448D01*
X862804Y649860D01*
X862955Y650007D01*
X863153Y650083D01*
X863962Y650848D01*
X864048Y651041D01*
X864204Y651184D01*
X864672Y652193D01*
X864681Y652404D01*
X864773Y652595D01*
X864804Y653151D01*
X864793Y653182D01*
X864806Y653212D01*
X864807Y657352D01*
X864805Y657356D01*
X864807Y657360D01*
X864802Y657934D01*
X864718Y658135D01*
X864716Y658353D01*
X864271Y659411D01*
X864117Y659564D01*
X864033Y659765D01*
X863218Y660574D01*
X863016Y660657D01*
X862862Y660810D01*
X861800Y661248D01*
X861582Y661247D01*
X861381Y661331D01*
D02*
G37*
G36*
X567020Y655288D02*
X565820D01*
X564712Y654829D01*
X563863Y653980D01*
X563404Y652872D01*
Y651672D01*
X563863Y650564D01*
X564712Y649715D01*
X565820Y649256D01*
X567020D01*
X568129Y649715D01*
X568977Y650564D01*
X569436Y651672D01*
Y652872D01*
X568977Y653980D01*
X568129Y654829D01*
X567020Y655288D01*
D02*
G37*
G36*
X301262Y649370D02*
X300062D01*
X298953Y648911D01*
X298105Y648062D01*
X297646Y646954D01*
Y645754D01*
X298105Y644645D01*
X298953Y643797D01*
X300062Y643338D01*
X301262D01*
X302370Y643797D01*
X303218Y644645D01*
X303678Y645754D01*
Y646954D01*
X303218Y648062D01*
X302370Y648911D01*
X301262Y649370D01*
D02*
G37*
G36*
X239614Y652494D02*
X238414D01*
X237306Y652035D01*
X236457Y651186D01*
X235998Y650078D01*
Y648878D01*
X236457Y647770D01*
X237306Y646921D01*
X236851Y646247D01*
X236711Y646106D01*
X236252Y644998D01*
Y643798D01*
X236711Y642690D01*
X237560Y641841D01*
X238668Y641382D01*
X239868D01*
X240976Y641841D01*
X241825Y642690D01*
X242284Y643798D01*
Y644998D01*
X241825Y646106D01*
X240977Y646955D01*
X241431Y647629D01*
X241571Y647770D01*
X242030Y648878D01*
Y650078D01*
X241571Y651186D01*
X240722Y652035D01*
X239614Y652494D01*
D02*
G37*
G36*
X219040Y646906D02*
X217840D01*
X216732Y646447D01*
X215883Y645598D01*
X215424Y644490D01*
Y643290D01*
X215883Y642182D01*
X216732Y641333D01*
X217840Y640874D01*
X219040D01*
X220148Y641333D01*
X220997Y642182D01*
X221456Y643290D01*
Y644490D01*
X220997Y645598D01*
X220148Y646447D01*
X219040Y646906D01*
D02*
G37*
G36*
X559146Y646652D02*
X557946D01*
X556838Y646193D01*
X555989Y645344D01*
X555530Y644236D01*
Y643036D01*
X555989Y641928D01*
X556838Y641079D01*
X557946Y640620D01*
X559146D01*
X560255Y641079D01*
X561103Y641928D01*
X561562Y643036D01*
Y644236D01*
X561103Y645344D01*
X560255Y646193D01*
X559146Y646652D01*
D02*
G37*
G36*
X490535Y653964D02*
X488688D01*
X486903Y653485D01*
X485304Y652562D01*
X483997Y651255D01*
X483074Y649656D01*
X482596Y647871D01*
Y646024D01*
X483074Y644240D01*
X483997Y642640D01*
X485304Y641333D01*
X486903Y640410D01*
X488688Y639932D01*
X490535D01*
X492320Y640410D01*
X493919Y641333D01*
X495226Y642640D01*
X496149Y644240D01*
X496628Y646024D01*
Y647871D01*
X496149Y649656D01*
X495226Y651255D01*
X493919Y652562D01*
X492320Y653485D01*
X490535Y653964D01*
D02*
G37*
G36*
X429352Y645636D02*
X428152D01*
X427044Y645177D01*
X426195Y644328D01*
X425736Y643220D01*
Y642020D01*
X426195Y640912D01*
X427044Y640063D01*
X428152Y639604D01*
X429352D01*
X430461Y640063D01*
X431309Y640912D01*
X431768Y642020D01*
Y643220D01*
X431309Y644328D01*
X430461Y645177D01*
X429352Y645636D01*
D02*
G37*
G36*
X548934Y639592D02*
X547734D01*
X546626Y639133D01*
X545777Y638284D01*
X545318Y637176D01*
Y635976D01*
X545777Y634868D01*
X546626Y634019D01*
X547734Y633560D01*
X548934D01*
X550042Y634019D01*
X550891Y634868D01*
X551350Y635976D01*
Y637176D01*
X550891Y638284D01*
X550042Y639133D01*
X548934Y639592D01*
D02*
G37*
G36*
X460609Y639572D02*
X459410D01*
X458301Y639113D01*
X457453Y638264D01*
X456993Y637156D01*
Y635956D01*
X457453Y634848D01*
X458301Y633999D01*
X459410Y633540D01*
X460609D01*
X461718Y633999D01*
X462566Y634848D01*
X463026Y635956D01*
Y637156D01*
X462566Y638264D01*
X461718Y639113D01*
X460609Y639572D01*
D02*
G37*
G36*
X541112Y629888D02*
X539912D01*
X538804Y629429D01*
X537955Y628580D01*
X537496Y627472D01*
Y626272D01*
X537955Y625164D01*
X538804Y624315D01*
X539912Y623856D01*
X541112D01*
X542220Y624315D01*
X543069Y625164D01*
X543528Y626272D01*
Y627472D01*
X543069Y628580D01*
X542220Y629429D01*
X541112Y629888D01*
D02*
G37*
G36*
X795112Y627094D02*
X793912D01*
X792804Y626635D01*
X791955Y625786D01*
X791496Y624678D01*
Y623478D01*
X791955Y622370D01*
X792804Y621521D01*
X793912Y621062D01*
X795112D01*
X796220Y621521D01*
X797069Y622370D01*
X797528Y623478D01*
Y624678D01*
X797069Y625786D01*
X796220Y626635D01*
X795112Y627094D01*
D02*
G37*
G36*
X529187Y625575D02*
X527987D01*
X526879Y625116D01*
X526030Y624267D01*
X525571Y623159D01*
Y621959D01*
X526030Y620850D01*
X526879Y620002D01*
X527987Y619543D01*
X529187D01*
X530295Y620002D01*
X531144Y620850D01*
X531603Y621959D01*
Y623159D01*
X531144Y624267D01*
X530295Y625116D01*
X529187Y625575D01*
D02*
G37*
G36*
X309201Y614663D02*
X308001D01*
X306893Y614204D01*
X306764Y614075D01*
X305934Y613440D01*
X305105Y614075D01*
X304976Y614204D01*
X303867Y614663D01*
X302668D01*
X301559Y614204D01*
X300711Y613356D01*
X300251Y612247D01*
Y611047D01*
X300711Y609939D01*
X301559Y609090D01*
X302668Y608631D01*
X303867D01*
X304976Y609090D01*
X305105Y609219D01*
X305799Y609751D01*
X306143Y609408D01*
X306045Y608022D01*
X305585Y606913D01*
Y605713D01*
X306045Y604605D01*
X306893Y603756D01*
X308001Y603297D01*
X309201D01*
X310310Y603756D01*
X311158Y604605D01*
X311617Y605713D01*
Y606913D01*
X311158Y608022D01*
X311029Y608151D01*
X310394Y608980D01*
X311029Y609810D01*
X311158Y609939D01*
X311617Y611047D01*
Y612247D01*
X311158Y613356D01*
X310310Y614204D01*
X309201Y614663D01*
D02*
G37*
G36*
X795620Y614648D02*
X794420D01*
X793312Y614189D01*
X792463Y613340D01*
X792004Y612232D01*
Y611032D01*
X792463Y609924D01*
X793312Y609075D01*
X794420Y608616D01*
X795620D01*
X796728Y609075D01*
X797577Y609924D01*
X798036Y611032D01*
Y612232D01*
X797577Y613340D01*
X796728Y614189D01*
X795620Y614648D01*
D02*
G37*
G36*
X489296Y612912D02*
X488096D01*
X486988Y612453D01*
X486139Y611604D01*
X485680Y610496D01*
Y609296D01*
X486139Y608187D01*
X486988Y607339D01*
X488096Y606880D01*
X489296D01*
X490405Y607339D01*
X491253Y608187D01*
X491712Y609296D01*
Y610496D01*
X491253Y611604D01*
X490405Y612453D01*
X489296Y612912D01*
D02*
G37*
G36*
X464579D02*
X463379D01*
X462271Y612453D01*
X461423Y611604D01*
X460963Y610496D01*
Y609296D01*
X461423Y608187D01*
X462271Y607339D01*
X463379Y606880D01*
X464579D01*
X465688Y607339D01*
X466536Y608187D01*
X466995Y609296D01*
Y610496D01*
X466536Y611604D01*
X465688Y612453D01*
X464579Y612912D01*
D02*
G37*
G36*
X160528Y657690D02*
X81280D01*
X80502Y657368D01*
X59674Y636540D01*
X59352Y635762D01*
Y418130D01*
X58082Y417604D01*
X58047Y417639D01*
X56939Y418098D01*
X55739D01*
X55281Y417909D01*
X54827Y418184D01*
X54182Y418828D01*
Y419774D01*
X53723Y420883D01*
X52874Y421731D01*
X51766Y422191D01*
X50566D01*
X49457Y421731D01*
X48609Y420883D01*
X48150Y419774D01*
Y418575D01*
X48609Y417466D01*
X49457Y416618D01*
X50566Y416158D01*
X51766D01*
X52224Y416348D01*
X52678Y416073D01*
X53323Y415429D01*
Y414483D01*
X53782Y413374D01*
X54630Y412526D01*
X55739Y412066D01*
X56939D01*
X58047Y412526D01*
X58082Y412561D01*
X59352Y412035D01*
Y152855D01*
X39608Y133112D01*
X17002Y110506D01*
X16680Y109728D01*
Y70358D01*
X17002Y69580D01*
X30464Y56118D01*
X31242Y55796D01*
X160274Y55796D01*
X161052Y56118D01*
X164861Y59928D01*
X165184Y60706D01*
X165184Y90677D01*
X164862Y91455D01*
X164862Y91455D01*
X159528Y96790D01*
X159528Y96790D01*
X158750Y97112D01*
X140663Y97112D01*
X112352Y125423D01*
Y289867D01*
X158512Y336026D01*
X163083Y340598D01*
X163406Y341376D01*
X163406Y377698D01*
X163084Y378475D01*
X158258Y383302D01*
X158258Y383302D01*
X112352Y429208D01*
Y482116D01*
X112268Y482318D01*
Y482537D01*
X112264Y482547D01*
Y483309D01*
X112268Y483320D01*
Y483538D01*
X112352Y483740D01*
Y487306D01*
X112268Y487508D01*
Y487727D01*
X112130Y488061D01*
Y488823D01*
X112268Y489157D01*
Y489376D01*
X112352Y489578D01*
Y493402D01*
X112268Y493604D01*
Y493823D01*
X112130Y494157D01*
Y494919D01*
X112268Y495253D01*
Y495472D01*
X112352Y495674D01*
Y498990D01*
X112268Y499192D01*
Y499411D01*
X112130Y499745D01*
Y500507D01*
X112268Y500841D01*
Y501060D01*
X112352Y501262D01*
Y590602D01*
X124762Y603012D01*
X124845Y603214D01*
X125000Y603369D01*
Y603588D01*
X125084Y603790D01*
X125000Y603992D01*
Y604211D01*
X124474Y605481D01*
X124319Y605635D01*
X124236Y605838D01*
X124033Y605921D01*
X123879Y606076D01*
X123660D01*
X123458Y606160D01*
X123317D01*
X122613Y606451D01*
X122073Y606991D01*
X121782Y607695D01*
Y608457D01*
X122073Y609161D01*
X122613Y609701D01*
X123317Y609992D01*
X124079D01*
X124783Y609701D01*
X125323Y609161D01*
X125614Y608457D01*
Y608316D01*
X125698Y608114D01*
Y607895D01*
X125853Y607741D01*
X125936Y607538D01*
X126138Y607455D01*
X126293Y607300D01*
X127563Y606774D01*
X127782D01*
X127984Y606690D01*
X128186Y606774D01*
X128405D01*
X128560Y606929D01*
X128762Y607012D01*
X128980Y607230D01*
X161798D01*
X162576Y607552D01*
X169180Y614156D01*
X169502Y614934D01*
Y648716D01*
X169180Y649494D01*
X161306Y657368D01*
X160528Y657690D01*
D02*
G37*
G36*
X742788Y601948D02*
X741588D01*
X740480Y601489D01*
X739631Y600640D01*
X739172Y599532D01*
Y598332D01*
X739631Y597224D01*
X740480Y596375D01*
X741588Y595916D01*
X742788D01*
X743896Y596375D01*
X744745Y597224D01*
X745204Y598332D01*
Y599532D01*
X744745Y600640D01*
X743896Y601489D01*
X742788Y601948D01*
D02*
G37*
G36*
X751932Y588994D02*
X750732D01*
X749624Y588535D01*
X748775Y587686D01*
X748316Y586578D01*
Y585378D01*
X748775Y584270D01*
X749624Y583421D01*
X750732Y582962D01*
X751932D01*
X753040Y583421D01*
X753889Y584270D01*
X754348Y585378D01*
Y586578D01*
X753889Y587686D01*
X753040Y588535D01*
X751932Y588994D01*
D02*
G37*
G36*
X798160Y586962D02*
X796960D01*
X795852Y586503D01*
X795003Y585654D01*
X794544Y584546D01*
Y583346D01*
X795003Y582238D01*
X795852Y581389D01*
X796960Y580930D01*
X798160D01*
X799268Y581389D01*
X800117Y582238D01*
X800576Y583346D01*
Y584546D01*
X800117Y585654D01*
X799268Y586503D01*
X798160Y586962D01*
D02*
G37*
G36*
X828204Y586871D02*
X827004D01*
X825896Y586412D01*
X825047Y585564D01*
X824588Y584455D01*
Y583255D01*
X825047Y582147D01*
X825896Y581298D01*
X827004Y580839D01*
X828204D01*
X829313Y581298D01*
X830161Y582147D01*
X830620Y583255D01*
Y584455D01*
X830161Y585564D01*
X829313Y586412D01*
X828204Y586871D01*
D02*
G37*
G36*
X849540Y586780D02*
X848340D01*
X847232Y586321D01*
X846383Y585473D01*
X845924Y584364D01*
Y583164D01*
X846383Y582056D01*
X847232Y581207D01*
X848340Y580748D01*
X849540D01*
X850648Y581207D01*
X851497Y582056D01*
X851956Y583164D01*
Y584364D01*
X851497Y585473D01*
X850648Y586321D01*
X849540Y586780D01*
D02*
G37*
G36*
X830926Y574770D02*
X829726D01*
X828618Y574311D01*
X827769Y573462D01*
X827310Y572354D01*
Y571154D01*
X827769Y570046D01*
X828618Y569197D01*
X829726Y568738D01*
X830926D01*
X832035Y569197D01*
X832883Y570046D01*
X833342Y571154D01*
Y572354D01*
X832883Y573462D01*
X832035Y574311D01*
X830926Y574770D01*
D02*
G37*
G36*
X822798Y574516D02*
X821598D01*
X820490Y574057D01*
X819641Y573208D01*
X819182Y572100D01*
Y570900D01*
X819641Y569792D01*
X820490Y568943D01*
X821598Y568484D01*
X822798D01*
X823906Y568943D01*
X824755Y569792D01*
X825214Y570900D01*
Y572100D01*
X824755Y573208D01*
X823906Y574057D01*
X822798Y574516D01*
D02*
G37*
G36*
X810798D02*
X809598D01*
X808490Y574057D01*
X807641Y573208D01*
X807182Y572100D01*
Y570900D01*
X807641Y569792D01*
X808490Y568943D01*
X809598Y568484D01*
X810798D01*
X811907Y568943D01*
X812755Y569792D01*
X813214Y570900D01*
Y572100D01*
X812755Y573208D01*
X811907Y574057D01*
X810798Y574516D01*
D02*
G37*
G36*
X395824Y620490D02*
X394624D01*
X393516Y620031D01*
X392667Y619182D01*
X392208Y618074D01*
Y616874D01*
X392667Y615766D01*
X393516Y614917D01*
X394624Y614458D01*
X395310D01*
X409253Y600515D01*
X409253Y600515D01*
X409925Y600066D01*
X410718Y599908D01*
X536337D01*
X536356Y598646D01*
X535248Y598187D01*
X534399Y597338D01*
X533940Y596230D01*
Y595030D01*
X534399Y593922D01*
X534652Y593669D01*
X534126Y592398D01*
X160063D01*
X160063Y592399D01*
Y592405D01*
X159109Y592330D01*
X158097Y592330D01*
X158027Y592301D01*
X157954Y592320D01*
X156414Y592118D01*
X155196Y592022D01*
X154601Y591879D01*
X154055Y591807D01*
X153989Y591769D01*
X153914Y591779D01*
X151580Y591154D01*
X150437Y590879D01*
X150219Y590789D01*
X150115Y590761D01*
X150072Y590728D01*
X150040Y590715D01*
X149979D01*
X146346Y589210D01*
X146302Y589166D01*
X146271Y589153D01*
X146216Y589146D01*
X146123Y589092D01*
X145916Y589007D01*
X144964Y588423D01*
X142811Y587180D01*
X142765Y587120D01*
X142691Y587100D01*
X142240Y586754D01*
X141743Y586450D01*
X140859Y585694D01*
X139571Y584706D01*
X139533Y584640D01*
X139463Y584611D01*
X138714Y583862D01*
X138022Y583271D01*
X137431Y582579D01*
X136682Y581830D01*
X136653Y581760D01*
X136587Y581722D01*
X135599Y580434D01*
X134844Y579550D01*
X134540Y579054D01*
X134193Y578602D01*
X134174Y578529D01*
X134114Y578483D01*
X132870Y576329D01*
X132287Y575378D01*
X132201Y575171D01*
X132147Y575077D01*
X132140Y575023D01*
X132127Y574991D01*
X132084Y574948D01*
X130579Y571315D01*
Y571253D01*
X130566Y571222D01*
X130532Y571179D01*
X130504Y571074D01*
X130414Y570856D01*
X130140Y569715D01*
X129515Y567380D01*
X129524Y567305D01*
X129487Y567239D01*
X129415Y566692D01*
X129272Y566098D01*
X129176Y564880D01*
X128973Y563340D01*
X128993Y563266D01*
X128964Y563196D01*
Y562184D01*
X128889Y561230D01*
X128895D01*
X128895Y561230D01*
Y451120D01*
X128895Y451120D01*
X128889D01*
X128964Y450165D01*
Y449156D01*
X128993Y449086D01*
X128973Y449012D01*
X129176Y447476D01*
X129272Y446252D01*
X129415Y445655D01*
X129487Y445113D01*
X129524Y445048D01*
X129515Y444972D01*
X130135Y442657D01*
X130414Y441494D01*
X130506Y441272D01*
X130533Y441174D01*
X130564Y441133D01*
X130579Y441097D01*
Y441037D01*
X132084Y437404D01*
X132126Y437362D01*
X132141Y437326D01*
X132147Y437275D01*
X132198Y437187D01*
X132287Y436973D01*
X132893Y435984D01*
X134114Y433870D01*
X134174Y433823D01*
X134193Y433750D01*
X134533Y433307D01*
X134844Y432800D01*
X135616Y431896D01*
X136587Y430630D01*
X136653Y430592D01*
X136682Y430522D01*
X137418Y429786D01*
X138022Y429079D01*
X138729Y428475D01*
X139463Y427741D01*
X139533Y427712D01*
X139571Y427646D01*
X140834Y426678D01*
X141743Y425900D01*
X142254Y425587D01*
X142691Y425252D01*
X142765Y425233D01*
X142811Y425172D01*
X144902Y423965D01*
X145916Y423344D01*
X146137Y423252D01*
X146216Y423206D01*
X146263Y423200D01*
X146306Y423182D01*
X146346Y423142D01*
X149979Y421637D01*
X150035D01*
X150078Y421620D01*
X150115Y421591D01*
X150204Y421567D01*
X150437Y421471D01*
X151659Y421177D01*
X153914Y420573D01*
X153989Y420583D01*
X154055Y420545D01*
X154581Y420476D01*
X155196Y420328D01*
X156455Y420229D01*
X157954Y420032D01*
X158027Y420052D01*
X158097Y420023D01*
X159081D01*
X160063Y419945D01*
Y419951D01*
X160063Y419952D01*
X668796D01*
X670063Y419945D01*
X670070Y419944D01*
X670129Y419949D01*
X671301Y420022D01*
X671304Y420023D01*
X672030D01*
X672100Y420052D01*
X672173Y420032D01*
X673647Y420226D01*
X674946Y420328D01*
X675580Y420480D01*
X676072Y420545D01*
X676138Y420583D01*
X676213Y420573D01*
X678338Y421143D01*
X679702Y421470D01*
X679961Y421578D01*
X680012Y421591D01*
X680033Y421607D01*
X680106Y421637D01*
X680148D01*
X683782Y423142D01*
X683811Y423172D01*
X683884Y423203D01*
X683911Y423206D01*
X683956Y423232D01*
X684220Y423342D01*
X685437Y424087D01*
X687316Y425172D01*
X687363Y425233D01*
X687436Y425252D01*
X687824Y425550D01*
X688391Y425897D01*
X689400Y426759D01*
X690556Y427646D01*
X690594Y427712D01*
X690664Y427741D01*
X691334Y428411D01*
X692110Y429074D01*
X692772Y429849D01*
X693445Y430522D01*
X693474Y430592D01*
X693540Y430630D01*
X694430Y431790D01*
X695286Y432793D01*
X695631Y433356D01*
X695934Y433750D01*
X695953Y433823D01*
X696013Y433870D01*
X697113Y435773D01*
X697842Y436963D01*
X697949Y437222D01*
X697980Y437275D01*
X697984Y437306D01*
X698011Y437372D01*
X698043Y437404D01*
X699548Y441037D01*
Y441083D01*
X699576Y441149D01*
X699595Y441174D01*
X699611Y441233D01*
X699714Y441482D01*
X700027Y442786D01*
X700612Y444972D01*
X700602Y445048D01*
X700640Y445113D01*
X700707Y445622D01*
X700855Y446238D01*
X700955Y447499D01*
X701154Y449012D01*
X701134Y449086D01*
X701163Y449156D01*
Y449879D01*
X701163Y449881D01*
X701235Y451062D01*
X701239Y451114D01*
X701239Y451120D01*
X701232Y452388D01*
Y559963D01*
X701239Y561230D01*
X701239Y561236D01*
X701235Y561289D01*
X701163Y562468D01*
Y563196D01*
X701134Y563266D01*
X701154Y563340D01*
X700954Y564856D01*
X700855Y566112D01*
X700708Y566726D01*
X700640Y567239D01*
X700602Y567305D01*
X700612Y567380D01*
X700022Y569585D01*
X699714Y570868D01*
X699612Y571113D01*
X699595Y571179D01*
X699574Y571206D01*
X699548Y571267D01*
Y571315D01*
X698043Y574948D01*
X698010Y574982D01*
X697984Y575043D01*
X697980Y575077D01*
X697946Y575136D01*
X697842Y575387D01*
X697135Y576541D01*
X696013Y578483D01*
X695953Y578529D01*
X695934Y578602D01*
X695625Y579005D01*
X695286Y579557D01*
X694446Y580540D01*
X693540Y581722D01*
X693474Y581760D01*
X693445Y581830D01*
X692759Y582516D01*
X692110Y583276D01*
X691349Y583926D01*
X690664Y584611D01*
X690594Y584640D01*
X690556Y584706D01*
X689374Y585613D01*
X688391Y586453D01*
X687839Y586791D01*
X687436Y587100D01*
X687363Y587120D01*
X687316Y587180D01*
X685375Y588301D01*
X684220Y589008D01*
X683969Y589112D01*
X683911Y589146D01*
X683876Y589151D01*
X683815Y589176D01*
X683782Y589210D01*
X680148Y590715D01*
X680100D01*
X680039Y590740D01*
X680012Y590761D01*
X679946Y590779D01*
X679702Y590880D01*
X678418Y591188D01*
X676213Y591779D01*
X676138Y591769D01*
X676072Y591807D01*
X675559Y591875D01*
X674946Y592022D01*
X673689Y592121D01*
X672173Y592320D01*
X672100Y592301D01*
X672030Y592330D01*
X671305D01*
X671302Y592330D01*
X670122Y592402D01*
X670070Y592406D01*
X670063Y592405D01*
X668796Y592398D01*
X539786D01*
X539260Y593669D01*
X539513Y593922D01*
X539972Y595030D01*
Y596230D01*
X539513Y597338D01*
X538665Y598187D01*
X537556Y598646D01*
X537575Y599908D01*
X691800D01*
X728277Y563431D01*
X728277Y563431D01*
X728949Y562982D01*
X729742Y562824D01*
X729742Y562824D01*
X794707D01*
X795358Y561554D01*
X795084Y560892D01*
Y559692D01*
X795543Y558584D01*
X796391Y557735D01*
X797500Y557276D01*
X798700D01*
X799808Y557735D01*
X800657Y558584D01*
X801116Y559692D01*
Y560892D01*
X800842Y561554D01*
X801492Y562824D01*
X820058D01*
X820478Y561554D01*
X819927Y561003D01*
X819468Y559894D01*
Y558695D01*
X819927Y557586D01*
X820776Y556738D01*
X821884Y556279D01*
X823084D01*
X824193Y556738D01*
X825041Y557586D01*
X825500Y558695D01*
Y559546D01*
X826534Y560122D01*
X827468Y559302D01*
Y558695D01*
X827927Y557586D01*
X828776Y556738D01*
X829884Y556278D01*
X831084D01*
X832193Y556738D01*
X833041Y557586D01*
X833500Y558695D01*
Y559894D01*
X833041Y561003D01*
X832193Y561851D01*
X831084Y562310D01*
X830398D01*
X826348Y566361D01*
X825675Y566810D01*
X824883Y566968D01*
X824882Y566968D01*
X730600D01*
X694123Y603445D01*
X693451Y603894D01*
X692658Y604052D01*
X692658Y604052D01*
X411576D01*
X398240Y617388D01*
Y618074D01*
X397781Y619182D01*
X396932Y620031D01*
X395824Y620490D01*
D02*
G37*
G36*
X777586Y561054D02*
X776386D01*
X775278Y560595D01*
X774429Y559746D01*
X773970Y558638D01*
Y557438D01*
X774429Y556330D01*
X775278Y555481D01*
X776386Y555022D01*
X777586D01*
X778695Y555481D01*
X779543Y556330D01*
X780002Y557438D01*
Y558638D01*
X779543Y559746D01*
X778695Y560595D01*
X777586Y561054D01*
D02*
G37*
G36*
X861914Y555466D02*
X860714D01*
X859606Y555007D01*
X858757Y554158D01*
X858298Y553050D01*
Y551850D01*
X858757Y550742D01*
X859606Y549893D01*
X860714Y549434D01*
X861914D01*
X863023Y549893D01*
X863871Y550742D01*
X864330Y551850D01*
Y553050D01*
X863871Y554158D01*
X863023Y555007D01*
X861914Y555466D01*
D02*
G37*
G36*
X757012D02*
X755812D01*
X754704Y555007D01*
X753855Y554158D01*
X753396Y553050D01*
Y551850D01*
X753855Y550742D01*
X754704Y549893D01*
X755812Y549434D01*
X757012D01*
X758120Y549893D01*
X758969Y550742D01*
X759428Y551850D01*
Y553050D01*
X758969Y554158D01*
X758120Y555007D01*
X757012Y555466D01*
D02*
G37*
G36*
X846674Y557559D02*
X845474D01*
X844366Y557100D01*
X843517Y556251D01*
X843058Y555143D01*
Y553943D01*
X843517Y552835D01*
X843614Y552738D01*
X844301Y551908D01*
X843614Y551078D01*
X843517Y550981D01*
X843058Y549873D01*
Y548673D01*
X843517Y547565D01*
X844366Y546716D01*
X845474Y546257D01*
X846674D01*
X847783Y546716D01*
X848631Y547565D01*
X849090Y548673D01*
Y549873D01*
X848631Y550981D01*
X848534Y551078D01*
X847847Y551908D01*
X848534Y552738D01*
X848631Y552835D01*
X849090Y553943D01*
Y555143D01*
X848631Y556251D01*
X847783Y557100D01*
X846674Y557559D01*
D02*
G37*
G36*
X874868Y544218D02*
X873668D01*
X872560Y543759D01*
X871711Y542910D01*
X871252Y541802D01*
Y540602D01*
X871711Y539494D01*
X872560Y538645D01*
X873668Y538186D01*
X874868D01*
X875976Y538645D01*
X876825Y539494D01*
X877284Y540602D01*
Y541802D01*
X876825Y542910D01*
X875976Y543759D01*
X874868Y544218D01*
D02*
G37*
G36*
X777840Y535146D02*
X776640D01*
X775532Y534687D01*
X774683Y533838D01*
X774224Y532730D01*
Y531530D01*
X774683Y530422D01*
X775532Y529573D01*
X776640Y529114D01*
X777840D01*
X778949Y529573D01*
X779797Y530422D01*
X780256Y531530D01*
Y532730D01*
X779797Y533838D01*
X778949Y534687D01*
X777840Y535146D01*
D02*
G37*
G36*
X892394Y535495D02*
X891194D01*
X890086Y535036D01*
X889237Y534187D01*
X888778Y533079D01*
Y531879D01*
X889237Y530771D01*
X889334Y530674D01*
X890021Y529844D01*
X889334Y529014D01*
X889237Y528917D01*
X888778Y527809D01*
Y526609D01*
X889237Y525501D01*
X890086Y524652D01*
X891194Y524193D01*
X892394D01*
X893503Y524652D01*
X894351Y525501D01*
X894810Y526609D01*
Y527809D01*
X894351Y528917D01*
X894254Y529014D01*
X893567Y529844D01*
X894254Y530674D01*
X894351Y530771D01*
X894810Y531879D01*
Y533079D01*
X894351Y534187D01*
X893503Y535036D01*
X892394Y535495D01*
D02*
G37*
G36*
X801462Y522954D02*
X800262D01*
X799154Y522495D01*
X798305Y521646D01*
X797846Y520538D01*
Y519338D01*
X798305Y518230D01*
X799154Y517381D01*
X800262Y516922D01*
X801462D01*
X802570Y517381D01*
X803419Y518230D01*
X803878Y519338D01*
Y520538D01*
X803419Y521646D01*
X802570Y522495D01*
X801462Y522954D01*
D02*
G37*
G36*
X874844Y521502D02*
X873644D01*
X872536Y521043D01*
X871687Y520194D01*
X871228Y519086D01*
Y517886D01*
X871687Y516778D01*
X872536Y515929D01*
X873644Y515470D01*
X874844D01*
X875953Y515929D01*
X876801Y516778D01*
X877260Y517886D01*
Y519086D01*
X876801Y520194D01*
X875953Y521043D01*
X874844Y521502D01*
D02*
G37*
G36*
X846674Y523559D02*
X845474D01*
X844366Y523100D01*
X843517Y522251D01*
X843058Y521143D01*
Y519943D01*
X843517Y518835D01*
X843614Y518738D01*
X844301Y517908D01*
X843614Y517078D01*
X843517Y516981D01*
X843058Y515873D01*
Y514673D01*
X843517Y513565D01*
X844366Y512716D01*
X845474Y512257D01*
X846674D01*
X847783Y512716D01*
X848631Y513565D01*
X849090Y514673D01*
Y515873D01*
X848631Y516981D01*
X848534Y517078D01*
X847847Y517908D01*
X848534Y518738D01*
X848631Y518835D01*
X849090Y519943D01*
Y521143D01*
X848631Y522251D01*
X847783Y523100D01*
X846674Y523559D01*
D02*
G37*
G36*
X788142Y514064D02*
X786943D01*
X785834Y513605D01*
X784986Y512756D01*
X784527Y511648D01*
Y510448D01*
X784986Y509340D01*
X785834Y508491D01*
X786943Y508032D01*
X788142D01*
X789251Y508491D01*
X790099Y509340D01*
X790558Y510448D01*
Y511648D01*
X790099Y512756D01*
X789251Y513605D01*
X788142Y514064D01*
D02*
G37*
G36*
X874868Y511016D02*
X873668D01*
X872560Y510557D01*
X871711Y509708D01*
X871252Y508600D01*
Y507400D01*
X871711Y506292D01*
X872560Y505443D01*
X873668Y504984D01*
X874868D01*
X875976Y505443D01*
X876825Y506292D01*
X877284Y507400D01*
Y508600D01*
X876825Y509708D01*
X875976Y510557D01*
X874868Y511016D01*
D02*
G37*
G36*
X788000Y503650D02*
X786800D01*
X785692Y503191D01*
X784843Y502342D01*
X784384Y501234D01*
Y500034D01*
X784843Y498926D01*
X785692Y498077D01*
X786800Y497618D01*
X788000D01*
X789109Y498077D01*
X789957Y498926D01*
X790416Y500034D01*
Y501234D01*
X789957Y502342D01*
X789109Y503191D01*
X788000Y503650D01*
D02*
G37*
G36*
X796636Y503396D02*
X795436D01*
X794328Y502937D01*
X793479Y502088D01*
X793020Y500980D01*
Y499780D01*
X793479Y498672D01*
X794328Y497823D01*
X795436Y497364D01*
X796636D01*
X797745Y497823D01*
X798593Y498672D01*
X799052Y499780D01*
Y500980D01*
X798593Y502088D01*
X797745Y502937D01*
X796636Y503396D01*
D02*
G37*
G36*
X818988Y492982D02*
X817788D01*
X816680Y492523D01*
X815831Y491674D01*
X815372Y490566D01*
Y489366D01*
X815831Y488258D01*
X816680Y487409D01*
X817788Y486950D01*
X818988D01*
X820097Y487409D01*
X820945Y488258D01*
X821404Y489366D01*
Y490566D01*
X820945Y491674D01*
X820097Y492523D01*
X818988Y492982D01*
D02*
G37*
G36*
X831180Y492728D02*
X829980D01*
X828872Y492269D01*
X828023Y491420D01*
X827564Y490312D01*
Y489112D01*
X828023Y488004D01*
X828872Y487155D01*
X829980Y486696D01*
X831180D01*
X832289Y487155D01*
X833137Y488004D01*
X833596Y489112D01*
Y490312D01*
X833137Y491420D01*
X832289Y492269D01*
X831180Y492728D01*
D02*
G37*
G36*
X769966Y490950D02*
X768766D01*
X767658Y490491D01*
X766809Y489642D01*
X766350Y488534D01*
Y487334D01*
X766809Y486226D01*
X767658Y485377D01*
X767065Y484310D01*
X767063Y484308D01*
X766604Y483200D01*
Y482000D01*
X767063Y480892D01*
X767912Y480043D01*
X769020Y479584D01*
X770220D01*
X771329Y480043D01*
X772177Y480892D01*
X772636Y482000D01*
Y483200D01*
X772177Y484308D01*
X771329Y485157D01*
X771921Y486224D01*
X771923Y486226D01*
X772382Y487334D01*
Y488534D01*
X771923Y489642D01*
X771075Y490491D01*
X769966Y490950D01*
D02*
G37*
G36*
X40986Y451072D02*
X39786D01*
X38678Y450613D01*
X37829Y449764D01*
X37370Y448656D01*
Y447456D01*
X37829Y446348D01*
X37957Y446219D01*
X37238Y445143D01*
X36414Y445484D01*
X35214D01*
X34106Y445025D01*
X33257Y444176D01*
X32798Y443068D01*
Y441868D01*
X33257Y440760D01*
X34106Y439911D01*
X35214Y439452D01*
X36414D01*
X37522Y439911D01*
X38371Y440760D01*
X38830Y441868D01*
Y443068D01*
X38371Y444176D01*
X38243Y444305D01*
X38962Y445381D01*
X39786Y445040D01*
X40986D01*
X42094Y445499D01*
X42943Y446348D01*
X43402Y447456D01*
Y448656D01*
X42943Y449764D01*
X42094Y450613D01*
X40986Y451072D01*
D02*
G37*
G36*
X793588Y433292D02*
X792388D01*
X791280Y432833D01*
X790431Y431984D01*
X789972Y430876D01*
Y429676D01*
X790431Y428568D01*
X791280Y427719D01*
X792388Y427260D01*
X793588D01*
X794697Y427719D01*
X795545Y428568D01*
X796004Y429676D01*
Y430876D01*
X795545Y431984D01*
X794697Y432833D01*
X793588Y433292D01*
D02*
G37*
G36*
X794096Y419322D02*
X792896D01*
X791788Y418863D01*
X790939Y418014D01*
X790480Y416906D01*
Y415706D01*
X790939Y414598D01*
X791788Y413749D01*
X792896Y413290D01*
X794096D01*
X795204Y413749D01*
X796053Y414598D01*
X796512Y415706D01*
Y416906D01*
X796053Y418014D01*
X795204Y418863D01*
X794096Y419322D01*
D02*
G37*
G36*
X744820Y408908D02*
X743620D01*
X742512Y408449D01*
X741663Y407600D01*
X741204Y406492D01*
Y405292D01*
X741663Y404184D01*
X742512Y403335D01*
X743620Y402876D01*
X744820D01*
X745928Y403335D01*
X746777Y404184D01*
X747236Y405292D01*
Y406492D01*
X746777Y407600D01*
X745928Y408449D01*
X744820Y408908D01*
D02*
G37*
G36*
X745328Y396208D02*
X744128D01*
X743020Y395749D01*
X742171Y394900D01*
X741712Y393792D01*
Y392592D01*
X742171Y391484D01*
X743020Y390635D01*
X744128Y390176D01*
X745328D01*
X746436Y390635D01*
X747285Y391484D01*
X747744Y392592D01*
Y393792D01*
X747285Y394900D01*
X746436Y395749D01*
X745328Y396208D01*
D02*
G37*
G36*
X849503Y393740D02*
X848303D01*
X847194Y393281D01*
X846346Y392433D01*
X845887Y391324D01*
Y390124D01*
X846346Y389016D01*
X847194Y388167D01*
X848303Y387708D01*
X849503D01*
X850611Y388167D01*
X851460Y389016D01*
X851919Y390124D01*
Y391324D01*
X851460Y392433D01*
X850611Y393281D01*
X849503Y393740D01*
D02*
G37*
G36*
X828204D02*
X827004D01*
X825896Y393281D01*
X825047Y392433D01*
X824588Y391324D01*
Y390124D01*
X825047Y389016D01*
X825896Y388167D01*
X827004Y387708D01*
X828204D01*
X829313Y388167D01*
X830161Y389016D01*
X830620Y390124D01*
Y391324D01*
X830161Y392433D01*
X829313Y393281D01*
X828204Y393740D01*
D02*
G37*
G36*
X806868Y393740D02*
X805668D01*
X804560Y393281D01*
X803711Y392432D01*
X803252Y391324D01*
Y390124D01*
X803711Y389015D01*
X804560Y388167D01*
X805668Y387708D01*
X806868D01*
X807977Y388167D01*
X808825Y389015D01*
X809284Y390124D01*
Y391324D01*
X808825Y392432D01*
X807977Y393281D01*
X806868Y393740D01*
D02*
G37*
G36*
X834228Y385794D02*
X833028D01*
X831920Y385335D01*
X831071Y384486D01*
X830612Y383378D01*
Y382178D01*
X831071Y381070D01*
X831920Y380221D01*
X833028Y379762D01*
X834228D01*
X835337Y380221D01*
X836185Y381070D01*
X836644Y382178D01*
Y383378D01*
X836185Y384486D01*
X835337Y385335D01*
X834228Y385794D01*
D02*
G37*
G36*
X823939Y383848D02*
X822739D01*
X821631Y383389D01*
X820782Y382540D01*
X820595Y382089D01*
X819370Y381222D01*
X818170D01*
X817062Y380763D01*
X816213Y379914D01*
X815754Y378806D01*
Y377606D01*
X816213Y376498D01*
X817062Y375649D01*
X818170Y375190D01*
X819370D01*
X820479Y375649D01*
X821327Y376498D01*
X821514Y376949D01*
X822739Y377816D01*
X823939D01*
X825048Y378275D01*
X825896Y379123D01*
X826355Y380232D01*
Y381432D01*
X825896Y382540D01*
X825048Y383389D01*
X823939Y383848D01*
D02*
G37*
G36*
X810798Y384356D02*
X809598D01*
X808490Y383897D01*
X807641Y383048D01*
X807182Y381940D01*
Y381887D01*
X806992Y380736D01*
X806009Y380714D01*
X805789D01*
X804681Y380255D01*
X803832Y379406D01*
X803373Y378298D01*
Y377098D01*
X803832Y375990D01*
X804681Y375141D01*
X805789Y374682D01*
X806989D01*
X808098Y375141D01*
X808946Y375990D01*
X809405Y377098D01*
Y377151D01*
X809594Y378302D01*
X810578Y378324D01*
X810798D01*
X811907Y378783D01*
X812755Y379632D01*
X813214Y380740D01*
Y381940D01*
X812755Y383048D01*
X811907Y383897D01*
X810798Y384356D01*
D02*
G37*
G36*
X237125Y366940D02*
X235925D01*
X234816Y366481D01*
X234560Y366226D01*
X233731Y365765D01*
X232901Y366226D01*
X232645Y366481D01*
X231537Y366940D01*
X230337D01*
X229228Y366481D01*
X228972Y366226D01*
X228143Y365765D01*
X227313Y366226D01*
X227057Y366481D01*
X225949Y366940D01*
X224749D01*
X223640Y366481D01*
X222792Y365633D01*
X222332Y364524D01*
Y363325D01*
X222792Y362216D01*
X223640Y361368D01*
X224749Y360909D01*
X225949D01*
X227057Y361368D01*
X227313Y361624D01*
X228143Y362084D01*
X228972Y361624D01*
X229228Y361368D01*
X230337Y360909D01*
X231537D01*
X232645Y361368D01*
X232901Y361624D01*
X233731Y362084D01*
X234560Y361624D01*
X234816Y361368D01*
X235925Y360909D01*
X237125D01*
X238233Y361368D01*
X239081Y362216D01*
X239541Y363325D01*
Y364524D01*
X239081Y365633D01*
X238233Y366481D01*
X237125Y366940D01*
D02*
G37*
G36*
X786428Y367464D02*
X785229D01*
X784120Y367005D01*
X783272Y366157D01*
X782812Y365048D01*
Y363848D01*
X783272Y362740D01*
X784120Y361892D01*
X785229Y361432D01*
X786428D01*
X787537Y361892D01*
X788385Y362740D01*
X788845Y363848D01*
Y365048D01*
X788385Y366157D01*
X787537Y367005D01*
X786428Y367464D01*
D02*
G37*
G36*
X490535Y373229D02*
X488688D01*
X486903Y372751D01*
X485304Y371827D01*
X483997Y370521D01*
X483074Y368921D01*
X482596Y367136D01*
Y365289D01*
X483074Y363504D01*
X483997Y361905D01*
X485304Y360598D01*
X486903Y359675D01*
X488688Y359197D01*
X490535D01*
X492320Y359675D01*
X493919Y360598D01*
X495226Y361905D01*
X496149Y363504D01*
X496628Y365289D01*
Y367136D01*
X496149Y368921D01*
X495226Y370521D01*
X493919Y371827D01*
X492320Y372751D01*
X490535Y373229D01*
D02*
G37*
G36*
X863271Y361884D02*
X862071D01*
X860963Y361425D01*
X860114Y360576D01*
X859655Y359468D01*
Y358268D01*
X860114Y357160D01*
X860963Y356311D01*
X862071Y355852D01*
X863271D01*
X864380Y356311D01*
X865228Y357160D01*
X865687Y358268D01*
Y359468D01*
X865228Y360576D01*
X864380Y361425D01*
X863271Y361884D01*
D02*
G37*
G36*
X753456Y361664D02*
X752256D01*
X751148Y361205D01*
X750299Y360356D01*
X749840Y359248D01*
Y358048D01*
X750299Y356940D01*
X751148Y356091D01*
X752256Y355632D01*
X753456D01*
X754565Y356091D01*
X755413Y356940D01*
X755872Y358048D01*
Y359248D01*
X755413Y360356D01*
X754565Y361205D01*
X753456Y361664D01*
D02*
G37*
G36*
X846674Y364519D02*
X845474D01*
X844366Y364060D01*
X843517Y363211D01*
X843058Y362103D01*
Y360903D01*
X843517Y359795D01*
X843614Y359698D01*
X844301Y358868D01*
X843614Y358038D01*
X843517Y357941D01*
X843058Y356833D01*
Y355633D01*
X843517Y354525D01*
X844366Y353676D01*
X845474Y353217D01*
X846674D01*
X847783Y353676D01*
X848631Y354525D01*
X849090Y355633D01*
Y356833D01*
X848631Y357941D01*
X848534Y358038D01*
X847847Y358868D01*
X848534Y359698D01*
X848631Y359795D01*
X849090Y360903D01*
Y362103D01*
X848631Y363211D01*
X847783Y364060D01*
X846674Y364519D01*
D02*
G37*
G36*
X875228Y351326D02*
X874028D01*
X872920Y350867D01*
X872071Y350018D01*
X871612Y348910D01*
Y347710D01*
X872071Y346601D01*
X872920Y345753D01*
X874028Y345294D01*
X875228D01*
X876337Y345753D01*
X877185Y346601D01*
X877644Y347710D01*
Y348910D01*
X877185Y350018D01*
X876337Y350867D01*
X875228Y351326D01*
D02*
G37*
G36*
X771562Y342868D02*
X770362D01*
X769254Y342409D01*
X768405Y341560D01*
X767946Y340452D01*
Y339252D01*
X768405Y338144D01*
X769254Y337295D01*
X770362Y336836D01*
X771562D01*
X772671Y337295D01*
X773519Y338144D01*
X773978Y339252D01*
Y340452D01*
X773519Y341560D01*
X772671Y342409D01*
X771562Y342868D01*
D02*
G37*
G36*
X892394Y342455D02*
X891194D01*
X890086Y341996D01*
X889237Y341147D01*
X888778Y340039D01*
Y338839D01*
X889237Y337731D01*
X889334Y337634D01*
X890021Y336804D01*
X889334Y335974D01*
X889237Y335877D01*
X888778Y334769D01*
Y333569D01*
X889237Y332461D01*
X890086Y331612D01*
X891194Y331153D01*
X892394D01*
X893503Y331612D01*
X894351Y332461D01*
X894810Y333569D01*
Y334769D01*
X894351Y335877D01*
X894254Y335974D01*
X893567Y336804D01*
X894254Y337634D01*
X894351Y337731D01*
X894810Y338839D01*
Y340039D01*
X894351Y341147D01*
X893503Y341996D01*
X892394Y342455D01*
D02*
G37*
G36*
X786966Y329916D02*
X785766D01*
X784657Y329457D01*
X783809Y328608D01*
X783350Y327500D01*
Y326300D01*
X783809Y325192D01*
X784657Y324343D01*
X785766Y323884D01*
X786966D01*
X788074Y324343D01*
X788923Y325192D01*
X789382Y326300D01*
Y327500D01*
X788923Y328608D01*
X788074Y329457D01*
X786966Y329916D01*
D02*
G37*
G36*
X846674Y330519D02*
X845474D01*
X844366Y330060D01*
X843517Y329211D01*
X843058Y328103D01*
Y326903D01*
X843517Y325795D01*
X843614Y325698D01*
X844301Y324868D01*
X843614Y324038D01*
X843517Y323941D01*
X843058Y322833D01*
Y321633D01*
X843517Y320525D01*
X844366Y319676D01*
X845474Y319217D01*
X846674D01*
X847783Y319676D01*
X848631Y320525D01*
X849090Y321633D01*
Y322833D01*
X848631Y323941D01*
X848534Y324038D01*
X847847Y324868D01*
X848534Y325698D01*
X848631Y325795D01*
X849090Y326903D01*
Y328103D01*
X848631Y329211D01*
X847783Y330060D01*
X846674Y330519D01*
D02*
G37*
G36*
X787238Y321532D02*
X786038D01*
X784930Y321073D01*
X784081Y320224D01*
X783622Y319116D01*
Y317916D01*
X784081Y316808D01*
X784930Y315959D01*
X786038Y315500D01*
X787238D01*
X788346Y315959D01*
X789195Y316808D01*
X789654Y317916D01*
Y319116D01*
X789195Y320224D01*
X788346Y321073D01*
X787238Y321532D01*
D02*
G37*
G36*
X875122Y318992D02*
X873922D01*
X872814Y318533D01*
X871965Y317684D01*
X871506Y316576D01*
Y315376D01*
X871965Y314268D01*
X872814Y313419D01*
X873922Y312960D01*
X875122D01*
X876230Y313419D01*
X877079Y314268D01*
X877538Y315376D01*
Y316576D01*
X877079Y317684D01*
X876230Y318533D01*
X875122Y318992D01*
D02*
G37*
G36*
X160057Y310976D02*
X160012Y310972D01*
X158824Y310903D01*
X158821Y310903D01*
X158097D01*
X158027Y310874D01*
X157954Y310893D01*
X156382Y310686D01*
X155181Y310592D01*
X154595Y310451D01*
X154055Y310380D01*
X153989Y310342D01*
X153914Y310352D01*
X151603Y309733D01*
X150426Y309450D01*
X150201Y309357D01*
X150115Y309334D01*
X150079Y309307D01*
X150034Y309288D01*
X149979D01*
X146346Y307783D01*
X146307Y307744D01*
X146261Y307725D01*
X146216Y307719D01*
X146139Y307675D01*
X145907Y307578D01*
X144836Y306922D01*
X142811Y305753D01*
X142765Y305693D01*
X142691Y305673D01*
X142269Y305349D01*
X141736Y305023D01*
X140787Y304212D01*
X139571Y303279D01*
X139533Y303213D01*
X139463Y303184D01*
X138757Y302478D01*
X138017Y301846D01*
X137385Y301106D01*
X136682Y300403D01*
X136653Y300333D01*
X136587Y300295D01*
X135658Y299084D01*
X134841Y298127D01*
X134511Y297590D01*
X134193Y297175D01*
X134174Y297102D01*
X134114Y297056D01*
X132963Y295062D01*
X132285Y293957D01*
X132186Y293717D01*
X132147Y293650D01*
X132142Y293612D01*
X132120Y293557D01*
X132084Y293521D01*
X130579Y289888D01*
Y289837D01*
X130556Y289782D01*
X130532Y289751D01*
X130513Y289677D01*
X130414Y289438D01*
X130112Y288183D01*
X129515Y285953D01*
X129524Y285878D01*
X129487Y285812D01*
X129418Y285292D01*
X129272Y284682D01*
X129173Y283433D01*
X128973Y281913D01*
X128993Y281839D01*
X128964Y281769D01*
Y281041D01*
X128964Y281039D01*
X128892Y279858D01*
X128888Y279806D01*
X128888Y279800D01*
X128895Y278533D01*
Y170968D01*
X128888Y169700D01*
X128888Y169694D01*
X128892Y169642D01*
X128964Y168461D01*
X128964Y168459D01*
Y167729D01*
X128993Y167659D01*
X128973Y167585D01*
X129174Y166063D01*
X129272Y164818D01*
X129418Y164210D01*
X129487Y163686D01*
X129524Y163621D01*
X129515Y163545D01*
X130116Y161300D01*
X130414Y160062D01*
X130511Y159826D01*
X130533Y159747D01*
X130558Y159714D01*
X130579Y159663D01*
Y159611D01*
X132084Y155977D01*
X132121Y155940D01*
X132142Y155889D01*
X132147Y155848D01*
X132188Y155777D01*
X132285Y155543D01*
X132945Y154466D01*
X134114Y152443D01*
X134174Y152396D01*
X134193Y152323D01*
X134517Y151901D01*
X134841Y151373D01*
X135645Y150432D01*
X136587Y149203D01*
X136653Y149165D01*
X136682Y149095D01*
X137396Y148381D01*
X138017Y147654D01*
X138745Y147032D01*
X139463Y146314D01*
X139533Y146285D01*
X139571Y146219D01*
X140808Y145270D01*
X141736Y144477D01*
X142258Y144158D01*
X142691Y143825D01*
X142765Y143806D01*
X142811Y143745D01*
X144887Y142546D01*
X145907Y141922D01*
X146128Y141830D01*
X146216Y141779D01*
X146268Y141772D01*
X146304Y141757D01*
X146346Y141715D01*
X149979Y140210D01*
X150038D01*
X150074Y140196D01*
X150115Y140164D01*
X150214Y140138D01*
X150426Y140050D01*
X151537Y139783D01*
X153914Y139146D01*
X153989Y139156D01*
X154055Y139118D01*
X154612Y139045D01*
X155181Y138908D01*
X156348Y138816D01*
X157954Y138605D01*
X158027Y138625D01*
X158097Y138596D01*
X158820D01*
X158823Y138595D01*
X160016Y138528D01*
X160057Y138524D01*
X160064Y138525D01*
X161331Y138532D01*
X670062D01*
X670063Y138526D01*
X670087Y138524D01*
X670990Y138596D01*
X672030D01*
X672100Y138625D01*
X672173Y138605D01*
X673755Y138813D01*
X674960Y138908D01*
X675548Y139049D01*
X676072Y139118D01*
X676138Y139156D01*
X676213Y139146D01*
X678461Y139748D01*
X679713Y140049D01*
X679952Y140148D01*
X680012Y140164D01*
X680037Y140183D01*
X680102Y140210D01*
X680148D01*
X683782Y141715D01*
X683814Y141748D01*
X683879Y141775D01*
X683911Y141779D01*
X683964Y141810D01*
X684230Y141920D01*
X685451Y142668D01*
X687316Y143745D01*
X687363Y143806D01*
X687436Y143825D01*
X687821Y144121D01*
X688398Y144474D01*
X689425Y145351D01*
X690556Y146219D01*
X690594Y146285D01*
X690664Y146314D01*
X691319Y146969D01*
X692115Y147649D01*
X692794Y148444D01*
X693445Y149095D01*
X693474Y149165D01*
X693540Y149203D01*
X694401Y150326D01*
X695290Y151366D01*
X695647Y151950D01*
X695934Y152323D01*
X695953Y152396D01*
X696013Y152443D01*
X697060Y154255D01*
X697844Y155534D01*
X697959Y155812D01*
X697980Y155848D01*
X697983Y155869D01*
X698016Y155950D01*
X698043Y155977D01*
X699548Y159611D01*
Y159649D01*
X699582Y159730D01*
X699595Y159747D01*
X699605Y159788D01*
X699714Y160050D01*
X700045Y161429D01*
X700612Y163545D01*
X700602Y163621D01*
X700640Y163686D01*
X700705Y164177D01*
X700855Y164804D01*
X700956Y166087D01*
X701154Y167585D01*
X701134Y167659D01*
X701163Y167729D01*
Y168713D01*
X701239Y169677D01*
X701237Y169701D01*
X701232Y169701D01*
Y279799D01*
X701237Y279799D01*
X701239Y279823D01*
X701163Y280787D01*
Y281769D01*
X701134Y281839D01*
X701154Y281913D01*
X700957Y283409D01*
X700855Y284697D01*
X700704Y285325D01*
X700640Y285812D01*
X700602Y285878D01*
X700612Y285953D01*
X700050Y288054D01*
X699714Y289450D01*
X699604Y289716D01*
X699595Y289751D01*
X699583Y289766D01*
X699548Y289851D01*
Y289888D01*
X698043Y293521D01*
X698017Y293547D01*
X697982Y293632D01*
X697980Y293650D01*
X697961Y293682D01*
X697844Y293966D01*
X697042Y295275D01*
X696013Y297056D01*
X695953Y297102D01*
X695934Y297175D01*
X695653Y297541D01*
X695290Y298134D01*
X694387Y299190D01*
X693540Y300295D01*
X693474Y300333D01*
X693445Y300403D01*
X692805Y301043D01*
X692115Y301851D01*
X691307Y302541D01*
X690664Y303184D01*
X690594Y303213D01*
X690556Y303279D01*
X689446Y304131D01*
X688398Y305026D01*
X687809Y305387D01*
X687436Y305673D01*
X687363Y305693D01*
X687316Y305753D01*
X685503Y306800D01*
X684230Y307580D01*
X683953Y307695D01*
X683911Y307719D01*
X683886Y307722D01*
X683811Y307754D01*
X683782Y307783D01*
X680148Y309288D01*
X680107D01*
X680032Y309319D01*
X680012Y309334D01*
X679965Y309347D01*
X679713Y309451D01*
X678395Y309767D01*
X676213Y310352D01*
X676138Y310342D01*
X676072Y310380D01*
X675565Y310447D01*
X674960Y310592D01*
X673721Y310690D01*
X672173Y310893D01*
X672100Y310874D01*
X672030Y310903D01*
X671013D01*
X670087Y310976D01*
X670063Y310974D01*
X670062Y310968D01*
X161331D01*
X160064Y310975D01*
X160057Y310976D01*
D02*
G37*
G36*
X787238Y310102D02*
X786038D01*
X784930Y309643D01*
X784081Y308794D01*
X783622Y307686D01*
Y306486D01*
X784081Y305378D01*
X784930Y304529D01*
X786038Y304070D01*
X787238D01*
X788346Y304529D01*
X789195Y305378D01*
X789654Y306486D01*
Y307686D01*
X789195Y308794D01*
X788346Y309643D01*
X787238Y310102D01*
D02*
G37*
G36*
X875122Y308070D02*
X873922D01*
X872814Y307611D01*
X871965Y306762D01*
X871506Y305654D01*
Y304454D01*
X871965Y303346D01*
X872814Y302497D01*
X873922Y302038D01*
X875122D01*
X876230Y302497D01*
X877079Y303346D01*
X877538Y304454D01*
Y305654D01*
X877079Y306762D01*
X876230Y307611D01*
X875122Y308070D01*
D02*
G37*
G36*
X777078Y302228D02*
X775878D01*
X774770Y301769D01*
X774124Y301124D01*
X773649Y300940D01*
X772587Y301018D01*
X772091Y301515D01*
X770982Y301974D01*
X769782D01*
X768674Y301515D01*
X767825Y300666D01*
X767366Y299558D01*
Y298358D01*
X767825Y297250D01*
X768674Y296401D01*
X769782Y295942D01*
X770982D01*
X772091Y296401D01*
X772736Y297047D01*
X773211Y297230D01*
X774273Y297152D01*
X774770Y296655D01*
X775878Y296196D01*
X777078D01*
X778186Y296655D01*
X779035Y297504D01*
X779494Y298612D01*
Y299812D01*
X779035Y300920D01*
X778186Y301769D01*
X777078Y302228D01*
D02*
G37*
G36*
X831068Y299322D02*
X829868D01*
X828760Y298863D01*
X827911Y298014D01*
X827452Y296906D01*
Y295706D01*
X827911Y294598D01*
X828760Y293749D01*
X829868Y293290D01*
X831068D01*
X832177Y293749D01*
X833025Y294598D01*
X833484Y295706D01*
Y296906D01*
X833025Y298014D01*
X832177Y298863D01*
X831068Y299322D01*
D02*
G37*
G36*
X818734Y298926D02*
X817534D01*
X816426Y298467D01*
X815577Y297618D01*
X815118Y296510D01*
Y295310D01*
X815577Y294202D01*
X816426Y293353D01*
X817534Y292894D01*
X818734D01*
X819843Y293353D01*
X820691Y294202D01*
X821150Y295310D01*
Y296510D01*
X820691Y297618D01*
X819843Y298467D01*
X818734Y298926D01*
D02*
G37*
G36*
X794350Y243554D02*
X793150D01*
X792042Y243095D01*
X791193Y242246D01*
X790734Y241138D01*
Y239938D01*
X791193Y238830D01*
X792042Y237981D01*
X793150Y237522D01*
X794350D01*
X795459Y237981D01*
X796307Y238830D01*
X796766Y239938D01*
Y241138D01*
X796307Y242246D01*
X795459Y243095D01*
X794350Y243554D01*
D02*
G37*
G36*
Y230600D02*
X793150D01*
X792042Y230141D01*
X791193Y229292D01*
X790734Y228184D01*
Y226984D01*
X791193Y225876D01*
X792042Y225027D01*
X793150Y224568D01*
X794350D01*
X795459Y225027D01*
X796307Y225876D01*
X796766Y226984D01*
Y228184D01*
X796307Y229292D01*
X795459Y230141D01*
X794350Y230600D01*
D02*
G37*
G36*
X744566Y218408D02*
X743366D01*
X742258Y217949D01*
X741409Y217100D01*
X740950Y215992D01*
Y214792D01*
X741409Y213684D01*
X742258Y212835D01*
X743366Y212376D01*
X744566D01*
X745675Y212835D01*
X746523Y213684D01*
X746982Y214792D01*
Y215992D01*
X746523Y217100D01*
X745675Y217949D01*
X744566Y218408D01*
D02*
G37*
G36*
X828535Y206978D02*
X827335D01*
X826227Y206519D01*
X825378Y205670D01*
X824919Y204562D01*
Y203362D01*
X825378Y202253D01*
X826227Y201405D01*
X827335Y200946D01*
X828535D01*
X829644Y201405D01*
X830492Y202253D01*
X830951Y203362D01*
Y204562D01*
X830492Y205670D01*
X829644Y206519D01*
X828535Y206978D01*
D02*
G37*
G36*
X744566Y205454D02*
X743366D01*
X742258Y204995D01*
X741409Y204146D01*
X740950Y203038D01*
Y201838D01*
X741409Y200730D01*
X742258Y199881D01*
X743366Y199422D01*
X744566D01*
X745675Y199881D01*
X746523Y200730D01*
X746982Y201838D01*
Y203038D01*
X746523Y204146D01*
X745675Y204995D01*
X744566Y205454D01*
D02*
G37*
G36*
X849540Y202986D02*
X848340D01*
X847232Y202527D01*
X846383Y201679D01*
X845924Y200570D01*
Y199370D01*
X846383Y198262D01*
X847232Y197413D01*
X848340Y196954D01*
X849540D01*
X850648Y197413D01*
X851497Y198262D01*
X851956Y199370D01*
Y200570D01*
X851497Y201679D01*
X850648Y202527D01*
X849540Y202986D01*
D02*
G37*
G36*
X806868Y202986D02*
X805668D01*
X804560Y202527D01*
X803711Y201678D01*
X803252Y200570D01*
Y199370D01*
X803711Y198261D01*
X804560Y197413D01*
X805668Y196954D01*
X806868D01*
X807977Y197413D01*
X808825Y198261D01*
X809284Y199370D01*
Y200570D01*
X808825Y201678D01*
X807977Y202527D01*
X806868Y202986D01*
D02*
G37*
G36*
X814197Y197072D02*
X812997D01*
X811888Y196613D01*
X811040Y195764D01*
X810581Y194656D01*
Y193456D01*
X811040Y192348D01*
X811888Y191499D01*
X812997Y191040D01*
X814197D01*
X815305Y191499D01*
X816154Y192348D01*
X816613Y193456D01*
Y194656D01*
X816154Y195764D01*
X815305Y196613D01*
X814197Y197072D01*
D02*
G37*
G36*
X823904Y192852D02*
X822704D01*
X821596Y192393D01*
X820747Y191544D01*
X820288Y190436D01*
X819669Y190022D01*
X819386Y190139D01*
X818186D01*
X817078Y189680D01*
X816229Y188831D01*
X815770Y187723D01*
Y186523D01*
X816229Y185414D01*
X817078Y184566D01*
X818186Y184107D01*
X819386D01*
X820495Y184566D01*
X821343Y185414D01*
X821802Y186523D01*
X822422Y186937D01*
X822704Y186820D01*
X823904D01*
X825013Y187279D01*
X825861Y188127D01*
X826320Y189236D01*
Y190436D01*
X825861Y191544D01*
X825013Y192393D01*
X823904Y192852D01*
D02*
G37*
G36*
X831434Y194024D02*
X830234D01*
X829126Y193565D01*
X828277Y192716D01*
X827818Y191608D01*
Y190408D01*
X828277Y189300D01*
X829126Y188451D01*
X830234Y187992D01*
X831434D01*
X832542Y188451D01*
X833391Y189300D01*
X833850Y190408D01*
Y191608D01*
X833391Y192716D01*
X832542Y193565D01*
X831434Y194024D01*
D02*
G37*
G36*
X807037Y189912D02*
X805837D01*
X804728Y189453D01*
X803880Y188605D01*
X803420Y187496D01*
Y186297D01*
X803880Y185188D01*
X804728Y184340D01*
X805837Y183881D01*
X807037D01*
X808145Y184340D01*
X808993Y185188D01*
X809453Y186297D01*
Y187496D01*
X808993Y188605D01*
X808145Y189453D01*
X807037Y189912D01*
D02*
G37*
G36*
X784190Y176330D02*
X782990D01*
X781882Y175871D01*
X781033Y175023D01*
X780574Y173914D01*
Y172715D01*
X781033Y171606D01*
X781882Y170758D01*
X782990Y170298D01*
X784190D01*
X785298Y170758D01*
X786147Y171606D01*
X786606Y172715D01*
Y173914D01*
X786147Y175023D01*
X785298Y175871D01*
X784190Y176330D01*
D02*
G37*
G36*
X753413Y171880D02*
X752213D01*
X751105Y171420D01*
X750256Y170572D01*
X749797Y169464D01*
Y168264D01*
X750256Y167155D01*
X751105Y166307D01*
X752213Y165848D01*
X753413D01*
X754521Y166307D01*
X755370Y167155D01*
X755829Y168264D01*
Y169464D01*
X755370Y170572D01*
X754521Y171420D01*
X753413Y171880D01*
D02*
G37*
G36*
X863184Y171164D02*
X861984D01*
X860876Y170705D01*
X860027Y169856D01*
X859568Y168748D01*
Y167548D01*
X860027Y166440D01*
X860876Y165591D01*
X861984Y165132D01*
X863184D01*
X864293Y165591D01*
X865141Y166440D01*
X865600Y167548D01*
Y168748D01*
X865141Y169856D01*
X864293Y170705D01*
X863184Y171164D01*
D02*
G37*
G36*
X846674Y173765D02*
X845474D01*
X844366Y173306D01*
X843517Y172457D01*
X843058Y171349D01*
Y170149D01*
X843517Y169041D01*
X843614Y168944D01*
X844301Y168114D01*
X843614Y167284D01*
X843517Y167187D01*
X843058Y166079D01*
Y164879D01*
X843517Y163771D01*
X844366Y162922D01*
X845474Y162463D01*
X846674D01*
X847783Y162922D01*
X848631Y163771D01*
X849090Y164879D01*
Y166079D01*
X848631Y167187D01*
X848534Y167284D01*
X847847Y168114D01*
X848534Y168944D01*
X848631Y169041D01*
X849090Y170149D01*
Y171349D01*
X848631Y172457D01*
X847783Y173306D01*
X846674Y173765D01*
D02*
G37*
G36*
X875080Y160424D02*
X873880D01*
X872772Y159965D01*
X871924Y159116D01*
X871464Y158008D01*
Y156808D01*
X871924Y155700D01*
X872772Y154851D01*
X873880Y154392D01*
X875080D01*
X876189Y154851D01*
X877037Y155700D01*
X877496Y156808D01*
Y158008D01*
X877037Y159116D01*
X876189Y159965D01*
X875080Y160424D01*
D02*
G37*
G36*
X781396Y147034D02*
X780196D01*
X779088Y146575D01*
X778239Y145726D01*
X777780Y144618D01*
Y143418D01*
X778239Y142310D01*
X779088Y141461D01*
X780196Y141002D01*
X781396D01*
X782505Y141461D01*
X783353Y142310D01*
X783812Y143418D01*
Y144618D01*
X783353Y145726D01*
X782505Y146575D01*
X781396Y147034D01*
D02*
G37*
G36*
X892394Y151701D02*
X891194D01*
X890086Y151242D01*
X889237Y150393D01*
X888778Y149285D01*
Y148085D01*
X889237Y146977D01*
X889334Y146880D01*
X890021Y146050D01*
X889334Y145220D01*
X889237Y145123D01*
X888778Y144015D01*
Y142815D01*
X889237Y141707D01*
X890086Y140858D01*
X891194Y140399D01*
X892394D01*
X893503Y140858D01*
X894351Y141707D01*
X894810Y142815D01*
Y144015D01*
X894351Y145123D01*
X894254Y145220D01*
X893567Y146050D01*
X894254Y146880D01*
X894351Y146977D01*
X894810Y148085D01*
Y149285D01*
X894351Y150393D01*
X893503Y151242D01*
X892394Y151701D01*
D02*
G37*
G36*
X788254Y139414D02*
X787054D01*
X785946Y138955D01*
X785097Y138106D01*
X784638Y136998D01*
Y135798D01*
X785097Y134690D01*
X785946Y133841D01*
X787054Y133382D01*
X788254D01*
X789362Y133841D01*
X790211Y134690D01*
X790670Y135798D01*
Y136998D01*
X790211Y138106D01*
X789362Y138955D01*
X788254Y139414D01*
D02*
G37*
G36*
X846674Y139765D02*
X845474D01*
X844366Y139306D01*
X843517Y138457D01*
X843058Y137349D01*
Y136149D01*
X843517Y135041D01*
X843614Y134944D01*
X844301Y134114D01*
X843614Y133284D01*
X843517Y133187D01*
X843058Y132079D01*
Y130879D01*
X843517Y129771D01*
X844366Y128922D01*
X845474Y128463D01*
X846674D01*
X847783Y128922D01*
X848631Y129771D01*
X849090Y130879D01*
Y132079D01*
X848631Y133187D01*
X848534Y133284D01*
X847847Y134114D01*
X848534Y134944D01*
X848631Y135041D01*
X849090Y136149D01*
Y137349D01*
X848631Y138457D01*
X847783Y139306D01*
X846674Y139765D01*
D02*
G37*
G36*
X788210Y129976D02*
X787010D01*
X785901Y129516D01*
X785053Y128668D01*
X784594Y127559D01*
Y126360D01*
X785053Y125251D01*
X785901Y124403D01*
X787010Y123944D01*
X788210D01*
X789318Y124403D01*
X790167Y125251D01*
X790626Y126360D01*
Y127559D01*
X790167Y128668D01*
X789318Y129516D01*
X788210Y129976D01*
D02*
G37*
G36*
X875122Y128238D02*
X873922D01*
X872814Y127779D01*
X871965Y126930D01*
X871506Y125822D01*
Y124622D01*
X871965Y123514D01*
X872814Y122665D01*
X873922Y122206D01*
X875122D01*
X876230Y122665D01*
X877079Y123514D01*
X877538Y124622D01*
Y125822D01*
X877079Y126930D01*
X876230Y127779D01*
X875122Y128238D01*
D02*
G37*
G36*
Y117570D02*
X873922D01*
X872814Y117111D01*
X871965Y116262D01*
X871506Y115154D01*
Y113954D01*
X871965Y112846D01*
X872814Y111997D01*
X873922Y111538D01*
X875122D01*
X876230Y111997D01*
X877079Y112846D01*
X877538Y113954D01*
Y115154D01*
X877079Y116262D01*
X876230Y117111D01*
X875122Y117570D01*
D02*
G37*
G36*
X788254Y116808D02*
X787054D01*
X785946Y116349D01*
X785097Y115500D01*
X784638Y114392D01*
Y113192D01*
X785097Y112084D01*
X785946Y111235D01*
X787054Y110776D01*
X788254D01*
X789362Y111235D01*
X790211Y112084D01*
X790670Y113192D01*
Y114392D01*
X790211Y115500D01*
X789362Y116349D01*
X788254Y116808D01*
D02*
G37*
G36*
X778602Y110712D02*
X777402D01*
X776294Y110253D01*
X776038Y109997D01*
X775208Y109536D01*
X774378Y109997D01*
X774122Y110253D01*
X773014Y110712D01*
X771814D01*
X770706Y110253D01*
X769857Y109404D01*
X769398Y108296D01*
Y107096D01*
X769857Y105988D01*
X770706Y105139D01*
X771814Y104680D01*
X773014D01*
X774122Y105139D01*
X774378Y105395D01*
X775208Y105856D01*
X776038Y105395D01*
X776294Y105139D01*
X777402Y104680D01*
X778602D01*
X779710Y105139D01*
X780559Y105988D01*
X781018Y107096D01*
Y108296D01*
X780559Y109404D01*
X779710Y110253D01*
X778602Y110712D01*
D02*
G37*
G36*
X819100Y108680D02*
X817900D01*
X816792Y108221D01*
X815943Y107372D01*
X815484Y106264D01*
Y105064D01*
X815943Y103956D01*
X816792Y103107D01*
X817900Y102648D01*
X819100D01*
X820209Y103107D01*
X821057Y103956D01*
X821516Y105064D01*
Y106264D01*
X821057Y107372D01*
X820209Y108221D01*
X819100Y108680D01*
D02*
G37*
G36*
X830926Y108426D02*
X829726D01*
X828618Y107967D01*
X827769Y107118D01*
X827310Y106010D01*
Y104810D01*
X827769Y103702D01*
X828618Y102853D01*
X829726Y102394D01*
X830926D01*
X832035Y102853D01*
X832883Y103702D01*
X833342Y104810D01*
Y106010D01*
X832883Y107118D01*
X832035Y107967D01*
X830926Y108426D01*
D02*
G37*
G36*
X237125Y85513D02*
X235925D01*
X234816Y85054D01*
X234560Y84798D01*
X233731Y84338D01*
X232901Y84798D01*
X232645Y85054D01*
X231537Y85513D01*
X230337D01*
X229228Y85054D01*
X228972Y84798D01*
X228143Y84338D01*
X227313Y84798D01*
X227057Y85054D01*
X225949Y85513D01*
X224749D01*
X223640Y85054D01*
X222792Y84206D01*
X222332Y83097D01*
Y81898D01*
X222792Y80789D01*
X223640Y79941D01*
X224749Y79482D01*
X225949D01*
X227057Y79941D01*
X227313Y80197D01*
X228143Y80657D01*
X228972Y80197D01*
X229228Y79941D01*
X230337Y79482D01*
X231537D01*
X232645Y79941D01*
X232901Y80197D01*
X233731Y80657D01*
X234560Y80197D01*
X234816Y79941D01*
X235925Y79482D01*
X237125D01*
X238233Y79941D01*
X239081Y80789D01*
X239541Y81898D01*
Y83097D01*
X239081Y84206D01*
X238233Y85054D01*
X237125Y85513D01*
D02*
G37*
G36*
X490535Y91802D02*
X488688D01*
X486903Y91323D01*
X485304Y90400D01*
X483997Y89094D01*
X483074Y87494D01*
X482596Y85709D01*
Y83862D01*
X483074Y82078D01*
X483997Y80478D01*
X485304Y79171D01*
X486903Y78248D01*
X488688Y77770D01*
X490535D01*
X492320Y78248D01*
X493919Y79171D01*
X495226Y80478D01*
X496149Y82078D01*
X496628Y83862D01*
Y85709D01*
X496149Y87494D01*
X495226Y89094D01*
X493919Y90400D01*
X492320Y91323D01*
X490535Y91802D01*
D02*
G37*
%LPD*%
G36*
X168402Y648716D02*
Y614934D01*
X161798Y608330D01*
X128524D01*
X127984Y607790D01*
X126714Y608316D01*
Y608676D01*
X126255Y609784D01*
X125407Y610633D01*
X124298Y611092D01*
X123098D01*
X121990Y610633D01*
X121141Y609784D01*
X120682Y608676D01*
Y607476D01*
X121141Y606368D01*
X121990Y605519D01*
X123098Y605060D01*
X123458D01*
X123984Y603790D01*
X111252Y591058D01*
Y501262D01*
X111030Y500726D01*
Y499526D01*
X111252Y498990D01*
Y495674D01*
X111030Y495138D01*
Y493938D01*
X111252Y493402D01*
Y489578D01*
X111030Y489042D01*
Y487842D01*
X111252Y487306D01*
Y483740D01*
X111164Y483528D01*
Y482328D01*
X111252Y482116D01*
Y428752D01*
X157480Y382524D01*
X162306Y377698D01*
X162306Y341376D01*
X157734Y336804D01*
X111252Y290322D01*
Y124968D01*
X140208Y96012D01*
X158750Y96012D01*
X164084Y90678D01*
X164084Y60706D01*
X160274Y56896D01*
X31242Y56896D01*
X17780Y70358D01*
Y109728D01*
X40386Y132334D01*
X60452Y152400D01*
Y635762D01*
X81280Y656590D01*
X160528D01*
X168402Y648716D01*
D02*
G37*
%LPC*%
G36*
X110535Y653964D02*
X108688D01*
X106903Y653485D01*
X105304Y652562D01*
X103997Y651255D01*
X103074Y649656D01*
X102596Y647871D01*
Y646024D01*
X103074Y644240D01*
X103997Y642640D01*
X105304Y641333D01*
X106903Y640410D01*
X108688Y639932D01*
X110535D01*
X112320Y640410D01*
X113919Y641333D01*
X115226Y642640D01*
X116150Y644240D01*
X116628Y646024D01*
Y647871D01*
X116150Y649656D01*
X115226Y651255D01*
X113919Y652562D01*
X112320Y653485D01*
X110535Y653964D01*
D02*
G37*
G36*
Y373229D02*
X108688D01*
X106903Y372751D01*
X105304Y371827D01*
X103997Y370521D01*
X103074Y368921D01*
X102596Y367136D01*
Y365289D01*
X103074Y363504D01*
X103997Y361905D01*
X105304Y360598D01*
X106903Y359675D01*
X108688Y359197D01*
X110535D01*
X112320Y359675D01*
X113919Y360598D01*
X115226Y361905D01*
X116150Y363504D01*
X116628Y365289D01*
Y367136D01*
X116150Y368921D01*
X115226Y370521D01*
X113919Y371827D01*
X112320Y372751D01*
X110535Y373229D01*
D02*
G37*
G36*
X97882Y262096D02*
X96682D01*
X95574Y261637D01*
X95288Y261351D01*
X94599Y260853D01*
X93628Y261351D01*
X93476Y261503D01*
X92368Y261962D01*
X91168D01*
X90060Y261503D01*
X89489Y260932D01*
X88720Y260763D01*
X87951Y260932D01*
X87381Y261503D01*
X86272Y261962D01*
X85072D01*
X83964Y261503D01*
X83708Y261247D01*
X82878Y260786D01*
X82048Y261247D01*
X81792Y261503D01*
X80684Y261962D01*
X79484D01*
X78376Y261503D01*
X77527Y260654D01*
X77068Y259546D01*
Y258346D01*
X77527Y257237D01*
X78376Y256389D01*
X79484Y255930D01*
X80684D01*
X81792Y256389D01*
X82048Y256645D01*
X82878Y257106D01*
X83708Y256645D01*
X83964Y256389D01*
X85072Y255930D01*
X86272D01*
X87381Y256389D01*
X87951Y256960D01*
X88720Y257129D01*
X89489Y256960D01*
X90060Y256389D01*
X91168Y255930D01*
X92368D01*
X93476Y256389D01*
X93762Y256675D01*
X94451Y257173D01*
X95422Y256675D01*
X95574Y256523D01*
X96682Y256064D01*
X97882D01*
X98990Y256523D01*
X99839Y257372D01*
X100298Y258480D01*
Y259680D01*
X99839Y260788D01*
X98990Y261637D01*
X97882Y262096D01*
D02*
G37*
G36*
X97374Y239744D02*
X96174D01*
X95066Y239285D01*
X94780Y238999D01*
X94091Y238501D01*
X93120Y238999D01*
X92969Y239151D01*
X91860Y239610D01*
X90660D01*
X89552Y239151D01*
X88981Y238580D01*
X88212Y238411D01*
X87444Y238580D01*
X86873Y239151D01*
X85764Y239610D01*
X84564D01*
X83456Y239151D01*
X83200Y238895D01*
X82370Y238434D01*
X81540Y238895D01*
X81285Y239151D01*
X80176Y239610D01*
X78976D01*
X77868Y239151D01*
X77019Y238302D01*
X76560Y237194D01*
Y235994D01*
X77019Y234886D01*
X77868Y234037D01*
X78976Y233578D01*
X80176D01*
X81285Y234037D01*
X81540Y234293D01*
X82370Y234754D01*
X83200Y234293D01*
X83456Y234037D01*
X84564Y233578D01*
X85764D01*
X86873Y234037D01*
X87444Y234608D01*
X88212Y234777D01*
X88981Y234608D01*
X89552Y234037D01*
X90660Y233578D01*
X91860D01*
X92969Y234037D01*
X93254Y234323D01*
X93943Y234821D01*
X94914Y234323D01*
X95066Y234171D01*
X96174Y233712D01*
X97374D01*
X98482Y234171D01*
X99331Y235020D01*
X99790Y236128D01*
Y237328D01*
X99331Y238436D01*
X98482Y239285D01*
X97374Y239744D01*
D02*
G37*
G36*
X49368Y123920D02*
X48168D01*
X47060Y123461D01*
X46931Y123332D01*
X46101Y122697D01*
X45271Y123332D01*
X45142Y123461D01*
X44034Y123920D01*
X42834D01*
X41726Y123461D01*
X40877Y122612D01*
X40418Y121504D01*
Y120304D01*
X40877Y119196D01*
X41006Y119067D01*
X41641Y118237D01*
X41006Y117407D01*
X40877Y117278D01*
X40418Y116170D01*
Y114970D01*
X40877Y113862D01*
X41726Y113013D01*
X42834Y112554D01*
X44034D01*
X45142Y113013D01*
X45271Y113142D01*
X46101Y113777D01*
X46931Y113142D01*
X47060Y113013D01*
X48168Y112554D01*
X49368D01*
X50476Y113013D01*
X51325Y113862D01*
X51784Y114970D01*
Y116170D01*
X51325Y117278D01*
X51196Y117407D01*
X50561Y118237D01*
X51196Y119067D01*
X51325Y119196D01*
X51784Y120304D01*
Y121504D01*
X51325Y122612D01*
X50476Y123461D01*
X49368Y123920D01*
D02*
G37*
G36*
X110535Y91802D02*
X108688D01*
X106903Y91323D01*
X105304Y90400D01*
X103997Y89094D01*
X103074Y87494D01*
X102596Y85709D01*
Y83862D01*
X103074Y82078D01*
X103997Y80478D01*
X105304Y79171D01*
X106903Y78248D01*
X108688Y77770D01*
X110535D01*
X112320Y78248D01*
X113919Y79171D01*
X115226Y80478D01*
X116150Y82078D01*
X116628Y83862D01*
Y85709D01*
X116150Y87494D01*
X115226Y89094D01*
X113919Y90400D01*
X112320Y91323D01*
X110535Y91802D01*
D02*
G37*
%LPD*%
D10*
X395224Y617474D02*
X410718Y601980D01*
X692658D01*
X729742Y564896D01*
X824883D01*
X830484Y559295D01*
D85*
X852121Y695547D02*
X875030D01*
X846852Y690278D02*
X852121Y695547D01*
X846582Y690278D02*
X846852D01*
D86*
X486664Y678688D02*
X574508D01*
X668414Y674840D02*
X685343Y691769D01*
X578356Y674840D02*
X668414D01*
X574508Y678688D02*
X578356Y674840D01*
X479203Y671227D02*
X486664Y678688D01*
X428244Y692912D02*
X449929Y671227D01*
X479203D01*
X320280Y692912D02*
X428244D01*
X307340Y679972D02*
X320280Y692912D01*
X287998Y677578D02*
X290392Y679972D01*
X294570D01*
X300698Y677578D02*
X304895D01*
X307289Y679972D01*
X300662Y677541D02*
X300698Y677578D01*
X307289Y679972D02*
X307340D01*
X294607Y679935D02*
X298216D01*
X300610Y677541D01*
X300662D01*
X294570Y679972D02*
X294607Y679935D01*
D97*
X685343Y691769D02*
D03*
X710336D02*
D03*
X730352D02*
D03*
X755345D02*
D03*
X680339Y706755D02*
D03*
X700354D02*
D03*
X720344D02*
D03*
X740334D02*
D03*
X760349D02*
D03*
D98*
X784352Y692760D02*
D03*
X656336D02*
D03*
D99*
X54708Y713848D02*
D03*
D100*
X76708Y688848D02*
D03*
D101*
X104708Y736348D02*
D03*
D102*
X882306Y716913D02*
D03*
X839306D02*
D03*
Y668912D02*
D03*
X882306D02*
D03*
D103*
X109612Y84786D02*
D03*
X489612D02*
D03*
X109612Y646948D02*
D03*
X489612D02*
D03*
X109612Y366213D02*
D03*
X489612D02*
D03*
D104*
X761040Y532384D02*
D03*
X761046Y147998D02*
D03*
X760476Y339344D02*
D03*
X463979Y609896D02*
D03*
X488696D02*
D03*
X460009Y636556D02*
D03*
X424434Y646430D02*
D03*
X428752Y642620D02*
D03*
X436742Y626461D02*
D03*
X875030Y690277D02*
D03*
X846582Y695548D02*
D03*
X446190Y686982D02*
D03*
X875030Y695547D02*
D03*
X846582Y690278D02*
D03*
X449917Y690709D02*
D03*
X590296Y691896D02*
D03*
X525526Y688594D02*
D03*
X579120Y681482D02*
D03*
X593344Y683260D02*
D03*
X895604Y707136D02*
D03*
X888699Y677418D02*
D03*
X887984Y692912D02*
D03*
X883288Y688988D02*
D03*
X831873Y674878D02*
D03*
X832612Y708406D02*
D03*
X837946Y689610D02*
D03*
X841300Y694711D02*
D03*
X418590Y398397D02*
D03*
X419584Y116435D02*
D03*
X473643Y683955D02*
D03*
X469917Y680229D02*
D03*
X448063Y722832D02*
D03*
X440494Y715418D02*
D03*
X239014Y649478D02*
D03*
X239268Y644398D02*
D03*
X218440Y643890D02*
D03*
X842764Y331604D02*
D03*
X892540Y702367D02*
D03*
X888814Y698641D02*
D03*
X188602Y337640D02*
D03*
Y325956D02*
D03*
Y331544D02*
D03*
X270898Y337386D02*
D03*
Y325702D02*
D03*
Y331290D02*
D03*
X256391Y364661D02*
D03*
X180191D02*
D03*
X205591D02*
D03*
X269091D02*
D03*
X230937Y363924D02*
D03*
X225348D02*
D03*
X236525D02*
D03*
X160324D02*
D03*
X154736D02*
D03*
X149149D02*
D03*
X615527Y717109D02*
D03*
X612104Y734943D02*
D03*
X788670Y176022D02*
D03*
X395224Y617474D02*
D03*
X11176Y724154D02*
D03*
X121859Y427482D02*
D03*
X117094D02*
D03*
X37084Y422402D02*
D03*
X41942Y422337D02*
D03*
X822484Y559295D02*
D03*
X822198Y571500D02*
D03*
X798100Y560292D02*
D03*
X810198Y571500D02*
D03*
X794512Y624078D02*
D03*
X795020Y611632D02*
D03*
X742188Y598932D02*
D03*
X751332Y585978D02*
D03*
X251460Y664496D02*
D03*
X263652Y664495D02*
D03*
X205591Y645396D02*
D03*
X180191D02*
D03*
X269091Y83234D02*
D03*
X256391D02*
D03*
X205591D02*
D03*
X180191D02*
D03*
X459232Y116337D02*
D03*
X383032D02*
D03*
X464820Y665988D02*
D03*
X421132Y678499D02*
D03*
X383032D02*
D03*
X459232Y397764D02*
D03*
X383032D02*
D03*
X307340Y679972D02*
D03*
X294570D02*
D03*
X287962Y677541D02*
D03*
X300662D02*
D03*
X328168Y665734D02*
D03*
X328034Y677344D02*
D03*
Y682932D02*
D03*
Y671248D02*
D03*
X328168Y746252D02*
D03*
X328034Y734642D02*
D03*
Y729054D02*
D03*
Y740738D02*
D03*
Y606732D02*
D03*
Y618416D02*
D03*
Y612828D02*
D03*
X328168Y601218D02*
D03*
X243518Y748216D02*
D03*
X242058Y719578D02*
D03*
X242388Y628364D02*
D03*
X253170Y599254D02*
D03*
X76454Y515620D02*
D03*
X76320Y527230D02*
D03*
Y532818D02*
D03*
Y521134D02*
D03*
X81026Y515620D02*
D03*
X80892Y527230D02*
D03*
Y532818D02*
D03*
Y521134D02*
D03*
X830484Y559295D02*
D03*
X20574Y462788D02*
D03*
X833882Y680466D02*
D03*
X837608Y684193D02*
D03*
X848868Y733298D02*
D03*
X839216D02*
D03*
X829739Y730242D02*
D03*
X792480Y656082D02*
D03*
X798576D02*
D03*
X887730Y74676D02*
D03*
X879838Y83838D02*
D03*
X854538Y95676D02*
D03*
X862838Y104648D02*
D03*
X812800Y143002D02*
D03*
X824256Y144006D02*
D03*
X834136Y144526D02*
D03*
X837692Y159512D02*
D03*
X825500Y159766D02*
D03*
X811530Y160782D02*
D03*
X812038Y330962D02*
D03*
X832104Y330200D02*
D03*
X825246Y342900D02*
D03*
X831088Y350266D02*
D03*
X819912Y351536D02*
D03*
X809498Y353314D02*
D03*
X810514Y520446D02*
D03*
X816102Y536702D02*
D03*
X838498Y541293D02*
D03*
X831088Y546608D02*
D03*
X831850Y527558D02*
D03*
X513588Y659384D02*
D03*
X516128Y651002D02*
D03*
X522986Y658622D02*
D03*
X510032Y667766D02*
D03*
X502920Y650748D02*
D03*
X490220Y657352D02*
D03*
X499618Y671068D02*
D03*
X519684Y670052D02*
D03*
X508254Y704596D02*
D03*
X532892Y670814D02*
D03*
X484124Y668528D02*
D03*
X43434Y95904D02*
D03*
X48768Y90570D02*
D03*
Y95904D02*
D03*
X43434Y90570D02*
D03*
Y115570D02*
D03*
X48768Y120904D02*
D03*
Y115570D02*
D03*
X43434Y120904D02*
D03*
X97282Y259080D02*
D03*
X85672Y258946D02*
D03*
X80084D02*
D03*
X91768D02*
D03*
X96774Y236728D02*
D03*
X85164Y236594D02*
D03*
X79576D02*
D03*
X91260D02*
D03*
X54356Y236982D02*
D03*
X42746Y236848D02*
D03*
X37158D02*
D03*
X48842D02*
D03*
X34036Y477520D02*
D03*
X33902Y489130D02*
D03*
Y494718D02*
D03*
Y483034D02*
D03*
X114046Y488442D02*
D03*
Y500126D02*
D03*
Y494538D02*
D03*
X114180Y482928D02*
D03*
X16256Y432054D02*
D03*
X236525Y82498D02*
D03*
X230937D02*
D03*
X225348D02*
D03*
X160324D02*
D03*
X154736D02*
D03*
X149149D02*
D03*
X160324Y644660D02*
D03*
X154736D02*
D03*
X149149D02*
D03*
X123698Y608076D02*
D03*
X525780Y729996D02*
D03*
X554605Y708080D02*
D03*
X568248Y669349D02*
D03*
X574294Y669290D02*
D03*
X303031Y735823D02*
D03*
X308365Y741157D02*
D03*
Y735823D02*
D03*
X303031Y741157D02*
D03*
X308601Y606313D02*
D03*
X303267Y611647D02*
D03*
X308601D02*
D03*
X846074Y322233D02*
D03*
Y327503D02*
D03*
X462788Y716788D02*
D03*
X414754Y747947D02*
D03*
X407424Y739394D02*
D03*
X397764Y726948D02*
D03*
X389744Y718226D02*
D03*
X433299Y743640D02*
D03*
X424424Y713994D02*
D03*
X458724Y705612D02*
D03*
X439166Y693420D02*
D03*
X433446Y706895D02*
D03*
X425906Y699053D02*
D03*
X553102Y614238D02*
D03*
X541185Y609896D02*
D03*
X563980Y622662D02*
D03*
X571759Y631806D02*
D03*
X580674Y639076D02*
D03*
X589727Y707381D02*
D03*
X891794Y532479D02*
D03*
Y527209D02*
D03*
X536827Y740408D02*
D03*
X550041Y735476D02*
D03*
X561910Y714818D02*
D03*
X557863Y727719D02*
D03*
X481584Y595856D02*
D03*
X526288Y597154D02*
D03*
X536956Y595630D02*
D03*
X528587Y622559D02*
D03*
X540512Y626872D02*
D03*
X548334Y636576D02*
D03*
X558546Y643636D02*
D03*
X566420Y652272D02*
D03*
X544169Y714349D02*
D03*
X537178Y723005D02*
D03*
X521326Y750198D02*
D03*
X489204Y745744D02*
D03*
X486156Y735076D02*
D03*
X453204Y741358D02*
D03*
X598848Y715572D02*
D03*
X610530Y723192D02*
D03*
X300662Y646354D02*
D03*
X263144Y682752D02*
D03*
X480509Y695892D02*
D03*
X480314Y690626D02*
D03*
X483881Y700535D02*
D03*
X474460Y689577D02*
D03*
X464566Y676402D02*
D03*
X846586Y684800D02*
D03*
X875030Y700817D02*
D03*
X879348Y683514D02*
D03*
X883074Y679788D02*
D03*
X854710Y597154D02*
D03*
X833628D02*
D03*
X844296D02*
D03*
X840148Y699854D02*
D03*
X836422Y703580D02*
D03*
X860806Y705411D02*
D03*
Y680413D02*
D03*
X846074Y549273D02*
D03*
Y554543D02*
D03*
Y515273D02*
D03*
Y520543D02*
D03*
Y361503D02*
D03*
Y356233D02*
D03*
X891794Y339439D02*
D03*
Y334169D02*
D03*
Y148685D02*
D03*
Y143415D02*
D03*
X846074Y136749D02*
D03*
Y131479D02*
D03*
Y165479D02*
D03*
Y170749D02*
D03*
X776986Y558038D02*
D03*
X777240Y532130D02*
D03*
X773938Y525780D02*
D03*
X830326Y571754D02*
D03*
X827604Y583855D02*
D03*
X797560Y583946D02*
D03*
X770382Y298958D02*
D03*
X776478Y299212D02*
D03*
X778002Y107696D02*
D03*
X772414D02*
D03*
X750824Y624332D02*
D03*
X799098Y551908D02*
D03*
X872362Y458470D02*
D03*
X879862Y467868D02*
D03*
X854284Y479470D02*
D03*
X870032D02*
D03*
X735838Y486918D02*
D03*
X742134Y479901D02*
D03*
X771350Y474743D02*
D03*
X776224Y470408D02*
D03*
X812546Y404876D02*
D03*
X822706D02*
D03*
X854710D02*
D03*
X844042D02*
D03*
X833628D02*
D03*
X888746Y363474D02*
D03*
X888492Y352806D02*
D03*
X888238Y309880D02*
D03*
Y320802D02*
D03*
X870314Y286430D02*
D03*
X854284D02*
D03*
X879838Y274084D02*
D03*
X872362Y265430D02*
D03*
X799181Y358823D02*
D03*
X771288Y281830D02*
D03*
X742009Y287710D02*
D03*
X736092Y293878D02*
D03*
X742188Y96266D02*
D03*
X735584Y103124D02*
D03*
X811276Y224282D02*
D03*
X812292Y214122D02*
D03*
X822960D02*
D03*
X833628D02*
D03*
X844296D02*
D03*
X854964D02*
D03*
X827935Y203962D02*
D03*
X823304Y189836D02*
D03*
X786638Y307086D02*
D03*
X756412Y552450D02*
D03*
X769620Y482600D02*
D03*
X769366Y487934D02*
D03*
X743458Y240538D02*
D03*
X764794Y179324D02*
D03*
X783590Y173314D02*
D03*
X780796Y144018D02*
D03*
X773938Y142566D02*
D03*
X806268Y199970D02*
D03*
X787654Y113792D02*
D03*
Y136398D02*
D03*
X787610Y126959D02*
D03*
X786366Y326900D02*
D03*
X830326Y105410D02*
D03*
X818500Y105664D02*
D03*
X874522Y114554D02*
D03*
Y125222D02*
D03*
X874480Y157408D02*
D03*
X862584Y168148D02*
D03*
X848940Y199970D02*
D03*
X830834Y191008D02*
D03*
X813597Y194056D02*
D03*
X752813Y168864D02*
D03*
X818134Y295910D02*
D03*
X830468Y296306D02*
D03*
X786638Y318516D02*
D03*
X778654Y327660D02*
D03*
X785828Y364449D02*
D03*
X752856Y358648D02*
D03*
X811458Y415726D02*
D03*
X842530Y126410D02*
D03*
X842518Y141478D02*
D03*
X842530Y317164D02*
D03*
X874522Y305054D02*
D03*
Y315976D02*
D03*
X874628Y348310D02*
D03*
X862671Y358868D02*
D03*
X833628Y382778D02*
D03*
X827604Y390724D02*
D03*
X848903D02*
D03*
X806268Y390724D02*
D03*
X743966Y215392D02*
D03*
Y202438D02*
D03*
X806436Y186896D02*
D03*
X793750Y227584D02*
D03*
Y240538D02*
D03*
X810198Y381340D02*
D03*
X823339Y380832D02*
D03*
X818770Y378206D02*
D03*
X796036Y500380D02*
D03*
X787400Y500634D02*
D03*
X787542Y511048D02*
D03*
X818388Y489966D02*
D03*
X830580Y489712D02*
D03*
X874244Y518486D02*
D03*
X874268Y508000D02*
D03*
Y541202D02*
D03*
X861314Y552450D02*
D03*
X848940Y583764D02*
D03*
X895096Y137414D02*
D03*
Y154686D02*
D03*
Y345440D02*
D03*
Y328168D02*
D03*
Y521208D02*
D03*
Y538480D02*
D03*
X842518Y525272D02*
D03*
X842530Y510204D02*
D03*
X830580Y469900D02*
D03*
X818896D02*
D03*
X758698Y558038D02*
D03*
X759968Y547116D02*
D03*
X759460Y163322D02*
D03*
X776224Y87122D02*
D03*
X818896Y86360D02*
D03*
X830637Y86557D02*
D03*
X843534Y70104D02*
D03*
X848614Y103886D02*
D03*
X888746Y119380D02*
D03*
X887222Y130048D02*
D03*
X887984Y162052D02*
D03*
X888492Y172720D02*
D03*
X844622Y260930D02*
D03*
X848614Y288036D02*
D03*
X830637Y277057D02*
D03*
X818896Y278638D02*
D03*
X776224Y277876D02*
D03*
X770962Y339852D02*
D03*
X758698Y354584D02*
D03*
X758547Y364611D02*
D03*
X743458Y431038D02*
D03*
X818786Y187123D02*
D03*
X806389Y377698D02*
D03*
X793496Y416306D02*
D03*
X792988Y430276D02*
D03*
X744728Y393192D02*
D03*
X744220Y405892D02*
D03*
X888746Y556514D02*
D03*
X887984Y545846D02*
D03*
X888746Y502412D02*
D03*
X889000Y513334D02*
D03*
X842264Y453390D02*
D03*
X844042Y483616D02*
D03*
X800862Y519938D02*
D03*
X35814Y442468D02*
D03*
X51166Y419174D02*
D03*
X56339Y415083D02*
D03*
X40386Y448056D02*
D03*
M02*
