G04*
G04 #@! TF.GenerationSoftware,Altium Limited,Altium Designer,24.0.1 (36)*
G04*
G04 Layer_Color=128*
%FSLAX44Y44*%
%MOMM*%
G71*
G04*
G04 #@! TF.SameCoordinates,834C7623-C9C0-415B-A6F5-758E7DB2E3E9*
G04*
G04*
G04 #@! TF.FilePolarity,Positive*
G04*
G01*
G75*
%ADD23O,1.5000X0.5000*%
%ADD24R,1.5000X0.5000*%
%ADD28R,0.5000X0.5000*%
%ADD30R,0.5000X0.5000*%
%ADD31R,1.2700X0.8890*%
%ADD34R,1.2000X1.3000*%
%ADD36R,0.7500X0.8500*%
%ADD108R,2.0000X0.8500*%
%ADD109R,2.4000X2.8000*%
%ADD110O,0.2000X0.7000*%
%ADD111O,0.7000X0.2000*%
%ADD112R,3.3000X3.3000*%
%ADD116R,0.5650X0.2000*%
G04:AMPARAMS|DCode=118|XSize=1.27mm|YSize=0.889mm|CornerRadius=0mm|HoleSize=0mm|Usage=FLASHONLY|Rotation=180.000|XOffset=0mm|YOffset=0mm|HoleType=Round|Shape=Octagon|*
%AMOCTAGOND118*
4,1,8,-0.6350,0.2223,-0.6350,-0.2223,-0.4128,-0.4445,0.4128,-0.4445,0.6350,-0.2223,0.6350,0.2223,0.4128,0.4445,-0.4128,0.4445,-0.6350,0.2223,0.0*
%
%ADD118OCTAGOND118*%

%ADD119R,0.6000X2.9000*%
G36*
X826150Y727688D02*
X820500D01*
Y731288D01*
X826150D01*
Y727688D01*
D02*
G37*
G36*
X817800D02*
X812150D01*
Y731288D01*
X817800D01*
Y727688D01*
D02*
G37*
G36*
X594503Y710905D02*
X592503D01*
Y717906D01*
X594503D01*
Y710905D01*
D02*
G37*
G36*
X590503D02*
X588503D01*
Y717906D01*
X590503D01*
Y710905D01*
D02*
G37*
G36*
X586502D02*
X584502D01*
Y717906D01*
X586502D01*
Y710905D01*
D02*
G37*
G36*
X582501D02*
X580502D01*
Y717906D01*
X582501D01*
Y710905D01*
D02*
G37*
G36*
X574003Y709406D02*
X567002D01*
Y711405D01*
X574003D01*
Y709406D01*
D02*
G37*
G36*
X608002Y709404D02*
X601002D01*
Y711404D01*
X608002D01*
Y709404D01*
D02*
G37*
G36*
X574002Y705404D02*
X567002D01*
Y707403D01*
X574002D01*
Y705404D01*
D02*
G37*
G36*
X608002Y705403D02*
X601002D01*
Y707403D01*
X608002D01*
Y705403D01*
D02*
G37*
G36*
Y701405D02*
X601002D01*
Y703405D01*
X608002D01*
Y701405D01*
D02*
G37*
G36*
X574002Y701403D02*
X567002D01*
Y703403D01*
X574002D01*
Y701403D01*
D02*
G37*
G36*
Y697405D02*
X567002D01*
Y699405D01*
X574002D01*
Y697405D01*
D02*
G37*
G36*
X608002Y697404D02*
X601002D01*
Y699405D01*
X608002D01*
Y697404D01*
D02*
G37*
G36*
X574002Y693404D02*
X567002D01*
Y695405D01*
X574002D01*
Y693404D01*
D02*
G37*
G36*
X608002Y693404D02*
X601002D01*
Y695404D01*
X608002D01*
Y693404D01*
D02*
G37*
G36*
X574002Y689404D02*
X567002D01*
Y691404D01*
X574002D01*
Y689404D01*
D02*
G37*
G36*
X608002Y689404D02*
X601002D01*
Y691404D01*
X608002D01*
Y689404D01*
D02*
G37*
G36*
X574002Y685404D02*
X567002D01*
Y687403D01*
X574002D01*
Y685404D01*
D02*
G37*
G36*
X608002Y685403D02*
X601002D01*
Y687403D01*
X608002D01*
Y685403D01*
D02*
G37*
G36*
Y681405D02*
X601002D01*
Y683405D01*
X608002D01*
Y681405D01*
D02*
G37*
G36*
X574002Y681403D02*
X567002D01*
Y683403D01*
X574002D01*
Y681403D01*
D02*
G37*
G36*
X595502Y680404D02*
X579502D01*
Y704404D01*
X595502D01*
Y680404D01*
D02*
G37*
G36*
X574002Y677405D02*
X567002D01*
Y679405D01*
X574002D01*
Y677405D01*
D02*
G37*
G36*
X608002Y677404D02*
X601002D01*
Y679405D01*
X608002D01*
Y677404D01*
D02*
G37*
G36*
X574002Y673404D02*
X567002D01*
Y675405D01*
X574002D01*
Y673404D01*
D02*
G37*
G36*
X608002Y673402D02*
X601001D01*
Y675403D01*
X608002D01*
Y673402D01*
D02*
G37*
G36*
X594502Y666902D02*
X592503D01*
Y673903D01*
X594502D01*
Y666902D01*
D02*
G37*
G36*
X590502D02*
X588502D01*
Y673903D01*
X590502D01*
Y666902D01*
D02*
G37*
G36*
X586502D02*
X584501D01*
Y673903D01*
X586502D01*
Y666902D01*
D02*
G37*
G36*
X582501D02*
X580501D01*
Y673903D01*
X582501D01*
Y666902D01*
D02*
G37*
G36*
X826150Y654282D02*
X820500D01*
Y657882D01*
X826150D01*
Y654282D01*
D02*
G37*
G36*
X817800D02*
X812150D01*
Y657882D01*
X817800D01*
Y654282D01*
D02*
G37*
D23*
X734306Y598932D02*
D03*
Y611632D02*
D03*
Y624332D02*
D03*
X784306Y586232D02*
D03*
Y598932D02*
D03*
Y611632D02*
D03*
Y624332D02*
D03*
Y431292D02*
D03*
Y418592D02*
D03*
Y405892D02*
D03*
Y393192D02*
D03*
X734306Y431292D02*
D03*
Y418592D02*
D03*
Y405892D02*
D03*
X784306Y240538D02*
D03*
Y227838D02*
D03*
Y215138D02*
D03*
Y202438D02*
D03*
X734306Y240538D02*
D03*
Y227838D02*
D03*
Y215138D02*
D03*
D24*
Y586232D02*
D03*
Y393192D02*
D03*
Y202438D02*
D03*
D28*
X11176Y166692D02*
D03*
Y175192D02*
D03*
Y97468D02*
D03*
Y88968D02*
D03*
Y659502D02*
D03*
Y651002D02*
D03*
Y378900D02*
D03*
Y370400D02*
D03*
Y448124D02*
D03*
Y456624D02*
D03*
X593090Y739898D02*
D03*
Y731398D02*
D03*
X604012Y740117D02*
D03*
Y731116D02*
D03*
X571246Y731334D02*
D03*
Y739834D02*
D03*
X582168Y731334D02*
D03*
Y739834D02*
D03*
X581152Y651950D02*
D03*
Y643450D02*
D03*
X592328Y651950D02*
D03*
Y643450D02*
D03*
X801624Y390724D02*
D03*
Y399724D02*
D03*
X797560Y474870D02*
D03*
Y483870D02*
D03*
X812292Y208688D02*
D03*
Y200188D02*
D03*
X801624Y199970D02*
D03*
Y208970D02*
D03*
X822960Y199970D02*
D03*
Y208970D02*
D03*
X830637Y100076D02*
D03*
Y91076D02*
D03*
X833628Y199970D02*
D03*
Y208970D02*
D03*
X854964Y199970D02*
D03*
Y208970D02*
D03*
X844296Y199970D02*
D03*
Y208970D02*
D03*
X848614Y70176D02*
D03*
Y79176D02*
D03*
Y100004D02*
D03*
Y91004D02*
D03*
X797560D02*
D03*
Y100004D02*
D03*
X818896Y100076D02*
D03*
Y91076D02*
D03*
X786892Y99859D02*
D03*
Y91358D02*
D03*
X808228Y91004D02*
D03*
Y100004D02*
D03*
X776224D02*
D03*
Y91004D02*
D03*
X822960Y390724D02*
D03*
Y399724D02*
D03*
X833628Y390724D02*
D03*
Y399724D02*
D03*
X812292Y390942D02*
D03*
Y399442D02*
D03*
X844296Y390724D02*
D03*
Y399724D02*
D03*
X854964Y390724D02*
D03*
Y399724D02*
D03*
X830637Y290830D02*
D03*
Y281830D02*
D03*
X848614Y290758D02*
D03*
Y281758D02*
D03*
X797560Y281830D02*
D03*
Y290830D02*
D03*
X786892Y290613D02*
D03*
Y282113D02*
D03*
X808228Y281830D02*
D03*
Y290830D02*
D03*
X818896Y290830D02*
D03*
Y281830D02*
D03*
X776224Y290830D02*
D03*
Y281830D02*
D03*
X848614Y260930D02*
D03*
Y269930D02*
D03*
X833628Y583764D02*
D03*
Y592764D02*
D03*
X830637Y483870D02*
D03*
Y474870D02*
D03*
X844296Y583764D02*
D03*
Y592764D02*
D03*
X822960Y583764D02*
D03*
Y592764D02*
D03*
X818896Y483870D02*
D03*
Y474870D02*
D03*
X812292Y592482D02*
D03*
Y583982D02*
D03*
X801624Y583764D02*
D03*
Y592764D02*
D03*
X848614Y453970D02*
D03*
Y462970D02*
D03*
X854964Y583764D02*
D03*
Y592764D02*
D03*
X848614Y483798D02*
D03*
Y474798D02*
D03*
X808228Y474870D02*
D03*
Y483870D02*
D03*
X776224D02*
D03*
Y474870D02*
D03*
X786892Y483652D02*
D03*
Y475153D02*
D03*
X11176Y737294D02*
D03*
Y728794D02*
D03*
D30*
X811458Y219456D02*
D03*
X802458D02*
D03*
X765188Y307340D02*
D03*
X773688D02*
D03*
X765188Y318008D02*
D03*
X773688D02*
D03*
X773938Y328676D02*
D03*
X764938D02*
D03*
X547442Y58928D02*
D03*
X556442D02*
D03*
X547442Y69596D02*
D03*
X556442D02*
D03*
X764938Y137922D02*
D03*
X773938D02*
D03*
X773688Y127254D02*
D03*
X765188D02*
D03*
X773688Y116586D02*
D03*
X765188D02*
D03*
X773938Y173990D02*
D03*
X764938D02*
D03*
X773938Y163322D02*
D03*
X764938D02*
D03*
X773938Y148590D02*
D03*
X764938D02*
D03*
X874480Y162052D02*
D03*
X883480D02*
D03*
X874480Y151384D02*
D03*
X883480D02*
D03*
X874480Y130048D02*
D03*
X883480D02*
D03*
X874480Y172720D02*
D03*
X883480D02*
D03*
X874480Y119380D02*
D03*
X883480D02*
D03*
X874480Y140716D02*
D03*
X883480D02*
D03*
X874480Y363474D02*
D03*
X883480D02*
D03*
X874480Y331470D02*
D03*
X883480D02*
D03*
X874480Y352806D02*
D03*
X883480D02*
D03*
X874480Y320802D02*
D03*
X883480D02*
D03*
X773938Y364744D02*
D03*
X764938D02*
D03*
X773938Y354076D02*
D03*
X764938D02*
D03*
X773938Y339344D02*
D03*
X764938D02*
D03*
X874480Y342138D02*
D03*
X883480D02*
D03*
X874480Y310134D02*
D03*
X883480D02*
D03*
X802458Y410210D02*
D03*
X811458D02*
D03*
X773938Y547116D02*
D03*
X764938D02*
D03*
X773938Y557784D02*
D03*
X764938D02*
D03*
X802458Y603504D02*
D03*
X811458D02*
D03*
X874480Y556514D02*
D03*
X883480D02*
D03*
X773938Y532384D02*
D03*
X764938D02*
D03*
X874480Y513842D02*
D03*
X883480D02*
D03*
X874480Y545846D02*
D03*
X883480D02*
D03*
X874480Y503174D02*
D03*
X883480D02*
D03*
X764938Y521716D02*
D03*
X773938D02*
D03*
X773688Y511048D02*
D03*
X765188D02*
D03*
X874480Y524510D02*
D03*
X883480D02*
D03*
X874480Y535178D02*
D03*
X883480D02*
D03*
X773688Y500380D02*
D03*
X765188D02*
D03*
X455748Y328930D02*
D03*
X464748D02*
D03*
X455748Y318262D02*
D03*
X464748D02*
D03*
X443302Y610108D02*
D03*
X452302D02*
D03*
X443302Y599440D02*
D03*
X452302D02*
D03*
X552124Y691388D02*
D03*
X543124D02*
D03*
X552124Y702056D02*
D03*
X543124D02*
D03*
D31*
X26417Y454136D02*
D03*
Y734671D02*
D03*
X26416Y653415D02*
D03*
Y372880D02*
D03*
X26417Y172709D02*
D03*
X26416Y91453D02*
D03*
D34*
X879838Y95676D02*
D03*
Y74676D02*
D03*
X862838D02*
D03*
Y95676D02*
D03*
X879838Y286430D02*
D03*
Y265430D02*
D03*
X862838D02*
D03*
Y286430D02*
D03*
X879838Y479470D02*
D03*
Y458470D02*
D03*
X862838D02*
D03*
Y479470D02*
D03*
D36*
X742304Y103124D02*
D03*
X756804D02*
D03*
X742304Y293878D02*
D03*
X756804D02*
D03*
X742304Y486918D02*
D03*
X756804D02*
D03*
D108*
X747522Y511434D02*
D03*
Y527934D02*
D03*
X746785Y318394D02*
D03*
Y334894D02*
D03*
X747522Y127640D02*
D03*
Y144140D02*
D03*
D109*
X521512Y646948D02*
D03*
Y84786D02*
D03*
X82112D02*
D03*
Y646948D02*
D03*
X521512Y366213D02*
D03*
X82112D02*
D03*
D110*
X802484Y180114D02*
D03*
X806484D02*
D03*
X810484D02*
D03*
X814484D02*
D03*
X818484D02*
D03*
X822484D02*
D03*
X826484D02*
D03*
X830484D02*
D03*
X834484D02*
D03*
X838484D02*
D03*
X842484D02*
D03*
X846484D02*
D03*
Y120114D02*
D03*
X842484D02*
D03*
X838484D02*
D03*
X834484D02*
D03*
X830484D02*
D03*
X826484D02*
D03*
X822484D02*
D03*
X818484D02*
D03*
X814484D02*
D03*
X810484D02*
D03*
X806484D02*
D03*
X802484D02*
D03*
Y370868D02*
D03*
X806484D02*
D03*
X810484D02*
D03*
X814484D02*
D03*
X818484D02*
D03*
X822484D02*
D03*
X826484D02*
D03*
X830484D02*
D03*
X834484D02*
D03*
X838484D02*
D03*
X842484D02*
D03*
X846484D02*
D03*
Y310868D02*
D03*
X842484D02*
D03*
X838484D02*
D03*
X834484D02*
D03*
X830484D02*
D03*
X826484D02*
D03*
X822484D02*
D03*
X818484D02*
D03*
X814484D02*
D03*
X810484D02*
D03*
X806484D02*
D03*
X802484D02*
D03*
Y563908D02*
D03*
X806484D02*
D03*
X810484D02*
D03*
X814484D02*
D03*
X818484D02*
D03*
X822484D02*
D03*
X826484D02*
D03*
X830484D02*
D03*
X834484D02*
D03*
X838484D02*
D03*
X842484D02*
D03*
X846484D02*
D03*
Y503908D02*
D03*
X842484D02*
D03*
X838484D02*
D03*
X834484D02*
D03*
X830484D02*
D03*
X826484D02*
D03*
X822484D02*
D03*
X818484D02*
D03*
X814484D02*
D03*
X810484D02*
D03*
X806484D02*
D03*
X802484D02*
D03*
D111*
X854484Y172114D02*
D03*
Y168114D02*
D03*
Y164114D02*
D03*
Y160114D02*
D03*
Y156114D02*
D03*
Y152114D02*
D03*
Y148114D02*
D03*
Y144114D02*
D03*
Y140114D02*
D03*
Y136114D02*
D03*
Y132114D02*
D03*
Y128114D02*
D03*
X794484D02*
D03*
Y132114D02*
D03*
Y136114D02*
D03*
Y140114D02*
D03*
Y144114D02*
D03*
Y148114D02*
D03*
Y152114D02*
D03*
Y156114D02*
D03*
Y160114D02*
D03*
Y164114D02*
D03*
Y168114D02*
D03*
Y172114D02*
D03*
X854484Y362868D02*
D03*
Y358868D02*
D03*
Y354868D02*
D03*
Y350868D02*
D03*
Y346868D02*
D03*
Y342868D02*
D03*
Y338868D02*
D03*
Y334868D02*
D03*
Y330868D02*
D03*
Y326868D02*
D03*
Y322868D02*
D03*
Y318868D02*
D03*
X794484D02*
D03*
Y322868D02*
D03*
Y326868D02*
D03*
Y330868D02*
D03*
Y334868D02*
D03*
Y338868D02*
D03*
Y342868D02*
D03*
Y346868D02*
D03*
Y350868D02*
D03*
Y354868D02*
D03*
Y358868D02*
D03*
Y362868D02*
D03*
X854484Y555908D02*
D03*
Y551908D02*
D03*
Y547908D02*
D03*
Y543908D02*
D03*
Y539908D02*
D03*
Y535908D02*
D03*
Y531908D02*
D03*
Y527908D02*
D03*
Y523908D02*
D03*
Y519908D02*
D03*
Y515908D02*
D03*
Y511908D02*
D03*
X794484D02*
D03*
Y515908D02*
D03*
Y519908D02*
D03*
Y523908D02*
D03*
Y527908D02*
D03*
Y531908D02*
D03*
Y535908D02*
D03*
Y539908D02*
D03*
Y543908D02*
D03*
Y547908D02*
D03*
Y551908D02*
D03*
Y555908D02*
D03*
D112*
X824484Y150114D02*
D03*
Y340868D02*
D03*
Y533908D02*
D03*
D116*
X823325Y719488D02*
D03*
Y724488D02*
D03*
Y734488D02*
D03*
Y739488D02*
D03*
X814975D02*
D03*
Y734488D02*
D03*
Y724488D02*
D03*
Y719488D02*
D03*
X823325Y646082D02*
D03*
Y651082D02*
D03*
Y661082D02*
D03*
Y666082D02*
D03*
X814975D02*
D03*
Y661082D02*
D03*
Y651082D02*
D03*
Y646082D02*
D03*
D118*
X26417Y435136D02*
D03*
Y715671D02*
D03*
X26416Y672415D02*
D03*
Y391880D02*
D03*
X26417Y153709D02*
D03*
X26416Y110453D02*
D03*
D119*
X459412Y99786D02*
D03*
X446712D02*
D03*
X434012D02*
D03*
X421312D02*
D03*
X408612D02*
D03*
X395912D02*
D03*
X383212D02*
D03*
X319712D02*
D03*
X307012D02*
D03*
X294312D02*
D03*
X281612D02*
D03*
X268912D02*
D03*
X256212D02*
D03*
X243512D02*
D03*
X230812D02*
D03*
X218112D02*
D03*
X205412D02*
D03*
X192712D02*
D03*
X180012D02*
D03*
X167312D02*
D03*
X154612D02*
D03*
X141912D02*
D03*
X459412Y661948D02*
D03*
X446712D02*
D03*
X434012D02*
D03*
X421312D02*
D03*
X408612D02*
D03*
X395912D02*
D03*
X383212D02*
D03*
X319712D02*
D03*
X307012D02*
D03*
X294312D02*
D03*
X281612D02*
D03*
X268912D02*
D03*
X256212D02*
D03*
X243512D02*
D03*
X230812D02*
D03*
X218112D02*
D03*
X205412D02*
D03*
X192712D02*
D03*
X180012D02*
D03*
X167312D02*
D03*
X154612D02*
D03*
X141912D02*
D03*
X459412Y381213D02*
D03*
X446712D02*
D03*
X434012D02*
D03*
X421312D02*
D03*
X408612D02*
D03*
X395912D02*
D03*
X383212D02*
D03*
X319712D02*
D03*
X307012D02*
D03*
X294312D02*
D03*
X281612D02*
D03*
X268912D02*
D03*
X256212D02*
D03*
X243512D02*
D03*
X230812D02*
D03*
X218112D02*
D03*
X205412D02*
D03*
X192712D02*
D03*
X180012D02*
D03*
X167312D02*
D03*
X154612D02*
D03*
X141912D02*
D03*
M02*
