G04*
G04 #@! TF.GenerationSoftware,Altium Limited,Altium Designer,24.0.1 (36)*
G04*
G04 Layer_Color=16711935*
%FSLAX44Y44*%
%MOMM*%
G71*
G04*
G04 #@! TF.SameCoordinates,1E4A30F7-C8D5-4828-80FB-0036147C382C*
G04*
G04*
G04 #@! TF.FilePolarity,Negative*
G04*
G01*
G75*
%ADD46O,1.7032X0.7032*%
%ADD47R,1.7032X0.7032*%
%ADD52C,2.2700*%
%ADD55R,0.7032X0.7032*%
%ADD57R,0.7032X0.7032*%
%ADD58R,1.4732X1.0922*%
%ADD65R,1.4032X1.5032*%
%ADD67R,0.9532X1.0532*%
%ADD77C,1.4021*%
%ADD78C,3.2029*%
%ADD79R,2.0032X4.7032*%
%ADD80R,2.0032X4.2032*%
%ADD81R,5.2032X2.8032*%
%ADD82C,1.5032*%
%ADD83C,1.2032*%
%ADD120R,2.6032X3.0032*%
%ADD121R,1.8532X1.6032*%
%ADD122O,0.4032X0.9032*%
%ADD123O,0.9032X0.4032*%
%ADD124R,3.5032X3.5032*%
%ADD125R,0.9032X0.4032*%
%ADD126R,0.4032X0.9032*%
%ADD127R,2.2032X3.2032*%
G04:AMPARAMS|DCode=128|XSize=1.4732mm|YSize=1.0922mm|CornerRadius=0mm|HoleSize=0mm|Usage=FLASHONLY|Rotation=180.000|XOffset=0mm|YOffset=0mm|HoleType=Round|Shape=Octagon|*
%AMOCTAGOND128*
4,1,8,-0.7366,0.2731,-0.7366,-0.2731,-0.4636,-0.5461,0.4636,-0.5461,0.7366,-0.2731,0.7366,0.2731,0.4636,0.5461,-0.4636,0.5461,-0.7366,0.2731,0.0*
%
%ADD128OCTAGOND128*%

%ADD129R,0.8032X3.1032*%
G36*
X826850Y664382D02*
X819800D01*
Y667782D01*
X826850D01*
Y664382D01*
D02*
G37*
G36*
X818500D02*
X811450D01*
Y667782D01*
X818500D01*
Y664382D01*
D02*
G37*
G36*
X826850Y659382D02*
X819800D01*
Y662782D01*
X826850D01*
Y659382D01*
D02*
G37*
G36*
X818500D02*
X811450D01*
Y662782D01*
X818500D01*
Y659382D01*
D02*
G37*
G36*
X826850Y653382D02*
X819800D01*
Y658782D01*
X826850D01*
Y653382D01*
D02*
G37*
G36*
X818500D02*
X811450D01*
Y658782D01*
X818500D01*
Y653382D01*
D02*
G37*
G36*
X826850Y649382D02*
X819800D01*
Y652782D01*
X826850D01*
Y649382D01*
D02*
G37*
G36*
X818500D02*
X811450D01*
Y652782D01*
X818500D01*
Y649382D01*
D02*
G37*
G36*
X826850Y644382D02*
X819800D01*
Y647782D01*
X826850D01*
Y644382D01*
D02*
G37*
G36*
X818500D02*
X811450D01*
Y647782D01*
X818500D01*
Y644382D01*
D02*
G37*
G36*
X826850Y737788D02*
X819800D01*
Y741188D01*
X826850D01*
Y737788D01*
D02*
G37*
G36*
X818500D02*
X811450D01*
Y741188D01*
X818500D01*
Y737788D01*
D02*
G37*
G36*
X826850Y732788D02*
X819800D01*
Y736188D01*
X826850D01*
Y732788D01*
D02*
G37*
G36*
X818500D02*
X811450D01*
Y736188D01*
X818500D01*
Y732788D01*
D02*
G37*
G36*
X826850Y726788D02*
X819800D01*
Y732188D01*
X826850D01*
Y726788D01*
D02*
G37*
G36*
X818500D02*
X811450D01*
Y732188D01*
X818500D01*
Y726788D01*
D02*
G37*
G36*
X826850Y722788D02*
X819800D01*
Y726188D01*
X826850D01*
Y722788D01*
D02*
G37*
G36*
X818500D02*
X811450D01*
Y726188D01*
X818500D01*
Y722788D01*
D02*
G37*
G36*
X826850Y717788D02*
X819800D01*
Y721188D01*
X826850D01*
Y717788D01*
D02*
G37*
G36*
X818500D02*
X811450D01*
Y721188D01*
X818500D01*
Y717788D01*
D02*
G37*
D46*
X734306Y598932D02*
D03*
Y611632D02*
D03*
Y624332D02*
D03*
X784306Y586232D02*
D03*
Y598932D02*
D03*
Y611632D02*
D03*
Y624332D02*
D03*
Y431292D02*
D03*
Y418592D02*
D03*
Y405892D02*
D03*
Y393192D02*
D03*
X734306Y431292D02*
D03*
Y418592D02*
D03*
Y405892D02*
D03*
X784306Y240538D02*
D03*
Y227838D02*
D03*
Y215138D02*
D03*
Y202438D02*
D03*
X734306Y240538D02*
D03*
Y227838D02*
D03*
Y215138D02*
D03*
D47*
Y586232D02*
D03*
Y393192D02*
D03*
Y202438D02*
D03*
D52*
X53086Y677926D02*
D03*
X832358Y63500D02*
D03*
D55*
X11176Y166692D02*
D03*
Y175192D02*
D03*
Y97468D02*
D03*
Y88968D02*
D03*
Y659502D02*
D03*
Y651002D02*
D03*
Y378900D02*
D03*
Y370400D02*
D03*
Y448124D02*
D03*
Y456624D02*
D03*
X593090Y739898D02*
D03*
Y731398D02*
D03*
X604012Y740117D02*
D03*
Y731116D02*
D03*
X571246Y731334D02*
D03*
Y739834D02*
D03*
X582168Y731334D02*
D03*
Y739834D02*
D03*
X581152Y651950D02*
D03*
Y643450D02*
D03*
X592328Y651950D02*
D03*
Y643450D02*
D03*
X801624Y390724D02*
D03*
Y399724D02*
D03*
X797560Y474870D02*
D03*
Y483870D02*
D03*
X812292Y208688D02*
D03*
Y200188D02*
D03*
X801624Y199970D02*
D03*
Y208970D02*
D03*
X822960Y199970D02*
D03*
Y208970D02*
D03*
X830637Y100076D02*
D03*
Y91076D02*
D03*
X833628Y199970D02*
D03*
Y208970D02*
D03*
X854964Y199970D02*
D03*
Y208970D02*
D03*
X844296Y199970D02*
D03*
Y208970D02*
D03*
X848614Y70176D02*
D03*
Y79176D02*
D03*
Y100004D02*
D03*
Y91004D02*
D03*
X797560D02*
D03*
Y100004D02*
D03*
X818896Y100076D02*
D03*
Y91076D02*
D03*
X786892Y99859D02*
D03*
Y91358D02*
D03*
X808228Y91004D02*
D03*
Y100004D02*
D03*
X776224D02*
D03*
Y91004D02*
D03*
X822960Y390724D02*
D03*
Y399724D02*
D03*
X833628Y390724D02*
D03*
Y399724D02*
D03*
X812292Y390942D02*
D03*
Y399442D02*
D03*
X844296Y390724D02*
D03*
Y399724D02*
D03*
X854964Y390724D02*
D03*
Y399724D02*
D03*
X830637Y290830D02*
D03*
Y281830D02*
D03*
X848614Y290758D02*
D03*
Y281758D02*
D03*
X797560Y281830D02*
D03*
Y290830D02*
D03*
X786892Y290613D02*
D03*
Y282113D02*
D03*
X808228Y281830D02*
D03*
Y290830D02*
D03*
X818896Y290830D02*
D03*
Y281830D02*
D03*
X776224Y290830D02*
D03*
Y281830D02*
D03*
X848614Y260930D02*
D03*
Y269930D02*
D03*
X833628Y583764D02*
D03*
Y592764D02*
D03*
X830637Y483870D02*
D03*
Y474870D02*
D03*
X844296Y583764D02*
D03*
Y592764D02*
D03*
X822960Y583764D02*
D03*
Y592764D02*
D03*
X818896Y483870D02*
D03*
Y474870D02*
D03*
X812292Y592482D02*
D03*
Y583982D02*
D03*
X801624Y583764D02*
D03*
Y592764D02*
D03*
X848614Y453970D02*
D03*
Y462970D02*
D03*
X854964Y583764D02*
D03*
Y592764D02*
D03*
X848614Y483798D02*
D03*
Y474798D02*
D03*
X808228Y474870D02*
D03*
Y483870D02*
D03*
X776224D02*
D03*
Y474870D02*
D03*
X786892Y483652D02*
D03*
Y475153D02*
D03*
X11176Y737294D02*
D03*
Y728794D02*
D03*
D57*
X811458Y219456D02*
D03*
X802458D02*
D03*
X765188Y307340D02*
D03*
X773688D02*
D03*
X765188Y318008D02*
D03*
X773688D02*
D03*
X773938Y328676D02*
D03*
X764938D02*
D03*
X547442Y58928D02*
D03*
X556442D02*
D03*
X547442Y69596D02*
D03*
X556442D02*
D03*
X764938Y137922D02*
D03*
X773938D02*
D03*
X773688Y127254D02*
D03*
X765188D02*
D03*
X773688Y116586D02*
D03*
X765188D02*
D03*
X773938Y173990D02*
D03*
X764938D02*
D03*
X773938Y163322D02*
D03*
X764938D02*
D03*
X773938Y148590D02*
D03*
X764938D02*
D03*
X874480Y162052D02*
D03*
X883480D02*
D03*
X874480Y151384D02*
D03*
X883480D02*
D03*
X874480Y130048D02*
D03*
X883480D02*
D03*
X874480Y172720D02*
D03*
X883480D02*
D03*
X874480Y119380D02*
D03*
X883480D02*
D03*
X874480Y140716D02*
D03*
X883480D02*
D03*
X874480Y363474D02*
D03*
X883480D02*
D03*
X874480Y331470D02*
D03*
X883480D02*
D03*
X874480Y352806D02*
D03*
X883480D02*
D03*
X874480Y320802D02*
D03*
X883480D02*
D03*
X773938Y364744D02*
D03*
X764938D02*
D03*
X773938Y354076D02*
D03*
X764938D02*
D03*
X773938Y339344D02*
D03*
X764938D02*
D03*
X874480Y342138D02*
D03*
X883480D02*
D03*
X874480Y310134D02*
D03*
X883480D02*
D03*
X802458Y410210D02*
D03*
X811458D02*
D03*
X773938Y547116D02*
D03*
X764938D02*
D03*
X773938Y557784D02*
D03*
X764938D02*
D03*
X802458Y603504D02*
D03*
X811458D02*
D03*
X874480Y556514D02*
D03*
X883480D02*
D03*
X773938Y532384D02*
D03*
X764938D02*
D03*
X874480Y513842D02*
D03*
X883480D02*
D03*
X874480Y545846D02*
D03*
X883480D02*
D03*
X874480Y503174D02*
D03*
X883480D02*
D03*
X764938Y521716D02*
D03*
X773938D02*
D03*
X773688Y511048D02*
D03*
X765188D02*
D03*
X874480Y524510D02*
D03*
X883480D02*
D03*
X874480Y535178D02*
D03*
X883480D02*
D03*
X773688Y500380D02*
D03*
X765188D02*
D03*
X455748Y328930D02*
D03*
X464748D02*
D03*
X455748Y318262D02*
D03*
X464748D02*
D03*
X443302Y610108D02*
D03*
X452302D02*
D03*
X443302Y599440D02*
D03*
X452302D02*
D03*
X552124Y691388D02*
D03*
X543124D02*
D03*
X552124Y702056D02*
D03*
X543124D02*
D03*
D58*
X26417Y454136D02*
D03*
Y734671D02*
D03*
X26416Y653415D02*
D03*
Y372880D02*
D03*
X26417Y172709D02*
D03*
X26416Y91453D02*
D03*
D65*
X879838Y95676D02*
D03*
Y74676D02*
D03*
X862838D02*
D03*
Y95676D02*
D03*
X879838Y286430D02*
D03*
Y265430D02*
D03*
X862838D02*
D03*
Y286430D02*
D03*
X879838Y479470D02*
D03*
Y458470D02*
D03*
X862838D02*
D03*
Y479470D02*
D03*
D67*
X742304Y103124D02*
D03*
X756804D02*
D03*
X742304Y293878D02*
D03*
X756804D02*
D03*
X742304Y486918D02*
D03*
X756804D02*
D03*
D77*
X685343Y691769D02*
D03*
X710336D02*
D03*
X730352D02*
D03*
X755345D02*
D03*
X680339Y706755D02*
D03*
X700354D02*
D03*
X720344D02*
D03*
X740334D02*
D03*
X760349D02*
D03*
D78*
X784352Y692760D02*
D03*
X656336D02*
D03*
D79*
X54708Y713848D02*
D03*
D80*
X76708Y688848D02*
D03*
D81*
X104708Y736348D02*
D03*
D82*
X882306Y716913D02*
D03*
X839306D02*
D03*
Y668912D02*
D03*
X882306D02*
D03*
D83*
X109612Y84786D02*
D03*
X489612D02*
D03*
X109612Y646948D02*
D03*
X489612D02*
D03*
X109612Y366213D02*
D03*
X489612D02*
D03*
D120*
X521512Y646948D02*
D03*
Y84786D02*
D03*
X82112D02*
D03*
Y646948D02*
D03*
X521512Y366213D02*
D03*
X82112D02*
D03*
D121*
X747522Y149890D02*
D03*
Y121890D02*
D03*
X746785Y340644D02*
D03*
Y312644D02*
D03*
X747522Y533684D02*
D03*
Y505684D02*
D03*
D122*
X802484Y180114D02*
D03*
X806484D02*
D03*
X810484D02*
D03*
X814484D02*
D03*
X818484D02*
D03*
X822484D02*
D03*
X826484D02*
D03*
X830484D02*
D03*
X834484D02*
D03*
X838484D02*
D03*
X842484D02*
D03*
X846484D02*
D03*
Y120114D02*
D03*
X842484D02*
D03*
X838484D02*
D03*
X834484D02*
D03*
X830484D02*
D03*
X826484D02*
D03*
X822484D02*
D03*
X818484D02*
D03*
X814484D02*
D03*
X810484D02*
D03*
X806484D02*
D03*
X802484D02*
D03*
Y370868D02*
D03*
X806484D02*
D03*
X810484D02*
D03*
X814484D02*
D03*
X818484D02*
D03*
X822484D02*
D03*
X826484D02*
D03*
X830484D02*
D03*
X834484D02*
D03*
X838484D02*
D03*
X842484D02*
D03*
X846484D02*
D03*
Y310868D02*
D03*
X842484D02*
D03*
X838484D02*
D03*
X834484D02*
D03*
X830484D02*
D03*
X826484D02*
D03*
X822484D02*
D03*
X818484D02*
D03*
X814484D02*
D03*
X810484D02*
D03*
X806484D02*
D03*
X802484D02*
D03*
Y563908D02*
D03*
X806484D02*
D03*
X810484D02*
D03*
X814484D02*
D03*
X818484D02*
D03*
X822484D02*
D03*
X826484D02*
D03*
X830484D02*
D03*
X834484D02*
D03*
X838484D02*
D03*
X842484D02*
D03*
X846484D02*
D03*
Y503908D02*
D03*
X842484D02*
D03*
X838484D02*
D03*
X834484D02*
D03*
X830484D02*
D03*
X826484D02*
D03*
X822484D02*
D03*
X818484D02*
D03*
X814484D02*
D03*
X810484D02*
D03*
X806484D02*
D03*
X802484D02*
D03*
D123*
X854484Y172114D02*
D03*
Y168114D02*
D03*
Y164114D02*
D03*
Y160114D02*
D03*
Y156114D02*
D03*
Y152114D02*
D03*
Y148114D02*
D03*
Y144114D02*
D03*
Y140114D02*
D03*
Y136114D02*
D03*
Y132114D02*
D03*
Y128114D02*
D03*
X794484D02*
D03*
Y132114D02*
D03*
Y136114D02*
D03*
Y140114D02*
D03*
Y144114D02*
D03*
Y148114D02*
D03*
Y152114D02*
D03*
Y156114D02*
D03*
Y160114D02*
D03*
Y164114D02*
D03*
Y168114D02*
D03*
Y172114D02*
D03*
X854484Y362868D02*
D03*
Y358868D02*
D03*
Y354868D02*
D03*
Y350868D02*
D03*
Y346868D02*
D03*
Y342868D02*
D03*
Y338868D02*
D03*
Y334868D02*
D03*
Y330868D02*
D03*
Y326868D02*
D03*
Y322868D02*
D03*
Y318868D02*
D03*
X794484D02*
D03*
Y322868D02*
D03*
Y326868D02*
D03*
Y330868D02*
D03*
Y334868D02*
D03*
Y338868D02*
D03*
Y342868D02*
D03*
Y346868D02*
D03*
Y350868D02*
D03*
Y354868D02*
D03*
Y358868D02*
D03*
Y362868D02*
D03*
X854484Y555908D02*
D03*
Y551908D02*
D03*
Y547908D02*
D03*
Y543908D02*
D03*
Y539908D02*
D03*
Y535908D02*
D03*
Y531908D02*
D03*
Y527908D02*
D03*
Y523908D02*
D03*
Y519908D02*
D03*
Y515908D02*
D03*
Y511908D02*
D03*
X794484D02*
D03*
Y515908D02*
D03*
Y519908D02*
D03*
Y523908D02*
D03*
Y527908D02*
D03*
Y531908D02*
D03*
Y535908D02*
D03*
Y539908D02*
D03*
Y543908D02*
D03*
Y547908D02*
D03*
Y551908D02*
D03*
Y555908D02*
D03*
D124*
X824484Y150114D02*
D03*
Y340868D02*
D03*
Y533908D02*
D03*
D125*
X604502Y710402D02*
D03*
Y706402D02*
D03*
Y702404D02*
D03*
Y698403D02*
D03*
Y694403D02*
D03*
Y690403D02*
D03*
Y686402D02*
D03*
Y682404D02*
D03*
Y678403D02*
D03*
Y674403D02*
D03*
X570502Y674406D02*
D03*
Y678406D02*
D03*
Y682404D02*
D03*
Y686404D02*
D03*
Y690405D02*
D03*
Y694406D02*
D03*
Y698406D02*
D03*
Y702404D02*
D03*
Y706404D02*
D03*
Y710405D02*
D03*
D126*
X593502Y670403D02*
D03*
X589501D02*
D03*
X585500D02*
D03*
X581500D02*
D03*
X581502Y714406D02*
D03*
X585503D02*
D03*
X589504D02*
D03*
X593504D02*
D03*
D127*
X587502Y692404D02*
D03*
D128*
X26417Y435136D02*
D03*
Y715671D02*
D03*
X26416Y672415D02*
D03*
Y391880D02*
D03*
X26417Y153709D02*
D03*
X26416Y110453D02*
D03*
D129*
X459412Y99786D02*
D03*
X446712D02*
D03*
X434012D02*
D03*
X421312D02*
D03*
X408612D02*
D03*
X395912D02*
D03*
X383212D02*
D03*
X319712D02*
D03*
X307012D02*
D03*
X294312D02*
D03*
X281612D02*
D03*
X268912D02*
D03*
X256212D02*
D03*
X243512D02*
D03*
X230812D02*
D03*
X218112D02*
D03*
X205412D02*
D03*
X192712D02*
D03*
X180012D02*
D03*
X167312D02*
D03*
X154612D02*
D03*
X141912D02*
D03*
X459412Y661948D02*
D03*
X446712D02*
D03*
X434012D02*
D03*
X421312D02*
D03*
X408612D02*
D03*
X395912D02*
D03*
X383212D02*
D03*
X319712D02*
D03*
X307012D02*
D03*
X294312D02*
D03*
X281612D02*
D03*
X268912D02*
D03*
X256212D02*
D03*
X243512D02*
D03*
X230812D02*
D03*
X218112D02*
D03*
X205412D02*
D03*
X192712D02*
D03*
X180012D02*
D03*
X167312D02*
D03*
X154612D02*
D03*
X141912D02*
D03*
X459412Y381213D02*
D03*
X446712D02*
D03*
X434012D02*
D03*
X421312D02*
D03*
X408612D02*
D03*
X395912D02*
D03*
X383212D02*
D03*
X319712D02*
D03*
X307012D02*
D03*
X294312D02*
D03*
X281612D02*
D03*
X268912D02*
D03*
X256212D02*
D03*
X243512D02*
D03*
X230812D02*
D03*
X218112D02*
D03*
X205412D02*
D03*
X192712D02*
D03*
X180012D02*
D03*
X167312D02*
D03*
X154612D02*
D03*
X141912D02*
D03*
M02*
