M48
;Layer_Color=9474304
;FILE_FORMAT=4:4
METRIC,LZ
;TYPE=PLATED
T01F00S00C0.3000
T02F00S00C0.7000
T04F00S00C0.7010
T06F00S00C2.3089
;TYPE=NON_PLATED
T07F00S00C1.2000
%
T01
X00043434Y0009057
Y00095904
X00048768
Y0009057
Y0011557
X00043434
Y00120904
X00048768
X00048842Y00236848
X00054356Y00236982
X00042746Y00236848
X00037158
X00079576Y00236594
X00085164
X0009126
X00096774Y00236728
X00097282Y0025908
X00091768Y00258946
X00085672
X00080084
X00149149Y00363924
X00154736
X00160324
X00180191Y00364661
X00205591
X00225348Y00363924
X00230937
X00236525
X00256391Y00364661
X00269091
X00270898Y00337386
Y0033129
Y00325702
X00188602Y00325956
Y00331544
Y0033764
X00180191Y00083234
X00160324Y00082498
X00154736
X00149149
X00205591Y00083234
X00225348Y00082498
X00230937
X00236525
X00256391Y00083234
X00269091
X00383032Y00116337
X00419584Y00116435
X00459232Y00116337
X00735584Y00103124
X00742188Y00096266
X00772414Y00107696
X00778002
X00787654Y00113792
X0078761Y00126959
X00787654Y00136398
X00780796Y00144018
X00773938Y00142566
X00761046Y00147998
X0075946Y00163322
X00752813Y00168864
X00764794Y00179324
X0078359Y00173314
X0078867Y00176022
X00743966Y00202438
Y00215392
X00743458Y00240538
X00742009Y0028771
X00736092Y00293878
X00770382Y00298958
X00776478Y00299212
X00786638Y00307086
Y00318516
X00786366Y003269
X00778654Y0032766
X00770962Y00339852
X00760476Y00339344
X00758698Y00354584
X00752856Y00358648
X00758547Y00364611
X00785828Y00364449
X00744728Y00393192
X00771288Y0028183
X00776224Y00277876
Y00087122
X00818896Y0008636
X00830637Y00086557
X00830326Y0010541
X008185Y00105664
X00848614Y00103886
X00854538Y00095676
X00862838Y00104648
X00874522Y00114554
Y00125222
X00887222Y00130048
X00888746Y0011938
X00895096Y00137414
X00891794Y00143415
Y00148685
X00895096Y00154686
X00887984Y00162052
X00888492Y0017272
X0087448Y00157408
X00862584Y00168148
X00846074Y00170749
Y00165479
X00837692Y00159512
X008255Y00159766
X0081153Y00160782
X008128Y00143002
X00824256Y00144006
X00834136Y00144526
X00842518Y00141478
X00846074Y00136749
Y00131479
X0084253Y0012641
X00843534Y00070104
X0088773Y00074676
X00879838Y00083838
X0084894Y0019997
X00844296Y00214122
X00833628
X0082296
X00812292
X00811276Y00224282
X0079375Y00227584
Y00240538
X00806268Y0019997
X00806436Y00186896
X00818786Y00187123
X00823304Y00189836
X00830834Y00191008
X00827935Y00203962
X00813597Y00194056
X00854964Y00214122
X00844622Y0026093
X00830637Y00277057
X00818896Y00278638
X00818134Y0029591
X00830468Y00296306
X00848614Y00288036
X00854284Y0028643
X00870314
X00879838Y00274084
X00872362Y0026543
X00874522Y00305054
Y00315976
X00888238Y00320802
Y0030988
X00895096Y00328168
X00891794Y00334169
Y00339439
X00895096Y0034544
X00888492Y00352806
X00888746Y00363474
X00874628Y0034831
X00862671Y00358868
X00846074Y00361503
Y00356233
X00831088Y00350266
X00819912Y00351536
X00809498Y00353314
X00799181Y00358823
X00806389Y00377698
X00810198Y0038134
X0081877Y00378206
X00823339Y00380832
X00833628Y00382778
X00827604Y00390724
X00848903
X00806268Y00390724
X00812038Y00330962
X00832104Y003302
X00842764Y00331604
X00846074Y00327503
Y00322233
X0084253Y00317164
X00825246Y003429
X00822706Y00404876
X00812546
X00811458Y00415726
X00833628Y00404876
X00844042
X0085471
X00842264Y0045339
X0083058Y004699
X00818896
X00818388Y00489966
X0083058Y00489712
X00844042Y00483616
X00854284Y0047947
X00870032
X00879862Y00467868
X00872362Y0045847
X00874268Y00508
X00874244Y00518486
X00889Y00513334
X00888746Y00502412
X00895096Y00521208
X00891794Y00527209
Y00532479
X00895096Y0053848
X00887984Y00545846
X00888746Y00556514
X00874268Y00541202
X00861314Y0055245
X00846074Y00554543
Y00549273
X00838498Y00541293
X00831088Y00546608
X00830484Y00559295
X00822484Y00559295
X00822198Y005715
X00830326Y00571754
X00827604Y00583855
X00833628Y00597154
X00844296
X0085471
X0084894Y00583764
X00810198Y005715
X007981Y00560292
X00799098Y00551908
X00816102Y00536702
X00810514Y00520446
X00800862Y00519938
X00796036Y0050038
X0084253Y00510204
X00846074Y00515273
Y00520543
X00842518Y00525272
X0083185Y00527558
X0079756Y00583946
X0079502Y00611632
X00794512Y00624078
X00798576Y00656082
X00831873Y00674878
X00833882Y00680466
X00837608Y00684193
X00837946Y0068961
X008413Y00694711
X00846582Y00695548
Y00690278
X00846586Y006848
X00860806Y00680413
X00879348Y00683514
X00883074Y00679788
X00888699Y00677418
X00887984Y00692912
X00888814Y00698641
X0089254Y00702367
X00895604Y00707136
X0087503Y00700817
Y00695547
Y00690277
X00883288Y00688988
X00860806Y00705411
X00840148Y00699854
X00836422Y0070358
X00832612Y00708406
X00829739Y00730242
X00839216Y00733298
X00848868
X0079248Y00656082
X00750824Y00624332
X00742188Y00598932
X00751332Y00585978
X00758698Y00558038
X00756412Y0055245
X00759968Y00547116
X0076104Y00532384
X0077724Y0053213
X00773938Y0052578
X00787542Y00511048
X007874Y00500634
X00769366Y00487934
X0076962Y004826
X0077135Y00474743
X00776224Y00470408
X00742134Y00479901
X00735838Y00486918
X00743458Y00431038
X0074422Y00405892
X00793496Y00416306
X00792988Y00430276
X00776986Y00558038
X00580674Y00639076
X00571759Y00631806
X0056398Y00622662
X00553102Y00614238
X00541185Y00609896
X00540512Y00626872
X00528587Y00622559
X00526288Y00597154
X00536956Y0059563
X00548334Y00636576
X00558546Y00643636
X0056642Y00652272
X00568248Y00669349
X00574294Y0066929
X0057912Y00681482
X00593344Y0068326
X00590296Y00691896
X00589727Y00707381
X00598848Y00715572
X00615527Y00717109
X0061053Y00723192
X00612104Y00734943
X00557863Y00727719
X00550041Y00735476
X00536827Y00740408
X00537178Y00723005
X00544169Y00714349
X00554605Y0070808
X0056191Y00714818
X0052578Y00729996
X00521326Y00750198
X00489204Y00745744
X00486156Y00735076
X00483881Y00700535
X00480509Y00695892
X00480314Y00690626
X0047446Y00689577
X00473643Y00683955
X00469917Y00680229
X00464566Y00676402
X0046482Y00665988
X00484124Y00668528
X0049022Y00657352
X0050292Y00650748
X00516128Y00651002
X00513588Y00659384
X00522986Y00658622
X00519684Y00670052
X00510032Y00667766
X00499618Y00671068
X00532892Y00670814
X00525526Y00688594
X00508254Y00704596
X00458724Y00705612
X00462788Y00716788
X00448063Y00722832
X00440494Y00715418
X00433446Y00706895
X00425906Y00699053
X00424424Y00713994
X00439166Y0069342
X0044619Y00686982
X00449917Y00690709
X00421132Y00678499
X00424434Y0064643
X00428752Y0064262
X00436742Y00626461
X00460009Y00636556
X00463979Y00609896
X00488696
X00481584Y00595856
X00453204Y00741358
X00433299Y0074364
X00414754Y00747947
X00407424Y00739394
X00397764Y00726948
X0041859Y00398397
X00459232Y00397764
X00383032
X00395224Y00617474
X00328034Y00618416
Y00612828
Y00606732
X00328168Y00601218
X00308601Y00606313
Y00611647
X00303267
X00300662Y00646354
Y00677541
X0029457Y00679972
X00287962Y00677541
X0030734Y00679972
X00328034Y00677344
Y00682932
Y00671248
X00328168Y00665734
X00328034Y00729054
Y00734642
Y00740738
X00328168Y00746252
X00308365Y00741157
Y00735823
X00303031
Y00741157
X00243518Y00748216
X00242058Y00719578
X00263144Y00682752
X00263652Y00664495
X0025146Y00664496
X00239014Y00649478
X00239268Y00644398
X00242388Y00628364
X0021844Y0064389
X00205591Y00645396
X00180191
X00160324Y0064466
X00154736
X00149149
X00123698Y00608076
X00114046Y00500126
Y00494538
Y00488442
X0011418Y00482928
X00117094Y00427482
X00121859
X00056339Y00415083
X00051166Y00419174
X00041942Y00422337
X00037084Y00422402
X00035814Y00442468
X00040386Y00448056
X00020574Y00462788
X00034036Y0047752
X00033902Y00483034
Y0048913
Y00494718
X00076454Y0051562
X00081026
X00080892Y00521134
X0007632
Y0052723
X00080892
Y00532818
X0007632
X00016256Y00432054
X00011176Y00724154
X0025317Y00599254
X00383032Y00678499
X00389744Y00718226
T02
X00839306Y00668912
X00882306
Y00716913
X00839306
T04
X00685343Y00691769
X00680339Y00706755
X00700354
X00720344
X00740334
X00760349
X00755345Y00691769
X00730352
X00710336
T06
X00656336Y0069276
X00784352
T07
X00109612Y00084786
Y00366213
X00489612
Y00084786
Y00646948
X00109612
M30
