G04*
G04 #@! TF.GenerationSoftware,Altium Limited,Altium Designer,24.0.1 (36)*
G04*
G04 Layer_Physical_Order=1*
G04 Layer_Color=191*
%FSLAX44Y44*%
%MOMM*%
G71*
G04*
G04 #@! TF.SameCoordinates,83E8BF3D-B213-456F-A94E-7FD5B374DFB2*
G04*
G04*
G04 #@! TF.FilePolarity,Positive*
G04*
G01*
G75*
%ADD11C,0.2032*%
%ADD15C,0.2540*%
%ADD17C,0.1524*%
%ADD22R,0.4200X0.6600*%
%ADD23P,0.7071X4X270.0*%
%ADD24O,1.5000X0.5000*%
%ADD25R,1.5000X0.5000*%
%ADD26R,1.0000X2.7000*%
%ADD27O,1.0000X2.7000*%
%ADD28R,0.5000X0.5000*%
%ADD29R,0.4318X0.9779*%
%ADD30R,0.5000X0.5000*%
%ADD31R,1.2700X0.8890*%
%ADD32R,0.8890X1.2700*%
%ADD33P,0.7071X4X180.0*%
%ADD34R,1.2000X1.3000*%
%ADD35R,7.5000X2.2000*%
%ADD36R,0.7500X0.8500*%
G04:AMPARAMS|DCode=37|XSize=1.95mm|YSize=1.5mm|CornerRadius=0mm|HoleSize=0mm|Usage=FLASHONLY|Rotation=135.000|XOffset=0mm|YOffset=0mm|HoleType=Round|Shape=Rectangle|*
%AMROTATEDRECTD37*
4,1,4,1.2198,-0.1591,0.1591,-1.2198,-1.2198,0.1591,-0.1591,1.2198,1.2198,-0.1591,0.0*
%
%ADD37ROTATEDRECTD37*%

G04:AMPARAMS|DCode=38|XSize=0.8mm|YSize=2.5mm|CornerRadius=0mm|HoleSize=0mm|Usage=FLASHONLY|Rotation=225.000|XOffset=0mm|YOffset=0mm|HoleType=Round|Shape=Rectangle|*
%AMROTATEDRECTD38*
4,1,4,-0.6010,1.1667,1.1667,-0.6010,0.6010,-1.1667,-1.1667,0.6010,-0.6010,1.1667,0.0*
%
%ADD38ROTATEDRECTD38*%

%ADD39R,3.7000X1.1000*%
%ADD40R,3.5000X2.0000*%
%ADD41R,3.5000X1.2000*%
%ADD42C,3.2000*%
%ADD43R,2.3700X1.8300*%
%ADD44R,3.4600X0.5700*%
%ADD83C,0.1270*%
%ADD84C,0.1295*%
%ADD85C,0.3810*%
%ADD86C,0.1295*%
G04:AMPARAMS|DCode=87|XSize=0.2mm|YSize=0.8mm|CornerRadius=0mm|HoleSize=0mm|Usage=FLASHONLY|Rotation=135.000|XOffset=0mm|YOffset=0mm|HoleType=Round|Shape=Round|*
%AMOVALD87*
21,1,0.6000,0.2000,0.0000,0.0000,225.0*
1,1,0.2000,0.2121,0.2121*
1,1,0.2000,-0.2121,-0.2121*
%
%ADD87OVALD87*%

G04:AMPARAMS|DCode=88|XSize=0.2mm|YSize=0.8mm|CornerRadius=0mm|HoleSize=0mm|Usage=FLASHONLY|Rotation=45.000|XOffset=0mm|YOffset=0mm|HoleType=Round|Shape=Round|*
%AMOVALD88*
21,1,0.6000,0.2000,0.0000,0.0000,135.0*
1,1,0.2000,0.2121,-0.2121*
1,1,0.2000,-0.2121,0.2121*
%
%ADD88OVALD88*%

%ADD89P,7.7782X4X180.0*%
%ADD90C,1.0000*%
%ADD91R,1.0000X0.2000*%
%ADD92R,0.2670X1.3500*%
%ADD93R,0.2667X0.9017*%
%ADD94R,0.2667X1.3500*%
%ADD95R,1.0000X0.3000*%
%ADD96C,1.1989*%
%ADD97C,2.9997*%
%ADD98R,1.8000X4.5000*%
%ADD99R,1.8000X4.0000*%
%ADD100R,5.0000X2.6000*%
%ADD101C,1.3000*%
%ADD102C,1.0000*%
%ADD103C,0.4000*%
G36*
X4826Y101238D02*
X3048Y99460D01*
Y87776D01*
X4572Y86252D01*
X49530D01*
X51562Y88284D01*
Y99206D01*
X49530Y101238D01*
X33782D01*
X4826D01*
D02*
G37*
G36*
Y126238D02*
X3048Y124460D01*
Y112776D01*
X4572Y111252D01*
X49530D01*
X51562Y113284D01*
Y124206D01*
X49530Y126238D01*
X33782D01*
X4826D01*
D02*
G37*
G36*
X29464Y253238D02*
X26670Y250444D01*
Y237236D01*
X30226Y233680D01*
X102870Y233680D01*
X105664Y236474D01*
Y250698D01*
X103124Y253238D01*
X29464D01*
D02*
G37*
G36*
X77978Y410972D02*
Y400558D01*
X73406Y395986D01*
X56896D01*
X55372Y394462D01*
X37338D01*
X36322Y395478D01*
Y404876D01*
X38100Y406654D01*
X69850Y406654D01*
X72136Y408940D01*
Y411226D01*
X72898Y411988D01*
X76962D01*
X77978Y410972D01*
D02*
G37*
G36*
X93218Y411988D02*
X94234Y410972D01*
Y406654D01*
X96520Y404368D01*
X110490D01*
X120650Y394208D01*
Y371856D01*
Y344424D01*
X112522Y336296D01*
X31750D01*
X27432Y340614D01*
Y373888D01*
X33528Y379984D01*
X52578D01*
X56388Y383794D01*
Y392176D01*
X58674Y394462D01*
X74930D01*
X80264Y399796D01*
X80264Y411226D01*
X81026Y411988D01*
X93218Y411988D01*
D02*
G37*
G36*
X108458Y301752D02*
Y260858D01*
X104394Y256794D01*
X30226D01*
X25146Y261874D01*
Y301498D01*
X29972Y306324D01*
X103886D01*
X108458Y301752D01*
D02*
G37*
G36*
X276860Y133858D02*
Y106172D01*
X269748Y99060D01*
X181610D01*
X162560Y80010D01*
X140462D01*
X137414Y83058D01*
Y130048D01*
X145796Y138430D01*
X272288D01*
X276860Y133858D01*
D02*
G37*
G36*
X445008Y134366D02*
Y91440D01*
X440182Y86614D01*
X251968D01*
X245364Y80010D01*
X222250Y80010D01*
X220218Y82042D01*
Y94742D01*
X223012Y97536D01*
X270002D01*
X279146Y106680D01*
Y133858D01*
X283820Y138532D01*
X440843D01*
X445008Y134366D01*
D02*
G37*
G36*
X218440Y89745D02*
Y80855D01*
X220726Y78569D01*
X248666D01*
X253238Y83141D01*
X441198D01*
X445770Y78569D01*
Y55963D01*
X442206Y52398D01*
X139708D01*
X138176Y53931D01*
Y75521D01*
X141478Y78823D01*
X163510D01*
X182306Y97619D01*
X210566D01*
X218440Y89745D01*
D02*
G37*
G36*
X276860Y403015D02*
Y375329D01*
X269748Y368217D01*
X181610D01*
X180988Y367595D01*
X180791Y367677D01*
X179591D01*
X178483Y367218D01*
X177634Y366370D01*
X177175Y365261D01*
Y364061D01*
X177257Y363864D01*
X162560Y349167D01*
X140462D01*
X137414Y352215D01*
Y399205D01*
X145796Y407587D01*
X272288D01*
X276860Y403015D01*
D02*
G37*
G36*
X445008Y403523D02*
Y360597D01*
X440182Y355771D01*
X251968D01*
X245364Y349167D01*
X222250Y349167D01*
X220218Y351199D01*
Y363899D01*
X223012Y366693D01*
X252594D01*
X253442Y365423D01*
X253375Y365261D01*
Y364061D01*
X253834Y362953D01*
X254683Y362104D01*
X255791Y361645D01*
X256991D01*
X258100Y362104D01*
X258948Y362953D01*
X259407Y364061D01*
Y365261D01*
X259340Y365423D01*
X260189Y366693D01*
X265294D01*
X266142Y365423D01*
X266075Y365261D01*
Y364061D01*
X266534Y362953D01*
X267383Y362104D01*
X268491Y361645D01*
X269691D01*
X270800Y362104D01*
X271648Y362953D01*
X272107Y364061D01*
Y365261D01*
X271648Y366370D01*
X270800Y367218D01*
X270754Y367446D01*
X279146Y375837D01*
Y403015D01*
X283972Y407841D01*
X440690D01*
X445008Y403523D01*
D02*
G37*
G36*
X218440Y358902D02*
Y350012D01*
X220726Y347726D01*
X248666D01*
X253238Y352298D01*
X441198D01*
X445770Y347726D01*
Y325120D01*
X439674Y319024D01*
X142240D01*
X138176Y323088D01*
Y344678D01*
X141478Y347980D01*
X163510D01*
X182306Y366776D01*
X210566D01*
X218440Y358902D01*
D02*
G37*
G36*
X329692Y752348D02*
X331470Y750570D01*
Y727456D01*
X328676Y724662D01*
X317246D01*
X314960Y726948D01*
Y749808D01*
X317500Y752348D01*
X329692Y752348D01*
D02*
G37*
G36*
X312420Y749808D02*
Y726440D01*
X310642Y724662D01*
X300482D01*
X289306Y735838D01*
X258064D01*
X256540Y737362D01*
Y751332D01*
X257810Y752602D01*
X309626D01*
X312420Y749808D01*
D02*
G37*
G36*
X330454Y692404D02*
X330454Y662940D01*
X328930Y661416D01*
X314706D01*
X313182Y662940D01*
Y686308D01*
X310896Y688594D01*
X299212Y688594D01*
X293370Y682752D01*
X288544D01*
X287782Y683514D01*
Y692404D01*
X288544Y693166D01*
X295148Y693166D01*
X297434Y695452D01*
X327406D01*
X330454Y692404D01*
D02*
G37*
G36*
X295910Y721106D02*
Y696722D01*
X293878Y694690D01*
X287782D01*
X286766Y693674D01*
Y683260D01*
X286004Y682498D01*
X281940D01*
X281178Y683260D01*
Y693674D01*
X280162Y694690D01*
X259080D01*
X256794Y696976D01*
Y721360D01*
X257810Y722376D01*
X294640D01*
X295910Y721106D01*
D02*
G37*
G36*
X279654Y693166D02*
X280162Y692658D01*
Y682498D01*
X281548Y681112D01*
X294016D01*
X299974Y687070D01*
X310134D01*
X311404Y685800D01*
Y662940D01*
X309880Y661416D01*
X298196D01*
X291592Y668020D01*
X276352D01*
X274574Y669798D01*
Y692658D01*
X275082Y693166D01*
X279654Y693166D01*
D02*
G37*
G36*
X286766Y664972D02*
Y654558D01*
X287782Y653542D01*
X293878D01*
X295910Y651510D01*
Y627126D01*
X294640Y625856D01*
X257810D01*
X256794Y626872D01*
Y651256D01*
X259080Y653542D01*
X280162D01*
X281178Y654558D01*
Y664972D01*
X281940Y665734D01*
X286004D01*
X286766Y664972D01*
D02*
G37*
G36*
X133350Y752602D02*
X136652D01*
X143764Y745490D01*
Y649732D01*
X131572Y637540D01*
X60452Y637540D01*
X56134Y633222D01*
X56134Y621538D01*
X53594Y618998D01*
X38862Y618998D01*
X35814Y622046D01*
Y661924D01*
X39116Y665226D01*
X86614Y665226D01*
X91694Y670306D01*
Y711454D01*
X87376Y715772D01*
X76962D01*
X73152Y719582D01*
Y747776D01*
X78486Y753110D01*
X132842D01*
X133350Y752602D01*
D02*
G37*
G36*
X331470Y620014D02*
Y599440D01*
X329438Y597408D01*
X316992D01*
X314960Y599440D01*
X314960Y620522D01*
X317246Y622808D01*
X328676D01*
X331470Y620014D01*
D02*
G37*
G36*
X312674Y621030D02*
Y597662D01*
X309880Y594868D01*
X258064D01*
X256794Y596138D01*
Y610108D01*
X258318Y611632D01*
X289560D01*
X300736Y622808D01*
X310896D01*
X312674Y621030D01*
D02*
G37*
G36*
X49530Y503936D02*
Y470408D01*
X46736Y467614D01*
X33020D01*
X30064Y470570D01*
Y503773D01*
X32258Y505968D01*
X47498D01*
X49530Y503936D01*
D02*
G37*
G36*
X116586Y503682D02*
X116586Y478790D01*
X99314Y461518D01*
X99314Y436372D01*
X97536Y434594D01*
X96266Y433324D01*
Y415290D01*
X94996Y414020D01*
X84582Y414020D01*
X83566Y415036D01*
Y441198D01*
X84836Y442468D01*
X94234D01*
X96520Y444754D01*
Y461518D01*
X89662Y468376D01*
Y503936D01*
X91694Y505968D01*
X114300D01*
X116586Y503682D01*
D02*
G37*
G36*
X108966Y420370D02*
Y414782D01*
X107950Y413766D01*
X98298D01*
X97282Y414782D01*
X97282Y420116D01*
X98298Y421132D01*
X108204D01*
X108966Y420370D01*
D02*
G37*
G36*
X86360Y606552D02*
X86360Y446786D01*
X82296Y442722D01*
Y414782D01*
X81026Y413512D01*
X73914Y413512D01*
X72644Y414782D01*
X72644Y433832D01*
X69596Y436880D01*
X51054D01*
X46228Y441706D01*
Y464566D01*
X53086Y471424D01*
Y504698D01*
X49022Y508762D01*
X9906D01*
X3302Y515366D01*
Y591566D01*
X24304Y612568D01*
X80344Y612568D01*
X86360Y606552D01*
D02*
G37*
%LPC*%
G36*
X420183Y119451D02*
X418984D01*
X417875Y118992D01*
X417027Y118144D01*
X416567Y117035D01*
Y115835D01*
X417027Y114727D01*
X417875Y113878D01*
X418984Y113419D01*
X420183D01*
X421292Y113878D01*
X422140Y114727D01*
X422599Y115835D01*
Y117035D01*
X422140Y118144D01*
X421292Y118992D01*
X420183Y119451D01*
D02*
G37*
G36*
X383632Y119353D02*
X382432D01*
X381324Y118894D01*
X380475Y118045D01*
X380016Y116937D01*
Y115737D01*
X380475Y114629D01*
X381324Y113780D01*
X382432Y113321D01*
X383632D01*
X384740Y113780D01*
X385589Y114629D01*
X386048Y115737D01*
Y116937D01*
X385589Y118045D01*
X384740Y118894D01*
X383632Y119353D01*
D02*
G37*
G36*
X419190Y401413D02*
X417990D01*
X416881Y400953D01*
X416033Y400105D01*
X415574Y398997D01*
Y397797D01*
X416033Y396688D01*
X416881Y395840D01*
X417990Y395381D01*
X419190D01*
X420298Y395840D01*
X421147Y396688D01*
X421606Y397797D01*
Y398997D01*
X421147Y400105D01*
X420298Y400953D01*
X419190Y401413D01*
D02*
G37*
G36*
X383632Y400780D02*
X382432D01*
X381324Y400321D01*
X380475Y399472D01*
X380016Y398364D01*
Y397164D01*
X380475Y396056D01*
X381324Y395207D01*
X382432Y394748D01*
X383632D01*
X384740Y395207D01*
X385589Y396056D01*
X386048Y397164D01*
Y398364D01*
X385589Y399472D01*
X384740Y400321D01*
X383632Y400780D01*
D02*
G37*
%LPD*%
D11*
X309652Y597636D02*
G03*
X315722Y595122I6070J6070D01*
G01*
X344446D02*
G03*
X353507Y598871I0J12824D01*
G01*
X353785Y599149D02*
G03*
X357270Y607568I-8427J8419D01*
G01*
X353781Y599145D02*
G03*
X353785Y599149I-8423J8423D01*
G01*
X353507Y598871D02*
G03*
X353514Y598878I-9060J9075D01*
G01*
X17129Y268621D02*
G03*
X23368Y266039I6239J6248D01*
G01*
X17125Y268625D02*
G03*
X17129Y268621I6243J6243D01*
G01*
X9398Y283644D02*
G03*
X14554Y271196I17605J0D01*
G01*
X21150Y421386D02*
G03*
X13229Y418105I0J-11202D01*
G01*
X13228Y418104D02*
G03*
X9398Y408856I9250J-9248D01*
G01*
X433299Y743640D02*
G03*
X434086Y743966I0J1114D01*
G01*
X429126Y696094D02*
G03*
X429560Y696274I0J613D01*
G01*
X57404Y616204D02*
X65820Y624620D01*
X70392D01*
X32160Y617394D02*
Y622268D01*
X33350Y616204D02*
X57404D01*
X32160Y617394D02*
X33350Y616204D01*
X70392Y624620D02*
X81246D01*
X465861Y611718D02*
X465922D01*
X463979Y609896D02*
X464039D01*
X465861Y611718D01*
X488696Y609896D02*
Y619089D01*
Y609748D02*
Y609896D01*
Y619089D02*
X492998Y623391D01*
X484632Y605684D02*
X488696Y609748D01*
Y609600D02*
Y609748D01*
X315722Y595122D02*
X344446D01*
X305816Y601472D02*
X309652Y597636D01*
X357270Y607568D02*
Y620268D01*
X353514Y598878D02*
X353781Y599145D01*
X423901Y646430D02*
X424434D01*
X423139Y645668D02*
X423901Y646430D01*
X407270Y645668D02*
X423139D01*
X434086Y656082D02*
X437783Y652385D01*
X426763Y663405D02*
X434086Y656082D01*
X426423Y663405D02*
X426763D01*
X437783Y652385D02*
X440464Y655066D01*
X447294D01*
X450550Y651810D01*
X459202D02*
X461890Y654498D01*
X450550Y651810D02*
X459202D01*
X550418Y686486D02*
X566032Y702100D01*
X456946Y633357D02*
X460009Y636421D01*
X472195Y636556D02*
X476003Y640363D01*
X460009Y636421D02*
Y636944D01*
X456946Y633222D02*
Y633357D01*
X460009Y636944D02*
X460397Y636556D01*
X472195D01*
X476003Y640363D02*
X476025D01*
X428752Y642620D02*
X429129Y642997D01*
X424434Y646430D02*
X427722Y649718D01*
X429129Y643731D02*
X432568Y647170D01*
Y647170D02*
X435442Y644296D01*
X432568Y647170D02*
Y647170D01*
X437783Y652385D01*
X437783D02*
X437783D01*
X436742Y626461D02*
X437274D01*
X437671Y626858D01*
X450582D01*
X435442Y642198D02*
Y644296D01*
Y642198D02*
X437540D01*
X443062Y634578D02*
Y636692D01*
X438390Y641364D02*
X443062Y636692D01*
X429129Y642997D02*
Y643731D01*
X438374Y641364D02*
X438390D01*
X437540Y642198D02*
X438374Y641364D01*
X450582Y626858D02*
X458202Y619238D01*
X448085Y722832D02*
X452090Y718827D01*
X452113D02*
X459860Y726574D01*
X452090Y718827D02*
X452113D01*
X448063Y722832D02*
X448085D01*
X444363Y711207D02*
Y711443D01*
X444493Y711207D02*
X452113Y718827D01*
X440494Y715312D02*
Y715418D01*
Y715312D02*
X444363Y711443D01*
X429560Y696274D02*
X444493Y711207D01*
X82517Y623417D02*
X86828D01*
X81280Y624654D02*
X82517Y623417D01*
X86828D02*
X102457Y607789D01*
X102457D01*
X70358Y624586D02*
X70392Y624620D01*
X81246D02*
X81280Y624654D01*
X70358Y633586D02*
Y644398D01*
X74422Y643890D02*
X75946Y642366D01*
X80090D02*
X81280Y641176D01*
Y633154D02*
Y641176D01*
X75946Y642366D02*
X80090D01*
X23368Y266039D02*
X35052D01*
X14554Y271196D02*
X17125Y268625D01*
X9398Y283644D02*
Y399034D01*
Y408856D01*
X117094Y427482D02*
X121859D01*
X103096Y427385D02*
X103112Y427402D01*
X117014D02*
X117094Y427482D01*
X103112Y427402D02*
X117014D01*
X53017Y423385D02*
X65095D01*
X52941Y423461D02*
X53017Y423385D01*
X49391Y423461D02*
X52941D01*
X48375Y422444D02*
X49391Y423461D01*
X42050Y422444D02*
X48375D01*
X37084Y422402D02*
X37117Y422369D01*
X41910D02*
X41942Y422337D01*
X37117Y422369D02*
X41910D01*
X41942Y422337D02*
X42050Y422444D01*
X243518Y748216D02*
X248412D01*
X237490Y719578D02*
X242058D01*
X237565Y628035D02*
X242059D01*
X242388Y628364D01*
X237236Y627706D02*
X237565Y628035D01*
X248412Y599254D02*
X253170D01*
X20753Y453569D02*
X20932Y453390D01*
X20753Y453569D02*
Y462609D01*
X20574Y462788D02*
X20753Y462609D01*
X16256Y432054D02*
X21214D01*
X113063Y618395D02*
X113379D01*
X123698Y608076D01*
X526034Y729996D02*
X532250Y736212D01*
X525780Y729996D02*
X526034D01*
X532250Y736212D02*
X532504D01*
X519166Y723089D02*
Y723112D01*
X525780Y729726D02*
Y729996D01*
X519166Y723112D02*
X525780Y729726D01*
X554605Y707625D02*
Y708080D01*
X544616Y697639D02*
X544619D01*
X554605Y707625D01*
X554990Y707952D02*
X557596Y710558D01*
X557650D01*
X566032Y702100D02*
Y702430D01*
X550418Y681984D02*
X559708Y672693D01*
X550418Y681984D02*
Y686486D01*
X564454Y672693D02*
X567799Y669349D01*
X568248D01*
X559708Y672693D02*
X564454D01*
X470797Y715637D02*
X475000D01*
X462788Y716788D02*
X462795D01*
X466217Y720210D02*
X466224D01*
X462795Y716788D02*
X466217Y720210D01*
X475000Y715637D02*
X481683Y708954D01*
X466224Y720210D02*
X470797Y715637D01*
X443110Y697350D02*
X450730Y704970D01*
X453489Y705630D02*
X473669D01*
X524824Y626206D02*
X528587Y622443D01*
X414754Y739372D02*
Y747947D01*
Y739372D02*
X414900Y739226D01*
X407424Y739394D02*
X414732D01*
X414900Y739226D01*
X397764Y718362D02*
X397900Y718226D01*
X397764Y718362D02*
Y726948D01*
X389744Y718226D02*
X397900D01*
X429006Y743640D02*
X433299D01*
X424424Y713994D02*
X429006D01*
X444363Y711207D02*
X444493D01*
X428996Y696094D02*
X429126D01*
X452829Y704970D02*
X453489Y705630D01*
X450730Y704970D02*
X452829D01*
X476003Y703297D02*
X476025D01*
X473669Y705630D02*
X476003Y703297D01*
X439180Y693420D02*
X441720Y695960D01*
X435490Y689730D02*
Y689737D01*
X439166Y693413D02*
Y693420D01*
X439180D01*
X435490Y689737D02*
X439166Y693413D01*
X433506Y706895D02*
X436686Y703714D01*
X436746D01*
X433446Y706895D02*
X433506D01*
X426036Y699053D02*
X428996Y696094D01*
X425906Y699053D02*
X426036D01*
X551822Y615517D02*
X553102Y614238D01*
X551822Y615517D02*
Y616324D01*
X543186Y607688D02*
Y607791D01*
X541185Y609792D02*
X543186Y607791D01*
X541185Y609792D02*
Y609896D01*
X560204Y624706D02*
X561404D01*
X563448Y622662D01*
X563980D01*
X568840Y633088D02*
X569945D01*
X571226Y631806D01*
X571759D01*
X572396Y708794D02*
X587781D01*
X589194Y707381D02*
X589727D01*
X587781Y708794D02*
X589194Y707381D01*
X538868Y742513D02*
Y742576D01*
X536827Y740472D02*
X538868Y742513D01*
X536827Y740408D02*
Y740472D01*
X548227Y734194D02*
X549509Y735476D01*
X546996Y734194D02*
X548227D01*
X549509Y735476D02*
X550041D01*
X561910Y714564D02*
Y714818D01*
X564014Y716922D01*
X555540Y725558D02*
X557701Y727719D01*
X557863D01*
X555378Y725558D02*
X555540D01*
X455583Y689794D02*
X459053Y686324D01*
X455583Y689794D02*
Y697350D01*
X465017D01*
X449384D02*
X455583D01*
X465017D02*
X467548Y694819D01*
X443110Y697350D02*
X445063Y697495D01*
X449384Y697350D01*
X478268Y599172D02*
X481584Y595856D01*
X526161Y597027D02*
X526288Y597154D01*
X521648Y596900D02*
X521775Y597027D01*
X526161D01*
X533865Y598721D02*
X536956Y595630D01*
X528587Y622443D02*
Y622559D01*
Y622423D02*
Y622443D01*
Y622423D02*
X536822Y614188D01*
X528587Y622443D02*
X528779Y622251D01*
X528587Y622559D02*
X528779Y622367D01*
Y622251D02*
Y622367D01*
X536822Y614052D02*
Y614188D01*
X540135Y627249D02*
Y627871D01*
X545077Y622688D02*
X545458D01*
X540512Y626872D02*
X540893D01*
X533301Y634706D02*
X540135Y627871D01*
Y627249D02*
X540512Y626872D01*
X540893D02*
X545077Y622688D01*
X548334Y636576D02*
X553840Y631070D01*
X550274Y651678D02*
X550297D01*
X558339Y643636D02*
X558546D01*
Y643509D02*
X562476Y639579D01*
X550297Y651678D02*
X558339Y643636D01*
X558546Y643509D02*
Y643636D01*
X562476Y639452D02*
Y639579D01*
X558751Y660133D02*
X566420Y652464D01*
X570985Y647834D02*
X571112D01*
X566420Y652272D02*
X566547D01*
X558751Y660133D02*
Y660156D01*
X566420Y652272D02*
Y652464D01*
X566547Y652272D02*
X570985Y647834D01*
X574294Y669290D02*
X574751D01*
X584157Y678697D01*
Y696933D01*
X536139Y706117D02*
X544169Y714147D01*
Y714349D01*
X549014Y719194D01*
X537178Y723005D02*
Y723537D01*
X527644Y714612D02*
X536436Y723404D01*
X536835Y723005D02*
X537178D01*
X536436Y723404D02*
X536835Y723005D01*
X537178Y723537D02*
X540632Y726992D01*
Y727830D01*
X521326Y745744D02*
Y750198D01*
X489204Y745744D02*
X493336D01*
X483573Y737659D02*
X486156Y735076D01*
X453204Y741358D02*
Y745744D01*
X258902Y730004D02*
X305316D01*
X305816Y730504D01*
X248412Y719514D02*
X258902Y730004D01*
X259216Y616966D02*
X305816D01*
X248412Y627770D02*
X259216Y616966D01*
X485276Y605536D02*
X493912Y596900D01*
X484632Y605536D02*
X485276D01*
X524824Y626206D02*
Y626228D01*
X548334Y636576D02*
Y636628D01*
X541779Y643183D02*
X548334Y636628D01*
X853606Y705411D02*
X860806D01*
X868006D01*
X853606Y680413D02*
X860806D01*
X868006D01*
X868222Y665627D02*
X876054D01*
X879338Y668912D02*
X882306D01*
X868006Y665411D02*
X868222Y665627D01*
X876054D02*
X879338Y668912D01*
X842274D02*
X845558Y665627D01*
X839306Y668912D02*
X842274D01*
X853391Y665627D02*
X853606Y665411D01*
X845558Y665627D02*
X853391D01*
X845558Y720197D02*
X853391D01*
X839306Y716913D02*
X842274D01*
X853391Y720197D02*
X853606Y720413D01*
X842274Y716913D02*
X845558Y720197D01*
X868006Y720413D02*
X868222Y720197D01*
X876054D01*
X879338Y716913D01*
X882306D01*
X860806Y680413D02*
Y705411D01*
X25573Y395691D02*
Y400050D01*
X25573Y400050D02*
X29932D01*
X25573Y400050D02*
X25573Y400050D01*
X25573Y400050D02*
Y406359D01*
X25541Y395659D02*
X25573Y395691D01*
X21214Y410718D02*
X25573Y406359D01*
X29714Y410718D02*
Y426752D01*
X10414Y400050D02*
X20932D01*
X9398Y399034D02*
X10414Y400050D01*
X25541Y393773D02*
Y395659D01*
X21150Y389382D02*
X25541Y393773D01*
X29777Y442595D02*
X35687D01*
X29650Y442722D02*
X29777Y442595D01*
X35687D02*
X35814Y442468D01*
X51166Y419174D02*
X51360Y419369D01*
X65079D01*
X56339Y415083D02*
X56627Y415370D01*
X65079D01*
Y419369D02*
X65095Y419384D01*
X40386Y448056D02*
Y453390D01*
X65079Y415370D02*
X65095Y415387D01*
X29650Y442722D02*
X29791Y442863D01*
Y453249D02*
X29932Y453390D01*
X29791Y442863D02*
Y453249D01*
X29714Y426752D02*
Y432054D01*
Y426752D02*
X30348Y427385D01*
X65095D01*
X21150Y442722D02*
X25976Y437896D01*
X43942D02*
X50452Y431386D01*
X25976Y437896D02*
X43942D01*
X50452Y431386D02*
X65095D01*
D15*
X225298Y674370D02*
X278863D01*
X225298Y611510D02*
Y674370D01*
Y735960D01*
X237490Y599186D02*
Y599318D01*
X225298Y611510D02*
X237490Y599318D01*
X225298Y735960D02*
X237490Y748152D01*
D17*
X465201Y624967D02*
X471932Y618236D01*
Y617728D02*
Y618236D01*
X452813Y643899D02*
X468246D01*
X443910Y648208D02*
X448504D01*
X452813Y643899D01*
X468246D02*
X470368Y646021D01*
X473077Y643183D02*
X473205D01*
X470482Y640588D02*
X473077Y643183D01*
X449072Y640588D02*
X470482D01*
X465328Y625094D02*
X466396D01*
X478845Y637543D01*
X443910Y648208D02*
X443910Y648208D01*
X441452Y648208D02*
X443910D01*
X290420Y659811D02*
Y660463D01*
X300662Y646354D02*
Y651724D01*
X290420Y659811D02*
X291817Y658414D01*
X293972D01*
X300662Y651724D01*
X233212Y689062D02*
X239522Y682752D01*
X233212Y689062D02*
Y735374D01*
X237490Y739652D01*
X239522Y682752D02*
X263144D01*
X272418Y668528D02*
X276023Y664923D01*
Y661861D02*
X277420Y660463D01*
X276023Y661861D02*
Y664923D01*
X232958Y612350D02*
Y659932D01*
Y612350D02*
X237490Y607818D01*
X232958Y659932D02*
X241554Y668528D01*
X272418D01*
X248348Y607818D02*
X248412Y607754D01*
X237490Y607818D02*
X248348D01*
X237490Y739652D02*
X248348D01*
X248412Y739716D01*
X237300Y711962D02*
X248412D01*
X254063Y687768D02*
X270920D01*
X247904Y693928D02*
X254063Y687768D01*
X237236Y712026D02*
X237300Y711962D01*
X247904Y711454D02*
X248412Y711962D01*
X247904Y693928D02*
Y711454D01*
Y636778D02*
Y654304D01*
Y636778D02*
X248412Y636270D01*
X237236Y636206D02*
X237300Y636270D01*
X247904Y654304D02*
X254063Y660463D01*
X270920D01*
X237300Y636270D02*
X248412D01*
X492645Y736553D02*
X500098Y744006D01*
X495818Y723089D02*
Y723169D01*
X492645Y726341D02*
X495818Y723169D01*
X492645Y726341D02*
Y736553D01*
X500098Y744006D02*
X501836Y745744D01*
X501836D01*
X500098Y744006D02*
Y744006D01*
X504705Y723806D02*
X507376Y726477D01*
Y740294D02*
X512826Y745744D01*
X507376Y726477D02*
Y740294D01*
X500777Y723806D02*
X504705D01*
X498656Y725927D02*
X500777Y723806D01*
X473753Y739859D02*
X477563Y743669D01*
X469943Y736049D02*
X473753Y739859D01*
X461704Y745744D02*
X467868D01*
X473753Y739859D01*
X477553Y730039D02*
X490160Y717432D01*
X475953Y730039D02*
X477553D01*
X474270Y710692D02*
X478845Y706117D01*
X459529Y712767D02*
X461604Y710692D01*
X458173Y712767D02*
X459529D01*
X461604Y710692D02*
X474270D01*
X496534Y602778D02*
X502412Y596900D01*
X496534Y602778D02*
Y615612D01*
X501861Y622632D02*
X501927D01*
X501801Y622692D02*
X501861Y622632D01*
X497939Y622692D02*
X501801D01*
X501927Y622632D02*
X506375Y618185D01*
Y618119D02*
Y618185D01*
X495818Y620571D02*
X497939Y622692D01*
X506375Y618119D02*
X513148Y611345D01*
X496534Y615612D02*
X498656Y617733D01*
X500777Y619854D01*
X513148Y596900D02*
Y611345D01*
X523691Y604731D02*
X527855D01*
X513509Y614913D02*
X523691Y604731D01*
D22*
X32160Y592868D02*
D03*
X38660D02*
D03*
X45160D02*
D03*
X51660D02*
D03*
X51660Y622268D02*
D03*
X45160D02*
D03*
X38660D02*
D03*
X32160D02*
D03*
D23*
X465922Y611718D02*
D03*
X471932Y617728D02*
D03*
X464566Y625602D02*
D03*
X458202Y619238D02*
D03*
X443062Y634578D02*
D03*
X449072Y640588D02*
D03*
X450582Y626858D02*
D03*
X456946Y633222D02*
D03*
X427722Y649718D02*
D03*
X434086Y656082D02*
D03*
X441452Y648208D02*
D03*
X435442Y642198D02*
D03*
X420413Y657395D02*
D03*
X426423Y663405D02*
D03*
X549014Y719194D02*
D03*
X555378Y725558D02*
D03*
X540632Y727830D02*
D03*
X546996Y734194D02*
D03*
X557650Y710558D02*
D03*
X564014Y716922D02*
D03*
X484632Y605536D02*
D03*
X478268Y599172D02*
D03*
X532504Y736212D02*
D03*
X538868Y742576D02*
D03*
X578147Y690923D02*
D03*
X584157Y696933D02*
D03*
X566032Y702430D02*
D03*
X572396Y708794D02*
D03*
D24*
X357270Y645668D02*
D03*
Y632968D02*
D03*
Y620268D02*
D03*
Y607568D02*
D03*
X407270Y645668D02*
D03*
Y632968D02*
D03*
Y620268D02*
D03*
D25*
Y607568D02*
D03*
D26*
X428752Y125504D02*
D03*
Y394661D02*
D03*
X263045D02*
D03*
X180191D02*
D03*
X263045Y125504D02*
D03*
X345898Y394661D02*
D03*
X180191Y125504D02*
D03*
X345898D02*
D03*
D27*
X428752Y65504D02*
D03*
Y334661D02*
D03*
X263045D02*
D03*
X180191D02*
D03*
X263045Y65504D02*
D03*
X345898Y334661D02*
D03*
X180191Y65504D02*
D03*
X345898D02*
D03*
D28*
X70358Y624586D02*
D03*
Y633586D02*
D03*
X237236Y627706D02*
D03*
Y636206D02*
D03*
X429006Y713994D02*
D03*
Y722994D02*
D03*
Y743640D02*
D03*
Y734640D02*
D03*
X40386Y397628D02*
D03*
Y389128D02*
D03*
X237490Y599318D02*
D03*
Y607818D02*
D03*
Y748152D02*
D03*
Y739652D02*
D03*
X81280Y633154D02*
D03*
Y624654D02*
D03*
X248412Y607754D02*
D03*
Y599254D02*
D03*
Y739716D02*
D03*
Y748216D02*
D03*
Y627770D02*
D03*
Y636270D02*
D03*
Y719514D02*
D03*
Y711014D02*
D03*
X237490Y711078D02*
D03*
Y719578D02*
D03*
D29*
X270920Y660463D02*
D03*
X277420D02*
D03*
X283920D02*
D03*
X290420D02*
D03*
Y687768D02*
D03*
X283920D02*
D03*
X277420D02*
D03*
X270920D02*
D03*
D30*
X29714Y410718D02*
D03*
X21214D02*
D03*
X40386Y453390D02*
D03*
X48886D02*
D03*
X20932Y400050D02*
D03*
X29932D02*
D03*
X21150Y389382D02*
D03*
X29650D02*
D03*
X29714Y432054D02*
D03*
X21214D02*
D03*
X20932Y453390D02*
D03*
X29932D02*
D03*
X21150Y442722D02*
D03*
X29650D02*
D03*
X634294Y606527D02*
D03*
X625294D02*
D03*
X634294Y595859D02*
D03*
X625294D02*
D03*
X633404Y638048D02*
D03*
X624404D02*
D03*
X501836Y745744D02*
D03*
X493336D02*
D03*
X502412Y596900D02*
D03*
X493912D02*
D03*
X461704Y745744D02*
D03*
X453204D02*
D03*
X624404Y627380D02*
D03*
X633404D02*
D03*
X620340Y722376D02*
D03*
X629340D02*
D03*
X620340Y733044D02*
D03*
X629340D02*
D03*
X512826Y745744D02*
D03*
X521326D02*
D03*
X513148Y596900D02*
D03*
X521648D02*
D03*
X59800Y389382D02*
D03*
X50800D02*
D03*
X29650Y421386D02*
D03*
X21150D02*
D03*
D31*
X76877Y247039D02*
D03*
Y266039D02*
D03*
X97790Y247039D02*
D03*
Y266039D02*
D03*
X35052Y247039D02*
D03*
Y266039D02*
D03*
X55965D02*
D03*
Y247039D02*
D03*
D32*
X42061Y475233D02*
D03*
X61061D02*
D03*
X42061Y495807D02*
D03*
X61061D02*
D03*
X97331Y495810D02*
D03*
X78331D02*
D03*
X97385Y475235D02*
D03*
X78385D02*
D03*
D33*
X475953Y730039D02*
D03*
X469943Y736049D02*
D03*
X536822Y614052D02*
D03*
X543186Y607688D02*
D03*
X545458Y622688D02*
D03*
X551822Y616324D02*
D03*
X527855Y604731D02*
D03*
X533865Y598721D02*
D03*
X450730Y704970D02*
D03*
X444366Y711334D02*
D03*
X562476Y639452D02*
D03*
X568840Y633088D02*
D03*
X571112Y647834D02*
D03*
X577476Y641470D02*
D03*
X443110Y697350D02*
D03*
X436746Y703714D02*
D03*
X553840Y631070D02*
D03*
X560204Y624706D02*
D03*
X435490Y689730D02*
D03*
X429126Y696094D02*
D03*
X617968Y701054D02*
D03*
X624332Y694690D02*
D03*
X610348Y693434D02*
D03*
X616712Y687070D02*
D03*
X458173Y712767D02*
D03*
X452163Y718777D02*
D03*
X477563Y743669D02*
D03*
X483573Y737659D02*
D03*
X466224Y720210D02*
D03*
X459860Y726574D02*
D03*
D34*
X414900Y718226D02*
D03*
X397900D02*
D03*
X414900Y739226D02*
D03*
X397900D02*
D03*
D35*
X66548Y351564D02*
D03*
Y291564D02*
D03*
D36*
X320316Y665988D02*
D03*
X305816D02*
D03*
X320316Y681736D02*
D03*
X305816D02*
D03*
X320316Y601472D02*
D03*
X305816D02*
D03*
X320316Y616966D02*
D03*
X305816D02*
D03*
X320316Y745998D02*
D03*
X305816D02*
D03*
X320316Y730504D02*
D03*
X305816D02*
D03*
D37*
X156324Y604380D02*
D03*
X116472Y564528D02*
D03*
D38*
X113063Y618395D02*
D03*
X102457Y607789D02*
D03*
D39*
X276606Y632714D02*
D03*
Y602714D02*
D03*
X276352Y714756D02*
D03*
Y744756D02*
D03*
D40*
X94144Y149188D02*
D03*
Y62648D02*
D03*
D41*
X22834Y118418D02*
D03*
Y93418D02*
D03*
D42*
X876808Y233934D02*
D03*
X193294Y676402D02*
D03*
X875792Y619252D02*
D03*
X65024Y196850D02*
D03*
D43*
X41910Y603418D02*
D03*
D44*
X41910Y607918D02*
D03*
D83*
X399871Y655634D02*
G03*
X398119Y651399I4244J-4235D01*
G01*
X399880Y655643D02*
G03*
X399875Y655639I4235J-4244D01*
G01*
X404115Y657395D02*
G03*
X399880Y655643I0J-5996D01*
G01*
X399875Y655639D02*
G03*
X399871Y655634I4240J-4240D01*
G01*
X400190Y635047D02*
G03*
X400195Y635043I5015J5007D01*
G01*
X398119Y640054D02*
G03*
X400190Y635047I7086J0D01*
G01*
X387552Y635052D02*
G03*
X375522Y640029I-12030J-12050D01*
G01*
X364182Y642848D02*
G03*
X370989Y640029I6807J6807D01*
G01*
X364706Y635359D02*
G03*
X364702Y635355I5760J-5768D01*
G01*
X370466Y637743D02*
G03*
X364706Y635359I0J-8151D01*
G01*
X387568Y635036D02*
G03*
X387552Y635052I-12046J-12034D01*
G01*
X388268Y634336D02*
G03*
X403841Y627888I15573J15582D01*
G01*
X386666Y632705D02*
G03*
X403841Y625602I17175J17213D01*
G01*
X385933Y633438D02*
G03*
X375522Y637743I-10411J-10436D01*
G01*
X385946Y633425D02*
G03*
X385933Y633438I-10423J-10423D01*
G01*
X432540Y619782D02*
G03*
X412966Y627888I-19574J-19580D01*
G01*
X430927Y618162D02*
G03*
X412966Y625602I-17960J-17960D01*
G01*
X409816Y610114D02*
G03*
X409810Y610108I6126J-6138D01*
G01*
X415942Y612648D02*
G03*
X409816Y610114I0J-8672D01*
G01*
X409943Y617595D02*
G03*
X416376Y614934I6432J6445D01*
G01*
X409937Y617601D02*
G03*
X409943Y617595I6439J6439D01*
G01*
X436118Y609738D02*
G03*
X423562Y614934I-12556J-12575D01*
G01*
X436135Y609721D02*
G03*
X436118Y609738I-12574J-12557D01*
G01*
X434507Y608116D02*
G03*
X423562Y612648I-10946J-10953D01*
G01*
X434510Y608113D02*
G03*
X434507Y608116I-10949J-10949D01*
G01*
X446466Y603925D02*
G03*
X458724Y600710I12257J21760D01*
G01*
X441074Y608015D02*
G03*
X446466Y603925I17650J17670D01*
G01*
X441054Y608035D02*
G03*
X441074Y608016I17670J17650D01*
G01*
X461264Y600710D02*
G03*
X471469Y604935I0J14438D01*
G01*
X440667Y605189D02*
G03*
X457006Y598424I16339J16349D01*
G01*
X463212D02*
G03*
X471712Y601945I-0J12020D01*
G01*
X455878Y596163D02*
G03*
X457006Y596138I1128J25375D01*
G01*
X439046Y603577D02*
G03*
X455878Y596163I17960J17960D01*
G01*
X463929Y596138D02*
G03*
X472821Y599821I-0J12574D01*
G01*
X442681Y609641D02*
G03*
X458724Y602996I16043J16043D01*
G01*
X471469Y604935D02*
G03*
X471477Y604943I-10205J10213D01*
G01*
X461264Y602996D02*
G03*
X469856Y606555I0J12151D01*
G01*
X474576Y611274D02*
G03*
X479171Y622369I-11094J11094D01*
G01*
X480692Y633517D02*
G03*
X479171Y628642I7055J-4875D01*
G01*
X481683Y634706D02*
G03*
X480692Y633517I6064J-6064D01*
G01*
X483433Y630632D02*
G03*
X481457Y624533I8422J-6098D01*
G01*
X484503Y631886D02*
G03*
X483433Y630632I7353J-7353D01*
G01*
X486547Y628255D02*
G03*
X483743Y621485I6770J-6770D01*
G01*
X486952Y623020D02*
G03*
X486029Y620786I2242J-2234D01*
G01*
X486956Y623024D02*
G03*
X486952Y623020I2238J-2238D01*
G01*
X482854Y609854D02*
G03*
X486029Y617519I-7665J7665D01*
G01*
X481244Y611477D02*
G03*
X483743Y617519I-6055J6043D01*
G01*
X481237Y611470D02*
G03*
X481244Y611477I-6049J6049D01*
G01*
X477849Y611315D02*
G03*
X481457Y620034I-8731J8718D01*
G01*
X477843Y611309D02*
G03*
X477849Y611315I-8725J8725D01*
G01*
X404115Y657395D02*
X420413D01*
X398119Y640054D02*
Y651399D01*
X400195Y635043D02*
X402270Y632968D01*
X370989Y640029D02*
X375522D01*
X361362Y645668D02*
X364182Y642848D01*
X362314Y632968D02*
X364702Y635355D01*
X370466Y637743D02*
X375522D01*
X388081Y634523D02*
X388268Y634336D01*
X387568Y635036D02*
X388081Y634523D01*
X385946Y633425D02*
X386666Y632705D01*
X403841Y625602D02*
X412966D01*
X403841Y627888D02*
X412966D01*
X436617Y615705D02*
X442681Y609641D01*
X432540Y619782D02*
X436617Y615705D01*
X430927Y618162D02*
X439074Y610015D01*
X415942Y612648D02*
X423562D01*
X407270Y607568D02*
X409810Y610108D01*
X416376Y614934D02*
X423562D01*
X407270Y620268D02*
X409937Y617601D01*
X437894Y607962D02*
X440667Y605189D01*
X436135Y609721D02*
X436747Y609109D01*
X434510Y608113D02*
X439046Y603577D01*
X439073Y610015D02*
X441054Y608035D01*
X458724Y600710D02*
X461264D01*
X436747Y609109D02*
X437419Y608437D01*
X437894Y607962D01*
X460617Y598424D02*
X463212Y598424D01*
X457006Y598424D02*
X460617D01*
X463212D02*
X463212D01*
X457006Y596138D02*
X463929D01*
X458724Y602996D02*
X461264D01*
X472821Y599821D02*
X482854Y609854D01*
X471712Y601945D02*
X481237Y611470D01*
X471477Y604943D02*
X477843Y611309D01*
X469856Y606555D02*
X474576Y611274D01*
X479171Y622369D02*
Y628642D01*
X481457Y620034D02*
Y624533D01*
X483743Y617519D02*
Y621485D01*
X486547Y628255D02*
X487340Y629048D01*
X486029Y617519D02*
Y620786D01*
X486956Y623024D02*
X490160Y626228D01*
X357270Y632968D02*
X362314D01*
X357270Y645668D02*
X361362D01*
X402270Y632968D02*
X407270D01*
D84*
X866026Y528561D02*
G03*
X866044Y528561I18J6482D01*
G01*
X861473Y530447D02*
G03*
X866026Y528561I4571J4597D01*
G01*
X708519Y665988D02*
G03*
X715264Y668782I-0J9539D01*
G01*
X465386Y690573D02*
G03*
X465522Y690902I-329J329D01*
G01*
X465360Y691332D02*
G03*
X465359Y691333I-394J-392D01*
G01*
X465522Y690940D02*
G03*
X465360Y691332I-556J0D01*
G01*
X465386Y690573D02*
G03*
X465386Y690300I136J-136D01*
G01*
X473643Y683955D02*
G03*
X472394Y684473I-1249J-1249D01*
G01*
X470548Y685138D02*
G03*
X472169Y684473I1621J1643D01*
G01*
X470537Y685149D02*
G03*
X470548Y685138I1632J1632D01*
G01*
X469399Y681702D02*
G03*
X468723Y683335I-2308J0D01*
G01*
X469399Y681478D02*
G03*
X469917Y680229I1767J0D01*
G01*
X886130Y706865D02*
G03*
X881630Y708729I-4500J-4500D01*
G01*
X892540Y702367D02*
G03*
X891291Y702885I-1249J-1249D01*
G01*
X889434Y703561D02*
G03*
X891066Y702885I1632J1632D01*
G01*
X875587Y712276D02*
G03*
X876519Y711154I6719J4636D01*
G01*
D02*
G03*
X876547Y711126I5786J5759D01*
G01*
X877063Y710610D02*
G03*
X881605Y708729I4543J4543D01*
G01*
X872111Y714806D02*
G03*
X870645Y715411I-1466J-1472D01*
G01*
X872117Y714800D02*
G03*
X873583Y714195I1466J1472D01*
G01*
X874649Y713635D02*
G03*
X873583Y714195I-1066J-736D01*
G01*
X888296Y700115D02*
G03*
X887625Y701742I-2308J0D01*
G01*
X888296Y699890D02*
G03*
X888814Y698641I1767J0D01*
G01*
X876000Y708045D02*
G03*
X880543Y706163I4542J4542D01*
G01*
X874700Y709345D02*
G03*
X874738Y709307I7606J7567D01*
G01*
X884331Y705036D02*
G03*
X881605Y706163I-2726J-2731D01*
G01*
X873714Y710487D02*
G03*
X874700Y709345I8592J6425D01*
G01*
X873685Y710525D02*
G03*
X872635Y711062I-1050J-758D01*
G01*
X870645Y710413D02*
G03*
X872114Y711021I0J2077D01*
G01*
Y714803D02*
G03*
X872111Y714806I-1469J-1469D01*
G01*
X872114Y714803D02*
G03*
X872117Y714800I1469J1469D01*
G01*
X887625Y701742D02*
G03*
X887620Y701747I-1637J-1627D01*
G01*
X485014Y715575D02*
G03*
X487340Y714612I2326J2326D01*
G01*
X478680Y718641D02*
G03*
X477020Y719328I-1660J-1660D01*
G01*
X478680Y718640D02*
X478680Y718641D01*
X483374Y712902D02*
G03*
X482636Y714684I-2520J0D01*
G01*
X475360Y720016D02*
X475360Y720015D01*
D02*
G03*
X477020Y719328I1660J1660D01*
G01*
X476255Y722389D02*
G03*
X477915Y721702I1660J1660D01*
G01*
X479575Y721014D02*
G03*
X477915Y721702I-1660J-1660D01*
G01*
X479576Y721014D02*
X479575Y721014D01*
X452767Y735181D02*
G03*
X445768Y732280I0J-9893D01*
G01*
X440864Y730250D02*
G03*
X445768Y732280I0J6938D01*
G01*
X441359Y727202D02*
G03*
X447150Y729598I0J8195D01*
G01*
X455047Y732869D02*
G03*
X447150Y729598I0J-11168D01*
G01*
X466856Y731789D02*
G03*
X458659Y735181I-8196J-8208D01*
G01*
X466861Y731783D02*
G03*
X466856Y731789I-8202J-8202D01*
G01*
X465227Y730149D02*
G03*
X458659Y732869I-6568J-6568D01*
G01*
X404462Y732164D02*
G03*
X409085Y730250I4623J4626D01*
G01*
X404461Y732165D02*
G03*
X404462Y732164I4624J4624D01*
G01*
X422001Y725327D02*
G03*
X421996Y725322I4533J-4544D01*
G01*
X426535Y727202D02*
G03*
X422001Y725327I0J-6419D01*
G01*
X849495Y671024D02*
G03*
X848029Y671629I-1466J-1472D01*
G01*
X849501Y671018D02*
G03*
X850967Y670413I1466J1472D01*
G01*
X846958Y672197D02*
G03*
X848029Y671629I1072J728D01*
G01*
X836694Y679566D02*
G03*
X837695Y678845I2728J2732D01*
G01*
X836692Y679568D02*
G03*
X836694Y679567I2730J2730D01*
G01*
X836692Y679568D02*
G03*
X836093Y679908I-916J-916D01*
G01*
X850967Y675411D02*
G03*
X849498Y674803I0J-2077D01*
G01*
X847930Y675295D02*
G03*
X848977Y674762I1047J762D01*
G01*
X838509Y681380D02*
G03*
X838842Y681140I913J919D01*
G01*
X838508Y681380D02*
G03*
X838506Y681382I-909J-905D01*
G01*
X838166Y681982D02*
G03*
X838506Y681382I1256J317D01*
G01*
X845072Y674691D02*
G03*
X842958Y676213I-5766J-5779D01*
G01*
X849498Y671021D02*
G03*
X849495Y671024I-1469J-1469D01*
G01*
X849498Y671021D02*
G03*
X849501Y671018I1469J1469D01*
G01*
X846025Y673548D02*
G03*
X845086Y674677I-6719J-4637D01*
G01*
D02*
G03*
X845072Y674691I-5779J-5766D01*
G01*
X846880Y676511D02*
G03*
X844106Y678507I-7574J-7600D01*
G01*
X847930Y675295D02*
G03*
X846906Y676485I-8623J-6384D01*
G01*
D02*
G03*
X846880Y676511I-7600J-7574D01*
G01*
X787623Y331755D02*
G03*
X807367Y323585I19743J19773D01*
G01*
X764994Y365958D02*
G03*
X773163Y346215I27942J0D01*
G01*
X844823Y322752D02*
G03*
X842809Y323585I-2013J-2017D01*
G01*
X722721Y623992D02*
G03*
X704761Y631431I-17960J-17960D01*
G01*
X636552D02*
G03*
X635636Y631052I0J-1295D01*
G01*
D02*
G03*
X635257Y630136I916J-916D01*
G01*
X634750Y628726D02*
G03*
X635257Y629952I-1232J1227D01*
G01*
X634747Y628723D02*
G03*
X634750Y628726I-1229J1229D01*
G01*
X763242Y524990D02*
G03*
X763246Y524994I-8628J8628D01*
G01*
X766815Y569377D02*
G03*
X759376Y587337I-25400J0D01*
G01*
X764994Y454370D02*
G03*
X761570Y462638I-11695J0D01*
G01*
X758165Y470857D02*
G03*
X761562Y462646I11622J0D01*
G01*
X763241Y524989D02*
G03*
X758165Y512733I12256J-12256D01*
G01*
X767560Y365968D02*
G03*
X774999Y348007I25400J0D01*
G01*
X765076Y523196D02*
G03*
X769381Y533588I-10392J10392D01*
G01*
X789416Y333590D02*
G03*
X807376Y326151I17960J17960D01*
G01*
X842809D02*
G03*
X844823Y326983I0J2850D01*
G01*
X635257Y635292D02*
G03*
X635636Y634376I1295J0D01*
G01*
D02*
G03*
X636552Y633997I916J916D01*
G01*
X634750Y636702D02*
G03*
X634747Y636705I-1232J-1227D01*
G01*
X635257Y635476D02*
G03*
X634750Y636702I-1738J0D01*
G01*
X769381Y569411D02*
G03*
X761214Y589128I-27884J0D01*
G01*
X767560Y454387D02*
G03*
X763395Y464441I-14219J0D01*
G01*
X724503Y625839D02*
G03*
X704807Y633997I-19696J-19696D01*
G01*
X760730Y470872D02*
G03*
X763393Y464443I9093J0D01*
G01*
X765076Y523196D02*
G03*
X760730Y512703I10493J-10493D01*
G01*
X787609Y331769D02*
G03*
X787623Y331755I19758J19758D01*
G01*
X773163Y346215D02*
G03*
X773178Y346200I19773J19743D01*
G01*
X844825Y322751D02*
G03*
X844823Y322752I-2015J-2015D01*
G01*
X844825Y322751D02*
G03*
X846074Y322233I1249J1249D01*
G01*
X763246Y524994D02*
G03*
X766815Y533618I-8633J8624D01*
G01*
X761562Y462646D02*
G03*
X761569Y462639I8225J8211D01*
G01*
X846074Y327503D02*
G03*
X844825Y326986I0J-1767D01*
G01*
X844823Y326983D02*
G03*
X844825Y326986I-2013J2017D01*
G01*
X862516Y533032D02*
G03*
X857939Y534924I-4577J-4590D01*
G01*
X862523Y533025D02*
G03*
X862516Y533032I-4584J-4584D01*
G01*
X863274Y532274D02*
G03*
X866044Y531127I2770J2770D01*
G01*
X807921Y734125D02*
G03*
X788987Y741959I-18934J-18966D01*
G01*
X807937Y734109D02*
G03*
X807921Y734125I-18950J-18950D01*
G01*
X546989Y741959D02*
G03*
X543095Y740354I0J-5528D01*
G01*
D02*
G03*
X543080Y740340I3894J-3923D01*
G01*
X823036Y540690D02*
G03*
X823046Y540681I13907J13888D01*
G01*
X817289Y554578D02*
G03*
X823036Y540690I19654J0D01*
G01*
X823055Y540671D02*
G03*
X836943Y534924I13888J13907D01*
G01*
X823046Y540681D02*
G03*
X823055Y540671I13897J13897D01*
G01*
X817289Y713207D02*
G03*
X809122Y732924I-27884J0D01*
G01*
X861460Y530460D02*
G03*
X861454Y530466I-4584J-4584D01*
G01*
X861460Y530460D02*
G03*
X861473Y530447I4584J4584D01*
G01*
X806465Y731954D02*
G03*
X788504Y739393I-17960J-17960D01*
G01*
X546996D02*
G03*
X544889Y738521I0J-2980D01*
G01*
X821813Y538286D02*
G03*
X836121Y532359I14309J14309D01*
G01*
X861454Y530466D02*
G03*
X856876Y532359I-4577J-4590D01*
G01*
X814724Y713174D02*
G03*
X807284Y731134I-25400J0D01*
G01*
X820470Y539628D02*
G03*
X820480Y539618I13907J13888D01*
G01*
X814724Y553515D02*
G03*
X820470Y539628I19654J0D01*
G01*
X749059Y714408D02*
G03*
X741934Y721533I-7125J0D01*
G01*
X652780D02*
G03*
X643954Y719321I0J-18718D01*
G01*
X741934Y706755D02*
G03*
X749059Y713880I0J7125D01*
G01*
X627324Y707111D02*
G03*
X632924Y709430I0J7919D01*
G01*
X565634Y722387D02*
G03*
X560604Y720308I0J-7125D01*
G01*
X603143Y720324D02*
G03*
X598130Y722387I-5013J-5063D01*
G01*
X545594Y705298D02*
G03*
X545596Y705300I-1816J1812D01*
G01*
X545591Y705295D02*
G03*
X545594Y705298I-6852J6852D01*
G01*
X545591Y705295D02*
G03*
X543900Y702598I5038J-5038D01*
G01*
X614392Y709076D02*
G03*
X619136Y707111I4745J4745D01*
G01*
X652756Y724098D02*
G03*
X642423Y721413I0J-21225D01*
G01*
X751624Y714408D02*
G03*
X741934Y724098I-9690J0D01*
G01*
X751624Y713880D02*
G03*
X758749Y706755I7125J0D01*
G01*
X626262Y709676D02*
G03*
X631856Y711990I0J7919D01*
G01*
X565634Y724952D02*
G03*
X558792Y722124I0J-9690D01*
G01*
X604941Y722154D02*
G03*
X598130Y724952I-6811J-6892D01*
G01*
X543782Y707114D02*
G03*
X543780Y707112I1809J-1819D01*
G01*
D02*
G03*
X543777Y707109I6849J-6854D01*
G01*
X541092Y705422D02*
G03*
X543777Y707109I-2353J6725D01*
G01*
X615454Y711641D02*
G03*
X620199Y709676I4745J4745D01*
G01*
X642423Y721413D02*
G03*
X637747Y717881I10333J-18540D01*
G01*
X643954Y719321D02*
G03*
X639544Y716050I8826J-16507D01*
G01*
X604268Y705294D02*
G03*
X598848Y707331I-5420J-6191D01*
G01*
X604667Y704921D02*
G03*
X604560Y705026I-5818J-5818D01*
G01*
X610348Y696060D02*
G03*
X608265Y701323I-7121J225D01*
G01*
X574253Y714034D02*
G03*
X574082Y714032I0J-7125D01*
G01*
X570012Y712634D02*
G03*
X569205Y711937I4242J-5724D01*
G01*
X592074Y710692D02*
G03*
X584006Y714034I-8068J-8068D01*
G01*
X554096Y696827D02*
G03*
X552395Y694103I5038J-5038D01*
G01*
X593040Y709726D02*
G03*
X598835Y707331I5795J5813D01*
G01*
X593031Y709736D02*
G03*
X593040Y709726I5804J5804D01*
G01*
X605326Y707863D02*
G03*
X599908Y709897I-5418J-6201D01*
G01*
X593864Y712530D02*
G03*
X584040Y716599I-9823J-9823D01*
G01*
X610079Y703137D02*
G03*
X615348Y701054I5038J5038D01*
G01*
X574253Y716599D02*
G03*
X574035Y716597I0J-9690D01*
G01*
X572301Y716558D02*
G03*
X569878Y715728I95J-4228D01*
G01*
X568484Y714695D02*
G03*
X567392Y713752I5769J-7786D01*
G01*
D02*
G03*
X567391Y713750I6861J-6843D01*
G01*
X552287Y698646D02*
G03*
X552284Y698644I1809J-1819D01*
G01*
X549557Y696941D02*
G03*
X552282Y698641I-2314J6739D01*
G01*
X594835Y711559D02*
G03*
X598848Y709897I4013J4013D01*
G01*
X605620Y707594D02*
G03*
X605326Y707863I-5712J-5932D01*
G01*
X605623Y707591D02*
G03*
X605620Y707594I-5714J-5929D01*
G01*
X605731Y707485D02*
G03*
X605718Y707498I-5823J-5823D01*
G01*
D02*
G03*
X605623Y707591I-5810J-5836D01*
G01*
X610079Y703137D02*
G03*
X610073Y703143I-6852J-6852D01*
G01*
D02*
G03*
X610072Y703144I-1808J-1820D01*
G01*
X552284Y698644D02*
G03*
X552282Y698641I6849J-6854D01*
G01*
X604560Y705026D02*
G03*
X604268Y705294I-5712J-5923D01*
G01*
X572359Y713993D02*
G03*
X571406Y713666I37J-1663D01*
G01*
X399288Y733806D02*
G03*
X399251Y734226I-2439J-1D01*
G01*
X578147Y690923D02*
G03*
X577017Y690455I0J-1598D01*
G01*
X479260Y695375D02*
G03*
X480509Y695892I0J1767D01*
G01*
X475462Y697709D02*
G03*
X475822Y696837I1236J0D01*
G01*
X475462Y697709D02*
G03*
X475101Y698581I-1236J0D01*
G01*
X475822Y696837D02*
G03*
X475824Y696835I876J872D01*
G01*
X475101Y698581D02*
G03*
X475100Y698583I-876J-872D01*
G01*
X476947Y695712D02*
G03*
X477861Y695334I915J917D01*
G01*
X476945Y695713D02*
G03*
X476947Y695712I916J916D01*
G01*
X477951Y692327D02*
G03*
X476886Y692768I-1065J-1065D01*
G01*
X479184Y691094D02*
G03*
X480314Y690626I1130J1130D01*
G01*
X474008Y695023D02*
G03*
X473136Y695383I-872J-876D01*
G01*
X472264Y695743D02*
G03*
X473136Y695383I872J876D01*
G01*
X474010Y695021D02*
G03*
X474008Y695023I-874J-874D01*
G01*
X472262Y695745D02*
G03*
X472264Y695743I874J874D01*
G01*
X476477Y692936D02*
G03*
X476715Y692827I656J1117D01*
G01*
X475563Y693468D02*
G03*
X475924Y693217I909J923D01*
G01*
X476477Y692936D02*
G03*
X476100Y693135I-2016J-3359D01*
G01*
X878450Y680704D02*
G03*
X878791Y681303I-916J916D01*
G01*
X878450Y680704D02*
G03*
X878291Y680535I2730J-2730D01*
G01*
X874661Y676440D02*
G03*
X874687Y676468I-932J900D01*
G01*
X874586Y676363D02*
G03*
X873671Y675279I7719J-7452D01*
G01*
X872635Y674762D02*
G03*
X873671Y675279I0J1295D01*
G01*
X872114Y674803D02*
G03*
X870645Y675411I-1469J-1469D01*
G01*
X880864Y679230D02*
G03*
X880211Y678833I317J-1256D01*
G01*
X876507Y674659D02*
G03*
X876612Y674772I-2778J2681D01*
G01*
X876439Y674588D02*
G03*
X875593Y673557I5867J-5677D01*
G01*
X873583Y671629D02*
G03*
X874649Y672189I0J1295D01*
G01*
X873583Y671629D02*
G03*
X872114Y671021I0J-2077D01*
G01*
X870645Y670413D02*
G03*
X872114Y671021I0J2077D01*
G01*
X848977Y711062D02*
G03*
X847940Y710542I0J-1295D01*
G01*
X847021Y709457D02*
G03*
X847940Y710542I-7715J7456D01*
G01*
X847013Y709448D02*
G03*
X846865Y709257I947J-884D01*
G01*
X845238Y706856D02*
G03*
X845761Y707511I-2740J2720D01*
G01*
X845237Y706855D02*
G03*
X845238Y706856I-2739J2721D01*
G01*
X841046Y702663D02*
G03*
X840706Y702064I916J-916D01*
G01*
X850967Y715411D02*
G03*
X849498Y714803I0J-2077D01*
G01*
X848029Y714195D02*
G03*
X849498Y714803I0J2077D01*
G01*
X848029Y714195D02*
G03*
X846963Y713635I0J-1295D01*
G01*
X845162Y711225D02*
G03*
X846025Y712276I-5856J5688D01*
G01*
X845155Y711217D02*
G03*
X844698Y710628I2805J-2653D01*
G01*
X843421Y708667D02*
G03*
X843593Y708883I-923J909D01*
G01*
X839238Y704483D02*
G03*
X839237Y704483I1808J-1820D01*
G01*
D02*
G03*
X839232Y704477I1809J-1819D01*
G01*
X838633Y704137D02*
G03*
X839232Y704477I-317J1256D01*
G01*
X844663Y549952D02*
G03*
X843034Y550625I-1629J-1635D01*
G01*
X840167Y551622D02*
G03*
X842576Y550625I2410J2416D01*
G01*
X835682Y559963D02*
G03*
X838407Y553381I9313J0D01*
G01*
X844825Y549790D02*
G03*
X846074Y549273I1249J1249D01*
G01*
X814332Y740336D02*
G03*
X796371Y747775I-17960J-17960D01*
G01*
X824245Y726298D02*
G03*
X817950Y736717I-24255J-7541D01*
G01*
X538868Y747775D02*
G03*
X535971Y746575I0J-4097D01*
G01*
X835682Y576171D02*
G03*
X830431Y588849I-17929J0D01*
G01*
X825390Y718757D02*
G03*
X824245Y726298I-25400J0D01*
G01*
X830416Y588864D02*
G03*
X830431Y588849I12187J12156D01*
G01*
X825390Y601020D02*
G03*
X830416Y588864I17213J0D01*
G01*
X846074Y554543D02*
G03*
X844825Y554025I0J-1767D01*
G01*
X838248Y576373D02*
G03*
X832388Y590520I-20008J0D01*
G01*
X838248Y559981D02*
G03*
X840232Y555184I6790J0D01*
G01*
X843108Y553191D02*
G03*
X844614Y553815I0J2130D01*
G01*
X841602D02*
G03*
X843108Y553191I1506J1506D01*
G01*
X538852Y750341D02*
G03*
X534175Y748407I0J-6624D01*
G01*
X816113Y742183D02*
G03*
X796417Y750341I-19696J-19696D01*
G01*
X826841Y726593D02*
G03*
X819788Y738507I-26770J-7803D01*
G01*
X827955Y718790D02*
G03*
X826841Y726593I-27884J0D01*
G01*
X827955Y601221D02*
G03*
X832388Y590520I15134J0D01*
G01*
X844666Y549949D02*
G03*
X844663Y549952I-1632J-1632D01*
G01*
X838407Y553381D02*
G03*
X838410Y553378I6589J6582D01*
G01*
X840163Y551625D02*
G03*
X840167Y551622I2413J2413D01*
G01*
X840232Y555184D02*
G03*
X840237Y555179I4806J4797D01*
G01*
X534175Y748407D02*
G03*
X534168Y748401I4677J-4690D01*
G01*
X803270Y548615D02*
G03*
X811440Y528872I27942J0D01*
G01*
X643678Y730617D02*
G03*
X639618Y728934I0J-5743D01*
G01*
X798315Y725685D02*
G03*
X786393Y730617I-11923J-11946D01*
G01*
X634252Y726427D02*
G03*
X639132Y728449I0J6901D01*
G01*
X632488Y726427D02*
G03*
X631572Y726048I0J-1295D01*
G01*
X803270Y713739D02*
G03*
X798327Y725673I-16878J0D01*
G01*
X631572Y726048D02*
G03*
X631193Y725132I916J-916D01*
G01*
X630686Y723722D02*
G03*
X631193Y724948I-1232J1227D01*
G01*
X630683Y723719D02*
G03*
X630686Y723722I-1229J1229D01*
G01*
X816883Y523428D02*
G03*
X833307Y516625I16423J16423D01*
G01*
X805836Y548625D02*
G03*
X813275Y530664I25400J0D01*
G01*
X805836Y713757D02*
G03*
X800156Y727471I-19399J0D01*
G01*
X643658Y733182D02*
G03*
X637830Y730775I0J-8260D01*
G01*
X631193Y730472D02*
G03*
X630686Y731698I-1738J0D01*
G01*
D02*
G03*
X630683Y731701I-1232J-1227D01*
G01*
X799378Y728250D02*
G03*
X787455Y733182I-11923J-11946D01*
G01*
X634238Y728993D02*
G03*
X637324Y730269I0J4369D01*
G01*
X631193Y730288D02*
G03*
X631572Y729372I1295J0D01*
G01*
D02*
G03*
X632488Y728993I916J916D01*
G01*
X817952Y525987D02*
G03*
X834369Y519191I16417J16430D01*
G01*
X817946Y525993D02*
G03*
X817952Y525987I16423J16423D01*
G01*
X811440Y528872D02*
G03*
X811454Y528857I19773J19743D01*
G01*
X798327Y725673D02*
G03*
X798315Y725685I-11934J-11934D01*
G01*
X800156Y727471D02*
G03*
X800154Y727474I-13720J-13715D01*
G01*
X637830Y730775D02*
G03*
X637818Y730763I5828J-5853D01*
G01*
X799390Y728239D02*
G03*
X799378Y728250I-11934J-11934D01*
G01*
X637324Y730269D02*
G03*
X637328Y730272I-3086J3093D01*
G01*
X805931Y499063D02*
G03*
X800502Y512169I-18535J0D01*
G01*
X800916Y455150D02*
G03*
X805931Y467258I-12109J12109D01*
G01*
X803604Y367590D02*
G03*
X821564Y360151I17960J17960D01*
G01*
X842809D02*
G03*
X844823Y360984I0J2850D01*
G01*
X738915Y647695D02*
G03*
X719220Y655853I-19696J-19696D01*
G01*
X793187Y526566D02*
G03*
X798190Y514482I17097J0D01*
G01*
X795855Y450089D02*
G03*
X788416Y432129I17960J-17960D01*
G01*
Y393299D02*
G03*
X795855Y375339I25400J0D01*
G01*
X793187Y581873D02*
G03*
X785021Y601590I-27884J0D01*
G01*
X801797Y365769D02*
G03*
X821555Y357585I19758J19758D01*
G01*
X844823Y356753D02*
G03*
X842809Y357585I-2013J-2017D01*
G01*
X803366Y499022D02*
G03*
X798660Y510384I-16069J0D01*
G01*
X737134Y645848D02*
G03*
X719174Y653288I-17960J-17960D01*
G01*
X790622Y526544D02*
G03*
X796350Y512694I19608J0D01*
G01*
X794032Y451894D02*
G03*
X785851Y432142I19751J-19751D01*
G01*
Y392991D02*
G03*
X793813Y373753I27222J0D01*
G01*
X790622Y581839D02*
G03*
X783183Y599800I-25400J0D01*
G01*
X846074Y361503D02*
G03*
X844825Y360985I0J-1767D01*
G01*
X844823Y360984D02*
G03*
X844825Y360985I-2013J2017D01*
G01*
X798190Y514482D02*
G03*
X798195Y514477I12094J12084D01*
G01*
X799083Y456945D02*
G03*
X803366Y467290I-10352J10345D01*
G01*
X799080Y456941D02*
G03*
X799083Y456945I-10349J10349D01*
G01*
X844825Y356750D02*
G03*
X844823Y356753I-2015J-2015D01*
G01*
X844825Y356750D02*
G03*
X846074Y356233I1249J1249D01*
G01*
X796350Y512694D02*
G03*
X796365Y512679I13880J13850D01*
G01*
X583523Y634771D02*
G03*
X588931Y637009I0J7653D01*
G01*
X780724Y516152D02*
G03*
X779242Y512572I3585J-3580D01*
G01*
X780726Y516155D02*
G03*
X780724Y516152I3583J-3583D01*
G01*
X781376Y462352D02*
G03*
X778256Y454814I7546J-7538D01*
G01*
Y374757D02*
G03*
X785695Y356796I25400J0D01*
G01*
X779242Y494725D02*
G03*
X781878Y488355I9018J0D01*
G01*
X780729Y516157D02*
G03*
X783723Y523385I-7228J7228D01*
G01*
X573204Y639039D02*
G03*
X583523Y634771I10319J10341D01*
G01*
X604738Y646430D02*
G03*
X593836Y641914I0J-15418D01*
G01*
X729328Y638263D02*
G03*
X709611Y646430I-19717J-19717D01*
G01*
X796966Y345526D02*
G03*
X814926Y338087I17960J17960D01*
G01*
X888529D02*
G03*
X890543Y338919I0J2850D01*
G01*
X781380Y462356D02*
G03*
X781376Y462352I7542J-7542D01*
G01*
X781380Y462356D02*
G03*
X786007Y473526I-11170J11170D01*
G01*
Y478395D02*
G03*
X781892Y488340I-14076J0D01*
G01*
X783723Y572318D02*
G03*
X775556Y592035I-27884J0D01*
G01*
X583549Y632206D02*
G03*
X590731Y635181I0J10157D01*
G01*
X778897Y517954D02*
G03*
X776677Y512593I5360J-5360D01*
G01*
X778897Y517954D02*
G03*
X778902Y517958I-5457J5457D01*
G01*
X779546Y464150D02*
G03*
X775691Y454842I9308J-9308D01*
G01*
Y374748D02*
G03*
X783860Y355004I27942J0D01*
G01*
X776677Y494703D02*
G03*
X780050Y486555I11529J0D01*
G01*
X571660Y636956D02*
G03*
X583137Y632206I11478J11492D01*
G01*
X604767Y643865D02*
G03*
X595630Y640080I0J-12921D01*
G01*
X727538Y636425D02*
G03*
X709578Y643865I-17960J-17960D01*
G01*
X890543Y334688D02*
G03*
X888529Y335521I-2013J-2017D01*
G01*
X783441Y478380D02*
G03*
X780059Y486545I-11547J0D01*
G01*
X780050Y486555D02*
G03*
X780054Y486550I8157J8148D01*
G01*
X795159Y343705D02*
G03*
X814917Y335521I19758J19758D01*
G01*
X779546Y464150D02*
G03*
X783441Y473554I-9404J9404D01*
G01*
X781158Y572285D02*
G03*
X773718Y590245I-25400J0D01*
G01*
X781878Y488355D02*
G03*
X781884Y488348I6383J6370D01*
G01*
X781892Y488340D02*
G03*
X781884Y488348I-9962J-9945D01*
G01*
X891794Y339439D02*
G03*
X890545Y338922I0J-1767D01*
G01*
X890543Y338919D02*
G03*
X890545Y338922I-2013J2017D01*
G01*
X588931Y637009D02*
G03*
X588935Y637013I-5408J5415D01*
G01*
X573194Y639050D02*
G03*
X573204Y639039I10330J10330D01*
G01*
X783860Y355004D02*
G03*
X783875Y354989I19773J19743D01*
G01*
X778902Y517958D02*
G03*
X781158Y523410I-5461J5453D01*
G01*
X890545Y334687D02*
G03*
X891794Y334169I1249J1249D01*
G01*
X890545Y334687D02*
G03*
X890543Y334688I-2015J-2015D01*
G01*
X571652Y636963D02*
G03*
X571660Y636956I11485J11485D01*
G01*
X744315Y161897D02*
G03*
X762275Y154457I17960J17960D01*
G01*
X852113Y150171D02*
G03*
X841765Y154457I-10348J-10348D01*
G01*
X888529Y147333D02*
G03*
X890543Y148166I0J2850D01*
G01*
X852119Y150166D02*
G03*
X858965Y147333I6847J6858D01*
G01*
X612878Y613970D02*
G03*
X608548Y612176I0J-6124D01*
G01*
X549094Y612250D02*
G03*
X554228Y610125I5134J5141D01*
G01*
X608542Y612170D02*
G03*
X608548Y612176I-4945J4957D01*
G01*
X731920Y184100D02*
G03*
X738845Y167367I23680J0D01*
G01*
X708427Y605803D02*
G03*
X688710Y613970I-19717J-19717D01*
G01*
X603597Y610125D02*
G03*
X608542Y612170I0J7002D01*
G01*
X731920Y570760D02*
G03*
X723753Y590476I-27884J0D01*
G01*
X850334Y148322D02*
G03*
X858927Y144767I8593J8608D01*
G01*
X742523Y160061D02*
G03*
X762266Y151892I19743J19773D01*
G01*
X850319Y148337D02*
G03*
X841726Y151892I-8593J-8608D01*
G01*
X890543Y143934D02*
G03*
X888529Y144767I-2013J-2017D01*
G01*
X613941Y611404D02*
G03*
X609611Y609611I0J-6124D01*
G01*
X609609Y609609D02*
G03*
X609611Y609611I-4950J4952D01*
G01*
X604660Y607560D02*
G03*
X609609Y609609I0J7002D01*
G01*
X548028Y609688D02*
G03*
X553165Y607560I5138J5138D01*
G01*
X729355Y184072D02*
G03*
X737009Y165575I26176J0D01*
G01*
X706637Y603965D02*
G03*
X688676Y611404I-17960J-17960D01*
G01*
X729355Y570726D02*
G03*
X721915Y588686I-25400J0D01*
G01*
X891794Y148685D02*
G03*
X890545Y148167I0J-1767D01*
G01*
X890543Y148166D02*
G03*
X890545Y148167I-2013J2017D01*
G01*
X852113Y150171D02*
G03*
X852119Y150166I6852J6852D01*
G01*
X549090Y612253D02*
G03*
X549094Y612250I5138J5138D01*
G01*
X738845Y167367D02*
G03*
X738856Y167356I16755J16733D01*
G01*
X850326Y148330D02*
G03*
X850334Y148322I8600J8600D01*
G01*
X742508Y160076D02*
G03*
X742523Y160061I19758J19758D01*
G01*
X850326Y148330D02*
G03*
X850319Y148337I-8600J-8600D01*
G01*
X890545Y143933D02*
G03*
X890543Y143934I-2015J-2015D01*
G01*
X890545Y143933D02*
G03*
X891794Y143415I1249J1249D01*
G01*
X737009Y165575D02*
G03*
X737022Y165562I18522J18497D01*
G01*
X842809Y135397D02*
G03*
X844823Y136229I0J2850D01*
G01*
X798388Y122199D02*
G03*
X812505Y128047I0J19964D01*
G01*
X729359Y129161D02*
G03*
X746181Y122199I16822J16844D01*
G01*
X636525Y602855D02*
G03*
X637441Y602476I916J916D01*
G01*
X636146Y603771D02*
G03*
X636525Y602855I1295J0D01*
G01*
X636146Y603955D02*
G03*
X635639Y605182I-1738J0D01*
G01*
D02*
G03*
X635637Y605184I-1232J-1227D01*
G01*
X717042Y149021D02*
G03*
X722376Y136144I18211J0D01*
G01*
X729348Y129172D02*
G03*
X729359Y129161I16833J16833D01*
G01*
X703751Y594309D02*
G03*
X684034Y602476I-19717J-19717D01*
G01*
X717042Y569894D02*
G03*
X709176Y588884I-26855J0D01*
G01*
X812519Y128061D02*
G03*
X812507Y128049I17727J-17750D01*
G01*
X830246Y135397D02*
G03*
X812519Y128061I0J-25086D01*
G01*
X844823Y131999D02*
G03*
X842809Y132831I-2013J-2017D01*
G01*
X798423Y119634D02*
G03*
X814294Y126208I0J22445D01*
G01*
X637441Y599911D02*
G03*
X636525Y599531I0J-1295D01*
G01*
D02*
G03*
X636146Y598615I916J-916D01*
G01*
X635639Y597205D02*
G03*
X636146Y598432I-1232J1227D01*
G01*
X635637Y597202D02*
G03*
X635639Y597205I-1229J1229D01*
G01*
X714477Y147959D02*
G03*
X719660Y135234I18211J0D01*
G01*
X719660D02*
G03*
X719811Y135081I13028J12725D01*
G01*
X701961Y592471D02*
G03*
X684000Y599911I-17960J-17960D01*
G01*
X714477Y569843D02*
G03*
X707335Y587098I-24414J0D01*
G01*
X814299Y126213D02*
G03*
X814294Y126208I15985J-15994D01*
G01*
X830284Y132831D02*
G03*
X814299Y126213I0J-22613D01*
G01*
X846074Y136749D02*
G03*
X844825Y136231I0J-1767D01*
G01*
X844823Y136229D02*
G03*
X844825Y136231I-2013J2017D01*
G01*
X844825Y131996D02*
G03*
X846074Y131479I1249J1249D01*
G01*
X844825Y131996D02*
G03*
X844823Y131999I-2015J-2015D01*
G01*
X746126Y119634D02*
G03*
X746163Y119634I37J26326D01*
G01*
X727567Y127325D02*
G03*
X746126Y119634I18596J18635D01*
G01*
X727547Y127345D02*
G03*
X727567Y127325I18616J18616D01*
G01*
X707335Y587098D02*
G03*
X707326Y587106I-17272J-17255D01*
G01*
X754380Y435913D02*
G03*
X749625Y447405I-16265J0D01*
G01*
X759419Y175001D02*
G03*
X779162Y166831I19743J19773D01*
G01*
X752890Y284956D02*
G03*
X748999Y294361I-13313J0D01*
G01*
X844823Y165998D02*
G03*
X842809Y166831I-2013J-2017D01*
G01*
X604752Y619216D02*
G03*
X601085Y617697I0J-5185D01*
G01*
X556362Y618327D02*
G03*
X561547Y616179I5186J5186D01*
G01*
X597422D02*
G03*
X601083Y617695I0J5178D01*
G01*
X747033Y453650D02*
G03*
X749616Y447414I8820J0D01*
G01*
X744231Y303956D02*
G03*
X747638Y295722I11652J0D01*
G01*
X747033Y570646D02*
G03*
X739593Y588606I-25400J0D01*
G01*
X716423Y611777D02*
G03*
X698463Y619216I-17960J-17960D01*
G01*
X752890Y189669D02*
G03*
X758646Y175774I19652J0D01*
G01*
X751885Y377417D02*
G03*
X756945Y389633I-12216J12216D01*
G01*
X756945Y435957D02*
G03*
X751461Y449197I-18725J0D01*
G01*
X755455Y284977D02*
G03*
X750828Y296160I-15826J0D01*
G01*
D02*
G03*
X750820Y296168I-11199J-11182D01*
G01*
X761211Y176836D02*
G03*
X779172Y169397I17960J17960D01*
G01*
X842809D02*
G03*
X844823Y170229I0J2850D01*
G01*
X604743Y621781D02*
G03*
X599277Y619517I0J-7731D01*
G01*
X557428Y620888D02*
G03*
X562610Y618744I5182J5190D01*
G01*
X597410D02*
G03*
X599277Y619517I0J2640D01*
G01*
X749598Y453694D02*
G03*
X751461Y449197I6360J0D01*
G01*
X751871Y377403D02*
G03*
X746796Y365151I12251J-12251D01*
G01*
X749598Y570680D02*
G03*
X741431Y590396I-27884J0D01*
G01*
X718213Y613614D02*
G03*
X698496Y621781I-19717J-19717D01*
G01*
X746796Y303971D02*
G03*
X749468Y297520I9124J0D01*
G01*
X755455Y190732D02*
G03*
X761211Y176836I19652J0D01*
G01*
X750050Y379210D02*
G03*
X754380Y389664I-10453J10453D01*
G01*
X759404Y175015D02*
G03*
X759419Y175001I19758J19758D01*
G01*
X749625Y447405D02*
G03*
X749616Y447414I-11510J-11492D01*
G01*
X750050Y379210D02*
G03*
X750029Y379189I14049J-14049D01*
G01*
X748999Y294361D02*
G03*
X748990Y294370I-9422J-9406D01*
G01*
X844825Y165996D02*
G03*
X844823Y165998I-2015J-2015D01*
G01*
X844825Y165996D02*
G03*
X846074Y165479I1249J1249D01*
G01*
X750029Y379189D02*
G03*
X744231Y365192I14071J-14028D01*
G01*
X747638Y295722D02*
G03*
X747643Y295717I8245J8234D01*
G01*
X744231Y365192D02*
G03*
X744231Y365161I19869J-32D01*
G01*
X846074Y170749D02*
G03*
X844825Y170231I0J-1767D01*
G01*
X844823Y170229D02*
G03*
X844825Y170231I-2013J2017D01*
G01*
X557424Y620892D02*
G03*
X557428Y620888I5186J5186D01*
G01*
X559769Y734593D02*
G03*
X550445Y730732I0J-13189D01*
G01*
X608820Y731792D02*
G03*
X602057Y734593I-6762J-6762D01*
G01*
X609276Y731337D02*
G03*
X614934Y728993I5659J5659D01*
G01*
X617192D02*
G03*
X618108Y729372I0J1295D01*
G01*
X618995Y731698D02*
G03*
X618488Y730472I1232J-1227D01*
G01*
X618997Y731701D02*
G03*
X618995Y731698I1229J-1229D01*
G01*
X560349Y732028D02*
G03*
X551861Y728520I0J-12023D01*
G01*
X607024Y729960D02*
G03*
X602031Y732028I-4993J-4993D01*
G01*
X607473Y729511D02*
G03*
X614917Y726427I7444J7444D01*
G01*
X618108Y726048D02*
G03*
X617192Y726427I-916J-916D01*
G01*
X618488Y725132D02*
G03*
X618108Y726048I-1295J0D01*
G01*
X618995Y723722D02*
G03*
X618997Y723719I1232J1227D01*
G01*
X618488Y724948D02*
G03*
X618995Y723722I1738J0D01*
G01*
X551861Y728520D02*
G03*
X551847Y728506I8488J-8516D01*
G01*
X618108Y729372D02*
G03*
X618488Y730288I-916J916D01*
G01*
X728751Y691769D02*
G03*
X721627Y684644I0J-7125D01*
G01*
X721611Y684088D02*
G03*
X721627Y684644I-9674J556D01*
G01*
X720221Y671488D02*
G03*
X721102Y675016I-8794J4070D01*
G01*
X588558Y700317D02*
G03*
X583536Y702388I-5022J-5054D01*
G01*
X579580D02*
G03*
X574551Y700310I0J-7125D01*
G01*
X562574Y688333D02*
G03*
X562568Y688327I5028J-5048D01*
G01*
X562566Y688325D02*
G03*
X562568Y688327I-1816J1812D01*
G01*
X562564Y688323D02*
G03*
X562566Y688325I-6852J6852D01*
G01*
X562564Y688323D02*
G03*
X560873Y685626I5038J-5038D01*
G01*
X717085Y666975D02*
G03*
X720145Y671324I-10965J10965D01*
G01*
X708532Y663423D02*
G03*
X717068Y666958I0J12072D01*
G01*
X622625Y666251D02*
G03*
X629466Y663423I6842J6862D01*
G01*
X719050Y684245D02*
G03*
X711937Y691769I-7114J399D01*
G01*
X717893Y672566D02*
G03*
X718540Y675160I-6466J2993D01*
G01*
X717823Y672420D02*
G03*
X717885Y672550I-6397J3137D01*
G01*
X715264Y668782D02*
G03*
X717823Y672420I-9168J9168D01*
G01*
X579580Y704953D02*
G03*
X572739Y702125I0J-9690D01*
G01*
X590366Y702137D02*
G03*
X583536Y704953I-6830J-6873D01*
G01*
X560762Y690148D02*
G03*
X560750Y690137I6840J-6864D01*
G01*
X558053Y688445D02*
G03*
X560750Y690137I-2341J6729D01*
G01*
X624437Y668066D02*
G03*
X629466Y665988I5029J5047D01*
G01*
X691111Y699636D02*
G03*
X692173Y695233I9690J8D01*
G01*
X691111Y699636D02*
G03*
X683986Y706755I-7125J-6D01*
G01*
X683697Y674671D02*
G03*
X689102Y676910I0J7645D01*
G01*
X624332Y692070D02*
G03*
X626415Y686801I7121J-231D01*
G01*
X636467Y676749D02*
G03*
X641496Y674671I5029J5047D01*
G01*
X700308Y706752D02*
G03*
X694460Y696396I493J-7108D01*
G01*
X624601Y684987D02*
G03*
X619338Y687070I-5038J-5038D01*
G01*
X624601Y684987D02*
G03*
X624610Y684978I6852J6852D01*
G01*
X683720Y672106D02*
G03*
X690899Y675079I0J10153D01*
G01*
X634654Y674934D02*
G03*
X641496Y672106I6842J6862D01*
G01*
X691594Y679402D02*
G03*
X693543Y684107I-4705J4705D01*
G01*
X692983Y692294D02*
G03*
X692173Y695233I-7640J-525D01*
G01*
X626421Y686795D02*
G03*
X626415Y686801I-6858J-6846D01*
G01*
X626425Y686791D02*
G03*
X626421Y686795I-1824J-1804D01*
G01*
X695542Y692470D02*
G03*
X694460Y696396I-10199J-701D01*
G01*
X694159Y678339D02*
G03*
X696108Y683044I-4705J4705D01*
G01*
X540960Y603411D02*
G03*
X543186Y602489I2226J2226D01*
G01*
X622146Y602476D02*
G03*
X623062Y602855I0J1295D01*
G01*
X623948Y605182D02*
G03*
X623441Y603955I1232J-1227D01*
G01*
X623950Y605184D02*
G03*
X623948Y605182I1229J-1229D01*
G01*
X539162Y601580D02*
G03*
X543173Y599923I4010J4024D01*
G01*
X623062Y599531D02*
G03*
X622146Y599911I-916J-916D01*
G01*
X623441Y598615D02*
G03*
X623062Y599531I-1295J0D01*
G01*
X623948Y597205D02*
G03*
X623950Y597202I1232J1227D01*
G01*
X623441Y598432D02*
G03*
X623948Y597205I1738J0D01*
G01*
X539156Y601587D02*
G03*
X539162Y601580I4017J4017D01*
G01*
X623062Y602855D02*
G03*
X623441Y603771I-916J916D01*
G01*
X604290Y633997D02*
G03*
X597654Y631254I0J-9400D01*
G01*
X591545Y627889D02*
G03*
X596225Y629825I0J6625D01*
G01*
X566357Y628914D02*
G03*
X568840Y627889I2483J2494D01*
G01*
X621256Y633997D02*
G03*
X622173Y634376I0J1295D01*
G01*
X623059Y636702D02*
G03*
X622552Y635476I1232J-1227D01*
G01*
X623061Y636705D02*
G03*
X623059Y636702I1229J-1229D01*
G01*
X604315Y631431D02*
G03*
X599445Y629417I0J-6894D01*
G01*
X592607Y625323D02*
G03*
X597288Y627260I0J6625D01*
G01*
X622173Y631052D02*
G03*
X621256Y631431I-916J-916D01*
G01*
X622552Y630136D02*
G03*
X622173Y631052I-1295J0D01*
G01*
X623059Y628726D02*
G03*
X623061Y628723I1232J1227D01*
G01*
X622552Y629952D02*
G03*
X623059Y628726I1738J0D01*
G01*
X597654Y631254D02*
G03*
X597644Y631243I6636J-6657D01*
G01*
X596225Y629825D02*
G03*
X596229Y629829I-4681J4688D01*
G01*
X566351Y628919D02*
G03*
X566357Y628914I2489J2489D01*
G01*
X599445Y629417D02*
G03*
X599440Y629412I4870J-4880D01*
G01*
X597288Y627260D02*
G03*
X597292Y627264I-4681J4688D01*
G01*
X564550Y627093D02*
G03*
X564566Y627077I4272J4272D01*
G01*
D02*
G03*
X568805Y625323I4257J4288D01*
G01*
D02*
G03*
X568822Y625323I18J6042D01*
G01*
X622173Y634376D02*
G03*
X622552Y635292I-916J916D01*
G01*
X846582Y695548D02*
X846649Y695481D01*
X853539D01*
X853606Y695414D01*
X868074Y690345D02*
X874962D01*
X875030Y690277D01*
X868006Y690413D02*
X868074Y690345D01*
X448620Y686465D02*
X449490Y685596D01*
X446708Y686465D02*
X448620D01*
X449490Y685596D02*
Y685596D01*
X451139Y682923D02*
Y683947D01*
Y682923D02*
X453395Y680667D01*
X449490Y685596D02*
X451139Y683947D01*
X446190Y686982D02*
X446708Y686465D01*
X874962Y695479D02*
X875030Y695547D01*
X868074Y695479D02*
X874962D01*
X868006Y695411D02*
X868074Y695479D01*
X853539Y690346D02*
X853606Y690413D01*
X846649Y690346D02*
X853539D01*
X846582Y690278D02*
X846649Y690346D01*
X452055Y686658D02*
Y686658D01*
X450434Y688279D02*
X452055Y686658D01*
X452953Y685760D02*
X453977D01*
X456233Y683504D01*
X452055Y686658D02*
X452953Y685760D01*
X449917Y690709D02*
X450434Y690191D01*
Y688279D02*
Y690191D01*
X762275Y154457D02*
X788670D01*
X801370D02*
X816610D01*
X798830Y156997D02*
X801370Y154457D01*
X795020Y156997D02*
X798830D01*
X792480Y154457D02*
X795020Y156997D01*
X788670Y154457D02*
X792480D01*
X816610D02*
X841765D01*
X762266Y151892D02*
X841726D01*
X888238Y338087D02*
X888529D01*
X882650D02*
X888238D01*
X880110Y340627D02*
X882650Y338087D01*
X876300Y340627D02*
X880110D01*
X873760Y338087D02*
X876300Y340627D01*
X869950Y338087D02*
X873760D01*
X814926D02*
X869950D01*
X592582Y655853D02*
X604520D01*
X590042Y658393D02*
X592582Y655853D01*
X586232Y658393D02*
X590042D01*
X583692Y655853D02*
X586232Y658393D01*
X579882Y655853D02*
X583692D01*
X604520D02*
X719220D01*
X573363D02*
X579882D01*
X866394Y528561D02*
X872490D01*
X875030Y526021D01*
X878840D01*
X881380Y528561D01*
X885190D01*
X866044D02*
X866394D01*
X885190D02*
X889710D01*
X629466Y665988D02*
X689378D01*
X702310D02*
X706120D01*
X699654Y668644D02*
X702310Y665988D01*
X695844Y668644D02*
X699654D01*
X693188Y665988D02*
X695844Y668644D01*
X689378Y665988D02*
X693188D01*
X706120D02*
X708519D01*
X659638Y674671D02*
X667512D01*
X670052Y677211D01*
X673862D01*
X676402Y674671D01*
X680212D01*
X683697D01*
X641496D02*
X659638D01*
X726445Y721533D02*
X730504D01*
X723905Y718993D02*
X726445Y721533D01*
X720095Y718993D02*
X723905D01*
X717555Y721533D02*
X720095Y718993D01*
X713745Y721533D02*
X717555D01*
X711205Y718993D02*
X713745Y721533D01*
X707395Y718993D02*
X711205D01*
X704725Y721662D02*
X707395Y718993D01*
X700916Y721662D02*
X704725D01*
X698246Y718993D02*
X700916Y721662D01*
X694436Y718993D02*
X698246D01*
X691896Y721533D02*
X694436Y718993D01*
X688086Y721533D02*
X691896D01*
X652780D02*
X688086D01*
X730504D02*
X741934D01*
X576580Y732028D02*
X586486D01*
X574040Y729488D02*
X576580Y732028D01*
X570230Y729488D02*
X574040D01*
X567690Y732028D02*
X570230Y729488D01*
X563880Y732028D02*
X567690D01*
X586486D02*
X602031D01*
X560349D02*
X563880D01*
X465522Y690902D02*
Y690940D01*
X465360Y691332D02*
X466966Y689726D01*
Y688720D02*
Y689726D01*
Y688720D02*
X468489Y687197D01*
X465386Y690300D02*
X466966Y688720D01*
X464710Y691982D02*
X465359Y691333D01*
X462810Y693882D02*
X464710Y691982D01*
X465359Y691333D02*
X465360Y691332D01*
X472169Y684473D02*
X472394D01*
X473126D01*
X471213D02*
X472169D01*
X473126D02*
X473643Y683955D01*
X468489Y687197D02*
X470537Y685149D01*
X468489Y687197D02*
X470548Y685138D01*
X468489Y687197D02*
X468489D01*
X470548Y685138D02*
X471213Y684473D01*
X467427Y684631D02*
X468723Y683335D01*
X467427Y684631D02*
X469399Y682659D01*
X467427Y684631D02*
X467427D01*
X469399Y681702D02*
Y682659D01*
Y681478D02*
Y681702D01*
X462540Y688512D02*
X464146Y686906D01*
X463572Y688486D02*
X465152Y686906D01*
X467427Y684631D01*
X464146Y686906D02*
X465152D01*
X469399Y680746D02*
X469917Y680229D01*
X469399Y680746D02*
Y681478D01*
X886130Y706865D02*
X889434Y703561D01*
X881605Y708729D02*
X881630D01*
X891066Y702885D02*
X891291D01*
X874649Y713635D02*
X875587Y712276D01*
X876547Y711126D02*
X877063Y710610D01*
X868006Y715411D02*
X870645D01*
X884331Y705036D02*
X887620Y701747D01*
X888296Y699890D02*
Y700115D01*
X874738Y709307D02*
X876000Y708045D01*
X880543Y706163D02*
X881605D01*
X872358Y711062D02*
X872635D01*
X872114Y711021D02*
X872358Y711062D01*
X873685Y710525D02*
X873714Y710487D01*
X868006Y710413D02*
X870645D01*
X479576Y721014D02*
X485014Y715575D01*
X478680Y718641D02*
X478680Y718640D01*
X482636Y714685D01*
X475360Y720016D02*
X475360Y720015D01*
X465227Y730149D02*
X475360Y720016D01*
X476255Y722389D02*
X476255Y722389D01*
X467496Y731148D02*
X476255Y722389D01*
X479575Y721014D02*
X479576Y721014D01*
X452767Y735181D02*
X458659D01*
X455047Y732869D02*
X458659D01*
X466861Y731783D02*
X467496Y731148D01*
X409085Y730250D02*
X429260D01*
X404461Y732165D02*
X404462Y732164D01*
X397900Y738726D02*
X404461Y732165D01*
X414900Y718226D02*
X421996Y725322D01*
X428752Y727202D02*
X441359D01*
X426535D02*
X428752D01*
X429260Y730250D02*
X440864D01*
X850967Y670413D02*
X853606D01*
X846025Y673548D02*
X846956Y672199D01*
X846958Y672197D01*
X836694Y679567D02*
X836694Y679566D01*
X837695Y678845D02*
X841234Y677075D01*
X850967Y675411D02*
X853606D01*
X849254Y674762D02*
X849498Y674803D01*
X848977Y674762D02*
X849254D01*
X838842Y681140D02*
X840005Y680558D01*
X837608Y684193D02*
X838166Y681982D01*
X838508Y681380D02*
X838509Y681380D01*
X841234Y677075D02*
X842958Y676213D01*
X833882Y680466D02*
X836093Y679908D01*
X841840Y679641D02*
X844106Y678507D01*
X840005Y680558D02*
X841840Y679641D01*
X807367Y323585D02*
X842809D01*
X766815Y533618D02*
Y569377D01*
X764994Y365958D02*
Y454370D01*
X636552Y631431D02*
X704761D01*
X635257Y629952D02*
Y630136D01*
X634747Y628723D02*
X634750Y628726D01*
X633404Y627380D02*
X634747Y628723D01*
X722721Y623992D02*
X759376Y587337D01*
X758165Y470857D02*
Y512733D01*
X763241Y524989D02*
X763242Y524990D01*
X774999Y348007D02*
X789416Y333590D01*
X769381Y533588D02*
Y569411D01*
X767560Y365968D02*
Y454387D01*
X807376Y326151D02*
X842809D01*
X635257Y635292D02*
Y635476D01*
X636552Y633997D02*
X704807D01*
X633404Y638048D02*
X634747Y636705D01*
X634750Y636702D01*
X763393Y464443D02*
X763395Y464441D01*
X724503Y625839D02*
X761214Y589128D01*
X760730Y470872D02*
Y512703D01*
X773178Y346200D02*
X787609Y331769D01*
X891062Y532479D02*
X891794D01*
X836943Y534924D02*
X857939D01*
X862523Y533025D02*
X863274Y532274D01*
X889710Y531127D02*
X891062Y532479D01*
X866044Y531127D02*
X889710D01*
X546989Y741959D02*
X788987D01*
X807937Y734109D02*
X809122Y732924D01*
X525266Y722526D02*
X543080Y740340D01*
X524242Y722526D02*
X525266D01*
X817289Y554578D02*
Y713207D01*
X521986Y720269D02*
X524242Y722526D01*
X861460Y530460D02*
Y530460D01*
X891062Y527209D02*
X891794D01*
X889710Y528561D02*
X891062Y527209D01*
X546996Y739393D02*
X788504D01*
X806465Y731954D02*
X807284Y731134D01*
X544889Y738520D02*
X544889Y738521D01*
X527080Y720712D02*
X544889Y738520D01*
X527080Y719688D02*
Y720712D01*
X524824Y717432D02*
X527080Y719688D01*
X820480Y539618D02*
X821813Y538286D01*
X836121Y532359D02*
X856876D01*
X814724Y553515D02*
Y713174D01*
X749059Y713880D02*
Y714408D01*
X740334Y706755D02*
X741934D01*
X619136Y707111D02*
X627324D01*
X565634Y722387D02*
X598130D01*
X545596Y705300D02*
X560604Y720308D01*
X541779Y700477D02*
X543900Y702598D01*
X603143Y720324D02*
X614392Y709076D01*
X603143Y720324D02*
X603143Y720324D01*
X652756Y724098D02*
X741934D01*
X751624Y713880D02*
Y714408D01*
X631856Y711990D02*
X637747Y717881D01*
X758749Y706755D02*
X760349D01*
X620199Y709676D02*
X626262D01*
X565634Y724952D02*
X598130D01*
X543782Y707114D02*
X558792Y722124D01*
X541080Y705418D02*
X541092Y705422D01*
X604941Y722154D02*
X615454Y711641D01*
X538959Y703297D02*
X541080Y705418D01*
X632924Y709430D02*
X639544Y716050D01*
X610348Y696053D02*
X610348Y696060D01*
X604667Y704921D02*
X608265Y701323D01*
X574253Y714034D02*
X584006D01*
X554096Y696827D02*
X569205Y711937D01*
X550274Y691982D02*
X552395Y694103D01*
X592074Y710692D02*
X593031Y709736D01*
X598835Y707331D02*
X598848D01*
Y709897D02*
X599908D01*
X615349Y701054D02*
X617968Y701054D01*
X615348Y701054D02*
X615349D01*
X574253Y716599D02*
X584040D01*
X568484Y714695D02*
X569878Y715728D01*
X552288Y698647D02*
X567391Y713750D01*
X552287Y698646D02*
X552288Y698647D01*
X547436Y694819D02*
X549557Y696941D01*
X593864Y712530D02*
X594835Y711559D01*
X593137Y713257D02*
X593864Y712530D01*
X605731Y707485D02*
X610072Y703144D01*
X572301Y716558D02*
X574035Y716597D01*
X610348Y693434D02*
Y696053D01*
X572359Y713993D02*
X574082Y714032D01*
X570012Y712634D02*
X571406Y713666D01*
X429006Y722994D02*
Y726948D01*
X428752Y727202D02*
X429006Y726948D01*
Y730504D02*
X429260Y730250D01*
X429006Y730504D02*
Y734640D01*
X577017Y690455D02*
X577017Y690455D01*
X564409Y677847D02*
X577017Y690455D01*
X478439Y695375D02*
X479260D01*
X475822Y696837D02*
X475824Y696835D01*
X475100Y698583D02*
X475101Y698581D01*
X473205Y700477D02*
X475100Y698583D01*
X477861Y695334D02*
X478398D01*
X476945Y695713D02*
X476947Y695712D01*
X475824Y696835D02*
X476945Y695713D01*
X477951Y692327D02*
X479184Y691094D01*
X474008Y695023D02*
X474010Y695021D01*
X472262Y695745D02*
X472264Y695743D01*
X470368Y697639D02*
X472262Y695745D01*
X475924Y693217D02*
X476100Y693135D01*
X476715Y692827D02*
X476886Y692768D01*
X474010Y695021D02*
X475563Y693468D01*
X478398Y695334D02*
X478439Y695375D01*
X853301Y685106D02*
X853606Y685411D01*
X846891Y685106D02*
X853301D01*
X846586Y684800D02*
X846891Y685106D01*
X868006Y700413D02*
X868208Y700615D01*
X874828D01*
X875030Y700817D01*
X874687Y676468D02*
X874692Y676474D01*
X874586Y676363D02*
X874661Y676440D01*
X872358Y674762D02*
X872635D01*
X872114Y674803D02*
X872358Y674762D01*
X868006Y675411D02*
X870645D01*
X880045Y678646D02*
X880211Y678833D01*
X876612Y674772D02*
X879398Y677916D01*
X876439Y674588D02*
X876507Y674659D01*
X874649Y672189D02*
X875593Y673557D01*
X868006Y670413D02*
X870645D01*
X878791Y681303D02*
X879348Y683514D01*
X877357Y679480D02*
X878291Y680535D01*
X874692Y676474D02*
X877357Y679480D01*
X880864Y679230D02*
X883074Y679788D01*
X879398Y677916D02*
X880045Y678646D01*
X848977Y711062D02*
X849254D01*
X847013Y709448D02*
X847021Y709457D01*
X845761Y707511D02*
X846865Y709257D01*
X845237Y706855D02*
X845238Y706856D01*
X841046Y702663D02*
X845237Y706855D01*
X840148Y699854D02*
X840706Y702064D01*
X850967Y715411D02*
X853606D01*
X846025Y712276D02*
X846963Y713635D01*
X845155Y711217D02*
X845162Y711225D01*
X843593Y708883D02*
X844698Y710628D01*
X843421Y708666D02*
X843421Y708667D01*
X839238Y704483D02*
X843421Y708666D01*
X839237Y704483D02*
X839238Y704483D01*
X836422Y703580D02*
X838633Y704137D01*
X849254Y711062D02*
X849409Y711110D01*
X842576Y550625D02*
X843034D01*
X844666Y549949D02*
X844825Y549790D01*
X538868Y747775D02*
X796371D01*
X814332Y740336D02*
X817950Y736717D01*
X518585Y729189D02*
X535971Y746575D01*
X835682Y559963D02*
Y576171D01*
X825390Y601020D02*
Y718757D01*
X838248Y559981D02*
Y576373D01*
X844614Y553815D02*
X844825Y554025D01*
X840237Y555179D02*
X841602Y553815D01*
X538852Y750341D02*
X796417D01*
X816113Y742183D02*
X819788Y738507D01*
X827955Y601221D02*
Y718790D01*
X838410Y553378D02*
X840163Y551625D01*
X518585Y728183D02*
Y729189D01*
X516329Y725927D02*
X518585Y728183D01*
X516771Y731003D02*
X534168Y748401D01*
X515765Y731003D02*
X516771D01*
X513509Y728747D02*
X515765Y731003D01*
X833307Y516625D02*
X843990D01*
X803270Y548615D02*
Y713739D01*
X643678Y730617D02*
X786393D01*
X639132Y728449D02*
X639618Y728934D01*
X632488Y726427D02*
X634252D01*
X631193Y724948D02*
Y725132D01*
X630683Y723719D02*
X630686Y723722D01*
X629340Y722376D02*
X630683Y723719D01*
X811454Y528857D02*
X816883Y523428D01*
X805836Y548625D02*
Y713757D01*
X834369Y519191D02*
X843990D01*
X643658Y733182D02*
X787455D01*
X631193Y730288D02*
Y730472D01*
X630683Y731701D02*
X630686Y731698D01*
X629340Y733044D02*
X630683Y731701D01*
X632488Y728993D02*
X634238D01*
X843990Y516625D02*
X845342Y515273D01*
X846074D01*
X845342Y520543D02*
X846074D01*
X799389Y728239D02*
X800154Y727474D01*
X843990Y519191D02*
X845342Y520543D01*
X637328Y730272D02*
X637818Y730763D01*
X813275Y530664D02*
X817946Y525993D01*
X805931Y467258D02*
Y499063D01*
X798195Y514477D02*
X800502Y512169D01*
X821564Y360151D02*
X842809D01*
X793187Y526566D02*
Y581873D01*
X738915Y647695D02*
X785021Y601590D01*
X795855Y375339D02*
X803604Y367590D01*
X795855Y450089D02*
X800916Y455150D01*
X788416Y393299D02*
Y432129D01*
X821555Y357585D02*
X842809D01*
X803366Y467290D02*
Y499022D01*
X737134Y645848D02*
X783183Y599800D01*
X572300Y653288D02*
X719174D01*
X790622Y526544D02*
Y581839D01*
X798660Y510384D02*
Y510384D01*
X796365Y512679D02*
X798660Y510384D01*
X794032Y451894D02*
X799080Y456941D01*
X793813Y373753D02*
X801797Y365769D01*
X785851Y392991D02*
Y432142D01*
X564409Y665813D02*
X566665Y663557D01*
Y662551D02*
X573363Y655853D01*
X566665Y662551D02*
Y663557D01*
X561589Y662993D02*
X563845Y660737D01*
X564851D02*
X572300Y653288D01*
X563845Y660737D02*
X564851D01*
X778256Y374757D02*
Y454814D01*
X779242Y494725D02*
Y512572D01*
X780726Y516155D02*
X780729Y516157D01*
X588935Y637013D02*
X593836Y641914D01*
X604738Y646430D02*
X709611D01*
X785695Y356796D02*
X796966Y345526D01*
X786007Y473526D02*
Y478395D01*
X783723Y523385D02*
Y572318D01*
X729328Y638263D02*
X775556Y592035D01*
X775691Y374748D02*
Y454842D01*
X776677Y494703D02*
Y512593D01*
X727538Y636425D02*
X773718Y590245D01*
X583137Y632206D02*
X583549D01*
X590731Y635181D02*
X595630Y640080D01*
X604767Y643865D02*
X709578D01*
X780054Y486550D02*
X780059Y486545D01*
X814917Y335521D02*
X888529D01*
X783441Y473554D02*
Y478380D01*
X781158Y523410D02*
Y572285D01*
X555932Y657336D02*
X558188Y655080D01*
Y654056D02*
Y655080D01*
Y654056D02*
X573194Y639050D01*
X783875Y354989D02*
X795159Y343705D01*
X553094Y654498D02*
X555350Y652242D01*
X556374D01*
X571652Y636963D01*
X738856Y167356D02*
X744315Y161897D01*
X858965Y147333D02*
X888529D01*
X612878Y613970D02*
X688710D01*
X554228Y610125D02*
X603597D01*
X731920Y184100D02*
Y570760D01*
X708427Y605803D02*
X723753Y590476D01*
X729355Y184072D02*
Y570726D01*
X858927Y144767D02*
X888529D01*
X613941Y611404D02*
X688676D01*
X553165Y607560D02*
X604660D01*
X530924Y626792D02*
X548028Y609688D01*
X706637Y603965D02*
X721915Y588686D01*
X530481Y631886D02*
X532738Y629630D01*
Y628606D02*
Y629630D01*
Y628606D02*
X549090Y612253D01*
X527644Y629048D02*
X529900Y626792D01*
X530924D01*
X737022Y165562D02*
X742508Y160076D01*
X830246Y135397D02*
X842809D01*
X746181Y122199D02*
X798388D01*
X636146Y603771D02*
Y603955D01*
X635637Y605184D02*
X635639Y605182D01*
X634294Y606527D02*
X635637Y605184D01*
X717042Y149021D02*
Y569894D01*
X722376Y136144D02*
X729348Y129172D01*
X637441Y602476D02*
X684034D01*
X703751Y594309D02*
X709176Y588884D01*
X812505Y128047D02*
X812507Y128049D01*
X830284Y132831D02*
X842809D01*
X746163Y119634D02*
X798423D01*
X637441Y599911D02*
X684000D01*
X636146Y598432D02*
Y598615D01*
X635637Y597202D02*
X635639Y597205D01*
X634294Y595859D02*
X635637Y597202D01*
X714477Y147959D02*
Y569843D01*
X719811Y135081D02*
X727547Y127345D01*
X701961Y592471D02*
X707326Y587106D01*
X754380Y389664D02*
Y435913D01*
X758646Y175774D02*
X759404Y175015D01*
X752890Y189669D02*
Y284956D01*
X779162Y166831D02*
X842809D01*
X604752Y619216D02*
X698463D01*
X601083Y617695D02*
X601085Y617697D01*
X561547Y616179D02*
X597422D01*
X550895Y623793D02*
X556362Y618327D01*
X747033Y453650D02*
Y570646D01*
X716423Y611777D02*
X739593Y588606D01*
X744231Y303956D02*
Y365161D01*
X756945Y389633D02*
Y435957D01*
X751871Y377403D02*
X751885Y377417D01*
X779172Y169397D02*
X842809D01*
X604743Y621781D02*
X698496D01*
X562610Y618744D02*
X597410D01*
X749598Y453694D02*
Y570680D01*
X749468Y297520D02*
X750820Y296168D01*
X718213Y613614D02*
X741431Y590396D01*
X746796Y303971D02*
Y365151D01*
X755455Y190732D02*
Y284977D01*
X536139Y637543D02*
X538395Y635287D01*
X539401D01*
X550895Y623793D02*
X550895D01*
X539401Y635287D02*
X550895Y623793D01*
X747644Y295717D02*
X748990Y294370D01*
X538959Y640363D02*
X541215Y638107D01*
Y637101D02*
Y638107D01*
Y637101D02*
X557424Y620892D01*
X559917Y734593D02*
X602057D01*
X533743Y714030D02*
X550445Y730732D01*
X608820Y731792D02*
X609276Y731337D01*
X614934Y728993D02*
X617192D01*
X618488Y730288D02*
Y730472D01*
X618997Y731701D02*
X620340Y733044D01*
X618995Y731698D02*
X618997Y731701D01*
X614917Y726427D02*
X617192D01*
X618488Y724948D02*
Y725132D01*
X618997Y723719D02*
X620340Y722376D01*
X618995Y723722D02*
X618997Y723719D01*
X532738Y714030D02*
X533743D01*
X530481Y711774D02*
X532738Y714030D01*
X535557Y712216D02*
X551847Y728506D01*
X535557Y711210D02*
Y712216D01*
X533301Y708954D02*
X535557Y711210D01*
X607024Y729960D02*
X607473Y729511D01*
X728751Y691769D02*
X730352D01*
X721102Y675016D02*
X721611Y684088D01*
X720151Y671339D02*
X720221Y671488D01*
X720145Y671324D02*
X720151Y671339D01*
X579580Y702388D02*
X583536D01*
X562574Y688333D02*
X574551Y700310D01*
X558751Y683504D02*
X560873Y685626D01*
X717068Y666958D02*
X717085Y666975D01*
X588558Y700317D02*
X622625Y666251D01*
X629466Y663423D02*
X708532D01*
X718540Y675160D02*
X719050Y684245D01*
X717885Y672550D02*
X717893Y672566D01*
X579580Y704953D02*
X583536D01*
X710336Y691769D02*
X711937D01*
X560762Y690148D02*
X572739Y702125D01*
X590366Y702137D02*
X624437Y668066D01*
X555932Y686324D02*
X558053Y688445D01*
X689102Y676910D02*
X691594Y679402D01*
X680339Y706755D02*
X683986D01*
X624332Y692070D02*
Y692070D01*
X624332Y694690D01*
X626424Y686791D02*
X636467Y676749D01*
X700308Y706752D02*
X700354Y706755D01*
X619332Y687070D02*
X619338Y687070D01*
X690899Y675079D02*
X694159Y678339D01*
X641496Y672106D02*
X683720D01*
X624610Y684978D02*
X634654Y674933D01*
X693543Y684107D02*
X693546Y684110D01*
X692983Y692294D02*
X693546Y684110D01*
X696111Y683047D02*
Y684286D01*
X695542Y692470D02*
X696105Y684286D01*
X696111D01*
X696108Y683044D02*
X696111Y683047D01*
X616712Y687070D02*
X619332D01*
X624912Y606908D02*
X625294Y607289D01*
X577191Y602476D02*
X622146D01*
X543186Y602489D02*
X577178D01*
X524242Y620129D02*
X540960Y603411D01*
X623441Y603771D02*
Y603955D01*
X623950Y605184D02*
X625294Y606527D01*
X623948Y605182D02*
X623950Y605184D01*
X543173Y599923D02*
X576116D01*
X576128Y599911D02*
X622146D01*
X623441Y598432D02*
Y598615D01*
X623950Y597202D02*
X625294Y595859D01*
X623948Y597205D02*
X623950Y597202D01*
X577178Y602489D02*
X577191Y602476D01*
X521986Y623391D02*
X524242Y621134D01*
Y620129D02*
Y621134D01*
X576116Y599923D02*
X576128Y599911D01*
X522428Y618315D02*
X539156Y601587D01*
X519166Y620571D02*
X521423Y618315D01*
X522428D01*
X568840Y627889D02*
X591545D01*
X604290Y633997D02*
X621256D01*
X622552Y635292D02*
Y635476D01*
X623061Y636705D02*
X624404Y638048D01*
X623059Y636702D02*
X623061Y636705D01*
X604315Y631431D02*
X621256D01*
X568822Y625323D02*
X592607D01*
X622552Y629952D02*
Y630136D01*
X623061Y628723D02*
X624404Y627380D01*
X623059Y628726D02*
X623061Y628723D01*
X596229Y629829D02*
X597644Y631243D01*
X549692Y645579D02*
X566351Y628919D01*
X547436Y648841D02*
X549692Y646584D01*
Y645579D02*
Y646584D01*
X597292Y627264D02*
X599440Y629412D01*
X547878Y643765D02*
X564550Y627093D01*
X544616Y646021D02*
X546872Y643765D01*
X547878D01*
D85*
X125658Y412830D02*
G03*
X114808Y417322I-10850J-10856D01*
G01*
X125661Y412827D02*
G03*
X125658Y412830I-10853J-10853D01*
G01*
X132334Y398256D02*
G03*
X126750Y411738I-19066J0D01*
G01*
X124895Y331294D02*
G03*
X132334Y349255I-17960J17960D01*
G01*
X124870Y331270D02*
G03*
X117431Y313309I17960J-17960D01*
G01*
X115428Y272152D02*
G03*
X117431Y279102I-11061J6950D01*
G01*
X100670Y266039D02*
G03*
X115428Y272152I0J20871D01*
G01*
X102870Y417322D02*
X114808D01*
X125661Y412827D02*
X126750Y411738D01*
X132334Y349255D02*
Y398256D01*
X124870Y331270D02*
X124895Y331294D01*
X117431Y279102D02*
Y313309D01*
X97790Y266039D02*
X100670D01*
X29650Y366844D02*
X30226Y366268D01*
X29650Y366844D02*
Y389382D01*
X40513Y389255D02*
X50673D01*
X40386Y389128D02*
X40513Y389255D01*
X50673D02*
X50800Y389382D01*
D86*
X476255Y722389D02*
D03*
X577017Y690455D02*
D03*
X720151Y671339D02*
D03*
D87*
X501475Y614913D02*
D03*
X498655Y617733D02*
D03*
X495818Y620571D02*
D03*
X492998Y623391D02*
D03*
X490160Y626228D02*
D03*
X487340Y629048D02*
D03*
X484503Y631886D02*
D03*
X481683Y634706D02*
D03*
X478845Y637543D02*
D03*
X476025Y640363D02*
D03*
X473205Y643183D02*
D03*
X470368Y646021D02*
D03*
X467548Y648840D02*
D03*
X464710Y651678D02*
D03*
X461890Y654498D02*
D03*
X459053Y657336D02*
D03*
X456233Y660156D02*
D03*
X453395Y662993D02*
D03*
X450575Y665813D02*
D03*
X513509Y728747D02*
D03*
X516329Y725927D02*
D03*
X519166Y723089D02*
D03*
X521986Y720269D02*
D03*
X524824Y717432D02*
D03*
X527644Y714612D02*
D03*
X530481Y711774D02*
D03*
X533301Y708954D02*
D03*
X536139Y706117D02*
D03*
X538959Y703297D02*
D03*
X541779Y700477D02*
D03*
X544616Y697639D02*
D03*
X547436Y694819D02*
D03*
X550274Y691982D02*
D03*
X553094Y689162D02*
D03*
X555932Y686324D02*
D03*
X558751Y683504D02*
D03*
X561589Y680667D02*
D03*
X564409Y677847D02*
D03*
D88*
X450575D02*
D03*
X453395Y680667D02*
D03*
X456233Y683504D02*
D03*
X459053Y686324D02*
D03*
X461890Y689162D02*
D03*
X464710Y691982D02*
D03*
X467548Y694819D02*
D03*
X470368Y697639D02*
D03*
X473205Y700477D02*
D03*
X476025Y703297D02*
D03*
X478845Y706117D02*
D03*
X481683Y708954D02*
D03*
X484503Y711774D02*
D03*
X487340Y714612D02*
D03*
X490160Y717432D02*
D03*
X492998Y720269D02*
D03*
X495818Y723089D02*
D03*
X498655Y725927D02*
D03*
X501475Y728747D02*
D03*
X564409Y665813D02*
D03*
X561589Y662993D02*
D03*
X558751Y660156D02*
D03*
X555932Y657336D02*
D03*
X553094Y654498D02*
D03*
X550274Y651678D02*
D03*
X547436Y648840D02*
D03*
X544616Y646021D02*
D03*
X541779Y643183D02*
D03*
X538959Y640363D02*
D03*
X536139Y637543D02*
D03*
X533301Y634706D02*
D03*
X530481Y631886D02*
D03*
X527644Y629048D02*
D03*
X524824Y626228D02*
D03*
X521986Y623391D02*
D03*
X519166Y620571D02*
D03*
X516329Y617733D02*
D03*
X513509Y614913D02*
D03*
D89*
X507492Y671830D02*
D03*
D90*
X21844Y735584D02*
D03*
X876808Y65024D02*
D03*
D91*
X103096Y419384D02*
D03*
Y411384D02*
D03*
Y415387D02*
D03*
X65095Y419384D02*
D03*
X103096Y423385D02*
D03*
Y427385D02*
D03*
Y431386D02*
D03*
X65095D02*
D03*
Y427385D02*
D03*
Y423385D02*
D03*
Y415387D02*
D03*
Y411384D02*
D03*
D92*
X91694Y421386D02*
D03*
X79695D02*
D03*
D93*
X75344Y406878D02*
D03*
X82344D02*
D03*
X89345D02*
D03*
X92845Y435895D02*
D03*
X85844D02*
D03*
X78844D02*
D03*
D94*
X85695Y421386D02*
D03*
D95*
X868006Y720413D02*
D03*
Y695411D02*
D03*
Y715411D02*
D03*
Y710413D02*
D03*
Y705411D02*
D03*
Y700413D02*
D03*
Y665411D02*
D03*
Y690413D02*
D03*
Y685411D02*
D03*
Y680413D02*
D03*
Y675411D02*
D03*
Y670413D02*
D03*
X853606Y720413D02*
D03*
Y695414D02*
D03*
Y715411D02*
D03*
Y710413D02*
D03*
Y705411D02*
D03*
Y700413D02*
D03*
Y665411D02*
D03*
Y690413D02*
D03*
Y685411D02*
D03*
Y680413D02*
D03*
Y675411D02*
D03*
Y670413D02*
D03*
D96*
X685343Y691769D02*
D03*
X710336D02*
D03*
X730352D02*
D03*
X755345D02*
D03*
X680339Y706755D02*
D03*
X700354D02*
D03*
X720344D02*
D03*
X740334D02*
D03*
X760349D02*
D03*
D97*
X784352Y692760D02*
D03*
X656336D02*
D03*
D98*
X54708Y713848D02*
D03*
D99*
X76708Y688848D02*
D03*
D100*
X104708Y736348D02*
D03*
D101*
X882306Y716913D02*
D03*
X839306D02*
D03*
Y668912D02*
D03*
X882306D02*
D03*
D102*
X109612Y84786D02*
D03*
X489612D02*
D03*
X109612Y646948D02*
D03*
X489612D02*
D03*
X109612Y366213D02*
D03*
X489612D02*
D03*
D103*
X761040Y532384D02*
D03*
X761046Y147998D02*
D03*
X760476Y339344D02*
D03*
X463979Y609896D02*
D03*
X488696D02*
D03*
X460009Y636556D02*
D03*
X424434Y646430D02*
D03*
X428752Y642620D02*
D03*
X436742Y626461D02*
D03*
X875030Y690277D02*
D03*
X846582Y695548D02*
D03*
X446190Y686982D02*
D03*
X875030Y695547D02*
D03*
X846582Y690278D02*
D03*
X449917Y690709D02*
D03*
X590296Y691896D02*
D03*
X525526Y688594D02*
D03*
X579120Y681482D02*
D03*
X593344Y683260D02*
D03*
X895604Y707136D02*
D03*
X888699Y677418D02*
D03*
X887984Y692912D02*
D03*
X883288Y688988D02*
D03*
X831873Y674878D02*
D03*
X832612Y708406D02*
D03*
X837946Y689610D02*
D03*
X841300Y694711D02*
D03*
X418590Y398397D02*
D03*
X419584Y116435D02*
D03*
X473643Y683955D02*
D03*
X469917Y680229D02*
D03*
X448063Y722832D02*
D03*
X440494Y715418D02*
D03*
X239014Y649478D02*
D03*
X239268Y644398D02*
D03*
X218440Y643890D02*
D03*
X842764Y331604D02*
D03*
X892540Y702367D02*
D03*
X888814Y698641D02*
D03*
X188602Y337640D02*
D03*
Y325956D02*
D03*
Y331544D02*
D03*
X270898Y337386D02*
D03*
Y325702D02*
D03*
Y331290D02*
D03*
X256391Y364661D02*
D03*
X180191D02*
D03*
X205591D02*
D03*
X269091D02*
D03*
X230937Y363924D02*
D03*
X225348D02*
D03*
X236525D02*
D03*
X160324D02*
D03*
X154736D02*
D03*
X149149D02*
D03*
X615527Y717109D02*
D03*
X612104Y734943D02*
D03*
X788670Y176022D02*
D03*
X395224Y617474D02*
D03*
X11176Y724154D02*
D03*
X121859Y427482D02*
D03*
X117094D02*
D03*
X37084Y422402D02*
D03*
X41942Y422337D02*
D03*
X822484Y559295D02*
D03*
X822198Y571500D02*
D03*
X798100Y560292D02*
D03*
X810198Y571500D02*
D03*
X794512Y624078D02*
D03*
X795020Y611632D02*
D03*
X742188Y598932D02*
D03*
X751332Y585978D02*
D03*
X251460Y664496D02*
D03*
X263652Y664495D02*
D03*
X205591Y645396D02*
D03*
X180191D02*
D03*
X269091Y83234D02*
D03*
X256391D02*
D03*
X205591D02*
D03*
X180191D02*
D03*
X459232Y116337D02*
D03*
X383032D02*
D03*
X464820Y665988D02*
D03*
X421132Y678499D02*
D03*
X383032D02*
D03*
X459232Y397764D02*
D03*
X383032D02*
D03*
X307340Y679972D02*
D03*
X294570D02*
D03*
X287962Y677541D02*
D03*
X300662D02*
D03*
X328168Y665734D02*
D03*
X328034Y677344D02*
D03*
Y682932D02*
D03*
Y671248D02*
D03*
X328168Y746252D02*
D03*
X328034Y734642D02*
D03*
Y729054D02*
D03*
Y740738D02*
D03*
Y606732D02*
D03*
Y618416D02*
D03*
Y612828D02*
D03*
X328168Y601218D02*
D03*
X243518Y748216D02*
D03*
X242058Y719578D02*
D03*
X242388Y628364D02*
D03*
X253170Y599254D02*
D03*
X76454Y515620D02*
D03*
X76320Y527230D02*
D03*
Y532818D02*
D03*
Y521134D02*
D03*
X81026Y515620D02*
D03*
X80892Y527230D02*
D03*
Y532818D02*
D03*
Y521134D02*
D03*
X830484Y559295D02*
D03*
X20574Y462788D02*
D03*
X833882Y680466D02*
D03*
X837608Y684193D02*
D03*
X848868Y733298D02*
D03*
X839216D02*
D03*
X829739Y730242D02*
D03*
X792480Y656082D02*
D03*
X798576D02*
D03*
X887730Y74676D02*
D03*
X879838Y83838D02*
D03*
X854538Y95676D02*
D03*
X862838Y104648D02*
D03*
X812800Y143002D02*
D03*
X824256Y144006D02*
D03*
X834136Y144526D02*
D03*
X837692Y159512D02*
D03*
X825500Y159766D02*
D03*
X811530Y160782D02*
D03*
X812038Y330962D02*
D03*
X832104Y330200D02*
D03*
X825246Y342900D02*
D03*
X831088Y350266D02*
D03*
X819912Y351536D02*
D03*
X809498Y353314D02*
D03*
X810514Y520446D02*
D03*
X816102Y536702D02*
D03*
X838498Y541293D02*
D03*
X831088Y546608D02*
D03*
X831850Y527558D02*
D03*
X513588Y659384D02*
D03*
X516128Y651002D02*
D03*
X522986Y658622D02*
D03*
X510032Y667766D02*
D03*
X502920Y650748D02*
D03*
X490220Y657352D02*
D03*
X499618Y671068D02*
D03*
X519684Y670052D02*
D03*
X508254Y704596D02*
D03*
X532892Y670814D02*
D03*
X484124Y668528D02*
D03*
X43434Y95904D02*
D03*
X48768Y90570D02*
D03*
Y95904D02*
D03*
X43434Y90570D02*
D03*
Y115570D02*
D03*
X48768Y120904D02*
D03*
Y115570D02*
D03*
X43434Y120904D02*
D03*
X97282Y259080D02*
D03*
X85672Y258946D02*
D03*
X80084D02*
D03*
X91768D02*
D03*
X96774Y236728D02*
D03*
X85164Y236594D02*
D03*
X79576D02*
D03*
X91260D02*
D03*
X54356Y236982D02*
D03*
X42746Y236848D02*
D03*
X37158D02*
D03*
X48842D02*
D03*
X34036Y477520D02*
D03*
X33902Y489130D02*
D03*
Y494718D02*
D03*
Y483034D02*
D03*
X114046Y488442D02*
D03*
Y500126D02*
D03*
Y494538D02*
D03*
X114180Y482928D02*
D03*
X16256Y432054D02*
D03*
X236525Y82498D02*
D03*
X230937D02*
D03*
X225348D02*
D03*
X160324D02*
D03*
X154736D02*
D03*
X149149D02*
D03*
X160324Y644660D02*
D03*
X154736D02*
D03*
X149149D02*
D03*
X123698Y608076D02*
D03*
X525780Y729996D02*
D03*
X554605Y708080D02*
D03*
X568248Y669349D02*
D03*
X574294Y669290D02*
D03*
X303031Y735823D02*
D03*
X308365Y741157D02*
D03*
Y735823D02*
D03*
X303031Y741157D02*
D03*
X308601Y606313D02*
D03*
X303267Y611647D02*
D03*
X308601D02*
D03*
X846074Y322233D02*
D03*
Y327503D02*
D03*
X462788Y716788D02*
D03*
X414754Y747947D02*
D03*
X407424Y739394D02*
D03*
X397764Y726948D02*
D03*
X389744Y718226D02*
D03*
X433299Y743640D02*
D03*
X424424Y713994D02*
D03*
X458724Y705612D02*
D03*
X439166Y693420D02*
D03*
X433446Y706895D02*
D03*
X425906Y699053D02*
D03*
X553102Y614238D02*
D03*
X541185Y609896D02*
D03*
X563980Y622662D02*
D03*
X571759Y631806D02*
D03*
X580674Y639076D02*
D03*
X589727Y707381D02*
D03*
X891794Y532479D02*
D03*
Y527209D02*
D03*
X536827Y740408D02*
D03*
X550041Y735476D02*
D03*
X561910Y714818D02*
D03*
X557863Y727719D02*
D03*
X481584Y595856D02*
D03*
X526288Y597154D02*
D03*
X536956Y595630D02*
D03*
X528587Y622559D02*
D03*
X540512Y626872D02*
D03*
X548334Y636576D02*
D03*
X558546Y643636D02*
D03*
X566420Y652272D02*
D03*
X544169Y714349D02*
D03*
X537178Y723005D02*
D03*
X521326Y750198D02*
D03*
X489204Y745744D02*
D03*
X486156Y735076D02*
D03*
X453204Y741358D02*
D03*
X598848Y715572D02*
D03*
X610530Y723192D02*
D03*
X300662Y646354D02*
D03*
X263144Y682752D02*
D03*
X480509Y695892D02*
D03*
X480314Y690626D02*
D03*
X483881Y700535D02*
D03*
X474460Y689577D02*
D03*
X464566Y676402D02*
D03*
X846586Y684800D02*
D03*
X875030Y700817D02*
D03*
X879348Y683514D02*
D03*
X883074Y679788D02*
D03*
X854710Y597154D02*
D03*
X833628D02*
D03*
X844296D02*
D03*
X840148Y699854D02*
D03*
X836422Y703580D02*
D03*
X860806Y705411D02*
D03*
Y680413D02*
D03*
X846074Y549273D02*
D03*
Y554543D02*
D03*
Y515273D02*
D03*
Y520543D02*
D03*
Y361503D02*
D03*
Y356233D02*
D03*
X891794Y339439D02*
D03*
Y334169D02*
D03*
Y148685D02*
D03*
Y143415D02*
D03*
X846074Y136749D02*
D03*
Y131479D02*
D03*
Y165479D02*
D03*
Y170749D02*
D03*
X776986Y558038D02*
D03*
X777240Y532130D02*
D03*
X773938Y525780D02*
D03*
X830326Y571754D02*
D03*
X827604Y583855D02*
D03*
X797560Y583946D02*
D03*
X770382Y298958D02*
D03*
X776478Y299212D02*
D03*
X778002Y107696D02*
D03*
X772414D02*
D03*
X750824Y624332D02*
D03*
X799098Y551908D02*
D03*
X872362Y458470D02*
D03*
X879862Y467868D02*
D03*
X854284Y479470D02*
D03*
X870032D02*
D03*
X735838Y486918D02*
D03*
X742134Y479901D02*
D03*
X771350Y474743D02*
D03*
X776224Y470408D02*
D03*
X812546Y404876D02*
D03*
X822706D02*
D03*
X854710D02*
D03*
X844042D02*
D03*
X833628D02*
D03*
X888746Y363474D02*
D03*
X888492Y352806D02*
D03*
X888238Y309880D02*
D03*
Y320802D02*
D03*
X870314Y286430D02*
D03*
X854284D02*
D03*
X879838Y274084D02*
D03*
X872362Y265430D02*
D03*
X799181Y358823D02*
D03*
X771288Y281830D02*
D03*
X742009Y287710D02*
D03*
X736092Y293878D02*
D03*
X742188Y96266D02*
D03*
X735584Y103124D02*
D03*
X811276Y224282D02*
D03*
X812292Y214122D02*
D03*
X822960D02*
D03*
X833628D02*
D03*
X844296D02*
D03*
X854964D02*
D03*
X827935Y203962D02*
D03*
X823304Y189836D02*
D03*
X786638Y307086D02*
D03*
X756412Y552450D02*
D03*
X769620Y482600D02*
D03*
X769366Y487934D02*
D03*
X743458Y240538D02*
D03*
X764794Y179324D02*
D03*
X783590Y173314D02*
D03*
X780796Y144018D02*
D03*
X773938Y142566D02*
D03*
X806268Y199970D02*
D03*
X787654Y113792D02*
D03*
Y136398D02*
D03*
X787610Y126959D02*
D03*
X786366Y326900D02*
D03*
X830326Y105410D02*
D03*
X818500Y105664D02*
D03*
X874522Y114554D02*
D03*
Y125222D02*
D03*
X874480Y157408D02*
D03*
X862584Y168148D02*
D03*
X848940Y199970D02*
D03*
X830834Y191008D02*
D03*
X813597Y194056D02*
D03*
X752813Y168864D02*
D03*
X818134Y295910D02*
D03*
X830468Y296306D02*
D03*
X786638Y318516D02*
D03*
X778654Y327660D02*
D03*
X785828Y364449D02*
D03*
X752856Y358648D02*
D03*
X811458Y415726D02*
D03*
X842530Y126410D02*
D03*
X842518Y141478D02*
D03*
X842530Y317164D02*
D03*
X874522Y305054D02*
D03*
Y315976D02*
D03*
X874628Y348310D02*
D03*
X862671Y358868D02*
D03*
X833628Y382778D02*
D03*
X827604Y390724D02*
D03*
X848903D02*
D03*
X806268Y390724D02*
D03*
X743966Y215392D02*
D03*
Y202438D02*
D03*
X806436Y186896D02*
D03*
X793750Y227584D02*
D03*
Y240538D02*
D03*
X810198Y381340D02*
D03*
X823339Y380832D02*
D03*
X818770Y378206D02*
D03*
X796036Y500380D02*
D03*
X787400Y500634D02*
D03*
X787542Y511048D02*
D03*
X818388Y489966D02*
D03*
X830580Y489712D02*
D03*
X874244Y518486D02*
D03*
X874268Y508000D02*
D03*
Y541202D02*
D03*
X861314Y552450D02*
D03*
X848940Y583764D02*
D03*
X895096Y137414D02*
D03*
Y154686D02*
D03*
Y345440D02*
D03*
Y328168D02*
D03*
Y521208D02*
D03*
Y538480D02*
D03*
X842518Y525272D02*
D03*
X842530Y510204D02*
D03*
X830580Y469900D02*
D03*
X818896D02*
D03*
X758698Y558038D02*
D03*
X759968Y547116D02*
D03*
X759460Y163322D02*
D03*
X776224Y87122D02*
D03*
X818896Y86360D02*
D03*
X830637Y86557D02*
D03*
X843534Y70104D02*
D03*
X848614Y103886D02*
D03*
X888746Y119380D02*
D03*
X887222Y130048D02*
D03*
X887984Y162052D02*
D03*
X888492Y172720D02*
D03*
X844622Y260930D02*
D03*
X848614Y288036D02*
D03*
X830637Y277057D02*
D03*
X818896Y278638D02*
D03*
X776224Y277876D02*
D03*
X770962Y339852D02*
D03*
X758698Y354584D02*
D03*
X758547Y364611D02*
D03*
X743458Y431038D02*
D03*
X818786Y187123D02*
D03*
X806389Y377698D02*
D03*
X793496Y416306D02*
D03*
X792988Y430276D02*
D03*
X744728Y393192D02*
D03*
X744220Y405892D02*
D03*
X888746Y556514D02*
D03*
X887984Y545846D02*
D03*
X888746Y502412D02*
D03*
X889000Y513334D02*
D03*
X842264Y453390D02*
D03*
X844042Y483616D02*
D03*
X800862Y519938D02*
D03*
X35814Y442468D02*
D03*
X51166Y419174D02*
D03*
X56339Y415083D02*
D03*
X40386Y448056D02*
D03*
M02*
