G04*
G04 #@! TF.GenerationSoftware,Altium Limited,Altium Designer,24.0.1 (36)*
G04*
G04 Layer_Color=65535*
%FSLAX44Y44*%
%MOMM*%
G71*
G04*
G04 #@! TF.SameCoordinates,834C7623-C9C0-415B-A6F5-758E7DB2E3E9*
G04*
G04*
G04 #@! TF.FilePolarity,Positive*
G04*
G01*
G75*
%ADD10C,0.2032*%
%ADD11C,0.5000*%
%ADD12C,0.2500*%
%ADD13C,0.3000*%
%ADD14C,0.2000*%
%ADD15C,0.2540*%
%ADD16C,0.2489*%
%ADD17C,0.1524*%
%ADD18C,0.1520*%
%ADD19C,0.1500*%
%ADD20C,0.5080*%
G36*
X854865Y168174D02*
X850959D01*
Y167873D01*
X847653D01*
Y167572D01*
X844347D01*
Y167272D01*
X841342D01*
Y166971D01*
X838336D01*
Y166671D01*
X835331D01*
Y166370D01*
X832326D01*
Y166070D01*
X829621D01*
Y165769D01*
X826916D01*
Y165469D01*
X824211D01*
Y165168D01*
X821507D01*
Y164868D01*
X819102D01*
Y164567D01*
X816698D01*
Y164267D01*
X814895D01*
Y163966D01*
X812791D01*
Y163666D01*
X810988D01*
Y163365D01*
X809485D01*
Y163064D01*
X808283D01*
Y162764D01*
X807081D01*
Y162463D01*
X806180D01*
Y162163D01*
X805278D01*
Y161862D01*
X804376D01*
Y161562D01*
X803775D01*
Y161261D01*
X802874D01*
Y160961D01*
X801972D01*
Y160660D01*
X801371D01*
Y160360D01*
X800470D01*
Y160059D01*
X799868D01*
Y159759D01*
X799267D01*
Y159458D01*
X798666D01*
Y159157D01*
X798065D01*
Y158857D01*
X797464D01*
Y158556D01*
X796863D01*
Y158256D01*
X796262D01*
Y157955D01*
X795661D01*
Y157655D01*
X795060D01*
Y157354D01*
X794759D01*
Y157054D01*
X794158D01*
Y156753D01*
X793858D01*
Y156453D01*
X793257D01*
Y156152D01*
X792656D01*
Y155852D01*
X792355D01*
Y155551D01*
X791754D01*
Y155251D01*
X791454D01*
Y154950D01*
X790853D01*
Y154650D01*
X790552D01*
Y154349D01*
X789951D01*
Y154049D01*
X789650D01*
Y153748D01*
X789350D01*
Y153448D01*
X788749D01*
Y153147D01*
X788448D01*
Y152846D01*
X788148D01*
Y152546D01*
X787847D01*
Y152245D01*
X787246D01*
Y151945D01*
X786946D01*
Y151644D01*
X786645D01*
Y151344D01*
X786345D01*
Y151043D01*
X786044D01*
Y150743D01*
X785443D01*
Y150442D01*
X785142D01*
Y150142D01*
X784842D01*
Y149841D01*
X784541D01*
Y149541D01*
X784241D01*
Y149240D01*
X783940D01*
Y148940D01*
X783640D01*
Y148639D01*
X783339D01*
Y148338D01*
X783039D01*
Y148038D01*
X782738D01*
Y147737D01*
X782438D01*
Y147437D01*
X782137D01*
Y147136D01*
X781837D01*
Y146836D01*
X781536D01*
Y146535D01*
X781236D01*
Y146235D01*
X780935D01*
Y145934D01*
X780635D01*
Y145634D01*
X780334D01*
Y145333D01*
X780033D01*
Y145033D01*
Y144732D01*
X779733D01*
Y144432D01*
X779432D01*
Y144131D01*
X779132D01*
Y143830D01*
X778831D01*
Y143530D01*
X778531D01*
Y143230D01*
Y142929D01*
X778230D01*
Y142628D01*
X777930D01*
Y142328D01*
X777629D01*
Y142027D01*
Y141727D01*
X777329D01*
Y141426D01*
X777028D01*
Y141126D01*
X776728D01*
Y140825D01*
Y140525D01*
X776427D01*
Y140224D01*
X776126D01*
Y139924D01*
Y139623D01*
X775826D01*
Y139323D01*
Y139022D01*
X775526D01*
Y138722D01*
X775225D01*
Y138421D01*
Y138120D01*
X774924D01*
Y137820D01*
X774624D01*
Y137519D01*
Y137219D01*
X774323D01*
Y136918D01*
X774023D01*
Y136618D01*
Y136317D01*
X773722D01*
Y136017D01*
Y135716D01*
X773422D01*
Y135416D01*
Y135115D01*
X773121D01*
Y134815D01*
X772821D01*
Y134514D01*
Y134213D01*
X772520D01*
Y133913D01*
Y133612D01*
X772220D01*
Y133312D01*
Y133011D01*
X771919D01*
Y132711D01*
Y132410D01*
X771619D01*
Y132110D01*
Y131809D01*
X771318D01*
Y131509D01*
Y131208D01*
Y130908D01*
X771018D01*
Y130607D01*
Y130307D01*
X770717D01*
Y130006D01*
Y129706D01*
Y129405D01*
X770416D01*
Y129104D01*
Y128804D01*
X770116D01*
Y128504D01*
Y128203D01*
Y127902D01*
X769815D01*
Y127602D01*
Y127301D01*
X769515D01*
Y127001D01*
Y126700D01*
Y126400D01*
X769214D01*
Y126099D01*
Y125799D01*
Y125498D01*
X768914D01*
Y125198D01*
Y124897D01*
Y124597D01*
X768613D01*
Y124296D01*
Y123996D01*
Y123695D01*
X768313D01*
Y123394D01*
Y123094D01*
Y122793D01*
Y122493D01*
X768012D01*
Y122192D01*
Y121892D01*
Y121591D01*
Y121291D01*
X767712D01*
Y120990D01*
Y120690D01*
Y120389D01*
Y120089D01*
Y119788D01*
X767411D01*
Y119487D01*
Y119187D01*
Y118886D01*
Y118586D01*
X767111D01*
Y118285D01*
Y117985D01*
Y117684D01*
Y117384D01*
Y117083D01*
Y116783D01*
X766810D01*
Y116482D01*
Y116182D01*
Y115881D01*
Y115581D01*
Y115280D01*
Y114980D01*
Y114679D01*
Y114378D01*
X766510D01*
Y114078D01*
Y113778D01*
Y113477D01*
Y113176D01*
Y112876D01*
Y112575D01*
Y112275D01*
Y111974D01*
Y111674D01*
Y111373D01*
Y111073D01*
Y110772D01*
Y110472D01*
Y110171D01*
Y109871D01*
X766209D01*
Y109570D01*
Y109270D01*
Y108969D01*
Y108668D01*
Y108368D01*
Y108067D01*
Y107767D01*
Y107466D01*
Y107166D01*
Y106865D01*
Y106565D01*
X766510D01*
Y106264D01*
Y105964D01*
Y105663D01*
Y105363D01*
Y105062D01*
Y104762D01*
Y104461D01*
Y104160D01*
Y103860D01*
Y103560D01*
Y103259D01*
Y102958D01*
Y102658D01*
Y102357D01*
Y102057D01*
X766810D01*
Y101756D01*
Y101456D01*
Y101155D01*
Y100855D01*
Y100554D01*
Y100254D01*
Y99953D01*
X767111D01*
Y99653D01*
Y99352D01*
Y99052D01*
Y98751D01*
Y98450D01*
Y98150D01*
X767411D01*
Y97849D01*
Y97549D01*
Y97248D01*
Y96948D01*
Y96647D01*
Y96347D01*
X767712D01*
Y96046D01*
Y95746D01*
Y95445D01*
Y95145D01*
X768012D01*
Y94844D01*
Y94544D01*
Y94243D01*
Y93942D01*
X768313D01*
Y93642D01*
Y93341D01*
Y93041D01*
X768613D01*
Y92740D01*
Y92440D01*
Y92139D01*
Y91839D01*
X768914D01*
Y91538D01*
Y91238D01*
Y90937D01*
X769214D01*
Y90637D01*
Y90336D01*
Y90036D01*
X769515D01*
Y89735D01*
Y89434D01*
Y89134D01*
X769815D01*
Y88834D01*
Y88533D01*
Y88232D01*
X770116D01*
Y87932D01*
Y87631D01*
X770416D01*
Y87331D01*
Y87030D01*
Y86730D01*
X770717D01*
Y86429D01*
Y86129D01*
X771018D01*
Y85828D01*
Y85528D01*
Y85227D01*
X771318D01*
Y84927D01*
X771619D01*
Y84626D01*
Y84326D01*
Y84025D01*
X771919D01*
Y83724D01*
Y83424D01*
X772220D01*
Y83123D01*
Y82823D01*
X772520D01*
Y82522D01*
Y82222D01*
Y81921D01*
X772821D01*
Y82222D01*
X773121D01*
Y81921D01*
X772821D01*
Y81621D01*
X773121D01*
Y81320D01*
X773422D01*
Y81020D01*
Y80719D01*
Y80419D01*
X773722D01*
Y80118D01*
X774023D01*
Y79818D01*
Y79517D01*
Y79216D01*
X774323D01*
Y78916D01*
X774624D01*
Y78615D01*
Y78315D01*
X774924D01*
Y78014D01*
X775225D01*
Y78315D01*
X775526D01*
Y78014D01*
X775225D01*
Y77714D01*
Y77413D01*
X775526D01*
Y77113D01*
X775826D01*
Y76812D01*
Y76512D01*
X776126D01*
Y76211D01*
X776427D01*
Y75911D01*
Y75610D01*
X776728D01*
Y75310D01*
X777028D01*
Y75610D01*
X777329D01*
Y75310D01*
X777028D01*
Y75009D01*
Y74708D01*
X777329D01*
Y74408D01*
X777629D01*
Y74107D01*
Y73807D01*
X777930D01*
Y73506D01*
X778230D01*
Y73206D01*
X778531D01*
Y72905D01*
X778831D01*
Y72605D01*
Y72304D01*
X779132D01*
Y72004D01*
X779432D01*
Y71703D01*
Y71403D01*
X779733D01*
Y71102D01*
X780033D01*
Y70802D01*
X780334D01*
Y71102D01*
X780635D01*
Y71403D01*
Y71703D01*
X780334D01*
Y71403D01*
X780033D01*
Y71703D01*
X780334D01*
Y72004D01*
Y72304D01*
X780935D01*
Y72004D01*
Y71703D01*
Y71403D01*
Y71102D01*
X780635D01*
Y70802D01*
X780334D01*
Y70501D01*
X780635D01*
Y70201D01*
X781236D01*
Y69900D01*
Y69599D01*
Y69299D01*
X781536D01*
Y69599D01*
X781837D01*
Y69299D01*
X781536D01*
Y68998D01*
X781837D01*
Y68698D01*
X782137D01*
Y68397D01*
X782738D01*
Y68097D01*
X783039D01*
Y67796D01*
Y67496D01*
X783640D01*
Y67195D01*
Y66895D01*
X783940D01*
Y66594D01*
X784241D01*
Y66895D01*
X784842D01*
Y67195D01*
Y67496D01*
X785142D01*
Y67195D01*
Y66895D01*
X784842D01*
Y66594D01*
X784241D01*
Y66294D01*
X784842D01*
Y66594D01*
X785142D01*
Y66895D01*
X785443D01*
Y66594D01*
X785142D01*
Y66294D01*
X784842D01*
Y65993D01*
Y65693D01*
X785443D01*
Y65392D01*
Y65092D01*
X786044D01*
Y64791D01*
X786345D01*
Y64490D01*
X786645D01*
Y64190D01*
X786946D01*
Y63889D01*
X787246D01*
Y63589D01*
X787847D01*
Y63288D01*
X788448D01*
Y62988D01*
X788749D01*
Y62687D01*
X789049D01*
Y62988D01*
Y63288D01*
X788749D01*
Y63589D01*
X789049D01*
Y63889D01*
X789350D01*
Y64190D01*
X789951D01*
Y64490D01*
X790251D01*
Y64190D01*
X789951D01*
Y63889D01*
X789650D01*
Y63589D01*
X789350D01*
Y63288D01*
Y62988D01*
X789650D01*
Y62687D01*
X789049D01*
Y62387D01*
X789350D01*
Y62086D01*
X789650D01*
Y61786D01*
X789951D01*
Y62086D01*
Y62387D01*
X789650D01*
Y62687D01*
X790251D01*
Y62988D01*
X789951D01*
Y63288D01*
X790251D01*
Y63589D01*
Y63889D01*
Y64190D01*
X795060D01*
Y64490D01*
X850358D01*
Y64190D01*
X852762D01*
Y64490D01*
Y64791D01*
Y65092D01*
X853363D01*
Y64791D01*
Y64490D01*
X853663D01*
Y64190D01*
X854264D01*
Y64490D01*
X854565D01*
Y64791D01*
Y65092D01*
X855166D01*
Y64791D01*
Y64490D01*
X857871D01*
Y64791D01*
X858171D01*
Y65092D01*
X858772D01*
Y64791D01*
X858171D01*
Y64490D01*
X857871D01*
Y64190D01*
X857570D01*
Y63889D01*
X857871D01*
Y64190D01*
X858171D01*
Y64490D01*
X858772D01*
Y64791D01*
X859073D01*
Y65092D01*
X859674D01*
Y64791D01*
X859073D01*
Y64490D01*
X858772D01*
Y64190D01*
X859073D01*
Y64490D01*
X859674D01*
Y64791D01*
X859975D01*
Y65092D01*
Y65392D01*
Y65693D01*
X860275D01*
Y65993D01*
X860876D01*
Y66294D01*
X861177D01*
Y66594D01*
X861477D01*
Y66294D01*
X861177D01*
Y65993D01*
X860876D01*
Y65693D01*
Y65392D01*
X860575D01*
Y65092D01*
X860275D01*
Y64791D01*
X859975D01*
Y64490D01*
X859674D01*
Y64190D01*
X859975D01*
Y64490D01*
X860275D01*
Y64791D01*
X860575D01*
Y65092D01*
X861177D01*
Y65392D01*
Y65693D01*
X861778D01*
Y65993D01*
Y66294D01*
X862379D01*
Y66594D01*
X862679D01*
Y66895D01*
X862980D01*
Y67195D01*
X863280D01*
Y67496D01*
X863581D01*
Y67796D01*
Y68097D01*
X864182D01*
Y68397D01*
X864482D01*
Y68698D01*
X864783D01*
Y68998D01*
X865083D01*
Y69299D01*
X865384D01*
Y69599D01*
X865685D01*
Y69900D01*
Y70201D01*
X865985D01*
Y70501D01*
X866286D01*
Y70802D01*
X866586D01*
Y71102D01*
X866887D01*
Y71403D01*
X867187D01*
Y71703D01*
Y72004D01*
X867488D01*
Y72304D01*
X867788D01*
Y72605D01*
X868089D01*
Y72905D01*
X868389D01*
Y73206D01*
Y73506D01*
X868690D01*
Y73807D01*
X868990D01*
Y74107D01*
X869291D01*
Y74408D01*
Y74708D01*
X869592D01*
Y75009D01*
X869892D01*
Y75310D01*
Y75610D01*
X870192D01*
Y75911D01*
X870493D01*
Y76211D01*
Y76512D01*
X870794D01*
Y76812D01*
Y77113D01*
X871094D01*
Y77413D01*
X871395D01*
Y77714D01*
X871695D01*
Y78014D01*
Y78315D01*
X871996D01*
Y78615D01*
Y78916D01*
X872296D01*
Y79216D01*
X872597D01*
Y79517D01*
Y79818D01*
X872897D01*
Y80118D01*
Y80419D01*
X873198D01*
Y80719D01*
X873498D01*
Y81020D01*
Y81320D01*
X873799D01*
Y81621D01*
Y81921D01*
X874099D01*
Y82222D01*
Y82522D01*
X874400D01*
Y82823D01*
Y83123D01*
X874700D01*
Y83424D01*
Y83724D01*
X875001D01*
Y84025D01*
Y84326D01*
X875302D01*
Y84626D01*
Y84927D01*
X875602D01*
Y85227D01*
Y85528D01*
X875903D01*
Y85828D01*
Y86129D01*
Y86429D01*
X876203D01*
Y86730D01*
Y87030D01*
Y87331D01*
X876504D01*
Y87631D01*
Y87932D01*
X876804D01*
Y88232D01*
Y88533D01*
Y88834D01*
X877105D01*
Y89134D01*
Y89434D01*
Y89735D01*
X877405D01*
Y90036D01*
Y90336D01*
X877706D01*
Y90637D01*
Y90937D01*
Y91238D01*
Y91538D01*
X878006D01*
Y91839D01*
Y92139D01*
Y92440D01*
Y92740D01*
X878307D01*
Y93041D01*
Y93341D01*
Y93642D01*
Y93942D01*
X878607D01*
Y94243D01*
Y94544D01*
Y94844D01*
Y95145D01*
Y95445D01*
X878908D01*
Y95746D01*
Y96046D01*
Y96347D01*
Y96647D01*
Y96948D01*
Y97248D01*
X879208D01*
Y97549D01*
Y97849D01*
Y98150D01*
Y98450D01*
Y98751D01*
Y99052D01*
Y99352D01*
X879509D01*
Y99653D01*
Y99953D01*
Y100254D01*
Y100554D01*
Y100855D01*
Y101155D01*
Y101456D01*
Y101756D01*
Y102057D01*
Y102357D01*
X879809D01*
Y102658D01*
Y102958D01*
Y103259D01*
Y103560D01*
Y103860D01*
Y104160D01*
Y104461D01*
Y104762D01*
Y105062D01*
Y105363D01*
Y105663D01*
Y105964D01*
Y106264D01*
Y106565D01*
Y106865D01*
Y107166D01*
Y107466D01*
X880110D01*
Y107767D01*
Y108067D01*
Y108368D01*
Y108668D01*
Y108969D01*
Y109270D01*
Y109570D01*
Y109871D01*
Y110171D01*
Y110472D01*
Y110772D01*
Y111073D01*
Y111373D01*
Y111674D01*
Y111974D01*
Y112275D01*
Y112575D01*
Y112876D01*
Y113176D01*
Y113477D01*
Y113778D01*
Y114078D01*
Y114378D01*
Y114679D01*
Y114980D01*
Y115280D01*
Y115581D01*
Y115881D01*
Y116182D01*
Y116482D01*
Y116783D01*
Y117083D01*
Y117384D01*
Y117684D01*
Y117985D01*
Y118285D01*
Y118586D01*
Y118886D01*
Y119187D01*
Y119487D01*
Y119788D01*
Y120089D01*
Y120389D01*
Y120690D01*
Y120990D01*
Y121291D01*
Y121591D01*
Y121892D01*
Y122192D01*
Y122493D01*
Y122793D01*
Y123094D01*
Y123394D01*
Y123695D01*
Y123996D01*
Y124296D01*
Y124597D01*
Y124897D01*
Y125198D01*
Y125498D01*
Y125799D01*
Y126099D01*
Y126400D01*
Y126700D01*
Y127001D01*
Y127301D01*
Y127602D01*
Y127902D01*
Y128203D01*
Y128504D01*
Y128804D01*
X880411D01*
Y129104D01*
Y129405D01*
Y129706D01*
Y130006D01*
Y130307D01*
Y130607D01*
Y130908D01*
Y131208D01*
Y131509D01*
Y131809D01*
Y132110D01*
Y132410D01*
Y132711D01*
Y133011D01*
Y133312D01*
Y133612D01*
Y133913D01*
Y134213D01*
Y134514D01*
Y134815D01*
Y135115D01*
Y135416D01*
Y135716D01*
Y136017D01*
Y136317D01*
Y136618D01*
Y136918D01*
Y137219D01*
Y137519D01*
Y137820D01*
Y138120D01*
Y138421D01*
Y138722D01*
Y139022D01*
Y139323D01*
Y139623D01*
Y139924D01*
Y140224D01*
Y140525D01*
Y140825D01*
Y141126D01*
Y141426D01*
Y141727D01*
Y142027D01*
Y142328D01*
Y142628D01*
Y142929D01*
Y143230D01*
Y143530D01*
Y143830D01*
Y144131D01*
Y144432D01*
Y144732D01*
X880711D01*
Y145033D01*
Y145333D01*
Y145634D01*
Y145934D01*
Y146235D01*
Y146535D01*
Y146836D01*
Y147136D01*
Y147437D01*
Y147737D01*
Y148038D01*
Y148338D01*
Y148639D01*
Y148940D01*
Y149240D01*
Y149541D01*
Y149841D01*
Y150142D01*
Y150442D01*
Y150743D01*
Y151043D01*
Y151344D01*
Y151644D01*
Y151945D01*
Y152245D01*
Y152546D01*
Y152846D01*
Y153147D01*
Y153448D01*
Y153748D01*
Y154049D01*
Y154349D01*
Y154650D01*
Y154950D01*
Y155251D01*
Y155551D01*
Y155852D01*
Y156152D01*
Y156453D01*
Y156753D01*
Y157054D01*
X880411D01*
Y157354D01*
Y157655D01*
Y157955D01*
Y158256D01*
Y158556D01*
Y158857D01*
Y159157D01*
Y159458D01*
Y159759D01*
Y160059D01*
Y160360D01*
Y160660D01*
Y160961D01*
Y161261D01*
Y161562D01*
Y161862D01*
Y162163D01*
Y162463D01*
Y162764D01*
Y163064D01*
Y163365D01*
Y163666D01*
Y163966D01*
Y164267D01*
Y164567D01*
X880110D01*
Y164267D01*
X879509D01*
Y163966D01*
X879208D01*
Y163666D01*
X878908D01*
Y163365D01*
X878607D01*
Y163064D01*
X878307D01*
Y162764D01*
X878006D01*
Y162463D01*
X877706D01*
Y162163D01*
X877405D01*
Y161862D01*
X877105D01*
Y161562D01*
X876804D01*
Y161261D01*
X876203D01*
Y160961D01*
X875903D01*
Y160660D01*
X875602D01*
Y160360D01*
X875302D01*
Y160059D01*
X875001D01*
Y159759D01*
X874700D01*
Y159458D01*
X874400D01*
Y159157D01*
X874099D01*
Y158857D01*
X873799D01*
Y158556D01*
X873498D01*
Y158256D01*
X873198D01*
Y157955D01*
X872897D01*
Y157655D01*
X872597D01*
Y157354D01*
X872296D01*
Y157054D01*
X871996D01*
Y156753D01*
X871695D01*
Y156453D01*
X871395D01*
Y156152D01*
X871094D01*
Y155852D01*
X870794D01*
Y155551D01*
X870493D01*
Y155251D01*
X870192D01*
Y154950D01*
X869892D01*
Y154650D01*
X869592D01*
Y154349D01*
X869291D01*
Y154049D01*
X868990D01*
Y153748D01*
X868389D01*
Y153448D01*
X868089D01*
Y153147D01*
X867788D01*
Y152846D01*
X867488D01*
Y152546D01*
X867187D01*
Y152245D01*
Y151945D01*
X866887D01*
Y151644D01*
X866586D01*
Y151344D01*
X865985D01*
Y151043D01*
X865685D01*
Y150743D01*
X865384D01*
Y150442D01*
X865083D01*
Y150142D01*
X864783D01*
Y149841D01*
X864482D01*
Y149541D01*
X864182D01*
Y149240D01*
X863881D01*
Y148940D01*
X863581D01*
Y148639D01*
X863280D01*
Y148338D01*
X862980D01*
Y148038D01*
X862679D01*
Y147737D01*
X862379D01*
Y147437D01*
X862078D01*
Y147136D01*
X861778D01*
Y146836D01*
X861477D01*
Y146535D01*
X861177D01*
Y146235D01*
X860876D01*
Y145934D01*
X860575D01*
Y145634D01*
X860275D01*
Y145333D01*
X859975D01*
Y145033D01*
X859674D01*
Y144732D01*
X859373D01*
Y144432D01*
X859073D01*
Y144131D01*
X858772D01*
Y143830D01*
X858472D01*
Y143530D01*
X858171D01*
Y143230D01*
X857871D01*
Y142929D01*
X857570D01*
Y142628D01*
X857270D01*
Y142328D01*
X856969D01*
Y142027D01*
X856669D01*
Y141727D01*
X856368D01*
Y141426D01*
X856068D01*
Y141126D01*
X855767D01*
Y140825D01*
X855467D01*
Y140525D01*
X855166D01*
Y140224D01*
X854865D01*
Y139924D01*
X854565D01*
Y139623D01*
X854264D01*
Y139323D01*
X853964D01*
Y139022D01*
X853663D01*
Y138722D01*
X853363D01*
Y138421D01*
X853062D01*
Y138120D01*
X852762D01*
Y137820D01*
X852461D01*
Y137519D01*
X852161D01*
Y137219D01*
X851860D01*
Y136918D01*
X851560D01*
Y136618D01*
X851259D01*
Y136317D01*
X850959D01*
Y136017D01*
X850658D01*
Y135716D01*
X850358D01*
Y135416D01*
X850057D01*
Y135115D01*
X849756D01*
Y134815D01*
X849456D01*
Y134514D01*
X849155D01*
Y134213D01*
X848855D01*
Y133913D01*
X848554D01*
Y133612D01*
X848254D01*
Y133312D01*
X847953D01*
Y133011D01*
X847653D01*
Y132711D01*
X847352D01*
Y132410D01*
X847052D01*
Y132110D01*
X846751D01*
Y131809D01*
X846451D01*
Y131509D01*
X846150D01*
Y131208D01*
X845850D01*
Y130908D01*
X845549D01*
Y130607D01*
X845248D01*
Y130307D01*
X844948D01*
Y130006D01*
X844647D01*
Y129706D01*
X844347D01*
Y129405D01*
X844046D01*
Y129104D01*
X843746D01*
Y128804D01*
X843445D01*
Y128504D01*
X843145D01*
Y128203D01*
X842844D01*
Y127902D01*
X842544D01*
Y127602D01*
X842243D01*
Y127301D01*
X841943D01*
Y127001D01*
X841642D01*
Y126700D01*
X841342D01*
Y126400D01*
X841041D01*
Y126099D01*
X840741D01*
Y125799D01*
X840440D01*
Y125498D01*
X840139D01*
Y125198D01*
X839839D01*
Y124897D01*
X839538D01*
Y124597D01*
X839238D01*
Y124296D01*
X838937D01*
Y123996D01*
X838637D01*
Y123695D01*
X838336D01*
Y123394D01*
X838036D01*
Y123094D01*
X837735D01*
Y122793D01*
X837435D01*
Y122493D01*
X837134D01*
Y122192D01*
X836834D01*
Y121892D01*
X836533D01*
Y121591D01*
X836233D01*
Y121291D01*
X835932D01*
Y120990D01*
X835631D01*
Y120690D01*
X835331D01*
Y120389D01*
X834730D01*
Y120089D01*
X834429D01*
Y119788D01*
X834129D01*
Y119487D01*
X833528D01*
Y119187D01*
Y118886D01*
X832927D01*
Y118586D01*
X832326D01*
Y118285D01*
X832025D01*
Y117985D01*
X831725D01*
Y117684D01*
X831424D01*
Y117384D01*
X831124D01*
Y117083D01*
X830523D01*
Y116783D01*
X830222D01*
Y116482D01*
X829621D01*
Y116182D01*
X829320D01*
Y115881D01*
X829020D01*
Y115581D01*
X827517D01*
Y115881D01*
X826315D01*
Y116182D01*
X824812D01*
Y116482D01*
X823610D01*
Y116783D01*
X822408D01*
Y117083D01*
X820906D01*
Y117384D01*
X819403D01*
Y117684D01*
X817600D01*
Y117384D01*
X816698D01*
Y117083D01*
X816097D01*
Y116783D01*
X815797D01*
Y116482D01*
X815496D01*
Y116182D01*
Y115881D01*
X815195D01*
Y115581D01*
X814895D01*
Y115280D01*
Y114980D01*
X814594D01*
Y114679D01*
Y114378D01*
Y114078D01*
X814294D01*
Y113778D01*
Y113477D01*
Y113176D01*
X813993D01*
Y112876D01*
Y112575D01*
Y112275D01*
X813693D01*
Y111974D01*
Y111674D01*
Y111373D01*
X813392D01*
Y111073D01*
Y110772D01*
Y110472D01*
X813092D01*
Y110171D01*
Y109871D01*
X812791D01*
Y109570D01*
Y109270D01*
Y108969D01*
X812491D01*
Y108668D01*
Y108368D01*
Y108067D01*
Y107767D01*
X812190D01*
Y107466D01*
Y107166D01*
X811890D01*
Y106865D01*
Y106565D01*
Y106264D01*
X811589D01*
Y105964D01*
Y105663D01*
Y105363D01*
X811289D01*
Y105062D01*
Y104762D01*
Y104461D01*
X810988D01*
Y104160D01*
Y103860D01*
Y103560D01*
X810687D01*
Y103259D01*
Y102958D01*
Y102658D01*
X810387D01*
Y102357D01*
Y102057D01*
Y101756D01*
X810086D01*
Y101456D01*
Y101155D01*
X809786D01*
Y100855D01*
Y100554D01*
Y100254D01*
Y99953D01*
X809485D01*
Y99653D01*
Y99352D01*
X809185D01*
Y99052D01*
Y98751D01*
Y98450D01*
Y98150D01*
X808884D01*
Y97849D01*
Y97549D01*
X808584D01*
Y97248D01*
Y96948D01*
Y96647D01*
Y96347D01*
Y96046D01*
Y95746D01*
X808283D01*
Y95445D01*
X808584D01*
Y95145D01*
Y94844D01*
Y94544D01*
X808884D01*
Y94243D01*
Y93942D01*
X809185D01*
Y93642D01*
X809485D01*
Y93341D01*
X810086D01*
Y93041D01*
X810988D01*
Y92740D01*
X811890D01*
Y93041D01*
X812791D01*
Y93341D01*
X813392D01*
Y93642D01*
X813693D01*
Y93942D01*
X813993D01*
Y94243D01*
Y94544D01*
X814294D01*
Y94844D01*
Y95145D01*
X814594D01*
Y95445D01*
Y95746D01*
Y96046D01*
X814895D01*
Y96347D01*
Y96647D01*
Y96948D01*
X815195D01*
Y97248D01*
Y97549D01*
Y97849D01*
X815496D01*
Y98150D01*
Y98450D01*
Y98751D01*
X815797D01*
Y99052D01*
Y99352D01*
Y99653D01*
X816097D01*
Y99953D01*
Y100254D01*
Y100554D01*
X816398D01*
Y100855D01*
Y101155D01*
X816698D01*
Y101456D01*
Y101756D01*
Y102057D01*
Y102357D01*
X816999D01*
Y102658D01*
Y102958D01*
Y103259D01*
X817299D01*
Y103560D01*
Y103860D01*
Y104160D01*
X817600D01*
Y104461D01*
Y104762D01*
Y105062D01*
X817900D01*
Y105363D01*
Y105663D01*
Y105964D01*
X818201D01*
Y106264D01*
Y106565D01*
Y106865D01*
X818501D01*
Y107166D01*
Y107466D01*
Y107767D01*
X818802D01*
Y108067D01*
Y108368D01*
X819102D01*
Y108668D01*
Y108969D01*
Y109270D01*
Y109570D01*
X819403D01*
Y109871D01*
Y110171D01*
X819703D01*
Y110472D01*
Y110772D01*
X821206D01*
Y110472D01*
X822709D01*
Y110171D01*
X824211D01*
Y109871D01*
X826015D01*
Y109570D01*
X827517D01*
Y109270D01*
X829020D01*
Y108969D01*
X829921D01*
Y108668D01*
X830222D01*
Y108368D01*
X830523D01*
Y108067D01*
X830823D01*
Y107767D01*
X831124D01*
Y107466D01*
Y107166D01*
X831424D01*
Y106865D01*
X831725D01*
Y106565D01*
X832025D01*
Y106264D01*
Y105964D01*
X832326D01*
Y105663D01*
X832626D01*
Y105363D01*
X832927D01*
Y105062D01*
Y104762D01*
X833227D01*
Y104461D01*
X833528D01*
Y104160D01*
X833828D01*
Y103860D01*
X834129D01*
Y103560D01*
Y103259D01*
X834429D01*
Y102958D01*
X834730D01*
Y102658D01*
X835031D01*
Y102357D01*
Y102057D01*
X835331D01*
Y101756D01*
Y101456D01*
Y101155D01*
Y100855D01*
Y100554D01*
X835631D01*
Y100254D01*
Y99953D01*
Y99653D01*
Y99352D01*
Y99052D01*
Y98751D01*
Y98450D01*
Y98150D01*
Y97849D01*
Y97549D01*
Y97248D01*
Y96948D01*
Y96647D01*
Y96347D01*
Y96046D01*
Y95746D01*
Y95445D01*
Y95145D01*
Y94844D01*
Y94544D01*
Y94243D01*
Y93942D01*
Y93642D01*
Y93341D01*
Y93041D01*
Y92740D01*
Y92440D01*
Y92139D01*
X834730D01*
Y91839D01*
X832927D01*
Y91538D01*
X831124D01*
Y91238D01*
X829320D01*
Y90937D01*
X827217D01*
Y90637D01*
X825113D01*
Y90336D01*
X823610D01*
Y90036D01*
X821507D01*
Y89735D01*
X820004D01*
Y89434D01*
X818501D01*
Y89134D01*
X817600D01*
Y88834D01*
X817299D01*
Y88533D01*
Y88232D01*
X816698D01*
Y87932D01*
Y87631D01*
X816398D01*
Y87331D01*
Y87030D01*
Y86730D01*
Y86429D01*
Y86129D01*
Y85828D01*
Y85528D01*
X816698D01*
Y85227D01*
Y84927D01*
X816999D01*
Y84626D01*
X817299D01*
Y84326D01*
Y84025D01*
X817900D01*
Y83724D01*
X818501D01*
Y84025D01*
X818802D01*
Y83724D01*
X818501D01*
Y83424D01*
X820906D01*
Y83724D01*
X822709D01*
Y84025D01*
X824211D01*
Y84326D01*
X825714D01*
Y84626D01*
X827818D01*
Y84927D01*
X829921D01*
Y85227D01*
X831725D01*
Y85528D01*
X833528D01*
Y85828D01*
X835631D01*
Y86129D01*
Y86429D01*
X835932D01*
Y86129D01*
X837435D01*
Y86429D01*
X839238D01*
Y86730D01*
X840139D01*
Y87030D01*
X840741D01*
Y87331D01*
X841041D01*
Y87631D01*
X841342D01*
Y87932D01*
Y88232D01*
X841642D01*
Y88533D01*
Y88834D01*
X841943D01*
Y89134D01*
Y89434D01*
Y89735D01*
Y90036D01*
Y90336D01*
Y90637D01*
Y90937D01*
Y91238D01*
Y91538D01*
Y91839D01*
Y92139D01*
Y92440D01*
Y92740D01*
Y93041D01*
Y93341D01*
Y93642D01*
Y93942D01*
Y94243D01*
Y94544D01*
Y94844D01*
Y95145D01*
Y95445D01*
Y95746D01*
Y96046D01*
Y96347D01*
Y96647D01*
Y96948D01*
Y97248D01*
Y97549D01*
Y97849D01*
X841642D01*
Y98150D01*
Y98450D01*
Y98751D01*
Y99052D01*
Y99352D01*
Y99653D01*
X841943D01*
Y99953D01*
X842243D01*
Y100254D01*
X842544D01*
Y100554D01*
Y100855D01*
X842844D01*
Y101155D01*
X843145D01*
Y101456D01*
X843445D01*
Y101756D01*
X843746D01*
Y102057D01*
X844046D01*
Y102357D01*
X844347D01*
Y102658D01*
Y102958D01*
X844948D01*
Y103259D01*
X845248D01*
Y103560D01*
X845549D01*
Y103860D01*
Y104160D01*
X846150D01*
Y104461D01*
X846451D01*
Y104762D01*
X846751D01*
Y105062D01*
X847052D01*
Y105363D01*
X847352D01*
Y105663D01*
X847653D01*
Y105964D01*
X847953D01*
Y106264D01*
X848254D01*
Y106565D01*
X848554D01*
Y106865D01*
X848855D01*
Y107166D01*
X849155D01*
Y107466D01*
X849456D01*
Y107767D01*
X849756D01*
Y108067D01*
X850057D01*
Y108368D01*
X850358D01*
Y108668D01*
X850658D01*
Y108969D01*
X850959D01*
Y109270D01*
X851259D01*
Y109570D01*
X851560D01*
Y109871D01*
X851860D01*
Y110171D01*
X852161D01*
Y110472D01*
X852461D01*
Y110772D01*
X852762D01*
Y111073D01*
X853062D01*
Y111373D01*
X853363D01*
Y111674D01*
X853663D01*
Y111974D01*
X853964D01*
Y112275D01*
X854264D01*
Y112575D01*
X854565D01*
Y112876D01*
X854865D01*
Y113176D01*
X855166D01*
Y113477D01*
X855467D01*
Y113778D01*
X855767D01*
Y114078D01*
X856068D01*
Y114378D01*
X856368D01*
Y114679D01*
X856669D01*
Y114980D01*
X856969D01*
Y115280D01*
X857570D01*
Y114980D01*
X857871D01*
Y114679D01*
Y114378D01*
Y114078D01*
X858171D01*
Y113778D01*
Y113477D01*
Y113176D01*
X858472D01*
Y112876D01*
Y112575D01*
Y112275D01*
Y111974D01*
Y111674D01*
Y111373D01*
Y111073D01*
Y110772D01*
X858772D01*
Y110472D01*
Y110171D01*
Y109871D01*
Y109570D01*
Y109270D01*
Y108969D01*
Y108668D01*
Y108368D01*
Y108067D01*
Y107767D01*
Y107466D01*
Y107166D01*
Y106865D01*
Y106565D01*
Y106264D01*
Y105964D01*
Y105663D01*
X858472D01*
Y105363D01*
Y105062D01*
Y104762D01*
Y104461D01*
Y104160D01*
Y103860D01*
Y103560D01*
Y103259D01*
Y102958D01*
X858171D01*
Y102658D01*
Y102357D01*
Y102057D01*
Y101756D01*
Y101456D01*
X857871D01*
Y101155D01*
Y100855D01*
Y100554D01*
Y100254D01*
X857570D01*
Y99953D01*
Y99653D01*
Y99352D01*
Y99052D01*
X857270D01*
Y98751D01*
Y98450D01*
Y98150D01*
Y97849D01*
X856969D01*
Y97549D01*
Y97248D01*
Y96948D01*
X856669D01*
Y96647D01*
Y96347D01*
Y96046D01*
X856368D01*
Y95746D01*
Y95445D01*
Y95145D01*
X856068D01*
Y94844D01*
Y94544D01*
X855767D01*
Y94243D01*
Y93942D01*
X855467D01*
Y93642D01*
Y93341D01*
Y93041D01*
X855166D01*
Y92740D01*
Y92440D01*
X854865D01*
Y92139D01*
Y91839D01*
X854565D01*
Y91538D01*
Y91238D01*
X854264D01*
Y90937D01*
Y90637D01*
X853964D01*
Y90336D01*
Y90036D01*
X853663D01*
Y89735D01*
X853964D01*
Y89434D01*
X853363D01*
Y89134D01*
Y88834D01*
X853062D01*
Y88533D01*
X852762D01*
Y88232D01*
X852461D01*
Y87932D01*
Y87631D01*
X852161D01*
Y87331D01*
X851860D01*
Y87030D01*
Y86730D01*
X851560D01*
Y86429D01*
X851259D01*
Y86129D01*
X850959D01*
Y85828D01*
X850658D01*
Y85528D01*
Y85227D01*
X850358D01*
Y84927D01*
X850057D01*
Y84626D01*
X849756D01*
Y84326D01*
Y84025D01*
X849456D01*
Y83724D01*
X849155D01*
Y83424D01*
X848855D01*
Y83123D01*
X848554D01*
Y82823D01*
X848254D01*
Y82522D01*
X847953D01*
Y82222D01*
X847653D01*
Y81921D01*
X847352D01*
Y81621D01*
X846751D01*
Y81320D01*
Y81020D01*
X846150D01*
Y80719D01*
X845850D01*
Y80419D01*
X845549D01*
Y80118D01*
X845248D01*
Y79818D01*
X844647D01*
Y79517D01*
X844347D01*
Y79216D01*
X844046D01*
Y78916D01*
X843746D01*
Y78615D01*
X843145D01*
Y78315D01*
X842544D01*
Y78014D01*
X841943D01*
Y77714D01*
X841642D01*
Y77413D01*
X841342D01*
Y77113D01*
X840741D01*
Y76812D01*
Y76512D01*
X840440D01*
Y76211D01*
X840139D01*
Y76512D01*
X840440D01*
Y76812D01*
X840139D01*
Y76512D01*
X839538D01*
Y76211D01*
X839839D01*
Y75911D01*
X840440D01*
Y76211D01*
X840741D01*
Y75911D01*
X840440D01*
Y75610D01*
X839538D01*
Y75911D01*
X839238D01*
Y76211D01*
X838937D01*
Y75911D01*
X838336D01*
Y75610D01*
X837735D01*
Y75310D01*
X837134D01*
Y75009D01*
X836533D01*
Y74708D01*
X835631D01*
Y74408D01*
X834730D01*
Y74107D01*
X833528D01*
Y73807D01*
X834129D01*
Y73506D01*
X833227D01*
Y73206D01*
X834129D01*
Y73506D01*
X835331D01*
Y73807D01*
X834730D01*
Y74107D01*
X835631D01*
Y73807D01*
Y73506D01*
X835932D01*
Y73807D01*
Y74107D01*
X836533D01*
Y73807D01*
Y73506D01*
X836834D01*
Y73206D01*
X836233D01*
Y72905D01*
X835932D01*
Y72605D01*
X834429D01*
Y72905D01*
X835932D01*
Y73206D01*
X834429D01*
Y72905D01*
X832927D01*
Y72605D01*
X832326D01*
Y72905D01*
X832927D01*
Y73206D01*
X832326D01*
Y73506D01*
X831725D01*
Y73206D01*
X830222D01*
Y72905D01*
X828419D01*
Y72605D01*
X825714D01*
Y72304D01*
X820605D01*
Y72605D01*
X817900D01*
Y72304D01*
X817299D01*
Y72605D01*
X817900D01*
Y72905D01*
X816097D01*
Y73206D01*
X814895D01*
Y73506D01*
X813993D01*
Y73206D01*
X813693D01*
Y73506D01*
Y73807D01*
X813092D01*
Y73506D01*
X812190D01*
Y73807D01*
X812791D01*
Y74107D01*
X811890D01*
Y74408D01*
X810988D01*
Y74708D01*
X810387D01*
Y75009D01*
X809786D01*
Y75310D01*
X808884D01*
Y75610D01*
X808283D01*
Y75911D01*
X807983D01*
Y76211D01*
X807382D01*
Y75911D01*
X807081D01*
Y75610D01*
X806781D01*
Y75911D01*
X807081D01*
Y76211D01*
Y76512D01*
X806180D01*
Y76812D01*
X805879D01*
Y77113D01*
X805579D01*
Y77413D01*
X804977D01*
Y77113D01*
X805278D01*
Y76812D01*
X804677D01*
Y77113D01*
Y77413D01*
X804977D01*
Y77714D01*
X804677D01*
Y78014D01*
X804376D01*
Y77714D01*
X804076D01*
Y78014D01*
X804376D01*
Y78315D01*
X803775D01*
Y78615D01*
X803475D01*
Y78916D01*
X803174D01*
Y79216D01*
X802573D01*
Y79517D01*
X802273D01*
Y79818D01*
X801972D01*
Y79517D01*
X801672D01*
Y79818D01*
X801972D01*
Y80118D01*
X801672D01*
Y80419D01*
X801371D01*
Y80719D01*
X800770D01*
Y81020D01*
X800169D01*
Y80719D01*
X799868D01*
Y81020D01*
X800169D01*
Y81320D01*
Y81621D01*
X799868D01*
Y81921D01*
X799568D01*
Y82222D01*
X799267D01*
Y82522D01*
X798967D01*
Y82823D01*
X798666D01*
Y83123D01*
X798366D01*
Y83424D01*
X798065D01*
Y83724D01*
Y84025D01*
X797765D01*
Y83724D01*
X797464D01*
Y84025D01*
Y84326D01*
Y84626D01*
X797164D01*
Y84927D01*
X796863D01*
Y85227D01*
X796563D01*
Y85528D01*
X796262D01*
Y85828D01*
X795962D01*
Y86129D01*
Y86429D01*
X795661D01*
Y86730D01*
X795360D01*
Y87030D01*
X795060D01*
Y87331D01*
Y87631D01*
X794759D01*
Y87932D01*
X794459D01*
Y87631D01*
X794158D01*
Y87932D01*
X794459D01*
Y88232D01*
Y88533D01*
X793858D01*
Y88834D01*
Y89134D01*
Y89434D01*
X793557D01*
Y89735D01*
Y90036D01*
X793257D01*
Y90336D01*
X792956D01*
Y90637D01*
Y90937D01*
X792656D01*
Y91238D01*
Y91538D01*
X792355D01*
Y91839D01*
X792055D01*
Y92139D01*
Y92440D01*
Y92740D01*
X791754D01*
Y93041D01*
Y93341D01*
X791454D01*
Y93642D01*
Y93942D01*
X791153D01*
Y94243D01*
Y94544D01*
X790853D01*
Y94844D01*
Y95145D01*
Y95445D01*
X790552D01*
Y95746D01*
Y96046D01*
Y96347D01*
X790251D01*
Y96647D01*
Y96948D01*
X789951D01*
Y97248D01*
Y97549D01*
Y97849D01*
Y98150D01*
X789650D01*
Y98450D01*
Y98751D01*
Y99052D01*
X789350D01*
Y99352D01*
Y99653D01*
Y99953D01*
Y100254D01*
X789049D01*
Y100554D01*
Y100855D01*
Y101155D01*
Y101456D01*
Y101756D01*
X788749D01*
Y102057D01*
Y102357D01*
Y102658D01*
Y102958D01*
Y103259D01*
Y103560D01*
X788448D01*
Y103860D01*
Y104160D01*
Y104461D01*
Y104762D01*
Y105062D01*
Y105363D01*
Y105663D01*
Y105964D01*
X788148D01*
Y106264D01*
Y106565D01*
Y106865D01*
Y107166D01*
Y107466D01*
Y107767D01*
Y108067D01*
Y108368D01*
Y108668D01*
Y108969D01*
Y109270D01*
Y109570D01*
Y109871D01*
Y110171D01*
Y110472D01*
Y110772D01*
X788448D01*
Y111073D01*
Y111373D01*
Y111674D01*
Y111974D01*
Y112275D01*
Y112575D01*
Y112876D01*
Y113176D01*
Y113477D01*
Y113778D01*
X788749D01*
Y114078D01*
Y114378D01*
Y114679D01*
Y114980D01*
Y115280D01*
X789049D01*
Y115581D01*
Y115881D01*
Y116182D01*
Y116482D01*
Y116783D01*
X789350D01*
Y117083D01*
Y117384D01*
Y117684D01*
Y117985D01*
X789650D01*
Y118285D01*
Y118586D01*
Y118886D01*
Y119187D01*
X789951D01*
Y119487D01*
Y119788D01*
Y120089D01*
X790251D01*
Y120389D01*
Y120690D01*
X790552D01*
Y120990D01*
Y121291D01*
Y121591D01*
X790853D01*
Y121892D01*
Y122192D01*
X791153D01*
Y122493D01*
Y122793D01*
Y123094D01*
X791454D01*
Y123394D01*
Y123695D01*
X791754D01*
Y123996D01*
Y124296D01*
X792055D01*
Y124597D01*
Y124897D01*
X792355D01*
Y125198D01*
X792656D01*
Y125498D01*
Y125799D01*
Y126099D01*
X792956D01*
Y126400D01*
X793257D01*
Y126700D01*
Y127001D01*
X793557D01*
Y127301D01*
Y127602D01*
X793858D01*
Y127902D01*
Y128203D01*
X794158D01*
Y128504D01*
X794459D01*
Y128804D01*
X794759D01*
Y129104D01*
Y129405D01*
X795060D01*
Y129706D01*
X795360D01*
Y130006D01*
X795661D01*
Y130307D01*
X795962D01*
Y130607D01*
X796262D01*
Y130908D01*
Y131208D01*
X796563D01*
Y131509D01*
X796863D01*
Y131809D01*
X797164D01*
Y132110D01*
X797464D01*
Y132410D01*
X797765D01*
Y132711D01*
X798065D01*
Y133011D01*
X798366D01*
Y133312D01*
X798666D01*
Y133612D01*
X798967D01*
Y133913D01*
X799267D01*
Y134213D01*
X799568D01*
Y134514D01*
X799868D01*
Y134815D01*
X800169D01*
Y135115D01*
X800470D01*
Y135416D01*
X801070D01*
Y135716D01*
X801371D01*
Y136017D01*
X801672D01*
Y136317D01*
X802273D01*
Y136618D01*
X802573D01*
Y136918D01*
X802874D01*
Y137219D01*
X803475D01*
Y137519D01*
X804076D01*
Y137820D01*
X804376D01*
Y138120D01*
X804977D01*
Y138421D01*
X805278D01*
Y138722D01*
X805879D01*
Y139022D01*
X806480D01*
Y139323D01*
X807081D01*
Y139623D01*
X807682D01*
Y139924D01*
X808584D01*
Y140224D01*
X809185D01*
Y140525D01*
X809786D01*
Y140825D01*
X810687D01*
Y141126D01*
X811589D01*
Y141426D01*
X812491D01*
Y141727D01*
X813693D01*
Y142027D01*
X814895D01*
Y142328D01*
X816097D01*
Y142628D01*
X818201D01*
Y142929D01*
X821507D01*
Y143230D01*
X823911D01*
Y142929D01*
X826916D01*
Y142628D01*
X828719D01*
Y142328D01*
X830523D01*
Y142027D01*
X832927D01*
Y141727D01*
X834129D01*
Y142027D01*
X834429D01*
Y142328D01*
Y142628D01*
X834730D01*
Y142929D01*
X835031D01*
Y143230D01*
X835331D01*
Y143530D01*
Y143830D01*
X835631D01*
Y144131D01*
X835932D01*
Y144432D01*
X836233D01*
Y144732D01*
X836533D01*
Y145033D01*
Y145333D01*
X836834D01*
Y145634D01*
X837134D01*
Y145934D01*
X837435D01*
Y146235D01*
X837735D01*
Y146535D01*
X838036D01*
Y146836D01*
X838336D01*
Y147136D01*
Y147437D01*
X838637D01*
Y147737D01*
X838937D01*
Y148038D01*
X839238D01*
Y148338D01*
X839538D01*
Y148639D01*
X839839D01*
Y148940D01*
Y149240D01*
X840139D01*
Y149541D01*
X840440D01*
Y149841D01*
X840741D01*
Y150142D01*
X841041D01*
Y150442D01*
X841342D01*
Y150743D01*
X841642D01*
Y151043D01*
Y151344D01*
X841943D01*
Y151644D01*
X842243D01*
Y151945D01*
X842544D01*
Y152245D01*
X842844D01*
Y152546D01*
X843145D01*
Y152846D01*
X843445D01*
Y153147D01*
Y153448D01*
X843746D01*
Y153748D01*
X844046D01*
Y154049D01*
X844347D01*
Y154349D01*
X844647D01*
Y154650D01*
X844948D01*
Y154950D01*
X845248D01*
Y155251D01*
Y155551D01*
X845549D01*
Y155852D01*
X845850D01*
Y156152D01*
X846150D01*
Y156453D01*
X846451D01*
Y156753D01*
X846751D01*
Y157054D01*
X847052D01*
Y157354D01*
X847352D01*
Y157655D01*
Y157955D01*
X847653D01*
Y158256D01*
X847953D01*
Y158556D01*
X848254D01*
Y158857D01*
X848554D01*
Y159157D01*
X848855D01*
Y159458D01*
X849155D01*
Y159759D01*
Y160059D01*
X849456D01*
Y160360D01*
X849756D01*
Y160660D01*
X850057D01*
Y160961D01*
X850358D01*
Y161261D01*
X850658D01*
Y161562D01*
X850959D01*
Y161862D01*
Y162163D01*
X851259D01*
Y162463D01*
X851560D01*
Y162764D01*
X851860D01*
Y163064D01*
Y163365D01*
X852161D01*
Y163666D01*
X852461D01*
Y163966D01*
X852762D01*
Y164267D01*
Y164567D01*
X853062D01*
Y164868D01*
X853363D01*
Y165168D01*
X853663D01*
Y165469D01*
X853964D01*
Y165769D01*
Y166070D01*
X854264D01*
Y166370D01*
X854565D01*
Y166671D01*
Y166971D01*
X854865D01*
Y167272D01*
X855166D01*
Y167572D01*
Y167873D01*
Y168174D01*
X855467D01*
Y168474D01*
X854865D01*
Y168174D01*
D02*
G37*
%LPC*%
G36*
X859373Y142628D02*
X859674D01*
Y142328D01*
X859373D01*
Y142628D01*
D02*
G37*
G36*
X841041Y99953D02*
X841342D01*
Y99653D01*
X841041D01*
Y99953D01*
D02*
G37*
G36*
X790552Y93942D02*
X790853D01*
Y93642D01*
X790552D01*
Y93942D01*
D02*
G37*
G36*
X856669D02*
X856969D01*
Y93642D01*
X856669D01*
Y93942D01*
D02*
G37*
G36*
X854565Y91238D02*
X854865D01*
Y90937D01*
Y90637D01*
X854565D01*
Y90937D01*
Y91238D01*
D02*
G37*
G36*
X840741Y89134D02*
X841041D01*
Y88834D01*
X840741D01*
Y89134D01*
D02*
G37*
G36*
X874700D02*
X875001D01*
Y88834D01*
X874700D01*
Y89134D01*
D02*
G37*
G36*
X792656Y87631D02*
X792956D01*
Y87331D01*
X792656D01*
Y87631D01*
D02*
G37*
G36*
X817299Y87331D02*
X817600D01*
Y87030D01*
X817299D01*
Y87331D01*
D02*
G37*
G36*
X792956Y87030D02*
X793257D01*
Y86730D01*
X792956D01*
Y87030D01*
D02*
G37*
G36*
X817600Y86730D02*
X817900D01*
Y86429D01*
X817600D01*
Y86730D01*
D02*
G37*
G36*
X852161Y85828D02*
X852461D01*
Y85528D01*
X852161D01*
Y85828D01*
D02*
G37*
G36*
X795360Y85528D02*
X795661D01*
Y85227D01*
X795360D01*
Y85528D01*
D02*
G37*
G36*
X874700D02*
X875001D01*
Y85227D01*
X874700D01*
Y85528D01*
D02*
G37*
G36*
X795661Y85227D02*
X795962D01*
Y84927D01*
X795661D01*
Y85227D01*
D02*
G37*
G36*
X851560D02*
X851860D01*
Y84927D01*
X851560D01*
Y85227D01*
D02*
G37*
G36*
X850658D02*
X850959D01*
Y84927D01*
Y84626D01*
X850658D01*
Y84927D01*
Y85227D01*
D02*
G37*
G36*
X795360Y84626D02*
X795661D01*
Y84326D01*
X795360D01*
Y84626D01*
D02*
G37*
G36*
X796262D02*
X796563D01*
Y84326D01*
X796262D01*
Y84626D01*
D02*
G37*
G36*
X850959D02*
X851259D01*
Y84326D01*
X850959D01*
Y84626D01*
D02*
G37*
G36*
X872296Y84326D02*
X872597D01*
Y84025D01*
X872296D01*
Y84326D01*
D02*
G37*
G36*
X873799D02*
X874099D01*
Y84025D01*
X873799D01*
Y84326D01*
D02*
G37*
G36*
X872897Y83424D02*
X873198D01*
Y83123D01*
X872897D01*
Y83424D01*
D02*
G37*
G36*
X849456Y82222D02*
X850057D01*
Y81921D01*
X849456D01*
Y82222D01*
D02*
G37*
G36*
X873198Y82522D02*
X873498D01*
Y82222D01*
Y81921D01*
X873198D01*
Y82222D01*
Y82522D01*
D02*
G37*
G36*
X847653Y81921D02*
X847953D01*
Y81621D01*
X847653D01*
Y81320D01*
X847352D01*
Y81621D01*
X847653D01*
Y81921D01*
D02*
G37*
G36*
X872597Y81621D02*
X872897D01*
Y81320D01*
X872597D01*
Y81621D01*
D02*
G37*
G36*
X872897Y81320D02*
X873198D01*
Y81020D01*
X872897D01*
Y81320D01*
D02*
G37*
G36*
X846751Y81020D02*
X847052D01*
Y80719D01*
X846751D01*
Y81020D01*
D02*
G37*
G36*
X847352Y80719D02*
X847653D01*
Y80419D01*
X847352D01*
Y80719D01*
D02*
G37*
G36*
X845850Y80419D02*
X846150D01*
Y80118D01*
X845850D01*
Y80419D01*
D02*
G37*
G36*
X847653D02*
X847953D01*
Y80118D01*
X847653D01*
Y80419D01*
D02*
G37*
G36*
X799868Y80118D02*
X800169D01*
Y79818D01*
X799868D01*
Y80118D01*
D02*
G37*
G36*
X800770D02*
X801070D01*
Y79818D01*
X800770D01*
Y80118D01*
D02*
G37*
G36*
X845248Y79818D02*
X845549D01*
Y79517D01*
X845248D01*
Y79818D01*
D02*
G37*
G36*
X775225Y79517D02*
X775526D01*
Y79216D01*
X775225D01*
Y79517D01*
D02*
G37*
G36*
X869592Y79216D02*
X869892D01*
Y78916D01*
Y78615D01*
X869592D01*
Y78916D01*
Y79216D01*
D02*
G37*
G36*
X870493Y78916D02*
X870794D01*
Y78615D01*
X870493D01*
Y78916D01*
D02*
G37*
G36*
X802573Y78615D02*
X802874D01*
Y78315D01*
X802573D01*
Y78615D01*
D02*
G37*
G36*
X869592Y78014D02*
X869892D01*
Y77714D01*
X869592D01*
Y78014D01*
D02*
G37*
G36*
X802874Y78315D02*
X803174D01*
Y78014D01*
X802874D01*
Y77714D01*
X802573D01*
Y77413D01*
X802273D01*
Y77714D01*
X802573D01*
Y78014D01*
X802874D01*
Y78315D01*
D02*
G37*
G36*
X803174Y77714D02*
X803475D01*
Y77413D01*
X803174D01*
Y77714D01*
D02*
G37*
G36*
X843145Y78014D02*
X843445D01*
Y77714D01*
X843145D01*
Y77413D01*
X842844D01*
Y77714D01*
X843145D01*
Y78014D01*
D02*
G37*
G36*
X802573Y77413D02*
X802874D01*
Y77113D01*
X802573D01*
Y77413D01*
D02*
G37*
G36*
X843445D02*
X843746D01*
Y77113D01*
X843445D01*
Y77413D01*
D02*
G37*
G36*
X776728Y77113D02*
X777028D01*
Y76812D01*
X776728D01*
Y77113D01*
D02*
G37*
G36*
X869892D02*
X870192D01*
Y76812D01*
Y76512D01*
X869892D01*
Y76812D01*
Y77113D01*
D02*
G37*
G36*
X777629D02*
X777930D01*
Y76812D01*
X777629D01*
Y76512D01*
Y76211D01*
X777329D01*
Y76512D01*
Y76812D01*
X777629D01*
Y77113D01*
D02*
G37*
G36*
X776728Y76211D02*
X777028D01*
Y75911D01*
X776728D01*
Y76211D01*
D02*
G37*
G36*
X805579Y76512D02*
X805879D01*
Y76211D01*
X806180D01*
Y75911D01*
X805579D01*
Y76211D01*
Y76512D01*
D02*
G37*
G36*
X777629Y75911D02*
X777930D01*
Y75610D01*
X777629D01*
Y75911D01*
D02*
G37*
G36*
X807382D02*
X807682D01*
Y75610D01*
X807382D01*
Y75911D01*
D02*
G37*
G36*
X840440Y75610D02*
X840741D01*
Y75310D01*
X840440D01*
Y75610D01*
D02*
G37*
G36*
X805579Y75310D02*
X806180D01*
Y75009D01*
X805579D01*
Y75310D01*
D02*
G37*
G36*
X777629Y75009D02*
X777930D01*
Y74708D01*
X777629D01*
Y75009D01*
D02*
G37*
G36*
X804677D02*
X804977D01*
Y74708D01*
X804677D01*
Y75009D01*
D02*
G37*
G36*
X809185D02*
X809485D01*
Y74708D01*
X809185D01*
Y75009D01*
D02*
G37*
G36*
X837134D02*
X837435D01*
Y74708D01*
X837134D01*
Y75009D01*
D02*
G37*
G36*
X839839D02*
X840440D01*
Y74708D01*
X839839D01*
Y75009D01*
D02*
G37*
G36*
X868389Y74708D02*
X868690D01*
Y74408D01*
X868389D01*
Y74708D01*
D02*
G37*
G36*
X777930Y74408D02*
X778230D01*
Y74107D01*
X777930D01*
Y74408D01*
D02*
G37*
G36*
X837735Y75310D02*
X838336D01*
Y75009D01*
X838937D01*
Y74708D01*
X838336D01*
Y74408D01*
Y74107D01*
X838036D01*
Y74408D01*
X837435D01*
Y74107D01*
X837134D01*
Y74408D01*
X837435D01*
Y74708D01*
X837735D01*
Y75009D01*
Y75310D01*
D02*
G37*
G36*
X867788Y74708D02*
X868089D01*
Y74408D01*
Y74107D01*
X867788D01*
Y74408D01*
Y74708D01*
D02*
G37*
G36*
X868690Y74408D02*
X868990D01*
Y74107D01*
X868690D01*
Y74408D01*
D02*
G37*
G36*
X778531Y74708D02*
X778831D01*
Y74408D01*
Y74107D01*
Y73807D01*
X778531D01*
Y74107D01*
Y74408D01*
Y74708D01*
D02*
G37*
G36*
X780334Y74408D02*
X780635D01*
Y74107D01*
Y73807D01*
X780334D01*
Y74107D01*
Y74408D01*
D02*
G37*
G36*
X868089Y74107D02*
X868389D01*
Y73807D01*
X868089D01*
Y74107D01*
D02*
G37*
G36*
X778831Y73807D02*
X779132D01*
Y73506D01*
X778831D01*
Y73807D01*
D02*
G37*
G36*
X811589D02*
X811890D01*
Y73506D01*
X811589D01*
Y73807D01*
D02*
G37*
G36*
X839839D02*
X840741D01*
Y73506D01*
X839839D01*
Y73807D01*
D02*
G37*
G36*
X810086Y73506D02*
X810687D01*
Y73206D01*
X810086D01*
Y73506D01*
D02*
G37*
G36*
X779132D02*
X779432D01*
Y73206D01*
Y72905D01*
X779132D01*
Y73206D01*
Y73506D01*
D02*
G37*
G36*
X810687Y73206D02*
X811589D01*
Y72905D01*
X810687D01*
Y73206D01*
D02*
G37*
G36*
X812491D02*
X813392D01*
Y72905D01*
X812491D01*
Y73206D01*
D02*
G37*
G36*
X831725D02*
X832025D01*
Y72905D01*
X831725D01*
Y73206D01*
D02*
G37*
G36*
X839839D02*
X840741D01*
Y72905D01*
X839839D01*
Y73206D01*
D02*
G37*
G36*
X809485Y72905D02*
X809786D01*
Y72605D01*
X809485D01*
Y72905D01*
D02*
G37*
G36*
X811890D02*
X812190D01*
Y72605D01*
X811890D01*
Y72905D01*
D02*
G37*
G36*
X813993D02*
X814594D01*
Y72605D01*
X813993D01*
Y72905D01*
D02*
G37*
G36*
X830523D02*
X831424D01*
Y72605D01*
X830523D01*
Y72905D01*
D02*
G37*
G36*
X867488Y73206D02*
X867788D01*
Y72905D01*
Y72605D01*
X867488D01*
Y72905D01*
Y73206D01*
D02*
G37*
G36*
X813092Y72605D02*
X813392D01*
Y72304D01*
X813092D01*
Y72605D01*
D02*
G37*
G36*
X829320D02*
X829621D01*
Y72304D01*
X829320D01*
Y72605D01*
D02*
G37*
G36*
X836834Y72905D02*
X838336D01*
Y72605D01*
Y72304D01*
X836834D01*
Y72605D01*
Y72905D01*
D02*
G37*
G36*
X831424Y72605D02*
X832025D01*
Y72304D01*
Y72004D01*
X831124D01*
Y72304D01*
X831424D01*
Y72605D01*
D02*
G37*
G36*
X833227D02*
X833828D01*
Y72304D01*
X833528D01*
Y72004D01*
X833227D01*
Y72304D01*
Y72605D01*
D02*
G37*
G36*
X866887Y72304D02*
X867187D01*
Y72004D01*
X866887D01*
Y72304D01*
D02*
G37*
G36*
X779733Y72004D02*
X780033D01*
Y71703D01*
X779733D01*
Y72004D01*
D02*
G37*
G36*
X866286D02*
X866586D01*
Y71703D01*
X866286D01*
Y72004D01*
D02*
G37*
G36*
X865083Y72304D02*
X865384D01*
Y72004D01*
X865083D01*
Y71703D01*
Y71403D01*
X864783D01*
Y71703D01*
Y72004D01*
X865083D01*
Y72304D01*
D02*
G37*
G36*
X866586Y71703D02*
X866887D01*
Y71403D01*
X866586D01*
Y71703D01*
D02*
G37*
G36*
X865985Y72304D02*
X866286D01*
Y72004D01*
X865985D01*
Y71703D01*
X865685D01*
Y71403D01*
X865384D01*
Y71102D01*
Y70802D01*
X865083D01*
Y71102D01*
Y71403D01*
X865384D01*
Y71703D01*
X865685D01*
Y72004D01*
X865985D01*
Y72304D01*
D02*
G37*
G36*
X865685Y71102D02*
X866286D01*
Y70802D01*
X865685D01*
Y70501D01*
X865384D01*
Y70201D01*
X865083D01*
Y70501D01*
X865384D01*
Y70802D01*
X865685D01*
Y71102D01*
D02*
G37*
G36*
X862980Y69900D02*
X863581D01*
Y69599D01*
X862980D01*
Y69900D01*
D02*
G37*
G36*
X782438D02*
X782738D01*
Y69599D01*
Y69299D01*
Y68998D01*
X782438D01*
Y69299D01*
Y69599D01*
Y69900D01*
D02*
G37*
G36*
X784842D02*
X785443D01*
Y69599D01*
Y69299D01*
Y68998D01*
X784842D01*
Y69299D01*
Y69599D01*
Y69900D01*
D02*
G37*
G36*
X862078D02*
X862679D01*
Y69599D01*
Y69299D01*
Y68998D01*
X862379D01*
Y69299D01*
Y69599D01*
X862078D01*
Y69900D01*
D02*
G37*
G36*
X782738Y68998D02*
X783039D01*
Y68698D01*
X782738D01*
Y68998D01*
D02*
G37*
G36*
X783640Y68397D02*
X783940D01*
Y68097D01*
X784241D01*
Y67796D01*
X783339D01*
Y68097D01*
X783640D01*
Y68397D01*
D02*
G37*
G36*
X864182Y69900D02*
X864482D01*
Y69599D01*
X864783D01*
Y69299D01*
X864182D01*
Y68998D01*
Y68698D01*
X863881D01*
Y68397D01*
X863581D01*
Y68097D01*
X863280D01*
Y68397D01*
X862679D01*
Y68097D01*
Y67796D01*
X862379D01*
Y68097D01*
Y68397D01*
X862679D01*
Y68698D01*
Y68998D01*
X862980D01*
Y68698D01*
X863581D01*
Y68998D01*
Y69299D01*
X864182D01*
Y69599D01*
Y69900D01*
D02*
G37*
G36*
X860876Y67796D02*
X861477D01*
Y67496D01*
X860876D01*
Y67796D01*
D02*
G37*
G36*
X862679D02*
X863280D01*
Y67496D01*
X862679D01*
Y67796D01*
D02*
G37*
G36*
X783940Y67496D02*
X784241D01*
Y67195D01*
X783940D01*
Y67496D01*
D02*
G37*
G36*
X859073Y67195D02*
X859373D01*
Y66895D01*
X859674D01*
Y67195D01*
X859975D01*
Y66895D01*
Y66594D01*
X860275D01*
Y66895D01*
X860575D01*
Y67195D01*
X861177D01*
Y66895D01*
X860876D01*
Y66594D01*
X860275D01*
Y66294D01*
Y65993D01*
X859674D01*
Y66294D01*
X859073D01*
Y66594D01*
X858772D01*
Y66895D01*
X859073D01*
Y67195D01*
D02*
G37*
G36*
X861477Y67496D02*
X862078D01*
Y67195D01*
X862379D01*
Y66895D01*
Y66594D01*
X862078D01*
Y66895D01*
X861778D01*
Y67195D01*
X861477D01*
Y67496D01*
D02*
G37*
G36*
X785743Y66294D02*
X786044D01*
Y65993D01*
X785743D01*
Y66294D01*
D02*
G37*
G36*
X786044Y65993D02*
X786345D01*
Y65693D01*
X786044D01*
Y65993D01*
D02*
G37*
G36*
X789951Y65693D02*
X790251D01*
Y65392D01*
X789951D01*
Y65693D01*
D02*
G37*
G36*
X857270Y65392D02*
X858171D01*
Y65092D01*
X857270D01*
Y65392D01*
D02*
G37*
G36*
X786645Y65092D02*
X787547D01*
Y64791D01*
X786645D01*
Y65092D01*
D02*
G37*
G36*
X787847D02*
X788148D01*
Y64791D01*
X789049D01*
Y65092D01*
X789350D01*
Y64791D01*
X789049D01*
Y64490D01*
X788749D01*
Y64190D01*
X788448D01*
Y63889D01*
X787547D01*
Y64190D01*
X788148D01*
Y64490D01*
X787547D01*
Y64190D01*
X787246D01*
Y64490D01*
X787547D01*
Y64791D01*
X787847D01*
Y65092D01*
D02*
G37*
%LPD*%
D10*
X382270Y606698D02*
G03*
X377190Y601618I0J-5080D01*
G01*
X387350Y601618D02*
G03*
X382270Y606698I-5080J0D01*
G01*
X58240Y320071D02*
G03*
X49932Y320294I-4132J919D01*
G01*
X66548D02*
G03*
X58240Y320071I-4175J696D01*
G01*
X74856D02*
G03*
X66548Y320294I-4132J919D01*
G01*
X83164D02*
G03*
X74856Y320071I-4175J696D01*
G01*
X49932Y320294D02*
G03*
X41625Y320517I-4132J919D01*
G01*
X91471D02*
G03*
X83164Y320294I-4175J696D01*
G01*
X286765Y616445D02*
G03*
X281685Y616445I-2540J0D01*
G01*
X271525D02*
G03*
X266445Y616445I-2540J0D01*
G01*
X281685D02*
G03*
X276605Y616445I-2540J0D01*
G01*
D02*
G03*
X271525Y616445I-2540J0D01*
G01*
X266193Y731025D02*
G03*
X271273Y731025I2540J0D01*
G01*
X281433D02*
G03*
X286513Y731025I2540J0D01*
G01*
X271273D02*
G03*
X276353Y731025I2540J0D01*
G01*
D02*
G03*
X281433Y731025I2540J0D01*
G01*
X367030Y601618D02*
X377190D01*
X387350D02*
X397510D01*
X67733Y273540D02*
X86021D01*
X67733Y239540D02*
X86021D01*
X67733D02*
Y252730D01*
Y260350D02*
Y273540D01*
X86020Y260350D02*
Y273540D01*
Y239540D02*
Y252730D01*
X88646Y273540D02*
X106934D01*
X88646Y239540D02*
X106934D01*
X88646D02*
Y252730D01*
Y260350D02*
Y273540D01*
X106932Y260350D02*
Y273540D01*
Y239540D02*
Y252730D01*
X25908Y273540D02*
X44196D01*
X25908Y239540D02*
X44196D01*
X25908D02*
Y252730D01*
Y260350D02*
Y273540D01*
X44194Y260350D02*
Y273540D01*
Y239540D02*
Y252730D01*
X68562Y466089D02*
Y484377D01*
X34562Y466089D02*
Y484377D01*
X47752D01*
X55372D02*
X68562D01*
X55372Y466091D02*
X68562D01*
X34562D02*
X47752D01*
X68562Y486663D02*
Y504951D01*
X34562Y486663D02*
Y504951D01*
X47752D01*
X55372D02*
X68562D01*
X55372Y486665D02*
X68562D01*
X34562D02*
X47752D01*
X70830Y486666D02*
Y504954D01*
X104830Y486666D02*
Y504954D01*
X91640Y486666D02*
X104830D01*
X70830D02*
X84020D01*
X70830Y504952D02*
X84020D01*
X91640D02*
X104830D01*
X70884Y466091D02*
Y484379D01*
X104884Y466091D02*
Y484379D01*
X91694Y466091D02*
X104884D01*
X70884D02*
X84074D01*
X70884Y484377D02*
X84074D01*
X91694D02*
X104884D01*
X33423Y320294D02*
X41625D01*
X91471D02*
X100944D01*
X107188Y313944D02*
Y329184D01*
X25908Y313944D02*
Y329184D01*
Y339344D02*
Y366014D01*
X107188D01*
Y339344D02*
Y366014D01*
Y277114D02*
Y303784D01*
X25908Y277114D02*
X107188D01*
X25908D02*
Y303784D01*
X65107Y239540D02*
Y252730D01*
Y260350D02*
Y273540D01*
X46821Y260350D02*
Y273540D01*
Y239540D02*
Y252730D01*
Y239540D02*
X65109D01*
X46821Y273540D02*
X65109D01*
X165877Y597769D02*
X171937Y591709D01*
X128973Y548745D02*
X171937Y591709D01*
X165863Y597755D02*
X165877Y597769D01*
X149699Y613919D02*
X149713Y613933D01*
X129059Y634588D02*
X149713Y613933D01*
X125452Y630982D02*
X129059Y634588D01*
X125452Y630982D02*
X131738Y624695D01*
X123656Y616613D02*
X131738Y624695D01*
X143193Y600230D02*
X152174Y591249D01*
X147683Y586759D02*
X152174Y591249D01*
X138703Y595739D02*
X147683Y586759D01*
X138703Y595739D02*
X143193Y600230D01*
X122913Y554805D02*
X122928Y554819D01*
X122913Y554805D02*
X128973Y548745D01*
X106749Y570969D02*
X106763Y570984D01*
X86094Y591624D02*
X106749Y570969D01*
X86094Y591624D02*
X89701Y595230D01*
X95987Y588944D01*
X104069Y597026D01*
X118438Y575474D02*
X127418Y566493D01*
X131908Y570984D01*
X122928Y579964D02*
X131908Y570984D01*
X118438Y575474D02*
X122928Y579964D01*
X296926Y613904D02*
Y621524D01*
X256286Y613904D02*
Y621524D01*
X258826Y616445D02*
X266445D01*
X286765D02*
X294386D01*
X256286Y626604D02*
Y640574D01*
X296926D01*
Y626604D02*
Y640574D01*
Y594854D02*
Y608824D01*
X256286Y594854D02*
X296926D01*
X256286D02*
Y608824D01*
X256032Y725946D02*
Y733566D01*
X296672Y725946D02*
Y733566D01*
X286513Y731025D02*
X294132D01*
X258572D02*
X266193D01*
X296672Y706896D02*
Y720866D01*
X256032Y706896D02*
X296672D01*
X256032D02*
Y720866D01*
Y738646D02*
Y752616D01*
X296672D01*
Y738646D02*
Y752616D01*
D11*
X409215Y596138D02*
G03*
X409215Y596138I-1545J0D01*
G01*
D12*
X52910Y631068D02*
G03*
X52910Y631068I-1250J0D01*
G01*
X265413Y657608D02*
G03*
X265413Y657608I-1250J0D01*
G01*
D13*
X517816Y610595D02*
G03*
X517834Y610613I1070J-1052D01*
G01*
D14*
X460252Y95504D02*
G03*
X460252Y95504I-31500J0D01*
G01*
Y364661D02*
G03*
X460252Y364661I-31500J0D01*
G01*
X294545D02*
G03*
X294545Y364661I-31500J0D01*
G01*
X211691D02*
G03*
X211691Y364661I-31500J0D01*
G01*
X294545Y95504D02*
G03*
X294545Y95504I-31500J0D01*
G01*
X377398Y364661D02*
G03*
X377398Y364661I-31500J0D01*
G01*
X211691Y95504D02*
G03*
X211691Y95504I-31500J0D01*
G01*
X377398D02*
G03*
X377398Y95504I-31500J0D01*
G01*
X367030Y651618D02*
X397510D01*
X367030Y601618D02*
Y651618D01*
X397510Y601618D02*
Y651618D01*
X26060Y614768D02*
Y622818D01*
X57760Y614768D02*
Y622818D01*
X26060Y592318D02*
Y601068D01*
X57760Y592318D02*
Y601068D01*
X507492Y605362D02*
X511028Y608898D01*
X503956D02*
X507492Y605362D01*
X441024Y671830D02*
X444560Y675366D01*
X441024Y671830D02*
X444560Y668294D01*
X507492Y738298D02*
X511028Y734762D01*
X503956D02*
X507492Y738298D01*
X570424Y675366D02*
X573960Y671830D01*
X570424Y668294D02*
X573960Y671830D01*
X265173Y669038D02*
Y679198D01*
X296173Y669038D02*
Y679198D01*
X265173Y669038D02*
X296173D01*
X265173Y679198D02*
X296173D01*
X388874Y737616D02*
Y749046D01*
X389128D02*
X400304D01*
X32004Y144418D02*
X57284D01*
X32004Y67418D02*
X57284D01*
X66284Y102418D02*
Y114498D01*
X78984Y122118D01*
X113284D01*
X78984Y89718D02*
X113284D01*
X66284Y97338D02*
X78984Y89718D01*
X66284Y97338D02*
Y102418D01*
X49784Y67418D02*
Y144418D01*
X57284Y155918D02*
X75184D01*
X57284Y144418D02*
Y155918D01*
Y55918D02*
X75184D01*
X57284D02*
Y67418D01*
X32004D02*
Y144418D01*
X113284Y67418D02*
Y144418D01*
D15*
X127568Y699591D02*
G03*
X127568Y699591I-17780J0D01*
G01*
X111058Y656338D02*
G03*
X117351Y749895I0J46990D01*
G01*
X447252Y128504D02*
X461752Y114004D01*
X395752Y62504D02*
X461752D01*
Y114004D01*
X411252Y128504D02*
X447252D01*
X395752Y113004D02*
X411252Y128504D01*
X395752Y62504D02*
Y113004D01*
X447252Y397661D02*
X461752Y383161D01*
X395752Y331661D02*
X461752D01*
Y383161D01*
X411252Y397661D02*
X447252D01*
X395752Y382161D02*
X411252Y397661D01*
X395752Y331661D02*
Y382161D01*
X281545Y397661D02*
X296045Y383161D01*
X230045Y331661D02*
X296045D01*
Y383161D01*
X245545Y397661D02*
X281545D01*
X230045Y382161D02*
X245545Y397661D01*
X230045Y331661D02*
Y382161D01*
X198691Y397661D02*
X213191Y383161D01*
X147191Y331661D02*
X213191D01*
Y383161D01*
X162691Y397661D02*
X198691D01*
X147191Y382161D02*
X162691Y397661D01*
X147191Y331661D02*
Y382161D01*
X281545Y128504D02*
X296045Y114004D01*
X230045Y62504D02*
X296045D01*
Y114004D01*
X245545Y128504D02*
X281545D01*
X230045Y113004D02*
X245545Y128504D01*
X230045Y62504D02*
Y113004D01*
X364398Y397661D02*
X378898Y383161D01*
X312898Y331661D02*
X378898D01*
Y383161D01*
X328398Y397661D02*
X364398D01*
X312898Y382161D02*
X328398Y397661D01*
X312898Y331661D02*
Y382161D01*
X198691Y128504D02*
X213191Y114004D01*
X147191Y62504D02*
X213191D01*
Y114004D01*
X162691Y128504D02*
X198691D01*
X147191Y113004D02*
X162691Y128504D01*
X147191Y62504D02*
Y113004D01*
X364398Y128504D02*
X378898Y114004D01*
X312898Y62504D02*
X378898D01*
Y114004D01*
X328398Y128504D02*
X364398D01*
X312898Y113004D02*
X328398Y128504D01*
X312898Y62504D02*
Y113004D01*
X651764Y661467D02*
Y722427D01*
Y661467D02*
X788924D01*
Y722427D01*
X651764D02*
X788924D01*
X672084Y686867D02*
Y714807D01*
Y686867D02*
X768604D01*
Y714807D01*
X672084D02*
X768604D01*
X679704Y661467D02*
Y671627D01*
Y661467D02*
X697484D01*
Y671627D01*
X679704D02*
X697484D01*
X743204Y661467D02*
Y671627D01*
Y661467D02*
X760984D01*
Y671627D01*
X743204D02*
X760984D01*
X39938Y656338D02*
X111058D01*
X39938D02*
Y749895D01*
X117351D01*
X840806Y742912D02*
X880806D01*
X840806Y642912D02*
X880806D01*
Y725595D02*
Y742912D01*
Y677594D02*
Y708230D01*
Y642912D02*
Y660229D01*
X840806Y725595D02*
Y742912D01*
Y677594D02*
Y708230D01*
Y642912D02*
Y660229D01*
X493011Y318770D02*
X482854D01*
X493011Y328927D01*
Y331466D01*
X490471Y334005D01*
X485393D01*
X482854Y331466D01*
X498089D02*
X500628Y334005D01*
X505707D01*
X508246Y331466D01*
Y321309D01*
X505707Y318770D01*
X500628D01*
X498089Y321309D01*
Y331466D01*
X523481Y318770D02*
X513324D01*
X523481Y328927D01*
Y331466D01*
X520942Y334005D01*
X515863D01*
X513324Y331466D01*
X538716Y334005D02*
X528559D01*
Y326387D01*
X533638Y328927D01*
X536177D01*
X538716Y326387D01*
Y321309D01*
X536177Y318770D01*
X531098D01*
X528559Y321309D01*
X543794Y318770D02*
X553951Y328927D01*
X559029Y321309D02*
X561568Y318770D01*
X566647D01*
X569186Y321309D01*
Y331466D01*
X566647Y334005D01*
X561568D01*
X559029Y331466D01*
Y328927D01*
X561568Y326387D01*
X569186D01*
X574264Y318770D02*
X584421Y328927D01*
X599656Y334005D02*
X589500D01*
Y326387D01*
X594578Y328927D01*
X597117D01*
X599656Y326387D01*
Y321309D01*
X597117Y318770D01*
X592039D01*
X589500Y321309D01*
X485394Y345694D02*
Y355851D01*
X487933D01*
X490472Y353312D01*
Y345694D01*
Y353312D01*
X493012Y355851D01*
X495551Y353312D01*
Y345694D01*
X500629D02*
X505707D01*
X503168D01*
Y355851D01*
X500629D01*
X513325Y345694D02*
X520942D01*
X523482Y348233D01*
X520942Y350772D01*
X515864D01*
X513325Y353312D01*
X515864Y355851D01*
X523482D01*
X531099D02*
X536178D01*
X538717Y353312D01*
Y345694D01*
X531099D01*
X528560Y348233D01*
X531099Y350772D01*
X538717D01*
X543795Y345694D02*
Y360929D01*
Y350772D02*
X551413Y355851D01*
X543795Y350772D02*
X551413Y345694D01*
X561569Y355851D02*
X566648D01*
X569187Y353312D01*
Y345694D01*
X561569D01*
X559030Y348233D01*
X561569Y350772D01*
X569187D01*
X574265Y345694D02*
X579344D01*
X576804D01*
Y360929D01*
X574265Y358390D01*
X586961D02*
X589500Y360929D01*
X594579D01*
X597118Y358390D01*
Y348233D01*
X594579Y345694D01*
X589500D01*
X586961Y348233D01*
Y358390D01*
X602196D02*
X604735Y360929D01*
X609814D01*
X612353Y358390D01*
Y348233D01*
X609814Y345694D01*
X604735D01*
X602196Y348233D01*
Y358390D01*
X617431D02*
X619971Y360929D01*
X625049D01*
X627588Y358390D01*
Y355851D01*
X625049Y353312D01*
X622510D01*
X625049D01*
X627588Y350772D01*
Y348233D01*
X625049Y345694D01*
X619971D01*
X617431Y348233D01*
X632666D02*
X635205Y345694D01*
X640284D01*
X642823Y348233D01*
Y358390D01*
X640284Y360929D01*
X635205D01*
X632666Y358390D01*
Y355851D01*
X635205Y353312D01*
X642823D01*
X612648Y334259D02*
Y324102D01*
X617726Y319024D01*
X622805Y324102D01*
Y334259D01*
X635501Y319024D02*
X630422D01*
X627883Y321563D01*
Y326642D01*
X630422Y329181D01*
X635501D01*
X638040Y326642D01*
Y324102D01*
X627883D01*
X643118Y329181D02*
Y319024D01*
Y324102D01*
X645657Y326642D01*
X648196Y329181D01*
X650736D01*
X658353Y331720D02*
X660892Y334259D01*
X665971D01*
X668510Y331720D01*
Y321563D01*
X665971Y319024D01*
X660892D01*
X658353Y321563D01*
Y331720D01*
X673588Y319024D02*
Y321563D01*
X676127D01*
Y319024D01*
X673588D01*
X686284D02*
X691363D01*
X688823D01*
Y334259D01*
X686284Y331720D01*
X483616Y131057D02*
Y118362D01*
X486155Y115822D01*
X491233D01*
X493773Y118362D01*
Y131057D01*
X509008Y128518D02*
X506469Y131057D01*
X501390D01*
X498851Y128518D01*
Y125979D01*
X501390Y123440D01*
X506469D01*
X509008Y120901D01*
Y118362D01*
X506469Y115822D01*
X501390D01*
X498851Y118362D01*
X514086Y131057D02*
Y115822D01*
X521704D01*
X524243Y118362D01*
Y120901D01*
X521704Y123440D01*
X514086D01*
X521704D01*
X524243Y125979D01*
Y128518D01*
X521704Y131057D01*
X514086D01*
X529321Y128518D02*
X531860Y131057D01*
X536939D01*
X539478Y128518D01*
Y125979D01*
X536939Y123440D01*
X534400D01*
X536939D01*
X539478Y120901D01*
Y118362D01*
X536939Y115822D01*
X531860D01*
X529321Y118362D01*
X544556Y115822D02*
Y118362D01*
X547095D01*
Y115822D01*
X544556D01*
X557252Y128518D02*
X559791Y131057D01*
X564870D01*
X567409Y128518D01*
Y118362D01*
X564870Y115822D01*
X559791D01*
X557252Y118362D01*
Y128518D01*
X597879D02*
X595340Y131057D01*
X590261D01*
X587722Y128518D01*
Y118362D01*
X590261Y115822D01*
X595340D01*
X597879Y118362D01*
Y123440D01*
X592801D01*
X610575Y115822D02*
X605497D01*
X602957Y118362D01*
Y123440D01*
X605497Y125979D01*
X610575D01*
X613114Y123440D01*
Y120901D01*
X602957D01*
X618192Y115822D02*
Y125979D01*
X625810D01*
X628349Y123440D01*
Y115822D01*
X643584D02*
X633428D01*
X643584Y125979D01*
Y128518D01*
X641045Y131057D01*
X635967D01*
X633428Y128518D01*
X648663Y115822D02*
X658819Y125979D01*
X663898Y115822D02*
X668976D01*
X666437D01*
Y131057D01*
X663898Y128518D01*
X676594D02*
X679133Y131057D01*
X684211D01*
X686750Y128518D01*
Y118362D01*
X684211Y115822D01*
X679133D01*
X676594Y118362D01*
Y128518D01*
X701985D02*
X699446Y131057D01*
X694368D01*
X691829Y128518D01*
Y118362D01*
X694368Y115822D01*
X699446D01*
X701985Y118362D01*
Y123440D01*
X696907D01*
X707064Y110744D02*
Y125979D01*
X714681D01*
X717220Y123440D01*
Y118362D01*
X714681Y115822D01*
X707064D01*
X722299Y131057D02*
Y115822D01*
X729916D01*
X732456Y118362D01*
Y120901D01*
Y123440D01*
X729916Y125979D01*
X722299D01*
X737534Y115822D02*
X745151D01*
X747691Y118362D01*
X745151Y120901D01*
X740073D01*
X737534Y123440D01*
X740073Y125979D01*
X747691D01*
D16*
X70095Y403385D02*
G03*
X70120Y403385I13J-1244D01*
G01*
D17*
X465995Y605325D02*
X478370Y617700D01*
X471904Y624166D02*
X478370Y617700D01*
X459529Y611791D02*
X465995Y605325D01*
X459529Y611791D02*
X471904Y624166D01*
X466592Y621163D02*
X470804Y625374D01*
X464338Y631840D02*
X470804Y625374D01*
X458430Y613000D02*
X462641Y617211D01*
X451964Y619465D02*
X458429Y613000D01*
X460127Y627628D02*
X464338Y631840D01*
X451964Y619466D02*
X456175Y623677D01*
X443135Y628185D02*
X455510Y640560D01*
X449044Y647026D02*
X455510Y640560D01*
X436670Y634651D02*
X443135Y628185D01*
X436670Y634651D02*
X449044Y647026D01*
X444344Y627086D02*
X448556Y631297D01*
X444344Y627086D02*
X450810Y620620D01*
X452507Y635249D02*
X456718Y639460D01*
X456719Y639460D02*
X463184Y632995D01*
X450810Y620620D02*
X455021Y624832D01*
X458973Y628783D02*
X463184Y632994D01*
X421484Y649946D02*
X425696Y654157D01*
X421484Y649946D02*
X427950Y643480D01*
X429647Y658109D02*
X433858Y662320D01*
X433859Y662320D02*
X440324Y655855D01*
X427950Y643480D02*
X432161Y647692D01*
X436113Y651643D02*
X440324Y655854D01*
X429049Y642271D02*
X441424Y654646D01*
X429049Y642271D02*
X435515Y635805D01*
X441424Y654646D02*
X447890Y648180D01*
X435515Y635805D02*
X447890Y648180D01*
X413975Y657423D02*
X426350Y669797D01*
X420441Y650957D02*
X432815Y663332D01*
X413975Y657423D02*
X420441Y650957D01*
X426350Y669797D02*
X432815Y663332D01*
X401002Y123794D02*
Y129794D01*
X397962Y126754D02*
X404002D01*
X401002Y392951D02*
Y398951D01*
X397962Y395911D02*
X404002D01*
X235295Y392951D02*
Y398951D01*
X232255Y395911D02*
X238295D01*
X65786Y620336D02*
Y626292D01*
X74930Y631880D02*
Y637836D01*
Y620336D02*
Y626292D01*
X65786Y631880D02*
Y637836D01*
X74930D01*
X65786Y620336D02*
X74930D01*
X152441Y392951D02*
Y398951D01*
X149401Y395911D02*
X155441D01*
X235295Y123794D02*
Y129794D01*
X232255Y126754D02*
X238295D01*
X318148Y392951D02*
Y398951D01*
X315108Y395911D02*
X321148D01*
X152441Y123794D02*
Y129794D01*
X149401Y126754D02*
X155441D01*
X318148Y123794D02*
Y129794D01*
X315108Y126754D02*
X321148D01*
X232664Y623238D02*
X241808D01*
X232664Y640738D02*
X241808D01*
X232664Y623238D02*
Y640738D01*
X241808Y623238D02*
Y640738D01*
X34182Y406146D02*
Y415290D01*
X16682Y406146D02*
Y415290D01*
Y406146D02*
X34182D01*
X16682Y415290D02*
X34182D01*
X35918Y448818D02*
Y457962D01*
X53418Y448818D02*
Y457962D01*
X35918D02*
X53418D01*
X35918Y448818D02*
X53418D01*
X73067Y255270D02*
X80687D01*
X73067Y257810D02*
X80687D01*
X76877D02*
Y259080D01*
Y254000D02*
Y255270D01*
X93979D02*
X101599D01*
X93979Y257810D02*
X101599D01*
X97789D02*
Y259080D01*
Y254000D02*
Y255270D01*
X31241D02*
X38861D01*
X31241Y257810D02*
X38861D01*
X35051D02*
Y259080D01*
Y254000D02*
Y255270D01*
X34183Y395478D02*
Y404622D01*
X16682Y395478D02*
Y404622D01*
Y395478D02*
X22638D01*
X28226Y404622D02*
X34182D01*
X16683D02*
X22638D01*
X28226Y395478D02*
X34182D01*
X16682Y384810D02*
Y393954D01*
X34182Y384810D02*
Y393954D01*
X16682D02*
X34182D01*
X16682Y384810D02*
X34182D01*
Y427482D02*
Y436626D01*
X16682Y427482D02*
Y436626D01*
Y427482D02*
X34182D01*
X16682Y436626D02*
X34182D01*
Y448818D02*
Y457962D01*
X16682Y448818D02*
Y457962D01*
Y448818D02*
X22638D01*
X28226Y457962D02*
X34182D01*
X16682D02*
X22638D01*
X28226Y448818D02*
X34182D01*
X16682Y438150D02*
Y447294D01*
X34182Y438150D02*
Y447294D01*
X16682D02*
X34182D01*
X16682Y438150D02*
X34182D01*
X50292Y471424D02*
Y479044D01*
X52832Y471424D02*
Y479044D01*
Y475234D02*
X54102D01*
X49022D02*
X50292D01*
Y491998D02*
Y499618D01*
X52832Y491998D02*
Y499618D01*
Y495808D02*
X54102D01*
X49022D02*
X50292D01*
X89100Y491999D02*
Y499619D01*
X86560Y491999D02*
Y499619D01*
X85290Y495809D02*
X86560D01*
X89100D02*
X90370D01*
X89154Y471424D02*
Y479044D01*
X86614Y471424D02*
Y479044D01*
X85344Y475234D02*
X86614D01*
X89154D02*
X90424D01*
X632587Y601955D02*
X638543D01*
X638543D02*
Y611099D01*
X621044Y601955D02*
X626999D01*
X621043D02*
Y611099D01*
X632587D02*
X638543D01*
X621044D02*
X626999D01*
X632587Y591287D02*
X638543D01*
X638543D02*
Y600431D01*
X621044Y591287D02*
X626999D01*
X621043D02*
Y600431D01*
X632587D02*
X638543D01*
X621044D02*
X626999D01*
X631698Y633476D02*
X637654D01*
X637654D02*
Y642620D01*
X620154Y633476D02*
X626110D01*
X620154D02*
Y642620D01*
X631698D02*
X637654D01*
X620154D02*
X626110D01*
X488868Y750316D02*
X506368D01*
X488868Y741172D02*
Y750316D01*
X506368Y741172D02*
Y750316D01*
X488868Y741172D02*
X506368D01*
X470017Y742441D02*
X482391Y730067D01*
X463551Y735976D02*
X470017Y742441D01*
X475925Y723601D02*
X482391Y730067D01*
X463551Y735976D02*
X475925Y723601D01*
X542776Y719422D02*
X546987Y723633D01*
X550939Y727585D02*
X555150Y731796D01*
X542776Y719422D02*
X549242Y712956D01*
X549242Y712956D02*
X553453Y717168D01*
X555150Y731796D02*
X561616Y725330D01*
X557405Y721119D02*
X561616Y725330D01*
X534394Y728058D02*
X538605Y732269D01*
X542557Y736220D02*
X546768Y740432D01*
X534394Y728058D02*
X540860Y721592D01*
X540860Y721592D02*
X545071Y725804D01*
X546768Y740432D02*
X553234Y733966D01*
X549023Y729755D02*
X553234Y733966D01*
X537050Y620290D02*
X541261Y616078D01*
X545213Y612127D02*
X549424Y607916D01*
X530584Y613824D02*
X537050Y620290D01*
X530584Y613824D02*
X534795Y609613D01*
X542958Y601450D02*
X549424Y607916D01*
X538747Y605662D02*
X542958Y601450D01*
X551412Y710786D02*
X555624Y714997D01*
X559575Y718949D02*
X563786Y723160D01*
X551412Y710786D02*
X557878Y704320D01*
X557878Y704320D02*
X562089Y708531D01*
X563786Y723160D02*
X570252Y716694D01*
X566041Y712483D02*
X570252Y716694D01*
X489444Y601472D02*
X506944D01*
X489444Y592328D02*
Y601472D01*
X506944Y592328D02*
Y601472D01*
X489444Y592328D02*
X506944D01*
X545686Y628926D02*
X549897Y624715D01*
X553849Y620763D02*
X558060Y616552D01*
X539220Y622460D02*
X545686Y628926D01*
X539220Y622460D02*
X543432Y618249D01*
X551594Y610086D02*
X558060Y616552D01*
X547383Y614297D02*
X551594Y610086D01*
X521417Y604703D02*
X533792Y592329D01*
X540257Y598794D01*
X521417Y604703D02*
X527883Y611169D01*
X540257Y598794D01*
X448736Y750316D02*
X466236D01*
X448736Y741172D02*
Y750316D01*
X466236Y741172D02*
Y750316D01*
X448736Y741172D02*
X466236D01*
X446291Y702943D02*
X450502Y698732D01*
X438128Y711106D02*
X442340Y706895D01*
X450503Y698732D02*
X456968Y705198D01*
X452757Y709409D02*
X456968Y705198D01*
X438128Y711106D02*
X444594Y717572D01*
X444594Y717572D02*
X448805Y713361D01*
X562704Y645690D02*
X566915Y641479D01*
X570867Y637527D02*
X575078Y633316D01*
X556238Y639224D02*
X562704Y645690D01*
X556238Y639224D02*
X560449Y635013D01*
X568612Y626850D02*
X575078Y633316D01*
X564401Y631062D02*
X568612Y626850D01*
X571340Y654072D02*
X575551Y649861D01*
X579503Y645909D02*
X583714Y641698D01*
X564874Y647606D02*
X571340Y654072D01*
X564874Y647606D02*
X569086Y643395D01*
X577248Y635232D02*
X583714Y641698D01*
X573037Y639444D02*
X577248Y635232D01*
X438671Y695323D02*
X442882Y691112D01*
X430508Y703486D02*
X434720Y699275D01*
X442882Y691112D02*
X449348Y697578D01*
X445137Y701789D02*
X449348Y697578D01*
X430508Y703486D02*
X436974Y709952D01*
X436974Y709952D02*
X441185Y705741D01*
X554068Y637308D02*
X558279Y633097D01*
X562231Y629145D02*
X566442Y624934D01*
X547602Y630842D02*
X554068Y637308D01*
X547602Y630842D02*
X551814Y626631D01*
X559976Y618468D02*
X566442Y624934D01*
X555765Y622679D02*
X559976Y618468D01*
X431051Y687703D02*
X435262Y683492D01*
X422888Y695866D02*
X427099Y691655D01*
X435262Y683492D02*
X441728Y689958D01*
X437517Y694169D02*
X441728Y689958D01*
X422888Y695866D02*
X429354Y702332D01*
X429354Y702332D02*
X433565Y698120D01*
X424434Y709744D02*
Y715700D01*
Y721288D02*
Y727244D01*
Y709744D02*
X433578D01*
Y709744D02*
Y715700D01*
X424434Y727244D02*
X433578D01*
Y721288D02*
Y727243D01*
X486659Y601097D02*
X490870Y605308D01*
X478496Y592934D02*
X482707Y597146D01*
X484405Y611774D02*
X490870Y605309D01*
X480193Y607563D02*
X484404Y611774D01*
X472030Y599400D02*
X478496Y592934D01*
X472030Y599400D02*
X476242Y603611D01*
X433578Y741934D02*
Y747890D01*
Y730390D02*
Y736346D01*
X424434Y747890D02*
X433578D01*
X424434Y741934D02*
Y747890D01*
Y730390D02*
X433578D01*
X424434Y730390D02*
Y736346D01*
X618196Y707292D02*
X622407Y703081D01*
X626358Y699129D02*
X630570Y694918D01*
X611730Y700826D02*
X618195Y707292D01*
X611730Y700826D02*
X615941Y696615D01*
X624104Y688452D02*
X630570Y694918D01*
X619893Y692664D02*
X624104Y688452D01*
X610576Y699672D02*
X614787Y695461D01*
X618739Y691509D02*
X622950Y687298D01*
X604110Y693206D02*
X610575Y699672D01*
X604110Y693206D02*
X608321Y688995D01*
X616484Y680832D02*
X622950Y687298D01*
X612273Y685044D02*
X616484Y680832D01*
X620154Y631952D02*
X626110D01*
X631698D02*
X637654D01*
X620154Y622808D02*
Y631952D01*
X620154Y622808D02*
X626110D01*
X637654D02*
Y631952D01*
X631698Y622808D02*
X637654D01*
X616090Y726948D02*
X622046D01*
X627634D02*
X633590D01*
X616090Y717804D02*
Y726948D01*
X616090Y717804D02*
X622046D01*
X633590D02*
Y726948D01*
X627634Y717804D02*
X633590D01*
X526266Y736440D02*
X530477Y740651D01*
X534429Y744603D02*
X538640Y748814D01*
X526266Y736440D02*
X532732Y729974D01*
X532732Y729974D02*
X536943Y734185D01*
X538640Y748814D02*
X545106Y742348D01*
X540895Y738137D02*
X545106Y742348D01*
X452237Y725169D02*
X464611Y712795D01*
X445771Y718704D02*
X452237Y725169D01*
X458145Y706329D02*
X464611Y712795D01*
X445771Y718704D02*
X458145Y706329D01*
X616090Y737616D02*
X622046D01*
X627634D02*
X633590D01*
X616090Y728472D02*
Y737616D01*
X616090Y728472D02*
X622046D01*
X633590D02*
Y737616D01*
X627634Y728472D02*
X633590D01*
X471125Y743641D02*
X483500Y731267D01*
X489965Y737732D01*
X471125Y743641D02*
X477591Y750107D01*
X489965Y737732D01*
X578175Y684485D02*
X590549Y696860D01*
X584084Y703325D02*
X590549Y696860D01*
X571709Y690951D02*
X578175Y684485D01*
X571709Y690951D02*
X584084Y703325D01*
X508294Y741172D02*
X525794D01*
Y750316D01*
X508294Y741172D02*
Y750316D01*
X525794D01*
X461785Y718184D02*
X465996Y713972D01*
X453622Y726346D02*
X457834Y722135D01*
X465997Y713972D02*
X472462Y720438D01*
X468251Y724649D02*
X472462Y720438D01*
X453622Y726346D02*
X460088Y732812D01*
X460088Y732812D02*
X464299Y728600D01*
X559794Y702658D02*
X564006Y706869D01*
X567957Y710820D02*
X572168Y715032D01*
X559794Y702658D02*
X566260Y696192D01*
X566260Y696192D02*
X570471Y700404D01*
X572168Y715032D02*
X578634Y708566D01*
X574423Y704355D02*
X578634Y708566D01*
X508616Y592328D02*
X526116D01*
Y601472D01*
X508616Y592328D02*
Y601472D01*
X526116D01*
X44958Y384660D02*
Y402160D01*
X35814Y384660D02*
Y402160D01*
X44958D01*
X35814Y384660D02*
X44958D01*
X58094Y384810D02*
X64050D01*
X46551Y393954D02*
X52506D01*
X58094D02*
X64050D01*
X46550Y384810D02*
X52506D01*
X46550D02*
Y393954D01*
X64050Y384810D02*
Y393954D01*
X55964Y254000D02*
Y255270D01*
Y257810D02*
Y259080D01*
X52154Y257810D02*
X59774D01*
X52154Y255270D02*
X59774D01*
X16682Y416814D02*
X34182D01*
X16682Y425958D02*
X34182D01*
Y416814D02*
Y425958D01*
X16682Y416814D02*
Y425958D01*
X326528Y659130D02*
Y672846D01*
X299604Y659130D02*
Y672846D01*
X316368D02*
X326528D01*
X299604Y659130D02*
X309764D01*
X316368D02*
X326528D01*
X299604Y672846D02*
X309764D01*
X314082Y665988D02*
X315352D01*
X310780D02*
X312050D01*
Y663448D02*
Y668528D01*
X314082Y663448D02*
Y668528D01*
X326528Y674878D02*
Y688594D01*
X299604Y674878D02*
Y688594D01*
X316368D02*
X326528D01*
X299604Y674878D02*
X309764D01*
X316368D02*
X326528D01*
X299604Y688594D02*
X309764D01*
X314082Y681736D02*
X315352D01*
X310780D02*
X312050D01*
Y679196D02*
Y684276D01*
X314082Y679196D02*
Y684276D01*
X232918Y594786D02*
Y612286D01*
X242062Y594786D02*
Y612286D01*
X232918Y594786D02*
X242062D01*
X232918Y612286D02*
X242062D01*
Y735184D02*
Y752684D01*
X232918Y735184D02*
Y752684D01*
X242062D01*
X232918Y735184D02*
X242062D01*
X85852Y620186D02*
Y637686D01*
X76708Y620186D02*
Y637686D01*
X85852D01*
X76708Y620186D02*
X85852D01*
X252984Y594786D02*
Y612286D01*
X243840Y594786D02*
Y612286D01*
X252984D01*
X243840Y594786D02*
X252984D01*
X243840Y735184D02*
Y752684D01*
X252984Y735184D02*
Y752684D01*
X243840Y735184D02*
X252984D01*
X243840Y752684D02*
X252984D01*
X243840Y623238D02*
Y640738D01*
X252984Y623238D02*
Y640738D01*
X243840Y623238D02*
X252984D01*
X243840Y640738D02*
X252984D01*
Y706546D02*
Y724046D01*
X243840Y706546D02*
Y724046D01*
X252984D01*
X243840Y706546D02*
X252984D01*
X326528Y594614D02*
Y608330D01*
X299604Y594614D02*
Y608330D01*
X316368D02*
X326528D01*
X299604Y594614D02*
X309764D01*
X316368D02*
X326528D01*
X299604Y608330D02*
X309764D01*
X314082Y601472D02*
X315352D01*
X310780D02*
X312050D01*
Y598932D02*
Y604012D01*
X314082Y598932D02*
Y604012D01*
X326528Y610108D02*
Y623824D01*
X299604Y610108D02*
Y623824D01*
X316368D02*
X326528D01*
X299604Y610108D02*
X309764D01*
X316368D02*
X326528D01*
X299604Y623824D02*
X309764D01*
X314082Y616966D02*
X315352D01*
X310780D02*
X312050D01*
Y614426D02*
Y619506D01*
X314082Y614426D02*
Y619506D01*
X326528Y739140D02*
Y752856D01*
X299604Y739140D02*
Y752856D01*
X316368D02*
X326528D01*
X299604Y739140D02*
X309764D01*
X316368D02*
X326528D01*
X299604Y752856D02*
X309764D01*
X314082Y745998D02*
X315352D01*
X310780D02*
X312050D01*
Y743458D02*
Y748538D01*
X314082Y743458D02*
Y748538D01*
X326528Y723646D02*
Y737362D01*
X299604Y723646D02*
Y737362D01*
X316368D02*
X326528D01*
X299604Y723646D02*
X309764D01*
X316368D02*
X326528D01*
X299604Y737362D02*
X309764D01*
X314082Y730504D02*
X315352D01*
X310780D02*
X312050D01*
Y727964D02*
Y733044D01*
X314082Y727964D02*
Y733044D01*
X232918Y706546D02*
Y724046D01*
X242062Y706546D02*
Y724046D01*
X232918Y706546D02*
X242062D01*
X232918Y724046D02*
X242062D01*
D18*
X104095Y434521D02*
Y435385D01*
Y436385D01*
X92480Y406385D02*
X104095D01*
Y408249D01*
X85480Y406385D02*
X86210D01*
X78480D02*
X79210D01*
X64095D02*
Y408249D01*
Y406385D02*
X72210D01*
X64095Y436385D02*
X75710D01*
X64095Y434521D02*
Y436385D01*
X81980D02*
X82710D01*
X88980D02*
X89710D01*
X95980D02*
X104095D01*
D19*
X389890Y709676D02*
X422910D01*
Y747776D01*
X389890Y709676D02*
Y747776D01*
X422910D01*
D20*
X496226Y90838D02*
X491994Y95070D01*
X483530D01*
X479298Y90838D01*
Y73910D01*
X483530Y69678D01*
X491994D01*
X496226Y73910D01*
X504690Y95070D02*
Y69678D01*
Y82374D01*
X508922Y86606D01*
X517386D01*
X521618Y82374D01*
Y69678D01*
X534314Y86606D02*
X542777D01*
X547009Y82374D01*
Y69678D01*
X534314D01*
X530082Y73910D01*
X534314Y78142D01*
X547009D01*
X555473Y69678D02*
Y86606D01*
X568169D01*
X572401Y82374D01*
Y69678D01*
X589329Y61214D02*
X593561D01*
X597793Y65446D01*
Y86606D01*
X585097D01*
X580865Y82374D01*
Y73910D01*
X585097Y69678D01*
X597793D01*
X618953D02*
X610489D01*
X606257Y73910D01*
Y82374D01*
X610489Y86606D01*
X618953D01*
X623185Y82374D01*
Y78142D01*
X606257D01*
X635881Y69678D02*
X644345D01*
X648577Y73910D01*
Y82374D01*
X644345Y86606D01*
X635881D01*
X631649Y82374D01*
Y73910D01*
X635881Y69678D01*
X682432Y95070D02*
X699360D01*
X690896D01*
Y69678D01*
X720520D02*
X712056D01*
X707824Y73910D01*
Y82374D01*
X712056Y86606D01*
X720520D01*
X724752Y82374D01*
Y78142D01*
X707824D01*
X750144Y86606D02*
X737448D01*
X733216Y82374D01*
Y73910D01*
X737448Y69678D01*
X750144D01*
M02*
