%TF.GenerationSoftware,Altium Limited,Altium Designer,24.0.1 (36)*%
G04 Layer_Color=128*
%FSLAX45Y45*%
%MOMM*%
%TF.SameCoordinates,67999EC4-2163-46B7-AA5F-10FA3A16FE06*%
%TF.FilePolarity,Positive*%
%TF.FileFunction,Paste,Bot*%
%TF.Part,Single*%
G01*
G75*
%TA.AperFunction,SMDPad,CuDef*%
%ADD18R,0.50000X0.50000*%
%ADD26R,1.27000X0.88900*%
%ADD30R,0.50000X0.50000*%
%ADD46R,1.20000X1.30000*%
G04:AMPARAMS|DCode=62|XSize=1.27mm|YSize=0.889mm|CornerRadius=0mm|HoleSize=0mm|Usage=FLASHONLY|Rotation=0.000|XOffset=0mm|YOffset=0mm|HoleType=Round|Shape=Octagon|*
%AMOCTAGOND62*
4,1,8,0.63500,-0.22225,0.63500,0.22225,0.41275,0.44450,-0.41275,0.44450,-0.63500,0.22225,-0.63500,-0.22225,-0.41275,-0.44450,0.41275,-0.44450,0.63500,-0.22225,0.0*
%
%ADD62OCTAGOND62*%

%TA.AperFunction,ConnectorPad*%
G04:AMPARAMS|DCode=63|XSize=1.27mm|YSize=0.889mm|CornerRadius=0mm|HoleSize=0mm|Usage=FLASHONLY|Rotation=180.000|XOffset=0mm|YOffset=0mm|HoleType=Round|Shape=Octagon|*
%AMOCTAGOND63*
4,1,8,-0.63500,0.22225,-0.63500,-0.22225,-0.41275,-0.44450,0.41275,-0.44450,0.63500,-0.22225,0.63500,0.22225,0.41275,0.44450,-0.41275,0.44450,-0.63500,0.22225,0.0*
%
%ADD63OCTAGOND63*%

%ADD64R,1.27000X0.88900*%
%TA.AperFunction,SMDPad,CuDef*%
%ADD65R,3.30000X3.30000*%
%ADD66O,0.70000X0.20000*%
%ADD67O,0.20000X0.70000*%
%ADD68R,2.40000X2.80000*%
%ADD69R,0.56500X0.20000*%
%ADD71R,1.50000X0.50000*%
%ADD72O,1.50000X0.50000*%
%ADD73R,0.75000X0.85000*%
%ADD77R,0.60000X2.90000*%
G36*
X8154820Y7276880D02*
X8098320D01*
Y7312880D01*
X8154820D01*
Y7276880D01*
D02*
G37*
G36*
X8071320D02*
X8014820D01*
Y7312880D01*
X8071320D01*
Y7276880D01*
D02*
G37*
G36*
X5945030Y7109054D02*
X5925030D01*
Y7179056D01*
X5945030D01*
Y7109054D01*
D02*
G37*
G36*
X5905025D02*
X5885025D01*
Y7179056D01*
X5905025D01*
Y7109054D01*
D02*
G37*
G36*
X5865020D02*
X5845020D01*
Y7179056D01*
X5865020D01*
Y7109054D01*
D02*
G37*
G36*
X5825015D02*
X5805015D01*
Y7179056D01*
X5825015D01*
Y7109054D01*
D02*
G37*
G36*
X5740027Y7094055D02*
X5670024D01*
Y7114055D01*
X5740027D01*
Y7094055D01*
D02*
G37*
G36*
X6080024Y7094035D02*
X6010024D01*
Y7114035D01*
X6080024D01*
Y7094035D01*
D02*
G37*
G36*
X5740022Y7054035D02*
X5670022D01*
Y7074035D01*
X5740022D01*
Y7054035D01*
D02*
G37*
G36*
X6080024Y7054030D02*
X6010024D01*
Y7074030D01*
X6080024D01*
Y7054030D01*
D02*
G37*
G36*
Y7014050D02*
X6010024D01*
Y7034050D01*
X6080024D01*
Y7014050D01*
D02*
G37*
G36*
X5740022Y7014030D02*
X5670022D01*
Y7034030D01*
X5740022D01*
Y7014030D01*
D02*
G37*
G36*
Y6974050D02*
X5670022D01*
Y6994050D01*
X5740022D01*
Y6974050D01*
D02*
G37*
G36*
X6080024Y6974045D02*
X6010024D01*
Y6994045D01*
X6080024D01*
Y6974045D01*
D02*
G37*
G36*
X5740022Y6934045D02*
X5670022D01*
Y6954045D01*
X5740022D01*
Y6934045D01*
D02*
G37*
G36*
X6080024Y6934040D02*
X6010024D01*
Y6954040D01*
X6080024D01*
Y6934040D01*
D02*
G37*
G36*
X5740022Y6894040D02*
X5670022D01*
Y6914040D01*
X5740022D01*
Y6894040D01*
D02*
G37*
G36*
X6080024Y6894035D02*
X6010024D01*
Y6914035D01*
X6080024D01*
Y6894035D01*
D02*
G37*
G36*
X5740022Y6854035D02*
X5670022D01*
Y6874035D01*
X5740022D01*
Y6854035D01*
D02*
G37*
G36*
X6080024Y6854030D02*
X6010024D01*
Y6874030D01*
X6080024D01*
Y6854030D01*
D02*
G37*
G36*
Y6814050D02*
X6010024D01*
Y6834050D01*
X6080024D01*
Y6814050D01*
D02*
G37*
G36*
X5740022Y6814030D02*
X5670022D01*
Y6834030D01*
X5740022D01*
Y6814030D01*
D02*
G37*
G36*
X5955020Y6804040D02*
X5795020D01*
Y7044040D01*
X5955020D01*
Y6804040D01*
D02*
G37*
G36*
X5740022Y6774050D02*
X5670022D01*
Y6794050D01*
X5740022D01*
Y6774050D01*
D02*
G37*
G36*
X6080021Y6774045D02*
X6010021D01*
Y6794045D01*
X6080021D01*
Y6774045D01*
D02*
G37*
G36*
X5740022Y6734045D02*
X5670022D01*
Y6754045D01*
X5740022D01*
Y6734045D01*
D02*
G37*
G36*
X6080016Y6734025D02*
X6010014D01*
Y6754025D01*
X6080016D01*
Y6734025D01*
D02*
G37*
G36*
X5945025Y6669024D02*
X5925025D01*
Y6739026D01*
X5945025D01*
Y6669024D01*
D02*
G37*
G36*
X5905020D02*
X5885020D01*
Y6739026D01*
X5905020D01*
Y6669024D01*
D02*
G37*
G36*
X5865015D02*
X5845015D01*
Y6739026D01*
X5865015D01*
Y6669024D01*
D02*
G37*
G36*
X5825010D02*
X5805010D01*
Y6739026D01*
X5825010D01*
Y6669024D01*
D02*
G37*
G36*
X8154820Y6542820D02*
X8098320D01*
Y6578820D01*
X8154820D01*
Y6542820D01*
D02*
G37*
G36*
X8071320D02*
X8014820D01*
Y6578820D01*
X8071320D01*
Y6542820D01*
D02*
G37*
D18*
X6493736Y6092774D02*
D03*
X6403736D02*
D03*
X6493736Y5986094D02*
D03*
X6403736D02*
D03*
X8114582Y2194560D02*
D03*
X8024582D02*
D03*
X7651879Y3073400D02*
D03*
X7736879D02*
D03*
X7651879Y3180080D02*
D03*
X7736879D02*
D03*
X7739382Y3286760D02*
D03*
X7649382D02*
D03*
X6134817Y589280D02*
D03*
X6224817D02*
D03*
X6134820Y695960D02*
D03*
X6224820D02*
D03*
X7649384Y1379220D02*
D03*
X7739384D02*
D03*
X7736882Y1272540D02*
D03*
X7651882D02*
D03*
X7736882Y1165860D02*
D03*
X7651882D02*
D03*
X7739380Y1739900D02*
D03*
X7649380D02*
D03*
X7739380Y1633220D02*
D03*
X7649380D02*
D03*
X7739380Y1485900D02*
D03*
X7649380D02*
D03*
X8744804Y1620520D02*
D03*
X8834804D02*
D03*
X8744804Y1513840D02*
D03*
X8834804D02*
D03*
X8744804Y1300480D02*
D03*
X8834804D02*
D03*
X8744804Y1727200D02*
D03*
X8834804D02*
D03*
X8744804Y1193800D02*
D03*
X8834804D02*
D03*
X8744804Y1407160D02*
D03*
X8834804D02*
D03*
X8744804Y3634740D02*
D03*
X8834804D02*
D03*
X8744804Y3314700D02*
D03*
X8834804D02*
D03*
X8744804Y3528060D02*
D03*
X8834804D02*
D03*
X8744804Y3208020D02*
D03*
X8834804D02*
D03*
X7739380Y3647440D02*
D03*
X7649380D02*
D03*
X7739380Y3540760D02*
D03*
X7649380D02*
D03*
X7739380Y3393440D02*
D03*
X7649380D02*
D03*
X8744804Y3421380D02*
D03*
X8834804D02*
D03*
X8744804Y3101340D02*
D03*
X8834804D02*
D03*
X8024582Y4102100D02*
D03*
X8114582D02*
D03*
X7739380Y5471160D02*
D03*
X7649380D02*
D03*
X7739380Y5577840D02*
D03*
X7649380D02*
D03*
X8024582Y6035040D02*
D03*
X8114582D02*
D03*
X8744804Y5565140D02*
D03*
X8834804D02*
D03*
X7739380Y5323840D02*
D03*
X7649380D02*
D03*
X8744804Y5138420D02*
D03*
X8834804D02*
D03*
X8744804Y5458460D02*
D03*
X8834804D02*
D03*
X8744804Y5031740D02*
D03*
X8834804D02*
D03*
X7649384Y5217160D02*
D03*
X7739384D02*
D03*
X7736882Y5110480D02*
D03*
X7651882D02*
D03*
X8744804Y5245100D02*
D03*
X8834804D02*
D03*
X8744804Y5351780D02*
D03*
X8834804D02*
D03*
X7736882Y5003800D02*
D03*
X7651882D02*
D03*
X4557479Y3289300D02*
D03*
X4647478D02*
D03*
X4557479Y3182620D02*
D03*
X4647478D02*
D03*
X5521242Y6913880D02*
D03*
X5431242D02*
D03*
X5521242Y7020560D02*
D03*
X5431242D02*
D03*
D26*
X264158Y3855802D02*
D03*
X264174Y4668357D02*
D03*
X264158Y1041532D02*
D03*
X264174Y1854087D02*
D03*
X264158Y6661152D02*
D03*
D30*
X111760Y1666920D02*
D03*
Y1751920D02*
D03*
Y974680D02*
D03*
Y889680D02*
D03*
Y6595020D02*
D03*
Y6510020D02*
D03*
Y3789000D02*
D03*
Y3704000D02*
D03*
Y4481240D02*
D03*
Y4566240D02*
D03*
X5930900Y7398983D02*
D03*
Y7313983D02*
D03*
X6040120Y7401165D02*
D03*
Y7311165D02*
D03*
X5712460Y7313340D02*
D03*
Y7398340D02*
D03*
X5821680Y7313340D02*
D03*
Y7398340D02*
D03*
X5811520Y6519500D02*
D03*
Y6434500D02*
D03*
X5923280Y6519500D02*
D03*
Y6434500D02*
D03*
X8016240Y3907238D02*
D03*
Y3997238D02*
D03*
X7975600Y4748700D02*
D03*
Y4838700D02*
D03*
X8122920Y2086877D02*
D03*
Y2001877D02*
D03*
X8016240Y1999698D02*
D03*
Y2089698D02*
D03*
X8229600Y1999702D02*
D03*
Y2089702D02*
D03*
X8306367Y1000760D02*
D03*
Y910760D02*
D03*
X8336280Y1999702D02*
D03*
Y2089702D02*
D03*
X8549640Y1999702D02*
D03*
Y2089702D02*
D03*
X8442960Y1999702D02*
D03*
Y2089702D02*
D03*
X8486140Y701762D02*
D03*
Y791762D02*
D03*
Y1000038D02*
D03*
Y910038D02*
D03*
X7975600D02*
D03*
Y1000038D02*
D03*
X8188960Y1000760D02*
D03*
Y910760D02*
D03*
X7868920Y913585D02*
D03*
Y998585D02*
D03*
X8082280Y910038D02*
D03*
Y1000038D02*
D03*
X7762240D02*
D03*
Y910038D02*
D03*
X8229600Y3907242D02*
D03*
Y3997242D02*
D03*
X8336280Y3907242D02*
D03*
Y3997242D02*
D03*
X8122920Y3909417D02*
D03*
Y3994417D02*
D03*
X8442960Y3907242D02*
D03*
Y3997242D02*
D03*
X8549640Y3907242D02*
D03*
Y3997242D02*
D03*
X8306367Y2908300D02*
D03*
Y2818300D02*
D03*
X8486140Y2907578D02*
D03*
Y2817578D02*
D03*
X7975600Y2818298D02*
D03*
Y2908298D02*
D03*
X7868920Y2821125D02*
D03*
Y2906125D02*
D03*
X8082280Y2818298D02*
D03*
Y2908298D02*
D03*
X8188960Y2908300D02*
D03*
Y2818300D02*
D03*
X7762240Y2908300D02*
D03*
Y2818300D02*
D03*
X8486140Y2609302D02*
D03*
Y2699302D02*
D03*
X8336280Y5837642D02*
D03*
Y5927642D02*
D03*
X8306367Y4838700D02*
D03*
Y4748700D02*
D03*
X8442960Y5837642D02*
D03*
Y5927642D02*
D03*
X8229600Y5837642D02*
D03*
Y5927642D02*
D03*
X8188960Y4838700D02*
D03*
Y4748700D02*
D03*
X8122920Y5924817D02*
D03*
Y5839817D02*
D03*
X8016240Y5837638D02*
D03*
Y5927638D02*
D03*
X8486140Y4539702D02*
D03*
Y4629702D02*
D03*
X8549640Y5837642D02*
D03*
Y5927642D02*
D03*
X8486140Y4837978D02*
D03*
Y4747978D02*
D03*
X8082280Y4748700D02*
D03*
Y4838700D02*
D03*
X7762240D02*
D03*
Y4748700D02*
D03*
X7868920Y4751525D02*
D03*
Y4836525D02*
D03*
X111760Y7372940D02*
D03*
Y7287940D02*
D03*
D46*
X8798380Y956760D02*
D03*
Y746760D02*
D03*
X8628380D02*
D03*
Y956760D02*
D03*
X8798380Y2864300D02*
D03*
Y2654300D02*
D03*
X8628380D02*
D03*
Y2864300D02*
D03*
X8798380Y4794700D02*
D03*
Y4584700D02*
D03*
X8628380D02*
D03*
Y4794700D02*
D03*
D62*
X264158Y4045802D02*
D03*
X264174Y4478357D02*
D03*
X264158Y1231532D02*
D03*
X264174Y1664087D02*
D03*
X264158Y6851152D02*
D03*
D63*
X264174Y7283707D02*
D03*
D64*
Y7473707D02*
D03*
D65*
X8245120Y5340040D02*
D03*
X8244840Y1501140D02*
D03*
Y3408680D02*
D03*
D66*
X7945120Y5560040D02*
D03*
Y5520040D02*
D03*
Y5480040D02*
D03*
Y5440040D02*
D03*
Y5400040D02*
D03*
Y5360040D02*
D03*
Y5320040D02*
D03*
Y5280040D02*
D03*
Y5240040D02*
D03*
Y5200040D02*
D03*
Y5160040D02*
D03*
Y5120040D02*
D03*
X8545120D02*
D03*
Y5160040D02*
D03*
Y5200040D02*
D03*
Y5240040D02*
D03*
Y5280040D02*
D03*
Y5320040D02*
D03*
Y5360040D02*
D03*
Y5400040D02*
D03*
Y5440040D02*
D03*
Y5480040D02*
D03*
Y5520040D02*
D03*
Y5560040D02*
D03*
X8544840Y1721140D02*
D03*
Y1681140D02*
D03*
Y1641140D02*
D03*
Y1601140D02*
D03*
Y1561140D02*
D03*
Y1521140D02*
D03*
Y1481140D02*
D03*
Y1441140D02*
D03*
Y1401140D02*
D03*
Y1361140D02*
D03*
Y1321140D02*
D03*
Y1281140D02*
D03*
X7944840D02*
D03*
Y1321140D02*
D03*
Y1361140D02*
D03*
Y1401140D02*
D03*
Y1441140D02*
D03*
Y1481140D02*
D03*
Y1521140D02*
D03*
Y1561140D02*
D03*
Y1601140D02*
D03*
Y1641140D02*
D03*
Y1681140D02*
D03*
Y1721140D02*
D03*
X8544840Y3628680D02*
D03*
Y3588680D02*
D03*
Y3548680D02*
D03*
Y3508680D02*
D03*
Y3468680D02*
D03*
Y3428680D02*
D03*
Y3388680D02*
D03*
Y3348680D02*
D03*
Y3308680D02*
D03*
Y3268680D02*
D03*
Y3228680D02*
D03*
Y3188680D02*
D03*
X7944840D02*
D03*
Y3228680D02*
D03*
Y3268680D02*
D03*
Y3308680D02*
D03*
Y3348680D02*
D03*
Y3388680D02*
D03*
Y3428680D02*
D03*
Y3468680D02*
D03*
Y3508680D02*
D03*
Y3548680D02*
D03*
Y3588680D02*
D03*
Y3628680D02*
D03*
D67*
X8025120Y5040040D02*
D03*
X8065120D02*
D03*
X8105120D02*
D03*
X8145120D02*
D03*
X8185120D02*
D03*
X8225120D02*
D03*
X8265120D02*
D03*
X8305120D02*
D03*
X8345120D02*
D03*
X8385120D02*
D03*
X8425120D02*
D03*
X8465120D02*
D03*
Y5640040D02*
D03*
X8425120D02*
D03*
X8385120D02*
D03*
X8345120D02*
D03*
X8305120D02*
D03*
X8265120D02*
D03*
X8225120D02*
D03*
X8185120D02*
D03*
X8145120D02*
D03*
X8105120D02*
D03*
X8065120D02*
D03*
X8025120D02*
D03*
X8024840Y1801140D02*
D03*
X8064840D02*
D03*
X8104840D02*
D03*
X8144840D02*
D03*
X8184840D02*
D03*
X8224840D02*
D03*
X8264840D02*
D03*
X8304840D02*
D03*
X8344840D02*
D03*
X8384840D02*
D03*
X8424840D02*
D03*
X8464840D02*
D03*
Y1201140D02*
D03*
X8424840D02*
D03*
X8384840D02*
D03*
X8344840D02*
D03*
X8304840D02*
D03*
X8264840D02*
D03*
X8224840D02*
D03*
X8184840D02*
D03*
X8144840D02*
D03*
X8104840D02*
D03*
X8064840D02*
D03*
X8024840D02*
D03*
Y3708680D02*
D03*
X8064840D02*
D03*
X8104840D02*
D03*
X8144840D02*
D03*
X8184840D02*
D03*
X8224840D02*
D03*
X8264840D02*
D03*
X8304840D02*
D03*
X8344840D02*
D03*
X8384840D02*
D03*
X8424840D02*
D03*
X8464840D02*
D03*
Y3108680D02*
D03*
X8424840D02*
D03*
X8384840D02*
D03*
X8344840D02*
D03*
X8304840D02*
D03*
X8264840D02*
D03*
X8224840D02*
D03*
X8184840D02*
D03*
X8144840D02*
D03*
X8104840D02*
D03*
X8064840D02*
D03*
X8024840D02*
D03*
D68*
X5515116Y6469476D02*
D03*
Y847856D02*
D03*
X1121116D02*
D03*
Y6469476D02*
D03*
X5515116Y3662126D02*
D03*
X1121116D02*
D03*
D69*
X8043070Y6460820D02*
D03*
Y6510820D02*
D03*
Y6610820D02*
D03*
Y6660820D02*
D03*
Y7194880D02*
D03*
Y7244880D02*
D03*
Y7344880D02*
D03*
Y7394880D02*
D03*
X8126570Y6510820D02*
D03*
Y6460820D02*
D03*
Y6610820D02*
D03*
Y6660820D02*
D03*
Y7244880D02*
D03*
Y7194880D02*
D03*
Y7344880D02*
D03*
Y7394880D02*
D03*
D71*
X7343060Y5862320D02*
D03*
Y3931920D02*
D03*
Y2024380D02*
D03*
D72*
Y5989320D02*
D03*
Y6116320D02*
D03*
Y6243320D02*
D03*
X7843060Y5862320D02*
D03*
Y5989320D02*
D03*
Y6116320D02*
D03*
Y6243320D02*
D03*
Y4312920D02*
D03*
Y4185920D02*
D03*
Y4058920D02*
D03*
Y3931920D02*
D03*
X7343060Y4312920D02*
D03*
Y4185920D02*
D03*
Y4058920D02*
D03*
X7843060Y2405380D02*
D03*
Y2278380D02*
D03*
Y2151380D02*
D03*
Y2024380D02*
D03*
X7343060Y2405380D02*
D03*
Y2278380D02*
D03*
Y2151380D02*
D03*
D73*
X7639160Y975360D02*
D03*
X7494160D02*
D03*
X7639160Y2882900D02*
D03*
X7494160D02*
D03*
X7639160Y4813300D02*
D03*
X7494160D02*
D03*
D77*
X4894116Y997856D02*
D03*
X4767116D02*
D03*
X4640116D02*
D03*
X4513116D02*
D03*
X4386116D02*
D03*
X4259116D02*
D03*
X4132116D02*
D03*
X3497116D02*
D03*
X3370116D02*
D03*
X3243116D02*
D03*
X3116116D02*
D03*
X2989116D02*
D03*
X2862116D02*
D03*
X2735116D02*
D03*
X2608116D02*
D03*
X2481116D02*
D03*
X2354116D02*
D03*
X2227116D02*
D03*
X2100116D02*
D03*
X1973116D02*
D03*
X1846116D02*
D03*
X1719116D02*
D03*
X4894116Y6619476D02*
D03*
X4767116D02*
D03*
X4640116D02*
D03*
X4513116D02*
D03*
X4386116D02*
D03*
X4259116D02*
D03*
X4132116D02*
D03*
X3497116D02*
D03*
X3370116D02*
D03*
X3243116D02*
D03*
X3116116D02*
D03*
X2989116D02*
D03*
X2862116D02*
D03*
X2735116D02*
D03*
X2608116D02*
D03*
X2481116D02*
D03*
X2354116D02*
D03*
X2227116D02*
D03*
X2100116D02*
D03*
X1973116D02*
D03*
X1846116D02*
D03*
X1719116D02*
D03*
X4894116Y3812126D02*
D03*
X4767116D02*
D03*
X4640116D02*
D03*
X4513116D02*
D03*
X4386116D02*
D03*
X4259116D02*
D03*
X4132116D02*
D03*
X3497116D02*
D03*
X3370116D02*
D03*
X3243116D02*
D03*
X3116116D02*
D03*
X2989116D02*
D03*
X2862116D02*
D03*
X2735116D02*
D03*
X2608116D02*
D03*
X2481116D02*
D03*
X2354116D02*
D03*
X2227116D02*
D03*
X2100116D02*
D03*
X1973116D02*
D03*
X1846116D02*
D03*
X1719116D02*
D03*
%TF.MD5,59759871ee2202985da6c4d0f926e352*%
M02*
