M48
;Layer_Color=9474304
;FILE_FORMAT=4:4
METRIC,LZ
;TYPE=PLATED
T01F00S00C0.3000
T02F00S00C0.7000
T04F00S00C0.7010
T06F00S00C2.3089
;TYPE=NON_PLATED
T07F00S00C1.2000
%
T01
X00020828Y00195834
Y00200914
X00025908
Y00195834
X00030988
Y00200914
X00037158Y00236848
X00042746
X00048842
X00054356Y00236982
X00079576Y00236594
X00085164
X0009126
X00096774Y00236728
X00097282Y0025908
X00091768Y00258946
X00085672
X00080084
X0007112Y0016764
X0006604
Y0016256
X0007112
Y0015748
X0006604
X00171912Y00083104
X00172466Y00075184
Y00069088
Y00063246
X00184612Y00083104
X00197312
X00210012
X00235712Y00083058
X00248112Y00083104
X00260812
X00273512
X00286212Y00083358
X002992Y0008315
X00338173Y00075184
Y00069088
Y00063246
X0025532
Y00069088
Y00075184
X00254663Y0032512
Y0033528
X00254917Y0034544
X00260812Y00364531
X00273512
X00286212Y0036479
X00298912Y00364536
X00248112Y00364531
X00197312
X00184612
X00171912
X00172063Y0034544
X00171809Y0033528
Y0032512
X00337516
Y0033528
X0033777Y0034544
X00420624
X0042037Y0033528
Y0032512
X00413512Y00364998
X00489412Y00364282
X00750714Y00358902
X00755179Y00358856
X00758698Y00354584
X00758547Y00364611
X00760476Y00339344
X00770962Y00339852
X00778654Y0032766
X00786366Y003269
X00786638Y00318516
Y00307086
X00776478Y00299212
X00770382Y00298958
X00768332Y00287962
X00771288Y0028183
X00763958Y00282187
X00776224Y00277876
X00743458Y00240538
X00743966Y00215392
Y00202438
X00752813Y00168864
X00758698
X0075946Y00163322
X00761046Y00147998
X00773938Y00142566
X00780796Y00144018
X00787654Y00136398
X0078761Y00126959
X00787654Y00113792
X00778002Y00107696
X00772414
X00768096Y00097536
X00763916Y00091302
X00776224Y00087122
X0078359Y00173314
X0078867Y00176022
X00764794Y00179324
X00785828Y00364449
X00744728Y00393192
X00489831Y00083023
X00451312Y00082342
X00421027Y00075184
Y00069088
Y00063246
X00413212Y0008285
X00818896Y0008636
X00830637Y00086557
X00830326Y0010541
X008185Y00105664
X00848614Y00103886
X00854538Y00095676
X00862838Y00104648
X00874522Y00114554
Y00125222
X00887222Y00130048
X00888746Y0011938
X00895096Y00137414
X00891794Y00143415
Y00148685
X00895096Y00154686
X00887984Y00162052
X00888492Y0017272
X0087448Y00157408
X00862584Y00168148
X00846074Y00170749
Y00165479
X00837692Y00159512
X008255Y00159766
X0081153Y00160782
X008128Y00143002
X00824256Y00144006
X00834136Y00144526
X00842518Y00141478
X00846074Y00136749
Y00131479
X0084253Y0012641
X00843534Y00070104
X0088773Y00074676
X00879838Y00083838
X0084894Y0019997
X00844296Y00214122
X00833628
X0082296
X00812292
X00811276Y00224282
X0079375Y00227584
Y00240538
X00806268Y0019997
X00806436Y00186896
X00818786Y00187123
X00823304Y00189836
X00830834Y00191008
X00827935Y00203962
X00813597Y00194056
X00854964Y00214122
X00844622Y0026093
X00830637Y00277057
X00818896Y00278638
X00818134Y0029591
X00830468Y00296306
X00848614Y00288036
X00854284Y0028643
X00870314
X00879838Y00274084
X00872362Y0026543
X00874522Y00305054
Y00315976
X00888238Y00320802
Y0030988
X00895096Y00328168
X00891794Y00334169
Y00339439
X00895096Y0034544
X00888492Y00352806
X00888746Y00363474
X00874628Y0034831
X00862671Y00358868
X00846074Y00356233
Y00361503
X00831088Y00350266
X00819912Y00351536
X00809498Y00353314
X00799181Y00358823
X00806389Y00377698
X00810198Y0038134
X0081877Y00378206
X00823339Y00380832
X00833628Y00382778
X00827604Y00390724
X00848903
X00806268Y00390724
X00812038Y00330962
X00832104Y003302
X00842764Y00331604
X00846074Y00327503
Y00322233
X0084253Y00317164
X00825246Y003429
X00822706Y00404876
X00812546
X00811458Y00415726
X00833628Y00404876
X00844042
X0085471
X00842264Y0045339
X0083058Y004699
X00818896
X00818388Y00489966
X0083058Y00489712
X00844042Y00483616
X00854284Y0047947
X00870032
X00879862Y00467868
X00872362Y0045847
X00874268Y00508
X00874244Y00518486
X00889Y00513334
X00888746Y00502412
X00895096Y00521208
X00891794Y00527209
Y00532479
X00895096Y0053848
X00887984Y00545846
X00888746Y00556514
X00874268Y00541202
X00861314Y0055245
X00846074Y00554543
Y00549273
X00838498Y00541293
X00831088Y00546608
X00830484Y00559295
X00822484Y00559295
X00822198Y005715
X00830326Y00571754
X00827604Y00583855
X00833628Y00597154
X00844296
X0085471
X0084894Y00583764
X00810198Y005715
X0079777Y0056061
X00799353Y00552132
X00816102Y00536702
X00810514Y00520446
X00800862Y00519938
X0083185Y00527558
X00842518Y00525272
X00846074Y00520543
Y00515273
X0084253Y00510204
X0079756Y00583946
X0079502Y00611632
X00794512Y00624078
X00796036Y00656336
X00821207Y00656034
X00831873Y00674878
X00833882Y00680466
X00837608Y00684193
X00837946Y0068961
X008413Y00694711
X00846582Y00695548
Y00690278
X00846586Y006848
X00860806Y00680413
X00879348Y00683514
X00883074Y00679788
X00888699Y00677418
X00883288Y00688988
X0087503Y00690277
Y00695547
Y00700817
X00860806Y00705411
X00836422Y0070358
X00840148Y00699854
X00832612Y00708406
X00830326Y00729234
X00835406
X0081878Y00729169
X00874268Y00729996
Y00735266
X00874014Y00741172
Y00724408
X00791464Y00656336
X00750824Y00624332
X00742188Y00598932
X00751332Y00585978
X00758698Y00558038
X00760142Y00552611
X00754888Y00552704
X00759968Y00547116
X00761238Y0053213
X0077724
X00773938Y0052578
X00787542Y00511048
X007874Y00500634
X00771652Y00490982
X00766064
X00768154Y0048133
X00764648Y00475858
X0077135Y00474743
X00776224Y00470408
X00792988Y00430276
X00793496Y00416306
X0074422Y00405892
X00743458Y00431038
X00776986Y00558038
X00542001Y00596077
X00541185Y00609896
X00553102Y00614238
X0056398Y00622662
X00571759Y00631806
X00580674Y00639076
X00568107Y00650839
X00568248Y00669349
X00574294Y0066929
X0057912Y00681482
X00593344Y0068326
X00590296Y00691896
X00589727Y00707381
X00598848Y00715572
X00608737Y00723898
X00615527Y00717109
X00612104Y00734943
X00557863Y00727719
X00550041Y00735476
X00536827Y00740408
X00537178Y00723005
X00544169Y00714349
X00554605Y0070808
X0056191Y00714818
X0052578Y00729996
X00521326Y00750198
X00489204Y00745744
X00486156Y00735076
X00483881Y00700535
X00480509Y00695892
X00480314Y00690626
X0047446Y00689577
X00473643Y00683955
X00469917Y00680229
X00484124Y00668528
X00496824Y006731
X00507238Y00666242
X005207Y00663194
X00519938Y00673513
X00534162Y00671322
X00529082Y00659384
X00535988Y00648768
X00546376Y00664472
X00540512Y00626872
X00528587Y00622559
X00526288Y00597154
X00481584Y00595856
X00488696Y00609896
X00463979
X00460009Y00636556
X00440182Y00626872
X00425243Y00639873
X00421386Y00636016
X00407416Y00640588
X00413212Y00678134
X00425906Y00699053
X00433446Y00706895
X00440494Y00715418
X00448063Y00722832
X00462788Y00716788
X00458724Y00705612
X00449917Y00690709
X0044619Y00686982
X00439166Y0069342
X00424424Y00713994
X00433299Y0074364
X00453204Y00741358
X00414754Y00747947
X00407424Y00739394
X00397764Y00726948
X00445136Y00660617
X00489412Y00646222
X0050292Y00650748
X00509778Y00642874
X00525526Y00688594
X00508254Y00704596
X00451312Y0039848
X00235712Y00398018
X00210058
X00121859Y00427482
X00117094
X00114434Y00460576
X001143Y0046609
X0011418Y00471752
X00114046Y00477266
X0011418Y00482928
X00114046Y00488442
Y00494538
Y00500126
X00081026Y0051562
X00076454
X0007632Y00521134
X00080892
Y0052723
X0007632
Y00532818
X00080892
X00033902Y00494718
Y0048913
Y00483034
X00034036Y0047752
X00040386Y00448056
X00035814Y00442468
X00037084Y00422402
X00041942Y00422337
X00051166Y00419174
X00056339Y00415083
X00016256Y00432054
X00016919Y00452003
X00123698Y00608076
X00171912Y00645266
X00184612
X00197312
X00215392Y00649478
X00241046
X00240538Y0064389
X00243872
X00237031Y00643849
X00242261Y00627511
X0025317Y00599254
X00255355Y00654082
X00263144Y00682752
X00295606Y00679958
X00300736Y00679972
X00295809Y00692373
X00323342Y00691388
X00328422
Y00686054
Y00680212
X00328034Y00729054
Y00734642
Y00740738
X00328168Y00746252
X00308365Y00741157
Y00735823
X00303031
Y00741157
X00243518Y00748216
X00242058Y00719578
X00298951Y00641243
X00305593Y00642662
X00303267Y00611647
X00308601
Y00606313
X00328034Y00606732
X00328168Y00601218
X00328034Y00612828
Y00618416
X00394716Y00601218
X00389744Y00718226
X00011176Y00724154
T02
X00839306Y00668912
X00882306
Y00716913
X00839306
T04
X00685343Y00691769
X00680339Y00706755
X00700354
X00720344
X00740334
X00760349
X00755345Y00691769
X00730352
X00710336
T06
X00656336Y0069276
X00784352
T07
X00139612Y00084786
Y00366213
X00519612
Y00084786
Y00646948
X00139612
M30
