%TF.GenerationSoftware,Altium Limited,Altium Designer,24.0.1 (36)*%
G04 Layer_Color=8388736*
%FSLAX45Y45*%
%MOMM*%
%TF.SameCoordinates,67999EC4-2163-46B7-AA5F-10FA3A16FE06*%
%TF.FilePolarity,Negative*%
%TF.FileFunction,Soldermask,Top*%
%TF.Part,Single*%
G01*
G75*
%TA.AperFunction,SMDPad,CuDef*%
%ADD88O,1.20320X2.90320*%
%ADD89R,1.20320X2.90320*%
%ADD90R,0.70320X0.70320*%
%ADD91P,0.99447X4X270.0*%
%ADD92P,0.99447X4X180.0*%
%ADD93O,0.70320X1.70320*%
%ADD94R,0.70320X1.70320*%
G04:AMPARAMS|DCode=95|XSize=2.1532mm|YSize=1.7032mm|CornerRadius=0mm|HoleSize=0mm|Usage=FLASHONLY|Rotation=135.000|XOffset=0mm|YOffset=0mm|HoleType=Round|Shape=Rectangle|*
%AMROTATEDRECTD95*
4,1,4,1.36345,-0.15910,0.15910,-1.36345,-1.36345,0.15910,-0.15910,1.36345,1.36345,-0.15910,0.0*
%
%ADD95ROTATEDRECTD95*%

G04:AMPARAMS|DCode=96|XSize=0.7032mm|YSize=1.7032mm|CornerRadius=0mm|HoleSize=0mm|Usage=FLASHONLY|Rotation=135.000|XOffset=0mm|YOffset=0mm|HoleType=Round|Shape=Rectangle|*
%AMROTATEDRECTD96*
4,1,4,0.85079,0.35356,-0.35356,-0.85079,-0.85079,-0.35356,0.35356,0.85079,0.85079,0.35356,0.0*
%
%ADD96ROTATEDRECTD96*%

G04:AMPARAMS|DCode=97|XSize=0.7032mm|YSize=1.7032mm|CornerRadius=0mm|HoleSize=0mm|Usage=FLASHONLY|Rotation=135.000|XOffset=0mm|YOffset=0mm|HoleType=Round|Shape=Round|*
%AMOVALD97*
21,1,1.00000,0.70320,0.00000,0.00000,225.0*
1,1,0.70320,0.35355,0.35355*
1,1,0.70320,-0.35355,-0.35355*
%
%ADD97OVALD97*%

%ADD98R,1.47320X1.09220*%
%TA.AperFunction,ConnectorPad*%
%ADD99R,2.90320X1.20320*%
%ADD100O,2.90320X1.20320*%
%TA.AperFunction,SMDPad,CuDef*%
%ADD101R,0.65320X1.20320*%
%ADD102R,0.70320X0.70320*%
%ADD103R,1.05320X0.95320*%
%ADD104R,1.09220X1.47320*%
%ADD105R,1.92720X2.12321*%
%TA.AperFunction,ConnectorPad*%
%ADD106R,1.20320X2.90320*%
%ADD107O,1.20320X2.90320*%
%TA.AperFunction,SMDPad,CuDef*%
%ADD108R,2.90320X1.20320*%
%ADD109O,2.90320X1.20320*%
%ADD110R,2.12321X1.92720*%
%TA.AperFunction,ConnectorPad*%
%ADD111R,1.05320X0.95320*%
G04:AMPARAMS|DCode=112|XSize=2.2032mm|YSize=3.7032mm|CornerRadius=0mm|HoleSize=0mm|Usage=FLASHONLY|Rotation=45.000|XOffset=0mm|YOffset=0mm|HoleType=Round|Shape=Rectangle|*
%AMROTATEDRECTD112*
4,1,4,0.53033,-2.08823,-2.08823,0.53033,-0.53033,2.08823,2.08823,-0.53033,0.53033,-2.08823,0.0*
%
%ADD112ROTATEDRECTD112*%

G04:AMPARAMS|DCode=113|XSize=1.4032mm|YSize=3.7032mm|CornerRadius=0mm|HoleSize=0mm|Usage=FLASHONLY|Rotation=225.000|XOffset=0mm|YOffset=0mm|HoleType=Round|Shape=Rectangle|*
%AMROTATEDRECTD113*
4,1,4,-0.81317,1.80539,1.80539,-0.81317,0.81317,-1.80539,-1.80539,0.81317,-0.81317,1.80539,0.0*
%
%ADD113ROTATEDRECTD113*%

%TA.AperFunction,SMDPad,CuDef*%
G04:AMPARAMS|DCode=114|XSize=0.4032mm|YSize=1.0032mm|CornerRadius=0mm|HoleSize=0mm|Usage=FLASHONLY|Rotation=135.000|XOffset=0mm|YOffset=0mm|HoleType=Round|Shape=Round|*
%AMOVALD114*
21,1,0.60000,0.40320,0.00000,0.00000,225.0*
1,1,0.40320,0.21213,0.21213*
1,1,0.40320,-0.21213,-0.21213*
%
%ADD114OVALD114*%

G04:AMPARAMS|DCode=115|XSize=0.4032mm|YSize=1.0032mm|CornerRadius=0mm|HoleSize=0mm|Usage=FLASHONLY|Rotation=45.000|XOffset=0mm|YOffset=0mm|HoleType=Round|Shape=Round|*
%AMOVALD115*
21,1,0.60000,0.40320,0.00000,0.00000,135.0*
1,1,0.40320,0.21213,-0.21213*
1,1,0.40320,-0.21213,0.21213*
%
%ADD115OVALD115*%

%ADD116P,8.06554X4X180.0*%
%ADD117C,2.27000*%
%ADD118R,1.40320X1.50320*%
G04:AMPARAMS|DCode=119|XSize=1.0032mm|YSize=2.7032mm|CornerRadius=0mm|HoleSize=0mm|Usage=FLASHONLY|Rotation=225.000|XOffset=0mm|YOffset=0mm|HoleType=Round|Shape=Rectangle|*
%AMROTATEDRECTD119*
4,1,4,-0.60104,1.31041,1.31041,-0.60104,0.60104,-1.31041,-1.31041,0.60104,-0.60104,1.31041,0.0*
%
%ADD119ROTATEDRECTD119*%

%ADD120R,1.20320X0.50320*%
%TA.AperFunction,ComponentPad*%
%ADD121C,3.20294*%
%ADD122C,1.40208*%
%ADD123R,2.00320X4.70320*%
%ADD124R,2.00320X4.20320*%
%ADD125R,5.20320X2.80320*%
%ADD126C,1.50320*%
%ADD127C,1.20320*%
D88*
X1801912Y3346612D02*
D03*
X2630448D02*
D03*
X838200Y5501920D02*
D03*
X4287519Y3346612D02*
D03*
X3458984D02*
D03*
X838200Y3749320D02*
D03*
Y1958620D02*
D03*
D89*
X1801912Y3946612D02*
D03*
X2630448D02*
D03*
X838200Y4901920D02*
D03*
X4287519Y3946612D02*
D03*
X3458984D02*
D03*
X838200Y3149320D02*
D03*
Y1358620D02*
D03*
D90*
X4939120Y5969000D02*
D03*
X5024120D02*
D03*
X186142Y4815840D02*
D03*
X276142D02*
D03*
X186142Y3063240D02*
D03*
X276142D02*
D03*
X186142Y1272540D02*
D03*
X276142D02*
D03*
X6342935Y6065273D02*
D03*
X6252935D02*
D03*
X6342935Y5958593D02*
D03*
X6252935D02*
D03*
X6334042Y6380480D02*
D03*
X6244042D02*
D03*
X5018360Y7457440D02*
D03*
X4933360D02*
D03*
X4617040D02*
D03*
X4532040D02*
D03*
X6244042Y6273800D02*
D03*
X6334042D02*
D03*
X6203402Y7223760D02*
D03*
X6293402D02*
D03*
X6203402Y7330440D02*
D03*
X6293402D02*
D03*
X5128260Y7457440D02*
D03*
X5213260D02*
D03*
X5131480Y5969000D02*
D03*
X5216480D02*
D03*
D91*
X4846323Y6055363D02*
D03*
X4782683Y5991723D02*
D03*
X3950128Y6172628D02*
D03*
X4010232Y6232732D02*
D03*
X4659216Y6117176D02*
D03*
X4719320Y6177280D02*
D03*
X4645660Y6256020D02*
D03*
X4582021Y6192380D02*
D03*
X4430616Y6345776D02*
D03*
X4490720Y6405880D02*
D03*
X4505821Y6268580D02*
D03*
X4569460Y6332220D02*
D03*
X4277221Y6497180D02*
D03*
X4340860Y6560820D02*
D03*
X4414520Y6482080D02*
D03*
X4354416Y6421976D02*
D03*
X5490142Y7191941D02*
D03*
X5553781Y7255581D02*
D03*
X5406322Y7278301D02*
D03*
X5469961Y7341941D02*
D03*
X5576502Y7105581D02*
D03*
X5640141Y7169221D02*
D03*
X5325042Y7362121D02*
D03*
X5388681Y7425761D02*
D03*
X5781468Y6909228D02*
D03*
X5841572Y6969332D02*
D03*
X5660322Y7024301D02*
D03*
X5723961Y7087941D02*
D03*
D92*
X5278548Y6047312D02*
D03*
X5338652Y5987208D02*
D03*
X4759532Y7300388D02*
D03*
X4699428Y7360492D02*
D03*
X5368222Y6140519D02*
D03*
X5431861Y6076879D02*
D03*
X5454582Y6226879D02*
D03*
X5518221Y6163239D02*
D03*
X4507299Y7049701D02*
D03*
X4443659Y7113341D02*
D03*
X5624762Y6394519D02*
D03*
X5688401Y6330879D02*
D03*
X5711122Y6478339D02*
D03*
X5774761Y6414699D02*
D03*
X4431099Y6973501D02*
D03*
X4367459Y7037141D02*
D03*
X5538402Y6310699D02*
D03*
X5602041Y6247059D02*
D03*
X4354899Y6897301D02*
D03*
X4291259Y6960941D02*
D03*
X6179681Y7010540D02*
D03*
X6243320Y6946900D02*
D03*
X6103481Y6934340D02*
D03*
X6167120Y6870700D02*
D03*
X4581732Y7127668D02*
D03*
X4521628Y7187772D02*
D03*
X4775628Y7436692D02*
D03*
X4835732Y7376588D02*
D03*
X4662239Y7202101D02*
D03*
X4598599Y7265741D02*
D03*
D93*
X208280Y5786500D02*
D03*
X335280D02*
D03*
X462280D02*
D03*
X589280D02*
D03*
X208280Y6286500D02*
D03*
X335280D02*
D03*
X462280D02*
D03*
D94*
X589280D02*
D03*
D95*
X1563243Y6043803D02*
D03*
X1164718Y5645277D02*
D03*
D96*
X3625520Y6574627D02*
D03*
D97*
X3715322Y6484824D02*
D03*
X3805124Y6395022D02*
D03*
X3894927Y6305220D02*
D03*
X3979073Y6928180D02*
D03*
X4068876Y6838378D02*
D03*
X4158678Y6748576D02*
D03*
X4248480Y6658773D02*
D03*
D98*
X3604260Y6014720D02*
D03*
Y6204720D02*
D03*
Y7139440D02*
D03*
Y6949440D02*
D03*
D99*
X2382800Y7208480D02*
D03*
D100*
X1782800D02*
D03*
D101*
X401320Y4693920D02*
D03*
X306320D02*
D03*
X211320D02*
D03*
Y4414520D02*
D03*
X306320D02*
D03*
X401320D02*
D03*
Y2941320D02*
D03*
X306320D02*
D03*
X211320D02*
D03*
Y2661920D02*
D03*
X306320D02*
D03*
X401320D02*
D03*
X3126740Y5999480D02*
D03*
X3221740D02*
D03*
X3316740D02*
D03*
Y6278880D02*
D03*
X3221740D02*
D03*
X3126740D02*
D03*
X401320Y1150620D02*
D03*
X306320D02*
D03*
X211320D02*
D03*
Y871220D02*
D03*
X306320D02*
D03*
X401320D02*
D03*
X3126740Y6934200D02*
D03*
X3221740D02*
D03*
X3316740D02*
D03*
Y7213600D02*
D03*
X3221740D02*
D03*
X3126740D02*
D03*
D102*
X1104900Y4270462D02*
D03*
Y4360462D02*
D03*
X508000Y4205425D02*
D03*
Y4295425D02*
D03*
X187960Y4292600D02*
D03*
Y4207600D02*
D03*
X294640Y4208243D02*
D03*
Y4293243D02*
D03*
X401320Y4205425D02*
D03*
Y4295425D02*
D03*
X3423920Y7345680D02*
D03*
Y7430680D02*
D03*
X3317240Y7345680D02*
D03*
Y7430680D02*
D03*
X508000Y2452825D02*
D03*
Y2542825D02*
D03*
X3446780Y5979882D02*
D03*
Y6069882D02*
D03*
X401320Y2452825D02*
D03*
Y2542825D02*
D03*
X3210560Y6498420D02*
D03*
Y6408420D02*
D03*
X1104900Y727162D02*
D03*
Y817162D02*
D03*
X508000Y662125D02*
D03*
Y752125D02*
D03*
X401320Y662125D02*
D03*
Y752125D02*
D03*
X3210560Y7433140D02*
D03*
Y7343140D02*
D03*
X3446780Y6914602D02*
D03*
Y7004602D02*
D03*
X3103880Y7433140D02*
D03*
Y7343140D02*
D03*
Y6498420D02*
D03*
Y6408420D02*
D03*
X1104900Y2516040D02*
D03*
Y2606040D02*
D03*
X2504440Y6061162D02*
D03*
Y6151162D02*
D03*
X723900Y6056082D02*
D03*
Y6146082D02*
D03*
X3423920Y6495960D02*
D03*
Y6410960D02*
D03*
X294640Y2540643D02*
D03*
Y2455643D02*
D03*
X4290060Y7139940D02*
D03*
Y7229940D02*
D03*
Y7436398D02*
D03*
Y7346398D02*
D03*
X2504440Y6995882D02*
D03*
Y7085882D02*
D03*
X3317240Y6495960D02*
D03*
Y6410960D02*
D03*
X294640Y664943D02*
D03*
Y749943D02*
D03*
X187960Y2540000D02*
D03*
Y2455000D02*
D03*
X835660Y6143580D02*
D03*
Y6058580D02*
D03*
X187960Y749300D02*
D03*
Y664300D02*
D03*
D103*
X1219200Y4368800D02*
D03*
Y4513800D02*
D03*
Y2761200D02*
D03*
Y2616200D02*
D03*
X2504440Y6403340D02*
D03*
Y6548340D02*
D03*
X1219200Y970500D02*
D03*
Y825500D02*
D03*
D104*
X221186Y4970780D02*
D03*
X411186D02*
D03*
X221186Y3218180D02*
D03*
X411186D02*
D03*
X221186Y1427480D02*
D03*
X411186D02*
D03*
D105*
X579120Y4528820D02*
D03*
X1034720D02*
D03*
X579120Y2776220D02*
D03*
X1034720D02*
D03*
X581934Y985521D02*
D03*
X1037534D02*
D03*
D106*
X1801912Y1255040D02*
D03*
X2630448D02*
D03*
X3458984D02*
D03*
X4287519D02*
D03*
D107*
X1801912Y655040D02*
D03*
X2630448D02*
D03*
X3458984D02*
D03*
X4287519D02*
D03*
D108*
X2382800Y6273760D02*
D03*
D109*
X1782800D02*
D03*
D110*
X2814320Y6962140D02*
D03*
Y7417740D02*
D03*
Y6027420D02*
D03*
Y6483020D02*
D03*
D111*
X2504440Y7338060D02*
D03*
Y7483060D02*
D03*
D112*
X7215137Y1791493D02*
D03*
X6603207Y1179563D02*
D03*
D113*
X7501798Y1069679D02*
D03*
X7325021Y892902D02*
D03*
D114*
X5014752Y6149131D02*
D03*
X4986554Y6177329D02*
D03*
X4958177Y6205707D02*
D03*
X4929979Y6233905D02*
D03*
X4901601Y6262283D02*
D03*
X4873403Y6290481D02*
D03*
X4845026Y6318858D02*
D03*
X4816828Y6347056D02*
D03*
X4788450Y6375434D02*
D03*
X4760252Y6403632D02*
D03*
X4732054Y6431830D02*
D03*
X4703676Y6460208D02*
D03*
X4675479Y6488405D02*
D03*
X4647101Y6516783D02*
D03*
X4618903Y6544981D02*
D03*
X4590525Y6573359D02*
D03*
X4562327Y6601557D02*
D03*
X4533950Y6629934D02*
D03*
X4505752Y6658132D02*
D03*
X5135088Y7287469D02*
D03*
X5163286Y7259271D02*
D03*
X5191663Y7230893D02*
D03*
X5219862Y7202695D02*
D03*
X5248239Y7174317D02*
D03*
X5276437Y7146119D02*
D03*
X5304815Y7117742D02*
D03*
X5333013Y7089544D02*
D03*
X5361390Y7061166D02*
D03*
X5389588Y7032968D02*
D03*
X5417786Y7004770D02*
D03*
X5446164Y6976392D02*
D03*
X5474362Y6948195D02*
D03*
X5502740Y6919817D02*
D03*
X5530938Y6891619D02*
D03*
X5559315Y6863241D02*
D03*
X5587513Y6835043D02*
D03*
X5615891Y6806666D02*
D03*
X5644089Y6778468D02*
D03*
D115*
X4505752D02*
D03*
X4533950Y6806666D02*
D03*
X4562327Y6835043D02*
D03*
X4590525Y6863241D02*
D03*
X4618903Y6891619D02*
D03*
X4647101Y6919817D02*
D03*
X4675479Y6948195D02*
D03*
X4703676Y6976392D02*
D03*
X4732054Y7004770D02*
D03*
X4760252Y7032968D02*
D03*
X4788450Y7061166D02*
D03*
X4816828Y7089544D02*
D03*
X4845026Y7117742D02*
D03*
X4873403Y7146119D02*
D03*
X4901601Y7174317D02*
D03*
X4929979Y7202695D02*
D03*
X4958177Y7230893D02*
D03*
X4986554Y7259271D02*
D03*
X5014752Y7287469D02*
D03*
X5644089Y6658132D02*
D03*
X5615891Y6629934D02*
D03*
X5587513Y6601557D02*
D03*
X5559315Y6573359D02*
D03*
X5530938Y6544981D02*
D03*
X5502740Y6516783D02*
D03*
X5474362Y6488405D02*
D03*
X5446164Y6460208D02*
D03*
X5417786Y6431830D02*
D03*
X5389588Y6403632D02*
D03*
X5361390Y6375434D02*
D03*
X5333013Y6347056D02*
D03*
X5304815Y6318858D02*
D03*
X5276437Y6290481D02*
D03*
X5248239Y6262283D02*
D03*
X5219862Y6233905D02*
D03*
X5191663Y6205707D02*
D03*
X5163286Y6177329D02*
D03*
X5135088Y6149131D02*
D03*
D116*
X5074920Y6718300D02*
D03*
D117*
X218440Y7355840D02*
D03*
X8768080Y650240D02*
D03*
D118*
X4149000Y7182260D02*
D03*
X3979000D02*
D03*
X4149000Y7392260D02*
D03*
X3979000D02*
D03*
D119*
X1130635Y6183951D02*
D03*
X1024569Y6077885D02*
D03*
D120*
X8680057Y7204126D02*
D03*
Y6954114D02*
D03*
Y7154113D02*
D03*
Y7104126D02*
D03*
Y7054113D02*
D03*
Y7004126D02*
D03*
Y6654114D02*
D03*
Y6904126D02*
D03*
Y6854114D02*
D03*
Y6804127D02*
D03*
Y6754114D02*
D03*
Y6704127D02*
D03*
X8536064Y7204126D02*
D03*
Y6954139D02*
D03*
Y7154113D02*
D03*
Y7104126D02*
D03*
Y7054113D02*
D03*
Y7004126D02*
D03*
Y6654114D02*
D03*
Y6904126D02*
D03*
Y6854114D02*
D03*
Y6804127D02*
D03*
Y6754114D02*
D03*
Y6704127D02*
D03*
D121*
X6563360Y6927596D02*
D03*
X7843520D02*
D03*
D122*
X7603490Y7067550D02*
D03*
X7403338D02*
D03*
X7203440D02*
D03*
X7003542D02*
D03*
X6803390D02*
D03*
X7553452Y6917690D02*
D03*
X7303516D02*
D03*
X7103364D02*
D03*
X6853428D02*
D03*
D123*
X547080Y7138480D02*
D03*
D124*
X767080Y6888480D02*
D03*
D125*
X1047080Y7363480D02*
D03*
D126*
X8823059Y7169125D02*
D03*
X8393062D02*
D03*
Y6689115D02*
D03*
X8823059D02*
D03*
D127*
X1396116Y847856D02*
D03*
X5196116D02*
D03*
X1396116Y6469476D02*
D03*
X5196116D02*
D03*
X1396116Y3662126D02*
D03*
X5196116D02*
D03*
%TF.MD5,756490a299d26e6eb1ac86811307a055*%
M02*
