%TF.GenerationSoftware,Altium Limited,Altium Designer,24.0.1 (36)*%
G04 Layer_Physical_Order=4*
G04 Layer_Color=15238730*
%FSLAX45Y45*%
%MOMM*%
%TF.SameCoordinates,67999EC4-2163-46B7-AA5F-10FA3A16FE06*%
%TF.FilePolarity,Positive*%
%TF.FileFunction,Copper,L4,Bot,Signal*%
%TF.Part,Single*%
G01*
G75*
%TA.AperFunction,Conductor*%
%ADD10C,0.20320*%
%ADD11C,0.15240*%
%ADD12C,0.25400*%
%ADD13C,0.12700*%
%ADD14C,0.12954*%
%TA.AperFunction,SMDPad,CuDef*%
%ADD18R,0.50000X0.50000*%
%ADD26R,1.27000X0.88900*%
%ADD30R,0.50000X0.50000*%
%ADD38R,1.92001X1.72400*%
%ADD45C,1.00000*%
%ADD46R,1.20000X1.30000*%
%TA.AperFunction,Conductor*%
%ADD49C,0.63500*%
%ADD50C,0.38100*%
%TA.AperFunction,ComponentPad*%
%ADD52C,2.99974*%
%ADD53C,1.19888*%
%ADD54R,1.80000X4.50000*%
%ADD55R,1.80000X4.00000*%
%ADD56R,5.00000X2.60000*%
%ADD57C,1.30000*%
%ADD58C,1.00000*%
%TA.AperFunction,ViaPad*%
%ADD59C,0.40000*%
%TA.AperFunction,Conductor*%
%ADD60C,0.10897*%
%ADD61C,0.10160*%
%TA.AperFunction,SMDPad,CuDef*%
G04:AMPARAMS|DCode=62|XSize=1.27mm|YSize=0.889mm|CornerRadius=0mm|HoleSize=0mm|Usage=FLASHONLY|Rotation=0.000|XOffset=0mm|YOffset=0mm|HoleType=Round|Shape=Octagon|*
%AMOCTAGOND62*
4,1,8,0.63500,-0.22225,0.63500,0.22225,0.41275,0.44450,-0.41275,0.44450,-0.63500,0.22225,-0.63500,-0.22225,-0.41275,-0.44450,0.41275,-0.44450,0.63500,-0.22225,0.0*
%
%ADD62OCTAGOND62*%

%TA.AperFunction,ConnectorPad*%
G04:AMPARAMS|DCode=63|XSize=1.27mm|YSize=0.889mm|CornerRadius=0mm|HoleSize=0mm|Usage=FLASHONLY|Rotation=180.000|XOffset=0mm|YOffset=0mm|HoleType=Round|Shape=Octagon|*
%AMOCTAGOND63*
4,1,8,-0.63500,0.22225,-0.63500,-0.22225,-0.41275,-0.44450,0.41275,-0.44450,0.63500,-0.22225,0.63500,0.22225,0.41275,0.44450,-0.41275,0.44450,-0.63500,0.22225,0.0*
%
%ADD63OCTAGOND63*%

%ADD64R,1.27000X0.88900*%
%TA.AperFunction,SMDPad,CuDef*%
%ADD65R,3.30000X3.30000*%
%ADD66O,0.70000X0.20000*%
%ADD67O,0.20000X0.70000*%
%ADD68R,2.40000X2.80000*%
%ADD69R,0.56500X0.20000*%
%ADD70R,0.70000X0.20000*%
%ADD71R,1.50000X0.50000*%
%ADD72O,1.50000X0.50000*%
%ADD73R,0.75000X0.85000*%
%ADD74R,0.20000X0.70002*%
%ADD75R,2.00000X2.99999*%
%ADD76R,0.56500X0.40000*%
%ADD77R,0.60000X2.90000*%
G36*
X2796539Y6762080D02*
X2796540Y6480140D01*
X2781300Y6464900D01*
X2435860D01*
X2420620Y6480140D01*
Y6759539D01*
X2440940Y6779860D01*
X2778760D01*
X2796539Y6762080D01*
D02*
G37*
G36*
X2034539D02*
X2034540Y6480140D01*
X2019300Y6464900D01*
X1673860D01*
X1658620Y6480140D01*
Y6759539D01*
X1678940Y6779860D01*
X2016760D01*
X2034539Y6762080D01*
D02*
G37*
G36*
X2796539Y3954730D02*
X2796540Y3672790D01*
X2781300Y3657550D01*
X2435860D01*
X2420620Y3672790D01*
Y3952189D01*
X2440940Y3972510D01*
X2778760D01*
X2796539Y3954730D01*
D02*
G37*
G36*
X2034539D02*
X2034540Y3672790D01*
X2019300Y3657550D01*
X1673860D01*
X1658620Y3672790D01*
Y3952189D01*
X1678940Y3972510D01*
X2016760D01*
X2034539Y3954730D01*
D02*
G37*
G36*
X2796539Y1140460D02*
X2796540Y858520D01*
X2781300Y843280D01*
X2435860D01*
X2420620Y858520D01*
Y1137919D01*
X2440940Y1158240D01*
X2778760D01*
X2796539Y1140460D01*
D02*
G37*
G36*
X2034539D02*
X2034540Y858520D01*
X2019300Y843280D01*
X1673860D01*
X1658620Y858520D01*
Y1137919D01*
X1678940Y1158240D01*
X2016760D01*
X2034539Y1140460D01*
D02*
G37*
G36*
X7802880Y984798D02*
X7792720Y974638D01*
X7721600D01*
X7708900Y987338D01*
Y1012738D01*
X7691652Y1029986D01*
X7597755D01*
X7584440Y1016671D01*
Y931458D01*
X7569200Y916218D01*
X7287260D01*
X7269480Y933998D01*
Y1152438D01*
X7279640Y1162598D01*
X7582621D01*
X7633422Y1111798D01*
X7769860D01*
X7802880Y1078778D01*
Y984798D01*
D02*
G37*
G36*
X7988020Y1554066D02*
X7977323Y1543369D01*
X7908120D01*
X7886456Y1521705D01*
X7608226D01*
X7553680Y1467160D01*
X7513040Y1426520D01*
X7274280D01*
X7264120Y1436680D01*
Y1609400D01*
X7274280Y1619560D01*
X7540980D01*
X7568920Y1591620D01*
X7825461D01*
X7839287Y1577793D01*
X7980501Y1577793D01*
X7988020Y1570274D01*
Y1554066D01*
D02*
G37*
G36*
X7802880Y2893060D02*
X7792720Y2882900D01*
X7721600D01*
X7708900Y2895600D01*
Y2921000D01*
X7693660Y2936240D01*
X7597140D01*
X7584440Y2923540D01*
Y2839720D01*
X7569200Y2824480D01*
X7287260D01*
X7269480Y2842260D01*
Y3060700D01*
X7279640Y3070860D01*
X7579359D01*
X7630160Y3020060D01*
X7769860D01*
X7802880Y2987040D01*
Y2893060D01*
D02*
G37*
G36*
X7988020Y3461606D02*
X7977323Y3450909D01*
X7908120D01*
X7886456Y3429245D01*
X7594845D01*
X7499660Y3334060D01*
X7274280D01*
X7264120Y3344220D01*
Y3516940D01*
X7274280Y3527100D01*
X7540980D01*
X7568920Y3499160D01*
X7825461D01*
X7839287Y3485333D01*
X7980501Y3485333D01*
X7988020Y3477814D01*
Y3461606D01*
D02*
G37*
G36*
X4005580Y6985000D02*
Y6806277D01*
X3998879Y6801800D01*
X3986881D01*
X3975796Y6797208D01*
X3967312Y6788724D01*
X3962720Y6777639D01*
Y6765641D01*
X3967312Y6754556D01*
X3975796Y6746072D01*
X3986881Y6741480D01*
X3998879D01*
X4005580Y6737003D01*
Y6322060D01*
X4180840Y6146800D01*
X4348480D01*
X4465321Y6029959D01*
X5834380D01*
X5847080Y6017260D01*
Y5933439D01*
X5837625Y5923985D01*
X3504495D01*
X3479800Y5948680D01*
Y6388100D01*
X3550920Y6459220D01*
Y6556047D01*
X3563620Y6566495D01*
X3568355D01*
X3579440Y6571087D01*
X3587924Y6579571D01*
X3592516Y6590656D01*
Y6602655D01*
X3587924Y6613740D01*
X3579440Y6622224D01*
X3568355Y6626815D01*
X3556357D01*
X3550920Y6630448D01*
Y6784340D01*
X3484880Y6850380D01*
Y6985000D01*
X3510280Y7010400D01*
X3980180D01*
X4005580Y6985000D01*
D02*
G37*
G36*
X7569200Y5430520D02*
X7825740D01*
X7839566Y5416693D01*
X7980781Y5416693D01*
X7988300Y5409174D01*
Y5392966D01*
X7977602Y5382269D01*
X7908399D01*
X7886736Y5360605D01*
X7608505D01*
X7553960Y5306060D01*
X7513320Y5265420D01*
X7274560D01*
X7264400Y5275580D01*
Y5448300D01*
X7274560Y5458460D01*
X7541260D01*
X7569200Y5430520D01*
D02*
G37*
G36*
X7614920Y4950460D02*
X7769860D01*
X7802880Y4917440D01*
Y4823460D01*
X7792720Y4813300D01*
X7721600D01*
X7708900Y4826000D01*
Y4851400D01*
X7693660Y4866640D01*
X7594600Y4866640D01*
X7584440Y4856480D01*
Y4770120D01*
X7569200Y4754880D01*
X7287260D01*
X7269480Y4772660D01*
Y4991100D01*
X7279640Y5001260D01*
X7564120D01*
X7614920Y4950460D01*
D02*
G37*
%LPC*%
G36*
X3912519Y6893240D02*
X3900521D01*
X3889436Y6888648D01*
X3880952Y6880164D01*
X3876360Y6869079D01*
Y6857081D01*
X3880952Y6845996D01*
X3889436Y6837512D01*
X3900521Y6832920D01*
X3912519D01*
X3923604Y6837512D01*
X3932088Y6845996D01*
X3936680Y6857081D01*
Y6869079D01*
X3932088Y6880164D01*
X3923604Y6888648D01*
X3912519Y6893240D01*
D02*
G37*
G36*
X3836319Y6270772D02*
X3824321D01*
X3813236Y6266181D01*
X3804752Y6257697D01*
X3800160Y6246612D01*
Y6234613D01*
X3804752Y6223528D01*
X3813236Y6215044D01*
X3824321Y6210452D01*
X3836319D01*
X3847404Y6215044D01*
X3855888Y6223528D01*
X3860480Y6234613D01*
Y6246612D01*
X3855888Y6257697D01*
X3847404Y6266181D01*
X3836319Y6270772D01*
D02*
G37*
G36*
X3642882Y6152572D02*
X3630884D01*
X3619798Y6147980D01*
X3616564Y6144746D01*
X3608267Y6140906D01*
X3599971Y6144746D01*
X3596737Y6147980D01*
X3585651Y6152572D01*
X3573653D01*
X3562568Y6147980D01*
X3559494Y6144906D01*
X3551197Y6140893D01*
X3542900Y6144906D01*
X3539827Y6147980D01*
X3528741Y6152572D01*
X3516743D01*
X3505658Y6147980D01*
X3497174Y6139496D01*
X3492582Y6128411D01*
Y6116413D01*
X3497174Y6105328D01*
X3505658Y6096844D01*
X3516743Y6092252D01*
X3528741D01*
X3539827Y6096844D01*
X3542900Y6099917D01*
X3551197Y6103931D01*
X3559494Y6099917D01*
X3562568Y6096844D01*
X3573653Y6092252D01*
X3585651D01*
X3596737Y6096844D01*
X3599971Y6100078D01*
X3608268Y6103917D01*
X3616564Y6100078D01*
X3619798Y6096844D01*
X3630884Y6092252D01*
X3642882D01*
X3653967Y6096844D01*
X3662451Y6105328D01*
X3667043Y6116413D01*
Y6128411D01*
X3662451Y6139496D01*
X3653967Y6147980D01*
X3642882Y6152572D01*
D02*
G37*
G36*
X3988719Y6170196D02*
X3976721D01*
X3965636Y6165604D01*
X3957152Y6157120D01*
X3952560Y6146035D01*
Y6134037D01*
X3957152Y6122952D01*
X3965636Y6114468D01*
X3976721Y6109876D01*
X3988719D01*
X3999804Y6114468D01*
X4008288Y6122952D01*
X4012880Y6134037D01*
Y6146035D01*
X4008288Y6157120D01*
X3999804Y6165604D01*
X3988719Y6170196D01*
D02*
G37*
%LPD*%
D10*
X8724459Y5544795D02*
G03*
X8724484Y5544820I-49032J49082D01*
G01*
X8675427Y5524500D02*
G03*
X8724459Y5544795I0J69377D01*
G01*
X8585944Y5359080D02*
G03*
X8656112Y5388145I0J99233D01*
G01*
X8711334Y5412020D02*
G03*
X8657875Y5389907I0J-75677D01*
G01*
D02*
G03*
X8657822Y5389855I53459J-53564D01*
G01*
X8657054Y5207164D02*
G03*
X8710901Y5184860I53847J53847D01*
G01*
X8641049Y5223169D02*
G03*
X8602570Y5239080I-38479J-38572D01*
G01*
X8641096Y5223122D02*
G03*
X8641049Y5223169I-38525J-38525D01*
G01*
X8653518Y5099540D02*
G03*
X8653502Y5099556I-47174J-47174D01*
G01*
D02*
G03*
X8606344Y5119080I-47158J-47189D01*
G01*
X8653534Y5099524D02*
G03*
X8700692Y5080000I47158J47189D01*
G01*
X8653518Y5099540D02*
G03*
X8653534Y5099524I47174J47174D01*
G01*
X8080120Y5525360D02*
G03*
X8068505Y5521713I0J-20320D01*
G01*
X8085161Y5525360D02*
G03*
X8086558Y5525408I0J20320D01*
G01*
X8043084Y5502417D02*
G03*
X8043033Y5502367I59516J-59617D01*
G01*
X8054449Y5511922D02*
G03*
X8043084Y5502417I48151J-69122D01*
G01*
X7945120Y5440040D02*
G03*
X8005870Y5465203I0J85914D01*
G01*
X8412758Y5559118D02*
G03*
X8412803Y5559163I-77507J77597D01*
G01*
X8335251Y5527040D02*
G03*
X8412758Y5559118I0J109675D01*
G01*
X8491314Y5712554D02*
G03*
X8464840Y5648640I63913J-63913D01*
G01*
Y5633836D02*
G03*
X8465120Y5640040I-68669J6204D01*
G01*
X8444961Y5591321D02*
G03*
X8464840Y5633836I-48789J48719D01*
G01*
X8444925Y5591286D02*
G03*
X8444961Y5591321I-48754J48754D01*
G01*
X8526036Y5747276D02*
G03*
X8549640Y5804261I-56985J56985D01*
G01*
X8420254Y5750714D02*
G03*
X8442960Y5805531I-54817J54817D01*
G01*
X8402526Y5732986D02*
G03*
X8384840Y5690258I42770J-42728D01*
G01*
X8402547Y5733007D02*
G03*
X8402526Y5732986I42749J-42749D01*
G01*
X8284078Y5697123D02*
G03*
X8265120Y5651281I45947J-45843D01*
G01*
X8284130Y5697176D02*
G03*
X8284078Y5697123I45895J-45895D01*
G01*
X8319770Y5739375D02*
G03*
X8336280Y5779234I-39859J39859D01*
G01*
X8185076Y5793117D02*
G03*
X8144840Y5695981I97136J-97136D01*
G01*
X7810096Y5481725D02*
G03*
X7910824Y5440040I100728J100859D01*
G01*
X7788669Y5503151D02*
G03*
X7737120Y5524500I-51549J-51562D01*
G01*
X7810031Y5481790D02*
G03*
X7810096Y5481725I100793J100793D01*
G01*
X7845166Y5505075D02*
G03*
X7908000Y5479080I62835J62946D01*
G01*
X7845110Y5505130D02*
G03*
X7845166Y5505075I62890J62890D01*
G01*
X7822749Y5270951D02*
G03*
X7899730Y5239080I76982J77034D01*
G01*
X7822722Y5270978D02*
G03*
X7822749Y5270951I77008J77008D01*
G01*
X8625768Y3132433D02*
G03*
X8700832Y3101340I75064J75064D01*
G01*
X8586972Y3171228D02*
G03*
X8544840Y3188680I-42131J-42131D01*
G01*
X8667466Y3240054D02*
G03*
X8744804Y3208020I77338J77338D01*
G01*
X8561069Y3308520D02*
G03*
X8555269Y3308680I-5800J-105031D01*
G01*
X8629595Y3277926D02*
G03*
X8561069Y3308520I-74326J-74436D01*
G01*
X8629650Y3277870D02*
G03*
X8629595Y3277926I-74381J-74381D01*
G01*
X8719411Y3479333D02*
G03*
X8677159Y3454469I26871J-93995D01*
G01*
X8614905Y3428680D02*
G03*
X8677155Y3454465I0J88035D01*
G01*
X8746282Y3483098D02*
G03*
X8719411Y3479333I0J-97761D01*
G01*
X8649794Y3611762D02*
G03*
X8649742Y3611710I55547J-55651D01*
G01*
X8705341Y3634740D02*
G03*
X8649794Y3611762I0J-78629D01*
G01*
X8169775Y3847416D02*
G03*
X8144840Y3787140I60389J-60276D01*
G01*
X8169831Y3847473D02*
G03*
X8169775Y3847416I60333J-60333D01*
G01*
X8298484Y3789984D02*
G03*
X8264840Y3708680I81418J-81304D01*
G01*
X8298541Y3790041D02*
G03*
X8298484Y3789984I81361J-81361D01*
G01*
X8413900Y3831740D02*
G03*
X8442960Y3901897I-70157J70157D01*
G01*
X8413858Y3831697D02*
G03*
X8384840Y3761583I70200J-70115D01*
G01*
X8413900Y3831740D02*
G03*
X8413858Y3831697I70157J-70157D01*
G01*
X8505061Y3862663D02*
G03*
X8464840Y3765561I97102J-97102D01*
G01*
X8444379Y3659281D02*
G03*
X8464840Y3708680I-49398J49398D01*
G01*
X8352122Y3594000D02*
G03*
X8398620Y3613260I0J65758D01*
G01*
X7858285Y3644485D02*
G03*
X7858453Y3638991I89635J0D01*
G01*
D02*
G03*
X7862050Y3618777I89467J5494D01*
G01*
D02*
G03*
X7884538Y3581103I85870J25707D01*
G01*
X7911082Y3557758D02*
G03*
X7944840Y3548680I33759J58227D01*
G01*
X7910065Y3558360D02*
G03*
X7911082Y3557758I34775J57626D01*
G01*
X7901625Y3564387D02*
G03*
X7910065Y3558360I43216J51599D01*
G01*
X7898461Y3567180D02*
G03*
X7900372Y3565436I21379J21500D01*
G01*
X7898402Y3567240D02*
G03*
X7898461Y3567180I21439J21440D01*
G01*
X8065489Y3588066D02*
G03*
X8065472Y3588048I14351J-14386D01*
G01*
X8079840Y3594000D02*
G03*
X8065489Y3588066I0J-20320D01*
G01*
X8015244Y3537821D02*
G03*
X8015280Y3537857I-70404J70476D01*
G01*
X7950484Y3508840D02*
G03*
X8015244Y3537821I-5644J99457D01*
G01*
X7944840Y3508680D02*
G03*
X7950484Y3508840I0J99617D01*
G01*
X7813359Y3542982D02*
G03*
X7896251Y3508680I82892J83004D01*
G01*
X7813302Y3543038D02*
G03*
X7813359Y3542982I82948J82948D01*
G01*
X7787625Y3568715D02*
G03*
X7739380Y3588699I-48245J-48245D01*
G01*
X7862784Y3361476D02*
G03*
X7785516Y3393440I-77268J-77411D01*
G01*
X7862855Y3361405D02*
G03*
X7862784Y3361476I-77339J-77339D01*
G01*
X7940088Y3308840D02*
G03*
X7944840Y3308680I4752J70480D01*
G01*
X7894890Y3329370D02*
G03*
X7940088Y3308840I49950J49950D01*
G01*
X8673266Y1681480D02*
G03*
X8721944Y1704340I-7332J78870D01*
G01*
X8665934Y1681140D02*
G03*
X8673266Y1681480I0J79210D01*
G01*
X8712299Y1574080D02*
G03*
X8656849Y1551135I0J-78474D01*
G01*
X8656755Y1551041D02*
G03*
X8656810Y1551095I-72264J72373D01*
G01*
X8584491Y1521140D02*
G03*
X8656755Y1551041I0J102274D01*
G01*
X8656849Y1551135D02*
G03*
X8656810Y1551095I55450J-55528D01*
G01*
X8671831Y1373453D02*
G03*
X8604989Y1401140I-66842J-66842D01*
G01*
X8650122Y1233019D02*
G03*
X8744804Y1193800I94682J94682D01*
G01*
X8642418Y1240722D02*
G03*
X8544840Y1281140I-97578J-97578D01*
G01*
X7855113Y1154022D02*
G03*
X7809087Y1165860I-46025J-83555D01*
G01*
X7876540Y1137920D02*
G03*
X7855113Y1154022I-67453J-67453D01*
G01*
X7944840Y1401140D02*
G03*
X7929444Y1407517I-15396J-15396D01*
G01*
X7834236Y1419230D02*
G03*
X7879866Y1407517I45630J83028D01*
G01*
X7778405Y1469735D02*
G03*
X7739380Y1485900I-39024J-39024D01*
G01*
X7812874Y1435266D02*
G03*
X7834236Y1419230I66992J66992D01*
G01*
X7835955Y1628085D02*
G03*
X7901085Y1601140I65129J65240D01*
G01*
X7790067Y1673973D02*
G03*
X7754620Y1688636I-35447J-35516D01*
G01*
X7790102Y1673939D02*
G03*
X7790067Y1673973I-35482J-35482D01*
G01*
X7835900Y1628140D02*
G03*
X7835955Y1628085I65185J65185D01*
G01*
X8003258Y1625317D02*
G03*
X8003291Y1625351I-58417J58485D01*
G01*
X7949981Y1601300D02*
G03*
X8003258Y1625317I-5141J82502D01*
G01*
X7944840Y1601140D02*
G03*
X7949981Y1601300I0J82662D01*
G01*
X8048206Y1670266D02*
G03*
X8048166Y1670225I39154J-39235D01*
G01*
X8064657Y1681597D02*
G03*
X8048206Y1670266I22703J-50567D01*
G01*
X8079840Y1686460D02*
G03*
X8071517Y1684678I0J-20320D01*
G01*
X8444379Y1751741D02*
G03*
X8464840Y1801140I-49398J49398D01*
G01*
X8431095Y1738458D02*
G03*
X8431130Y1738492I-125582J125651D01*
G01*
X8305513Y1686460D02*
G03*
X8431095Y1738458I0J177649D01*
G01*
X8507004Y1903003D02*
G03*
X8464840Y1801140I101966J-101863D01*
G01*
X8530527Y1926526D02*
G03*
X8549640Y1972671I-46145J46145D01*
G01*
X8507055Y1903054D02*
G03*
X8507004Y1903003I101915J-101914D01*
G01*
X8411990Y1905157D02*
G03*
X8384840Y1839573I65637J-65583D01*
G01*
X8412017Y1905184D02*
G03*
X8411990Y1905157I65610J-65610D01*
G01*
X8420486Y1913652D02*
G03*
X8442960Y1967915I-54267J54262D01*
G01*
X8285778Y1890558D02*
G03*
X8264840Y1839937I50726J-50621D01*
G01*
X8327175Y1934240D02*
G03*
X8336280Y1971524I-71779J37284D01*
G01*
X8312590Y1914329D02*
G03*
X8327175Y1934240I-57194J57194D01*
G01*
X8285830Y1890611D02*
G03*
X8285778Y1890558I50674J-50674D01*
G01*
X8216429Y1961130D02*
G03*
X8229600Y1999702I-49892J38572D01*
G01*
X8211175Y1955155D02*
G03*
X8216429Y1961130I-44639J44547D01*
G01*
X8211129Y1955109D02*
G03*
X8211175Y1955155I-44593J44593D01*
G01*
X8180623Y1924603D02*
G03*
X8180714Y1924694I-14294J14442D01*
G01*
X8166218Y1910198D02*
G03*
X8166327Y1910307I-30251J30362D01*
G01*
X8145000Y1871227D02*
G03*
X8145025Y1869776I42860J0D01*
G01*
X8157499Y1901478D02*
G03*
X8145000Y1871227I30362J-30251D01*
G01*
X8157554Y1901534D02*
G03*
X8157499Y1901478I30307J-30307D01*
G01*
X8145036Y1869060D02*
G03*
X8145025Y1869776I-20320J63D01*
G01*
X6078912Y7389524D02*
G03*
X6040120Y7401165I-38792J-58812D01*
G01*
X6089938Y7380529D02*
G03*
X6078912Y7389524I-49818J-49818D01*
G01*
X2669142Y6257499D02*
G03*
X2603009Y6238403I0J-124062D01*
G01*
X2591209Y6230955D02*
G03*
X2591248Y6230993I-68315J68391D01*
G01*
X2522895Y6202680D02*
G03*
X2591209Y6230955I0J96665D01*
G01*
X3011032Y6257499D02*
G03*
X3085278Y6288218I0J105084D01*
G01*
X3085338Y6288278D02*
G03*
X3116116Y6362583I-74305J74305D01*
G01*
X3085278Y6288218D02*
G03*
X3085338Y6288278I-74245J74366D01*
G01*
X398780Y7043891D02*
G03*
X324385Y7223496I-254000J0D01*
G01*
X3889378Y1132371D02*
G03*
X3845560Y998805I181657J-133565D01*
G01*
X3983598Y1202503D02*
G03*
X3906893Y1149885I102899J-232223D01*
G01*
X4086498Y1224280D02*
G03*
X3983598Y1202503I0J-254000D01*
G01*
X3572788Y551259D02*
G03*
X3752394Y625654I0J254000D01*
G01*
X3771165Y644425D02*
G03*
X3845560Y824030I-179605J179605D01*
G01*
X3045276Y652596D02*
G03*
X3116116Y823631I-171052J171034D01*
G01*
X3045164Y652484D02*
G03*
X3045267Y652587I-170941J171147D01*
G01*
X2874224Y581739D02*
G03*
X3045164Y652484I0J241893D01*
G01*
X613826Y623154D02*
G03*
X787521Y551259I173695J173870D01*
G01*
X613738Y623242D02*
G03*
X613826Y623154I173782J173782D01*
G01*
X503717Y875768D02*
G03*
X574003Y706082I239971J0D01*
G01*
X623952Y656134D02*
G03*
X803557Y581739I179605J179605D01*
G01*
X467360Y874830D02*
G03*
X541755Y695225I254000J0D01*
G01*
X251732Y902106D02*
G03*
X264158Y932105I-29999J29999D01*
G01*
X221733Y889680D02*
G03*
X251732Y902106I0J42425D01*
G01*
X425562Y1189878D02*
G03*
X324899Y1231532I-100664J-100808D01*
G01*
X467360Y1089071D02*
G03*
X425634Y1189806I-142461J0D01*
G01*
D02*
G03*
X425562Y1189878I-100736J-100736D01*
G01*
X503717Y1319334D02*
G03*
X429322Y1498939I-254000J0D01*
G01*
X502920Y3861629D02*
G03*
X428525Y4041234I-254000J0D01*
G01*
X264174Y4310796D02*
G03*
X338569Y4131190I254000J0D01*
G01*
X468553Y3866700D02*
G03*
X416096Y3993344I-179101J0D01*
G01*
D02*
G03*
X289452Y4045802I-126644J-126644D01*
G01*
X468553Y3613485D02*
G03*
X542948Y3433879I254000J0D01*
G01*
X502920Y3625651D02*
G03*
X577315Y3446045I254000J0D01*
G01*
X735053Y3241775D02*
G03*
X914658Y3167380I179605J179605D01*
G01*
X743485Y3279875D02*
G03*
X923091Y3205480I179605J179605D01*
G01*
X3062504Y3259092D02*
G03*
X3116116Y3388521I-129430J129430D01*
G01*
X2933075Y3205480D02*
G03*
X3062504Y3259092I0J183041D01*
G01*
X3538874Y3167380D02*
G03*
X3718479Y3241775I0J254000D01*
G01*
X3754090Y3277385D02*
G03*
X3828485Y3456991I-179605J179605D01*
G01*
X3902880Y3930725D02*
G03*
X3828485Y3751119I179605J-179605D01*
G01*
X4156605Y4079240D02*
G03*
X3977000Y4004845I0J-254000D01*
G01*
X6040120Y7311165D02*
G03*
X6061598Y7259313I73330J0D01*
G01*
X5969988Y7382792D02*
G03*
X5930900Y7398983I-39088J-39088D01*
G01*
X5990219Y7350514D02*
G03*
X5981700Y7371080I-29085J0D01*
G01*
X5972978Y7261970D02*
G03*
X5988301Y7288689I-41623J41623D01*
G01*
X5923301Y7212292D02*
G03*
X5895035Y7144055I68238J-68238D01*
G01*
X8436647Y4539702D02*
G03*
X8422640Y4533900I0J-19809D01*
G01*
X7001750Y1224280D02*
G03*
X7133590Y1278890I0J186450D01*
G01*
X8024497Y6034955D02*
G03*
X8024582Y6035040I-110293J110463D01*
G01*
X7914204Y5989320D02*
G03*
X8024497Y6034955I0J156098D01*
G01*
X8024513Y4102031D02*
G03*
X8024582Y4102100I-104177J104314D01*
G01*
X7920336Y4058920D02*
G03*
X8024513Y4102031I0J147426D01*
G01*
Y2194491D02*
G03*
X8024582Y2194560I-104177J104314D01*
G01*
X7920336Y2151380D02*
G03*
X8024513Y2194491I0J147426D01*
G01*
X7607395Y4122326D02*
G03*
X7760603Y4058920I153208J153397D01*
G01*
X7607206Y4122514D02*
G03*
X7453998Y4185920I-153208J-153397D01*
G01*
X7607300Y4122420D02*
G03*
X7607206Y4122514I-153302J-153302D01*
G01*
X7607300Y4122420D02*
G03*
X7607395Y4122326I153302J153302D01*
G01*
X7609934Y2214786D02*
G03*
X7763142Y2151380I153208J153397D01*
G01*
X7609746Y2214974D02*
G03*
X7456538Y2278380I-153208J-153397D01*
G01*
X7609840Y2214880D02*
G03*
X7609746Y2214974I-153302J-153302D01*
G01*
X7609840Y2214880D02*
G03*
X7609934Y2214786I153302J153302D01*
G01*
X7615014Y6052726D02*
G03*
X7768222Y5989320I153208J153397D01*
G01*
X7614826Y6052914D02*
G03*
X7461618Y6116320I-153208J-153397D01*
G01*
X7614920Y6052820D02*
G03*
X7614826Y6052914I-153302J-153302D01*
G01*
X7614920Y6052820D02*
G03*
X7615014Y6052726I153302J153302D01*
G01*
X5988301Y7288689D02*
G03*
X5990219Y7303593I-56946J14904D01*
G01*
X76200Y7205980D02*
G03*
X40640Y7120131I85849J-85849D01*
G01*
Y1096090D02*
G03*
X76200Y1010240I121409J0D01*
G01*
X8286340Y3662301D02*
G03*
X8286400Y3662361I-21500J21379D01*
G01*
D02*
G03*
X8286406Y3662367I-21560J21318D01*
G01*
X8295154Y3671114D02*
G03*
X8304840Y3694500I-23386J23386D01*
G01*
X8286219Y3662180D02*
G03*
X8286340Y3662301I-21379J21500D01*
G01*
X8264840Y3653360D02*
G03*
X8286219Y3662180I0J30320D01*
G01*
X8262325Y3653464D02*
G03*
X8264840Y3653360I2516J30215D01*
G01*
X8262325Y3653464D02*
G03*
X8260480Y3653522I-1561J-20260D01*
G01*
X8243340Y1734820D02*
G03*
X8286827Y1752833I0J61500D01*
G01*
D02*
G03*
X8304840Y1796320I-43487J43487D01*
G01*
X7988370Y1762690D02*
G03*
X8055753Y1734820I67383J67523D01*
G01*
X7988300Y1762760D02*
G03*
X7988370Y1762690I67453J67453D01*
G01*
X7960360Y1790700D02*
G03*
X7825454Y1846580I-134906J-134906D01*
G01*
X7247827Y1786827D02*
G03*
X7188200Y1642786I144168J-144041D01*
G01*
X7247953Y1786953D02*
G03*
X7247890Y1786890I144041J-144168D01*
G01*
X7391994Y1846580D02*
G03*
X7247953Y1786953I0J-203794D01*
G01*
X7247890Y1786890D02*
G03*
X7247827Y1786827I144104J-144104D01*
G01*
X7133590Y1278890D02*
G03*
X7188200Y1410730I-131840J131840D01*
G01*
X484405Y6277075D02*
G03*
X664010Y6202680I179605J179605D01*
G01*
X398780Y6467910D02*
G03*
X473175Y6288305I254000J0D01*
G01*
X6716495Y4004845D02*
G03*
X6536890Y4079240I-179605J-179605D01*
G01*
X6913145Y3808195D02*
G03*
X7092750Y3733800I179605J179605D01*
G01*
X7964489Y3676910D02*
G03*
X8021386Y3653360I56897J56956D01*
G01*
X7964460Y3676940D02*
G03*
X7964489Y3676910I56927J56927D01*
G01*
X7964460Y3676940D02*
G03*
X7827186Y3733800I-137273J-137273D01*
G01*
X8724484Y5544820D02*
X8744804Y5565140D01*
X8613140Y5524500D02*
X8675427D01*
X8544840Y5359080D02*
X8585944D01*
X8656112Y5388145D02*
X8657822Y5389855D01*
X8711334Y5412020D02*
X8742680D01*
X8641096Y5223122D02*
X8657054Y5207164D01*
X8544840Y5239080D02*
X8602570D01*
X8710901Y5184860D02*
X8742444D01*
X8700692Y5080000D02*
X8742680D01*
X8544840Y5119080D02*
X8606344D01*
X8080120Y5525360D02*
X8085161D01*
X8110220Y5527040D02*
X8335251D01*
X8086558Y5525408D02*
X8110220Y5527040D01*
X8054449Y5511922D02*
X8068505Y5521713D01*
X8005870Y5465203D02*
X8043033Y5502367D01*
X7910824Y5440040D02*
X7945120D01*
X8412803Y5559163D02*
X8444925Y5591286D01*
X8491314Y5712554D02*
X8526036Y5747276D01*
X8549640Y5804261D02*
Y5837642D01*
X8384840Y5639080D02*
Y5690258D01*
X8402547Y5733007D02*
X8420254Y5750714D01*
X8442960Y5805531D02*
Y5837642D01*
X8303260Y5722865D02*
X8319770Y5739375D01*
X8265120Y5640040D02*
Y5651281D01*
X8284130Y5697176D02*
X8303260Y5716306D01*
Y5717540D02*
Y5722865D01*
Y5716306D02*
Y5717540D01*
X8336280Y5779234D02*
Y5837642D01*
X8144840Y5639080D02*
Y5695981D01*
X8229600Y5837642D02*
X8230509Y5838551D01*
X8185076Y5793117D02*
X8229600Y5837642D01*
X7788676Y5503145D02*
X7810031Y5481790D01*
X7604760Y5524500D02*
X7731761D01*
X7737120D01*
X7908000Y5479080D02*
X7944840D01*
X7769860Y5580380D02*
X7845110Y5505130D01*
X7899730Y5239080D02*
X7944840D01*
X7772400Y5321300D02*
X7822723Y5270978D01*
X7771130Y5322570D02*
X7772400Y5321300D01*
X8700832Y3101340D02*
X8744804D01*
X8586972Y3171228D02*
X8625768Y3132433D01*
X8744804Y3208020D02*
X8745012Y3207812D01*
X8629650Y3277870D02*
X8667466Y3240054D01*
X8544840Y3308680D02*
X8555269D01*
X8544840Y3428680D02*
X8614905D01*
X8677155Y3454465D02*
X8677159Y3454469D01*
X8705341Y3634740D02*
X8744804D01*
X8626712Y3588680D02*
X8649742Y3611710D01*
X8144840Y3708680D02*
Y3787140D01*
X8169831Y3847473D02*
X8229600Y3907242D01*
X8298541Y3790041D02*
X8336280Y3827780D01*
X8384840Y3708680D02*
Y3761583D01*
X8442960Y3901897D02*
Y3907242D01*
X8464840Y3708680D02*
Y3765561D01*
X8505061Y3862663D02*
X8549640Y3907242D01*
X8398620Y3613260D02*
X8417880Y3632520D01*
Y3632783D02*
X8444379Y3659281D01*
X8079840Y3594000D02*
X8352122D01*
X7740858Y3645962D02*
X7856807D01*
X7858285Y3644485D01*
X7900372Y3565435D02*
X7901624Y3564387D01*
X7897248Y3568393D02*
X7898401Y3567240D01*
X7884538Y3581103D02*
X7897248Y3568393D01*
X8065472Y3588048D02*
X8065489Y3588066D01*
X8059520Y3582097D02*
X8065472Y3588048D01*
X7896251Y3508680D02*
X7944840D01*
X8015280Y3537857D02*
X8059520Y3582097D01*
X7787625Y3568715D02*
X7813302Y3543038D01*
X7739380Y3540760D02*
Y3588699D01*
X7569226D02*
X7739380D01*
X7862855Y3361405D02*
X7894890Y3329370D01*
X7739380Y3393440D02*
X7785516D01*
X8721944Y1704340D02*
X8744804Y1727200D01*
X8625840Y1681480D02*
X8662462D01*
X8544840Y1681140D02*
X8665934D01*
X8544840Y1521140D02*
X8584491D01*
X8712299Y1574080D02*
X8744804D01*
X8671831Y1373453D02*
X8744804Y1300480D01*
X8544840Y1401140D02*
X8604989D01*
X8744804Y1193800D02*
X8745012Y1193592D01*
X8642419Y1240722D02*
X8650121Y1233019D01*
X7736882Y1165860D02*
X7809087D01*
X7879866Y1407517D02*
X7929444D01*
X7778405Y1469735D02*
X7807960Y1440180D01*
X7812874Y1435266D01*
X7790102Y1673939D02*
X7835900Y1628140D01*
X7586980Y1688636D02*
X7754620D01*
X7901085Y1601140D02*
X7944840D01*
X8003291Y1625351D02*
X8048166Y1670225D01*
X8079840Y1686460D02*
X8305513D01*
X8064657Y1681597D02*
X8071517Y1684677D01*
X8431130Y1738492D02*
X8444379Y1751741D01*
X8549640Y1972671D02*
Y1999702D01*
X8507055Y1903054D02*
X8530527Y1926526D01*
X7528129Y1688636D02*
X7586980D01*
X7739380Y1633220D02*
Y1678940D01*
X8384840Y1801140D02*
Y1839573D01*
X8412017Y1905183D02*
X8420486Y1913652D01*
X8442960Y1967915D02*
Y1999702D01*
X8285830Y1890611D02*
X8306820Y1911600D01*
X8308340Y1910080D02*
X8312590Y1914329D01*
X8336280Y1971524D02*
Y1999702D01*
X8264840Y1801140D02*
Y1839937D01*
X8229600Y1999702D02*
X8265752Y2035853D01*
X8166327Y1910307D02*
X8180623Y1924603D01*
X8180715Y1924694D02*
X8211129Y1955109D01*
X8157554Y1901534D02*
X8166218Y1910198D01*
X8145000Y1801300D02*
Y1845140D01*
X8145035Y1869060D01*
X76200Y7205980D02*
X111760Y7241540D01*
X6089939Y7380529D02*
X6121039Y7349429D01*
X2989116Y997856D02*
X3050876D01*
X4451356D02*
X4513116D01*
X4132116D02*
X4193876D01*
X2989116Y3812126D02*
X3050876D01*
X2862116D02*
X2862530Y3812540D01*
X2928620D01*
X2862116Y997856D02*
X2865020Y1000760D01*
X2913380D01*
X2292356Y997856D02*
X2354116D01*
X2100116D02*
X2161876D01*
X4451356Y3812126D02*
X4513116D01*
X4133618Y3810624D02*
X4193876D01*
X4132116Y3812126D02*
X4133618Y3810624D01*
X2292356Y3812126D02*
X2354116D01*
X2100116D02*
X2161876D01*
X4129340Y6616700D02*
X4132116Y6619476D01*
X4086860Y6616700D02*
X4129340D01*
X4894116Y6462224D02*
Y6619476D01*
X2100116Y6792246D02*
X2101154Y6793284D01*
X2100116Y6619476D02*
Y6792246D01*
X2354116D02*
X2355154Y6793284D01*
X2354116Y6619476D02*
Y6792246D01*
X7237730Y2152650D02*
X7341790D01*
X7343060Y2151380D01*
X7236460Y2153920D02*
X7237730Y2152650D01*
X7236460Y2024380D02*
X7343060D01*
X7648110Y1741170D02*
X7649380Y1739900D01*
X7529830Y1741170D02*
X7648110D01*
X7528560Y1742440D02*
X7529830Y1741170D01*
X7663180Y881380D02*
Y951340D01*
X7639160Y975360D02*
X7663180Y951340D01*
X7612380Y881380D02*
Y943020D01*
X7634785Y965425D01*
X2591248Y6230993D02*
X2603009Y6238403D01*
X664010Y6202680D02*
X2522895D01*
X2669142Y6257499D02*
X3011032D01*
X3116116Y6362583D02*
Y6619476D01*
X398780Y6467910D02*
Y7043891D01*
X264174Y7283707D02*
X324385Y7223496D01*
X3889378Y1132371D02*
X3906893Y1149885D01*
X3889378Y1132371D02*
X3889378Y1132371D01*
X4086498Y1224280D02*
X7001750D01*
X3845560Y824030D02*
Y998805D01*
X3752394Y625654D02*
X3771165Y644425D01*
X787521Y551259D02*
X3572788D01*
X803557Y581739D02*
X2874224D01*
X3045267Y652587D02*
X3045276Y652596D01*
X3116116Y823631D02*
Y997856D01*
X541755Y695225D02*
X613738Y623242D01*
X574003Y706082D02*
X623952Y656134D01*
X467360Y874830D02*
Y1089071D01*
X503717Y875768D02*
Y1319334D01*
X111760Y889680D02*
X221733D01*
X264158Y932105D02*
Y1041532D01*
Y1231532D02*
X324899D01*
X301241Y1627021D02*
X429322Y1498939D01*
X338569Y4131190D02*
X428525Y4041234D01*
X264174Y4310796D02*
Y4478357D01*
X502920Y3625651D02*
Y3861629D01*
X264158Y4045802D02*
X289452D01*
X468553Y3613485D02*
Y3866700D01*
X542948Y3433879D02*
X735053Y3241775D01*
X577315Y3446045D02*
X743485Y3279875D01*
X914658Y3167380D02*
X3538874D01*
X923091Y3205480D02*
X2933075D01*
X3116116Y3388521D02*
Y3812126D01*
X3718479Y3241775D02*
X3754090Y3277385D01*
X3828485Y3456991D02*
Y3751119D01*
X3902880Y3930725D02*
X3977000Y4004845D01*
X4156605Y4079240D02*
X6536890D01*
X7969960Y5520200D02*
X7992401D01*
X7993526Y5521325D01*
X7866096Y4748700D02*
X7868920Y4751525D01*
X7762240Y4748700D02*
X7866096D01*
X7713496Y4747434D02*
X7714129Y4748067D01*
X7761607D01*
X7762240Y4748700D01*
Y4704080D02*
Y4748700D01*
X7867508Y2819713D02*
X7868920Y2821125D01*
X7763653Y2819713D02*
X7867508D01*
X7762240Y2818300D02*
X7763653Y2819713D01*
X7764014Y911812D02*
X7867147D01*
X7868920Y913585D01*
X7762240Y910038D02*
X7764014Y911812D01*
X4894116Y997856D02*
X4896213Y995758D01*
Y832327D02*
Y995758D01*
Y832327D02*
X4898311Y830229D01*
X4894116Y3642824D02*
Y3812126D01*
X7602220Y5527040D02*
X7604760Y5524500D01*
X5993355Y7311165D02*
X6040120D01*
X5990219Y7303593D02*
Y7350514D01*
X5713103Y7398983D02*
X5930900D01*
X6061598Y7259313D02*
X6082490Y7238421D01*
X5923301Y7212293D02*
X5972978Y7261970D01*
X5855030Y7144055D02*
X5895035D01*
X4451356Y6606169D02*
X4499809D01*
X4513116Y6619476D01*
X8548370Y5928912D02*
Y5970270D01*
X8425000Y5039240D02*
Y5101734D01*
X8436647Y4539702D02*
X8486140D01*
X8244840Y5339080D02*
X8331200Y5252720D01*
X8224840Y5359080D02*
X8244840Y5339080D01*
X7944840Y5359080D02*
X8224840D01*
X7944840Y5319080D02*
X8224840D01*
X8224840Y3428680D02*
X8244840Y3408680D01*
X7639575Y2882485D02*
X7642445Y2879615D01*
X7639160Y2882900D02*
X7639575Y2882485D01*
X264174Y1664087D02*
X266951D01*
X301241Y1629797D01*
Y1627021D02*
Y1629797D01*
X7639160Y4813300D02*
X7681544D01*
X7646477Y4758580D02*
Y4805983D01*
Y4758497D02*
Y4758580D01*
X7639160Y4813300D02*
X7646477Y4805983D01*
X7639575Y2821866D02*
Y2882485D01*
X7683324Y2879615D02*
X7690375D01*
X7642445D02*
X7683324D01*
X7768222Y5989320D02*
X7843060D01*
X7914204D01*
X7760603Y4058920D02*
X7843060D01*
X7920336D01*
X7763142Y2151380D02*
X7843060D01*
X7920336D01*
X7551562Y3588789D02*
X7551793Y3588558D01*
X7507137Y3589020D02*
X7507369Y3588789D01*
X7551562D01*
X7569085Y3588558D02*
X7569226Y3588699D01*
X7551793Y3588558D02*
X7569085D01*
X7549346Y5526574D02*
X7600953D01*
X7548880Y5527040D02*
X7549346Y5526574D01*
X7600953D02*
X7601419Y5526107D01*
X7343060Y4185920D02*
X7453998D01*
X7343060Y2278380D02*
X7456538D01*
X7343060Y6116320D02*
X7461618D01*
X6082490Y7238421D02*
X6087374Y7238983D01*
X5712460Y7398340D02*
X5713103Y7398983D01*
X5969988Y7382792D02*
X5981700Y7371080D01*
X7604760Y3393440D02*
X7649380D01*
X40640Y6604000D02*
Y7120131D01*
X76200Y1010240D02*
X111760Y974680D01*
X40640Y1096090D02*
Y1663700D01*
X8016240Y3907238D02*
X8062680D01*
X8286400Y3662361D02*
X8286406Y3662367D01*
X8295154Y3671114D01*
X8304840Y3694500D02*
Y3708680D01*
X8021386Y3653360D02*
X8242300D01*
X8260480Y3653522D01*
X8304840Y1796320D02*
Y1801140D01*
X8055753Y1734820D02*
X8243340D01*
X7960360Y1790700D02*
X7988300Y1762760D01*
X7391994Y1846580D02*
X7825454D01*
X7188200Y1410730D02*
Y1642786D01*
X473175Y6288305D02*
X484405Y6277075D01*
X6716495Y4004845D02*
X6913145Y3808195D01*
X7092750Y3733800D02*
X7827186D01*
X6121039Y7349429D02*
X6121039D01*
X40640Y4485640D02*
Y6604000D01*
X8304840Y5588960D02*
Y5592945D01*
Y5639080D01*
X49620Y6595020D02*
X111760D01*
X40640Y6604000D02*
X49620Y6595020D01*
X40640Y3792220D02*
Y4485640D01*
X45040Y4481240D02*
X111760D01*
X40640Y4485640D02*
X45040Y4481240D01*
X40640Y1663700D02*
Y3792220D01*
X43860Y3789000D02*
X111760D01*
X40640Y3792220D02*
X43860Y3789000D01*
X40640Y1663700D02*
X43860Y1666920D01*
X111760D01*
X8798380Y746760D02*
X8877300D01*
X8798380D02*
Y838380D01*
X8545380Y956760D02*
X8628380D01*
Y1046480D01*
X5855030Y6904050D02*
X5875020Y6924040D01*
X5705018Y6904050D02*
X5855030D01*
X8547100Y5971540D02*
X8548370Y5970270D01*
X7739380Y5323840D02*
X7740650Y5322570D01*
X7771130D01*
X8230509Y5838551D02*
X8230964Y5838096D01*
X8275586D02*
X8276040Y5838551D01*
X8230964Y5838096D02*
X8275586D01*
X7948540Y5862320D02*
X7971400Y5839460D01*
X8015329Y5838549D02*
X8016240Y5837638D01*
X7976511Y5838549D02*
X8015329D01*
X7843060Y5862320D02*
X7948540D01*
X7971400Y5839460D02*
X7975600D01*
X7976511Y5838549D01*
X7343060Y6243320D02*
X7508240D01*
X8224840Y5319080D02*
X8244840Y5339080D01*
X8719820Y4584700D02*
X8723620D01*
X8798380D01*
X8798615Y4584935D01*
Y4678680D01*
X8542840Y4794700D02*
X8628380D01*
X8700320D01*
X8122920Y3994417D02*
X8124190Y3995687D01*
Y4047490D01*
X8125460Y4048760D01*
X8228330Y3998512D02*
X8229600Y3997242D01*
X8228330Y3998512D02*
Y4047490D01*
X8227060Y4048760D02*
X8228330Y4047490D01*
X8548370Y3998512D02*
Y4047490D01*
X8547100Y4048760D02*
X8548370Y4047490D01*
Y3998512D02*
X8549640Y3997242D01*
X8441690Y3998512D02*
Y4047490D01*
X8440420Y4048760D02*
X8441690Y4047490D01*
Y3998512D02*
X8442960Y3997242D01*
X8834804Y3528060D02*
X8884920D01*
X8836074Y3100070D02*
X8881110D01*
X8834804Y3101340D02*
X8836074Y3100070D01*
X8881110D02*
X8882380Y3098800D01*
X8834804Y3208020D02*
X8882380D01*
X8542840Y2864300D02*
X8628380D01*
X8798380Y2654300D02*
Y2740840D01*
X8710975Y2650534D02*
X8719855D01*
X8723620Y2654300D01*
X8798380D01*
X8628380Y2864300D02*
X8703140D01*
X7944840Y3588680D02*
X7945000Y3588520D01*
X7991517D01*
X7991811Y3588227D01*
X7944840Y3388680D02*
X8224840D01*
X8244840Y3408680D01*
X7944840Y3428680D02*
X8224840D01*
X7712880Y2818300D02*
X7762240D01*
X8122920Y2086877D02*
Y2141220D01*
X8229600Y2089702D02*
Y2141220D01*
X8336280Y2089702D02*
Y2141220D01*
X8442960Y2089702D02*
Y2141220D01*
X8549640Y2089702D02*
Y2141220D01*
X7944840Y1521140D02*
X8224840D01*
X8244840Y1501140D01*
X8224840Y1481140D02*
X8244840Y1501140D01*
X7944840Y1481140D02*
X8224840D01*
X8275588Y2035853D02*
X8279353Y2039619D01*
X8265752Y2035853D02*
X8275588D01*
X8744804Y1300480D02*
X8745012Y1300272D01*
X7865110Y3072130D02*
X7867650Y3069590D01*
X7839666Y1692954D02*
X7891320Y1641300D01*
X7944680D01*
X7944840Y1641140D01*
X7839666Y1692954D02*
Y1729378D01*
X7835900Y1733144D02*
X7839666Y1729378D01*
X7739380Y1739900D02*
X7823819D01*
X7843060Y5862320D02*
Y5989320D01*
Y3931920D02*
Y4058920D01*
Y3931920D02*
X7901092D01*
X7912688Y3920324D02*
X8003154D01*
X7901092Y3931920D02*
X7912688Y3920324D01*
X8003154D02*
X8016240Y3907238D01*
X7843060Y2024380D02*
Y2151380D01*
X7991559Y2024380D02*
X8016240Y1999698D01*
X7843060Y2024380D02*
X7991559D01*
X8016240Y1999698D02*
X8062680D01*
X7876540Y1363980D02*
X7879220Y1361300D01*
X7944680D01*
X7944840Y1361140D01*
X7736882Y1272540D02*
X7738355Y1271068D01*
X7874625D01*
X7876098Y1269595D01*
X8304813Y1002313D02*
X8306367Y1000760D01*
X8304840Y1055680D02*
Y1201140D01*
X8303260Y1054100D02*
X8304813Y1052547D01*
X8303260Y1054100D02*
X8304840Y1055680D01*
X8304813Y1002313D02*
Y1052547D01*
X8185000Y1056640D02*
Y1200980D01*
Y1004720D02*
Y1056640D01*
X8745012Y1145748D02*
Y1193592D01*
Y1145748D02*
X8745220Y1145540D01*
X8745012Y1252428D02*
X8745220Y1252220D01*
X8745012Y1252428D02*
Y1300272D01*
X8744804Y1574080D02*
Y1620520D01*
X8442960Y1999702D02*
X8489400D01*
X8181340Y2959100D02*
X8184680Y2962440D01*
X8181340Y2959100D02*
X8185106Y2955334D01*
X8184680Y2962440D02*
Y3108520D01*
X8185106Y2912154D02*
Y2955334D01*
Y2912154D02*
X8188960Y2908300D01*
X8305523Y2909143D02*
X8306367Y2908300D01*
X8304680Y2963060D02*
X8305523Y2962217D01*
Y2909143D02*
Y2962217D01*
X8184680Y3108520D02*
X8184840Y3108680D01*
X8304680Y3108520D02*
X8304840Y3108680D01*
X8304680Y2963060D02*
Y3108520D01*
X7736879Y3073400D02*
X7738149Y3072130D01*
X7865110D01*
X7739419Y3182620D02*
X7863840D01*
X7866380Y3185160D01*
X7736879Y3180080D02*
X7739419Y3182620D01*
X7863657Y3269000D02*
X7863977Y3268680D01*
X7944840D01*
X7739382Y3286760D02*
X7745776Y3280366D01*
X7782775D02*
X7786540Y3276600D01*
X7745776Y3280366D02*
X7782775D01*
X7739380Y3647440D02*
X7740858Y3645962D01*
X8425000Y1201300D02*
Y1263794D01*
Y3108840D02*
Y3171334D01*
X8745012Y3050748D02*
X8745220Y3050540D01*
X8744804Y3101340D02*
X8745012Y3101132D01*
Y3050748D02*
Y3101132D01*
Y3159968D02*
Y3207812D01*
Y3159968D02*
X8745220Y3159760D01*
X8336280Y3827780D02*
Y3907242D01*
X8442960D02*
X8489027D01*
X8229600D02*
X8276040D01*
X8834804Y3634740D02*
X8887460D01*
X8417880Y3632520D02*
Y3632783D01*
X7843060Y2278380D02*
X7844330Y2277110D01*
X7936230D01*
X7937500Y2275840D01*
X7843060Y2405380D02*
X7937500D01*
X8744804Y5412020D02*
Y5458460D01*
X8305800Y4897120D02*
X8306083Y4896837D01*
X8305000Y4897920D02*
X8305800Y4897120D01*
X7733904Y5476636D02*
Y5522357D01*
X7731761Y5524500D02*
X7733904Y5522357D01*
Y5476636D02*
X7739380Y5471160D01*
X7738152Y5005070D02*
X7872730D01*
X7874000Y5006340D01*
X7736882Y5003800D02*
X7738152Y5005070D01*
X7739686Y5110480D02*
X7875425D01*
X7738284Y5111882D02*
X7739686Y5110480D01*
X8183880Y4843780D02*
Y4899660D01*
Y4843780D02*
X8188960Y4838700D01*
X8183880Y4899660D02*
X8185000Y4900780D01*
Y5038920D01*
X8184840Y5039080D02*
X8185000Y5038920D01*
X8306083Y4838983D02*
Y4896837D01*
X8305000Y4897920D02*
Y5038920D01*
X8306083Y4838983D02*
X8306367Y4838700D01*
X8304840Y5039080D02*
X8305000Y5038920D01*
X8743624Y5139600D02*
X8744804Y5138420D01*
X8743624Y5139600D02*
Y5183708D01*
X8743742Y5032802D02*
X8744804Y5031740D01*
X8742680Y5080000D02*
X8743742Y5078938D01*
Y5032802D02*
Y5078938D01*
X8607815Y5524500D02*
X8613140D01*
X8602555Y5519240D02*
X8607815Y5524500D01*
X8545000Y5519240D02*
X8602555D01*
X8544840Y5519080D02*
X8545000Y5519240D01*
X8442960Y5837642D02*
X8489400D01*
X8331200Y5252720D02*
X8425180D01*
X8424840Y5039080D02*
X8425000Y5039240D01*
Y5101734D02*
X8425303Y5102037D01*
X7594600Y1633220D02*
X7649380D01*
X7762240Y871220D02*
Y910038D01*
X8188960Y863600D02*
Y910760D01*
X8306367Y865574D02*
Y910760D01*
X8435701Y701401D02*
X8485779D01*
X8486140Y701762D01*
X8435340Y701040D02*
X8435701Y701401D01*
X8486140Y1000038D02*
Y1038860D01*
X8834804Y1193800D02*
X8887460D01*
X8834804Y1300480D02*
X8872220D01*
X8834804Y1620520D02*
X8879840D01*
X8834804Y1727200D02*
X8884920D01*
X8336280Y3997242D02*
Y4048760D01*
X8446222Y2609302D02*
X8486140D01*
Y2880360D02*
Y2907578D01*
X8306367Y2770574D02*
Y2818300D01*
X8188960Y2786380D02*
Y2818300D01*
X7762240Y2778760D02*
Y2818300D01*
X7736840Y3395980D02*
X7739380Y3393440D01*
X7712160Y3395980D02*
X7736840D01*
X7709620Y3398520D02*
X7712160Y3395980D01*
X8144840Y1801140D02*
X8145000Y1801300D01*
X8184840Y1201140D02*
X8185000Y1200980D01*
Y1004720D02*
X8188960Y1000760D01*
X8834804Y5565140D02*
X8887460D01*
X8544840Y3588680D02*
X8626712D01*
X7944990Y5199230D02*
X8008470D01*
X7944840Y5199080D02*
X7944990Y5199230D01*
X8008470D02*
X8008620Y5199380D01*
D11*
X8074660Y5840007D02*
G03*
X8053871Y5890008I-70980J-190D01*
G01*
X8074661Y5839817D02*
G03*
X8074660Y5840007I-70980J-0D01*
G01*
X8049750Y5743430D02*
G03*
X8074660Y5803568I-60138J60138D01*
G01*
X8049695Y5743375D02*
G03*
X8024840Y5683292I60193J-60083D01*
G01*
X8049750Y5743430D02*
G03*
X8049695Y5743375I60138J-60138D01*
G01*
X7929244Y5103484D02*
G03*
X7935692Y5119080I-15638J15596D01*
G01*
X7929223Y5103463D02*
G03*
X7929244Y5103484I-15617J15617D01*
G01*
X7849259Y5054600D02*
G03*
X7902307Y5076546I0J75086D01*
G01*
D02*
G03*
X7902353Y5076592I-53048J53140D01*
G01*
X7731760Y5054600D02*
G03*
X7682121Y5034039I0J-70200D01*
G01*
X7990954Y4958559D02*
G03*
X8023930Y5038169I-79610J79610D01*
G01*
X7853595Y3126740D02*
G03*
X7903584Y3147424I0J70750D01*
G01*
D02*
G03*
X7903623Y3147462I-49989J50067D01*
G01*
X7679271Y3100785D02*
G03*
X7678549Y3100070I63665J-65101D01*
G01*
X7742936Y3126740D02*
G03*
X7679271Y3100785I0J-91057D01*
G01*
X362712Y6745750D02*
G03*
X331841Y6820280I-105402J0D01*
G01*
X289165Y6451713D02*
G03*
X362712Y6629400I-177869J177687D01*
G01*
X289074Y6451622D02*
G03*
X289165Y6451713I-177778J177778D01*
G01*
X173257Y6335805D02*
G03*
X98862Y6156200I179605J-179605D01*
G01*
X198120Y5309534D02*
G03*
X148549Y5429291I-169444J0D01*
G01*
D02*
G03*
X148491Y5429349I-119873J-119757D01*
G01*
X98862Y5549164D02*
G03*
X148491Y5429349I169443J0D01*
G01*
X198120Y4994743D02*
G03*
X272515Y4815138I254000J0D01*
G01*
X426720Y4569357D02*
G03*
X361967Y4725686I-221082J0D01*
G01*
X491166Y4207186D02*
G03*
X646752Y4142740I155586J155586D01*
G01*
X491078Y4207274D02*
G03*
X491166Y4207186I155675J155499D01*
G01*
X426720Y4362773D02*
G03*
X491078Y4207274I220033J0D01*
G01*
X7323890Y4399280D02*
G03*
X7144285Y4324885I0J-254000D01*
G01*
X6856930Y4142740D02*
G03*
X7036535Y4217135I0J254000D01*
G01*
X8900160Y4495800D02*
G03*
X8944700Y4603330I-107530J107530D01*
G01*
X8698430Y4399280D02*
G03*
X8878035Y4473675I0J254000D01*
G01*
X5987477Y6538657D02*
G03*
X5987496Y6538676I-46275J46313D01*
G01*
X5941202Y6519500D02*
G03*
X5987477Y6538657I0J65470D01*
G01*
X6006733Y6557913D02*
G03*
X6045022Y6650439I-92649J92526D01*
G01*
X6006672Y6557851D02*
G03*
X6006733Y6557913I-92587J92587D01*
G01*
X5811595Y6519575D02*
G03*
X5855005Y6624482I-105057J104906D01*
G01*
X5811520Y6519500D02*
G03*
X5811595Y6519575I-104982J104982D01*
G01*
X5840069Y7223151D02*
G03*
X5815025Y7162691I60460J-60460D01*
G01*
X5744442Y7074733D02*
G03*
X5752175Y7081073I-34316J49745D01*
G01*
X5752535Y7081422D02*
G03*
X5752596Y7081483I-12517J12627D01*
G01*
X5752360Y7081252D02*
G03*
X5752535Y7081422I-12342J12798D01*
G01*
X5752858Y7081745D02*
G03*
X5768178Y7118732I-36986J36986D01*
G01*
X5794929Y7286589D02*
G03*
X5768178Y7222006I64583J-64583D01*
G01*
X8074660Y5803568D02*
Y5839817D01*
X8074661D02*
X8122920D01*
X8016240Y5927638D02*
X8053871Y5890008D01*
X8024840Y5639080D02*
Y5683292D01*
X7935692Y5119080D02*
X7944840D01*
X7929223Y5103463D02*
X7929244Y5103484D01*
X7902353Y5076592D02*
X7929223Y5103463D01*
X7731760Y5054600D02*
X7849259D01*
X7651882Y5003800D02*
X7682121Y5034039D01*
X7868920Y4836525D02*
X7990954Y4958559D01*
X7903623Y3147462D02*
X7944840Y3188680D01*
X7742936Y3126740D02*
X7853595D01*
X7651879Y3073400D02*
X7678549Y3100070D01*
X362712Y6629400D02*
Y6745750D01*
X300969Y6851152D02*
X331841Y6820280D01*
X173257Y6335805D02*
X289074Y6451622D01*
X98862Y5549164D02*
Y6156200D01*
X198120Y4994743D02*
Y5309534D01*
X272515Y4815138D02*
X361967Y4725686D01*
X426720Y4362773D02*
Y4569357D01*
X646752Y4142740D02*
X6856930D01*
X7036535Y4217135D02*
X7144285Y4324885D01*
X7323890Y4399280D02*
X8698430D01*
X8878035Y4473675D02*
X8900160Y4495800D01*
X8944700Y4603330D02*
Y5088605D01*
X264158Y6851152D02*
X300969D01*
X5923280Y6519500D02*
X5941202D01*
X5987496Y6538676D02*
X6006672Y6557851D01*
X6045022Y6650439D02*
Y6744030D01*
X5855005Y6624482D02*
Y6704025D01*
X5815025Y7144055D02*
Y7162691D01*
X5840069Y7223151D02*
X5930900Y7313983D01*
X5752175Y7081073D02*
X5752360Y7081252D01*
X5752596Y7081483D02*
X5752858Y7081745D01*
X5732398Y7066425D02*
X5744442Y7074733D01*
X5710125Y7064045D02*
X5732398Y7066425D01*
X5705018Y7064045D02*
X5710125D01*
X5768178Y7118732D02*
Y7222006D01*
X5794929Y7286589D02*
X5821680Y7313340D01*
X5705018Y7305898D02*
X5712460Y7313340D01*
X5705018Y7104050D02*
Y7305898D01*
X7651879Y3228680D02*
X7944840D01*
X7651879D02*
Y3284263D01*
Y3180080D02*
Y3228680D01*
X7649382Y3286760D02*
X7651879Y3284263D01*
X7652272Y5124972D02*
X7659323Y5117921D01*
X7653020Y5159080D02*
X7944840D01*
X7653020D02*
Y5213524D01*
Y5125720D02*
Y5159080D01*
X7649384Y5217160D02*
X7653020Y5213524D01*
X7649384Y5217160D02*
Y5227788D01*
X8023930Y5038169D02*
X8024840Y5039080D01*
D12*
X164432Y6510020D02*
G03*
X234949Y6539229I0J99726D01*
G01*
X235021Y6539301D02*
G03*
X264158Y6609745I-70588J70444D01*
G01*
X234949Y6539229D02*
G03*
X235021Y6539301I-70516J70516D01*
G01*
X187416Y7441957D02*
G03*
X160133Y7421313I60883J-108811D01*
G01*
X248299Y7457832D02*
G03*
X187416Y7441957I0J-124686D01*
G01*
X193953Y1854087D02*
G03*
X135887Y1830067I0J-82192D01*
G01*
X135834Y1830014D02*
G03*
X111760Y1771894I58120J-58120D01*
G01*
X135887Y1830067D02*
G03*
X135834Y1830014I58065J-58172D01*
G01*
X241778Y3734281D02*
G03*
X264158Y3788310I-54030J54029D01*
G01*
X168675Y3704000D02*
G03*
X241778Y3734280I0J103383D01*
G01*
X124060Y4605590D02*
G03*
X111760Y4566240I56795J-39350D01*
G01*
X131997Y4615097D02*
G03*
X124060Y4605590I48857J-48857D01*
G01*
X176690Y4637990D02*
G03*
X139509Y4622609I0J-52630D01*
G01*
D02*
G03*
X139475Y4622575I37181J-37249D01*
G01*
X111760Y6510020D02*
X164432D01*
X264158Y6609745D02*
Y6661152D01*
X111760Y7372940D02*
X160133Y7421313D01*
X111760Y1751920D02*
Y1771894D01*
X193953Y1854087D02*
X264174D01*
X111760Y3704000D02*
X168675D01*
X264158Y3788310D02*
Y3855802D01*
X131997Y4615097D02*
X139475Y4622575D01*
X176690Y4637990D02*
X233806D01*
X264174Y4668357D01*
X8044663Y7293287D02*
X8186204D01*
X8303260Y7292340D02*
X8354060D01*
X8187796Y7291695D02*
X8188119Y7292017D01*
X8302937D01*
X8303260Y7292340D01*
X8186204Y7293287D02*
X8187796Y7291695D01*
X8043070Y7294880D02*
X8044663Y7293287D01*
X8126570Y6560820D02*
X8126812Y6560578D01*
X8211826D02*
X8212068Y6560337D01*
X8126812Y6560578D02*
X8211826D01*
X8043070Y6560820D02*
X8126570D01*
X7914640Y6563360D02*
X7960360D01*
X7961630Y6562090D01*
X8041800D02*
X8043070Y6560820D01*
X7961630Y6562090D02*
X8041800D01*
X111760Y7241540D02*
Y7287940D01*
D13*
X8048434Y3983903D02*
G03*
X8016240Y3997238I-32194J-32194D01*
G01*
X8041911Y3828407D02*
G03*
X8024840Y3787140I41347J-41267D01*
G01*
X8041950Y3828447D02*
G03*
X8041911Y3828407I41307J-41307D01*
G01*
X8226237Y3710178D02*
G03*
X8233392Y3729325I-22042J19147D01*
G01*
X8224872Y3708712D02*
G03*
X8226237Y3710178I-20677J20613D01*
G01*
X8224840Y3708680D02*
G03*
X8224872Y3708712I-20645J20645D01*
G01*
X7991865Y3029070D02*
G03*
X8024840Y3108680I-79610J79610D01*
G01*
X7849150Y1216660D02*
G03*
X7902430Y1238729I0J75349D01*
G01*
X7677339Y1191317D02*
G03*
X7677282Y1191260I61264J-61378D01*
G01*
X7738603Y1216660D02*
G03*
X7677339Y1191317I0J-86721D01*
G01*
X7999548Y1129212D02*
G03*
X8024840Y1190275I-61062J61062D01*
G01*
X8224840Y1801140D02*
G03*
X8233040Y1820937I-19797J19797D01*
G01*
X8120404Y1924997D02*
G03*
X8104840Y1887423I37574J-37574D01*
G01*
X8043714Y1922670D02*
G03*
X8024840Y1877060I45676J-45610D01*
G01*
X8043746Y1922703D02*
G03*
X8043714Y1922670I45643J-45643D01*
G01*
X8048328Y2076407D02*
G03*
X8016240Y2089698I-32088J-32088D01*
G01*
X8048434Y3983903D02*
X8122920Y3909417D01*
X8024840Y3708680D02*
Y3787140D01*
X8041950Y3828447D02*
X8122920Y3909417D01*
X8233392Y3729325D02*
Y3808320D01*
X7868920Y2906125D02*
X7991865Y3029069D01*
X7902430Y1238729D02*
X7924499Y1260799D01*
X7738603Y1216660D02*
X7849150D01*
X7651882Y1165860D02*
X7677282Y1191260D01*
X7868920Y998585D02*
X7999548Y1129212D01*
X8024840Y1190275D02*
Y1201140D01*
X8233040Y1820937D02*
Y1898357D01*
X8120404Y1924997D02*
X8135967Y1940560D01*
X8104840Y1801140D02*
Y1887423D01*
X8024840Y1801140D02*
Y1877060D01*
X8043746Y1922703D02*
X8122920Y2001877D01*
X8048328Y2076407D02*
X8122859Y2001877D01*
X8185792Y5640031D02*
Y5678812D01*
X7977697Y5606100D02*
X7985084D01*
X8003615Y5587570D01*
X8040306D01*
X8224840Y5592946D02*
Y5639080D01*
X8185792Y5678812D02*
X8221980Y5715000D01*
X8184840Y5639080D02*
X8185792Y5640031D01*
X8040306Y5587570D02*
X8064840Y5612104D01*
Y5639080D01*
X8103444Y5640477D02*
Y5713537D01*
X8101980Y5715000D02*
X8103444Y5713537D01*
Y5640477D02*
X8104840Y5639080D01*
X7942580Y6243320D02*
X7945120Y6240780D01*
X7843060Y6243320D02*
X7942580D01*
X7843060Y6116320D02*
X7950200D01*
X7343060Y5989320D02*
X7421880D01*
X7510780Y5862320D02*
X7513320Y5859780D01*
X7345867Y5862320D02*
X7510780D01*
X7343060D02*
Y5865127D01*
X7345867Y5862320D01*
X7924499Y1277768D02*
X7927871Y1281140D01*
X7944840D01*
X7924499Y1260799D02*
Y1277768D01*
X7651882Y1324631D02*
Y1376722D01*
Y1272540D02*
Y1324631D01*
X7655373Y1321140D01*
X7944840D01*
X7649384Y1379220D02*
X7651882Y1376722D01*
X8064365Y1801615D02*
Y1868965D01*
Y1801615D02*
X8064840Y1801140D01*
X8101980Y3813400D02*
X8104840Y3810540D01*
Y3708680D02*
Y3810540D01*
X7586980Y3545840D02*
X7644300D01*
X7649380Y3540760D01*
X7586796Y3647440D02*
X7649380D01*
X7585470Y3646114D02*
X7586796Y3647440D01*
X7433310Y4311650D02*
X7434580Y4310380D01*
X7343060Y4312920D02*
X7344330Y4311650D01*
X7433310D01*
X8186237Y1802537D02*
Y1869604D01*
X8187860Y1871227D01*
X8184840Y1801140D02*
X8186237Y1802537D01*
Y3780597D02*
X8187700Y3782060D01*
X8186237Y3710077D02*
Y3780597D01*
X8184840Y3708680D02*
X8186237Y3710077D01*
X8063890Y3776980D02*
X8064365Y3776505D01*
Y3709155D02*
Y3776505D01*
Y3709155D02*
X8064840Y3708680D01*
X7920790Y4168284D02*
X7929737D01*
X7934960Y4163060D01*
X7843060Y4185920D02*
X7903154D01*
X7920790Y4168284D01*
X7843060Y4312920D02*
X7848140Y4307840D01*
X7924800D01*
X7929880Y4302760D01*
X7343060Y3931920D02*
X7447280D01*
X7343060Y4058920D02*
X7442200D01*
D14*
X8917940Y5324790D02*
G03*
X8905447Y5319615I0J-17669D01*
G01*
X8903830Y5317999D02*
G03*
X8903860Y5318028I-16294J16353D01*
G01*
X8887536Y5311267D02*
G03*
X8903830Y5317999I0J23085D01*
G01*
X8857121Y5315061D02*
G03*
X8866281Y5311267I9160J9160D01*
G01*
X8853327Y5324222D02*
G03*
X8857121Y5315061I12955J0D01*
G01*
X8848259Y5338324D02*
G03*
X8848235Y5338349I-12317J-12268D01*
G01*
X8853327Y5326056D02*
G03*
X8848259Y5338324I-17384J0D01*
G01*
X8905447Y5277265D02*
G03*
X8917940Y5272090I12494J12494D01*
G01*
X8903830Y5278881D02*
G03*
X8887536Y5285613I-16294J-16353D01*
G01*
X8903860Y5278852D02*
G03*
X8903830Y5278881I-16324J-16324D01*
G01*
X8866281Y5285613D02*
G03*
X8857121Y5281819I0J-12955D01*
G01*
D02*
G03*
X8853327Y5272658I9160J-9160D01*
G01*
X8848259Y5258556D02*
G03*
X8853327Y5270824I-12317J12268D01*
G01*
X8848235Y5258531D02*
G03*
X8848259Y5258556I-12292J12292D01*
G01*
X8917940Y3394390D02*
G03*
X8905447Y3389215I0J-17669D01*
G01*
X8903830Y3387599D02*
G03*
X8903860Y3387628I-16294J16353D01*
G01*
X8887536Y3380867D02*
G03*
X8903830Y3387599I0J23085D01*
G01*
X8857121Y3384661D02*
G03*
X8866281Y3380867I9160J9160D01*
G01*
X8853327Y3393822D02*
G03*
X8857121Y3384661I12955J0D01*
G01*
X8848259Y3407924D02*
G03*
X8848235Y3407949I-12317J-12268D01*
G01*
X8853327Y3395656D02*
G03*
X8848259Y3407924I-17384J0D01*
G01*
X8905447Y3346865D02*
G03*
X8917940Y3341690I12494J12494D01*
G01*
X8903830Y3348481D02*
G03*
X8887536Y3355213I-16294J-16353D01*
G01*
X8903860Y3348452D02*
G03*
X8903830Y3348481I-16324J-16324D01*
G01*
X8866281Y3355213D02*
G03*
X8857121Y3351419I0J-12955D01*
G01*
D02*
G03*
X8853327Y3342258I9160J-9160D01*
G01*
X8848259Y3328156D02*
G03*
X8853327Y3340424I-12317J12268D01*
G01*
X8848235Y3328131D02*
G03*
X8848259Y3328156I-12292J12292D01*
G01*
X8917940Y1486850D02*
G03*
X8905447Y1481675I0J-17669D01*
G01*
X8903830Y1480059D02*
G03*
X8903860Y1480088I-16294J16353D01*
G01*
X8887536Y1473327D02*
G03*
X8903830Y1480059I0J23085D01*
G01*
X8857121Y1477121D02*
G03*
X8866281Y1473327I9160J9160D01*
G01*
X8853327Y1486282D02*
G03*
X8857121Y1477121I12955J0D01*
G01*
X8848259Y1500384D02*
G03*
X8848235Y1500409I-12317J-12268D01*
G01*
X8853327Y1488116D02*
G03*
X8848259Y1500384I-17384J0D01*
G01*
X8905447Y1439325D02*
G03*
X8917940Y1434150I12494J12494D01*
G01*
X8903830Y1440941D02*
G03*
X8887536Y1447673I-16294J-16353D01*
G01*
X8903860Y1440912D02*
G03*
X8903830Y1440941I-16324J-16324D01*
G01*
X8866281Y1447673D02*
G03*
X8857121Y1443879I0J-12955D01*
G01*
D02*
G03*
X8853327Y1434718I9160J-9160D01*
G01*
X8848259Y1420616D02*
G03*
X8853327Y1432884I-12317J12268D01*
G01*
X8848235Y1420591D02*
G03*
X8848259Y1420616I-12292J12292D01*
G01*
X6087688Y7121690D02*
G03*
X6087700Y7121702I-42666J42689D01*
G01*
X6045022Y7104024D02*
G03*
X6087688Y7121690I0J60355D01*
G01*
X6124238Y7158240D02*
G03*
X6124220Y7158222I31035J-31070D01*
G01*
X6135432Y7166347D02*
G03*
X6124238Y7158240I19840J-39178D01*
G01*
X6155273Y7171085D02*
G03*
X6135432Y7166347I0J-43915D01*
G01*
X8529268Y1721140D02*
G03*
X8525339Y1719512I0J-5556D01*
G01*
D02*
G03*
X8523711Y1715584I3929J-3929D01*
G01*
X8514133Y1707158D02*
G03*
X8523711Y1716280I-2892J12627D01*
G01*
X8473234Y1702315D02*
G03*
X8460740Y1707490I-12494J-12494D01*
G01*
X8474850Y1700699D02*
G03*
X8491144Y1693967I16294J16353D01*
G01*
X8499596Y1663826D02*
G03*
X8496461Y1666426I-9733J-8549D01*
G01*
X8491144Y1668313D02*
G03*
X8474850Y1661581I0J-23085D01*
G01*
X8523711Y1646696D02*
G03*
X8525339Y1642767I5556J0D01*
G01*
D02*
G03*
X8529268Y1641140I3929J3929D01*
G01*
X8499620Y1663800D02*
G03*
X8514055Y1655139I20220J17340D01*
G01*
X8460740Y1654790D02*
G03*
X8473234Y1659965I0J17669D01*
G01*
X8523711Y1646000D02*
G03*
X8514055Y1655139I-12471J-3506D01*
G01*
X8474820Y1700728D02*
G03*
X8474850Y1700699I16324J16324D01*
G01*
X8514133Y1707158D02*
G03*
X8499622Y1698482I5707J-26018D01*
G01*
X8496460Y1695853D02*
G03*
X8499622Y1698482I-6597J11149D01*
G01*
X8495333Y1695259D02*
G03*
X8496460Y1695853I-5469J11743D01*
G01*
X8496461Y1666426D02*
G03*
X8493021Y1667841I-6598J-11148D01*
G01*
X8474850Y1661581D02*
G03*
X8474820Y1661551I16294J-16353D01*
G01*
X5685092Y6864045D02*
G03*
X5676430Y6860457I0J-12249D01*
G01*
X5692268Y6864045D02*
G03*
X5683606Y6860457I0J-12249D01*
G01*
X5674944Y6856870D02*
G03*
X5683606Y6860457I0J12249D01*
G01*
X5667769Y6856870D02*
G03*
X5676430Y6860457I0J12249D01*
G01*
X4870631Y6835984D02*
G03*
X4857615Y6830593I0J-18407D01*
G01*
X4844599Y6825202D02*
G03*
X4857615Y6830593I0J18407D01*
G01*
X4797551Y6825202D02*
G03*
X4767390Y6814419I0J-47573D01*
G01*
D02*
G03*
X4763912Y6811268I30161J-36790D01*
G01*
X4741607Y6820754D02*
G03*
X4745497Y6811364I13280J0D01*
G01*
X4754752Y6807474D02*
G03*
X4763912Y6811268I0J12954D01*
G01*
X4745592D02*
G03*
X4754752Y6807474I9160J9160D01*
G01*
X4741467Y6829283D02*
G03*
X4736432Y6839552I-17527J-2224D01*
G01*
X4741607Y6827059D02*
G03*
X4741467Y6829283I-17668J0D01*
G01*
X5683606Y6827628D02*
G03*
X5674944Y6831216I-8662J-8662D01*
G01*
X5676430Y6827628D02*
G03*
X5685092Y6824040I8662J8662D01*
G01*
X5683606Y6827628D02*
G03*
X5692268Y6824040I8662J8662D01*
G01*
X4881257Y6810330D02*
G03*
X4868241Y6804939I0J-18407D01*
G01*
X4855225Y6799548D02*
G03*
X4868241Y6804939I0J18407D01*
G01*
X4801008Y6799548D02*
G03*
X4779608Y6790684I0J-30264D01*
G01*
X4777499Y6788765D02*
G03*
X4779608Y6790684I-19290J23318D01*
G01*
X4731114Y6789466D02*
G03*
X4749574Y6781820I18461J18461D01*
G01*
X4731114Y6789466D02*
G03*
X4712654Y6797113I-18460J-18460D01*
G01*
X4758209Y6781820D02*
G03*
X4777499Y6788765I0J30263D01*
G01*
X4699168Y6802288D02*
G03*
X4711661Y6797113I12493J12493D01*
G01*
X8497676Y5535048D02*
G03*
X8499406Y5536787I-8278J9964D01*
G01*
X8497666Y5535039D02*
G03*
X8497676Y5535048I-8267J9973D01*
G01*
X8514412Y5546058D02*
G03*
X8523991Y5555180I-2892J12627D01*
G01*
X8473234Y5540255D02*
G03*
X8460740Y5545430I-12494J-12494D01*
G01*
X8474820Y5538668D02*
G03*
X8491144Y5531907I16324J16324D01*
G01*
X8525386Y5558165D02*
G03*
X8523991Y5554484I4162J-3681D01*
G01*
X8525618Y5558413D02*
G03*
X8525386Y5558165I3929J-3929D01*
G01*
X8529547Y5560040D02*
G03*
X8525618Y5558413I0J-5556D01*
G01*
X8523991Y5484900D02*
G03*
X8514335Y5494039I-12471J-3506D01*
G01*
X8500468Y5502059D02*
G03*
X8491470Y5506239I-9541J-8763D01*
G01*
X8460740Y5492730D02*
G03*
X8473234Y5497905I0J17669D01*
G01*
X8491144Y5506253D02*
G03*
X8474820Y5499491I0J-23085D01*
G01*
X8523991Y5485596D02*
G03*
X8525618Y5481667I5556J0D01*
G01*
D02*
G03*
X8529547Y5480040I3929J3929D01*
G01*
X8514412Y5546058D02*
G03*
X8499406Y5536787I5707J-26018D01*
G01*
X8500468Y5502059D02*
G03*
X8514335Y5494039I19652J17981D01*
G01*
X8496460Y3603393D02*
G03*
X8499622Y3606022I-6597J11149D01*
G01*
X8495333Y3602799D02*
G03*
X8496460Y3603393I-5469J11743D01*
G01*
X8514133Y3614698D02*
G03*
X8523711Y3623820I-2892J12627D01*
G01*
X8473234Y3609855D02*
G03*
X8460740Y3615030I-12494J-12494D01*
G01*
X8474850Y3608239D02*
G03*
X8491144Y3601507I16294J16353D01*
G01*
X8474820Y3608268D02*
G03*
X8474850Y3608239I16324J16324D01*
G01*
X8525339Y3627052D02*
G03*
X8523711Y3623124I3929J-3929D01*
G01*
X8529268Y3628680D02*
G03*
X8525339Y3627052I0J-5556D01*
G01*
X8523711Y3553540D02*
G03*
X8514055Y3562679I-12471J-3506D01*
G01*
X8499620Y3571340D02*
G03*
X8514055Y3562679I20220J17340D01*
G01*
X8496461Y3573966D02*
G03*
X8493021Y3575381I-6598J-11148D01*
G01*
X8499596Y3571366D02*
G03*
X8496461Y3573966I-9733J-8549D01*
G01*
X8460740Y3562330D02*
G03*
X8473234Y3567505I0J17669D01*
G01*
X8474850Y3569121D02*
G03*
X8474820Y3569091I16294J-16353D01*
G01*
X8491144Y3575853D02*
G03*
X8474850Y3569121I0J-23085D01*
G01*
X8523711Y3554236D02*
G03*
X8525339Y3550307I5556J0D01*
G01*
D02*
G03*
X8529268Y3548680I3929J3929D01*
G01*
X8514133Y3614698D02*
G03*
X8499622Y3606022I5707J-26018D01*
G01*
X8027311Y6660820D02*
G03*
X8023059Y6659059I0J-6014D01*
G01*
X8021286Y6656224D02*
G03*
X8021297Y6656235I-18309J18331D01*
G01*
X8002977Y6648647D02*
G03*
X8021286Y6656224I0J25909D01*
G01*
X6223046Y7477714D02*
G03*
X6223082Y7477678I17416J17416D01*
G01*
X6208670Y7455810D02*
G03*
X6167942Y7472680I-40728J-40729D01*
G01*
X5472175D02*
G03*
X5304338Y7403159I0J-237358D01*
G01*
X5470497Y7498334D02*
G03*
X5287384Y7422486I0J-258960D01*
G01*
X6223046Y7477714D02*
G03*
X6173265Y7498334I-49780J-49780D01*
G01*
X8742680Y7352660D02*
G03*
X8730186Y7347485I0J-17669D01*
G01*
X8711318Y7339137D02*
G03*
X8729263Y7346562I0J25398D01*
G01*
X8693373D02*
G03*
X8707543Y7339419I17945J17973D01*
G01*
X8343825Y7406894D02*
G03*
X8314653Y7394824I0J-41289D01*
G01*
X8654995Y7384940D02*
G03*
X8601994Y7406894I-53002J-53002D01*
G01*
X8285433Y7382707D02*
G03*
X8314630Y7394801I0J41290D01*
G01*
X8148354Y7390285D02*
G03*
X8166664Y7382707I18309J18331D01*
G01*
X8148343Y7390296D02*
G03*
X8148354Y7390285I18320J18320D01*
G01*
X8146582Y7393119D02*
G03*
X8142329Y7394880I-4253J-4253D01*
G01*
X8110811D02*
G03*
X8106559Y7393119I0J-6014D01*
G01*
X8104786Y7390285D02*
G03*
X8104797Y7390296I-18309J18331D01*
G01*
X8064830Y7391371D02*
G03*
X8056338Y7394880I-8492J-8519D01*
G01*
X8027311D02*
G03*
X8023059Y7393119I0J-6014D01*
G01*
X8064843Y7391357D02*
G03*
X8064830Y7391371I-8505J-8505D01*
G01*
X8068638Y7386501D02*
G03*
X8077798Y7382707I9160J9160D01*
G01*
X8086477D02*
G03*
X8104786Y7390285I0J25909D01*
G01*
X8021286D02*
G03*
X8021297Y7390296I-18309J18331D01*
G01*
X8002977Y7382707D02*
G03*
X8021286Y7390285I0J25909D01*
G01*
X6591493Y7382707D02*
G03*
X6407435Y7306595I0J-260606D01*
G01*
X6082250Y7056857D02*
G03*
X6210964Y7110124I0J182144D01*
G01*
X6073627Y7060415D02*
G03*
X6082250Y7056857I8623J8669D01*
G01*
X6073581Y7060461D02*
G03*
X6064958Y7064019I-8623J-8669D01*
G01*
X8730166Y7305155D02*
G03*
X8710033Y7313483I-20134J-20173D01*
G01*
X8644369Y7359286D02*
G03*
X8591367Y7381240I-53002J-53002D01*
G01*
X8343929D02*
G03*
X8332696Y7376587I0J-15886D01*
G01*
X8285537Y7357053D02*
G03*
X8332696Y7376587I0J66693D01*
G01*
X8697519Y7315145D02*
G03*
X8710033Y7313483I12514J46287D01*
G01*
X8166664Y7357053D02*
G03*
X8148354Y7349476I0J-25909D01*
G01*
X8104786D02*
G03*
X8086477Y7357053I-18309J-18331D01*
G01*
X8104797Y7349465D02*
G03*
X8104786Y7349476I-18320J-18320D01*
G01*
X8077798Y7357053D02*
G03*
X8068638Y7353259I0J-12955D01*
G01*
X8148354Y7349476D02*
G03*
X8148343Y7349465I18309J-18331D01*
G01*
X8021297D02*
G03*
X8021286Y7349476I-18320J-18320D01*
G01*
D02*
G03*
X8002977Y7357053I-18309J-18331D01*
G01*
X8064830Y7348389D02*
G03*
X8064843Y7348403I-8492J8519D01*
G01*
X8056338Y7344880D02*
G03*
X8064830Y7348389I0J12028D01*
G01*
X8023059Y7346641D02*
G03*
X8027311Y7344880I4253J4253D01*
G01*
X6591589Y7357053D02*
G03*
X6425290Y7288170I0J-235181D01*
G01*
X8142329Y7344880D02*
G03*
X8146582Y7346641I0J6014D01*
G01*
X8106559D02*
G03*
X8110811Y7344880I4253J4253D01*
G01*
X6082490Y7031203D02*
G03*
X6229015Y7091895I0J207218D01*
G01*
X6082250Y7031203D02*
G03*
X6073627Y7027644I0J-12228D01*
G01*
X6064958Y7024040D02*
G03*
X6073581Y7027598I0J12228D01*
G01*
X8707543Y7339419D02*
G03*
X8711318Y7339137I3775J25116D01*
G01*
X8314653Y7394824D02*
G03*
X8314630Y7394801I29172J-29219D01*
G01*
X6407435Y7306595D02*
G03*
X6407217Y7306378I184058J-184494D01*
G01*
X6210964Y7110124D02*
G03*
X6211045Y7110205I-128714J128877D01*
G01*
X6073604Y7060438D02*
G03*
X6073627Y7060415I8646J8646D01*
G01*
X6073604Y7060438D02*
G03*
X6073581Y7060461I-8646J-8646D01*
G01*
X8730186Y7305135D02*
G03*
X8730166Y7305155I-20153J-20153D01*
G01*
X8730186Y7305135D02*
G03*
X8742680Y7299960I12494J12494D01*
G01*
X8676128Y7327527D02*
G03*
X8697519Y7315145I33905J33905D01*
G01*
X6073627Y7027644D02*
G03*
X6073604Y7027621I8623J-8669D01*
G01*
X6073581Y7027598D02*
G03*
X6073604Y7027621I-8623J8669D01*
G01*
X8510460Y7044966D02*
G03*
X8458490Y7066492I-51970J-51971D01*
G01*
X8438140Y7066492D02*
G03*
X8397097Y7049552I0J-58189D01*
G01*
D02*
G03*
X8396994Y7049449I41043J-41249D01*
G01*
X8376713Y7040975D02*
G03*
X8396868Y7049323I0J28503D01*
G01*
X8523772Y6590112D02*
G03*
X8560580Y6677726I-88878J88878D01*
G01*
X8434573Y6552946D02*
G03*
X8523399Y6589739I0J125618D01*
G01*
X8376713Y7040975D02*
G03*
X8364220Y7035800I0J-17668D01*
G01*
X8269371Y6594710D02*
G03*
X8370301Y6552946I100930J101077D01*
G01*
X8269266Y6594814D02*
G03*
X8201193Y6622993I-68074J-68136D01*
G01*
X8077798D02*
G03*
X8068638Y6619199I0J-12955D01*
G01*
X8104786Y6615415D02*
G03*
X8086477Y6622993I-18309J-18331D01*
G01*
X8021286Y6615415D02*
G03*
X8002977Y6622993I-18309J-18331D01*
G01*
X8161298D02*
G03*
X8152138Y6619199I0J-12955D01*
G01*
X8104797Y6615404D02*
G03*
X8104786Y6615415I-18320J-18320D01*
G01*
X8021297Y6615404D02*
G03*
X8021286Y6615415I-18320J-18320D01*
G01*
X6082272Y6871195D02*
G03*
X6073610Y6867608I0J-12249D01*
G01*
X6223952Y6834188D02*
G03*
X6134609Y6871195I-89344J-89344D01*
G01*
X6064948Y6864020D02*
G03*
X6073610Y6867608I0J12249D01*
G01*
X6368166Y6689975D02*
G03*
X6529874Y6622993I161708J161708D01*
G01*
X8148330Y6614329D02*
G03*
X8148343Y6614343I-8492J8519D01*
G01*
X8139838Y6610820D02*
G03*
X8148330Y6614329I0J12028D01*
G01*
X8106559Y6612581D02*
G03*
X8110811Y6610820I4253J4253D01*
G01*
X8064830Y6614329D02*
G03*
X8064843Y6614343I-8492J8519D01*
G01*
X8056338Y6610820D02*
G03*
X8064830Y6614329I0J12028D01*
G01*
X8023059Y6612581D02*
G03*
X8027311Y6610820I4253J4253D01*
G01*
X8560586Y6954293D02*
G03*
X8531915Y7023510I-97889J0D01*
G01*
X8492446Y7026700D02*
G03*
X8458313Y7040838I-34132J-34133D01*
G01*
X8438318D02*
G03*
X8415008Y7031183I0J-32966D01*
G01*
D02*
G03*
X8406660Y7011028I20154J-20154D01*
G01*
X8434295Y6578600D02*
G03*
X8505406Y6608025I0J100637D01*
G01*
X8148343Y6657297D02*
G03*
X8148330Y6657311I-8505J-8505D01*
G01*
X8287197Y6613163D02*
G03*
X8201531Y6648647I-85666J-85666D01*
G01*
X8287198Y6613163D02*
G03*
X8370640Y6578600I83442J83442D01*
G01*
X8152138Y6652441D02*
G03*
X8161298Y6648647I9160J9160D01*
G01*
X8110811Y6660820D02*
G03*
X8106559Y6659059I0J-6014D01*
G01*
X8064830Y6657311D02*
G03*
X8056338Y6660820I-8492J-8519D01*
G01*
X8148330Y6657311D02*
G03*
X8139838Y6660820I-8492J-8519D01*
G01*
X6073610Y6900437D02*
G03*
X6064948Y6904025I-8662J-8662D01*
G01*
X6073610Y6900437D02*
G03*
X6082272Y6896849I8662J8662D01*
G01*
X6234578Y6859842D02*
G03*
X6145235Y6896849I-89343J-89343D01*
G01*
X8104786Y6656224D02*
G03*
X8104797Y6656235I-18309J18331D01*
G01*
X8086477Y6648647D02*
G03*
X8104786Y6656224I0J25909D01*
G01*
X8068638Y6652441D02*
G03*
X8077798Y6648647I9160J9160D01*
G01*
X8064843Y6657297D02*
G03*
X8064830Y6657311I-8505J-8505D01*
G01*
X6378849Y6715571D02*
G03*
X6540500Y6648647I161651J161766D01*
G01*
X8534932Y6954171D02*
G03*
X8513689Y7005457I-72529J0D01*
G01*
X8560580Y6677727D02*
G03*
X8560586Y6678990I-125686J1263D01*
G01*
X8269297Y6594783D02*
G03*
X8269371Y6594710I101004J101004D01*
G01*
X8269297Y6594783D02*
G03*
X8269266Y6594814I-68105J-68105D01*
G01*
X8505456Y6608076D02*
G03*
X8534932Y6679238I-71162J71162D01*
G01*
X8505406Y6608025D02*
G03*
X8505456Y6608076I-71111J71212D01*
G01*
X8401485Y6998535D02*
G03*
X8406660Y7011028I-12493J12493D01*
G01*
X6378791Y6715629D02*
G03*
X6378849Y6715571I161709J161709D01*
G01*
X8745278Y6767813D02*
G03*
X8695199Y6646909I120904J-120904D01*
G01*
X8666404Y6462404D02*
G03*
X8666461Y6462461I-69516J69516D01*
G01*
X8560604Y6418580D02*
G03*
X8666404Y6462404I0J149623D01*
G01*
X8219906Y6477254D02*
G03*
X8168258Y6498647I-51648J-51649D01*
G01*
X8148354Y6506225D02*
G03*
X8166664Y6498647I18309J18331D01*
G01*
X8253588Y6443572D02*
G03*
X8313958Y6418580I60370J60418D01*
G01*
X8253564Y6443596D02*
G03*
X8253588Y6443572I60394J60394D01*
G01*
X8064830Y6507311D02*
G03*
X8056338Y6510820I-8492J-8519D01*
G01*
X8027311D02*
G03*
X8023059Y6509059I0J-6014D01*
G01*
X8146582D02*
G03*
X8142329Y6510820I-4253J-4253D01*
G01*
X8110811D02*
G03*
X8106559Y6509059I0J-6014D01*
G01*
X6073610Y6820452D02*
G03*
X6064948Y6824040I-8662J-8662D01*
G01*
X6073610Y6820452D02*
G03*
X6082272Y6816865I8662J8662D01*
G01*
X6157474Y6796526D02*
G03*
X6108371Y6816865I-49103J-49103D01*
G01*
X8104786Y6506225D02*
G03*
X8104797Y6506236I-18309J18331D01*
G01*
X8148343D02*
G03*
X8148354Y6506225I18320J18320D01*
G01*
X8086477Y6498647D02*
G03*
X8104786Y6506225I0J25909D01*
G01*
X8068638Y6502441D02*
G03*
X8077798Y6498647I9160J9160D01*
G01*
X8064843Y6507297D02*
G03*
X8064830Y6507311I-8505J-8505D01*
G01*
X6395465Y6558534D02*
G03*
X6540046Y6498647I144580J144580D01*
G01*
X8021286Y6506225D02*
G03*
X8021297Y6506236I-18309J18331D01*
G01*
X8002977Y6498647D02*
G03*
X8021286Y6506225I0J25909D01*
G01*
X8793480Y6835140D02*
G03*
X8788306Y6822647I12493J-12493D01*
G01*
X8781557Y6804092D02*
G03*
X8788306Y6820403I-16337J16311D01*
G01*
X8781544Y6804079D02*
G03*
X8781557Y6804092I-16324J16324D01*
G01*
X8763586Y6749841D02*
G03*
X8720853Y6646584I103383J-103257D01*
G01*
X8684731Y6444451D02*
G03*
X8720852Y6531655I-87204J87204D01*
G01*
X8571231Y6392926D02*
G03*
X8677030Y6436749I0J149623D01*
G01*
X8235582Y6425298D02*
G03*
X8313735Y6392926I78153J78153D01*
G01*
X8166664Y6472993D02*
G03*
X8148354Y6465416I0J-25909D01*
G01*
X8202844Y6458036D02*
G03*
X8166664Y6472993I-36180J-36280D01*
G01*
X8148354Y6465416D02*
G03*
X8148343Y6465405I18309J-18331D01*
G01*
X8202893Y6457986D02*
G03*
X8202844Y6458036I-36230J-36230D01*
G01*
X8142329Y6460820D02*
G03*
X8146582Y6462581I0J6014D01*
G01*
X8021286Y6465416D02*
G03*
X8002977Y6472993I-18309J-18331D01*
G01*
X6377325Y6540394D02*
G03*
X6377561Y6540158I162721J162721D01*
G01*
X8104786Y6465416D02*
G03*
X8086477Y6472993I-18309J-18331D01*
G01*
X8077798D02*
G03*
X8068638Y6469199I0J-12955D01*
G01*
X8021297Y6465405D02*
G03*
X8021286Y6465416I-18320J-18320D01*
G01*
X6082272Y6791211D02*
G03*
X6073610Y6787623I0J-12249D01*
G01*
X6139451Y6778268D02*
G03*
X6108167Y6791211I-31284J-31338D01*
G01*
X6064948Y6784035D02*
G03*
X6073610Y6787623I0J12249D01*
G01*
X8104797Y6465405D02*
G03*
X8104786Y6465416I-18320J-18320D01*
G01*
X8064830Y6464329D02*
G03*
X8064843Y6464343I-8492J8519D01*
G01*
X8106559Y6462581D02*
G03*
X8110811Y6460820I4253J4253D01*
G01*
X8056338D02*
G03*
X8064830Y6464329I0J12028D01*
G01*
X8023059Y6462581D02*
G03*
X8027311Y6460820I4253J4253D01*
G01*
X8818252Y6792701D02*
G03*
X8830745Y6797875I0J17668D01*
G01*
X8816008Y6792701D02*
G03*
X8799684Y6785939I0J-23085D01*
G01*
X8666461Y6462461D02*
G03*
X8695199Y6531920I-69574J69459D01*
G01*
X8763649Y6749904D02*
G03*
X8763586Y6749841I103320J-103320D01*
G01*
X6539704Y6472993D02*
G03*
X6540046Y6472993I342J230121D01*
G01*
X6377561Y6540158D02*
G03*
X6539704Y6472993I162485J162956D01*
G01*
X6139478Y6778241D02*
G03*
X6139451Y6778268I-31311J-31311D01*
G01*
X8261289Y6965408D02*
G03*
X8306358Y6856247I154733J0D01*
G01*
X8166664Y7207053D02*
G03*
X8148354Y7199475I0J-25909D01*
G01*
X8198558Y7193842D02*
G03*
X8166664Y7207053I-31895J-31895D01*
G01*
X8148354Y7199475D02*
G03*
X8148343Y7199464I18309J-18331D01*
G01*
X8261289Y7087086D02*
G03*
X8230228Y7162172I-106286J0D01*
G01*
X8104797Y7199464D02*
G03*
X8104786Y7199475I-18320J-18320D01*
G01*
D02*
G03*
X8086477Y7207053I-18309J-18331D01*
G01*
X8077798D02*
G03*
X8068638Y7203259I0J-12955D01*
G01*
X8142329Y7194880D02*
G03*
X8146582Y7196641I0J6014D01*
G01*
X8021297Y7199464D02*
G03*
X8021286Y7199475I-18320J-18320D01*
G01*
D02*
G03*
X8002977Y7207053I-18309J-18331D01*
G01*
X8064830Y7198389D02*
G03*
X8064843Y7198403I-8492J8519D01*
G01*
X8023059Y7196641D02*
G03*
X8027311Y7194880I4253J4253D01*
G01*
X8106559Y7196641D02*
G03*
X8110811Y7194880I4253J4253D01*
G01*
X8056338D02*
G03*
X8064830Y7198389I0J12028D01*
G01*
X6554893Y7207053D02*
G03*
X6438029Y7158669I0J-165326D01*
G01*
X6161729Y6951205D02*
G03*
X6279240Y6999880I0J166186D01*
G01*
X6082272Y6951205D02*
G03*
X6073610Y6947618I0J-12249D01*
G01*
X6064948Y6944030D02*
G03*
X6073610Y6947618I0J12249D01*
G01*
X8333646Y6817153D02*
G03*
X8338820Y6804660I17668J0D01*
G01*
X8326897Y6835708D02*
G03*
X8326884Y6835721I-16337J-16311D01*
G01*
X8333646Y6819397D02*
G03*
X8326897Y6835708I-23086J0D01*
G01*
X8286943Y6976035D02*
G03*
X8332032Y6866853I154734J0D01*
G01*
D02*
G03*
X8332263Y6866622I109644J109182D01*
G01*
X8286943Y7087451D02*
G03*
X8248557Y7180123I-131058J0D01*
G01*
X8148343Y7240295D02*
G03*
X8148354Y7240284I18320J18320D01*
G01*
X8146582Y7243119D02*
G03*
X8142329Y7244880I-4253J-4253D01*
G01*
X8216563Y7212117D02*
G03*
X8166855Y7232707I-49708J-49708D01*
G01*
X8148354Y7240284D02*
G03*
X8166664Y7232707I18309J18331D01*
G01*
X8110811Y7244880D02*
G03*
X8106559Y7243119I0J-6014D01*
G01*
X8064843Y7241357D02*
G03*
X8064830Y7241371I-8505J-8505D01*
G01*
X8104786Y7240284D02*
G03*
X8104797Y7240295I-18309J18331D01*
G01*
X8027311Y7244880D02*
G03*
X8023059Y7243119I0J-6014D01*
G01*
X8064830Y7241371D02*
G03*
X8056338Y7244880I-8492J-8519D01*
G01*
X8021286Y7240284D02*
G03*
X8021297Y7240295I-18309J18331D01*
G01*
X8068638Y7236501D02*
G03*
X8077798Y7232707I9160J9160D01*
G01*
X8002977D02*
G03*
X8021286Y7240284I0J25909D01*
G01*
X8086477Y7232707D02*
G03*
X8104786Y7240284I0J25909D01*
G01*
X6554560Y7232707D02*
G03*
X6420252Y7177172I0J-190175D01*
G01*
X6156419Y6976859D02*
G03*
X6264781Y7021701I0J153352D01*
G01*
X6073610Y6980447D02*
G03*
X6082272Y6976859I8662J8662D01*
G01*
X6073610Y6980447D02*
G03*
X6064948Y6984035I-8662J-8662D01*
G01*
X8376085Y6841925D02*
G03*
X8363592Y6847099I-12493J-12493D01*
G01*
X8345024Y6853861D02*
G03*
X8361348Y6847099I16323J16323D01*
G01*
X8306358Y6856247D02*
G03*
X8306609Y6855996I109664J109161D01*
G01*
X8230228Y7162172D02*
G03*
X8230159Y7162241I-75225J-75086D01*
G01*
X6438029Y7158669D02*
G03*
X6437990Y7158630I116864J-116942D01*
G01*
X6420252Y7177172D02*
G03*
X6420085Y7177006I134308J-134640D01*
G01*
X6264781Y7021701D02*
G03*
X6264855Y7021775I-108362J108510D01*
G01*
X8936080Y7235621D02*
G03*
X8854410Y7432791I-278840J0D01*
G01*
X8853843Y7433357D02*
G03*
X8703107Y7495794I-150736J-150736D01*
G01*
X8839090Y7019441D02*
G03*
X8835264Y7014885I24263J-24263D01*
G01*
D02*
G03*
X8829040Y6995178I28089J-19707D01*
G01*
X8812693Y6946038D02*
G03*
X8829040Y6985523I-39512J39485D01*
G01*
X8812680Y6946025D02*
G03*
X8812693Y6946038I-39499J39498D01*
G01*
X8786866Y6926114D02*
G03*
X8796943Y6930288I0J14251D01*
G01*
X8786866Y6926114D02*
G03*
X8776799Y6921950I0J-14250D01*
G01*
D02*
G03*
X8776789Y6921940I10067J-10086D01*
G01*
X8750300Y6902770D02*
G03*
X8762794Y6907945I0J17669D01*
G01*
X8158400Y7495794D02*
G03*
X8110094Y7475814I0J-68386D01*
G01*
X6223082Y7477678D02*
G03*
X6240462Y7470500I17380J17452D01*
G01*
X8097336D02*
G03*
X8110026Y7475747I0J17972D01*
G01*
X5054567Y7294880D02*
G03*
X5234173Y7369275I0J254000D01*
G01*
X4696000Y7294880D02*
G03*
X4556839Y7237259I0J-196856D01*
G01*
X4491388Y7171808D02*
G03*
X4434337Y7034075I137733J-137733D01*
G01*
X4448290Y6902563D02*
G03*
X4448330Y6902523I33821J33741D01*
G01*
X4434337Y6936305D02*
G03*
X4448290Y6902563I47774J0D01*
G01*
X4456730Y6882317D02*
G03*
X4461904Y6869824I17668J0D01*
G01*
X4448426Y6902427D02*
G03*
X4448381Y6902472I-20199J-20110D01*
G01*
X4456730Y6882317D02*
G03*
X4448426Y6902427I-28503J0D01*
G01*
X8910426Y7235284D02*
G03*
X8836032Y7414889I-254000J0D01*
G01*
X8835943Y7414977D02*
G03*
X8702644Y7470140I-133300J-133476D01*
G01*
X8836032Y7414889D02*
G03*
X8835943Y7414977I-133388J-133388D01*
G01*
X8869811Y7085712D02*
G03*
X8910426Y7183767I-98055J98055D01*
G01*
X8813709Y7029610D02*
G03*
X8803386Y6998660I41239J-30950D01*
G01*
X8158585Y7470140D02*
G03*
X8128053Y7457493I0J-43178D01*
G01*
X8767121Y6951768D02*
G03*
X8792764Y6962390I0J36265D01*
G01*
X8750300Y6955470D02*
G03*
X8759237Y6951768I8937J8937D01*
G01*
X8097520Y7444846D02*
G03*
X8128053Y7457493I0J43180D01*
G01*
X6208670Y7455810D02*
G03*
X6235139Y7444846I26469J26468D01*
G01*
X5054703Y7269226D02*
G03*
X5252217Y7351039I0J279328D01*
G01*
X4706627Y7269226D02*
G03*
X4567528Y7211668I0J-196857D01*
G01*
X4509717Y7153857D02*
G03*
X4459991Y7033734I120230J-120123D01*
G01*
X4466515Y6920618D02*
G03*
X4466521Y6920612I15771J15759D01*
G01*
X4466522D02*
G03*
X4486676Y6912264I20154J20155D01*
G01*
X4459991Y6936377D02*
G03*
X4466515Y6920618I22295J0D01*
G01*
X4499169Y6907089D02*
G03*
X4486676Y6912264I-12493J-12493D01*
G01*
X8888151Y7067772D02*
G03*
X8936080Y7183672I-116166J115900D01*
G01*
X8888018Y7067639D02*
G03*
X8888151Y7067772I-116033J116033D01*
G01*
X8110094Y7475814D02*
G03*
X8110044Y7475764I48306J-48406D01*
G01*
X8110026Y7475747D02*
G03*
X8110044Y7475764I-12691J12726D01*
G01*
X4556839Y7237259D02*
G03*
X4556802Y7237222I139162J-139235D01*
G01*
X8818488Y7035119D02*
G03*
X8813709Y7029610I36459J-36459D01*
G01*
X8792764Y6962390D02*
G03*
X8803386Y6988033I-25643J25643D01*
G01*
X4567528Y7211668D02*
G03*
X4567428Y7211568I139099J-139298D01*
G01*
X4509770Y7153910D02*
G03*
X4509717Y7153857I120176J-120176D01*
G01*
X5806742Y6390757D02*
G03*
X5811520Y6402294I-11536J11536D01*
G01*
X5539765Y6994836D02*
G03*
X5544857Y6982544I17385J0D01*
G01*
Y6982544D02*
G03*
X5558519Y6976885I13662J13662D01*
G01*
X5534698Y7007104D02*
G03*
X5534673Y7007129I-12317J-12268D01*
G01*
X5539765Y6994836D02*
G03*
X5534698Y7007104I-17384J0D01*
G01*
X5685092Y6984060D02*
G03*
X5676430Y6980472I0J-12249D01*
G01*
X5667769Y6976885D02*
G03*
X5676430Y6980472I0J12249D01*
G01*
X5552720Y6951231D02*
G03*
X5543559Y6947436I0J-12955D01*
G01*
D02*
G03*
X5539765Y6938276I9160J-9160D01*
G01*
X5535792Y6928429D02*
G03*
X5539765Y6938022I-9593J9593D01*
G01*
X5676430Y6947643D02*
G03*
X5685092Y6944055I8662J8662D01*
G01*
X5676430Y6947643D02*
G03*
X5667769Y6951231I-8662J-8662D01*
G01*
X5361242Y6980047D02*
G03*
X5412717Y7002035I0J71247D01*
G01*
X4978011Y6944432D02*
G03*
X5021002Y6962240I0J60798D01*
G01*
X5021244Y6962482D02*
G03*
X5021142Y6962380I42550J-42753D01*
G01*
X5063794Y6980047D02*
G03*
X5021244Y6962482I0J-60318D01*
G01*
X5412648Y6932477D02*
G03*
X5361242Y6954393I-51406J-49331D01*
G01*
X4988637Y6918778D02*
G03*
X5031628Y6936586I0J60798D01*
G01*
X5039181Y6944139D02*
G03*
X5039142Y6944099I24811J-24890D01*
G01*
X5063992Y6954393D02*
G03*
X5039181Y6944139I0J-35144D01*
G01*
X8601726Y1448309D02*
G03*
X8569841Y1441140I-730J-71243D01*
G01*
X8673955Y1447677D02*
G03*
X8674804Y1447673I849J96897D01*
G01*
X8674180Y1473330D02*
G03*
X8726281Y1495317I624J71244D01*
G01*
X8726210Y1425757D02*
G03*
X8674804Y1447673I-51406J-49331D01*
G01*
X8601844Y1473963D02*
G03*
X8600996Y1473967I-848J-96897D01*
G01*
X8570016Y1481054D02*
G03*
X8600996Y1473967I30979J64159D01*
G01*
X8601726Y3355849D02*
G03*
X8569841Y3348680I-730J-71243D01*
G01*
X8673955Y3355217D02*
G03*
X8674804Y3355213I849J96897D01*
G01*
X8674180Y3380870D02*
G03*
X8726281Y3402857I624J71244D01*
G01*
X8726210Y3333297D02*
G03*
X8674804Y3355213I-51406J-49331D01*
G01*
X8601844Y3381503D02*
G03*
X8600996Y3381507I-848J-96897D01*
G01*
X8570016Y3388594D02*
G03*
X8600996Y3381507I30979J64159D01*
G01*
X8570016Y5318994D02*
G03*
X8600996Y5311907I30979J64159D01*
G01*
X8601844Y5311903D02*
G03*
X8600996Y5311907I-848J-96897D01*
G01*
X8726210Y5263697D02*
G03*
X8674804Y5285613I-51406J-49331D01*
G01*
X8674180Y5311270D02*
G03*
X8726281Y5333257I624J71244D01*
G01*
X8673955Y5285617D02*
G03*
X8674804Y5285613I849J96897D01*
G01*
X8601726Y5286249D02*
G03*
X8569841Y5279080I-730J-71243D01*
G01*
X8570016Y1481054D02*
G03*
X8600996Y1473967I30979J64159D01*
G01*
X8726210Y1425757D02*
G03*
X8674804Y1447673I-51406J-49331D01*
G01*
X8601726Y1448309D02*
G03*
X8569841Y1441140I-730J-71243D01*
G01*
X8601844Y1473963D02*
G03*
X8600996Y1473967I-848J-96897D01*
G01*
X8673955Y1447677D02*
G03*
X8674804Y1447673I849J96897D01*
G01*
X8674180Y1473330D02*
G03*
X8726281Y1495317I624J71244D01*
G01*
X8903860Y5318028D02*
X8905446Y5319615D01*
X8866281Y5311267D02*
X8887536D01*
X8853327Y5324222D02*
Y5326056D01*
X8848235Y5338349D02*
X8848259Y5338324D01*
X8834804Y5351780D02*
X8848235Y5338349D01*
X8903860Y5278852D02*
X8905446Y5277265D01*
X8866281Y5285613D02*
X8887536D01*
X8853327Y5270824D02*
Y5272658D01*
X8848235Y5258531D02*
X8848259Y5258556D01*
X8834804Y5245100D02*
X8848235Y5258531D01*
X8903860Y3387628D02*
X8905446Y3389215D01*
X8866281Y3380867D02*
X8887536D01*
X8853327Y3393822D02*
Y3395656D01*
X8848235Y3407949D02*
X8848259Y3407924D01*
X8834804Y3421380D02*
X8848235Y3407949D01*
X8903860Y3348452D02*
X8905446Y3346865D01*
X8866281Y3355213D02*
X8887536D01*
X8853327Y3340424D02*
Y3342258D01*
X8848235Y3328131D02*
X8848259Y3328156D01*
X8834804Y3314700D02*
X8848235Y3328131D01*
X8903860Y1480088D02*
X8905446Y1481675D01*
X8866281Y1473327D02*
X8887536D01*
X8853327Y1486282D02*
Y1488116D01*
X8848235Y1500409D02*
X8848259Y1500384D01*
X8834804Y1513840D02*
X8848235Y1500409D01*
X8903860Y1440912D02*
X8905446Y1439325D01*
X8866281Y1447673D02*
X8887536D01*
X8853327Y1432884D02*
Y1434718D01*
X8848235Y1420591D02*
X8848259Y1420616D01*
X8834804Y1407160D02*
X8848235Y1420591D01*
X6124220Y7158222D02*
X6124238Y7158240D01*
X6087700Y7121702D02*
X6124220Y7158222D01*
X6087688Y7121690D02*
X6087700Y7121702D01*
X8529268Y1721140D02*
X8544840D01*
X8523711Y1715584D02*
Y1716280D01*
X8473234Y1702315D02*
X8474820Y1700728D01*
X8491144Y1693967D02*
X8492559D01*
X8491144Y1668313D02*
X8493021Y1667841D01*
X8499596Y1663826D02*
X8499620Y1663800D01*
X8473234Y1659965D02*
X8474820Y1661551D01*
X8523711Y1646000D02*
Y1646696D01*
X8529268Y1641140D02*
X8544840D01*
X8523711Y1646000D02*
Y1646000D01*
X8492559Y1693967D02*
X8495333Y1695259D01*
X8460740Y1367490D02*
X8468059D01*
X8510760Y1353967D02*
X8517933Y1361140D01*
X8468059Y1367490D02*
X8481582Y1353967D01*
X8517933Y1361140D02*
X8544840D01*
X8481582Y1353967D02*
X8510760D01*
X8468059Y1314790D02*
X8481582Y1328313D01*
X8510760D02*
X8517933Y1321140D01*
X8544840D01*
X8481582Y1328313D02*
X8510760D01*
X8460740Y1314790D02*
X8468059D01*
X7341790Y2406650D02*
X7343060Y2405380D01*
X7237730Y2406650D02*
X7341790D01*
X7236460Y2407920D02*
X7237730Y2406650D01*
X5680018Y6864045D02*
X5685092D01*
X5692268D01*
X5705018D01*
X5672843Y6856870D02*
X5680018Y6864045D01*
X5672843Y6856870D02*
X5674944D01*
X5350650D02*
X5667769D01*
X5329764Y6835984D02*
X5350650Y6856870D01*
X4870631Y6835984D02*
X5329764D01*
X4797551Y6825202D02*
X4844599D01*
X4745497Y6811364D02*
X4745592Y6811268D01*
X4741607Y6820754D02*
Y6827059D01*
X5692268Y6824040D02*
X5705018D01*
X5361276Y6831216D02*
X5672843D01*
X5340390Y6810330D02*
X5361276Y6831216D01*
X4881257Y6810330D02*
X5340390D01*
X4801008Y6799548D02*
X4855225D01*
X4749574Y6781820D02*
X4758209D01*
X4711661Y6797113D02*
X4712654D01*
X8497666Y5535039D02*
X8497676Y5535048D01*
X8495045Y5532867D02*
X8497666Y5535039D01*
X8523991Y5554484D02*
Y5555180D01*
X8473234Y5540255D02*
X8474820Y5538668D01*
X8491144Y5531907D02*
X8494085D01*
X8529547Y5560040D02*
X8545120D01*
X8491144Y5506253D02*
X8491470Y5506239D01*
X8523991Y5484900D02*
Y5485596D01*
Y5484900D02*
Y5484900D01*
X8473234Y5497905D02*
X8474820Y5499491D01*
X8529547Y5480040D02*
X8545120D01*
X8494085Y5531907D02*
X8495045Y5532867D01*
X8491144Y3601507D02*
X8492559D01*
X8523711Y3623124D02*
Y3623820D01*
X8473234Y3609855D02*
X8474820Y3608268D01*
X8529268Y3628680D02*
X8544840D01*
X8491144Y3575853D02*
X8493021Y3575381D01*
X8499596Y3571366D02*
X8499620Y3571340D01*
X8523711Y3553540D02*
Y3554236D01*
Y3553540D02*
Y3553540D01*
X8473234Y3567505D02*
X8474820Y3569091D01*
X8529268Y3548680D02*
X8544840D01*
X8492559Y3601507D02*
X8495333Y3602799D01*
X7646840Y5321300D02*
X7649380Y5323840D01*
X7612380Y5321300D02*
X7646840D01*
X7653020Y7357053D02*
X7716520D01*
X7627620Y7331653D02*
X7653020Y7357053D01*
X7589520Y7331653D02*
X7627620D01*
X7564120Y7357053D02*
X7589520Y7331653D01*
X7526020Y7357053D02*
X7564120D01*
X7500620Y7331653D02*
X7526020Y7357053D01*
X7462520Y7331653D02*
X7500620D01*
X7437120Y7357053D02*
X7462520Y7331653D01*
X7399020Y7357053D02*
X7437120D01*
X7373620Y7331653D02*
X7399020Y7357053D01*
X7335520Y7331653D02*
X7373620D01*
X7310120Y7357053D02*
X7335520Y7331653D01*
X7272020Y7357053D02*
X7310120D01*
X6591589D02*
X7272020D01*
X7716520D02*
X8002977D01*
X6554560Y7232707D02*
X8002977D01*
X7668260Y6498647D02*
X7767320D01*
X7642860Y6524047D02*
X7668260Y6498647D01*
X7604760Y6524047D02*
X7642860D01*
X7579360Y6498647D02*
X7604760Y6524047D01*
X7541260Y6498647D02*
X7579360D01*
X7515860Y6524047D02*
X7541260Y6498647D01*
X7477760Y6524047D02*
X7515860D01*
X7452360Y6498647D02*
X7477760Y6524047D01*
X7414260Y6498647D02*
X7452360D01*
X6540046D02*
X7414260D01*
X7767320D02*
X8002977D01*
X7772400Y6648647D02*
X7929880D01*
X7747000Y6674047D02*
X7772400Y6648647D01*
X7708900Y6674047D02*
X7747000D01*
X7683500Y6648647D02*
X7708900Y6674047D01*
X7645400Y6648647D02*
X7683500D01*
X7620000Y6674047D02*
X7645400Y6648647D01*
X7581900Y6674047D02*
X7620000D01*
X7556500Y6648647D02*
X7581900Y6674047D01*
X7518400Y6648647D02*
X7556500D01*
X7493000Y6674047D02*
X7518400Y6648647D01*
X7454900Y6674047D02*
X7493000D01*
X7429500Y6648647D02*
X7454900Y6674047D01*
X7391400Y6648647D02*
X7429500D01*
X7366000Y6674047D02*
X7391400Y6648647D01*
X7327900Y6674047D02*
X7366000D01*
X7302500Y6648647D02*
X7327900Y6674047D01*
X7264400Y6648647D02*
X7302500D01*
X7239000Y6674047D02*
X7264400Y6648647D01*
X7200900Y6674047D02*
X7239000D01*
X7175500Y6648647D02*
X7200900Y6674047D01*
X7137400Y6648647D02*
X7175500D01*
X7112000Y6674047D02*
X7137400Y6648647D01*
X7073900Y6674047D02*
X7112000D01*
X7048500Y6648647D02*
X7073900Y6674047D01*
X7010400Y6648647D02*
X7048500D01*
X6985000Y6674047D02*
X7010400Y6648647D01*
X6946900Y6674047D02*
X6985000D01*
X6921500Y6648647D02*
X6946900Y6674047D01*
X6883400Y6648647D02*
X6921500D01*
X6858000Y6674047D02*
X6883400Y6648647D01*
X6819900Y6674047D02*
X6858000D01*
X6794500Y6648647D02*
X6819900Y6674047D01*
X6756400Y6648647D02*
X6794500D01*
X6540500D02*
X6756400D01*
X7929880D02*
X8002977D01*
X8027311Y6660820D02*
X8043070D01*
X8021297Y6657297D02*
X8023059Y6659059D01*
X8021297Y6656235D02*
Y6657297D01*
X5470497Y7498334D02*
X6173265D01*
X5472175Y7472680D02*
X6167942D01*
X8534932Y6679238D02*
Y6954171D01*
X6082272Y6896849D02*
X6145235D01*
X8043070Y6660820D02*
X8056338D01*
X8110811D02*
X8126570D01*
X8104797Y6657297D02*
X8106559Y6659059D01*
X6234578Y6859842D02*
X6378791Y6715629D01*
X8370640Y6578600D02*
X8434295D01*
X8161298Y6648647D02*
X8201531D01*
X8104797Y6656235D02*
Y6657297D01*
X8064843Y6656235D02*
X8068638Y6652441D01*
X8148343Y6656235D02*
X8152138Y6652441D01*
X8492446Y7026700D02*
X8513689Y7005457D01*
X8077798Y6648647D02*
X8086477D01*
X8148343Y6656235D02*
Y6657297D01*
X8064843Y6656235D02*
Y6657297D01*
X6045022Y6904025D02*
X6064948D01*
X8126570Y6660820D02*
X8139838D01*
X8438318Y7040838D02*
X8458313D01*
X8729263Y7346562D02*
X8730186Y7347485D01*
X8654995Y7384940D02*
X8693373Y7346562D01*
X8343825Y7406894D02*
X8601993D01*
X8166664Y7382707D02*
X8285433D01*
X8148343Y7390296D02*
Y7391357D01*
X8126570Y7394880D02*
X8142329D01*
X8110811D02*
X8126570D01*
X8146582Y7393119D02*
X8148343Y7391357D01*
X8104797Y7390296D02*
Y7391357D01*
X8106559Y7393119D01*
X8043070Y7394880D02*
X8056338D01*
X8027311D02*
X8043070D01*
X8064843Y7390296D02*
Y7391357D01*
X8021297D02*
X8023059Y7393119D01*
X8021297Y7390296D02*
Y7391357D01*
X8064843Y7390296D02*
X8068638Y7386501D01*
X6591493Y7382707D02*
X8002977D01*
X8077798D02*
X8086477D01*
X6045022Y7064019D02*
X6064958D01*
X8343929Y7381240D02*
X8591367D01*
X8644369Y7359286D02*
X8676128Y7327527D01*
X8166664Y7357053D02*
X8285537D01*
X8077798D02*
X8086477D01*
X8064843Y7349465D02*
X8068638Y7353259D01*
X8148343Y7348403D02*
Y7349465D01*
X8146582Y7346641D02*
X8148343Y7348403D01*
X8104797D02*
Y7349465D01*
Y7348403D02*
X8106559Y7346641D01*
X8021297Y7348403D02*
Y7349465D01*
X8064843Y7348403D02*
Y7349465D01*
X8043070Y7344880D02*
X8056338D01*
X8021297Y7348403D02*
X8023059Y7346641D01*
X8027311Y7344880D02*
X8043070D01*
X8126570D02*
X8142329D01*
X8110811D02*
X8126570D01*
X6229015Y7091895D02*
X6425290Y7288170D01*
X6082250Y7031203D02*
X6082490D01*
X6045022Y7024040D02*
X6064958D01*
X6211045Y7110205D02*
X6407217Y7306377D01*
X8438140Y7066492D02*
X8458490D01*
X8396868Y7049323D02*
X8396994Y7049449D01*
X8510460Y7044966D02*
X8531915Y7023511D01*
X8523399Y6589739D02*
X8523772Y6590111D01*
X8370301Y6552946D02*
X8434573D01*
X8077798Y6622993D02*
X8086477D01*
X6529874D02*
X8002977D01*
X8161298D02*
X8201193D01*
X8064843Y6615404D02*
X8068638Y6619199D01*
X6082272Y6871195D02*
X6134609D01*
X6262513Y6795627D02*
X6368165Y6689975D01*
X6045022Y6864020D02*
X6064948D01*
X6223953Y6834188D02*
X6262513Y6795628D01*
X8148343Y6615404D02*
X8152138Y6619199D01*
X8148343Y6614343D02*
Y6615404D01*
X8104797Y6614343D02*
Y6615404D01*
Y6614343D02*
X8106559Y6612581D01*
X8126570Y6610820D02*
X8139838D01*
X8110811D02*
X8126570D01*
X8064843Y6614343D02*
Y6615404D01*
X8021297Y6614343D02*
Y6615404D01*
Y6614343D02*
X8023059Y6612581D01*
X8043070Y6610820D02*
X8056338D01*
X8027311D02*
X8043070D01*
X8560586Y6678990D02*
Y6954293D01*
X6262513Y6795627D02*
Y6795628D01*
X8695199Y6531920D02*
Y6646909D01*
X8313958Y6418580D02*
X8560604D01*
X8166664Y6498647D02*
X8168258D01*
X8148343Y6506236D02*
Y6507297D01*
X8253564Y6443596D02*
X8253588Y6443572D01*
X8219906Y6477254D02*
X8253564Y6443596D01*
X8043070Y6510820D02*
X8056338D01*
X8027311D02*
X8043070D01*
X8126570D02*
X8142329D01*
X8110811D02*
X8126570D01*
X6045022Y6824040D02*
X6064948D01*
X6157474Y6796526D02*
X6395465Y6558534D01*
X8021297Y6507297D02*
X8023059Y6509059D01*
X6082272Y6816865D02*
X6108371D01*
X8146582Y6509059D02*
X8148343Y6507297D01*
X8104797Y6506236D02*
Y6507297D01*
X8106559Y6509059D01*
X8077798Y6498647D02*
X8086477D01*
X8064843Y6506236D02*
Y6507297D01*
X8021297Y6506236D02*
Y6507297D01*
X8064843Y6506236D02*
X8068638Y6502441D01*
X8788306Y6820403D02*
Y6822647D01*
X8781544Y6804079D02*
X8781557Y6804092D01*
X8745278Y6767813D02*
X8781544Y6804079D01*
X8720853Y6531655D02*
Y6646584D01*
X8677030Y6436749D02*
X8684731Y6444451D01*
X8313735Y6392926D02*
X8571231D01*
X8148343Y6464343D02*
Y6465405D01*
X8202894Y6457986D02*
X8235582Y6425298D01*
X8146582Y6462581D02*
X8148343Y6464343D01*
X6540046Y6472993D02*
X8002977D01*
X8077798D02*
X8086477D01*
X6082272Y6791211D02*
X6108167D01*
X6377325Y6540394D02*
Y6540394D01*
X6045022Y6784035D02*
X6064948D01*
X8104797Y6464343D02*
Y6465405D01*
Y6464343D02*
X8106559Y6462581D01*
X8064843Y6465405D02*
X8068638Y6469199D01*
X8110811Y6460820D02*
X8126570D01*
X8142329D01*
X8064843Y6464343D02*
Y6465405D01*
X8021297Y6464343D02*
Y6465405D01*
Y6464343D02*
X8023059Y6462581D01*
X8043070Y6460820D02*
X8056338D01*
X8027311D02*
X8043070D01*
X8816008Y6792701D02*
X8818252D01*
X8763649Y6749904D02*
X8799684Y6785939D01*
X6139478Y6778241D02*
X6377325Y6540394D01*
X8261289Y6965408D02*
Y7087086D01*
X8148343Y7198403D02*
Y7199464D01*
X8146582Y7196641D02*
X8148343Y7198403D01*
X8198558Y7193842D02*
X8230159Y7162241D01*
X8104797Y7198403D02*
Y7199464D01*
X8077798Y7207053D02*
X8086477D01*
X8126570Y7194880D02*
X8142329D01*
X8104797Y7198403D02*
X8106559Y7196641D01*
X8110811Y7194880D02*
X8126570D01*
X8064843Y7199464D02*
X8068638Y7203259D01*
X8021297Y7198403D02*
Y7199464D01*
X6554893Y7207053D02*
X8002977D01*
X8064843Y7198403D02*
Y7199464D01*
X8021297Y7198403D02*
X8023059Y7196641D01*
X8027311Y7194880D02*
X8043070D01*
X8056338D01*
X6279240Y6999880D02*
X6421048Y7141688D01*
X6082272Y6951205D02*
X6161729D01*
X6045022Y6944030D02*
X6064948D01*
X8333646Y6817153D02*
Y6819397D01*
X8326884Y6835721D02*
X8326897Y6835708D01*
X8306609Y6855995D02*
X8326884Y6835721D01*
X8286943Y6976035D02*
Y7087451D01*
X8148343Y7240295D02*
Y7241357D01*
X8146582Y7243119D02*
X8148343Y7241357D01*
X8126570Y7244880D02*
X8142329D01*
X8216563Y7212117D02*
X8248557Y7180123D01*
X8166664Y7232707D02*
X8166855D01*
X8110811Y7244880D02*
X8126570D01*
X8104797Y7241357D02*
X8106559Y7243119D01*
X8104797Y7240295D02*
Y7241357D01*
X8064843Y7240295D02*
Y7241357D01*
Y7240295D02*
X8068638Y7236501D01*
X8027311Y7244880D02*
X8043070D01*
X8056338D01*
X8021297Y7240295D02*
Y7241357D01*
X8023059Y7243119D01*
X8077798Y7232707D02*
X8086477D01*
X6082272Y6976859D02*
X6156419D01*
X6045022Y6984035D02*
X6064948D01*
X8361348Y6847099D02*
X8363592D01*
X8332263Y6866622D02*
X8345024Y6853861D01*
X6421048Y7141688D02*
X6437990Y7158630D01*
X6421048Y7141688D02*
Y7141688D01*
X6395394Y7152314D02*
X6420085Y7177006D01*
X6264855Y7021775D02*
X6395394Y7152314D01*
Y7152314D01*
X7610460Y1479976D02*
X7643457D01*
X7649380Y1485900D01*
X8936080Y7183672D02*
Y7235621D01*
X8853844Y7433357D02*
X8854410Y7432791D01*
X8839090Y7019441D02*
X8839820D01*
X8829040Y6985523D02*
Y6995178D01*
X8812680Y6946025D02*
X8812693Y6946038D01*
X8796943Y6930288D02*
X8812680Y6946025D01*
X8776789Y6921940D02*
X8776799Y6921950D01*
X8762794Y6907945D02*
X8776789Y6921940D01*
X8158400Y7495794D02*
X8703107D01*
X6240462Y7470500D02*
X8097336D01*
X5234173Y7369275D02*
X5287384Y7422486D01*
X4696000Y7294880D02*
X5054567D01*
X4491388Y7171808D02*
X4556802Y7237222D01*
X4448330Y6902523D02*
X4448381Y6902472D01*
X4434337Y6936305D02*
Y7034075D01*
X8910426Y7183767D02*
Y7235284D01*
X8829194Y7045095D02*
X8869811Y7085712D01*
X8158585Y7470140D02*
X8702644D01*
X8803386Y6988033D02*
Y6998660D01*
X8759237Y6951768D02*
X8767121D01*
X6235139Y7444846D02*
X8097520D01*
X5252217Y7351039D02*
X5304337Y7403159D01*
X4706627Y7269226D02*
X5054703D01*
X4459991Y6936377D02*
Y7033734D01*
X8839820Y7019441D02*
X8888018Y7067639D01*
X8828464Y7045095D02*
X8829194D01*
X8818488Y7035119D02*
X8828464Y7045095D01*
X4509770Y7153910D02*
X4567428Y7211568D01*
X5292989Y6980047D02*
X5351780D01*
X5265235Y7007802D02*
X5292989Y6980047D01*
X5227135Y7007802D02*
X5265235D01*
X5199380Y6980047D02*
X5227135Y7007802D01*
X5161280Y6980047D02*
X5199380D01*
X5351780D02*
X5361242D01*
X5063794D02*
X5161280D01*
X5811520Y6402294D02*
Y6434500D01*
X5923280D01*
X7919840Y1681140D02*
X7944840D01*
X7886700Y1714280D02*
X7919840Y1681140D01*
X7886700Y1714280D02*
Y1760220D01*
X5558519Y6976885D02*
X5667769D01*
X5534673Y7007129D02*
X5534698Y7007104D01*
X5521242Y7020560D02*
X5534673Y7007129D01*
X5685092Y6984060D02*
X5705018D01*
X5539765Y6938022D02*
Y6938276D01*
X5521242Y6913880D02*
X5535792Y6928429D01*
X5685092Y6944055D02*
X5705018D01*
X5552720Y6951231D02*
X5667769D01*
X8481582Y3235853D02*
X8510760D01*
X8468059Y3222330D02*
X8481582Y3235853D01*
X8517933Y3228680D02*
X8544840D01*
X8510760Y3235853D02*
X8517933Y3228680D01*
X8460740Y3222330D02*
X8468059D01*
X8460740Y3275030D02*
X8468059D01*
X8510760Y3261507D02*
X8517933Y3268680D01*
X8468059Y3275030D02*
X8481582Y3261507D01*
X8517933Y3268680D02*
X8544840D01*
X8481582Y3261507D02*
X8510760D01*
X5935040Y7144055D02*
Y7152201D01*
X5938563Y7155724D02*
X5988482D01*
X5935040Y7152201D02*
X5938563Y7155724D01*
X5412717Y7002035D02*
X5431242Y7020560D01*
X4826203Y6944432D02*
X4978011D01*
X5021002Y6962240D02*
X5021142Y6962380D01*
X5063992Y6954393D02*
X5361242D01*
X5031628Y6936586D02*
X5039142Y6944099D01*
X5412648Y6932477D02*
X5412719Y6932403D01*
X4822977Y6918778D02*
X4988637D01*
X4805091Y6958924D02*
X4811711D01*
X4826203Y6944432D01*
X5412719Y6932403D02*
X5431242Y6913880D01*
X4810459Y6906260D02*
X4822977Y6918778D01*
X4803140Y6906260D02*
X4810459D01*
X8481582Y5166253D02*
X8510760D01*
X8468059Y5152730D02*
X8481582Y5166253D01*
X8517933Y5159080D02*
X8544840D01*
X8510760Y5166253D02*
X8517933Y5159080D01*
X8460740Y5152730D02*
X8468059D01*
X8460740Y5205430D02*
X8468059D01*
X8510760Y5191907D02*
X8517933Y5199080D01*
X8468059Y5205430D02*
X8481582Y5191907D01*
X8517933Y5199080D02*
X8544840D01*
X8481582Y5191907D02*
X8510760D01*
X7739380Y5217164D02*
Y5257800D01*
Y5217164D02*
X7739384Y5217160D01*
Y1379220D02*
Y1425660D01*
X8112760Y2196382D02*
Y2242820D01*
Y2196382D02*
X8114582Y2194560D01*
Y4102100D02*
Y4157262D01*
X8305800Y4748134D02*
X8306367Y4748700D01*
X8305800Y4699000D02*
Y4748134D01*
X8188960Y4699000D02*
Y4748700D01*
X7736882Y5110480D02*
X7738284Y5111882D01*
X7646840Y5580380D02*
X7649380Y5577840D01*
X7586980Y5580380D02*
X7646840D01*
X7599680Y5471160D02*
X7649380D01*
X8834804Y5458460D02*
X8879840D01*
X8834804Y5031740D02*
X8842424Y5024120D01*
X8887460D01*
X8834804Y5138420D02*
X8839884Y5133340D01*
X8890000D01*
X8484322Y4836160D02*
X8486140Y4837978D01*
X8440420Y4836160D02*
X8484322D01*
X8726281Y1495317D02*
X8744804Y1513840D01*
X8569841Y1481140D02*
X8570016Y1481054D01*
X8601844Y1473963D02*
X8674180Y1473330D01*
X8544840Y1481140D02*
X8569841D01*
X8601726Y1448309D02*
X8673955Y1447676D01*
X8726281Y1425683D02*
X8744804Y1407160D01*
X8726210Y1425757D02*
X8726281Y1425683D01*
X8544840Y1441140D02*
X8569841D01*
X8726281Y3402857D02*
X8744804Y3421380D01*
X8569841Y3388680D02*
X8570016Y3388594D01*
X8601844Y3381503D02*
X8674180Y3380870D01*
X8544840Y3388680D02*
X8569841D01*
X8601726Y3355849D02*
X8673955Y3355216D01*
X8726281Y3333223D02*
X8744804Y3314700D01*
X8726210Y3333297D02*
X8726281Y3333223D01*
X8544840Y3348680D02*
X8569841D01*
Y1481140D02*
X8570016Y1481054D01*
X8544840Y1481140D02*
X8569841D01*
X8726281Y1495317D02*
X8744804Y1513840D01*
X8601844Y1473963D02*
X8674180Y1473330D01*
X8601726Y1448309D02*
X8673955Y1447676D01*
X8544840Y1441140D02*
X8569841D01*
X8726281Y1425683D02*
X8744804Y1407160D01*
X8726210Y1425757D02*
X8726281Y1425683D01*
X8544840Y5279080D02*
X8569841D01*
X8726210Y5263697D02*
X8726281Y5263623D01*
X8744804Y5245100D01*
X8601726Y5286249D02*
X8673955Y5285616D01*
X8544840Y5319080D02*
X8569841D01*
X8601844Y5311903D02*
X8674180Y5311270D01*
X8569841Y5319080D02*
X8570016Y5318994D01*
X8726281Y5333257D02*
X8744804Y5351780D01*
D18*
X6493736Y6092774D02*
D03*
X6403736D02*
D03*
X6493736Y5986094D02*
D03*
X6403736D02*
D03*
X8114582Y2194560D02*
D03*
X8024582D02*
D03*
X7651879Y3073400D02*
D03*
X7736879D02*
D03*
X7651879Y3180080D02*
D03*
X7736879D02*
D03*
X7739382Y3286760D02*
D03*
X7649382D02*
D03*
X6134817Y589280D02*
D03*
X6224817D02*
D03*
X6134820Y695960D02*
D03*
X6224820D02*
D03*
X7649384Y1379220D02*
D03*
X7739384D02*
D03*
X7736882Y1272540D02*
D03*
X7651882D02*
D03*
X7736882Y1165860D02*
D03*
X7651882D02*
D03*
X7739380Y1739900D02*
D03*
X7649380D02*
D03*
X7739380Y1633220D02*
D03*
X7649380D02*
D03*
X7739380Y1485900D02*
D03*
X7649380D02*
D03*
X8744804Y1620520D02*
D03*
X8834804D02*
D03*
X8744804Y1513840D02*
D03*
X8834804D02*
D03*
X8744804Y1300480D02*
D03*
X8834804D02*
D03*
X8744804Y1727200D02*
D03*
X8834804D02*
D03*
X8744804Y1193800D02*
D03*
X8834804D02*
D03*
X8744804Y1407160D02*
D03*
X8834804D02*
D03*
X8744804Y3634740D02*
D03*
X8834804D02*
D03*
X8744804Y3314700D02*
D03*
X8834804D02*
D03*
X8744804Y3528060D02*
D03*
X8834804D02*
D03*
X8744804Y3208020D02*
D03*
X8834804D02*
D03*
X7739380Y3647440D02*
D03*
X7649380D02*
D03*
X7739380Y3540760D02*
D03*
X7649380D02*
D03*
X7739380Y3393440D02*
D03*
X7649380D02*
D03*
X8744804Y3421380D02*
D03*
X8834804D02*
D03*
X8744804Y3101340D02*
D03*
X8834804D02*
D03*
X8024582Y4102100D02*
D03*
X8114582D02*
D03*
X7739380Y5471160D02*
D03*
X7649380D02*
D03*
X7739380Y5577840D02*
D03*
X7649380D02*
D03*
X8024582Y6035040D02*
D03*
X8114582D02*
D03*
X8744804Y5565140D02*
D03*
X8834804D02*
D03*
X7739380Y5323840D02*
D03*
X7649380D02*
D03*
X8744804Y5138420D02*
D03*
X8834804D02*
D03*
X8744804Y5458460D02*
D03*
X8834804D02*
D03*
X8744804Y5031740D02*
D03*
X8834804D02*
D03*
X7649384Y5217160D02*
D03*
X7739384D02*
D03*
X7736882Y5110480D02*
D03*
X7651882D02*
D03*
X8744804Y5245100D02*
D03*
X8834804D02*
D03*
X8744804Y5351780D02*
D03*
X8834804D02*
D03*
X7736882Y5003800D02*
D03*
X7651882D02*
D03*
X4557479Y3289300D02*
D03*
X4647478D02*
D03*
X4557479Y3182620D02*
D03*
X4647478D02*
D03*
X5521242Y6913880D02*
D03*
X5431242D02*
D03*
X5521242Y7020560D02*
D03*
X5431242D02*
D03*
D26*
X264158Y3855802D02*
D03*
X264174Y4668357D02*
D03*
X264158Y1041532D02*
D03*
X264174Y1854087D02*
D03*
X264158Y6661152D02*
D03*
D30*
X111760Y1666920D02*
D03*
Y1751920D02*
D03*
Y974680D02*
D03*
Y889680D02*
D03*
Y6595020D02*
D03*
Y6510020D02*
D03*
Y3789000D02*
D03*
Y3704000D02*
D03*
Y4481240D02*
D03*
Y4566240D02*
D03*
X5930900Y7398983D02*
D03*
Y7313983D02*
D03*
X6040120Y7401165D02*
D03*
Y7311165D02*
D03*
X5712460Y7313340D02*
D03*
Y7398340D02*
D03*
X5821680Y7313340D02*
D03*
Y7398340D02*
D03*
X5811520Y6519500D02*
D03*
Y6434500D02*
D03*
X5923280Y6519500D02*
D03*
Y6434500D02*
D03*
X8016240Y3907238D02*
D03*
Y3997238D02*
D03*
X7975600Y4748700D02*
D03*
Y4838700D02*
D03*
X8122920Y2086877D02*
D03*
Y2001877D02*
D03*
X8016240Y1999698D02*
D03*
Y2089698D02*
D03*
X8229600Y1999702D02*
D03*
Y2089702D02*
D03*
X8306367Y1000760D02*
D03*
Y910760D02*
D03*
X8336280Y1999702D02*
D03*
Y2089702D02*
D03*
X8549640Y1999702D02*
D03*
Y2089702D02*
D03*
X8442960Y1999702D02*
D03*
Y2089702D02*
D03*
X8486140Y701762D02*
D03*
Y791762D02*
D03*
Y1000038D02*
D03*
Y910038D02*
D03*
X7975600D02*
D03*
Y1000038D02*
D03*
X8188960Y1000760D02*
D03*
Y910760D02*
D03*
X7868920Y913585D02*
D03*
Y998585D02*
D03*
X8082280Y910038D02*
D03*
Y1000038D02*
D03*
X7762240D02*
D03*
Y910038D02*
D03*
X8229600Y3907242D02*
D03*
Y3997242D02*
D03*
X8336280Y3907242D02*
D03*
Y3997242D02*
D03*
X8122920Y3909417D02*
D03*
Y3994417D02*
D03*
X8442960Y3907242D02*
D03*
Y3997242D02*
D03*
X8549640Y3907242D02*
D03*
Y3997242D02*
D03*
X8306367Y2908300D02*
D03*
Y2818300D02*
D03*
X8486140Y2907578D02*
D03*
Y2817578D02*
D03*
X7975600Y2818298D02*
D03*
Y2908298D02*
D03*
X7868920Y2821125D02*
D03*
Y2906125D02*
D03*
X8082280Y2818298D02*
D03*
Y2908298D02*
D03*
X8188960Y2908300D02*
D03*
Y2818300D02*
D03*
X7762240Y2908300D02*
D03*
Y2818300D02*
D03*
X8486140Y2609302D02*
D03*
Y2699302D02*
D03*
X8336280Y5837642D02*
D03*
Y5927642D02*
D03*
X8306367Y4838700D02*
D03*
Y4748700D02*
D03*
X8442960Y5837642D02*
D03*
Y5927642D02*
D03*
X8229600Y5837642D02*
D03*
Y5927642D02*
D03*
X8188960Y4838700D02*
D03*
Y4748700D02*
D03*
X8122920Y5924817D02*
D03*
Y5839817D02*
D03*
X8016240Y5837638D02*
D03*
Y5927638D02*
D03*
X8486140Y4539702D02*
D03*
Y4629702D02*
D03*
X8549640Y5837642D02*
D03*
Y5927642D02*
D03*
X8486140Y4837978D02*
D03*
Y4747978D02*
D03*
X8082280Y4748700D02*
D03*
Y4838700D02*
D03*
X7762240D02*
D03*
Y4748700D02*
D03*
X7868920Y4751525D02*
D03*
Y4836525D02*
D03*
X111760Y7372940D02*
D03*
Y7287940D02*
D03*
D38*
X7368540Y5361140D02*
D03*
Y4905540D02*
D03*
Y3430740D02*
D03*
Y2975140D02*
D03*
Y1523200D02*
D03*
Y1067600D02*
D03*
D45*
X530860Y6779260D02*
D03*
X8323580Y635000D02*
D03*
D46*
X8798380Y956760D02*
D03*
Y746760D02*
D03*
X8628380D02*
D03*
Y956760D02*
D03*
X8798380Y2864300D02*
D03*
Y2654300D02*
D03*
X8628380D02*
D03*
Y2864300D02*
D03*
X8798380Y4794700D02*
D03*
Y4584700D02*
D03*
X8628380D02*
D03*
Y4794700D02*
D03*
D49*
X2989116Y6619476D02*
X2989580Y6619940D01*
Y6789420D01*
X2862116Y6619476D02*
Y6792424D01*
D50*
X8538485Y5924817D02*
G03*
X8548370Y5928912I0J13980D01*
G01*
X8114582Y5944947D02*
G03*
X8122920Y5924817I28469J0D01*
G01*
X8538485D01*
X8114582Y5944947D02*
Y6035040D01*
X8336280Y5927642D02*
Y5971540D01*
X8442960Y5927642D02*
Y5971540D01*
D52*
X6563360Y6927596D02*
D03*
X7843520D02*
D03*
D53*
X7603490Y7067550D02*
D03*
X7403338D02*
D03*
X7203440D02*
D03*
X7003542D02*
D03*
X6803390D02*
D03*
X7553452Y6917690D02*
D03*
X7303516D02*
D03*
X7103364D02*
D03*
X6853428D02*
D03*
D54*
X547080Y7138480D02*
D03*
D55*
X767080Y6888480D02*
D03*
D56*
X1047080Y7363480D02*
D03*
D57*
X8823059Y7169125D02*
D03*
X8393062D02*
D03*
Y6689115D02*
D03*
X8823059D02*
D03*
D58*
X1396116Y847856D02*
D03*
X5196116D02*
D03*
X1396116Y6469476D02*
D03*
X5196116D02*
D03*
X1396116Y3662126D02*
D03*
X5196116D02*
D03*
D59*
X4937760Y6062980D02*
D03*
X3906520Y6863080D02*
D03*
X3992880Y6771640D02*
D03*
X3982720Y6140036D02*
D03*
X8917940Y5324790D02*
D03*
Y5272090D02*
D03*
Y3394390D02*
D03*
Y3341690D02*
D03*
X7858285Y3644485D02*
D03*
X8917940Y1486850D02*
D03*
Y1434150D02*
D03*
X7586980Y1688636D02*
D03*
X8944700Y5088605D02*
D03*
X5458523Y6064064D02*
D03*
X4451356Y6606169D02*
D03*
X4220158Y6440394D02*
D03*
X3830320Y6240612D02*
D03*
X2989580Y6789420D02*
D03*
X2862116Y6792424D02*
D03*
X3423920Y7475359D02*
D03*
X3078480Y6962140D02*
D03*
Y6880860D02*
D03*
Y6921500D02*
D03*
X3883660Y7180580D02*
D03*
X3636883Y7057132D02*
D03*
X3579652D02*
D03*
X3522742D02*
D03*
Y6122412D02*
D03*
X3579652D02*
D03*
X3636883D02*
D03*
X6522720Y1150620D02*
D03*
X6548120Y1338580D02*
D03*
X7162800Y1950720D02*
D03*
X7053580Y1846580D02*
D03*
X7254240Y1648460D02*
D03*
X7378700Y1739900D02*
D03*
X6652260Y1021080D02*
D03*
X6761480Y1130300D02*
D03*
X3562356Y6596655D02*
D03*
X4206240Y762828D02*
D03*
X4203700Y661228D02*
D03*
Y559628D02*
D03*
X3375164Y661228D02*
D03*
X3377704Y762828D02*
D03*
X1718093Y661228D02*
D03*
X1720633Y762828D02*
D03*
X2546628Y661228D02*
D03*
X2549168Y762828D02*
D03*
X1257300Y4302760D02*
D03*
X1198880D02*
D03*
X1257300Y4249420D02*
D03*
X1198880D02*
D03*
X1257300Y2548338D02*
D03*
X1198880D02*
D03*
X1257300Y2494998D02*
D03*
X1198880D02*
D03*
Y706120D02*
D03*
X1257300D02*
D03*
X1198880Y759460D02*
D03*
X1257300D02*
D03*
X105320Y2455000D02*
D03*
X105500Y4207600D02*
D03*
X431800Y4881880D02*
D03*
Y4833620D02*
D03*
X383540D02*
D03*
Y4881880D02*
D03*
X431800Y3129280D02*
D03*
Y3081020D02*
D03*
X383540D02*
D03*
Y3129280D02*
D03*
Y1338580D02*
D03*
Y1290320D02*
D03*
X431800D02*
D03*
Y1338580D02*
D03*
X121920Y662940D02*
D03*
X1783080Y3936950D02*
D03*
Y3832810D02*
D03*
Y3883610D02*
D03*
X3050876Y997856D02*
D03*
X4451356D02*
D03*
X4193876D02*
D03*
X3050876Y3812126D02*
D03*
X2928620Y3812540D02*
D03*
X2913380Y1000760D02*
D03*
X2292356Y997856D02*
D03*
X2161876D02*
D03*
X4451356Y3812126D02*
D03*
X4193876Y3810624D02*
D03*
X2292356Y3812126D02*
D03*
X2161876D02*
D03*
X5768340Y5956300D02*
D03*
X4472216Y6302184D02*
D03*
X4391660Y6934200D02*
D03*
X5608320Y5953760D02*
D03*
X5552440D02*
D03*
X5717540D02*
D03*
X5661660D02*
D03*
X5824220Y5956300D02*
D03*
X4892675Y6105525D02*
D03*
X5125003Y6095252D02*
D03*
X5217230Y6124010D02*
D03*
X4086860Y6616700D02*
D03*
X5285870Y6225588D02*
D03*
X5405120Y6268720D02*
D03*
X5681067Y6508393D02*
D03*
X4600095Y6365560D02*
D03*
X4894116Y6462224D02*
D03*
X5257800Y7299960D02*
D03*
X5371775Y7230049D02*
D03*
X5441692Y7143492D02*
D03*
X5546050Y7080800D02*
D03*
X3512820Y6037580D02*
D03*
Y5991860D02*
D03*
Y5948680D02*
D03*
Y6883400D02*
D03*
Y6926580D02*
D03*
Y6972300D02*
D03*
X2282360Y7315200D02*
D03*
X2234100D02*
D03*
Y7363460D02*
D03*
X2282360D02*
D03*
X2427140D02*
D03*
X2330620Y7315200D02*
D03*
X2378880Y7363460D02*
D03*
X2330620D02*
D03*
X2378880Y7315200D02*
D03*
X2427140D02*
D03*
Y6380480D02*
D03*
X2378880D02*
D03*
X2330620Y6428740D02*
D03*
X2378880D02*
D03*
X2330620Y6380480D02*
D03*
X2427140Y6428740D02*
D03*
X2282360D02*
D03*
X2234100D02*
D03*
Y6380480D02*
D03*
X2282360D02*
D03*
X1087120Y1310640D02*
D03*
Y1262380D02*
D03*
X1038860Y1214120D02*
D03*
Y1262380D02*
D03*
X1087120Y1214120D02*
D03*
X1038860Y1310640D02*
D03*
Y1165860D02*
D03*
Y1117600D02*
D03*
X1087120D02*
D03*
Y1165860D02*
D03*
Y3101340D02*
D03*
Y3053080D02*
D03*
X1038860Y3004820D02*
D03*
Y3053080D02*
D03*
X1087120Y3004820D02*
D03*
X1038860Y3101340D02*
D03*
Y2956560D02*
D03*
Y2908300D02*
D03*
X1087120D02*
D03*
Y2956560D02*
D03*
Y4709160D02*
D03*
Y4660900D02*
D03*
X1038860D02*
D03*
Y4709160D02*
D03*
Y4853940D02*
D03*
X1087120Y4757420D02*
D03*
X1038860Y4805680D02*
D03*
Y4757420D02*
D03*
X1087120Y4805680D02*
D03*
Y4853940D02*
D03*
X2545080Y3774390D02*
D03*
Y3721050D02*
D03*
Y3672790D02*
D03*
X2672080Y3774390D02*
D03*
Y3721050D02*
D03*
Y3672790D02*
D03*
X2545080Y1069340D02*
D03*
Y1018540D02*
D03*
Y965200D02*
D03*
Y911860D02*
D03*
Y863600D02*
D03*
X2672080Y1069340D02*
D03*
Y1018540D02*
D03*
Y965200D02*
D03*
Y911860D02*
D03*
Y863600D02*
D03*
X2545080Y6744300D02*
D03*
Y6690960D02*
D03*
Y6640160D02*
D03*
X2672080Y6744300D02*
D03*
Y6690960D02*
D03*
Y6640160D02*
D03*
X2101154Y6793284D02*
D03*
X2355154D02*
D03*
X1783080Y6744300D02*
D03*
Y6690960D02*
D03*
Y6640160D02*
D03*
Y6586820D02*
D03*
Y6533480D02*
D03*
Y6485220D02*
D03*
X1910080D02*
D03*
Y6533480D02*
D03*
Y6586820D02*
D03*
Y6640160D02*
D03*
Y6690960D02*
D03*
Y6744300D02*
D03*
X8460740Y1654790D02*
D03*
Y1707490D02*
D03*
Y1314790D02*
D03*
Y1367490D02*
D03*
X7236460Y2407920D02*
D03*
Y2153920D02*
D03*
Y2024380D02*
D03*
X7528560Y1742440D02*
D03*
X755787Y1912589D02*
D03*
Y1864329D02*
D03*
X707527D02*
D03*
Y1912589D02*
D03*
Y2057369D02*
D03*
X755787Y1960849D02*
D03*
X707527Y2009109D02*
D03*
Y1960849D02*
D03*
X755787Y2009109D02*
D03*
Y2057369D02*
D03*
Y3703289D02*
D03*
Y3655029D02*
D03*
X707527D02*
D03*
Y3703289D02*
D03*
Y3848069D02*
D03*
X755787Y3751549D02*
D03*
X707527Y3799809D02*
D03*
Y3751549D02*
D03*
X755787Y3799809D02*
D03*
Y3848069D02*
D03*
Y5600669D02*
D03*
Y5552409D02*
D03*
X707527Y5504149D02*
D03*
Y5552409D02*
D03*
X755787Y5504149D02*
D03*
X707527Y5600669D02*
D03*
Y5455889D02*
D03*
Y5407629D02*
D03*
X755787D02*
D03*
Y5455889D02*
D03*
X132080Y1501140D02*
D03*
Y1452880D02*
D03*
X83820Y1404620D02*
D03*
Y1452880D02*
D03*
X132080Y1404620D02*
D03*
X83820Y1501140D02*
D03*
Y1356360D02*
D03*
Y1308100D02*
D03*
X132080D02*
D03*
Y1356360D02*
D03*
Y3291840D02*
D03*
Y3243580D02*
D03*
X83820Y3195320D02*
D03*
Y3243580D02*
D03*
X132080Y3195320D02*
D03*
X83820Y3291840D02*
D03*
Y3147060D02*
D03*
Y3098800D02*
D03*
X132080D02*
D03*
Y3147060D02*
D03*
Y4899660D02*
D03*
Y4851400D02*
D03*
X83820D02*
D03*
Y4899660D02*
D03*
Y5044440D02*
D03*
X132080Y4947920D02*
D03*
X83820Y4996180D02*
D03*
Y4947920D02*
D03*
X132080Y4996180D02*
D03*
Y5044440D02*
D03*
X2146300Y4047932D02*
D03*
X2098040D02*
D03*
X2044700D02*
D03*
X1991360D02*
D03*
X1940560D02*
D03*
X1887220D02*
D03*
X2715756D02*
D03*
X2769096D02*
D03*
X2819896D02*
D03*
X2873236D02*
D03*
X2926576D02*
D03*
X2974836D02*
D03*
Y1356360D02*
D03*
X2926576D02*
D03*
X2873236D02*
D03*
X2819896D02*
D03*
X2769096D02*
D03*
X2715756D02*
D03*
X1887220D02*
D03*
X1940560D02*
D03*
X1991360D02*
D03*
X2044700D02*
D03*
X2098040D02*
D03*
X2146300D02*
D03*
X1783080Y3779470D02*
D03*
Y3726130D02*
D03*
Y3677870D02*
D03*
X1910080D02*
D03*
Y3726130D02*
D03*
Y3779470D02*
D03*
Y3832810D02*
D03*
Y3883610D02*
D03*
Y3936950D02*
D03*
Y1122680D02*
D03*
Y1069340D02*
D03*
Y1018540D02*
D03*
Y965200D02*
D03*
Y911860D02*
D03*
Y863600D02*
D03*
X1783080D02*
D03*
Y911860D02*
D03*
Y965200D02*
D03*
Y1018540D02*
D03*
Y1069340D02*
D03*
Y1122680D02*
D03*
X579120Y5890260D02*
D03*
X530860D02*
D03*
X485140D02*
D03*
X439420D02*
D03*
X391160D02*
D03*
X345440D02*
D03*
X299720D02*
D03*
X251460D02*
D03*
X203200D02*
D03*
X627380D02*
D03*
X1579625Y5950965D02*
D03*
X1653285Y6029705D02*
D03*
X1546605Y6136385D02*
D03*
X1470405Y6060185D02*
D03*
X1148080Y5737860D02*
D03*
X1254760Y5631180D02*
D03*
X1181100Y5552440D02*
D03*
X1071880Y5661660D02*
D03*
X3977640Y7269480D02*
D03*
X1685163Y7105778D02*
D03*
X1578483Y6999098D02*
D03*
X1608963Y7181978D02*
D03*
X1977263Y7405498D02*
D03*
X1870583Y7298818D02*
D03*
X1791843Y7372478D02*
D03*
X1901063Y7481698D02*
D03*
X1715643Y6884798D02*
D03*
X1608963Y6778118D02*
D03*
X1530223Y6851778D02*
D03*
X1639443Y6960998D02*
D03*
X1891158Y6938137D02*
D03*
X1784478Y7044817D02*
D03*
X1858138Y7123557D02*
D03*
X1967358Y7014337D02*
D03*
X1517777Y7395082D02*
D03*
X1703197Y7428102D02*
D03*
X1593977Y7318882D02*
D03*
X3078480Y5986780D02*
D03*
Y5946140D02*
D03*
Y6027420D02*
D03*
X7663180Y881380D02*
D03*
X7612380D02*
D03*
X4736432Y6839552D02*
D03*
X4699168Y6802288D02*
D03*
X5463758Y6644716D02*
D03*
X5359876Y6487676D02*
D03*
X5097780Y6428740D02*
D03*
X7993526Y5521325D02*
D03*
X7977697Y5606100D02*
D03*
X7762240Y4704080D02*
D03*
X8460740Y5545430D02*
D03*
Y5492730D02*
D03*
Y3562330D02*
D03*
Y3615030D02*
D03*
X2549168Y3454400D02*
D03*
X2546628Y3352800D02*
D03*
Y3251200D02*
D03*
X1720633Y3454400D02*
D03*
X1718093Y3352800D02*
D03*
Y3251200D02*
D03*
X3377704Y3454400D02*
D03*
X3375164Y3352800D02*
D03*
Y3251200D02*
D03*
X4203700D02*
D03*
Y3352800D02*
D03*
X4206240Y3454400D02*
D03*
X4898311Y830229D02*
D03*
X4894116Y3642824D02*
D03*
X4252433Y6398733D02*
D03*
X4213860Y6360160D02*
D03*
X7681544Y4813300D02*
D03*
X7646477Y4758580D02*
D03*
X7639575Y2821866D02*
D03*
X7683324Y2879615D02*
D03*
X7716520Y4909820D02*
D03*
X7660640D02*
D03*
X7507137Y3589020D02*
D03*
X7551793Y3588558D02*
D03*
X7548880Y5527040D02*
D03*
X7601419Y5526107D02*
D03*
X7612380Y5321300D02*
D03*
X8742680Y7352660D02*
D03*
Y7299960D02*
D03*
X8740140Y7411720D02*
D03*
Y7244080D02*
D03*
X5072380Y6662420D02*
D03*
X5207000Y6631940D02*
D03*
X5199380Y6735130D02*
D03*
X5341620Y6713220D02*
D03*
X5290820Y6593840D02*
D03*
X4968240Y6731000D02*
D03*
X8364220Y7035800D02*
D03*
X8401485Y6998535D02*
D03*
X8830745Y6797875D02*
D03*
X8793480Y6835140D02*
D03*
X8338820Y6804660D02*
D03*
X8376085Y6841925D02*
D03*
X6087374Y7238983D02*
D03*
X8354060Y7292340D02*
D03*
X8303260D02*
D03*
X8187796Y7291695D02*
D03*
X8212068Y6560337D02*
D03*
X7914640Y6563360D02*
D03*
X7960360D02*
D03*
X7610460Y1479976D02*
D03*
X7604760Y3393440D02*
D03*
X4639793Y6098957D02*
D03*
X8750300Y6902770D02*
D03*
X8465820Y6955483D02*
D03*
X4461904Y6869824D02*
D03*
X8750300Y6955470D02*
D03*
X8465820Y6902783D02*
D03*
X4499169Y6907089D02*
D03*
X5902960Y6918960D02*
D03*
X5255260Y6885940D02*
D03*
X5791200Y6814820D02*
D03*
X5933440Y6832600D02*
D03*
X8886989Y6774180D02*
D03*
X8832883Y6889880D02*
D03*
X8318728Y6748780D02*
D03*
X8326120Y7084060D02*
D03*
X8379460Y6896100D02*
D03*
X8413002Y6947109D02*
D03*
X4480625Y7228322D02*
D03*
X4404942Y7154178D02*
D03*
X8427637Y3316036D02*
D03*
X6155273Y7171085D02*
D03*
X6121039Y7349429D02*
D03*
X7886700Y1760220D02*
D03*
X111760Y7241540D02*
D03*
X8224840Y5592946D02*
D03*
X8221980Y5715000D02*
D03*
X8101980D02*
D03*
X7945120Y6240780D02*
D03*
X7950200Y6116320D02*
D03*
X7421880Y5989320D02*
D03*
X7513320Y5859780D02*
D03*
X8304840Y5592945D02*
D03*
X8877300Y746760D02*
D03*
X8798380Y838380D02*
D03*
X8545380Y956760D02*
D03*
X8628380Y1046480D02*
D03*
X8128000Y1430020D02*
D03*
X8242557Y1440061D02*
D03*
X8341360Y1445260D02*
D03*
X8376920Y1595120D02*
D03*
X8255000Y1597660D02*
D03*
X8115300Y1607820D02*
D03*
X8120380Y3309620D02*
D03*
X8321040Y3302000D02*
D03*
X8252460Y3429000D02*
D03*
X8310880Y3502660D02*
D03*
X8199120Y3515360D02*
D03*
X8094980Y3533140D02*
D03*
X8105140Y5204460D02*
D03*
X8161020Y5367020D02*
D03*
X8384977Y5412929D02*
D03*
X8310880Y5466080D02*
D03*
X8318500Y5275580D02*
D03*
X5029200Y6507480D02*
D03*
X5082540Y7045960D02*
D03*
X4841240Y6685280D02*
D03*
X1236980Y6080760D02*
D03*
X5682480Y6693487D02*
D03*
X5742940Y6692900D02*
D03*
X8460740Y3222330D02*
D03*
Y3275030D02*
D03*
X4627880Y7167880D02*
D03*
X4147536Y7479473D02*
D03*
X4074240Y7393940D02*
D03*
X4332986Y7436398D02*
D03*
X4244240Y7139940D02*
D03*
X4587240Y7056120D02*
D03*
X4334458Y7068945D02*
D03*
X4259061Y6990532D02*
D03*
X5531015Y6142381D02*
D03*
X5639805Y6226617D02*
D03*
X5717589Y6318064D02*
D03*
X5806742Y6390757D02*
D03*
X5897268Y7073814D02*
D03*
X5368272Y7404082D02*
D03*
X5500412Y7354756D02*
D03*
X5619097Y7148177D02*
D03*
X5578628Y7277195D02*
D03*
X5213260Y7501980D02*
D03*
X4892040Y7457440D02*
D03*
X4861560Y7350760D02*
D03*
X4532040Y7413580D02*
D03*
X5988482Y7155724D02*
D03*
X4805091Y6958924D02*
D03*
X4803140Y6906260D02*
D03*
X4838810Y7005354D02*
D03*
X4744604Y6895768D02*
D03*
X8465856Y6847997D02*
D03*
X8750300Y7008170D02*
D03*
X8547100Y5971540D02*
D03*
X8336280D02*
D03*
X8442960D02*
D03*
X8608060Y7054113D02*
D03*
Y6804127D02*
D03*
X8460740Y5152730D02*
D03*
Y5205430D02*
D03*
X7769860Y5580380D02*
D03*
X7772400Y5321300D02*
D03*
X7739380Y5257800D02*
D03*
X8303260Y5717540D02*
D03*
X8276040Y5838551D02*
D03*
X7975600Y5839460D02*
D03*
X7703820Y2989580D02*
D03*
X7764780Y2992120D02*
D03*
X7780020Y1076960D02*
D03*
X7724140D02*
D03*
X7508240Y6243320D02*
D03*
X8723620Y4584700D02*
D03*
X8798615Y4678680D02*
D03*
X8542840Y4794700D02*
D03*
X8700320D02*
D03*
X7713496Y4747434D02*
D03*
X8125460Y4048760D02*
D03*
X8227060D02*
D03*
X8547100D02*
D03*
X8440420D02*
D03*
X8336280D02*
D03*
X8887460Y3634740D02*
D03*
X8884920Y3528060D02*
D03*
X8882380Y3098800D02*
D03*
Y3208020D02*
D03*
X8703140Y2864300D02*
D03*
X8542840D02*
D03*
X8798380Y2740840D02*
D03*
X8723620Y2654300D02*
D03*
X7991811Y3588227D02*
D03*
X7712880Y2818300D02*
D03*
X8112760Y2242820D02*
D03*
X8122920Y2141220D02*
D03*
X8229600D02*
D03*
X8336280D02*
D03*
X8442960D02*
D03*
X8549640D02*
D03*
X8279353Y2039619D02*
D03*
X8233040Y1898357D02*
D03*
X7866380Y3070860D02*
D03*
X7835900Y1733144D02*
D03*
X7807960Y1440180D02*
D03*
X7739384Y1425660D02*
D03*
X8062680Y1999698D02*
D03*
X7876540Y1137920D02*
D03*
Y1363980D02*
D03*
X7876098Y1269595D02*
D03*
X7863657Y3269000D02*
D03*
X8303260Y1054100D02*
D03*
X8185000Y1056640D02*
D03*
X8745220Y1145540D02*
D03*
Y1252220D02*
D03*
X8744804Y1574080D02*
D03*
X8625840Y1681480D02*
D03*
X8489400Y1999702D02*
D03*
X8308340Y1910080D02*
D03*
X8135967Y1940560D02*
D03*
X7528129Y1688636D02*
D03*
X8181340Y2959100D02*
D03*
X8304680Y2963060D02*
D03*
X7866380Y3185160D02*
D03*
X7786540Y3276600D02*
D03*
X8114582Y4157262D02*
D03*
X8425303Y1264097D02*
D03*
X8425180Y1414780D02*
D03*
X8425303Y3171637D02*
D03*
X8745220Y3050540D02*
D03*
Y3159760D02*
D03*
X8746282Y3483098D02*
D03*
X8626712Y3588680D02*
D03*
X8336280Y3827780D02*
D03*
X8276040Y3907242D02*
D03*
X8489027D02*
D03*
X8062680Y3907238D02*
D03*
X8064365Y1868965D02*
D03*
X7937500Y2275840D02*
D03*
Y2405380D02*
D03*
X8101980Y3813400D02*
D03*
X8233392Y3808320D02*
D03*
X8187700Y3782060D02*
D03*
X7874000Y5006340D02*
D03*
X7875425Y5110480D02*
D03*
X8183880Y4899660D02*
D03*
X8305800Y4897120D02*
D03*
X8742444Y5184860D02*
D03*
X8742680Y5080000D02*
D03*
Y5412020D02*
D03*
X8613140Y5524500D02*
D03*
X8489400Y5837642D02*
D03*
X8950960Y1374140D02*
D03*
Y1546860D02*
D03*
Y3454400D02*
D03*
Y3281680D02*
D03*
Y5212080D02*
D03*
Y5384800D02*
D03*
X8425180Y5252720D02*
D03*
X8425303Y5102037D02*
D03*
X8305800Y4699000D02*
D03*
X8188960D02*
D03*
X7586980Y5580380D02*
D03*
X7599680Y5471160D02*
D03*
X7594600Y1633220D02*
D03*
X7762240Y871220D02*
D03*
X8188960Y863600D02*
D03*
X8306367Y865574D02*
D03*
X8435340Y701040D02*
D03*
X8486140Y1038860D02*
D03*
X8887460Y1193800D02*
D03*
X8872220Y1300480D02*
D03*
X8879840Y1620520D02*
D03*
X8884920Y1727200D02*
D03*
X8446222Y2609302D02*
D03*
X8486140Y2880360D02*
D03*
X8306367Y2770574D02*
D03*
X8188960Y2786380D02*
D03*
X7762240Y2778760D02*
D03*
X7709620Y3398520D02*
D03*
X7586980Y3545840D02*
D03*
X7585470Y3646114D02*
D03*
X7434580Y4310380D02*
D03*
X8187860Y1871227D02*
D03*
X8063890Y3776980D02*
D03*
X7934960Y4163060D02*
D03*
X7929880Y4302760D02*
D03*
X7447280Y3931920D02*
D03*
X7442200Y4058920D02*
D03*
X8887460Y5565140D02*
D03*
X8879840Y5458460D02*
D03*
X8887460Y5024120D02*
D03*
X8890000Y5133340D02*
D03*
X8422640Y4533900D02*
D03*
X8440420Y4836160D02*
D03*
X8008620Y5199380D02*
D03*
D60*
X7050541Y6100442D02*
G03*
X6852704Y6182360I-197837J-197934D01*
G01*
X5874164Y6052273D02*
G03*
X5811763Y6078096I-62402J-62487D01*
G01*
X5874207Y6052230D02*
G03*
X5874164Y6052273I-62444J-62444D01*
G01*
X5488184Y6094299D02*
G03*
X5449064Y6110503I-39120J-39120D01*
G01*
X5488310Y6094173D02*
G03*
X5488446Y6094038I38814J38814D01*
G01*
X6384185Y6015468D02*
G03*
X6391116Y5998714I23715J0D01*
G01*
D02*
G03*
X6391130Y5998699I16783J16754D01*
G01*
X6380993Y6023174D02*
G03*
X6373288Y6026365I-7705J-7705D01*
G01*
X6384185Y6015468D02*
G03*
X6380996Y6023171I-10897J0D01*
G01*
X4306356Y6565853D02*
G03*
X4298651Y6569044I-7705J-7705D01*
G01*
X4309548Y6331519D02*
G03*
X4349635Y6234647I137089J0D01*
G01*
X4309548Y6558147D02*
G03*
X4306359Y6565850I-10897J0D01*
G01*
X4259116Y6610957D02*
G03*
X4271392Y6581320I41912J0D01*
G01*
X4276775Y6575937D02*
G03*
X4293416Y6569044I16641J16641D01*
G01*
X5256056Y6151579D02*
G03*
X5189568Y6179119I-66488J-66488D01*
G01*
X5874207Y6052230D02*
G03*
X5936651Y6026365I62444J62444D01*
G01*
X6391130Y6080168D02*
G03*
X6391116Y6080153I16769J-16769D01*
G01*
X5499010Y6120436D02*
G03*
X5459890Y6136640I-39120J-39120D01*
G01*
X5506698Y6112748D02*
G03*
X5527303Y6104232I20604J20671D01*
G01*
X6391116Y6080153D02*
G03*
X6384185Y6063399I16783J-16754D01*
G01*
X6373288Y6052502D02*
G03*
X6380993Y6055694I0J10897D01*
G01*
X5892569Y6070831D02*
G03*
X5811930Y6104232I-80639J-80639D01*
G01*
X4373840Y6581320D02*
G03*
X4386116Y6610957I-29636J29636D01*
G01*
X4351816Y6569044D02*
G03*
X4368457Y6575937I0J23534D01*
G01*
X4346581Y6569044D02*
G03*
X4338876Y6565853I0J-10897D01*
G01*
X4338873Y6565850D02*
G03*
X4335684Y6558147I7709J-7703D01*
G01*
X5274314Y6170282D02*
G03*
X5189882Y6205255I-84432J-84432D01*
G01*
X5279973Y6164624D02*
G03*
X5347625Y6136640I67652J67784D01*
G01*
X4335684Y6342345D02*
G03*
X4375772Y6245473I137089J0D01*
G01*
X4375902Y6245343D02*
G03*
X4472774Y6205255I96872J97002D01*
G01*
X5892569Y6070831D02*
G03*
X5936819Y6052502I44249J44249D01*
G01*
X5526957Y6078096D02*
G03*
X5527124Y6078096I167J54891D01*
G01*
X5488446Y6094038D02*
G03*
X5526957Y6078096I38678J38949D01*
G01*
X5347198Y6110503D02*
G03*
X5347447Y6110503I248J121473D01*
G01*
X6380996Y6023171D02*
G03*
X6380993Y6023174I-7709J-7703D01*
G01*
X4306359Y6565850D02*
G03*
X4306356Y6565853I-7709J-7703D01*
G01*
X5261767Y6145867D02*
G03*
X5347198Y6110503I85680J86109D01*
G01*
X5261552Y6146082D02*
G03*
X5261767Y6145867I85894J85894D01*
G01*
X4357482Y6226800D02*
G03*
X4357713Y6226569I115113J115113D01*
G01*
X4349635Y6234647D02*
G03*
X4349700Y6234582I97002J96872D01*
G01*
X4472308Y6179119D02*
G03*
X4472595Y6179118I288J162795D01*
G01*
X4357713Y6226569D02*
G03*
X4472308Y6179119I114882J115344D01*
G01*
X5506665Y6112781D02*
G03*
X5506698Y6112748I20638J20638D01*
G01*
X6380996Y6055697D02*
G03*
X6384185Y6063399I-7709J7703D01*
G01*
X6380993Y6055694D02*
G03*
X6380996Y6055697I-7706J7706D01*
G01*
X4338876Y6565853D02*
G03*
X4338873Y6565850I7706J-7706D01*
G01*
X5279907Y6164690D02*
G03*
X5279973Y6164624I67718J67718D01*
G01*
X4375772Y6245473D02*
G03*
X4375837Y6245408I97002J96872D01*
G01*
D02*
G03*
X4375902Y6245343I96937J96937D01*
G01*
X7084060Y5724944D02*
G03*
X7002142Y5922781I-279853J0D01*
G01*
X7993720Y4485640D02*
G03*
X8162246Y4555446I0J238332D01*
G01*
X7143813Y4545267D02*
G03*
X7287854Y4485640I144041J144168D01*
G01*
X7084060Y4689434D02*
G03*
X7143687Y4545393I203794J0D01*
G01*
X6513288Y6066054D02*
G03*
X6508228Y6078282I-17306J0D01*
G01*
X6513288Y6063399D02*
G03*
X6516479Y6055694I10897J0D01*
G01*
X6508228Y6078282D02*
G03*
X6508219Y6078291I-12246J-12228D01*
G01*
X6516479Y6055694D02*
G03*
X6524185Y6052502I7706J7706D01*
G01*
X6954339Y5970584D02*
G03*
X6756502Y6052502I-197837J-197934D01*
G01*
X8225120Y5017478D02*
G03*
X8228586Y5009111I11833J0D01*
G01*
X8232052Y5000743D02*
G03*
X8228586Y5009111I-11833J0D01*
G01*
X8188382Y4544620D02*
G03*
X8258188Y4713146I-168526J168526D01*
G01*
X7994081Y4459503D02*
G03*
X8180471Y4536709I0J263596D01*
G01*
X7125022Y4527095D02*
G03*
X7125142Y4526975I162401J162160D01*
G01*
X7125395Y4526722D02*
G03*
X7125665Y4526453I162281J162281D01*
G01*
X6524185Y6026365D02*
G03*
X6516479Y6023174I0J-10897D01*
G01*
D02*
G03*
X6513288Y6015469I7705J-7705D01*
G01*
X6508228Y6000586D02*
G03*
X6513288Y6012814I-12246J12228D01*
G01*
X6508219Y6000577D02*
G03*
X6508228Y6000586I-12237J12237D01*
G01*
X7057923Y5724826D02*
G03*
X6983529Y5904431I-254000J0D01*
G01*
X7057923Y4689256D02*
G03*
X7125022Y4527095I229500J0D01*
G01*
X6935989Y5951971D02*
G03*
X6756384Y6026365I-179605J-179605D01*
G01*
X8261675Y5009131D02*
G03*
X8265120Y5017478I-8389J8347D01*
G01*
X8261654Y5009110D02*
G03*
X8261675Y5009131I-8368J8368D01*
G01*
X8261654Y5009110D02*
G03*
X8258188Y5000743I8367J-8367D01*
G01*
X8162246Y4555446D02*
G03*
X8232052Y4723972I-168526J168526D01*
G01*
X7143687Y4545393D02*
G03*
X7143750Y4545330I144168J144041D01*
G01*
D02*
G03*
X7143813Y4545267I144104J144104D01*
G01*
X6954388Y5970535D02*
G03*
X6954339Y5970584I-197886J-197886D01*
G01*
X7002142Y5922781D02*
G03*
X7002093Y5922830I-197934J-197837D01*
G01*
X7125665Y4526453D02*
G03*
X7287334Y4459503I162011J162550D01*
G01*
D02*
G03*
X7287676Y4459503I341J229500D01*
G01*
X7032191Y6081829D02*
G03*
X6852586Y6156223I-179605J-179605D01*
G01*
X7165340Y5854530D02*
G03*
X7098766Y6015254I-227299J0D01*
G01*
X7920616Y4591583D02*
G03*
X8006316Y4627082I0J121199D01*
G01*
X7235946Y4662551D02*
G03*
X7235988Y4662510I170600J170517D01*
G01*
X7165340Y4833068D02*
G03*
X7235946Y4662551I241206J0D01*
G01*
X7236308Y4662190D02*
G03*
X7406825Y4591583I170517J170600D01*
G01*
X7236266Y4662231D02*
G03*
X7236308Y4662190I170559J170559D01*
G01*
X4690548Y6558147D02*
G03*
X4687359Y6565850I-10897J0D01*
G01*
X4687356Y6565853D02*
G03*
X4679651Y6569044I-7705J-7705D01*
G01*
X4690548Y6447913D02*
G03*
X4742179Y6323198I176438J0D01*
G01*
D02*
G03*
X4742225Y6323152I124806J124715D01*
G01*
X4640116Y6610957D02*
G03*
X4652392Y6581320I41912J0D01*
G01*
X4657775Y6575937D02*
G03*
X4674416Y6569044I16641J16641D01*
G01*
X5359857Y6223071D02*
G03*
X5425501Y6195924I65643J65791D01*
G01*
X5569591Y6176073D02*
G03*
X5521668Y6195924I-47922J-47922D01*
G01*
X5569591Y6176073D02*
G03*
X5617513Y6156223I47922J47922D01*
G01*
X4742492Y6322885D02*
G03*
X4742598Y6322779I124635J124635D01*
G01*
D02*
G03*
X4867127Y6271260I124529J124742D01*
G01*
X5349336Y6233592D02*
G03*
X5258397Y6271260I-90939J-90939D01*
G01*
X8006316Y4627082D02*
G03*
X8042009Y4713251I-86169J86169D01*
G01*
X8045200Y4731267D02*
G03*
X8042009Y4723562I7706J-7706D01*
G01*
X8052905Y4734459D02*
G03*
X8045200Y4731267I0J-10897D01*
G01*
X8074962Y4741382D02*
G03*
X8074985Y4741405I-16747J16792D01*
G01*
X8058215Y4734459D02*
G03*
X8074962Y4741382I0J23716D01*
G01*
X7191477Y5854992D02*
G03*
X7117574Y6033408I-252318J0D01*
G01*
X7254608Y4680852D02*
G03*
X7407022Y4617720I152413J152413D01*
G01*
X7191477Y4833265D02*
G03*
X7254608Y4680852I215545J0D01*
G01*
X7920479Y4617720D02*
G03*
X7984365Y4642272I0J95393D01*
G01*
X4754840Y6581320D02*
G03*
X4767116Y6610957I-29636J29636D01*
G01*
X4716684Y6448064D02*
G03*
X4760814Y6341526I150667J0D01*
G01*
X4732816Y6569044D02*
G03*
X4749457Y6575937I0J23534D01*
G01*
X4727581Y6569044D02*
G03*
X4719876Y6565853I0J-10897D01*
G01*
X4719873Y6565850D02*
G03*
X4716684Y6558147I7709J-7703D01*
G01*
X5587897Y6194730D02*
G03*
X5617800Y6182360I29903J29960D01*
G01*
X5587868Y6194758D02*
G03*
X5521955Y6222060I-65913J-65913D01*
G01*
X5367554Y6252336D02*
G03*
X5258770Y6297396I-108784J-108784D01*
G01*
X4760842Y6341498D02*
G03*
X4867352Y6297397I106510J106567D01*
G01*
X8015803Y4719476D02*
G03*
X8015872Y4723562I-120549J4085D01*
G01*
X7984365Y4642273D02*
G03*
X8015803Y4719476I-89111J81289D01*
G01*
X7980544Y4638272D02*
G03*
X7984365Y4642273I-85290J85289D01*
G01*
X8012680Y4731267D02*
G03*
X8004975Y4734459I-7705J-7705D01*
G01*
X7982918Y4741382D02*
G03*
X7999665Y4734459I16747J16792D01*
G01*
X7982895Y4741405D02*
G03*
X7982918Y4741382I16770J16770D01*
G01*
X4687359Y6565850D02*
G03*
X4687356Y6565853I-7709J-7703D01*
G01*
X5359783Y6223145D02*
G03*
X5359857Y6223071I65717J65717D01*
G01*
X7050590Y6100393D02*
G03*
X7050541Y6100442I-197886J-197886D01*
G01*
X4760814Y6341526D02*
G03*
X4760842Y6341498I106539J106539D01*
G01*
X4719876Y6565853D02*
G03*
X4719873Y6565850I7706J-7706D01*
G01*
X5425629Y6222060D02*
G03*
X5425814Y6222060I185J67559D01*
G01*
X5378212Y6241679D02*
G03*
X5425629Y6222060I47602J47940D01*
G01*
X5587869Y6194758D02*
G03*
X5587897Y6194730I29931J29931D01*
G01*
X5378042Y6241848D02*
G03*
X5378212Y6241679I47772J47772D01*
G01*
X8015872Y4723562D02*
G03*
X8012680Y4731267I-10897J0D01*
G01*
X6561579Y615324D02*
G03*
X6622761Y589981I61183J61183D01*
G01*
X6561554Y615349D02*
G03*
X6464131Y655688I-97423J-97472D01*
G01*
X6112074Y626364D02*
G03*
X6104372Y629552I-7703J-7709D01*
G01*
X4309548Y776455D02*
G03*
X4352531Y672622I146902J0D01*
G01*
X6115269Y615999D02*
G03*
X6120339Y603758I17311J0D01*
G01*
X6115269Y618656D02*
G03*
X6112077Y626361I-10897J0D01*
G01*
X4276775Y954317D02*
G03*
X4293416Y947424I16641J16641D01*
G01*
X4306356Y944233D02*
G03*
X4298651Y947424I-7705J-7705D01*
G01*
X4259116Y989337D02*
G03*
X4271392Y959700I41912J0D01*
G01*
X4309548Y936527D02*
G03*
X4306359Y944230I-10897J0D01*
G01*
X4360401Y664752D02*
G03*
X4445487Y629552I85086J85236D01*
G01*
X4360326Y664827D02*
G03*
X4360401Y664752I85161J85161D01*
G01*
X6120337Y681477D02*
G03*
X6115269Y669240I12236J-12236D01*
G01*
X6104372Y655689D02*
G03*
X6112074Y658878I0J10897D01*
G01*
X4373840Y959700D02*
G03*
X4386116Y989337I-29636J29636D01*
G01*
X4351816Y947424D02*
G03*
X4368457Y954317I0J23534D01*
G01*
X4346581Y947424D02*
G03*
X4338876Y944233I0J-10897D01*
G01*
X4338873Y944230D02*
G03*
X4335684Y936527I7709J-7703D01*
G01*
Y787281D02*
G03*
X4378668Y683448I146902J0D01*
G01*
X4378711Y683405D02*
G03*
X4445624Y655689I66913J66913D01*
G01*
X6112077Y626361D02*
G03*
X6112074Y626364I-7706J-7706D01*
G01*
X4352531Y672622D02*
G03*
X4352574Y672579I103919J103832D01*
G01*
X4306359Y944230D02*
G03*
X4306356Y944233I-7709J-7703D01*
G01*
X4378668Y683448D02*
G03*
X4378711Y683405I103919J103832D01*
G01*
X6112077Y658881D02*
G03*
X6115269Y666586I-7705J7705D01*
G01*
X6112074Y658878D02*
G03*
X6112077Y658881I-7703J7709D01*
G01*
X4338876Y944233D02*
G03*
X4338873Y944230I7706J-7706D01*
G01*
X7995104Y799797D02*
G03*
X7995203Y890442I-39163J45365D01*
G01*
X6637388Y797192D02*
G03*
X6783670Y736600I146281J146281D01*
G01*
X7899608D02*
G03*
X7938771Y751166I0J59931D01*
G01*
X6517841Y1047682D02*
G03*
X6437303Y1081042I-80538J-80538D01*
G01*
X5165965Y1081042D02*
G03*
X5065521Y1039541I0J-142302D01*
G01*
X6576797Y943473D02*
G03*
X6544847Y1020675I-109250J0D01*
G01*
X5065521Y1039541D02*
G03*
X5065342Y1039363I100444J-100801D01*
G01*
X5065090Y1039110D02*
G03*
X5023527Y938767I100342J-100342D01*
G01*
X6576797Y943473D02*
G03*
X6637388Y797192I206873J0D01*
G01*
X4991455Y786871D02*
G03*
X4991487Y786903I-77428J77428D01*
G01*
X4991428Y786843D02*
G03*
X4991455Y786871I-40437J40492D01*
G01*
X4950991Y770110D02*
G03*
X4991428Y786843I0J57225D01*
G01*
X4733733Y802346D02*
G03*
X4811644Y770110I77911J78034D01*
G01*
X4716684Y843417D02*
G03*
X4733671Y802407I57997J0D01*
G01*
X4753159Y958019D02*
G03*
X4767116Y991714I-33695J33695D01*
G01*
X4753127Y957987D02*
G03*
X4753159Y958019I-25546J25609D01*
G01*
X4727581Y947424D02*
G03*
X4753127Y957987I0J36172D01*
G01*
X4719879Y944236D02*
G03*
X4719876Y944233I7703J-7709D01*
G01*
X4727581Y947424D02*
G03*
X4719879Y944236I0J-10897D01*
G01*
X4719876Y944233D02*
G03*
X4716684Y936527I7705J-7705D01*
G01*
X6550660Y942340D02*
G03*
X6525541Y1003019I-85849J0D01*
G01*
X8062728Y890486D02*
G03*
X8042009Y845163I39212J-45324D01*
G01*
X6499585Y1028975D02*
G03*
X6436984Y1054905I-62601J-62601D01*
G01*
X5166061D02*
G03*
X5083800Y1020857I0J-116398D01*
G01*
X7899608Y710463D02*
G03*
X7955850Y731382I0J86068D01*
G01*
X6619031Y778586D02*
G03*
X6783494Y710463I164463J164463D01*
G01*
X6550660Y942340D02*
G03*
X6618106Y779512I230274J0D01*
G01*
X5083756Y1020813D02*
G03*
X5049663Y938507I82306J-82306D01*
G01*
X4951098Y743973D02*
G03*
X5009860Y768313I0J83102D01*
G01*
X4690548Y843281D02*
G03*
X4715018Y784098I83804J0D01*
G01*
X4722907Y776209D02*
G03*
X4800818Y743973I77911J78034D01*
G01*
X4640116Y991714D02*
G03*
X4654073Y958019I47652J0D01*
G01*
X4654104Y957987D02*
G03*
X4679651Y947424I25546J25609D01*
G01*
X4654073Y958019D02*
G03*
X4654104Y957987I25578J25578D01*
G01*
X4687353Y944236D02*
G03*
X4679651Y947424I-7703J-7709D01*
G01*
X4687356Y944233D02*
G03*
X4687353Y944236I-7706J-7706D01*
G01*
X4690548Y936527D02*
G03*
X4687356Y944233I-10897J0D01*
G01*
X6544847Y1020675D02*
G03*
X6544798Y1020725I-77301J-77202D01*
G01*
X4991487Y786903D02*
G03*
X5023527Y864298I-77460J77395D01*
G01*
X4733671Y802407D02*
G03*
X4733733Y802346I77973J77973D01*
G01*
X8012183Y780013D02*
G03*
X8042009Y845163I-56242J65150D01*
G01*
X6525541Y1003019D02*
G03*
X6525515Y1003045I-60730J-60679D01*
G01*
X5083800Y1020857D02*
G03*
X5083756Y1020813I82262J-82350D01*
G01*
X5017624Y776077D02*
G03*
X5049663Y853472I-77460J77395D01*
G01*
X5017592Y776045D02*
G03*
X5017624Y776077I-77428J77428D01*
G01*
X4715018Y784098D02*
G03*
X4715093Y784022I59334J59183D01*
G01*
X4722845Y776270D02*
G03*
X4722907Y776209I77973J77973D01*
G01*
X8157377Y686100D02*
G03*
X8231772Y865705I-179605J179605D01*
G01*
X8231772Y1148161D02*
G03*
X8224868Y1176086I-59931J0D01*
G01*
X7956048Y589981D02*
G03*
X8135654Y664376I0J254000D01*
G01*
X6247560Y658880D02*
G03*
X6255265Y655688I7705J7705D01*
G01*
X6244927Y663139D02*
G03*
X6247560Y658879I10338J3446D01*
G01*
X6244368Y666584D02*
G03*
X6244927Y663139I10897J0D01*
G01*
X6244368Y669241D02*
G03*
X6239298Y681482I-17311J0D01*
G01*
X8264840Y1176140D02*
G03*
X8257909Y1148161I52999J-27979D01*
G01*
X7956163Y563845D02*
G03*
X8154053Y645814I0J279859D01*
G01*
X6543263Y596677D02*
G03*
X6622557Y563845I79294J79336D01*
G01*
X6543169Y596771D02*
G03*
X6463926Y629552I-79242J-79389D01*
G01*
X6251819Y628992D02*
G03*
X6247560Y626359I3446J-10338D01*
G01*
X6255265Y629551D02*
G03*
X6251819Y628992I0J-10897D01*
G01*
X6244927Y622100D02*
G03*
X6244368Y618654I10338J-3446D01*
G01*
X6247560Y626359D02*
G03*
X6244927Y622100I7705J-7705D01*
G01*
X6239300Y603763D02*
G03*
X6244368Y616000I-12236J12236D01*
G01*
X8176183Y667943D02*
G03*
X8257909Y865608I-198178J197666D01*
G01*
X8175927Y667686D02*
G03*
X8176183Y667943I-197922J197922D01*
G01*
X6543242Y596698D02*
G03*
X6543263Y596677I79315J79315D01*
G01*
X6543242Y596698D02*
G03*
X6543169Y596771I-79316J-79316D01*
G01*
X7990092Y2803806D02*
G03*
X8002320Y2798747I12228J12246D01*
G01*
X8012680Y2795555D02*
G03*
X8004975Y2798747I-7705J-7705D01*
G01*
X7990083Y2803816D02*
G03*
X7990092Y2803806I12237J12237D01*
G01*
X8015872Y2787850D02*
G03*
X8012683Y2795552I-10897J0D01*
G01*
X7935398Y2631475D02*
G03*
X7992302Y2655046I0J80475D01*
G01*
X7203827Y2848814D02*
G03*
X7267484Y2695132I217339J0D01*
G01*
X7267577Y2695040D02*
G03*
X7421166Y2631475I153589J153774D01*
G01*
X4753159Y3772289D02*
G03*
X4767116Y3805984I-33695J33695D01*
G01*
X4716684Y3686706D02*
G03*
X4791079Y3507101I254000J0D01*
G01*
X4727581Y3761694D02*
G03*
X4753159Y3772289I0J36172D01*
G01*
X4727581Y3761694D02*
G03*
X4719876Y3758503I0J-10897D01*
G01*
D02*
G03*
X4716684Y3750797I7705J-7705D01*
G01*
X7203827Y3038349D02*
G03*
X7121909Y3236186I-279853J0D01*
G01*
X4818438Y3479742D02*
G03*
X4994433Y3406876I175995J176111D01*
G01*
X7033137Y3324958D02*
G03*
X6835300Y3406876I-197837J-197934D01*
G01*
X7033186Y3324910D02*
G03*
X7033137Y3324958I-197886J-197886D01*
G01*
X8067788Y2803806D02*
G03*
X8067797Y2803816I-12228J12246D01*
G01*
X8055560Y2798747D02*
G03*
X8067788Y2803806I0J17306D01*
G01*
X8052905Y2798747D02*
G03*
X8045200Y2795555I0J-10897D01*
G01*
X8045197Y2795552D02*
G03*
X8042009Y2787850I7709J-7703D01*
G01*
X8018439Y2644220D02*
G03*
X8042009Y2701123I-56903J56903D01*
G01*
X7935633Y2605339D02*
G03*
X8010616Y2636398I0J106043D01*
G01*
X7177690Y2848616D02*
G03*
X7248852Y2676802I242996J0D01*
G01*
X7249129Y2676524D02*
G03*
X7249416Y2676238I171858J171858D01*
G01*
X4690548Y3686591D02*
G03*
X4772409Y3488809I279859J0D01*
G01*
X4690548Y3750797D02*
G03*
X4687356Y3758503I-10897J0D01*
G01*
X4640116Y3805984D02*
G03*
X4654073Y3772289I47652J0D01*
G01*
X4687356Y3758503D02*
G03*
X4679651Y3761694I-7706J-7706D01*
G01*
X4654073Y3772289D02*
G03*
X4679651Y3761694I25578J25578D01*
G01*
X7177690Y3038232D02*
G03*
X7103296Y3217837I-254000J0D01*
G01*
X7014788Y3306345D02*
G03*
X6835182Y3380740I-179605J-179605D01*
G01*
X8012683Y2795552D02*
G03*
X8012680Y2795555I-7709J-7703D01*
G01*
X7992302Y2655046D02*
G03*
X8015872Y2711949I-56903J56903D01*
G01*
X7267484Y2695132D02*
G03*
X7267577Y2695040I153681J153681D01*
G01*
X7121909Y3236186D02*
G03*
X7121860Y3236235I-197934J-197837D01*
G01*
X4818380Y3479800D02*
G03*
X4818438Y3479742I176053J176053D01*
G01*
X8045200Y2795555D02*
G03*
X8045197Y2795552I7706J-7706D01*
G01*
X7420636Y2605339D02*
G03*
X7420987Y2605338I351J243044D01*
G01*
X7249416Y2676238D02*
G03*
X7420636Y2605339I171572J172144D01*
G01*
X4772409Y3488809D02*
G03*
X4772516Y3488701I197998J197783D01*
G01*
X4800025Y3461192D02*
G03*
X4800317Y3460900I194230J194230D01*
G01*
X4993881Y3380740D02*
G03*
X4994255Y3380739I374J274682D01*
G01*
X4800317Y3460900D02*
G03*
X4993881Y3380740I193937J194522D01*
G01*
X8231772Y3069383D02*
G03*
X8228306Y3077751I-11833J0D01*
G01*
X8224840Y3086118D02*
G03*
X8228306Y3077751I11833J0D01*
G01*
X8031075Y2527300D02*
G03*
X8172989Y2586083I0J200697D01*
G01*
X7087919Y2794617D02*
G03*
X7162314Y2615012I254000J0D01*
G01*
X7175631Y2601695D02*
G03*
X7355236Y2527300I179605J179605D01*
G01*
X7087919Y2927085D02*
G03*
X7006001Y3124922I-279853J0D01*
G01*
X6947403Y3183518D02*
G03*
X6789250Y3249028I-158154J-158154D01*
G01*
X4670222Y3252220D02*
G03*
X4677927Y3249028I7706J7706D01*
G01*
X4667030Y3259925D02*
G03*
X4670222Y3252220I10897J0D01*
G01*
X4661970Y3274808D02*
G03*
X4661961Y3274817I-12246J-12228D01*
G01*
X4667030Y3262580D02*
G03*
X4661970Y3274808I-17306J0D01*
G01*
X8261354Y3077729D02*
G03*
X8257909Y3069383I8389J-8347D01*
G01*
X8031190Y2501163D02*
G03*
X8191389Y2567520I0J226556D01*
G01*
X7061783Y2926967D02*
G03*
X6987388Y3106572I-254000J0D01*
G01*
X7061783Y2794502D02*
G03*
X7143644Y2596720I279859J0D01*
G01*
X6929228Y3164732D02*
G03*
X6788818Y3222892I-140410J-140410D01*
G01*
X4677927D02*
G03*
X4670222Y3219700I0J-10897D01*
G01*
D02*
G03*
X4667030Y3211995I7705J-7705D01*
G01*
X4661970Y3197112D02*
G03*
X4667030Y3209340I-12246J12228D01*
G01*
X4661961Y3197103D02*
G03*
X4661970Y3197112I-12237J12237D01*
G01*
X8173055Y2586148D02*
G03*
X8231772Y2727996I-141979J141848D01*
G01*
X8172989Y2586083D02*
G03*
X8173055Y2586148I-141913J141913D01*
G01*
X7006001Y3124922D02*
G03*
X7005952Y3124970I-197934J-197837D01*
G01*
X8261375Y3077751D02*
G03*
X8264840Y3086118I-8367J8367D01*
G01*
X8261375Y3077751D02*
G03*
X8261354Y3077729I8368J-8368D01*
G01*
X8199191Y2575322D02*
G03*
X8257909Y2717170I-141979J141848D01*
G01*
X8199126Y2575257D02*
G03*
X8199191Y2575322I-141913J141913D01*
G01*
X7157520Y2582843D02*
G03*
X7354786Y2501163I197642J198279D01*
G01*
X7157202Y2583161D02*
G03*
X7157520Y2582843I197961J197961D01*
G01*
X7354786Y2501163D02*
G03*
X7355163Y2501163I377J279959D01*
G01*
X7143644Y2596720D02*
G03*
X7143752Y2596612I197998J197783D01*
G01*
X4363071Y3260606D02*
G03*
X4454249Y3222892I91178J91358D01*
G01*
X4309548Y3378645D02*
G03*
X4355167Y3268511I155753J0D01*
G01*
X4276775Y3768587D02*
G03*
X4293416Y3761694I16641J16641D01*
G01*
X4259116Y3803607D02*
G03*
X4271392Y3773970I41912J0D01*
G01*
X4309548Y3750797D02*
G03*
X4306356Y3758503I-10897J0D01*
G01*
D02*
G03*
X4298651Y3761694I-7705J-7705D01*
G01*
X4544858Y3195240D02*
G03*
X4544873Y3195226I16783J16754D01*
G01*
X4537927Y3211995D02*
G03*
X4544858Y3195240I23715J0D01*
G01*
X4534738Y3219697D02*
G03*
X4534735Y3219700I-7709J-7703D01*
G01*
X4537927Y3211995D02*
G03*
X4534738Y3219697I-10897J0D01*
G01*
X4534735Y3219700D02*
G03*
X4527030Y3222892I-7705J-7705D01*
G01*
X4381303Y3279337D02*
G03*
X4381322Y3279318I73171J73171D01*
G01*
D02*
G03*
X4454474Y3249028I73152J73190D01*
G01*
X4373840Y3773970D02*
G03*
X4386116Y3803607I-29636J29636D01*
G01*
X4351816Y3761694D02*
G03*
X4368457Y3768587I0J23534D01*
G01*
X4346581Y3761694D02*
G03*
X4338876Y3758503I0J-10897D01*
G01*
X4335684Y3389471D02*
G03*
X4381303Y3279337I155753J0D01*
G01*
X4338876Y3758503D02*
G03*
X4335684Y3750797I7706J-7706D01*
G01*
X4544858Y3276680D02*
G03*
X4537927Y3259925I16783J-16754D01*
G01*
X4544873Y3276694D02*
G03*
X4544858Y3276680I16769J-16769D01*
G01*
X4534738Y3252223D02*
G03*
X4537927Y3259925I-7709J7703D01*
G01*
X4534735Y3252220D02*
G03*
X4534738Y3252223I-7706J7706D01*
G01*
X4527030Y3249028D02*
G03*
X4534735Y3252220I0J10897D01*
G01*
X4362981Y3260696D02*
G03*
X4363071Y3260606I91268J91268D01*
G01*
X8069660Y4851320D02*
G03*
X8052906Y4858252I-16754J-16783D01*
G01*
X8069674Y4851306D02*
G03*
X8069660Y4851320I-16769J-16769D01*
G01*
X8045203Y4861440D02*
G03*
X8052906Y4858252I7703J7709D01*
G01*
X8045200Y4861443D02*
G03*
X8045203Y4861440I7706J7706D01*
G01*
X8042009Y4869149D02*
G03*
X8045200Y4861443I10897J0D01*
G01*
Y4876853D02*
G03*
X8042009Y4869149I7705J-7705D01*
G01*
X8132029Y4971029D02*
G03*
X8137909Y4999665I-66795J28635D01*
G01*
X8116623Y4948276D02*
G03*
X8132029Y4971029I-51389J51389D01*
G01*
X8141375Y5008151D02*
G03*
X8137909Y4999783I8367J-8367D01*
G01*
X8141375Y5008151D02*
G03*
X8144840Y5016518I-8367J8367D01*
G01*
X7988220Y4851320D02*
G03*
X7988206Y4851306I16754J-16783D01*
G01*
X8004975Y4858252D02*
G03*
X7988220Y4851320I0J-23715D01*
G01*
X8012677Y4861440D02*
G03*
X8012680Y4861443I-7703J7709D01*
G01*
X8004975Y4858252D02*
G03*
X8012677Y4861440I0J10897D01*
G01*
X8022891Y4891507D02*
G03*
X8015872Y4874561I16945J-16945D01*
G01*
X8109542Y4985505D02*
G03*
X8111772Y4999783I-44593J14278D01*
G01*
X8098058Y4966674D02*
G03*
X8109542Y4985505I-33109J33109D01*
G01*
X8108327Y5008129D02*
G03*
X8108306Y5008151I-8389J-8347D01*
G01*
X8111772Y4999783D02*
G03*
X8108327Y5008129I-11834J0D01*
G01*
X8104840Y5016518D02*
G03*
X8108306Y5008151I11833J0D01*
G01*
X8012680Y4861443D02*
G03*
X8015872Y4869149I-7705J7705D01*
G01*
X8069660Y1012658D02*
G03*
X8052906Y1019590I-16754J-16783D01*
G01*
X8069674Y1012644D02*
G03*
X8069660Y1012658I-16769J-16769D01*
G01*
X8045200Y1022782D02*
G03*
X8052906Y1019590I7706J7706D01*
G01*
X8042009Y1030487D02*
G03*
X8045200Y1022782I10897J0D01*
G01*
Y1038191D02*
G03*
X8042009Y1030487I7705J-7705D01*
G01*
X8141375Y1170211D02*
G03*
X8137909Y1161843I8367J-8367D01*
G01*
X8141375Y1170211D02*
G03*
X8144840Y1178578I-8367J8367D01*
G01*
X7988220Y1012658D02*
G03*
X7988206Y1012644I16754J-16783D01*
G01*
X8004975Y1019590D02*
G03*
X7988220Y1012658I0J-23715D01*
G01*
X8004975Y1019590D02*
G03*
X8012680Y1022782I0J10897D01*
G01*
X8016250Y1040139D02*
G03*
X8015872Y1035900I23586J-4239D01*
G01*
X8022891Y1052845D02*
G03*
X8016250Y1040139I16945J-16945D01*
G01*
X8097548Y1127502D02*
G03*
X8111772Y1161843I-34341J34341D01*
G01*
X8104840Y1178578D02*
G03*
X8108306Y1170211I11833J0D01*
G01*
X8012680Y1022782D02*
G03*
X8015872Y1030487I-7705J7705D01*
G01*
X8111772Y1161843D02*
G03*
X8108306Y1170211I-11834J0D01*
G01*
X8116097Y1109088D02*
G03*
X8137909Y1161746I-52658J52658D01*
G01*
X8108285Y3077771D02*
G03*
X8108306Y3077750I8389J8347D01*
G01*
X8104840Y3086118D02*
G03*
X8108285Y3077771I11834J0D01*
G01*
X8111772Y3069383D02*
G03*
X8108306Y3077750I-11833J0D01*
G01*
X8108055Y3060001D02*
G03*
X8111772Y3069001I-9038J9000D01*
G01*
X8108036Y3059982D02*
G03*
X8108055Y3060001I-9019J9019D01*
G01*
X8015874Y2934236D02*
G03*
X8015872Y2933604I82597J-632D01*
G01*
X8024213Y2969776D02*
G03*
X8015874Y2934236I74258J-36172D01*
G01*
X8040065Y2992011D02*
G03*
X8024213Y2969776I58407J-58407D01*
G01*
X8004975Y2922540D02*
G03*
X8012680Y2925731I0J10897D01*
G01*
X7982918Y2915616D02*
G03*
X7982895Y2915594I16747J-16792D01*
G01*
X7999665Y2922540D02*
G03*
X7982918Y2915616I0J-23716D01*
G01*
X8141375Y3077751D02*
G03*
X8144840Y3086118I-8367J8367D01*
G01*
X8141375Y3077751D02*
G03*
X8137909Y3069383I8367J-8367D01*
G01*
X8130356Y3045339D02*
G03*
X8137909Y3063588I-18270J18249D01*
G01*
X8130345Y3045329D02*
G03*
X8130356Y3045339I-18260J18260D01*
G01*
X8042014Y2934228D02*
G03*
X8042009Y2933437I56861J-791D01*
G01*
X8046156Y2954756D02*
G03*
X8042014Y2934228I52719J-21319D01*
G01*
X8058664Y2973648D02*
G03*
X8046156Y2954756I40211J-40211D01*
G01*
X8042009Y2933437D02*
G03*
X8045200Y2925731I10897J0D01*
G01*
D02*
G03*
X8052905Y2922540I7705J7705D01*
G01*
X8074962Y2915616D02*
G03*
X8058215Y2922540I-16747J-16792D01*
G01*
X8074985Y2915594D02*
G03*
X8074962Y2915616I-16770J-16770D01*
G01*
X8012680Y2925731D02*
G03*
X8015872Y2933437I-7706J7706D01*
G01*
X7815580Y4485640D02*
X7993720D01*
X7678420D02*
X7815580D01*
X7653020Y4511040D02*
X7678420Y4485640D01*
X7614920Y4511040D02*
X7653020D01*
X7589520Y4485640D02*
X7614920Y4511040D01*
X7551420Y4485640D02*
X7589520D01*
X7526020Y4511040D02*
X7551420Y4485640D01*
X7487920Y4511040D02*
X7526020D01*
X7462520Y4485640D02*
X7487920Y4511040D01*
X7424420Y4485640D02*
X7462520D01*
X7287854D02*
X7424420D01*
X5938520Y6052502D02*
X6062980D01*
X6088380Y6077902D01*
X6126480D01*
X6151880Y6052502D01*
X6189980D01*
X6215380Y6077902D01*
X6253480D01*
X6278880Y6052502D01*
X6316980D01*
X5936819D02*
X5938520D01*
X6316980D02*
X6373288D01*
X6667500Y6182360D02*
X6852704D01*
X6065520D02*
X6159500D01*
X6184900Y6207760D01*
X6223000D01*
X6248400Y6182360D01*
X6286500D01*
X6311900Y6207760D01*
X6350000D01*
X6375400Y6182360D01*
X6413500D01*
X6438900Y6207760D01*
X6477000D01*
X6502400Y6182360D01*
X6540500D01*
X6565900Y6207760D01*
X6604000D01*
X6629400Y6182360D01*
X6667500D01*
X5617800D02*
X6065520D01*
X5527124Y6078096D02*
X5811763D01*
X5347447Y6110503D02*
X5449064D01*
X5488184Y6094299D02*
X5488310Y6094173D01*
X6391130Y5998699D02*
X6403736Y5986094D01*
X6391116Y5998714D02*
X6391130Y5998699D01*
X5936651Y6026365D02*
X6373288D01*
X4293416Y6569044D02*
X4298651D01*
X4309548Y6331519D02*
Y6558147D01*
X4259116Y6610957D02*
Y6619476D01*
X4271392Y6581320D02*
X4276775Y6575937D01*
X5256056Y6151579D02*
X5261552Y6146082D01*
X4472595Y6179119D02*
X5189568D01*
X5527303Y6104232D02*
X5811930D01*
X6391130Y6080168D02*
X6403736Y6092774D01*
X6391116Y6080153D02*
X6391130Y6080168D01*
X5499010Y6120436D02*
X5506665Y6112781D01*
X5347625Y6136640D02*
X5459890D01*
X4368457Y6575937D02*
X4373840Y6581320D01*
X4346581Y6569044D02*
X4351816D01*
X4335684Y6342345D02*
Y6558147D01*
X5274315Y6170282D02*
X5279907Y6164690D01*
X4472774Y6205255D02*
X5189882D01*
X4349700Y6234582D02*
X4357482Y6226800D01*
X4386116Y6610957D02*
Y6619476D01*
X8232052Y4723972D02*
Y5000743D01*
X7084060Y4689434D02*
Y5724944D01*
X6513288Y6063399D02*
Y6066054D01*
X6493736Y6092774D02*
X6508219Y6078291D01*
X6508228Y6078282D01*
X6524185Y6052502D02*
X6756502D01*
X8225120Y5040040D02*
Y5050866D01*
Y5017478D02*
Y5040040D01*
X8180472Y4536709D02*
X8188382Y4544620D01*
X7287676Y4459503D02*
X7994081D01*
X7125142Y4526975D02*
X7125395Y4526722D01*
X6524185Y6026365D02*
X6756384D01*
X6513288Y6012814D02*
Y6015469D01*
X6508219Y6000577D02*
X6508228Y6000586D01*
X6935989Y5951971D02*
X6983529Y5904431D01*
X7057923Y4689256D02*
Y5724826D01*
X6493736Y5986094D02*
X6508219Y6000577D01*
X8258188Y4713146D02*
Y5000743D01*
X6954388Y5970535D02*
X7002093Y5922830D01*
X8265120Y5017478D02*
Y5040040D01*
X7032191Y6081829D02*
X7098766Y6015254D01*
X5617513Y6156223D02*
X6852586D01*
X7165340Y4833068D02*
Y5854530D01*
X7235988Y4662510D02*
X7236266Y4662231D01*
X7406825Y4591583D02*
X7920616D01*
X4690548Y6447913D02*
Y6558147D01*
X4640116Y6610957D02*
Y6619476D01*
X4674416Y6569044D02*
X4679651D01*
X4652392Y6581320D02*
X4657775Y6575937D01*
X5349336Y6233592D02*
X5359783Y6223145D01*
X5425501Y6195924D02*
X5521668D01*
X4742225Y6323152D02*
X4742492Y6322886D01*
X4867127Y6271260D02*
X5258397D01*
X8042009Y4713251D02*
Y4723562D01*
X8052905Y4734459D02*
X8058215D01*
X8074985Y4741405D02*
X8082280Y4748700D01*
X8074962Y4741382D02*
X8074985Y4741405D01*
X7191477Y4833265D02*
Y5854992D01*
X7050590Y6100393D02*
X7117574Y6033408D01*
X7407022Y4617720D02*
X7920479D01*
X4749457Y6575937D02*
X4754840Y6581320D01*
X4727581Y6569044D02*
X4732816D01*
X4716684Y6448064D02*
Y6558147D01*
X5425814Y6222060D02*
X5521955D01*
X4867352Y6297397D02*
X5258770D01*
X5367554Y6252336D02*
X5378043Y6241848D01*
X7980277Y4638005D02*
X7980544Y4638272D01*
X7999665Y4734459D02*
X8004975D01*
X7982896Y4741405D02*
X7982918Y4741382D01*
X7975600Y4748700D02*
X7982896Y4741405D01*
X4767116Y6610957D02*
Y6619476D01*
X4677927Y3249028D02*
X5440045D01*
X5694045D02*
X5821680D01*
X5668645Y3274428D02*
X5694045Y3249028D01*
X5630545Y3274428D02*
X5668645D01*
X5605145Y3249028D02*
X5630545Y3274428D01*
X5567045Y3249028D02*
X5605145D01*
X5541645Y3274428D02*
X5567045Y3249028D01*
X5503545Y3274428D02*
X5541645D01*
X5478145Y3249028D02*
X5503545Y3274428D01*
X5440045Y3249028D02*
X5478145D01*
X5821680D02*
X6789250D01*
X4994433Y3406876D02*
X6065520D01*
X6126480D01*
X6151880Y3432276D01*
X6189980D01*
X6215380Y3406876D01*
X6253480D01*
X6278880Y3432276D01*
X6316980D01*
X6342380Y3406876D01*
X6380480D01*
X6405880Y3432276D01*
X6443980D01*
X6469380Y3406876D01*
X6507480D01*
X6532880Y3432276D01*
X6570980D01*
X6596380Y3406876D01*
X6634480D01*
X6835300D01*
X6622761Y589981D02*
X7571740D01*
X7612733D01*
X7638133Y615381D01*
X7676233D01*
X7701633Y589981D01*
X7739733D01*
X7765133Y615381D01*
X7803233D01*
X7828633Y589981D01*
X7866733D01*
X7956048D01*
X6561554Y615349D02*
X6561579Y615324D01*
X4445487Y629552D02*
X6104372D01*
X6120339Y603758D02*
X6134817Y589280D01*
X6115269Y615999D02*
Y618656D01*
X4293416Y947424D02*
X4298651D01*
X4259116Y989337D02*
Y997856D01*
X4271392Y959700D02*
X4276775Y954317D01*
X4309548Y776455D02*
Y936527D01*
X6120337Y681477D02*
X6134820Y695960D01*
X6115269Y666586D02*
Y669240D01*
X4445624Y655689D02*
X6104372D01*
X4368457Y954317D02*
X4373840Y959700D01*
X4346581Y947424D02*
X4351816D01*
X4335684Y787281D02*
Y936527D01*
X4386116Y989337D02*
Y997856D01*
X4352574Y672579D02*
X4360326Y664827D01*
X7995152Y890487D02*
X7995203Y890442D01*
X7938771Y751166D02*
X7995104Y799797D01*
X6783670Y736600D02*
X7277100D01*
X7835900D02*
X7899608D01*
X6517841Y1047682D02*
X6544798Y1020725D01*
X5165965Y1081042D02*
X6437303D01*
X5065090Y1039110D02*
X5065342Y1039362D01*
X5023527Y864298D02*
Y938767D01*
X4811644Y770110D02*
X4950991D01*
X4716684Y843417D02*
Y936527D01*
X8062729Y890487D02*
X8082280Y910038D01*
X8062728Y890486D02*
X8062729Y890487D01*
X5166061Y1054905D02*
X6436984D01*
X6499585Y1028975D02*
X6525515Y1003045D01*
X7719726Y710463D02*
X7899608D01*
X6618106Y779512D02*
X6619031Y778586D01*
X6783494Y710463D02*
X7399436D01*
X5049663Y853472D02*
Y938507D01*
X5009860Y768313D02*
X5017592Y776045D01*
X4800818Y743973D02*
X4951098D01*
X4640116Y991714D02*
Y997856D01*
X4690548Y843281D02*
Y936527D01*
X7975600Y910038D02*
X7995152Y890487D01*
X7734300Y762000D02*
X7772400D01*
X7605121D02*
X7643221D01*
X7346762D02*
X7384862D01*
X7321362Y736600D02*
X7346762Y762000D01*
X7475941D02*
X7514041D01*
X7277100Y736600D02*
X7321362D01*
X7772400Y762000D02*
X7797800Y736600D01*
X7643221Y762000D02*
X7669710Y735510D01*
X7707810D02*
X7734300Y762000D01*
X7797800Y736600D02*
X7835900D01*
X7669710Y735510D02*
X7707810D01*
X7449452D02*
X7475941Y762000D01*
X7514041D02*
X7540531Y735510D01*
X7384862Y762000D02*
X7411352Y735510D01*
X7540531D02*
X7578631D01*
X7605121Y762000D01*
X7411352Y735510D02*
X7449452D01*
X7955850Y731382D02*
X8012183Y780013D01*
X7718636Y709374D02*
X7719726Y710463D01*
X7400526Y709374D02*
X7718636D01*
X7399436Y710463D02*
X7400526Y709374D01*
X4715093Y784022D02*
X4722845Y776270D01*
X4767116Y991714D02*
Y997856D01*
X8231772Y1076770D02*
Y1148161D01*
X8224840Y1176140D02*
X8224868Y1176086D01*
X8135654Y664376D02*
X8157377Y686100D01*
X6255265Y655688D02*
X6464131D01*
X6244368Y666585D02*
Y669241D01*
Y666584D02*
Y666585D01*
X6224820Y695960D02*
X6239298Y681482D01*
X8264840Y1176140D02*
Y1201140D01*
X8257909Y1076770D02*
Y1148161D01*
X8154053Y645813D02*
X8175927Y667687D01*
X6622557Y563845D02*
X7956163D01*
X6349623Y629552D02*
X6463926D01*
X6255265Y629551D02*
X6349623D01*
X6255265D02*
X6255265D01*
X6244368Y618654D02*
Y618654D01*
Y616000D02*
Y618654D01*
X6224817Y589280D02*
X6239300Y603763D01*
X8231772Y865705D02*
Y1076770D01*
X8224840Y1176140D02*
Y1201140D01*
X8257909Y865608D02*
Y1076770D01*
X8002320Y2798747D02*
X8004975D01*
X7975600Y2818298D02*
X7990083Y2803816D01*
X7203827Y2848814D02*
Y3038349D01*
X7990083Y2803816D02*
X7990092Y2803806D01*
X8015872Y2711949D02*
Y2787850D01*
X7421166Y2631475D02*
X7935398D01*
X4716684Y3686706D02*
Y3750797D01*
X4791079Y3507101D02*
X4818380Y3479800D01*
X8067797Y2803816D02*
X8082280Y2818298D01*
X8067788Y2803806D02*
X8067797Y2803816D01*
X8052905Y2798747D02*
X8055560D01*
X8042009Y2701123D02*
Y2787850D01*
X8010617Y2636398D02*
X8018439Y2644220D01*
X7420987Y2605339D02*
X7935633D01*
X7248863Y2676791D02*
X7249129Y2676525D01*
X4690548Y3686591D02*
Y3750797D01*
X4640116Y3805984D02*
Y3812126D01*
X7177690Y2848616D02*
Y3038232D01*
X4994255Y3380740D02*
X6835182D01*
X7014788Y3306345D02*
X7103296Y3217837D01*
X4767116Y3805984D02*
Y3812126D01*
X4772517Y3488701D02*
X4800025Y3461192D01*
X7033186Y3324909D02*
X7121860Y3236235D01*
X8231772Y2727996D02*
Y3069383D01*
X8224840Y3086118D02*
Y3108680D01*
X7087919Y2794617D02*
Y2927085D01*
X7355236Y2527300D02*
X8031075D01*
X7162314Y2615012D02*
X7175631Y2601695D01*
X6947404Y3183519D02*
X7005952Y3124970D01*
X4667030Y3259925D02*
Y3262580D01*
X4661961Y3274817D02*
X4661970Y3274808D01*
X4647478Y3289300D02*
X4661961Y3274817D01*
X8257909Y2717170D02*
Y3069383D01*
X8191389Y2567520D02*
X8199126Y2575257D01*
X7355163Y2501163D02*
X8031190D01*
X7061783Y2794502D02*
Y2926967D01*
X6929228Y3164732D02*
X6987388Y3106572D01*
X4677927Y3222892D02*
X6788818D01*
X4667030Y3209340D02*
Y3211995D01*
X4661961Y3197103D02*
X4661970Y3197112D01*
X4647478Y3182620D02*
X4661961Y3197103D01*
X8264840Y3086118D02*
Y3108680D01*
X7143752Y2596612D02*
X7157202Y2583162D01*
X4355167Y3268511D02*
X4362981Y3260696D01*
X4271392Y3773970D02*
X4276775Y3768587D01*
X4293416Y3761694D02*
X4298651D01*
X4259116Y3803607D02*
Y3812126D01*
X4309548Y3378645D02*
Y3750797D01*
X4544873Y3195226D02*
X4557479Y3182620D01*
X4544858Y3195240D02*
X4544873Y3195226D01*
X4454249Y3222892D02*
X4527030D01*
X4368457Y3768587D02*
X4373840Y3773970D01*
X4346581Y3761694D02*
X4351816D01*
X4335684Y3389471D02*
Y3750797D01*
X4544873Y3276694D02*
X4557479Y3289300D01*
X4544858Y3276680D02*
X4544873Y3276694D01*
X4454474Y3249028D02*
X4527030D01*
X4386116Y3803607D02*
Y3812126D01*
X8069674Y4851306D02*
X8082280Y4838700D01*
X8069660Y4851320D02*
X8069674Y4851306D01*
X8045200Y4876853D02*
X8116623Y4948276D01*
X8137909Y4999665D02*
Y4999783D01*
X7988206Y4851306D02*
X7988220Y4851320D01*
X7975600Y4838700D02*
X7988206Y4851306D01*
X8015872Y4869149D02*
Y4874561D01*
X8022891Y4891507D02*
X8098058Y4966674D01*
X8104840Y5016518D02*
Y5039080D01*
X8144840Y5016518D02*
Y5039080D01*
X8069674Y1012644D02*
X8082280Y1000038D01*
X8069660Y1012658D02*
X8069674Y1012644D01*
X8045200Y1038191D02*
X8116097Y1109088D01*
X8137909Y1161746D02*
Y1161843D01*
X7988206Y1012644D02*
X7988220Y1012658D01*
X7975600Y1000038D02*
X7988206Y1012644D01*
X8015872Y1030487D02*
Y1035900D01*
X8022891Y1052845D02*
X8097548Y1127502D01*
X8104840Y1178578D02*
Y1201140D01*
X8144840Y1178578D02*
Y1201140D01*
X8104840Y3086118D02*
Y3108680D01*
X8111772Y3069001D02*
Y3069383D01*
X8108036Y3059982D02*
X8108055Y3060001D01*
X8040065Y2992011D02*
X8108036Y3059982D01*
X8015872Y2933437D02*
Y2933604D01*
X7999665Y2922540D02*
X8004975D01*
X7982896Y2915594D02*
X7982918Y2915616D01*
X7975600Y2908298D02*
X7982896Y2915594D01*
X8137909Y3063588D02*
Y3069383D01*
X8130345Y3045329D02*
X8130356Y3045339D01*
X8058664Y2973648D02*
X8130345Y3045329D01*
X8052905Y2922540D02*
X8058215D01*
X8074985Y2915594D02*
X8082280Y2908298D01*
X8074962Y2915616D02*
X8074985Y2915594D01*
X8144840Y3086118D02*
Y3108680D01*
D61*
X8679534Y861060D02*
G03*
X8714764Y873564I0J55880D01*
G01*
X8591509Y806680D02*
G03*
X8541386Y838200I-50291J-24361D01*
G01*
X8415814Y877328D02*
G03*
X8455228Y861060I39414J39612D01*
G01*
X8353644Y933906D02*
G03*
X8369912Y894493I55880J0D01*
G01*
X8384840Y931448D02*
G03*
X8401108Y892034I55880J0D01*
G01*
X8353644Y1143965D02*
G03*
X8349251Y1165682I-55880J-0D01*
G01*
X8409979Y854426D02*
G03*
X8449351Y838200I39372J39654D01*
G01*
X8679534Y2768600D02*
G03*
X8714764Y2781104I0J55880D01*
G01*
X8591509Y2714220D02*
G03*
X8541386Y2745740I-50291J-24361D01*
G01*
X8415814Y2784868D02*
G03*
X8455228Y2768600I39414J39612D01*
G01*
X8353644Y2841446D02*
G03*
X8369912Y2802033I55880J0D01*
G01*
X8384840Y2838988D02*
G03*
X8401108Y2799574I55880J0D01*
G01*
X8353644Y3051505D02*
G03*
X8349251Y3073222I-55880J-0D01*
G01*
X8409979Y2761966D02*
G03*
X8449351Y2745740I39372J39654D01*
G01*
X8409979Y4692366D02*
G03*
X8449351Y4676140I39372J39654D01*
G01*
X8353644Y4981905D02*
G03*
X8349251Y5003622I-55880J-0D01*
G01*
X8384840Y4769388D02*
G03*
X8401108Y4729974I55880J0D01*
G01*
X8353644Y4771846D02*
G03*
X8369912Y4732433I55880J0D01*
G01*
X8415814Y4715268D02*
G03*
X8455228Y4699000I39414J39612D01*
G01*
X8591509Y4644620D02*
G03*
X8541386Y4676140I-50291J-24361D01*
G01*
X8679534Y4699000D02*
G03*
X8714764Y4711504I0J55880D01*
G01*
X8486140Y861060D02*
X8679534D01*
X8455228D02*
X8486140D01*
Y910038D02*
X8486140Y910038D01*
X8486140Y861060D02*
Y910038D01*
Y2768600D02*
X8679534D01*
X8455228D02*
X8486140D01*
Y2817578D02*
X8486140Y2817578D01*
X8486140Y2768600D02*
Y2817578D01*
Y4699000D02*
X8679534D01*
X8455228D02*
X8486140D01*
X8486140Y4699000D02*
Y4747978D01*
X8486140Y4699000D02*
X8486140Y4699000D01*
X8384840Y931448D02*
Y1201140D01*
X8353644Y1143965D02*
X8353644Y933906D01*
X8449351Y838200D02*
X8486140D01*
X8344840Y1176140D02*
Y1201140D01*
X8743460Y896840D02*
X8798380Y956760D01*
X8714764Y873564D02*
X8743460Y896840D01*
X8344840Y1176140D02*
X8349251Y1165682D01*
X8591509Y806680D02*
X8628380Y746760D01*
X8401108Y892034D02*
X8415814Y877327D01*
X8369912Y894493D02*
X8409979Y854426D01*
X8486140Y791762D02*
Y838200D01*
X8541386D01*
X8384840Y2838988D02*
Y3108680D01*
X8353644Y3051505D02*
X8353644Y2841446D01*
X8449351Y2745740D02*
X8486140D01*
X8344840Y3083680D02*
Y3108680D01*
X8743460Y2804380D02*
X8798380Y2864300D01*
X8714764Y2781104D02*
X8743460Y2804380D01*
X8344840Y3083680D02*
X8349251Y3073222D01*
X8591509Y2714220D02*
X8628380Y2654300D01*
X8401108Y2799574D02*
X8415814Y2784867D01*
X8369912Y2802033D02*
X8409979Y2761966D01*
X8486140Y2699302D02*
Y2745740D01*
X8541386D01*
X8486140Y4676140D02*
X8541386D01*
X8486140Y4629702D02*
Y4676140D01*
X8369912Y4732433D02*
X8409979Y4692366D01*
X8401108Y4729974D02*
X8415814Y4715267D01*
X8591509Y4644620D02*
X8628380Y4584700D01*
X8344840Y5014080D02*
X8349251Y5003622D01*
X8714764Y4711504D02*
X8743460Y4734780D01*
X8798380Y4794700D01*
X8344840Y5014080D02*
Y5039080D01*
X8449351Y4676140D02*
X8486140D01*
X8353644Y4981905D02*
X8353644Y4771846D01*
X8384840Y4769388D02*
Y5039080D01*
D62*
X264158Y4045802D02*
D03*
X264174Y4478357D02*
D03*
X264158Y1231532D02*
D03*
X264174Y1664087D02*
D03*
X264158Y6851152D02*
D03*
D63*
X264174Y7283707D02*
D03*
D64*
Y7473707D02*
D03*
D65*
X8245120Y5340040D02*
D03*
X8244840Y1501140D02*
D03*
Y3408680D02*
D03*
D66*
X7945120Y5560040D02*
D03*
Y5520040D02*
D03*
Y5480040D02*
D03*
Y5440040D02*
D03*
Y5400040D02*
D03*
Y5360040D02*
D03*
Y5320040D02*
D03*
Y5280040D02*
D03*
Y5240040D02*
D03*
Y5200040D02*
D03*
Y5160040D02*
D03*
Y5120040D02*
D03*
X8545120D02*
D03*
Y5160040D02*
D03*
Y5200040D02*
D03*
Y5240040D02*
D03*
Y5280040D02*
D03*
Y5320040D02*
D03*
Y5360040D02*
D03*
Y5400040D02*
D03*
Y5440040D02*
D03*
Y5480040D02*
D03*
Y5520040D02*
D03*
Y5560040D02*
D03*
X8544840Y1721140D02*
D03*
Y1681140D02*
D03*
Y1641140D02*
D03*
Y1601140D02*
D03*
Y1561140D02*
D03*
Y1521140D02*
D03*
Y1481140D02*
D03*
Y1441140D02*
D03*
Y1401140D02*
D03*
Y1361140D02*
D03*
Y1321140D02*
D03*
Y1281140D02*
D03*
X7944840D02*
D03*
Y1321140D02*
D03*
Y1361140D02*
D03*
Y1401140D02*
D03*
Y1441140D02*
D03*
Y1481140D02*
D03*
Y1521140D02*
D03*
Y1561140D02*
D03*
Y1601140D02*
D03*
Y1641140D02*
D03*
Y1681140D02*
D03*
Y1721140D02*
D03*
X8544840Y3628680D02*
D03*
Y3588680D02*
D03*
Y3548680D02*
D03*
Y3508680D02*
D03*
Y3468680D02*
D03*
Y3428680D02*
D03*
Y3388680D02*
D03*
Y3348680D02*
D03*
Y3308680D02*
D03*
Y3268680D02*
D03*
Y3228680D02*
D03*
Y3188680D02*
D03*
X7944840D02*
D03*
Y3228680D02*
D03*
Y3268680D02*
D03*
Y3308680D02*
D03*
Y3348680D02*
D03*
Y3388680D02*
D03*
Y3428680D02*
D03*
Y3468680D02*
D03*
Y3508680D02*
D03*
Y3548680D02*
D03*
Y3588680D02*
D03*
Y3628680D02*
D03*
D67*
X8025120Y5040040D02*
D03*
X8065120D02*
D03*
X8105120D02*
D03*
X8145120D02*
D03*
X8185120D02*
D03*
X8225120D02*
D03*
X8265120D02*
D03*
X8305120D02*
D03*
X8345120D02*
D03*
X8385120D02*
D03*
X8425120D02*
D03*
X8465120D02*
D03*
Y5640040D02*
D03*
X8425120D02*
D03*
X8385120D02*
D03*
X8345120D02*
D03*
X8305120D02*
D03*
X8265120D02*
D03*
X8225120D02*
D03*
X8185120D02*
D03*
X8145120D02*
D03*
X8105120D02*
D03*
X8065120D02*
D03*
X8025120D02*
D03*
X8024840Y1801140D02*
D03*
X8064840D02*
D03*
X8104840D02*
D03*
X8144840D02*
D03*
X8184840D02*
D03*
X8224840D02*
D03*
X8264840D02*
D03*
X8304840D02*
D03*
X8344840D02*
D03*
X8384840D02*
D03*
X8424840D02*
D03*
X8464840D02*
D03*
Y1201140D02*
D03*
X8424840D02*
D03*
X8384840D02*
D03*
X8344840D02*
D03*
X8304840D02*
D03*
X8264840D02*
D03*
X8224840D02*
D03*
X8184840D02*
D03*
X8144840D02*
D03*
X8104840D02*
D03*
X8064840D02*
D03*
X8024840D02*
D03*
Y3708680D02*
D03*
X8064840D02*
D03*
X8104840D02*
D03*
X8144840D02*
D03*
X8184840D02*
D03*
X8224840D02*
D03*
X8264840D02*
D03*
X8304840D02*
D03*
X8344840D02*
D03*
X8384840D02*
D03*
X8424840D02*
D03*
X8464840D02*
D03*
Y3108680D02*
D03*
X8424840D02*
D03*
X8384840D02*
D03*
X8344840D02*
D03*
X8304840D02*
D03*
X8264840D02*
D03*
X8224840D02*
D03*
X8184840D02*
D03*
X8144840D02*
D03*
X8104840D02*
D03*
X8064840D02*
D03*
X8024840D02*
D03*
D68*
X5515116Y6469476D02*
D03*
Y847856D02*
D03*
X1121116D02*
D03*
Y6469476D02*
D03*
X5515116Y3662126D02*
D03*
X1121116D02*
D03*
D69*
X8043070Y6460820D02*
D03*
Y6510820D02*
D03*
Y6610820D02*
D03*
Y6660820D02*
D03*
Y7194880D02*
D03*
Y7244880D02*
D03*
Y7344880D02*
D03*
Y7394880D02*
D03*
X8126570Y6510820D02*
D03*
Y6460820D02*
D03*
Y6610820D02*
D03*
Y6660820D02*
D03*
Y7244880D02*
D03*
Y7194880D02*
D03*
Y7344880D02*
D03*
Y7394880D02*
D03*
D70*
X6045022Y6864020D02*
D03*
Y6904025D02*
D03*
Y6824040D02*
D03*
Y6784035D02*
D03*
Y7024040D02*
D03*
Y7064019D02*
D03*
Y6984035D02*
D03*
Y6944030D02*
D03*
Y7104024D02*
D03*
Y6744030D02*
D03*
X5705018Y6744056D02*
D03*
Y6784061D02*
D03*
Y6824040D02*
D03*
Y6864045D02*
D03*
Y6904050D02*
D03*
Y6944055D02*
D03*
Y6984060D02*
D03*
Y7024040D02*
D03*
Y7064045D02*
D03*
Y7104050D02*
D03*
D71*
X7343060Y5862320D02*
D03*
Y3931920D02*
D03*
Y2024380D02*
D03*
D72*
Y5989320D02*
D03*
Y6116320D02*
D03*
Y6243320D02*
D03*
X7843060Y5862320D02*
D03*
Y5989320D02*
D03*
Y6116320D02*
D03*
Y6243320D02*
D03*
Y4312920D02*
D03*
Y4185920D02*
D03*
Y4058920D02*
D03*
Y3931920D02*
D03*
X7343060Y4312920D02*
D03*
Y4185920D02*
D03*
Y4058920D02*
D03*
X7843060Y2405380D02*
D03*
Y2278380D02*
D03*
Y2151380D02*
D03*
Y2024380D02*
D03*
X7343060Y2405380D02*
D03*
Y2278380D02*
D03*
Y2151380D02*
D03*
D73*
X7639160Y975360D02*
D03*
X7494160D02*
D03*
X7639160Y2882900D02*
D03*
X7494160D02*
D03*
X7639160Y4813300D02*
D03*
X7494160D02*
D03*
D74*
X5935015Y6704025D02*
D03*
X5895010D02*
D03*
X5855005D02*
D03*
X5815000D02*
D03*
X5815025Y7144055D02*
D03*
X5855030D02*
D03*
X5895035D02*
D03*
X5935040D02*
D03*
D75*
X5875020Y6924040D02*
D03*
D76*
X8043070Y7294880D02*
D03*
X8126570D02*
D03*
X8043070Y6560820D02*
D03*
X8126570D02*
D03*
D77*
X4894116Y997856D02*
D03*
X4767116D02*
D03*
X4640116D02*
D03*
X4513116D02*
D03*
X4386116D02*
D03*
X4259116D02*
D03*
X4132116D02*
D03*
X3497116D02*
D03*
X3370116D02*
D03*
X3243116D02*
D03*
X3116116D02*
D03*
X2989116D02*
D03*
X2862116D02*
D03*
X2735116D02*
D03*
X2608116D02*
D03*
X2481116D02*
D03*
X2354116D02*
D03*
X2227116D02*
D03*
X2100116D02*
D03*
X1973116D02*
D03*
X1846116D02*
D03*
X1719116D02*
D03*
X4894116Y6619476D02*
D03*
X4767116D02*
D03*
X4640116D02*
D03*
X4513116D02*
D03*
X4386116D02*
D03*
X4259116D02*
D03*
X4132116D02*
D03*
X3497116D02*
D03*
X3370116D02*
D03*
X3243116D02*
D03*
X3116116D02*
D03*
X2989116D02*
D03*
X2862116D02*
D03*
X2735116D02*
D03*
X2608116D02*
D03*
X2481116D02*
D03*
X2354116D02*
D03*
X2227116D02*
D03*
X2100116D02*
D03*
X1973116D02*
D03*
X1846116D02*
D03*
X1719116D02*
D03*
X4894116Y3812126D02*
D03*
X4767116D02*
D03*
X4640116D02*
D03*
X4513116D02*
D03*
X4386116D02*
D03*
X4259116D02*
D03*
X4132116D02*
D03*
X3497116D02*
D03*
X3370116D02*
D03*
X3243116D02*
D03*
X3116116D02*
D03*
X2989116D02*
D03*
X2862116D02*
D03*
X2735116D02*
D03*
X2608116D02*
D03*
X2481116D02*
D03*
X2354116D02*
D03*
X2227116D02*
D03*
X2100116D02*
D03*
X1973116D02*
D03*
X1846116D02*
D03*
X1719116D02*
D03*
%TF.MD5,d9e80d18760e9afa1937ccc3c1e2d461*%
M02*
