%TF.GenerationSoftware,Altium Limited,Altium Designer,24.0.1 (36)*%
G04 Layer_Color=16711935*
%FSLAX45Y45*%
%MOMM*%
%TF.SameCoordinates,67999EC4-2163-46B7-AA5F-10FA3A16FE06*%
%TF.FilePolarity,Negative*%
%TF.FileFunction,Soldermask,Bot*%
%TF.Part,Single*%
G01*
G75*
%TA.AperFunction,SMDPad,CuDef*%
%ADD90R,0.70320X0.70320*%
%ADD98R,1.47320X1.09220*%
%ADD102R,0.70320X0.70320*%
%ADD110R,2.12321X1.92720*%
%ADD117C,2.27000*%
%ADD118R,1.40320X1.50320*%
%TA.AperFunction,ComponentPad*%
%ADD121C,3.20294*%
%ADD122C,1.40208*%
%ADD123R,2.00320X4.70320*%
%ADD124R,2.00320X4.20320*%
%ADD125R,5.20320X2.80320*%
%ADD126C,1.50320*%
%ADD127C,1.20320*%
%TA.AperFunction,SMDPad,CuDef*%
G04:AMPARAMS|DCode=128|XSize=1.4732mm|YSize=1.0922mm|CornerRadius=0mm|HoleSize=0mm|Usage=FLASHONLY|Rotation=0.000|XOffset=0mm|YOffset=0mm|HoleType=Round|Shape=Octagon|*
%AMOCTAGOND128*
4,1,8,0.73660,-0.27305,0.73660,0.27305,0.46355,0.54610,-0.46355,0.54610,-0.73660,0.27305,-0.73660,-0.27305,-0.46355,-0.54610,0.46355,-0.54610,0.73660,-0.27305,0.0*
%
%ADD128OCTAGOND128*%

%TA.AperFunction,ConnectorPad*%
G04:AMPARAMS|DCode=129|XSize=1.4732mm|YSize=1.0922mm|CornerRadius=0mm|HoleSize=0mm|Usage=FLASHONLY|Rotation=180.000|XOffset=0mm|YOffset=0mm|HoleType=Round|Shape=Octagon|*
%AMOCTAGOND129*
4,1,8,-0.73660,0.27305,-0.73660,-0.27305,-0.46355,-0.54610,0.46355,-0.54610,0.73660,-0.27305,0.73660,0.27305,0.46355,0.54610,-0.46355,0.54610,-0.73660,0.27305,0.0*
%
%ADD129OCTAGOND129*%

%ADD130R,1.47320X1.09220*%
%TA.AperFunction,SMDPad,CuDef*%
%ADD131R,3.50320X3.50320*%
%ADD132O,0.90320X0.40320*%
%ADD133O,0.40320X0.90320*%
%ADD134R,2.60320X3.00320*%
%ADD135R,0.90320X0.40320*%
%ADD136R,1.70320X0.70320*%
%ADD137O,1.70320X0.70320*%
%ADD138R,0.95320X1.05320*%
%ADD139R,0.40320X0.90322*%
%ADD140R,2.20320X3.20319*%
%ADD141R,0.80320X3.10320*%
G36*
X8161820Y6643820D02*
X8091320D01*
Y6677820D01*
X8161820D01*
Y6643820D01*
D02*
G37*
G36*
X8078320D02*
X8007820D01*
Y6677820D01*
X8078320D01*
Y6643820D01*
D02*
G37*
G36*
X8161820Y6593820D02*
X8091320D01*
Y6627820D01*
X8161820D01*
Y6593820D01*
D02*
G37*
G36*
X8078320D02*
X8007820D01*
Y6627820D01*
X8078320D01*
Y6593820D01*
D02*
G37*
G36*
X8161820Y6533820D02*
X8091320D01*
Y6587820D01*
X8161820D01*
Y6533820D01*
D02*
G37*
G36*
X8078320D02*
X8007820D01*
Y6587820D01*
X8078320D01*
Y6533820D01*
D02*
G37*
G36*
X8161820Y6493820D02*
X8091320D01*
Y6527820D01*
X8161820D01*
Y6493820D01*
D02*
G37*
G36*
X8078320D02*
X8007820D01*
Y6527820D01*
X8078320D01*
Y6493820D01*
D02*
G37*
G36*
X8161820Y6443820D02*
X8091320D01*
Y6477820D01*
X8161820D01*
Y6443820D01*
D02*
G37*
G36*
X8078320D02*
X8007820D01*
Y6477820D01*
X8078320D01*
Y6443820D01*
D02*
G37*
G36*
X8161820Y7377880D02*
X8091320D01*
Y7411880D01*
X8161820D01*
Y7377880D01*
D02*
G37*
G36*
X8078320D02*
X8007820D01*
Y7411880D01*
X8078320D01*
Y7377880D01*
D02*
G37*
G36*
X8161820Y7327880D02*
X8091320D01*
Y7361880D01*
X8161820D01*
Y7327880D01*
D02*
G37*
G36*
X8078320D02*
X8007820D01*
Y7361880D01*
X8078320D01*
Y7327880D01*
D02*
G37*
G36*
X8161820Y7267880D02*
X8091320D01*
Y7321880D01*
X8161820D01*
Y7267880D01*
D02*
G37*
G36*
X8078320D02*
X8007820D01*
Y7321880D01*
X8078320D01*
Y7267880D01*
D02*
G37*
G36*
X8161820Y7227880D02*
X8091320D01*
Y7261880D01*
X8161820D01*
Y7227880D01*
D02*
G37*
G36*
X8078320D02*
X8007820D01*
Y7261880D01*
X8078320D01*
Y7227880D01*
D02*
G37*
G36*
X8161820Y7177880D02*
X8091320D01*
Y7211880D01*
X8161820D01*
Y7177880D01*
D02*
G37*
G36*
X8078320D02*
X8007820D01*
Y7211880D01*
X8078320D01*
Y7177880D01*
D02*
G37*
D90*
X6493736Y6092774D02*
D03*
X6403736D02*
D03*
X6493736Y5986094D02*
D03*
X6403736D02*
D03*
X8114582Y2194560D02*
D03*
X8024582D02*
D03*
X7651879Y3073400D02*
D03*
X7736879D02*
D03*
X7651879Y3180080D02*
D03*
X7736879D02*
D03*
X7739382Y3286760D02*
D03*
X7649382D02*
D03*
X6134817Y589280D02*
D03*
X6224817D02*
D03*
X6134820Y695960D02*
D03*
X6224820D02*
D03*
X7649384Y1379220D02*
D03*
X7739384D02*
D03*
X7736882Y1272540D02*
D03*
X7651882D02*
D03*
X7736882Y1165860D02*
D03*
X7651882D02*
D03*
X7739380Y1739900D02*
D03*
X7649380D02*
D03*
X7739380Y1633220D02*
D03*
X7649380D02*
D03*
X7739380Y1485900D02*
D03*
X7649380D02*
D03*
X8744804Y1620520D02*
D03*
X8834804D02*
D03*
X8744804Y1513840D02*
D03*
X8834804D02*
D03*
X8744804Y1300480D02*
D03*
X8834804D02*
D03*
X8744804Y1727200D02*
D03*
X8834804D02*
D03*
X8744804Y1193800D02*
D03*
X8834804D02*
D03*
X8744804Y1407160D02*
D03*
X8834804D02*
D03*
X8744804Y3634740D02*
D03*
X8834804D02*
D03*
X8744804Y3314700D02*
D03*
X8834804D02*
D03*
X8744804Y3528060D02*
D03*
X8834804D02*
D03*
X8744804Y3208020D02*
D03*
X8834804D02*
D03*
X7739380Y3647440D02*
D03*
X7649380D02*
D03*
X7739380Y3540760D02*
D03*
X7649380D02*
D03*
X7739380Y3393440D02*
D03*
X7649380D02*
D03*
X8744804Y3421380D02*
D03*
X8834804D02*
D03*
X8744804Y3101340D02*
D03*
X8834804D02*
D03*
X8024582Y4102100D02*
D03*
X8114582D02*
D03*
X7739380Y5471160D02*
D03*
X7649380D02*
D03*
X7739380Y5577840D02*
D03*
X7649380D02*
D03*
X8024582Y6035040D02*
D03*
X8114582D02*
D03*
X8744804Y5565140D02*
D03*
X8834804D02*
D03*
X7739380Y5323840D02*
D03*
X7649380D02*
D03*
X8744804Y5138420D02*
D03*
X8834804D02*
D03*
X8744804Y5458460D02*
D03*
X8834804D02*
D03*
X8744804Y5031740D02*
D03*
X8834804D02*
D03*
X7649384Y5217160D02*
D03*
X7739384D02*
D03*
X7736882Y5110480D02*
D03*
X7651882D02*
D03*
X8744804Y5245100D02*
D03*
X8834804D02*
D03*
X8744804Y5351780D02*
D03*
X8834804D02*
D03*
X7736882Y5003800D02*
D03*
X7651882D02*
D03*
X4557479Y3289300D02*
D03*
X4647478D02*
D03*
X4557479Y3182620D02*
D03*
X4647478D02*
D03*
X5521242Y6913880D02*
D03*
X5431242D02*
D03*
X5521242Y7020560D02*
D03*
X5431242D02*
D03*
D98*
X264158Y3855802D02*
D03*
X264174Y4668357D02*
D03*
X264158Y1041532D02*
D03*
X264174Y1854087D02*
D03*
X264158Y6661152D02*
D03*
D102*
X111760Y1666920D02*
D03*
Y1751920D02*
D03*
Y974680D02*
D03*
Y889680D02*
D03*
Y6595020D02*
D03*
Y6510020D02*
D03*
Y3789000D02*
D03*
Y3704000D02*
D03*
Y4481240D02*
D03*
Y4566240D02*
D03*
X5930900Y7398983D02*
D03*
Y7313983D02*
D03*
X6040120Y7401165D02*
D03*
Y7311165D02*
D03*
X5712460Y7313340D02*
D03*
Y7398340D02*
D03*
X5821680Y7313340D02*
D03*
Y7398340D02*
D03*
X5811520Y6519500D02*
D03*
Y6434500D02*
D03*
X5923280Y6519500D02*
D03*
Y6434500D02*
D03*
X8016240Y3907238D02*
D03*
Y3997238D02*
D03*
X7975600Y4748700D02*
D03*
Y4838700D02*
D03*
X8122920Y2086877D02*
D03*
Y2001877D02*
D03*
X8016240Y1999698D02*
D03*
Y2089698D02*
D03*
X8229600Y1999702D02*
D03*
Y2089702D02*
D03*
X8306367Y1000760D02*
D03*
Y910760D02*
D03*
X8336280Y1999702D02*
D03*
Y2089702D02*
D03*
X8549640Y1999702D02*
D03*
Y2089702D02*
D03*
X8442960Y1999702D02*
D03*
Y2089702D02*
D03*
X8486140Y701762D02*
D03*
Y791762D02*
D03*
Y1000038D02*
D03*
Y910038D02*
D03*
X7975600D02*
D03*
Y1000038D02*
D03*
X8188960Y1000760D02*
D03*
Y910760D02*
D03*
X7868920Y913585D02*
D03*
Y998585D02*
D03*
X8082280Y910038D02*
D03*
Y1000038D02*
D03*
X7762240D02*
D03*
Y910038D02*
D03*
X8229600Y3907242D02*
D03*
Y3997242D02*
D03*
X8336280Y3907242D02*
D03*
Y3997242D02*
D03*
X8122920Y3909417D02*
D03*
Y3994417D02*
D03*
X8442960Y3907242D02*
D03*
Y3997242D02*
D03*
X8549640Y3907242D02*
D03*
Y3997242D02*
D03*
X8306367Y2908300D02*
D03*
Y2818300D02*
D03*
X8486140Y2907578D02*
D03*
Y2817578D02*
D03*
X7975600Y2818298D02*
D03*
Y2908298D02*
D03*
X7868920Y2821125D02*
D03*
Y2906125D02*
D03*
X8082280Y2818298D02*
D03*
Y2908298D02*
D03*
X8188960Y2908300D02*
D03*
Y2818300D02*
D03*
X7762240Y2908300D02*
D03*
Y2818300D02*
D03*
X8486140Y2609302D02*
D03*
Y2699302D02*
D03*
X8336280Y5837642D02*
D03*
Y5927642D02*
D03*
X8306367Y4838700D02*
D03*
Y4748700D02*
D03*
X8442960Y5837642D02*
D03*
Y5927642D02*
D03*
X8229600Y5837642D02*
D03*
Y5927642D02*
D03*
X8188960Y4838700D02*
D03*
Y4748700D02*
D03*
X8122920Y5924817D02*
D03*
Y5839817D02*
D03*
X8016240Y5837638D02*
D03*
Y5927638D02*
D03*
X8486140Y4539702D02*
D03*
Y4629702D02*
D03*
X8549640Y5837642D02*
D03*
Y5927642D02*
D03*
X8486140Y4837978D02*
D03*
Y4747978D02*
D03*
X8082280Y4748700D02*
D03*
Y4838700D02*
D03*
X7762240D02*
D03*
Y4748700D02*
D03*
X7868920Y4751525D02*
D03*
Y4836525D02*
D03*
X111760Y7372940D02*
D03*
Y7287940D02*
D03*
D110*
X7368540Y5361140D02*
D03*
Y4905540D02*
D03*
Y3430740D02*
D03*
Y2975140D02*
D03*
Y1523200D02*
D03*
Y1067600D02*
D03*
D117*
X530860Y6779260D02*
D03*
X8323580Y635000D02*
D03*
D118*
X8798380Y956760D02*
D03*
Y746760D02*
D03*
X8628380D02*
D03*
Y956760D02*
D03*
X8798380Y2864300D02*
D03*
Y2654300D02*
D03*
X8628380D02*
D03*
Y2864300D02*
D03*
X8798380Y4794700D02*
D03*
Y4584700D02*
D03*
X8628380D02*
D03*
Y4794700D02*
D03*
D121*
X6563360Y6927596D02*
D03*
X7843520D02*
D03*
D122*
X7603490Y7067550D02*
D03*
X7403338D02*
D03*
X7203440D02*
D03*
X7003542D02*
D03*
X6803390D02*
D03*
X7553452Y6917690D02*
D03*
X7303516D02*
D03*
X7103364D02*
D03*
X6853428D02*
D03*
D123*
X547080Y7138480D02*
D03*
D124*
X767080Y6888480D02*
D03*
D125*
X1047080Y7363480D02*
D03*
D126*
X8823059Y7169125D02*
D03*
X8393062D02*
D03*
Y6689115D02*
D03*
X8823059D02*
D03*
D127*
X1396116Y847856D02*
D03*
X5196116D02*
D03*
X1396116Y6469476D02*
D03*
X5196116D02*
D03*
X1396116Y3662126D02*
D03*
X5196116D02*
D03*
D128*
X264158Y4045802D02*
D03*
X264174Y4478357D02*
D03*
X264158Y1231532D02*
D03*
X264174Y1664087D02*
D03*
X264158Y6851152D02*
D03*
D129*
X264174Y7283707D02*
D03*
D130*
Y7473707D02*
D03*
D131*
X8245120Y5340040D02*
D03*
X8244840Y1501140D02*
D03*
Y3408680D02*
D03*
D132*
X7945120Y5560040D02*
D03*
Y5520040D02*
D03*
Y5480040D02*
D03*
Y5440040D02*
D03*
Y5400040D02*
D03*
Y5360040D02*
D03*
Y5320040D02*
D03*
Y5280040D02*
D03*
Y5240040D02*
D03*
Y5200040D02*
D03*
Y5160040D02*
D03*
Y5120040D02*
D03*
X8545120D02*
D03*
Y5160040D02*
D03*
Y5200040D02*
D03*
Y5240040D02*
D03*
Y5280040D02*
D03*
Y5320040D02*
D03*
Y5360040D02*
D03*
Y5400040D02*
D03*
Y5440040D02*
D03*
Y5480040D02*
D03*
Y5520040D02*
D03*
Y5560040D02*
D03*
X8544840Y1721140D02*
D03*
Y1681140D02*
D03*
Y1641140D02*
D03*
Y1601140D02*
D03*
Y1561140D02*
D03*
Y1521140D02*
D03*
Y1481140D02*
D03*
Y1441140D02*
D03*
Y1401140D02*
D03*
Y1361140D02*
D03*
Y1321140D02*
D03*
Y1281140D02*
D03*
X7944840D02*
D03*
Y1321140D02*
D03*
Y1361140D02*
D03*
Y1401140D02*
D03*
Y1441140D02*
D03*
Y1481140D02*
D03*
Y1521140D02*
D03*
Y1561140D02*
D03*
Y1601140D02*
D03*
Y1641140D02*
D03*
Y1681140D02*
D03*
Y1721140D02*
D03*
X8544840Y3628680D02*
D03*
Y3588680D02*
D03*
Y3548680D02*
D03*
Y3508680D02*
D03*
Y3468680D02*
D03*
Y3428680D02*
D03*
Y3388680D02*
D03*
Y3348680D02*
D03*
Y3308680D02*
D03*
Y3268680D02*
D03*
Y3228680D02*
D03*
Y3188680D02*
D03*
X7944840D02*
D03*
Y3228680D02*
D03*
Y3268680D02*
D03*
Y3308680D02*
D03*
Y3348680D02*
D03*
Y3388680D02*
D03*
Y3428680D02*
D03*
Y3468680D02*
D03*
Y3508680D02*
D03*
Y3548680D02*
D03*
Y3588680D02*
D03*
Y3628680D02*
D03*
D133*
X8025120Y5040040D02*
D03*
X8065120D02*
D03*
X8105120D02*
D03*
X8145120D02*
D03*
X8185120D02*
D03*
X8225120D02*
D03*
X8265120D02*
D03*
X8305120D02*
D03*
X8345120D02*
D03*
X8385120D02*
D03*
X8425120D02*
D03*
X8465120D02*
D03*
Y5640040D02*
D03*
X8425120D02*
D03*
X8385120D02*
D03*
X8345120D02*
D03*
X8305120D02*
D03*
X8265120D02*
D03*
X8225120D02*
D03*
X8185120D02*
D03*
X8145120D02*
D03*
X8105120D02*
D03*
X8065120D02*
D03*
X8025120D02*
D03*
X8024840Y1801140D02*
D03*
X8064840D02*
D03*
X8104840D02*
D03*
X8144840D02*
D03*
X8184840D02*
D03*
X8224840D02*
D03*
X8264840D02*
D03*
X8304840D02*
D03*
X8344840D02*
D03*
X8384840D02*
D03*
X8424840D02*
D03*
X8464840D02*
D03*
Y1201140D02*
D03*
X8424840D02*
D03*
X8384840D02*
D03*
X8344840D02*
D03*
X8304840D02*
D03*
X8264840D02*
D03*
X8224840D02*
D03*
X8184840D02*
D03*
X8144840D02*
D03*
X8104840D02*
D03*
X8064840D02*
D03*
X8024840D02*
D03*
Y3708680D02*
D03*
X8064840D02*
D03*
X8104840D02*
D03*
X8144840D02*
D03*
X8184840D02*
D03*
X8224840D02*
D03*
X8264840D02*
D03*
X8304840D02*
D03*
X8344840D02*
D03*
X8384840D02*
D03*
X8424840D02*
D03*
X8464840D02*
D03*
Y3108680D02*
D03*
X8424840D02*
D03*
X8384840D02*
D03*
X8344840D02*
D03*
X8304840D02*
D03*
X8264840D02*
D03*
X8224840D02*
D03*
X8184840D02*
D03*
X8144840D02*
D03*
X8104840D02*
D03*
X8064840D02*
D03*
X8024840D02*
D03*
D134*
X5515116Y6469476D02*
D03*
Y847856D02*
D03*
X1121116D02*
D03*
Y6469476D02*
D03*
X5515116Y3662126D02*
D03*
X1121116D02*
D03*
D135*
X6045022Y6864020D02*
D03*
Y6904025D02*
D03*
Y6824040D02*
D03*
Y6784035D02*
D03*
Y7024040D02*
D03*
Y7064019D02*
D03*
Y6984035D02*
D03*
Y6944030D02*
D03*
Y7104024D02*
D03*
Y6744030D02*
D03*
X5705018Y6744056D02*
D03*
Y6784061D02*
D03*
Y6824040D02*
D03*
Y6864045D02*
D03*
Y6904050D02*
D03*
Y6944055D02*
D03*
Y6984060D02*
D03*
Y7024040D02*
D03*
Y7064045D02*
D03*
Y7104050D02*
D03*
D136*
X7343060Y5862320D02*
D03*
Y3931920D02*
D03*
Y2024380D02*
D03*
D137*
Y5989320D02*
D03*
Y6116320D02*
D03*
Y6243320D02*
D03*
X7843060Y5862320D02*
D03*
Y5989320D02*
D03*
Y6116320D02*
D03*
Y6243320D02*
D03*
Y4312920D02*
D03*
Y4185920D02*
D03*
Y4058920D02*
D03*
Y3931920D02*
D03*
X7343060Y4312920D02*
D03*
Y4185920D02*
D03*
Y4058920D02*
D03*
X7843060Y2405380D02*
D03*
Y2278380D02*
D03*
Y2151380D02*
D03*
Y2024380D02*
D03*
X7343060Y2405380D02*
D03*
Y2278380D02*
D03*
Y2151380D02*
D03*
D138*
X7639160Y975360D02*
D03*
X7494160D02*
D03*
X7639160Y2882900D02*
D03*
X7494160D02*
D03*
X7639160Y4813300D02*
D03*
X7494160D02*
D03*
D139*
X5935015Y6704025D02*
D03*
X5895010D02*
D03*
X5855005D02*
D03*
X5815000D02*
D03*
X5815025Y7144055D02*
D03*
X5855030D02*
D03*
X5895035D02*
D03*
X5935040D02*
D03*
D140*
X5875020Y6924040D02*
D03*
D141*
X4894116Y997856D02*
D03*
X4767116D02*
D03*
X4640116D02*
D03*
X4513116D02*
D03*
X4386116D02*
D03*
X4259116D02*
D03*
X4132116D02*
D03*
X3497116D02*
D03*
X3370116D02*
D03*
X3243116D02*
D03*
X3116116D02*
D03*
X2989116D02*
D03*
X2862116D02*
D03*
X2735116D02*
D03*
X2608116D02*
D03*
X2481116D02*
D03*
X2354116D02*
D03*
X2227116D02*
D03*
X2100116D02*
D03*
X1973116D02*
D03*
X1846116D02*
D03*
X1719116D02*
D03*
X4894116Y6619476D02*
D03*
X4767116D02*
D03*
X4640116D02*
D03*
X4513116D02*
D03*
X4386116D02*
D03*
X4259116D02*
D03*
X4132116D02*
D03*
X3497116D02*
D03*
X3370116D02*
D03*
X3243116D02*
D03*
X3116116D02*
D03*
X2989116D02*
D03*
X2862116D02*
D03*
X2735116D02*
D03*
X2608116D02*
D03*
X2481116D02*
D03*
X2354116D02*
D03*
X2227116D02*
D03*
X2100116D02*
D03*
X1973116D02*
D03*
X1846116D02*
D03*
X1719116D02*
D03*
X4894116Y3812126D02*
D03*
X4767116D02*
D03*
X4640116D02*
D03*
X4513116D02*
D03*
X4386116D02*
D03*
X4259116D02*
D03*
X4132116D02*
D03*
X3497116D02*
D03*
X3370116D02*
D03*
X3243116D02*
D03*
X3116116D02*
D03*
X2989116D02*
D03*
X2862116D02*
D03*
X2735116D02*
D03*
X2608116D02*
D03*
X2481116D02*
D03*
X2354116D02*
D03*
X2227116D02*
D03*
X2100116D02*
D03*
X1973116D02*
D03*
X1846116D02*
D03*
X1719116D02*
D03*
%TF.MD5,1a9f67da2e511e208cfa5455a755599b*%
M02*
