M48
;Layer_Color=9474304
;FILE_FORMAT=4:4
METRIC,LZ
;TYPE=PLATED
T01F00S00C0.3000
T02F00S00C0.7000
T04F00S00C0.7010
T06F00S00C2.3089
;TYPE=NON_PLATED
T07F00S00C1.2000
%
T01
X00012192Y00066294
X00013208Y0013081
X00008382
Y00135636
Y00140462
Y00145288
X00013208
Y00150114
X00008382
X00013208Y00140462
Y00135636
X00038354Y00133858
Y00129032
X0004318
Y00133858
X00103886Y00131064
X00108712
Y00126238
X00103886
Y00121412
X00108712
Y00116586
X00103886
Y0011176
X00108712
X00119888Y00075946
Y00070612
X0012573
Y00075946
X00172063Y00076283
X00171809Y00066123
X00178308Y0008636
Y00091186
Y0009652
Y00101854
Y00106934
Y00112268
X00191008
Y00106934
Y00101854
Y0009652
Y00091186
Y0008636
X00216188Y00099786
X00229236
X00254508Y00101854
Y00106934
Y0009652
Y00091186
Y0008636
X00254917Y00076283
X00254663Y00066123
X00267208Y0008636
Y00091186
Y0009652
Y00101854
Y00106934
X00291338Y00100076
X00305088Y00099786
X00297484Y00135636
X00292658
X00287324
X0028199
X0027691
X00271576
X0021463
X00209804
X0020447
X00199136
X00194056
X00188722
X00075579Y00186433
Y00191259
X00070753
Y00186433
Y00196085
X00075579
Y00200911
X00070753
Y00205737
X00075579
X00119888Y002495
Y00254834
X0012573
Y002495
X00108712Y0029083
X00103886
Y00295656
Y00300482
Y00305308
X00108712
Y00310134
X00103886
X00108712Y00300482
Y00295656
X0004318Y00308102
Y00312928
X00038354
Y00308102
X00013208Y0030988
X00008382
Y00314706
Y00319532
Y00324358
X00013208
Y00329184
X00008382
X00013208Y00319532
Y00314706
X00010532Y002455
X00070753Y00365503
X00075579
Y00370329
X00070753
Y00375155
X00075579
Y00379981
X00070753
Y00384807
X00075579
X00178308Y00383281
Y00388361
Y00393695
X00191008
Y00388361
Y00383281
Y00377947
Y00372613
Y00367787
X00178308
Y00372613
Y00377947
X00172063Y0034544
X00171809Y0033528
Y0032512
X00254663
Y0033528
X00254917Y0034544
X00254508Y00367279
Y00372105
Y00377439
X00267208
Y00372105
Y00367279
X00292862Y00381254
X00305088Y00381213
X0033777Y0034544
X00337516Y0033528
Y0032512
X00229236Y00381213
X00216188
X0033777Y00076283
X00337516Y00066123
X0042037
Y00055963
X00420624Y00076283
X00419388Y00099786
X00445136
X00489831Y00083023
X00652272Y00115062
X00654812Y00133858
X00665226Y00102108
X00676148Y0011303
X00705358Y00184658
X0071628Y00195072
X00723646Y00202438
Y00215392
Y00240792
X00725424Y00164846
X0073787Y0017399
X00752856Y00174244
X00752813Y00168864
X00758698
X0075946Y00163322
X00761046Y00147998
X00773938Y00142566
X00780796Y00144018
X00787654Y00136398
X0078761Y00126959
X00787654Y00113792
X00778002Y00107696
X00772414
X00776224Y00087122
X00766318Y00088138
X00761238
X0078359Y00173314
X0078867Y00176022
X00776224Y00277876
X00771288Y0028183
X00763958Y00282187
X00768332Y00287962
X00770382Y00298958
X00776478Y00299212
X00786638Y00307086
Y00318516
X00786366Y003269
X00778654Y0032766
X00770962Y00339852
X00760476Y00339344
X00758698Y00354584
X00755179Y00358856
X00750714Y00358902
X00758547Y00364611
X00785828Y00364449
X00744728Y00393192
X00489412Y00364282
X00445136Y00381213
X00419388Y00381062
X00420624Y0034544
X0042037Y0033528
Y0032512
X00812038Y00330962
X00832104Y003302
X00842764Y00331604
X00846074Y00327503
Y00322233
X0084253Y00317164
X00830468Y00296306
X00818134Y0029591
X00818896Y00278638
X00830637Y00277057
X00848614Y00288036
X00854284Y0028643
X00870314
X00879838Y00274084
X00872362Y0026543
X00844622Y0026093
X00844296Y00214122
X00833628
X0082296
X00812292
X00811276Y00224282
X0079375Y00227584
Y00240538
X00806268Y0019997
X00806436Y00186896
X00818786Y00187123
X00823304Y00189836
X00830834Y00191008
X00827935Y00203962
X00813597Y00194056
X0081153Y00160782
X008255Y00159766
X00837692Y00159512
X00846074Y00165479
Y00170749
X00862584Y00168148
X0087448Y00157408
X00887984Y00162052
X00888492Y0017272
X00895096Y00154686
X00891794Y00148685
Y00143415
X00895096Y00137414
X00887222Y00130048
X00888746Y0011938
X00874522Y00114554
Y00125222
X00862838Y00104648
X00848614Y00103886
X00854538Y00095676
X00830637Y00086557
X00818896Y0008636
X008185Y00105664
X00830326Y0010541
X0084253Y0012641
X00846074Y00131479
Y00136749
X00842518Y00141478
X00834136Y00144526
X00824256Y00144006
X008128Y00143002
X0084894Y0019997
X00854964Y00214122
X00874522Y00305054
Y00315976
X00888238Y00320802
Y0030988
X00895096Y00328168
X00891794Y00334169
Y00339439
X00895096Y0034544
X00888492Y00352806
X00888746Y00363474
X00874628Y0034831
X00862671Y00358868
X00846074Y00356233
Y00361503
X00831088Y00350266
X00819912Y00351536
X00809498Y00353314
X00799181Y00358823
X00806389Y00377698
X00810198Y0038134
X0081877Y00378206
X00823339Y00380832
X00833628Y00382778
X00827604Y00390724
X00848903
X00806268Y00390724
X00825246Y003429
X00843534Y00070104
X0088773Y00074676
X00879838Y00083838
X0085471Y00404876
X00844042
X00833628
X00822706
X00812546
X00811458Y00415726
X00818896Y004699
X0083058
Y00489712
X00818388Y00489966
X00844042Y00483616
X00854284Y0047947
X00870032
X00879862Y00467868
X00872362Y0045847
X00842264Y0045339
X0084253Y00510204
X00846074Y00515273
Y00520543
X00842518Y00525272
X0083185Y00527558
X00831088Y00546608
X00838498Y00541293
X00846074Y00549273
Y00554543
X00861314Y0055245
X00874268Y00541202
X00887984Y00545846
X00888746Y00556514
X00895096Y0053848
X00891794Y00532479
Y00527209
X00895096Y00521208
X0089447Y00508861
X00889Y00513334
X00888746Y00502412
X00874268Y00508
X00874244Y00518486
X00810514Y00520446
X00800862Y00519938
X00816102Y00536702
X00822484Y00559295
X00830484Y00559295
X00830326Y00571754
X00822198Y005715
X00810198
X0079777Y0056061
X00799353Y00552132
X0079756Y00583946
X00827604Y00583855
X00833628Y00597154
X00844296
X0085471
X0084894Y00583764
X0079502Y00611632
X00794512Y00624078
X00796036Y00656336
X00821207Y00656034
X00831873Y00674878
X00833882Y00680466
X00837608Y00684193
X00837946Y0068961
X008413Y00694711
X00846582Y00695548
Y00690278
X00846586Y006848
X00860806Y00680413
X00879348Y00683514
X00883074Y00679788
X00888699Y00677418
X00883288Y00688988
X0087503Y00690277
Y00695547
Y00700817
X00860806Y00705411
X00836422Y0070358
X00840148Y00699854
X00832612Y00708406
X00830326Y00729234
X00835406
X0081878Y00729169
X00874268Y00729996
Y00735266
X00874014Y00741172
Y00724408
X00791464Y00656336
X00750824Y00624332
X00742188Y00598932
X00751332Y00585978
X00758698Y00558038
X00760142Y00552611
X00754888Y00552704
X00759968Y00547116
X00761238Y0053213
X0077724
X00773938Y0052578
X00787542Y00511048
X007874Y00500634
X00771652Y00490982
X00766064
X00768154Y0048133
X00764648Y00475858
X0077135Y00474743
X00776224Y00470408
X00792988Y00430276
X00793496Y00416306
X0074422Y00405892
X00743458Y00431038
X00776986Y00558038
X00582422Y0059563
X00576834
X00571754Y00595376
X00566166
X00560832
X00555244
X00545852Y00606406
X00553102Y00614238
X0056398Y00622662
X00571759Y00631806
X00580674Y00639076
X00568107Y00650839
X00568248Y00669349
X00574294Y0066929
X0057912Y00681482
X00593344Y0068326
X00590296Y00691896
X00589727Y00707381
X00598848Y00715572
X00608737Y00723898
X00615527Y00717109
X00612104Y00734943
X00557863Y00727719
X00550041Y00735476
X00536827Y00740408
X00537178Y00723005
X00544169Y00714349
X00554605Y0070808
X0056191Y00714818
X0052578Y00729996
X00521326Y00750198
X00489204Y00745744
X00486156Y00735076
X00483881Y00700535
X00480509Y00695892
X00480314Y00690626
X0047446Y00689577
X00473643Y00683955
X00469917Y00680229
X00484124Y00668528
X00496824Y006731
X00507238Y00666242
X005207Y00663194
X00519938Y00673513
X00534162Y00671322
X00529082Y00659384
X00535988Y00648768
X00546376Y00664472
X00540512Y00626872
X00528587Y00622559
X00521723Y00612401
X005125Y00609525
X00493776Y00606298
X00489268Y00610552
X00463979Y00609896
X00460009Y00636556
X00447222Y00630218
X00425243Y00639873
X00422016Y00644039
X00421386Y00636016
X00408686Y0066167
X00399288Y00677164
X00425906Y00699053
X00433446Y00706895
X00440494Y00715418
X00448063Y00722832
X00462788Y00716788
X00458724Y00705612
X00449917Y00690709
X0044619Y00686982
X00439166Y0069342
X00424424Y00713994
X00433299Y0074364
X00453204Y00741358
X00414754Y00747947
X00407424Y00739394
X00397764Y00726948
X00398272Y00614004
X00445136Y00660617
X00489412Y00646222
X0050292Y00650748
X00509778Y00642874
X00525526Y00688594
X00508254Y00704596
X00388366Y00718058
X00390652Y00686308
X00351282Y0068834
Y00692658
Y0069723
X00352274Y00705713
X00357965
X00363688
X00356236Y00659666
X00357965Y00612241
X00352274
X00351282Y00603758
Y00599186
Y00594868
X00363688Y00612241
X00383032Y00624061
X00307848Y00602742
Y00598678
Y00594614
X00298958Y00678942
X00286212Y00679242
X00267208Y0067443
Y00669096
Y00664016
X00254508
Y00669096
Y0067443
X00235515Y00679328
X00210115
X00191008Y0067443
Y00669096
Y00664016
Y00658682
Y00653348
Y00648522
X00178308
Y00653348
Y00658682
Y00664016
Y00669096
Y0067443
X00171564Y0068848
X00163944Y006961
X00157848Y0069991
X00153022Y00685178
X00160896Y00677812
X00168516Y00710578
X00160896Y00718198
X00159398Y00731888
X00151778Y00739508
X0017032Y0074281
X00179184Y00737248
X00187058Y00729882
X00185814Y00712356
X00178448Y00704482
X00189116Y00693814
X00196736Y00701434
X00197726Y0074055
X00190106Y0074817
X0022341Y00736346
Y0073152
X00228236
Y00736346
X00233062
Y0073152
X00237888
Y00736346
X00242714
Y0073152
Y00642874
Y00638048
X00237888
Y00642874
X00233062
Y00638048
X00228236
Y00642874
X0022341
Y00638048
X00165329Y00602971
X00157963Y00595097
X00154661Y00613638
X00147041Y00606018
X00123698Y00608076
X00114808Y00573786
X00107188Y00566166
X00125476Y00563118
X0011811Y00555244
X00075579Y00555241
Y00560067
X00070753
Y00555241
Y00550415
X00075579
Y00545589
X00070753
Y00540763
X00075579
X00062738Y00589026
X00057912
X00053086
X00048514
X00043942
X00039116
X00034544
X00029972
X00025146
X0002032
X00013208Y00504444
X00008382
Y00499618
Y00494792
Y00489966
X00013208
Y0048514
X00008382
X00013208Y00494792
Y00499618
X00038354Y00488188
X0004318
Y00483362
X00038354
X00103886Y00485394
Y00480568
Y00475742
Y00470916
X00108712
Y0046609
X00103886
X00108712Y00475742
Y00480568
Y00485394
X00119888Y00430276
Y00424942
X0012573
Y00430276
X00188722Y00404793
X00194056
X00199136
X0020447
X00209804
X0021463
X00271576
X0027691
X0028199
X00287324
X00292658
X00297484
X00307848Y00688086
Y0069215
Y00696214
X00342392Y00747536
X00011176Y00724154
X0001055Y0042076
T02
X00839306Y00668912
X00882306
Y00716913
X00839306
T04
X00685343Y00691769
X00680339Y00706755
X00700354
X00720344
X00740334
X00760349
X00755345Y00691769
X00730352
X00710336
T06
X00656336Y0069276
X00784352
T07
X00139612Y00084786
Y00366213
X00519612
Y00084786
Y00646948
X00139612
M30
