%TF.GenerationSoftware,Altium Limited,Altium Designer,24.0.1 (36)*%
G04 Layer_Physical_Order=2*
G04 Layer_Color=36540*
%FSLAX45Y45*%
%MOMM*%
%TF.SameCoordinates,67999EC4-2163-46B7-AA5F-10FA3A16FE06*%
%TF.FilePolarity,Positive*%
%TF.FileFunction,Copper,L2,Inr,Signal*%
%TF.Part,Single*%
G01*
G75*
%TA.AperFunction,Conductor*%
%ADD11C,0.15240*%
%ADD14C,0.12954*%
%TA.AperFunction,ComponentPad*%
%ADD52C,2.99974*%
%ADD53C,1.19888*%
%ADD54R,1.80000X4.50000*%
%ADD55R,1.80000X4.00000*%
%ADD56R,5.00000X2.60000*%
%ADD57C,1.30000*%
%ADD58C,1.00000*%
%TA.AperFunction,ViaPad*%
%ADD59C,0.40000*%
G36*
X8746013Y7537572D02*
X8790047Y7527000D01*
X8831885Y7509670D01*
X8870497Y7486008D01*
X8904933Y7456598D01*
X8934343Y7422162D01*
X8958005Y7383550D01*
X8975335Y7341712D01*
X8985907Y7297678D01*
X8989394Y7253370D01*
X8988951Y7252300D01*
Y812300D01*
X8989394Y811230D01*
X8985907Y766922D01*
X8975335Y722888D01*
X8958005Y681050D01*
X8934343Y642438D01*
X8904933Y608002D01*
X8870497Y578592D01*
X8831885Y554930D01*
X8790047Y537600D01*
X8746013Y527028D01*
X8701705Y523541D01*
X8700635Y523984D01*
X3053917D01*
Y968507D01*
X3053080Y970528D01*
Y972715D01*
X3051533Y974262D01*
X3050696Y976283D01*
X3048675Y977120D01*
X3047129Y978667D01*
X3040021Y981610D01*
X3034630Y987001D01*
X3031713Y994044D01*
Y1001668D01*
X3034630Y1008711D01*
X3040021Y1014102D01*
X3047129Y1017045D01*
X3048675Y1018592D01*
X3050696Y1019429D01*
X3051533Y1021450D01*
X3053080Y1022997D01*
Y1025184D01*
X3053917Y1027205D01*
Y1385315D01*
X6700625D01*
X6700626Y1385263D01*
X6700867Y1385244D01*
X6709897Y1385955D01*
X6720298D01*
X6721000Y1386246D01*
X6721734Y1386049D01*
X6737554Y1388132D01*
X6749600Y1389080D01*
X6755482Y1390492D01*
X6760723Y1391182D01*
X6761381Y1391562D01*
X6762134Y1391463D01*
X6784607Y1397485D01*
X6797133Y1400492D01*
X6799520Y1401481D01*
X6800120Y1401641D01*
X6800369Y1401832D01*
X6801025Y1402104D01*
X6801482D01*
X6837815Y1417153D01*
X6838138Y1417476D01*
X6838795Y1417748D01*
X6839105Y1417789D01*
X6839642Y1418099D01*
X6842296Y1419199D01*
X6854512Y1426684D01*
X6873162Y1437453D01*
X6873625Y1438055D01*
X6874358Y1438252D01*
X6878208Y1441206D01*
X6883976Y1444740D01*
X6894248Y1453514D01*
X6905558Y1462192D01*
X6905937Y1462849D01*
X6906639Y1463140D01*
X6913194Y1469695D01*
X6921147Y1476488D01*
X6927940Y1484441D01*
X6934447Y1490948D01*
X6934738Y1491650D01*
X6935396Y1492030D01*
X6944012Y1503258D01*
X6952895Y1513659D01*
X6956474Y1519499D01*
X6959336Y1523229D01*
X6959532Y1523963D01*
X6960135Y1524425D01*
X6970600Y1542551D01*
X6978437Y1555340D01*
X6979588Y1558118D01*
X6979798Y1558482D01*
X6979826Y1558693D01*
X6980159Y1559497D01*
X6980434Y1559773D01*
X6995483Y1596105D01*
Y1596494D01*
X6995816Y1597298D01*
X6995946Y1597467D01*
X6996055Y1597875D01*
X6997143Y1600502D01*
X7000453Y1614289D01*
X7006124Y1635453D01*
X7006025Y1636206D01*
X7006405Y1636864D01*
X7007051Y1641770D01*
X7008555Y1648035D01*
X7009565Y1660866D01*
X7011538Y1675854D01*
X7011342Y1676587D01*
X7011632Y1677289D01*
Y1687131D01*
X7012391Y1696768D01*
X7012372Y1697010D01*
X7012319Y1697010D01*
Y2797990D01*
X7012372Y2797991D01*
X7012391Y2798232D01*
X7011632Y2807869D01*
Y2817693D01*
X7011342Y2818394D01*
X7011538Y2819128D01*
X7009569Y2834089D01*
X7008555Y2846965D01*
X7007045Y2853253D01*
X7006405Y2858118D01*
X7006025Y2858776D01*
X7006124Y2859529D01*
X7000496Y2880536D01*
X6997143Y2894498D01*
X6996041Y2897159D01*
X6995946Y2897515D01*
X6995833Y2897662D01*
X6995483Y2898506D01*
Y2898877D01*
X6980434Y2935210D01*
X6980172Y2935472D01*
X6979822Y2936316D01*
X6979798Y2936500D01*
X6979614Y2936817D01*
X6978437Y2939661D01*
X6970417Y2952747D01*
X6960135Y2970557D01*
X6959532Y2971019D01*
X6959336Y2971753D01*
X6956529Y2975410D01*
X6952895Y2981341D01*
X6943873Y2991904D01*
X6935396Y3002952D01*
X6934738Y3003332D01*
X6934447Y3004034D01*
X6928047Y3010434D01*
X6921147Y3018512D01*
X6913069Y3025412D01*
X6906639Y3031842D01*
X6905937Y3032132D01*
X6905558Y3032790D01*
X6894459Y3041306D01*
X6883976Y3050260D01*
X6878090Y3053867D01*
X6874358Y3056730D01*
X6873625Y3056927D01*
X6873162Y3057529D01*
X6855028Y3067999D01*
X6842296Y3075802D01*
X6839529Y3076947D01*
X6839105Y3077192D01*
X6838860Y3077225D01*
X6838107Y3077537D01*
X6837815Y3077829D01*
X6801482Y3092878D01*
X6801069D01*
X6800317Y3093190D01*
X6800120Y3093341D01*
X6799645Y3093468D01*
X6797133Y3094508D01*
X6783951Y3097673D01*
X6762134Y3103519D01*
X6761381Y3103420D01*
X6760723Y3103800D01*
X6755650Y3104468D01*
X6749600Y3105920D01*
X6737211Y3106895D01*
X6721734Y3108933D01*
X6721000Y3108736D01*
X6720298Y3109027D01*
X6710126D01*
X6700867Y3109756D01*
X6700626Y3109737D01*
X6700625Y3109684D01*
X3053917D01*
Y3782777D01*
X3053080Y3784798D01*
Y3786985D01*
X3051533Y3788532D01*
X3050696Y3790553D01*
X3048675Y3791390D01*
X3047129Y3792937D01*
X3040021Y3795880D01*
X3034630Y3801271D01*
X3031713Y3808314D01*
Y3815938D01*
X3034630Y3822981D01*
X3040021Y3828372D01*
X3047129Y3831315D01*
X3048675Y3832862D01*
X3050696Y3833699D01*
X3051533Y3835720D01*
X3053080Y3837267D01*
Y3839454D01*
X3053917Y3841475D01*
Y4199516D01*
X6687959D01*
X6700632Y4199449D01*
X6700696Y4199443D01*
X6701286Y4199490D01*
X6713011Y4200224D01*
X6713038Y4200226D01*
X6720298D01*
X6721000Y4200516D01*
X6721734Y4200320D01*
X6736468Y4202259D01*
X6749456Y4203281D01*
X6755798Y4204804D01*
X6760723Y4205452D01*
X6761381Y4205832D01*
X6762134Y4205733D01*
X6783379Y4211426D01*
X6797015Y4214699D01*
X6799614Y4215776D01*
X6800120Y4215912D01*
X6800330Y4216073D01*
X6801058Y4216374D01*
X6801482D01*
X6837815Y4231423D01*
X6838115Y4231724D01*
X6838843Y4232025D01*
X6839105Y4232060D01*
X6839558Y4232321D01*
X6842203Y4233417D01*
X6854373Y4240874D01*
X6873162Y4251723D01*
X6873625Y4252325D01*
X6874358Y4252522D01*
X6878241Y4255501D01*
X6883906Y4258972D01*
X6893996Y4267590D01*
X6905558Y4276462D01*
X6905937Y4277120D01*
X6906639Y4277410D01*
X6913343Y4284114D01*
X6921098Y4290737D01*
X6927720Y4298492D01*
X6934447Y4305218D01*
X6934738Y4305920D01*
X6935396Y4306300D01*
X6944297Y4317900D01*
X6952862Y4327929D01*
X6956313Y4333560D01*
X6959336Y4337499D01*
X6959532Y4338233D01*
X6960135Y4338695D01*
X6971126Y4357732D01*
X6978418Y4369632D01*
X6979489Y4372218D01*
X6979798Y4372752D01*
X6979838Y4373061D01*
X6980112Y4373720D01*
X6980434Y4374043D01*
X6995483Y4410375D01*
Y4410831D01*
X6995756Y4411490D01*
X6995946Y4411737D01*
X6996106Y4412334D01*
X6997135Y4414820D01*
X7000267Y4427862D01*
X7006124Y4449723D01*
X7006025Y4450476D01*
X7006405Y4451134D01*
X7007074Y4456218D01*
X7008553Y4462379D01*
X7009546Y4474993D01*
X7011538Y4490124D01*
X7011342Y4490858D01*
X7011632Y4491559D01*
Y4498787D01*
X7011634Y4498814D01*
X7012350Y4510618D01*
X7012392Y4511139D01*
X7012386Y4511203D01*
X7012319Y4523875D01*
Y5599625D01*
X7012386Y5612297D01*
X7012392Y5612361D01*
X7012350Y5612888D01*
X7011632Y5624685D01*
Y5631963D01*
X7011342Y5632664D01*
X7011538Y5633398D01*
X7009542Y5648561D01*
X7008553Y5661121D01*
X7007081Y5667255D01*
X7006405Y5672388D01*
X7006025Y5673046D01*
X7006124Y5673799D01*
X7000216Y5695849D01*
X6997135Y5708680D01*
X6996122Y5711125D01*
X6995946Y5711785D01*
X6995736Y5712058D01*
X6995483Y5712669D01*
Y5713147D01*
X6980434Y5749479D01*
X6980096Y5749818D01*
X6979843Y5750428D01*
X6979798Y5750770D01*
X6979457Y5751360D01*
X6978418Y5753868D01*
X6971346Y5765408D01*
X6960135Y5784827D01*
X6959532Y5785289D01*
X6959336Y5786023D01*
X6956246Y5790050D01*
X6952862Y5795571D01*
X6944465Y5805403D01*
X6935396Y5817223D01*
X6934737Y5817603D01*
X6934447Y5818304D01*
X6927591Y5825160D01*
X6921098Y5832763D01*
X6913495Y5839256D01*
X6906639Y5846112D01*
X6905937Y5846402D01*
X6905558Y5847060D01*
X6893740Y5856128D01*
X6883906Y5864528D01*
X6878385Y5867910D01*
X6874358Y5871000D01*
X6873625Y5871197D01*
X6873162Y5871800D01*
X6853746Y5883009D01*
X6842203Y5890083D01*
X6839694Y5891122D01*
X6839105Y5891462D01*
X6838765Y5891507D01*
X6838153Y5891761D01*
X6837815Y5892099D01*
X6801482Y5907148D01*
X6801004D01*
X6800393Y5907401D01*
X6800120Y5907611D01*
X6799461Y5907787D01*
X6797015Y5908800D01*
X6784176Y5911883D01*
X6762134Y5917789D01*
X6761381Y5917690D01*
X6760723Y5918070D01*
X6755594Y5918745D01*
X6749456Y5920219D01*
X6736888Y5921208D01*
X6721734Y5923203D01*
X6721000Y5923006D01*
X6720298Y5923297D01*
X6713048D01*
X6713020Y5923298D01*
X6701219Y5924016D01*
X6700696Y5924057D01*
X6700632Y5924051D01*
X6687959Y5923985D01*
X5852518D01*
X5847257Y5936685D01*
X5849788Y5939216D01*
X5854380Y5950301D01*
Y5962299D01*
X5849788Y5973384D01*
X5841304Y5981868D01*
X5830219Y5986460D01*
X5818221D01*
X5807136Y5981868D01*
X5804577Y5979309D01*
X5796280Y5974702D01*
X5787983Y5979309D01*
X5785424Y5981868D01*
X5774339Y5986460D01*
X5762341D01*
X5751256Y5981868D01*
X5742772Y5973385D01*
X5736027Y5977926D01*
X5734624Y5979328D01*
X5723539Y5983920D01*
X5711541D01*
X5700456Y5979328D01*
X5697897Y5976769D01*
X5689600Y5972162D01*
X5681303Y5976769D01*
X5678744Y5979328D01*
X5667659Y5983920D01*
X5655661D01*
X5644576Y5979328D01*
X5643287Y5978039D01*
X5634990Y5971688D01*
X5626693Y5978039D01*
X5625404Y5979328D01*
X5614319Y5983920D01*
X5602321D01*
X5591236Y5979328D01*
X5588677Y5976769D01*
X5580380Y5972162D01*
X5572083Y5976769D01*
X5569524Y5979328D01*
X5558439Y5983920D01*
X5546441D01*
X5535356Y5979328D01*
X5526872Y5970844D01*
X5522280Y5959759D01*
Y5947761D01*
X5526872Y5936676D01*
X5521602Y5923985D01*
X3547371D01*
X3540496Y5936685D01*
X3542980Y5942681D01*
Y5954679D01*
X3538388Y5965764D01*
X3533883Y5970270D01*
X3538388Y5974776D01*
X3542980Y5985861D01*
Y5997859D01*
X3538388Y6008944D01*
X3532613Y6014720D01*
X3538388Y6020496D01*
X3542980Y6031581D01*
Y6043579D01*
X3538388Y6054664D01*
X3529904Y6063148D01*
X3518819Y6067740D01*
X3506821D01*
X3495736Y6063148D01*
X3487252Y6054664D01*
X3482660Y6043579D01*
Y6031581D01*
X3487252Y6020496D01*
X3493027Y6014720D01*
X3487252Y6008944D01*
X3482660Y5997859D01*
Y5985861D01*
X3487252Y5974776D01*
X3491757Y5970270D01*
X3487252Y5965764D01*
X3482660Y5954679D01*
Y5942681D01*
X3485144Y5936685D01*
X3478269Y5923985D01*
X2078557D01*
Y6774180D01*
X2075336Y6781956D01*
X2067560Y6785177D01*
X1639123D01*
X1631346Y6781956D01*
X1629052Y6776416D01*
X1628963Y6776327D01*
X1625208Y6767263D01*
X1619817Y6761872D01*
X1612775Y6758955D01*
X1605151D01*
X1598108Y6761872D01*
X1592717Y6767263D01*
X1588963Y6776327D01*
X1588874Y6776416D01*
X1586579Y6781956D01*
X1578803Y6785177D01*
X1551940D01*
X1544164Y6781956D01*
X1250205Y6487997D01*
X12320Y6487997D01*
Y7252300D01*
X11898Y7253317D01*
X15366Y7297390D01*
X25951Y7341476D01*
X43301Y7383364D01*
X66991Y7422022D01*
X96436Y7456498D01*
X130913Y7485944D01*
X169571Y7509634D01*
X211459Y7526984D01*
X255545Y7537568D01*
X299618Y7541037D01*
X300635Y7540616D01*
X5194536D01*
X5197063Y7527916D01*
X5196176Y7527548D01*
X5187692Y7519064D01*
X5183100Y7507979D01*
Y7495981D01*
X5187692Y7484896D01*
X5196176Y7476412D01*
X5207261Y7471820D01*
X5219260D01*
X5230345Y7476412D01*
X5238829Y7484896D01*
X5243420Y7495981D01*
Y7507979D01*
X5238829Y7519064D01*
X5230345Y7527548D01*
X5229458Y7527916D01*
X5231984Y7540616D01*
X8700635D01*
X8701705Y7541059D01*
X8746013Y7537572D01*
D02*
G37*
G36*
X2067560Y5923985D02*
X1613258D01*
X1610318Y5927592D01*
X1606355Y5936685D01*
X1609785Y5944966D01*
Y5956965D01*
X1605194Y5968050D01*
X1596710Y5976534D01*
X1585625Y5981125D01*
X1573626D01*
X1562541Y5976534D01*
X1554057Y5968050D01*
X1549466Y5956965D01*
Y5944966D01*
X1554057Y5933881D01*
X1554761Y5933177D01*
X1552949Y5924799D01*
X1550186Y5919792D01*
X1546009Y5918789D01*
X1540547Y5918070D01*
X1539889Y5917690D01*
X1539136Y5917789D01*
X1515804Y5911537D01*
X1504373Y5908793D01*
X1502194Y5907890D01*
X1501150Y5907610D01*
X1500718Y5907279D01*
X1500402Y5907148D01*
X1499788D01*
X1463456Y5892099D01*
X1463021Y5891664D01*
X1462705Y5891534D01*
X1462165Y5891462D01*
X1461230Y5890922D01*
X1459160Y5890065D01*
X1449637Y5884229D01*
X1428108Y5871799D01*
X1427646Y5871197D01*
X1426912Y5871000D01*
X1422401Y5867539D01*
X1417435Y5864496D01*
X1408591Y5856942D01*
X1395712Y5847060D01*
X1395332Y5846402D01*
X1394631Y5846111D01*
X1387144Y5838624D01*
X1380222Y5832713D01*
X1374311Y5825792D01*
X1366823Y5818304D01*
X1366532Y5817602D01*
X1365875Y5817222D01*
X1355992Y5804343D01*
X1348440Y5795501D01*
X1345398Y5790536D01*
X1341934Y5786023D01*
X1341738Y5785289D01*
X1341135Y5784827D01*
X1328701Y5763290D01*
X1322870Y5753775D01*
X1322014Y5751707D01*
X1321472Y5750770D01*
X1321401Y5750228D01*
X1321271Y5749915D01*
X1320836Y5749479D01*
X1305787Y5713147D01*
Y5712531D01*
X1305657Y5712218D01*
X1305324Y5711785D01*
X1305043Y5710737D01*
X1304143Y5708563D01*
X1301403Y5697150D01*
X1295146Y5673799D01*
X1295245Y5673046D01*
X1294865Y5672388D01*
X1294145Y5666922D01*
X1292718Y5660977D01*
X1292094Y5653046D01*
X1284639Y5650016D01*
X1280275Y5649473D01*
X1279048Y5649545D01*
X1271844Y5656748D01*
X1260759Y5661340D01*
X1248761D01*
X1237676Y5656748D01*
X1229192Y5648264D01*
X1224600Y5637179D01*
Y5625181D01*
X1229192Y5614096D01*
X1237676Y5605612D01*
X1248761Y5601020D01*
X1260759D01*
X1271844Y5605612D01*
X1276250Y5610018D01*
X1288950Y5604757D01*
Y4511200D01*
X1288947Y4511196D01*
X1288888D01*
X1289639Y4501655D01*
Y4491559D01*
X1289929Y4490858D01*
X1289732Y4490124D01*
X1291755Y4474758D01*
X1292718Y4462523D01*
X1294153Y4456549D01*
X1294865Y4451134D01*
X1295245Y4450476D01*
X1295146Y4449723D01*
X1301349Y4426573D01*
X1304143Y4414938D01*
X1305061Y4412720D01*
X1305325Y4411737D01*
X1305637Y4411330D01*
X1305787Y4410968D01*
Y4410375D01*
X1320836Y4374043D01*
X1321255Y4373623D01*
X1321406Y4373261D01*
X1321473Y4372752D01*
X1321981Y4371872D01*
X1322870Y4369725D01*
X1328925Y4359845D01*
X1341136Y4338695D01*
X1341738Y4338233D01*
X1341935Y4337499D01*
X1345329Y4333075D01*
X1348440Y4327999D01*
X1356161Y4318959D01*
X1365875Y4306300D01*
X1366533Y4305920D01*
X1366823Y4305218D01*
X1374182Y4297860D01*
X1380222Y4290787D01*
X1387295Y4284747D01*
X1394631Y4277410D01*
X1395333Y4277120D01*
X1395713Y4276462D01*
X1408335Y4266776D01*
X1417435Y4259005D01*
X1422544Y4255874D01*
X1426912Y4252522D01*
X1427646Y4252325D01*
X1428108Y4251723D01*
X1449016Y4239651D01*
X1459160Y4233435D01*
X1461365Y4232522D01*
X1462165Y4232060D01*
X1462628Y4231999D01*
X1463059Y4231820D01*
X1463456Y4231423D01*
X1499788Y4216374D01*
X1500349D01*
X1500780Y4216196D01*
X1501150Y4215912D01*
X1502045Y4215672D01*
X1504373Y4214708D01*
X1516589Y4211775D01*
X1539136Y4205733D01*
X1539889Y4205832D01*
X1540547Y4205452D01*
X1545807Y4204760D01*
X1551958Y4203283D01*
X1564555Y4202292D01*
X1579537Y4200320D01*
X1580271Y4200516D01*
X1580972Y4200226D01*
X1590810D01*
X1600631Y4199453D01*
Y4199513D01*
X1600635Y4199516D01*
X3042920D01*
Y3841475D01*
X3033792Y3837694D01*
X3025308Y3829210D01*
X3020716Y3818125D01*
Y3806127D01*
X3025308Y3795042D01*
X3033792Y3786558D01*
X3042920Y3782777D01*
Y3109684D01*
X1613310D01*
X1600638Y3109751D01*
X1600574Y3109757D01*
X1600122Y3109721D01*
X1588237Y3109028D01*
X1588210Y3109027D01*
X1580972D01*
X1580270Y3108736D01*
X1579537Y3108933D01*
X1563817Y3106863D01*
X1551814Y3105919D01*
X1545952Y3104511D01*
X1540547Y3103800D01*
X1539889Y3103420D01*
X1539136Y3103519D01*
X1516026Y3097327D01*
X1504255Y3094501D01*
X1502011Y3093571D01*
X1501150Y3093341D01*
X1500794Y3093067D01*
X1500338Y3092878D01*
X1499788D01*
X1463456Y3077829D01*
X1463067Y3077440D01*
X1462611Y3077251D01*
X1462165Y3077192D01*
X1461393Y3076747D01*
X1459067Y3075783D01*
X1448362Y3069223D01*
X1428108Y3057529D01*
X1427646Y3056927D01*
X1426912Y3056730D01*
X1422693Y3053493D01*
X1417364Y3050228D01*
X1407873Y3042122D01*
X1395712Y3032790D01*
X1395332Y3032132D01*
X1394631Y3031842D01*
X1387572Y3024782D01*
X1380172Y3018463D01*
X1373853Y3011064D01*
X1366823Y3004034D01*
X1366532Y3003332D01*
X1365875Y3002952D01*
X1356582Y2990842D01*
X1348408Y2981271D01*
X1345115Y2975899D01*
X1341934Y2971753D01*
X1341738Y2971019D01*
X1341135Y2970557D01*
X1329627Y2950624D01*
X1322852Y2939568D01*
X1321856Y2937165D01*
X1321472Y2936500D01*
X1321422Y2936116D01*
X1321195Y2935569D01*
X1320836Y2935210D01*
X1305787Y2898877D01*
Y2898369D01*
X1305561Y2897823D01*
X1305324Y2897515D01*
X1305125Y2896771D01*
X1304135Y2894380D01*
X1301122Y2881833D01*
X1295146Y2859529D01*
X1295245Y2858776D01*
X1294865Y2858118D01*
X1294181Y2852921D01*
X1292716Y2846821D01*
X1291734Y2834331D01*
X1289732Y2819128D01*
X1289929Y2818394D01*
X1289638Y2817693D01*
Y2810413D01*
X1289636Y2810386D01*
X1288919Y2798583D01*
X1288878Y2798061D01*
X1288884Y2797997D01*
X1288950Y2785325D01*
Y2577301D01*
X1276250Y2572041D01*
X1274384Y2573907D01*
X1263299Y2578498D01*
X1251301D01*
X1240216Y2573907D01*
X1236302Y2569993D01*
X1228090Y2566827D01*
X1219878Y2569993D01*
X1215964Y2573907D01*
X1204879Y2578498D01*
X1192881D01*
X1181796Y2573907D01*
X1173312Y2565423D01*
X1168720Y2554338D01*
Y2542339D01*
X1173312Y2531254D01*
X1174601Y2529965D01*
X1180952Y2521668D01*
X1174601Y2513372D01*
X1173312Y2512083D01*
X1168720Y2500998D01*
Y2488999D01*
X1173312Y2477914D01*
X1181796Y2469430D01*
X1192881Y2464838D01*
X1204879D01*
X1215964Y2469430D01*
X1219878Y2473344D01*
X1228090Y2476510D01*
X1236302Y2473344D01*
X1240216Y2469430D01*
X1251301Y2464838D01*
X1263299D01*
X1274384Y2469430D01*
X1276250Y2471296D01*
X1288950Y2466035D01*
Y1709676D01*
X1288884Y1697003D01*
X1288878Y1696939D01*
X1288919Y1696416D01*
X1289637Y1684615D01*
X1289639Y1684588D01*
Y1677289D01*
X1289929Y1676587D01*
X1289732Y1675854D01*
X1291737Y1660631D01*
X1292716Y1648179D01*
X1294176Y1642099D01*
X1294865Y1636864D01*
X1295245Y1636206D01*
X1295146Y1635453D01*
X1301161Y1613004D01*
X1304135Y1600620D01*
X1305112Y1598260D01*
X1305325Y1597467D01*
X1305577Y1597139D01*
X1305787Y1596630D01*
Y1596105D01*
X1320836Y1559772D01*
X1321208Y1559400D01*
X1321418Y1558892D01*
X1321473Y1558482D01*
X1321883Y1557772D01*
X1322852Y1555432D01*
X1329451Y1544664D01*
X1341136Y1524425D01*
X1341738Y1523963D01*
X1341935Y1523229D01*
X1345169Y1519014D01*
X1348408Y1513729D01*
X1356447Y1504316D01*
X1365875Y1492030D01*
X1366533Y1491650D01*
X1366823Y1490948D01*
X1373958Y1483813D01*
X1380172Y1476537D01*
X1387448Y1470323D01*
X1394631Y1463140D01*
X1395333Y1462849D01*
X1395713Y1462192D01*
X1408080Y1452701D01*
X1417364Y1444773D01*
X1422576Y1441579D01*
X1426912Y1438252D01*
X1427646Y1438055D01*
X1428108Y1437453D01*
X1448874Y1425463D01*
X1459067Y1419217D01*
X1461282Y1418299D01*
X1462165Y1417789D01*
X1462676Y1417722D01*
X1463036Y1417573D01*
X1463456Y1417153D01*
X1499788Y1402104D01*
X1500382D01*
X1500742Y1401955D01*
X1501150Y1401641D01*
X1502136Y1401377D01*
X1504255Y1400500D01*
X1515371Y1397831D01*
X1539136Y1391463D01*
X1539889Y1391562D01*
X1540547Y1391182D01*
X1546120Y1390449D01*
X1551814Y1389082D01*
X1563475Y1388164D01*
X1579537Y1386049D01*
X1580271Y1386246D01*
X1580972Y1385955D01*
X1588203D01*
X1588230Y1385954D01*
X1600157Y1385276D01*
X1600574Y1385243D01*
X1600638Y1385249D01*
X1613310Y1385315D01*
X3042920D01*
Y1027205D01*
X3033792Y1023424D01*
X3025308Y1014940D01*
X3020716Y1003855D01*
Y991857D01*
X3025308Y980772D01*
X3033792Y972288D01*
X3042920Y968507D01*
Y523984D01*
X300635D01*
X299618Y523563D01*
X255545Y527031D01*
X211459Y537616D01*
X169571Y554966D01*
X130913Y578656D01*
X96436Y608101D01*
X66991Y642578D01*
X43301Y681236D01*
X25951Y723124D01*
X15366Y767210D01*
X11898Y811282D01*
X12320Y812300D01*
Y6476999D01*
X1254760Y6477000D01*
X1551940Y6774180D01*
X1578803D01*
Y6772118D01*
X1583394Y6761033D01*
X1591878Y6752549D01*
X1602964Y6747958D01*
X1614962D01*
X1626047Y6752549D01*
X1634531Y6761033D01*
X1639123Y6772118D01*
Y6774180D01*
X2067560D01*
Y5923985D01*
D02*
G37*
%LPC*%
G36*
X4898039Y7487600D02*
X4886041D01*
X4874956Y7483008D01*
X4866472Y7474524D01*
X4861880Y7463439D01*
Y7451441D01*
X4866472Y7440356D01*
X4874956Y7431872D01*
X4886041Y7427280D01*
X4898039D01*
X4909125Y7431872D01*
X4917609Y7440356D01*
X4922200Y7451441D01*
Y7463439D01*
X4917609Y7474524D01*
X4909125Y7483008D01*
X4898039Y7487600D01*
D02*
G37*
G36*
X4538039Y7443740D02*
X4526041D01*
X4514956Y7439148D01*
X4506472Y7430664D01*
X4501880Y7419579D01*
Y7407581D01*
X4506472Y7396496D01*
X4514956Y7388012D01*
X4526041Y7383420D01*
X4538039D01*
X4549125Y7388012D01*
X4557609Y7396496D01*
X4562200Y7407581D01*
Y7419579D01*
X4557609Y7430664D01*
X4549125Y7439148D01*
X4538039Y7443740D01*
D02*
G37*
G36*
X2433139Y7393620D02*
X2421141D01*
X2410056Y7389028D01*
X2403010Y7381983D01*
X2395964Y7389028D01*
X2384879Y7393620D01*
X2372881D01*
X2361796Y7389028D01*
X2354750Y7381983D01*
X2347704Y7389028D01*
X2336619Y7393620D01*
X2324621D01*
X2313536Y7389028D01*
X2306490Y7381983D01*
X2299444Y7389028D01*
X2288359Y7393620D01*
X2276361D01*
X2265276Y7389028D01*
X2258230Y7381983D01*
X2251184Y7389028D01*
X2240099Y7393620D01*
X2228101D01*
X2217016Y7389028D01*
X2208532Y7380544D01*
X2203940Y7369459D01*
Y7357461D01*
X2208532Y7346376D01*
X2215577Y7339330D01*
X2208532Y7332284D01*
X2203940Y7321199D01*
Y7309201D01*
X2208532Y7298116D01*
X2217016Y7289632D01*
X2228101Y7285040D01*
X2240099D01*
X2251184Y7289632D01*
X2258230Y7296677D01*
X2265276Y7289632D01*
X2276361Y7285040D01*
X2288359D01*
X2299444Y7289632D01*
X2306490Y7296677D01*
X2313536Y7289632D01*
X2324621Y7285040D01*
X2336619D01*
X2347704Y7289632D01*
X2354750Y7296677D01*
X2361796Y7289632D01*
X2372881Y7285040D01*
X2384879D01*
X2395964Y7289632D01*
X2403010Y7296677D01*
X2410056Y7289632D01*
X2421141Y7285040D01*
X2433139D01*
X2444224Y7289632D01*
X2452709Y7298116D01*
X2457300Y7309201D01*
Y7321199D01*
X2452709Y7332284D01*
X2445663Y7339330D01*
X2452709Y7346376D01*
X2457300Y7357461D01*
Y7369459D01*
X2452709Y7380544D01*
X2444224Y7389028D01*
X2433139Y7393620D01*
D02*
G37*
G36*
X8748679Y7382820D02*
X8736681D01*
X8725596Y7378228D01*
X8717112Y7369744D01*
X8712520Y7358659D01*
Y7346661D01*
X8717112Y7335576D01*
X8718081Y7334607D01*
X8724949Y7326310D01*
X8718081Y7318013D01*
X8717112Y7317044D01*
X8712520Y7305959D01*
Y7293961D01*
X8717112Y7282876D01*
X8725596Y7274392D01*
X8736681Y7269800D01*
X8748679D01*
X8759764Y7274392D01*
X8768248Y7282876D01*
X8772840Y7293961D01*
Y7305959D01*
X8768248Y7317044D01*
X8767279Y7318013D01*
X8760411Y7326310D01*
X8767279Y7334607D01*
X8768248Y7335576D01*
X8772840Y7346661D01*
Y7358659D01*
X8768248Y7369744D01*
X8759764Y7378228D01*
X8748679Y7382820D01*
D02*
G37*
G36*
X5263799Y7330120D02*
X5251801D01*
X5240716Y7325528D01*
X5232232Y7317044D01*
X5227640Y7305959D01*
Y7293961D01*
X5232232Y7282876D01*
X5240716Y7274392D01*
X5251801Y7269800D01*
X5263799D01*
X5274885Y7274392D01*
X5283369Y7282876D01*
X5287960Y7293961D01*
Y7305959D01*
X5283369Y7317044D01*
X5274885Y7325528D01*
X5263799Y7330120D01*
D02*
G37*
G36*
X8614637Y7348122D02*
X8601509D01*
X8599488Y7347285D01*
X8597300D01*
X8585172Y7342261D01*
X8583625Y7340715D01*
X8581604Y7339878D01*
X8572321Y7330595D01*
X8571484Y7328573D01*
X8569937Y7327027D01*
X8564913Y7314898D01*
Y7312711D01*
X8564076Y7310690D01*
Y7297562D01*
X8564913Y7295541D01*
Y7293353D01*
X8569937Y7281224D01*
X8571484Y7279678D01*
X8572321Y7277657D01*
X8581604Y7268374D01*
X8583624Y7267537D01*
X8585171Y7265990D01*
X8597300Y7260966D01*
X8599488D01*
X8601509Y7260129D01*
X8614637D01*
X8616658Y7260966D01*
X8618845D01*
X8630974Y7265990D01*
X8632521Y7267537D01*
X8634542Y7268374D01*
X8643825Y7277657D01*
X8644662Y7279677D01*
X8646209Y7281224D01*
X8651233Y7293353D01*
Y7295541D01*
X8652070Y7297562D01*
Y7310690D01*
X8651233Y7312711D01*
Y7314898D01*
X8646209Y7327027D01*
X8644662Y7328574D01*
X8643825Y7330595D01*
X8634542Y7339878D01*
X8632520Y7340715D01*
X8630974Y7342261D01*
X8618845Y7347285D01*
X8616658D01*
X8614637Y7348122D01*
D02*
G37*
G36*
X1307240Y7503640D02*
X786920D01*
Y7223320D01*
X1307240D01*
Y7503640D01*
D02*
G37*
G36*
X117759Y7271700D02*
X105761D01*
X94676Y7267108D01*
X86192Y7258624D01*
X81600Y7247539D01*
Y7235541D01*
X86192Y7224456D01*
X94676Y7215972D01*
X105761Y7211380D01*
X117759D01*
X128844Y7215972D01*
X137328Y7224456D01*
X141920Y7235541D01*
Y7247539D01*
X137328Y7258624D01*
X128844Y7267108D01*
X117759Y7271700D01*
D02*
G37*
G36*
X6093374Y7269143D02*
X6081375D01*
X6070290Y7264551D01*
X6061806Y7256067D01*
X6057214Y7244982D01*
Y7232984D01*
X6061806Y7221899D01*
X6070290Y7213415D01*
X6081375Y7208823D01*
X6093374D01*
X6104459Y7213415D01*
X6112943Y7221899D01*
X6117534Y7232984D01*
Y7244982D01*
X6112943Y7256067D01*
X6104459Y7264551D01*
X6093374Y7269143D01*
D02*
G37*
G36*
X5377775Y7260209D02*
X5365776D01*
X5354691Y7255617D01*
X5346207Y7247133D01*
X5341615Y7236048D01*
Y7224050D01*
X5346207Y7212965D01*
X5354691Y7204481D01*
X5365776Y7199889D01*
X5377775D01*
X5388860Y7204481D01*
X5397344Y7212965D01*
X5401935Y7224050D01*
Y7236048D01*
X5397344Y7247133D01*
X5388860Y7255617D01*
X5377775Y7260209D01*
D02*
G37*
G36*
X6161272Y7201245D02*
X6149274D01*
X6138189Y7196653D01*
X6129705Y7188169D01*
X6125113Y7177084D01*
Y7165085D01*
X6129705Y7154000D01*
X6138189Y7145516D01*
X6149274Y7140925D01*
X6161272D01*
X6172357Y7145516D01*
X6180841Y7154000D01*
X6185433Y7165085D01*
Y7177084D01*
X6180841Y7188169D01*
X6172357Y7196653D01*
X6161272Y7201245D01*
D02*
G37*
G36*
X4633879Y7198040D02*
X4621881D01*
X4610796Y7193448D01*
X4602312Y7184964D01*
X4597720Y7173879D01*
Y7161881D01*
X4602312Y7150796D01*
X4610796Y7142312D01*
X4621881Y7137720D01*
X4633879D01*
X4644965Y7142312D01*
X4653449Y7150796D01*
X4658040Y7161881D01*
Y7173879D01*
X4653449Y7184964D01*
X4644965Y7193448D01*
X4633879Y7198040D01*
D02*
G37*
G36*
X5994482Y7185884D02*
X5982483D01*
X5971398Y7181293D01*
X5962914Y7172809D01*
X5958322Y7161724D01*
Y7149725D01*
X5962914Y7138640D01*
X5971398Y7130156D01*
X5982483Y7125564D01*
X5994482D01*
X6005567Y7130156D01*
X6014051Y7138640D01*
X6018642Y7149725D01*
Y7161724D01*
X6014051Y7172809D01*
X6005567Y7181293D01*
X5994482Y7185884D01*
D02*
G37*
G36*
X5447692Y7173652D02*
X5435693D01*
X5424608Y7169061D01*
X5416124Y7160576D01*
X5411532Y7149491D01*
Y7137493D01*
X5416124Y7126408D01*
X5424608Y7117924D01*
X5435693Y7113332D01*
X5447692D01*
X5458777Y7117924D01*
X5467261Y7126408D01*
X5471852Y7137493D01*
Y7149491D01*
X5467261Y7160576D01*
X5458777Y7169061D01*
X5447692Y7173652D01*
D02*
G37*
G36*
X5552050Y7110960D02*
X5540051D01*
X5528966Y7106368D01*
X5520482Y7097884D01*
X5515890Y7086799D01*
Y7074801D01*
X5520482Y7063716D01*
X5528966Y7055232D01*
X5540051Y7050640D01*
X5552050D01*
X5563135Y7055232D01*
X5571619Y7063716D01*
X5576210Y7074801D01*
Y7086799D01*
X5571619Y7097884D01*
X5563135Y7106368D01*
X5552050Y7110960D01*
D02*
G37*
G36*
X4593239Y7086280D02*
X4581241D01*
X4570156Y7081688D01*
X4561672Y7073204D01*
X4557080Y7062119D01*
Y7050121D01*
X4561672Y7039036D01*
X4570156Y7030552D01*
X4581241Y7025960D01*
X4593239D01*
X4604325Y7030552D01*
X4612809Y7039036D01*
X4617400Y7050121D01*
Y7062119D01*
X4612809Y7073204D01*
X4604325Y7081688D01*
X4593239Y7086280D01*
D02*
G37*
G36*
X8614059Y7084273D02*
X8602061D01*
X8590976Y7079682D01*
X8582492Y7071198D01*
X8577900Y7060113D01*
Y7048114D01*
X8582492Y7037029D01*
X8590976Y7028545D01*
X8602061Y7023953D01*
X8614059D01*
X8625145Y7028545D01*
X8633629Y7037029D01*
X8638220Y7048114D01*
Y7060113D01*
X8633629Y7071198D01*
X8625145Y7079682D01*
X8614059Y7084273D01*
D02*
G37*
G36*
X7612720Y7137654D02*
X7594261D01*
X7576431Y7132877D01*
X7560445Y7123647D01*
X7547393Y7110595D01*
X7538164Y7094609D01*
X7533386Y7076779D01*
Y7058321D01*
X7538164Y7040491D01*
X7547393Y7024505D01*
X7560445Y7011453D01*
X7576431Y7002223D01*
X7594261Y6997446D01*
X7612720D01*
X7630549Y7002223D01*
X7646535Y7011453D01*
X7659587Y7024505D01*
X7668817Y7040491D01*
X7673594Y7058321D01*
Y7076779D01*
X7668817Y7094609D01*
X7659587Y7110595D01*
X7646535Y7123647D01*
X7630549Y7132877D01*
X7612720Y7137654D01*
D02*
G37*
G36*
X7412568D02*
X7394109D01*
X7376279Y7132877D01*
X7360293Y7123647D01*
X7347241Y7110595D01*
X7338012Y7094609D01*
X7333234Y7076779D01*
Y7058321D01*
X7338012Y7040491D01*
X7347241Y7024505D01*
X7360293Y7011453D01*
X7376279Y7002223D01*
X7394109Y6997446D01*
X7412568D01*
X7430397Y7002223D01*
X7446383Y7011453D01*
X7459435Y7024505D01*
X7468665Y7040491D01*
X7473442Y7058321D01*
Y7076779D01*
X7468665Y7094609D01*
X7459435Y7110595D01*
X7446383Y7123647D01*
X7430397Y7132877D01*
X7412568Y7137654D01*
D02*
G37*
G36*
X7012772D02*
X6994313D01*
X6976483Y7132877D01*
X6960497Y7123647D01*
X6947445Y7110595D01*
X6938216Y7094609D01*
X6933438Y7076779D01*
Y7058321D01*
X6938216Y7040491D01*
X6947445Y7024505D01*
X6960497Y7011453D01*
X6976483Y7002223D01*
X6994313Y6997446D01*
X7012772D01*
X7030601Y7002223D01*
X7046587Y7011453D01*
X7059639Y7024505D01*
X7068869Y7040491D01*
X7073646Y7058321D01*
Y7076779D01*
X7068869Y7094609D01*
X7059639Y7110595D01*
X7046587Y7123647D01*
X7030601Y7132877D01*
X7012772Y7137654D01*
D02*
G37*
G36*
X6812620D02*
X6794161D01*
X6776331Y7132877D01*
X6760345Y7123647D01*
X6747293Y7110595D01*
X6738064Y7094609D01*
X6733286Y7076779D01*
Y7058321D01*
X6738064Y7040491D01*
X6747293Y7024505D01*
X6760345Y7011453D01*
X6776331Y7002223D01*
X6794161Y6997446D01*
X6812620D01*
X6830449Y7002223D01*
X6846435Y7011453D01*
X6859487Y7024505D01*
X6868717Y7040491D01*
X6873494Y7058321D01*
Y7076779D01*
X6868717Y7094609D01*
X6859487Y7110595D01*
X6846435Y7123647D01*
X6830449Y7132877D01*
X6812620Y7137654D01*
D02*
G37*
G36*
X8756299Y7038330D02*
X8744301D01*
X8733216Y7033738D01*
X8724732Y7025254D01*
X8720140Y7014169D01*
Y7002171D01*
X8724732Y6991086D01*
X8725701Y6990117D01*
X8732569Y6981820D01*
X8725701Y6973523D01*
X8724732Y6972554D01*
X8724682Y6972433D01*
X8558468D01*
Y6973027D01*
X8530645Y6969364D01*
X8508680Y6960266D01*
X8506040Y6960519D01*
X8497406Y6963889D01*
X8493954Y6966373D01*
X8491389Y6972567D01*
X8482905Y6981051D01*
X8471819Y6985643D01*
X8459821D01*
X8448736Y6981051D01*
X8440252Y6972567D01*
X8435660Y6961482D01*
Y6949483D01*
X8440252Y6938398D01*
X8441221Y6937429D01*
X8448089Y6929133D01*
X8441221Y6920836D01*
X8440252Y6919867D01*
X8435660Y6908782D01*
Y6896784D01*
X8440252Y6885698D01*
X8442282Y6883668D01*
X8447587Y6875410D01*
X8442282Y6867075D01*
X8440288Y6865081D01*
X8435696Y6853996D01*
Y6841998D01*
X8440288Y6830913D01*
X8448772Y6822429D01*
X8459857Y6817837D01*
X8471856D01*
X8482941Y6822429D01*
X8491425Y6830913D01*
X8496016Y6841998D01*
Y6853996D01*
X8491425Y6865081D01*
X8489395Y6867111D01*
X8484089Y6875370D01*
X8489395Y6883705D01*
X8491389Y6885698D01*
X8495980Y6896784D01*
Y6906249D01*
X8506863Y6917132D01*
X8507091Y6916904D01*
X8522139Y6928450D01*
X8539662Y6935709D01*
X8558468Y6938184D01*
Y6938507D01*
X8724682D01*
X8724732Y6938386D01*
X8725701Y6937417D01*
X8732569Y6929120D01*
X8725701Y6920823D01*
X8724732Y6919854D01*
X8720140Y6908769D01*
Y6896771D01*
X8724732Y6885686D01*
X8733216Y6877202D01*
X8744301Y6872610D01*
X8756299D01*
X8767385Y6877202D01*
X8775869Y6885686D01*
X8780460Y6896771D01*
Y6908769D01*
X8775869Y6919854D01*
X8774900Y6920823D01*
X8768032Y6929120D01*
X8774900Y6937417D01*
X8775869Y6938386D01*
X8780460Y6949471D01*
Y6961469D01*
X8775869Y6972554D01*
X8774900Y6973523D01*
X8768032Y6981820D01*
X8774900Y6990117D01*
X8775869Y6991086D01*
X8780460Y7002171D01*
Y7014169D01*
X8775869Y7025254D01*
X8767385Y7033738D01*
X8756299Y7038330D01*
D02*
G37*
G36*
X8370219Y7065960D02*
X8358221D01*
X8347136Y7061368D01*
X8338652Y7052884D01*
X8334060Y7041799D01*
Y7029801D01*
X8338652Y7018716D01*
X8347136Y7010232D01*
X8358221Y7005640D01*
X8359592D01*
X8370314Y7004630D01*
X8371325Y6993907D01*
Y6992536D01*
X8375916Y6981451D01*
X8384401Y6972967D01*
X8395486Y6968375D01*
X8407484D01*
X8418569Y6972967D01*
X8427053Y6981451D01*
X8431645Y6992536D01*
Y7004535D01*
X8427053Y7015620D01*
X8418569Y7024104D01*
X8407484Y7028695D01*
X8406113D01*
X8395391Y7029706D01*
X8394380Y7040429D01*
Y7041799D01*
X8389789Y7052884D01*
X8381305Y7061368D01*
X8370219Y7065960D01*
D02*
G37*
G36*
X4397659Y6964360D02*
X4385661D01*
X4374576Y6959768D01*
X4366092Y6951284D01*
X4361500Y6940199D01*
Y6928201D01*
X4366092Y6917116D01*
X4374576Y6908632D01*
X4385661Y6904040D01*
X4397659D01*
X4408745Y6908632D01*
X4417229Y6917116D01*
X4421820Y6928201D01*
Y6940199D01*
X4417229Y6951284D01*
X4408745Y6959768D01*
X4397659Y6964360D01*
D02*
G37*
G36*
X4811090Y6989084D02*
X4799092D01*
X4788007Y6984492D01*
X4779523Y6976008D01*
X4774931Y6964923D01*
Y6952924D01*
X4779523Y6941839D01*
X4786056Y6931828D01*
X4777572Y6923344D01*
X4772980Y6912259D01*
Y6900261D01*
X4777572Y6889176D01*
X4786056Y6880692D01*
X4797141Y6876100D01*
X4809139D01*
X4820225Y6880692D01*
X4828709Y6889176D01*
X4833300Y6900261D01*
Y6912259D01*
X4828709Y6923344D01*
X4822176Y6933355D01*
X4830660Y6941839D01*
X4835251Y6952924D01*
Y6964923D01*
X4830660Y6976008D01*
X4822176Y6984492D01*
X4811090Y6989084D01*
D02*
G37*
G36*
X3518819Y7002460D02*
X3506821D01*
X3495736Y6997868D01*
X3487252Y6989384D01*
X3482660Y6978299D01*
Y6966301D01*
X3487252Y6955216D01*
X3493027Y6949440D01*
X3487252Y6943664D01*
X3482660Y6932579D01*
Y6920581D01*
X3487252Y6909496D01*
X3491757Y6904990D01*
X3487252Y6900484D01*
X3482660Y6889399D01*
Y6877401D01*
X3487252Y6866316D01*
X3495736Y6857832D01*
X3506821Y6853240D01*
X3518819D01*
X3529904Y6857832D01*
X3538388Y6866316D01*
X3542980Y6877401D01*
Y6889399D01*
X3538388Y6900484D01*
X3533883Y6904990D01*
X3538388Y6909496D01*
X3542980Y6920581D01*
Y6932579D01*
X3538388Y6943664D01*
X3532613Y6949440D01*
X3538388Y6955216D01*
X3542980Y6966301D01*
Y6978299D01*
X3538388Y6989384D01*
X3529904Y6997868D01*
X3518819Y7002460D01*
D02*
G37*
G36*
X7312746Y6987794D02*
X7294287D01*
X7276457Y6983017D01*
X7260471Y6973787D01*
X7247419Y6960735D01*
X7238190Y6944749D01*
X7233412Y6926919D01*
Y6908461D01*
X7238190Y6890631D01*
X7247419Y6874645D01*
X7260471Y6861593D01*
X7276457Y6852363D01*
X7294287Y6847586D01*
X7312746D01*
X7330575Y6852363D01*
X7346561Y6861593D01*
X7359613Y6874645D01*
X7368843Y6890631D01*
X7373620Y6908461D01*
Y6926919D01*
X7368843Y6944749D01*
X7359613Y6960735D01*
X7346561Y6973787D01*
X7330575Y6983017D01*
X7312746Y6987794D01*
D02*
G37*
G36*
X7112594D02*
X7094135D01*
X7076305Y6983017D01*
X7060319Y6973787D01*
X7047267Y6960735D01*
X7038038Y6944749D01*
X7033260Y6926919D01*
Y6908461D01*
X7038038Y6890631D01*
X7047267Y6874645D01*
X7060319Y6861593D01*
X7076305Y6852363D01*
X7094135Y6847586D01*
X7112594D01*
X7130423Y6852363D01*
X7146409Y6861593D01*
X7159461Y6874645D01*
X7168691Y6890631D01*
X7173468Y6908461D01*
Y6926919D01*
X7168691Y6944749D01*
X7159461Y6960735D01*
X7146409Y6973787D01*
X7130423Y6983017D01*
X7112594Y6987794D01*
D02*
G37*
G36*
X6862658D02*
X6844199D01*
X6826369Y6983017D01*
X6810383Y6973787D01*
X6797331Y6960735D01*
X6788102Y6944749D01*
X6783324Y6926919D01*
Y6908461D01*
X6788102Y6890631D01*
X6797331Y6874645D01*
X6810383Y6861593D01*
X6826369Y6852363D01*
X6844199Y6847586D01*
X6862658D01*
X6880487Y6852363D01*
X6896473Y6861593D01*
X6909525Y6874645D01*
X6918755Y6890631D01*
X6923532Y6908461D01*
Y6926919D01*
X6918755Y6944749D01*
X6909525Y6960735D01*
X6896473Y6973787D01*
X6880487Y6983017D01*
X6862658Y6987794D01*
D02*
G37*
G36*
X4505168Y6937249D02*
X4493170D01*
X4482085Y6932657D01*
X4473601Y6924173D01*
X4469009Y6913088D01*
Y6911718D01*
X4467999Y6900995D01*
X4457276Y6899984D01*
X4455905D01*
X4444820Y6895393D01*
X4436336Y6886909D01*
X4431745Y6875824D01*
Y6863825D01*
X4436336Y6852740D01*
X4444820Y6844256D01*
X4455905Y6839665D01*
X4467904D01*
X4478989Y6844256D01*
X4487473Y6852740D01*
X4492064Y6863825D01*
Y6865196D01*
X4493075Y6875919D01*
X4503798Y6876929D01*
X4505168D01*
X4516253Y6881521D01*
X4524737Y6890005D01*
X4529329Y6901090D01*
Y6913088D01*
X4524737Y6924173D01*
X4516253Y6932657D01*
X4505168Y6937249D01*
D02*
G37*
G36*
X3912519Y6893240D02*
X3900521D01*
X3889436Y6888648D01*
X3880952Y6880164D01*
X3876360Y6869079D01*
Y6857081D01*
X3880952Y6845996D01*
X3889436Y6837512D01*
X3900521Y6832920D01*
X3912519D01*
X3923604Y6837512D01*
X3932088Y6845996D01*
X3936680Y6857081D01*
Y6869079D01*
X3932088Y6880164D01*
X3923604Y6888648D01*
X3912519Y6893240D01*
D02*
G37*
G36*
X8382084Y6872085D02*
X8370086D01*
X8359001Y6867493D01*
X8350516Y6859009D01*
X8345925Y6847924D01*
Y6846553D01*
X8344914Y6835830D01*
X8334192Y6834820D01*
X8332821D01*
X8321736Y6830228D01*
X8313252Y6821744D01*
X8308660Y6810659D01*
Y6798661D01*
X8313252Y6787576D01*
X8321736Y6779092D01*
X8332821Y6774500D01*
X8344819D01*
X8355905Y6779092D01*
X8364389Y6787576D01*
X8368980Y6798661D01*
Y6800031D01*
X8369991Y6810754D01*
X8380713Y6811765D01*
X8382084D01*
X8393169Y6816356D01*
X8401653Y6824840D01*
X8406245Y6835925D01*
Y6847924D01*
X8401653Y6859009D01*
X8393169Y6867493D01*
X8382084Y6872085D01*
D02*
G37*
G36*
X8614059Y6834287D02*
X8602061D01*
X8590976Y6829695D01*
X8582492Y6821211D01*
X8577900Y6810126D01*
Y6798127D01*
X8582492Y6787042D01*
X8590976Y6778558D01*
X8602061Y6773967D01*
X8614059D01*
X8625145Y6778558D01*
X8633629Y6787042D01*
X8638220Y6798127D01*
Y6810126D01*
X8633629Y6821211D01*
X8625145Y6829695D01*
X8614059Y6834287D01*
D02*
G37*
G36*
X4742432Y6869712D02*
X4730433D01*
X4719348Y6865121D01*
X4710864Y6856637D01*
X4706273Y6845551D01*
Y6844181D01*
X4705262Y6833458D01*
X4694539Y6832448D01*
X4693169D01*
X4682084Y6827856D01*
X4673599Y6819372D01*
X4669008Y6808287D01*
Y6796288D01*
X4673599Y6785203D01*
X4682084Y6776719D01*
X4693169Y6772128D01*
X4705167D01*
X4716252Y6776719D01*
X4724736Y6785203D01*
X4729328Y6796288D01*
Y6797659D01*
X4730338Y6808382D01*
X4741061Y6809392D01*
X4742432D01*
X4753517Y6813984D01*
X4762001Y6822468D01*
X4766592Y6833553D01*
Y6845551D01*
X4762001Y6856637D01*
X4753517Y6865121D01*
X4742432Y6869712D01*
D02*
G37*
G36*
X8799479Y6865300D02*
X8787481D01*
X8776396Y6860708D01*
X8767912Y6852224D01*
X8763320Y6841139D01*
Y6829141D01*
X8767912Y6818056D01*
X8776396Y6809572D01*
X8787481Y6804980D01*
X8788852D01*
X8799574Y6803970D01*
X8800585Y6793247D01*
Y6791876D01*
X8805176Y6780791D01*
X8813661Y6772307D01*
X8824746Y6767715D01*
X8836744D01*
X8847829Y6772307D01*
X8856313Y6780791D01*
X8860905Y6791876D01*
Y6803875D01*
X8856313Y6814960D01*
X8847829Y6823444D01*
X8836744Y6828035D01*
X8835373D01*
X8824651Y6829046D01*
X8823640Y6839769D01*
Y6841139D01*
X8819049Y6852224D01*
X8810565Y6860708D01*
X8799479Y6865300D01*
D02*
G37*
G36*
X3998879Y6801800D02*
X3986881D01*
X3975796Y6797208D01*
X3967312Y6788724D01*
X3962720Y6777639D01*
Y6765641D01*
X3967312Y6754556D01*
X3975796Y6746072D01*
X3986881Y6741480D01*
X3998879D01*
X4009964Y6746072D01*
X4018448Y6754556D01*
X4023040Y6765641D01*
Y6777639D01*
X4018448Y6788724D01*
X4009964Y6797208D01*
X3998879Y6801800D01*
D02*
G37*
G36*
X5688479Y6723647D02*
X5676481D01*
X5665396Y6719055D01*
X5656912Y6710571D01*
X5652320Y6699486D01*
Y6687488D01*
X5656912Y6676402D01*
X5665396Y6667918D01*
X5676481Y6663327D01*
X5688479D01*
X5699564Y6667918D01*
X5704749Y6673103D01*
X5713194Y6674918D01*
X5720328Y6672860D01*
X5725856Y6667332D01*
X5736941Y6662740D01*
X5748939D01*
X5760025Y6667332D01*
X5768509Y6675816D01*
X5773100Y6686901D01*
Y6698899D01*
X5768509Y6709984D01*
X5760025Y6718468D01*
X5748939Y6723060D01*
X5736941D01*
X5725856Y6718468D01*
X5720671Y6713284D01*
X5712226Y6711469D01*
X5705093Y6713527D01*
X5699564Y6719055D01*
X5688479Y6723647D01*
D02*
G37*
G36*
X5469758Y6674876D02*
X5457759D01*
X5446674Y6670284D01*
X5438190Y6661800D01*
X5433598Y6650715D01*
Y6638717D01*
X5438190Y6627632D01*
X5446674Y6619148D01*
X5457759Y6614556D01*
X5469758D01*
X5480843Y6619148D01*
X5489327Y6627632D01*
X5493918Y6638717D01*
Y6650715D01*
X5489327Y6661800D01*
X5480843Y6670284D01*
X5469758Y6674876D01*
D02*
G37*
G36*
X8613812Y6613308D02*
X8602329D01*
X8600317Y6612474D01*
X8598139Y6612479D01*
X8587523Y6608104D01*
X8585980Y6606567D01*
X8583964Y6605740D01*
X8575816Y6597650D01*
X8574975Y6595641D01*
X8573427Y6594109D01*
X8568975Y6583525D01*
X8568963Y6581347D01*
X8568115Y6579341D01*
X8568074Y6573599D01*
X8568090Y6573561D01*
X8568074Y6573523D01*
X8568064Y6532301D01*
X8568177Y6532029D01*
X8568078Y6531751D01*
X8568355Y6526170D01*
X8569264Y6524252D01*
X8569343Y6522132D01*
X8574003Y6511972D01*
X8575558Y6510529D01*
X8576418Y6508589D01*
X8584516Y6500884D01*
X8586496Y6500122D01*
X8588015Y6498640D01*
X8598394Y6494491D01*
X8600516Y6494518D01*
X8602477Y6493706D01*
X8608065Y6493706D01*
X8608065Y6493706D01*
X8608066Y6493706D01*
X8613631D01*
X8615583Y6494515D01*
X8617697Y6494485D01*
X8628040Y6498601D01*
X8629555Y6500075D01*
X8631529Y6500829D01*
X8639617Y6508477D01*
X8640480Y6510406D01*
X8642036Y6511837D01*
X8646723Y6521933D01*
X8646812Y6524045D01*
X8647728Y6525949D01*
X8648039Y6531506D01*
X8647931Y6531815D01*
X8648056Y6532118D01*
X8648067Y6573517D01*
X8648050Y6573558D01*
X8648067Y6573599D01*
X8648025Y6579340D01*
X8647177Y6581347D01*
X8647165Y6583525D01*
X8642714Y6594109D01*
X8641166Y6595641D01*
X8640325Y6597650D01*
X8632176Y6605740D01*
X8630161Y6606567D01*
X8628618Y6608104D01*
X8618002Y6612479D01*
X8615824Y6612474D01*
X8613812Y6613308D01*
D02*
G37*
G36*
X2678079Y6774460D02*
X2666081D01*
X2654996Y6769868D01*
X2646512Y6761384D01*
X2641920Y6750299D01*
Y6738301D01*
X2646512Y6727216D01*
X2647801Y6725927D01*
X2654152Y6717630D01*
X2647801Y6709333D01*
X2646512Y6708044D01*
X2641920Y6696959D01*
Y6684961D01*
X2646512Y6673876D01*
X2654827Y6665560D01*
X2646512Y6657244D01*
X2641920Y6646159D01*
Y6634161D01*
X2646512Y6623076D01*
X2654996Y6614592D01*
X2666081Y6610000D01*
X2678079D01*
X2689164Y6614592D01*
X2697648Y6623076D01*
X2702240Y6634161D01*
Y6646159D01*
X2697648Y6657244D01*
X2689333Y6665560D01*
X2697648Y6673876D01*
X2702240Y6684961D01*
Y6696959D01*
X2697648Y6708044D01*
X2696359Y6709333D01*
X2690008Y6717630D01*
X2696359Y6725927D01*
X2697648Y6727216D01*
X2702240Y6738301D01*
Y6750299D01*
X2697648Y6761384D01*
X2689164Y6769868D01*
X2678079Y6774460D01*
D02*
G37*
G36*
X2551079D02*
X2539081D01*
X2527996Y6769868D01*
X2519512Y6761384D01*
X2514920Y6750299D01*
Y6738301D01*
X2519512Y6727216D01*
X2520801Y6725927D01*
X2527152Y6717630D01*
X2520801Y6709333D01*
X2519512Y6708044D01*
X2514920Y6696959D01*
Y6684961D01*
X2519512Y6673876D01*
X2527827Y6665560D01*
X2519512Y6657244D01*
X2514920Y6646159D01*
Y6634161D01*
X2519512Y6623076D01*
X2527996Y6614592D01*
X2539081Y6610000D01*
X2551079D01*
X2562164Y6614592D01*
X2570648Y6623076D01*
X2575240Y6634161D01*
Y6646159D01*
X2570648Y6657244D01*
X2562333Y6665560D01*
X2570648Y6673876D01*
X2575240Y6684961D01*
Y6696959D01*
X2570648Y6708044D01*
X2569359Y6709333D01*
X2563008Y6717630D01*
X2569359Y6725927D01*
X2570648Y6727216D01*
X2575240Y6738301D01*
Y6750299D01*
X2570648Y6761384D01*
X2562164Y6769868D01*
X2551079Y6774460D01*
D02*
G37*
G36*
X5687066Y6538553D02*
X5675068D01*
X5663983Y6533962D01*
X5655499Y6525477D01*
X5650907Y6514392D01*
Y6502394D01*
X5655499Y6491309D01*
X5663983Y6482825D01*
X5675068Y6478233D01*
X5687066D01*
X5698151Y6482825D01*
X5706636Y6491309D01*
X5711227Y6502394D01*
Y6514392D01*
X5706636Y6525477D01*
X5698151Y6533962D01*
X5687066Y6538553D01*
D02*
G37*
G36*
X5365875Y6517836D02*
X5353877D01*
X5342792Y6513245D01*
X5334308Y6504761D01*
X5329716Y6493676D01*
Y6481677D01*
X5334308Y6470592D01*
X5342792Y6462108D01*
X5353877Y6457516D01*
X5365875D01*
X5376960Y6462108D01*
X5385444Y6470592D01*
X5390036Y6481677D01*
Y6493676D01*
X5385444Y6504761D01*
X5376960Y6513245D01*
X5365875Y6517836D01*
D02*
G37*
G36*
X2433139Y6458900D02*
X2421141D01*
X2410056Y6454308D01*
X2403010Y6447263D01*
X2395964Y6454308D01*
X2384879Y6458900D01*
X2372881D01*
X2361796Y6454308D01*
X2354750Y6447263D01*
X2347704Y6454308D01*
X2336619Y6458900D01*
X2324621D01*
X2313536Y6454308D01*
X2306490Y6447263D01*
X2299444Y6454308D01*
X2288359Y6458900D01*
X2276361D01*
X2265276Y6454308D01*
X2258230Y6447263D01*
X2251184Y6454308D01*
X2240099Y6458900D01*
X2228101D01*
X2217016Y6454308D01*
X2208532Y6445824D01*
X2203940Y6434739D01*
Y6422741D01*
X2208532Y6411656D01*
X2215577Y6404610D01*
X2208532Y6397564D01*
X2203940Y6386479D01*
Y6374481D01*
X2208532Y6363396D01*
X2217016Y6354912D01*
X2228101Y6350320D01*
X2240099D01*
X2251184Y6354912D01*
X2258230Y6361957D01*
X2265276Y6354912D01*
X2276361Y6350320D01*
X2288359D01*
X2299444Y6354912D01*
X2306490Y6361957D01*
X2313536Y6354912D01*
X2324621Y6350320D01*
X2336619D01*
X2347704Y6354912D01*
X2354750Y6361957D01*
X2361796Y6354912D01*
X2372881Y6350320D01*
X2384879D01*
X2395964Y6354912D01*
X2403010Y6361957D01*
X2410056Y6354912D01*
X2421141Y6350320D01*
X2433139D01*
X2444224Y6354912D01*
X2452709Y6363396D01*
X2457300Y6374481D01*
Y6386479D01*
X2452709Y6397564D01*
X2445663Y6404610D01*
X2452709Y6411656D01*
X2457300Y6422741D01*
Y6434739D01*
X2452709Y6445824D01*
X2444224Y6454308D01*
X2433139Y6458900D01*
D02*
G37*
G36*
X5205353Y6539636D02*
X5186879D01*
X5169035Y6534855D01*
X5153037Y6525618D01*
X5139974Y6512555D01*
X5130737Y6496557D01*
X5125956Y6478713D01*
Y6460239D01*
X5130737Y6442395D01*
X5139974Y6426397D01*
X5153037Y6413334D01*
X5169035Y6404097D01*
X5186879Y6399316D01*
X5205353D01*
X5223197Y6404097D01*
X5239195Y6413334D01*
X5252258Y6426397D01*
X5261494Y6442395D01*
X5266276Y6460239D01*
Y6478713D01*
X5261494Y6496557D01*
X5252258Y6512555D01*
X5239195Y6525618D01*
X5223197Y6534855D01*
X5205353Y6539636D01*
D02*
G37*
G36*
X4606094Y6395720D02*
X4594096D01*
X4583011Y6391128D01*
X4574527Y6382644D01*
X4569935Y6371559D01*
Y6359561D01*
X4574527Y6348476D01*
X4583011Y6339992D01*
X4594096Y6335400D01*
X4606094D01*
X4617179Y6339992D01*
X4625663Y6348476D01*
X4630255Y6359561D01*
Y6371559D01*
X4625663Y6382644D01*
X4617179Y6391128D01*
X4606094Y6395720D01*
D02*
G37*
G36*
X4258432Y6428893D02*
X4246434D01*
X4235349Y6424301D01*
X4226865Y6415817D01*
X4222273Y6404732D01*
Y6402053D01*
X4220271Y6392322D01*
X4210540Y6390320D01*
X4207861D01*
X4196776Y6385728D01*
X4188292Y6377244D01*
X4183700Y6366159D01*
Y6354161D01*
X4188292Y6343076D01*
X4196776Y6334592D01*
X4207861Y6330000D01*
X4219859D01*
X4230944Y6334592D01*
X4239428Y6343076D01*
X4244020Y6354161D01*
Y6356840D01*
X4246022Y6366571D01*
X4255753Y6368573D01*
X4258432D01*
X4269517Y6373165D01*
X4278001Y6381649D01*
X4282593Y6392734D01*
Y6404732D01*
X4278001Y6415817D01*
X4269517Y6424301D01*
X4258432Y6428893D01*
D02*
G37*
G36*
X5411119Y6298880D02*
X5399121D01*
X5388036Y6294288D01*
X5379552Y6285804D01*
X5374960Y6274719D01*
Y6262721D01*
X5379552Y6251636D01*
X5388036Y6243152D01*
X5399121Y6238560D01*
X5411119D01*
X5422205Y6243152D01*
X5430689Y6251636D01*
X5435280Y6262721D01*
Y6274719D01*
X5430689Y6285804D01*
X5422205Y6294288D01*
X5411119Y6298880D01*
D02*
G37*
G36*
X7951119Y6270940D02*
X7939121D01*
X7928036Y6266348D01*
X7919552Y6257864D01*
X7914960Y6246779D01*
Y6234781D01*
X7919552Y6223696D01*
X7928036Y6215212D01*
X7939121Y6210620D01*
X7951119D01*
X7962204Y6215212D01*
X7970688Y6223696D01*
X7975280Y6234781D01*
Y6246779D01*
X7970688Y6257864D01*
X7962204Y6266348D01*
X7951119Y6270940D01*
D02*
G37*
G36*
X5291870Y6255748D02*
X5279871D01*
X5268786Y6251157D01*
X5260302Y6242673D01*
X5255710Y6231587D01*
Y6219589D01*
X5260302Y6208504D01*
X5268786Y6200020D01*
X5279871Y6195428D01*
X5291870D01*
X5302955Y6200020D01*
X5311439Y6208504D01*
X5316030Y6219589D01*
Y6231587D01*
X5311439Y6242673D01*
X5302955Y6251157D01*
X5291870Y6255748D01*
D02*
G37*
G36*
X3988719Y6170196D02*
X3976721D01*
X3965636Y6165604D01*
X3957152Y6157120D01*
X3952560Y6146035D01*
Y6134037D01*
X3957152Y6122952D01*
X3965636Y6114468D01*
X3976721Y6109876D01*
X3988719D01*
X3999804Y6114468D01*
X4008288Y6122952D01*
X4012880Y6134037D01*
Y6146035D01*
X4008288Y6157120D01*
X3999804Y6165604D01*
X3988719Y6170196D01*
D02*
G37*
G36*
X5223229Y6154170D02*
X5211231D01*
X5200146Y6149579D01*
X5191661Y6141094D01*
X5187070Y6130009D01*
Y6118011D01*
X5191661Y6106926D01*
X5200146Y6098442D01*
X5211231Y6093850D01*
X5223229D01*
X5234314Y6098442D01*
X5242798Y6106926D01*
X5247390Y6118011D01*
Y6130009D01*
X5242798Y6141094D01*
X5234314Y6149579D01*
X5223229Y6154170D01*
D02*
G37*
G36*
X7956199Y6146480D02*
X7944201D01*
X7933116Y6141888D01*
X7924632Y6133404D01*
X7920040Y6122319D01*
Y6110321D01*
X7924632Y6099236D01*
X7933116Y6090752D01*
X7944201Y6086160D01*
X7956199D01*
X7967284Y6090752D01*
X7975768Y6099236D01*
X7980360Y6110321D01*
Y6122319D01*
X7975768Y6133404D01*
X7967284Y6141888D01*
X7956199Y6146480D01*
D02*
G37*
G36*
X4645792Y6129117D02*
X4633794D01*
X4622709Y6124525D01*
X4614225Y6116041D01*
X4609633Y6104956D01*
Y6092957D01*
X4614225Y6081872D01*
X4622709Y6073388D01*
X4633794Y6068797D01*
X4645792D01*
X4656877Y6073388D01*
X4665362Y6081872D01*
X4669953Y6092957D01*
Y6104956D01*
X4665362Y6116041D01*
X4656877Y6124525D01*
X4645792Y6129117D01*
D02*
G37*
G36*
X4943759Y6093140D02*
X4931761D01*
X4920676Y6088548D01*
X4912192Y6080064D01*
X4907600Y6068979D01*
Y6056981D01*
X4912192Y6045896D01*
X4920676Y6037412D01*
X4931761Y6032820D01*
X4943759D01*
X4954844Y6037412D01*
X4963328Y6045896D01*
X4967920Y6056981D01*
Y6068979D01*
X4963328Y6080064D01*
X4954844Y6088548D01*
X4943759Y6093140D01*
D02*
G37*
G36*
X7427879Y6019480D02*
X7415881D01*
X7404796Y6014888D01*
X7396312Y6006404D01*
X7391720Y5995319D01*
Y5983321D01*
X7396312Y5972236D01*
X7404796Y5963752D01*
X7415881Y5959160D01*
X7427879D01*
X7438964Y5963752D01*
X7447448Y5972236D01*
X7452040Y5983321D01*
Y5995319D01*
X7447448Y6006404D01*
X7438964Y6014888D01*
X7427879Y6019480D01*
D02*
G37*
G36*
X7519319Y5889940D02*
X7507321D01*
X7496236Y5885348D01*
X7487752Y5876864D01*
X7483160Y5865779D01*
Y5853781D01*
X7487752Y5842696D01*
X7496236Y5834212D01*
X7507321Y5829620D01*
X7519319D01*
X7530404Y5834212D01*
X7538888Y5842696D01*
X7543480Y5853781D01*
Y5865779D01*
X7538888Y5876864D01*
X7530404Y5885348D01*
X7519319Y5889940D01*
D02*
G37*
G36*
X7981599Y5869620D02*
X7969601D01*
X7958516Y5865028D01*
X7950032Y5856544D01*
X7945440Y5845459D01*
Y5833461D01*
X7950032Y5822376D01*
X7958516Y5813892D01*
X7969601Y5809300D01*
X7981599D01*
X7992685Y5813892D01*
X8001169Y5822376D01*
X8005760Y5833461D01*
Y5845459D01*
X8001169Y5856544D01*
X7992685Y5865028D01*
X7981599Y5869620D01*
D02*
G37*
G36*
X8282040Y5868711D02*
X8270041D01*
X8258956Y5864119D01*
X8250472Y5855635D01*
X8245880Y5844550D01*
Y5832552D01*
X8250472Y5821467D01*
X8258956Y5812983D01*
X8270041Y5808391D01*
X8282040D01*
X8293125Y5812983D01*
X8301609Y5821467D01*
X8306200Y5832552D01*
Y5844550D01*
X8301609Y5855635D01*
X8293125Y5864119D01*
X8282040Y5868711D01*
D02*
G37*
G36*
X8495400Y5867802D02*
X8483401D01*
X8472316Y5863210D01*
X8463832Y5854726D01*
X8459240Y5843641D01*
Y5831643D01*
X8463832Y5820558D01*
X8472316Y5812073D01*
X8483401Y5807482D01*
X8495400D01*
X8506485Y5812073D01*
X8514969Y5820558D01*
X8519560Y5831643D01*
Y5843641D01*
X8514969Y5854726D01*
X8506485Y5863210D01*
X8495400Y5867802D01*
D02*
G37*
G36*
X8309259Y5747700D02*
X8297261D01*
X8286176Y5743108D01*
X8277692Y5734624D01*
X8273100Y5723539D01*
Y5711541D01*
X8277692Y5700456D01*
X8286176Y5691972D01*
X8297261Y5687380D01*
X8309259D01*
X8320345Y5691972D01*
X8328829Y5700456D01*
X8333420Y5711541D01*
Y5723539D01*
X8328829Y5734624D01*
X8320345Y5743108D01*
X8309259Y5747700D01*
D02*
G37*
G36*
X8227979Y5745160D02*
X8215981D01*
X8204896Y5740568D01*
X8196412Y5732084D01*
X8191820Y5720999D01*
Y5709001D01*
X8196412Y5697916D01*
X8204896Y5689432D01*
X8215981Y5684840D01*
X8227979D01*
X8239064Y5689432D01*
X8247548Y5697916D01*
X8252140Y5709001D01*
Y5720999D01*
X8247548Y5732084D01*
X8239064Y5740568D01*
X8227979Y5745160D01*
D02*
G37*
G36*
X8107980D02*
X8095981D01*
X8084896Y5740568D01*
X8076412Y5732084D01*
X8071821Y5720999D01*
Y5709001D01*
X8076412Y5697916D01*
X8084896Y5689432D01*
X8095981Y5684840D01*
X8107980D01*
X8119065Y5689432D01*
X8127549Y5697916D01*
X8132140Y5709001D01*
Y5720999D01*
X8127549Y5732084D01*
X8119065Y5740568D01*
X8107980Y5745160D01*
D02*
G37*
G36*
X7983696Y5636260D02*
X7971698D01*
X7960613Y5631668D01*
X7952129Y5623184D01*
X7947537Y5612099D01*
Y5600101D01*
X7952129Y5589016D01*
X7960613Y5580532D01*
X7971698Y5575940D01*
X7983696D01*
X7994781Y5580532D01*
X8003265Y5589016D01*
X8007857Y5600101D01*
Y5612099D01*
X8003265Y5623184D01*
X7994781Y5631668D01*
X7983696Y5636260D01*
D02*
G37*
G36*
X8230840Y5623106D02*
X8218841D01*
X8207756Y5618514D01*
X8199272Y5610030D01*
X8194680Y5598945D01*
Y5586946D01*
X8199272Y5575861D01*
X8207756Y5567377D01*
X8218841Y5562786D01*
X8230840D01*
X8241925Y5567377D01*
X8250409Y5575861D01*
X8255000Y5586946D01*
Y5598945D01*
X8250409Y5610030D01*
X8241925Y5618514D01*
X8230840Y5623106D01*
D02*
G37*
G36*
X7775859Y5610540D02*
X7763861D01*
X7752776Y5605948D01*
X7744292Y5597464D01*
X7739700Y5586379D01*
Y5574381D01*
X7744292Y5563296D01*
X7752776Y5554812D01*
X7763861Y5550220D01*
X7775859D01*
X7786945Y5554812D01*
X7795429Y5563296D01*
X7800020Y5574381D01*
Y5586379D01*
X7795429Y5597464D01*
X7786945Y5605948D01*
X7775859Y5610540D01*
D02*
G37*
G36*
X7554879Y5557200D02*
X7542881D01*
X7531796Y5552608D01*
X7523312Y5544124D01*
X7518720Y5533039D01*
Y5521041D01*
X7523312Y5509956D01*
X7531796Y5501472D01*
X7542881Y5496880D01*
X7554879D01*
X7565964Y5501472D01*
X7566386Y5501894D01*
X7575620Y5508849D01*
X7582980Y5501894D01*
X7584335Y5500539D01*
X7595420Y5495947D01*
X7607418D01*
X7618503Y5500539D01*
X7626987Y5509023D01*
X7631579Y5520108D01*
Y5532107D01*
X7626987Y5543192D01*
X7618503Y5551676D01*
X7607418Y5556267D01*
X7595420D01*
X7584335Y5551676D01*
X7583912Y5551254D01*
X7574679Y5544299D01*
X7567319Y5551254D01*
X7565964Y5552608D01*
X7554879Y5557200D01*
D02*
G37*
G36*
X8619139Y5554660D02*
X8607141D01*
X8596056Y5550068D01*
X8587572Y5541584D01*
X8582980Y5530499D01*
Y5518501D01*
X8587572Y5507416D01*
X8596056Y5498932D01*
X8607141Y5494340D01*
X8619139D01*
X8630225Y5498932D01*
X8638709Y5507416D01*
X8643300Y5518501D01*
Y5530499D01*
X8638709Y5541584D01*
X8630225Y5550068D01*
X8619139Y5554660D01*
D02*
G37*
G36*
X8748679Y5442180D02*
X8736681D01*
X8725596Y5437588D01*
X8717112Y5429104D01*
X8712520Y5418019D01*
Y5406021D01*
X8717112Y5394936D01*
X8725596Y5386452D01*
X8736681Y5381860D01*
X8748679D01*
X8759765Y5386452D01*
X8768249Y5394936D01*
X8772840Y5406021D01*
Y5418019D01*
X8768249Y5429104D01*
X8759765Y5437588D01*
X8748679Y5442180D01*
D02*
G37*
G36*
X7778399Y5351460D02*
X7766401D01*
X7755316Y5346868D01*
X7746832Y5338384D01*
X7742240Y5327299D01*
Y5315301D01*
X7746832Y5304216D01*
X7755316Y5295732D01*
X7766401Y5291140D01*
X7778399D01*
X7789485Y5295732D01*
X7797969Y5304216D01*
X7802560Y5315301D01*
Y5327299D01*
X7797969Y5338384D01*
X7789485Y5346868D01*
X7778399Y5351460D01*
D02*
G37*
G36*
X8923939Y5354950D02*
X8911941D01*
X8900856Y5350358D01*
X8892372Y5341874D01*
X8887780Y5330789D01*
Y5318791D01*
X8892372Y5307706D01*
X8893341Y5306737D01*
X8900209Y5298440D01*
X8893341Y5290143D01*
X8892372Y5289174D01*
X8887780Y5278089D01*
Y5266091D01*
X8892372Y5255006D01*
X8900856Y5246522D01*
X8911941Y5241930D01*
X8923939D01*
X8935025Y5246522D01*
X8943509Y5255006D01*
X8948100Y5266091D01*
Y5278089D01*
X8943509Y5289174D01*
X8942540Y5290143D01*
X8935672Y5298440D01*
X8942540Y5306737D01*
X8943509Y5307706D01*
X8948100Y5318791D01*
Y5330789D01*
X8943509Y5341874D01*
X8935025Y5350358D01*
X8923939Y5354950D01*
D02*
G37*
G36*
X8014619Y5229540D02*
X8002621D01*
X7991536Y5224948D01*
X7983052Y5216464D01*
X7978460Y5205379D01*
Y5193381D01*
X7983052Y5182296D01*
X7991536Y5173812D01*
X8002621Y5169220D01*
X8014619D01*
X8025705Y5173812D01*
X8034189Y5182296D01*
X8038780Y5193381D01*
Y5205379D01*
X8034189Y5216464D01*
X8025705Y5224948D01*
X8014619Y5229540D01*
D02*
G37*
G36*
X8748443Y5215020D02*
X8736444D01*
X8725359Y5210428D01*
X8716875Y5201944D01*
X8712284Y5190859D01*
Y5178861D01*
X8716875Y5167776D01*
X8725359Y5159292D01*
X8736444Y5154700D01*
X8748443D01*
X8759528Y5159292D01*
X8768012Y5167776D01*
X8772603Y5178861D01*
Y5190859D01*
X8768012Y5201944D01*
X8759528Y5210428D01*
X8748443Y5215020D01*
D02*
G37*
G36*
X8466739Y5235590D02*
X8454741D01*
X8443656Y5230998D01*
X8435172Y5222514D01*
X8430580Y5211429D01*
Y5199431D01*
X8435172Y5188346D01*
X8436141Y5187377D01*
X8443009Y5179080D01*
X8436141Y5170783D01*
X8435172Y5169814D01*
X8430580Y5158729D01*
Y5146731D01*
X8435172Y5135646D01*
X8443656Y5127162D01*
X8454741Y5122570D01*
X8466739D01*
X8477825Y5127162D01*
X8486309Y5135646D01*
X8490900Y5146731D01*
Y5158729D01*
X8486309Y5169814D01*
X8485340Y5170783D01*
X8478472Y5179080D01*
X8485340Y5187377D01*
X8486309Y5188346D01*
X8490900Y5199431D01*
Y5211429D01*
X8486309Y5222514D01*
X8477825Y5230998D01*
X8466739Y5235590D01*
D02*
G37*
G36*
X7881424Y5140640D02*
X7869426D01*
X7858341Y5136048D01*
X7849857Y5127564D01*
X7845265Y5116479D01*
Y5104481D01*
X7849857Y5093396D01*
X7858341Y5084912D01*
X7869426Y5080320D01*
X7881424D01*
X7892509Y5084912D01*
X7900993Y5093396D01*
X7905585Y5104481D01*
Y5116479D01*
X7900993Y5127564D01*
X7892509Y5136048D01*
X7881424Y5140640D01*
D02*
G37*
G36*
X8310840Y5623105D02*
X8298841D01*
X8287756Y5618514D01*
X8279272Y5610030D01*
X8274680Y5598945D01*
Y5586946D01*
X8279272Y5575861D01*
X8287756Y5567377D01*
X8298841Y5562785D01*
X8310840D01*
X8321925Y5567377D01*
X8329365Y5574817D01*
X8429514D01*
X8435172Y5562514D01*
X8430580Y5551429D01*
Y5539431D01*
X8435172Y5528346D01*
X8436141Y5527377D01*
X8443009Y5519080D01*
X8436141Y5510783D01*
X8435172Y5509814D01*
X8430580Y5498729D01*
Y5486731D01*
X8435172Y5475646D01*
X8443656Y5467162D01*
X8454741Y5462570D01*
X8466739D01*
X8477825Y5467162D01*
X8486309Y5475646D01*
X8490900Y5486731D01*
Y5498729D01*
X8486309Y5509814D01*
X8485340Y5510783D01*
X8478472Y5519080D01*
X8485340Y5527377D01*
X8486309Y5528346D01*
X8490900Y5539431D01*
Y5551429D01*
X8486309Y5562514D01*
X8491966Y5574817D01*
X8657220D01*
Y5574622D01*
X8686670Y5571722D01*
X8714988Y5563131D01*
X8741087Y5549181D01*
X8763963Y5530408D01*
X8782736Y5507533D01*
X8796686Y5481434D01*
X8805276Y5453115D01*
X8808177Y5423665D01*
X8808372D01*
Y5160636D01*
X8807945D01*
X8811032Y5137191D01*
X8820081Y5115343D01*
X8834477Y5096582D01*
X8853238Y5082186D01*
X8875086Y5073137D01*
X8898531Y5070050D01*
Y5070477D01*
X8920176D01*
X8927616Y5063037D01*
X8938701Y5058445D01*
X8950700D01*
X8961785Y5063037D01*
X8970269Y5071521D01*
X8974860Y5082606D01*
Y5094604D01*
X8970269Y5105689D01*
X8961785Y5114173D01*
X8950700Y5118765D01*
X8938701D01*
X8927616Y5114173D01*
X8920176Y5106733D01*
X8898531D01*
X8898240Y5106675D01*
X8877859Y5110729D01*
X8860581Y5122274D01*
X8860416Y5122521D01*
X8860169Y5122686D01*
X8848624Y5139964D01*
X8844570Y5160345D01*
X8844628Y5160636D01*
Y5423665D01*
X8845185D01*
X8841573Y5460335D01*
X8830877Y5495596D01*
X8813507Y5528093D01*
X8790131Y5556577D01*
X8761648Y5579953D01*
X8729151Y5597322D01*
X8693890Y5608019D01*
X8657220Y5611630D01*
Y5611074D01*
X8329365D01*
X8321925Y5618514D01*
X8310840Y5623105D01*
D02*
G37*
G36*
X8748679Y5110160D02*
X8736681D01*
X8725596Y5105568D01*
X8717112Y5097084D01*
X8712520Y5085999D01*
Y5074001D01*
X8717112Y5062916D01*
X8725596Y5054432D01*
X8736681Y5049840D01*
X8748679D01*
X8759765Y5054432D01*
X8768249Y5062916D01*
X8772840Y5074001D01*
Y5085999D01*
X8768249Y5097084D01*
X8759765Y5105568D01*
X8748679Y5110160D01*
D02*
G37*
G36*
X7879999Y5036500D02*
X7868001D01*
X7856916Y5031908D01*
X7848432Y5023424D01*
X7843840Y5012339D01*
Y5000341D01*
X7848432Y4989256D01*
X7856916Y4980772D01*
X7868001Y4976180D01*
X7879999D01*
X7891085Y4980772D01*
X7899569Y4989256D01*
X7904160Y5000341D01*
Y5012339D01*
X7899569Y5023424D01*
X7891085Y5031908D01*
X7879999Y5036500D01*
D02*
G37*
G36*
X7722519Y4939980D02*
X7710521D01*
X7699436Y4935388D01*
X7696877Y4932829D01*
X7688580Y4928222D01*
X7680283Y4932829D01*
X7677724Y4935388D01*
X7666639Y4939980D01*
X7654641D01*
X7643556Y4935388D01*
X7635072Y4926904D01*
X7630480Y4915819D01*
Y4903821D01*
X7635072Y4892736D01*
X7643556Y4884252D01*
X7654641Y4879660D01*
X7666639D01*
X7677724Y4884252D01*
X7680283Y4886811D01*
X7688580Y4891418D01*
X7696877Y4886811D01*
X7699436Y4884252D01*
X7710521Y4879660D01*
X7722519D01*
X7733604Y4884252D01*
X7742088Y4892736D01*
X7746680Y4903821D01*
Y4915819D01*
X7742088Y4926904D01*
X7733604Y4935388D01*
X7722519Y4939980D01*
D02*
G37*
G36*
X8189879Y4929820D02*
X8177881D01*
X8166796Y4925228D01*
X8158312Y4916744D01*
X8153720Y4905659D01*
Y4893661D01*
X8158312Y4882576D01*
X8166796Y4874092D01*
X8177881Y4869500D01*
X8189879D01*
X8200965Y4874092D01*
X8209449Y4882576D01*
X8214040Y4893661D01*
Y4905659D01*
X8209449Y4916744D01*
X8200965Y4925228D01*
X8189879Y4929820D01*
D02*
G37*
G36*
X8311799Y4927280D02*
X8299801D01*
X8288716Y4922688D01*
X8280232Y4914204D01*
X8275640Y4903119D01*
Y4891121D01*
X8280232Y4880036D01*
X8288716Y4871552D01*
X8299801Y4866960D01*
X8311799D01*
X8322885Y4871552D01*
X8331369Y4880036D01*
X8335960Y4891121D01*
Y4903119D01*
X8331369Y4914204D01*
X8322885Y4922688D01*
X8311799Y4927280D01*
D02*
G37*
G36*
X7935879Y4332920D02*
X7923881D01*
X7912796Y4328328D01*
X7904312Y4319844D01*
X7899720Y4308759D01*
Y4296761D01*
X7904312Y4285676D01*
X7912796Y4277192D01*
X7923881Y4272600D01*
X7935879D01*
X7946965Y4277192D01*
X7955449Y4285676D01*
X7960040Y4296761D01*
Y4308759D01*
X7955449Y4319844D01*
X7946965Y4328328D01*
X7935879Y4332920D01*
D02*
G37*
G36*
X7940959Y4193220D02*
X7928961D01*
X7917876Y4188628D01*
X7909392Y4180144D01*
X7904800Y4169059D01*
Y4157061D01*
X7909392Y4145976D01*
X7917876Y4137492D01*
X7928961Y4132900D01*
X7940959D01*
X7952045Y4137492D01*
X7960529Y4145976D01*
X7965120Y4157061D01*
Y4169059D01*
X7960529Y4180144D01*
X7952045Y4188628D01*
X7940959Y4193220D01*
D02*
G37*
G36*
X7448199Y4089080D02*
X7436201D01*
X7425116Y4084488D01*
X7416632Y4076004D01*
X7412040Y4064919D01*
Y4052921D01*
X7416632Y4041836D01*
X7425116Y4033352D01*
X7436201Y4028760D01*
X7448199D01*
X7459285Y4033352D01*
X7467769Y4041836D01*
X7472360Y4052921D01*
Y4064919D01*
X7467769Y4076004D01*
X7459285Y4084488D01*
X7448199Y4089080D01*
D02*
G37*
G36*
X7453279Y3962080D02*
X7441281D01*
X7430196Y3957488D01*
X7421712Y3949004D01*
X7417120Y3937919D01*
Y3925921D01*
X7421712Y3914836D01*
X7430196Y3906352D01*
X7441281Y3901760D01*
X7453279D01*
X7464365Y3906352D01*
X7472849Y3914836D01*
X7477440Y3925921D01*
Y3937919D01*
X7472849Y3949004D01*
X7464365Y3957488D01*
X7453279Y3962080D01*
D02*
G37*
G36*
X8495026Y3937402D02*
X8483028D01*
X8471943Y3932810D01*
X8463459Y3924326D01*
X8458867Y3913241D01*
Y3901243D01*
X8463459Y3890158D01*
X8471943Y3881673D01*
X8483028Y3877082D01*
X8495026D01*
X8506112Y3881673D01*
X8514596Y3890158D01*
X8519187Y3901243D01*
Y3913241D01*
X8514596Y3924326D01*
X8506112Y3932810D01*
X8495026Y3937402D01*
D02*
G37*
G36*
X8282040D02*
X8270041D01*
X8258956Y3932810D01*
X8250472Y3924326D01*
X8245880Y3913241D01*
Y3901243D01*
X8250472Y3890158D01*
X8258956Y3881673D01*
X8270041Y3877082D01*
X8282040D01*
X8293125Y3881673D01*
X8301609Y3890158D01*
X8306200Y3901243D01*
Y3913241D01*
X8301609Y3924326D01*
X8293125Y3932810D01*
X8282040Y3937402D01*
D02*
G37*
G36*
X8068680Y3937398D02*
X8056681D01*
X8045596Y3932807D01*
X8037112Y3924323D01*
X8032520Y3913238D01*
Y3901239D01*
X8037112Y3890154D01*
X8045596Y3881670D01*
X8056681Y3877078D01*
X8068680D01*
X8079765Y3881670D01*
X8088249Y3890154D01*
X8092840Y3901239D01*
Y3913238D01*
X8088249Y3924323D01*
X8079765Y3932807D01*
X8068680Y3937398D01*
D02*
G37*
G36*
X8342279Y3857940D02*
X8330281D01*
X8319196Y3853348D01*
X8310712Y3844864D01*
X8306120Y3833779D01*
Y3821781D01*
X8310712Y3810696D01*
X8319196Y3802212D01*
X8330281Y3797620D01*
X8342279D01*
X8353365Y3802212D01*
X8361849Y3810696D01*
X8366440Y3821781D01*
Y3833779D01*
X8361849Y3844864D01*
X8353365Y3853348D01*
X8342279Y3857940D01*
D02*
G37*
G36*
X8239391Y3838480D02*
X8227392D01*
X8216307Y3833888D01*
X8207823Y3825404D01*
X8205954Y3820891D01*
X8193699Y3812220D01*
X8181701D01*
X8170616Y3807628D01*
X8162132Y3799144D01*
X8157540Y3788059D01*
Y3776061D01*
X8162132Y3764976D01*
X8170616Y3756492D01*
X8181701Y3751900D01*
X8193700D01*
X8204785Y3756492D01*
X8213269Y3764976D01*
X8215138Y3769489D01*
X8227393Y3778160D01*
X8239391D01*
X8250476Y3782751D01*
X8258960Y3791235D01*
X8263552Y3802321D01*
Y3814319D01*
X8258960Y3825404D01*
X8250476Y3833888D01*
X8239391Y3838480D01*
D02*
G37*
G36*
X8107980Y3843560D02*
X8095981D01*
X8084896Y3838968D01*
X8076412Y3830484D01*
X8071821Y3819399D01*
Y3818873D01*
X8069925Y3807359D01*
X8060087Y3807140D01*
X8057891D01*
X8046806Y3802548D01*
X8038322Y3794064D01*
X8033730Y3782979D01*
Y3770981D01*
X8038322Y3759896D01*
X8046806Y3751412D01*
X8057891Y3746820D01*
X8069890D01*
X8080975Y3751412D01*
X8089459Y3759896D01*
X8094050Y3770981D01*
Y3771507D01*
X8095945Y3783021D01*
X8105784Y3783240D01*
X8107980D01*
X8119065Y3787832D01*
X8127549Y3796316D01*
X8132140Y3807401D01*
Y3819399D01*
X8127549Y3830484D01*
X8119065Y3838968D01*
X8107980Y3843560D01*
D02*
G37*
G36*
X7864284Y3674645D02*
X7852286D01*
X7841200Y3670053D01*
X7832716Y3661569D01*
X7828125Y3650484D01*
Y3638485D01*
X7832716Y3627400D01*
X7841200Y3618916D01*
X7852286Y3614325D01*
X7864284D01*
X7875369Y3618916D01*
X7883853Y3627400D01*
X7888445Y3638485D01*
Y3650484D01*
X7883853Y3661569D01*
X7875369Y3670053D01*
X7864284Y3674645D01*
D02*
G37*
G36*
X5205353Y3732286D02*
X5186879D01*
X5169035Y3727505D01*
X5153037Y3718268D01*
X5139974Y3705205D01*
X5130737Y3689207D01*
X5125956Y3671363D01*
Y3652889D01*
X5130737Y3635045D01*
X5139974Y3619047D01*
X5153037Y3605984D01*
X5169035Y3596747D01*
X5186879Y3591966D01*
X5205353D01*
X5223197Y3596747D01*
X5239195Y3605984D01*
X5252258Y3619047D01*
X5261494Y3635045D01*
X5266276Y3652889D01*
Y3671363D01*
X5261494Y3689207D01*
X5252258Y3705205D01*
X5239195Y3718268D01*
X5223197Y3727505D01*
X5205353Y3732286D01*
D02*
G37*
G36*
X8632711Y3618840D02*
X8620713D01*
X8609628Y3614248D01*
X8601144Y3605764D01*
X8596552Y3594679D01*
Y3582681D01*
X8601144Y3571596D01*
X8609628Y3563111D01*
X8620713Y3558520D01*
X8632711D01*
X8643796Y3563111D01*
X8652280Y3571596D01*
X8656872Y3582681D01*
Y3594679D01*
X8652280Y3605764D01*
X8643796Y3614248D01*
X8632711Y3618840D01*
D02*
G37*
G36*
X7513137Y3619180D02*
X7501138D01*
X7490053Y3614588D01*
X7481569Y3606104D01*
X7476977Y3595019D01*
Y3583021D01*
X7481569Y3571936D01*
X7490053Y3563452D01*
X7501138Y3558860D01*
X7513137D01*
X7524222Y3563452D01*
X7529234Y3568464D01*
X7534709Y3562989D01*
X7545794Y3558398D01*
X7557792D01*
X7568877Y3562989D01*
X7577361Y3571473D01*
X7581953Y3582558D01*
Y3594557D01*
X7577361Y3605642D01*
X7568877Y3614126D01*
X7557792Y3618718D01*
X7545794D01*
X7534709Y3614126D01*
X7529696Y3609114D01*
X7524222Y3614588D01*
X7513137Y3619180D01*
D02*
G37*
G36*
X8466739Y3645190D02*
X8454741D01*
X8443656Y3640598D01*
X8435172Y3632114D01*
X8430580Y3621029D01*
Y3609031D01*
X8435172Y3597946D01*
X8436141Y3596977D01*
X8443009Y3588680D01*
X8436141Y3580383D01*
X8435172Y3579414D01*
X8430580Y3568329D01*
Y3556331D01*
X8435172Y3545246D01*
X8443656Y3536762D01*
X8454741Y3532170D01*
X8466739D01*
X8477825Y3536762D01*
X8486309Y3545246D01*
X8490900Y3556331D01*
Y3568329D01*
X8486309Y3579414D01*
X8485340Y3580383D01*
X8478472Y3588680D01*
X8485340Y3596977D01*
X8486309Y3597946D01*
X8490900Y3609031D01*
Y3621029D01*
X8486309Y3632114D01*
X8477825Y3640598D01*
X8466739Y3645190D01*
D02*
G37*
G36*
X8752281Y3513258D02*
X8740283D01*
X8729198Y3508667D01*
X8720714Y3500182D01*
X8716122Y3489097D01*
Y3477099D01*
X8720714Y3466014D01*
X8729198Y3457530D01*
X8740283Y3452938D01*
X8752281D01*
X8763366Y3457530D01*
X8771850Y3466014D01*
X8776442Y3477099D01*
Y3489097D01*
X8771850Y3500182D01*
X8763366Y3508667D01*
X8752281Y3513258D01*
D02*
G37*
G36*
X7715620Y3428680D02*
X7703621D01*
X7692536Y3424088D01*
X7684052Y3415604D01*
X7679460Y3404519D01*
Y3392521D01*
X7684052Y3381436D01*
X7692536Y3372952D01*
X7703621Y3368360D01*
X7715620D01*
X7726705Y3372952D01*
X7735189Y3381436D01*
X7739780Y3392521D01*
Y3404519D01*
X7735189Y3415604D01*
X7726705Y3424088D01*
X7715620Y3428680D01*
D02*
G37*
G36*
X8923939Y3424550D02*
X8911941D01*
X8900856Y3419958D01*
X8892372Y3411474D01*
X8887780Y3400389D01*
Y3388391D01*
X8892372Y3377306D01*
X8893341Y3376337D01*
X8900209Y3368040D01*
X8893341Y3359743D01*
X8892372Y3358774D01*
X8887780Y3347689D01*
Y3335691D01*
X8892372Y3324606D01*
X8900856Y3316122D01*
X8911941Y3311530D01*
X8923939D01*
X8935025Y3316122D01*
X8943509Y3324606D01*
X8948100Y3335691D01*
Y3347689D01*
X8943509Y3358774D01*
X8942540Y3359743D01*
X8935672Y3368040D01*
X8942540Y3376337D01*
X8943509Y3377306D01*
X8948100Y3388391D01*
Y3400389D01*
X8943509Y3411474D01*
X8935025Y3419958D01*
X8923939Y3424550D01*
D02*
G37*
G36*
X7869656Y3299160D02*
X7857658D01*
X7846573Y3294568D01*
X7838089Y3286084D01*
X7833497Y3274999D01*
Y3263001D01*
X7838089Y3251916D01*
X7846573Y3243431D01*
X7857658Y3238840D01*
X7869656D01*
X7880741Y3243431D01*
X7889226Y3251916D01*
X7893817Y3263001D01*
Y3274999D01*
X7889226Y3286084D01*
X7880741Y3294568D01*
X7869656Y3299160D01*
D02*
G37*
G36*
X8466739Y3305190D02*
X8454741D01*
X8443656Y3300598D01*
X8435172Y3292114D01*
X8430580Y3281029D01*
Y3269031D01*
X8435172Y3257946D01*
X8436141Y3256977D01*
X8443009Y3248680D01*
X8436141Y3240383D01*
X8435172Y3239414D01*
X8430580Y3228329D01*
Y3216331D01*
X8435172Y3205246D01*
X8443656Y3196762D01*
X8454741Y3192170D01*
X8466739D01*
X8477825Y3196762D01*
X8486309Y3205246D01*
X8490900Y3216331D01*
Y3228329D01*
X8486309Y3239414D01*
X8485340Y3240383D01*
X8478472Y3248680D01*
X8485340Y3256977D01*
X8486309Y3257946D01*
X8490900Y3269031D01*
Y3281029D01*
X8486309Y3292114D01*
X8477825Y3300598D01*
X8466739Y3305190D01*
D02*
G37*
G36*
X7872379Y3215320D02*
X7860381D01*
X7849296Y3210728D01*
X7840812Y3202244D01*
X7836220Y3191159D01*
Y3179161D01*
X7840812Y3168076D01*
X7849296Y3159592D01*
X7860381Y3155000D01*
X7872379D01*
X7883465Y3159592D01*
X7891949Y3168076D01*
X7896540Y3179161D01*
Y3191159D01*
X7891949Y3202244D01*
X7883465Y3210728D01*
X7872379Y3215320D01*
D02*
G37*
G36*
X8751219Y3189920D02*
X8739221D01*
X8728136Y3185328D01*
X8719652Y3176844D01*
X8715060Y3165759D01*
Y3153761D01*
X8719652Y3142676D01*
X8728136Y3134192D01*
X8739221Y3129600D01*
X8751219D01*
X8762305Y3134192D01*
X8770789Y3142676D01*
X8775380Y3153761D01*
Y3165759D01*
X8770789Y3176844D01*
X8762305Y3185328D01*
X8751219Y3189920D01*
D02*
G37*
G36*
X7872379Y3101020D02*
X7860381D01*
X7849296Y3096428D01*
X7840812Y3087944D01*
X7836220Y3076859D01*
Y3064861D01*
X7840812Y3053776D01*
X7849296Y3045292D01*
X7860381Y3040700D01*
X7872379D01*
X7883465Y3045292D01*
X7891949Y3053776D01*
X7896540Y3064861D01*
Y3076859D01*
X7891949Y3087944D01*
X7883465Y3096428D01*
X7872379Y3101020D01*
D02*
G37*
G36*
X8751219Y3080700D02*
X8739221D01*
X8728136Y3076108D01*
X8719652Y3067624D01*
X8715060Y3056539D01*
Y3044541D01*
X8719652Y3033456D01*
X8728136Y3024972D01*
X8739221Y3020380D01*
X8751219D01*
X8762305Y3024972D01*
X8770789Y3033456D01*
X8775380Y3044541D01*
Y3056539D01*
X8770789Y3067624D01*
X8762305Y3076108D01*
X8751219Y3080700D01*
D02*
G37*
G36*
X7770779Y3022280D02*
X7758781D01*
X7747696Y3017688D01*
X7741242Y3011235D01*
X7736494Y3009404D01*
X7725871Y3010182D01*
X7720905Y3015148D01*
X7709819Y3019740D01*
X7697821D01*
X7686736Y3015148D01*
X7678252Y3006664D01*
X7673660Y2995579D01*
Y2983581D01*
X7678252Y2972496D01*
X7686736Y2964012D01*
X7697821Y2959420D01*
X7709819D01*
X7720905Y2964012D01*
X7727358Y2970465D01*
X7732107Y2972296D01*
X7742730Y2971518D01*
X7747696Y2966552D01*
X7758781Y2961960D01*
X7770779D01*
X7781865Y2966552D01*
X7790349Y2975036D01*
X7794940Y2986121D01*
Y2998119D01*
X7790349Y3009204D01*
X7781865Y3017688D01*
X7770779Y3022280D01*
D02*
G37*
G36*
X8310680Y2993220D02*
X8298681D01*
X8287596Y2988629D01*
X8279112Y2980144D01*
X8274520Y2969059D01*
Y2957061D01*
X8279112Y2945976D01*
X8287596Y2937492D01*
X8298681Y2932900D01*
X8310680D01*
X8321765Y2937492D01*
X8330249Y2945976D01*
X8334840Y2957061D01*
Y2969059D01*
X8330249Y2980144D01*
X8321765Y2988629D01*
X8310680Y2993220D01*
D02*
G37*
G36*
X8187339Y2989260D02*
X8175341D01*
X8164256Y2984668D01*
X8155772Y2976184D01*
X8151180Y2965099D01*
Y2953101D01*
X8155772Y2942016D01*
X8164256Y2933532D01*
X8175341Y2928940D01*
X8187339D01*
X8198425Y2933532D01*
X8206909Y2942016D01*
X8211500Y2953101D01*
Y2965099D01*
X8206909Y2976184D01*
X8198425Y2984668D01*
X8187339Y2989260D01*
D02*
G37*
G36*
X7943499Y2435540D02*
X7931501D01*
X7920416Y2430948D01*
X7911932Y2422464D01*
X7907340Y2411379D01*
Y2399381D01*
X7911932Y2388296D01*
X7920416Y2379812D01*
X7931501Y2375220D01*
X7943499D01*
X7954585Y2379812D01*
X7963069Y2388296D01*
X7967660Y2399381D01*
Y2411379D01*
X7963069Y2422464D01*
X7954585Y2430948D01*
X7943499Y2435540D01*
D02*
G37*
G36*
Y2306000D02*
X7931501D01*
X7920416Y2301408D01*
X7911932Y2292924D01*
X7907340Y2281839D01*
Y2269841D01*
X7911932Y2258756D01*
X7920416Y2250272D01*
X7931501Y2245680D01*
X7943499D01*
X7954585Y2250272D01*
X7963069Y2258756D01*
X7967660Y2269841D01*
Y2281839D01*
X7963069Y2292924D01*
X7954585Y2301408D01*
X7943499Y2306000D01*
D02*
G37*
G36*
X7242459Y2184080D02*
X7230461D01*
X7219376Y2179488D01*
X7210892Y2171004D01*
X7206300Y2159919D01*
Y2147921D01*
X7210892Y2136836D01*
X7219376Y2128352D01*
X7230461Y2123760D01*
X7242459D01*
X7253544Y2128352D01*
X7262028Y2136836D01*
X7266620Y2147921D01*
Y2159919D01*
X7262028Y2171004D01*
X7253544Y2179488D01*
X7242459Y2184080D01*
D02*
G37*
G36*
X8285352Y2069779D02*
X8273354D01*
X8262269Y2065187D01*
X8253785Y2056703D01*
X8249193Y2045618D01*
Y2033620D01*
X8253785Y2022535D01*
X8262269Y2014051D01*
X8273354Y2009459D01*
X8285352D01*
X8296438Y2014051D01*
X8304922Y2022535D01*
X8309513Y2033620D01*
Y2045618D01*
X8304922Y2056703D01*
X8296438Y2065187D01*
X8285352Y2069779D01*
D02*
G37*
G36*
X7242459Y2054540D02*
X7230461D01*
X7219376Y2049948D01*
X7210892Y2041464D01*
X7206300Y2030379D01*
Y2018381D01*
X7210892Y2007296D01*
X7219376Y1998812D01*
X7230461Y1994220D01*
X7242459D01*
X7253544Y1998812D01*
X7262028Y2007296D01*
X7266620Y2018381D01*
Y2030379D01*
X7262028Y2041464D01*
X7253544Y2049948D01*
X7242459Y2054540D01*
D02*
G37*
G36*
X8495400Y2029862D02*
X8483401D01*
X8472316Y2025270D01*
X8463832Y2016786D01*
X8459240Y2005701D01*
Y1993703D01*
X8463832Y1982618D01*
X8472316Y1974133D01*
X8483401Y1969542D01*
X8495400D01*
X8506485Y1974133D01*
X8514969Y1982618D01*
X8519560Y1993703D01*
Y2005701D01*
X8514969Y2016786D01*
X8506485Y2025270D01*
X8495400Y2029862D01*
D02*
G37*
G36*
X8068680Y2029858D02*
X8056681D01*
X8045596Y2025267D01*
X8037112Y2016783D01*
X8032520Y2005698D01*
Y1993699D01*
X8037112Y1982614D01*
X8045596Y1974130D01*
X8056681Y1969538D01*
X8068680D01*
X8079765Y1974130D01*
X8088249Y1982614D01*
X8092840Y1993699D01*
Y2005698D01*
X8088249Y2016783D01*
X8079765Y2025267D01*
X8068680Y2029858D01*
D02*
G37*
G36*
X8141966Y1970720D02*
X8129968D01*
X8118883Y1966128D01*
X8110399Y1957644D01*
X8105807Y1946559D01*
Y1934561D01*
X8110399Y1923476D01*
X8118883Y1914992D01*
X8129968Y1910400D01*
X8141966D01*
X8153052Y1914992D01*
X8161536Y1923476D01*
X8166127Y1934561D01*
Y1946559D01*
X8161536Y1957644D01*
X8153052Y1966128D01*
X8141966Y1970720D01*
D02*
G37*
G36*
X8239040Y1928517D02*
X8227041D01*
X8215956Y1923925D01*
X8207472Y1915441D01*
X8202880Y1904356D01*
X8196685Y1900217D01*
X8193860Y1901387D01*
X8181861D01*
X8170776Y1896796D01*
X8162292Y1888311D01*
X8157700Y1877226D01*
Y1865228D01*
X8162292Y1854143D01*
X8170776Y1845659D01*
X8181861Y1841067D01*
X8193860D01*
X8204945Y1845659D01*
X8213429Y1854143D01*
X8218020Y1865228D01*
X8224216Y1869367D01*
X8227041Y1868197D01*
X8239040D01*
X8250125Y1872788D01*
X8258609Y1881273D01*
X8263200Y1892358D01*
Y1904356D01*
X8258609Y1915441D01*
X8250125Y1923925D01*
X8239040Y1928517D01*
D02*
G37*
G36*
X8314339Y1940240D02*
X8302341D01*
X8291256Y1935648D01*
X8282772Y1927164D01*
X8278180Y1916079D01*
Y1904081D01*
X8282772Y1892996D01*
X8291256Y1884512D01*
X8302341Y1879920D01*
X8314339D01*
X8325425Y1884512D01*
X8333909Y1892996D01*
X8338500Y1904081D01*
Y1916079D01*
X8333909Y1927164D01*
X8325425Y1935648D01*
X8314339Y1940240D01*
D02*
G37*
G36*
X8070365Y1899125D02*
X8058366D01*
X8047281Y1894533D01*
X8038797Y1886049D01*
X8034205Y1874964D01*
Y1862966D01*
X8038797Y1851881D01*
X8047281Y1843397D01*
X8058366Y1838805D01*
X8070365D01*
X8081450Y1843397D01*
X8089934Y1851881D01*
X8094525Y1862966D01*
Y1874964D01*
X8089934Y1886049D01*
X8081450Y1894533D01*
X8070365Y1899125D01*
D02*
G37*
G36*
X7592979Y1718796D02*
X7580981D01*
X7569896Y1714204D01*
X7565677Y1709985D01*
X7557554Y1707093D01*
X7549432Y1709985D01*
X7545213Y1714204D01*
X7534128Y1718796D01*
X7522130D01*
X7511045Y1714204D01*
X7502561Y1705720D01*
X7497969Y1694635D01*
Y1682636D01*
X7502561Y1671551D01*
X7511045Y1663067D01*
X7522130Y1658476D01*
X7534128D01*
X7545213Y1663067D01*
X7549432Y1667286D01*
X7557555Y1670178D01*
X7565677Y1667286D01*
X7569896Y1663067D01*
X7580981Y1658476D01*
X7592979D01*
X7604064Y1663067D01*
X7612548Y1671551D01*
X7617140Y1682636D01*
Y1694635D01*
X7612548Y1705720D01*
X7604064Y1714204D01*
X7592979Y1718796D01*
D02*
G37*
G36*
X7841899Y1763304D02*
X7829901D01*
X7818816Y1758712D01*
X7810332Y1750228D01*
X7805740Y1739143D01*
Y1727145D01*
X7810332Y1716060D01*
X7818816Y1707575D01*
X7829901Y1702984D01*
X7841899D01*
X7852985Y1707575D01*
X7861469Y1716060D01*
X7866060Y1727145D01*
Y1739143D01*
X7861469Y1750228D01*
X7852985Y1758712D01*
X7841899Y1763304D01*
D02*
G37*
G36*
X8631839Y1711640D02*
X8619841D01*
X8608756Y1707048D01*
X8600272Y1698564D01*
X8595680Y1687479D01*
Y1675481D01*
X8600272Y1664396D01*
X8608756Y1655912D01*
X8619841Y1651320D01*
X8631839D01*
X8642925Y1655912D01*
X8651409Y1664396D01*
X8656000Y1675481D01*
Y1687479D01*
X8651409Y1698564D01*
X8642925Y1707048D01*
X8631839Y1711640D01*
D02*
G37*
G36*
X8466739Y1737650D02*
X8454741D01*
X8443656Y1733058D01*
X8435172Y1724574D01*
X8430580Y1713489D01*
Y1701491D01*
X8435172Y1690406D01*
X8436141Y1689437D01*
X8443009Y1681140D01*
X8436141Y1672843D01*
X8435172Y1671874D01*
X8430580Y1660789D01*
Y1648791D01*
X8435172Y1637706D01*
X8443656Y1629222D01*
X8454741Y1624630D01*
X8466739D01*
X8477825Y1629222D01*
X8486309Y1637706D01*
X8490900Y1648791D01*
Y1660789D01*
X8486309Y1671874D01*
X8485340Y1672843D01*
X8478472Y1681140D01*
X8485340Y1689437D01*
X8486309Y1690406D01*
X8490900Y1701491D01*
Y1713489D01*
X8486309Y1724574D01*
X8477825Y1733058D01*
X8466739Y1737650D01*
D02*
G37*
G36*
X8750803Y1604240D02*
X8738805D01*
X8727720Y1599648D01*
X8719236Y1591164D01*
X8714644Y1580079D01*
Y1568081D01*
X8719236Y1556996D01*
X8727720Y1548512D01*
X8738805Y1543920D01*
X8750803D01*
X8761888Y1548512D01*
X8770372Y1556996D01*
X8774964Y1568081D01*
Y1580079D01*
X8770372Y1591164D01*
X8761888Y1599648D01*
X8750803Y1604240D01*
D02*
G37*
G36*
X7813959Y1470340D02*
X7801961D01*
X7790876Y1465748D01*
X7782392Y1457264D01*
X7777800Y1446179D01*
Y1434181D01*
X7782392Y1423096D01*
X7790876Y1414612D01*
X7801961Y1410020D01*
X7813959D01*
X7825045Y1414612D01*
X7833529Y1423096D01*
X7838120Y1434181D01*
Y1446179D01*
X7833529Y1457264D01*
X7825045Y1465748D01*
X7813959Y1470340D01*
D02*
G37*
G36*
X8923939Y1517010D02*
X8911941D01*
X8900856Y1512418D01*
X8892372Y1503934D01*
X8887780Y1492849D01*
Y1480851D01*
X8892372Y1469766D01*
X8893341Y1468797D01*
X8900209Y1460500D01*
X8893341Y1452203D01*
X8892372Y1451234D01*
X8887780Y1440149D01*
Y1428151D01*
X8892372Y1417066D01*
X8900856Y1408582D01*
X8911941Y1403990D01*
X8923939D01*
X8935025Y1408582D01*
X8943509Y1417066D01*
X8948100Y1428151D01*
Y1440149D01*
X8943509Y1451234D01*
X8942540Y1452203D01*
X8935672Y1460500D01*
X8942540Y1468797D01*
X8943509Y1469766D01*
X8948100Y1480851D01*
Y1492849D01*
X8943509Y1503934D01*
X8935025Y1512418D01*
X8923939Y1517010D01*
D02*
G37*
G36*
X7882539Y1394140D02*
X7870541D01*
X7859456Y1389548D01*
X7850972Y1381064D01*
X7846380Y1369979D01*
Y1357981D01*
X7850972Y1346896D01*
X7859456Y1338412D01*
X7870541Y1333820D01*
X7882539D01*
X7893625Y1338412D01*
X7902109Y1346896D01*
X7906700Y1357981D01*
Y1369979D01*
X7902109Y1381064D01*
X7893625Y1389548D01*
X7882539Y1394140D01*
D02*
G37*
G36*
X8466739Y1397650D02*
X8454741D01*
X8443656Y1393058D01*
X8435172Y1384574D01*
X8430580Y1373489D01*
Y1361491D01*
X8435172Y1350406D01*
X8436141Y1349437D01*
X8443009Y1341140D01*
X8436141Y1332843D01*
X8435172Y1331874D01*
X8430580Y1320789D01*
Y1308791D01*
X8435172Y1297706D01*
X8443656Y1289222D01*
X8454741Y1284630D01*
X8466739D01*
X8477825Y1289222D01*
X8486309Y1297706D01*
X8490900Y1308791D01*
Y1320789D01*
X8486309Y1331874D01*
X8485340Y1332843D01*
X8478472Y1341140D01*
X8485340Y1349437D01*
X8486309Y1350406D01*
X8490900Y1361491D01*
Y1373489D01*
X8486309Y1384574D01*
X8477825Y1393058D01*
X8466739Y1397650D01*
D02*
G37*
G36*
X7882097Y1299755D02*
X7870099D01*
X7859014Y1295163D01*
X7850530Y1286679D01*
X7845938Y1275594D01*
Y1263596D01*
X7850530Y1252511D01*
X7859014Y1244026D01*
X7870099Y1239435D01*
X7882097D01*
X7893182Y1244026D01*
X7901666Y1252511D01*
X7906258Y1263596D01*
Y1275594D01*
X7901666Y1286679D01*
X7893182Y1295163D01*
X7882097Y1299755D01*
D02*
G37*
G36*
X8751219Y1282380D02*
X8739221D01*
X8728136Y1277788D01*
X8719652Y1269304D01*
X8715060Y1258219D01*
Y1246221D01*
X8719652Y1235136D01*
X8728136Y1226652D01*
X8739221Y1222060D01*
X8751219D01*
X8762305Y1226652D01*
X8770789Y1235136D01*
X8775380Y1246221D01*
Y1258219D01*
X8770789Y1269304D01*
X8762305Y1277788D01*
X8751219Y1282380D01*
D02*
G37*
G36*
Y1175700D02*
X8739221D01*
X8728136Y1171108D01*
X8719652Y1162624D01*
X8715060Y1151539D01*
Y1139541D01*
X8719652Y1128456D01*
X8728136Y1119972D01*
X8739221Y1115380D01*
X8751219D01*
X8762305Y1119972D01*
X8770789Y1128456D01*
X8775380Y1139541D01*
Y1151539D01*
X8770789Y1162624D01*
X8762305Y1171108D01*
X8751219Y1175700D01*
D02*
G37*
G36*
X7882539Y1168080D02*
X7870541D01*
X7859456Y1163488D01*
X7850972Y1155004D01*
X7846380Y1143919D01*
Y1131921D01*
X7850972Y1120836D01*
X7859456Y1112352D01*
X7870541Y1107760D01*
X7882539D01*
X7893625Y1112352D01*
X7902109Y1120836D01*
X7906700Y1131921D01*
Y1143919D01*
X7902109Y1155004D01*
X7893625Y1163488D01*
X7882539Y1168080D01*
D02*
G37*
G36*
X7786019Y1107120D02*
X7774021D01*
X7762936Y1102528D01*
X7760377Y1099969D01*
X7752080Y1095362D01*
X7743784Y1099969D01*
X7741225Y1102528D01*
X7730139Y1107120D01*
X7718141D01*
X7707056Y1102528D01*
X7698572Y1094044D01*
X7693980Y1082959D01*
Y1070961D01*
X7698572Y1059876D01*
X7707056Y1051392D01*
X7718141Y1046800D01*
X7730139D01*
X7741225Y1051392D01*
X7743784Y1053951D01*
X7752080Y1058558D01*
X7760377Y1053951D01*
X7762936Y1051392D01*
X7774021Y1046800D01*
X7786019D01*
X7797105Y1051392D01*
X7805589Y1059876D01*
X7810180Y1070961D01*
Y1082959D01*
X7805589Y1094044D01*
X7797105Y1102528D01*
X7786019Y1107120D01*
D02*
G37*
G36*
X8191000Y1086800D02*
X8179001D01*
X8167916Y1082208D01*
X8159432Y1073724D01*
X8154840Y1062639D01*
Y1050641D01*
X8159432Y1039556D01*
X8167916Y1031072D01*
X8179001Y1026480D01*
X8191000D01*
X8202085Y1031072D01*
X8210569Y1039556D01*
X8215160Y1050641D01*
Y1062639D01*
X8210569Y1073724D01*
X8202085Y1082208D01*
X8191000Y1086800D01*
D02*
G37*
G36*
X8309259Y1084260D02*
X8297261D01*
X8286176Y1079668D01*
X8277692Y1071184D01*
X8273100Y1060099D01*
Y1048101D01*
X8277692Y1037016D01*
X8286176Y1028532D01*
X8297261Y1023940D01*
X8309259D01*
X8320345Y1028532D01*
X8328829Y1037016D01*
X8333420Y1048101D01*
Y1060099D01*
X8328829Y1071184D01*
X8320345Y1079668D01*
X8309259Y1084260D01*
D02*
G37*
G36*
X5205353Y918016D02*
X5186879D01*
X5169035Y913235D01*
X5153037Y903998D01*
X5139974Y890935D01*
X5130737Y874937D01*
X5125956Y857093D01*
Y838619D01*
X5130737Y820775D01*
X5139974Y804777D01*
X5153037Y791714D01*
X5169035Y782477D01*
X5186879Y777696D01*
X5205353D01*
X5223197Y782477D01*
X5239195Y791714D01*
X5252258Y804777D01*
X5261494Y820775D01*
X5266276Y838619D01*
Y857093D01*
X5261494Y874937D01*
X5252258Y890935D01*
X5239195Y903998D01*
X5223197Y913235D01*
X5205353Y918016D01*
D02*
G37*
G36*
X1405353Y6539636D02*
X1386879D01*
X1369035Y6534855D01*
X1353037Y6525618D01*
X1339974Y6512555D01*
X1330737Y6496557D01*
X1325956Y6478713D01*
Y6460239D01*
X1330737Y6442395D01*
X1339974Y6426397D01*
X1353037Y6413334D01*
X1369035Y6404097D01*
X1386879Y6399316D01*
X1405353D01*
X1423197Y6404097D01*
X1439195Y6413334D01*
X1452258Y6426397D01*
X1461494Y6442395D01*
X1466276Y6460239D01*
Y6478713D01*
X1461494Y6496557D01*
X1452258Y6512555D01*
X1439195Y6525618D01*
X1423197Y6534855D01*
X1405353Y6539636D01*
D02*
G37*
G36*
X1552605Y6166545D02*
X1540606D01*
X1529521Y6161954D01*
X1521037Y6153470D01*
X1516446Y6142385D01*
Y6130386D01*
X1521037Y6119301D01*
X1529521Y6110817D01*
X1540606Y6106226D01*
X1552605D01*
X1563690Y6110817D01*
X1572174Y6119301D01*
X1576765Y6130386D01*
Y6142385D01*
X1572174Y6153470D01*
X1563690Y6161954D01*
X1552605Y6166545D01*
D02*
G37*
G36*
X1242979Y6110920D02*
X1230981D01*
X1219896Y6106328D01*
X1211412Y6097844D01*
X1206820Y6086759D01*
Y6074761D01*
X1211412Y6063676D01*
X1219896Y6055192D01*
X1230981Y6050600D01*
X1242979D01*
X1254065Y6055192D01*
X1262549Y6063676D01*
X1267140Y6074761D01*
Y6086759D01*
X1262549Y6097844D01*
X1254065Y6106328D01*
X1242979Y6110920D01*
D02*
G37*
G36*
X1476405Y6090345D02*
X1464406D01*
X1453321Y6085754D01*
X1444837Y6077270D01*
X1440246Y6066185D01*
Y6054186D01*
X1444837Y6043101D01*
X1453321Y6034617D01*
X1464406Y6030026D01*
X1476405D01*
X1487490Y6034617D01*
X1495974Y6043101D01*
X1500565Y6054186D01*
Y6066185D01*
X1495974Y6077270D01*
X1487490Y6085754D01*
X1476405Y6090345D01*
D02*
G37*
G36*
X1659285Y6059865D02*
X1647286D01*
X1636201Y6055274D01*
X1627717Y6046790D01*
X1623126Y6035705D01*
Y6023706D01*
X1627717Y6012621D01*
X1636201Y6004137D01*
X1647286Y5999546D01*
X1659285D01*
X1670370Y6004137D01*
X1678854Y6012621D01*
X1683445Y6023706D01*
Y6035705D01*
X1678854Y6046790D01*
X1670370Y6055274D01*
X1659285Y6059865D01*
D02*
G37*
G36*
X1154079Y5768020D02*
X1142081D01*
X1130996Y5763428D01*
X1122512Y5754944D01*
X1117920Y5743859D01*
Y5731861D01*
X1122512Y5720776D01*
X1130996Y5712292D01*
X1142081Y5707700D01*
X1154079D01*
X1165164Y5712292D01*
X1173648Y5720776D01*
X1178240Y5731861D01*
Y5743859D01*
X1173648Y5754944D01*
X1165164Y5763428D01*
X1154079Y5768020D01*
D02*
G37*
G36*
X1077879Y5691820D02*
X1065881D01*
X1054796Y5687228D01*
X1046312Y5678744D01*
X1041720Y5667659D01*
Y5655661D01*
X1046312Y5644576D01*
X1054796Y5636092D01*
X1065881Y5631500D01*
X1077879D01*
X1088964Y5636092D01*
X1097448Y5644576D01*
X1102040Y5655661D01*
Y5667659D01*
X1097448Y5678744D01*
X1088964Y5687228D01*
X1077879Y5691820D01*
D02*
G37*
G36*
X761787Y5630828D02*
X749788D01*
X738703Y5626237D01*
X731657Y5619191D01*
X724612Y5626237D01*
X713527Y5630828D01*
X701528D01*
X690443Y5626237D01*
X681959Y5617753D01*
X677367Y5606668D01*
Y5594669D01*
X681959Y5583584D01*
X689005Y5576539D01*
X681959Y5569493D01*
X677367Y5558408D01*
Y5546409D01*
X681959Y5535324D01*
X689005Y5528279D01*
X681959Y5521233D01*
X677367Y5510148D01*
Y5498149D01*
X681959Y5487064D01*
X689005Y5480019D01*
X681959Y5472973D01*
X677367Y5461888D01*
Y5449889D01*
X681959Y5438804D01*
X689005Y5431759D01*
X681959Y5424713D01*
X677367Y5413628D01*
Y5401629D01*
X681959Y5390544D01*
X690443Y5382060D01*
X701528Y5377469D01*
X713527D01*
X724612Y5382060D01*
X731657Y5389106D01*
X738703Y5382060D01*
X749788Y5377469D01*
X761787D01*
X772872Y5382060D01*
X781356Y5390544D01*
X785947Y5401629D01*
Y5413628D01*
X781356Y5424713D01*
X774310Y5431759D01*
X781356Y5438804D01*
X785947Y5449889D01*
Y5461888D01*
X781356Y5472973D01*
X774310Y5480019D01*
X781356Y5487064D01*
X785947Y5498149D01*
Y5510148D01*
X781356Y5521233D01*
X774310Y5528279D01*
X781356Y5535324D01*
X785947Y5546409D01*
Y5558408D01*
X781356Y5569493D01*
X774310Y5576539D01*
X781356Y5583584D01*
X785947Y5594669D01*
Y5606668D01*
X781356Y5617753D01*
X772872Y5626237D01*
X761787Y5630828D01*
D02*
G37*
G36*
X1187099Y5582600D02*
X1175101D01*
X1164016Y5578008D01*
X1155532Y5569524D01*
X1150940Y5558439D01*
Y5546441D01*
X1155532Y5535356D01*
X1164016Y5526872D01*
X1175101Y5522280D01*
X1187099D01*
X1198184Y5526872D01*
X1206668Y5535356D01*
X1211260Y5546441D01*
Y5558439D01*
X1206668Y5569524D01*
X1198184Y5578008D01*
X1187099Y5582600D01*
D02*
G37*
G36*
X437799Y4912040D02*
X425801D01*
X414716Y4907448D01*
X407670Y4900403D01*
X400624Y4907448D01*
X389539Y4912040D01*
X377541D01*
X366456Y4907448D01*
X357972Y4898964D01*
X353380Y4887879D01*
Y4875881D01*
X357972Y4864796D01*
X365017Y4857750D01*
X357972Y4850704D01*
X353380Y4839619D01*
Y4827621D01*
X357972Y4816536D01*
X366456Y4808052D01*
X377541Y4803460D01*
X389539D01*
X400624Y4808052D01*
X407670Y4815097D01*
X414716Y4808052D01*
X425801Y4803460D01*
X437799D01*
X448884Y4808052D01*
X457368Y4816536D01*
X461960Y4827621D01*
Y4839619D01*
X457368Y4850704D01*
X450323Y4857750D01*
X457368Y4864796D01*
X461960Y4875881D01*
Y4887879D01*
X457368Y4898964D01*
X448884Y4907448D01*
X437799Y4912040D01*
D02*
G37*
G36*
X1093119Y4884100D02*
X1081121D01*
X1070036Y4879508D01*
X1062990Y4872463D01*
X1055944Y4879508D01*
X1044859Y4884100D01*
X1032861D01*
X1021776Y4879508D01*
X1013292Y4871024D01*
X1008700Y4859939D01*
Y4847941D01*
X1013292Y4836856D01*
X1020337Y4829810D01*
X1013292Y4822764D01*
X1008700Y4811679D01*
Y4799681D01*
X1013292Y4788596D01*
X1020337Y4781550D01*
X1013292Y4774504D01*
X1008700Y4763419D01*
Y4751421D01*
X1013292Y4740336D01*
X1020337Y4733290D01*
X1013292Y4726244D01*
X1008700Y4715159D01*
Y4703161D01*
X1013292Y4692076D01*
X1020337Y4685030D01*
X1013292Y4677984D01*
X1008700Y4666899D01*
Y4654901D01*
X1013292Y4643816D01*
X1021776Y4635332D01*
X1032861Y4630740D01*
X1044859D01*
X1055944Y4635332D01*
X1062990Y4642377D01*
X1070036Y4635332D01*
X1081121Y4630740D01*
X1093119D01*
X1104204Y4635332D01*
X1112688Y4643816D01*
X1117280Y4654901D01*
Y4666899D01*
X1112688Y4677984D01*
X1105643Y4685030D01*
X1112688Y4692076D01*
X1117280Y4703161D01*
Y4715159D01*
X1112688Y4726244D01*
X1105643Y4733290D01*
X1112688Y4740336D01*
X1117280Y4751421D01*
Y4763419D01*
X1112688Y4774504D01*
X1105643Y4781550D01*
X1112688Y4788596D01*
X1117280Y4799681D01*
Y4811679D01*
X1112688Y4822764D01*
X1105643Y4829810D01*
X1112688Y4836856D01*
X1117280Y4847941D01*
Y4859939D01*
X1112688Y4871024D01*
X1104204Y4879508D01*
X1093119Y4884100D01*
D02*
G37*
G36*
X1263299Y4332920D02*
X1251301D01*
X1240216Y4328328D01*
X1236302Y4324415D01*
X1228090Y4321248D01*
X1219878Y4324415D01*
X1215964Y4328328D01*
X1204879Y4332920D01*
X1192881D01*
X1181796Y4328328D01*
X1173312Y4319844D01*
X1168720Y4308759D01*
Y4296761D01*
X1173312Y4285676D01*
X1174601Y4284387D01*
X1180952Y4276090D01*
X1174601Y4267793D01*
X1173312Y4266504D01*
X1168720Y4255419D01*
Y4243421D01*
X1173312Y4232336D01*
X1181796Y4223852D01*
X1192881Y4219260D01*
X1204879D01*
X1215964Y4223852D01*
X1219878Y4227765D01*
X1228090Y4230932D01*
X1236302Y4227765D01*
X1240216Y4223852D01*
X1251301Y4219260D01*
X1263299D01*
X1274384Y4223852D01*
X1282868Y4232336D01*
X1287460Y4243421D01*
Y4255419D01*
X1282868Y4266504D01*
X1281579Y4267793D01*
X1275228Y4276090D01*
X1281579Y4284387D01*
X1282868Y4285676D01*
X1287460Y4296761D01*
Y4308759D01*
X1282868Y4319844D01*
X1274384Y4328328D01*
X1263299Y4332920D01*
D02*
G37*
G36*
X111499Y4237760D02*
X99501D01*
X88416Y4233168D01*
X79932Y4224684D01*
X75340Y4213599D01*
Y4201601D01*
X79932Y4190516D01*
X88416Y4182032D01*
X99501Y4177440D01*
X111499D01*
X122584Y4182032D01*
X131068Y4190516D01*
X135660Y4201601D01*
Y4213599D01*
X131068Y4224684D01*
X122584Y4233168D01*
X111499Y4237760D01*
D02*
G37*
G36*
X761787Y3878228D02*
X749788D01*
X738703Y3873637D01*
X731657Y3866591D01*
X724612Y3873637D01*
X713527Y3878228D01*
X701528D01*
X690443Y3873637D01*
X681959Y3865153D01*
X677367Y3854068D01*
Y3842069D01*
X681959Y3830984D01*
X689005Y3823939D01*
X681959Y3816893D01*
X677367Y3805808D01*
Y3793809D01*
X681959Y3782724D01*
X689005Y3775679D01*
X681959Y3768633D01*
X677367Y3757548D01*
Y3745549D01*
X681959Y3734464D01*
X689005Y3727419D01*
X681959Y3720373D01*
X677367Y3709288D01*
Y3697289D01*
X681959Y3686204D01*
X689005Y3679159D01*
X681959Y3672113D01*
X677367Y3661028D01*
Y3649029D01*
X681959Y3637944D01*
X690443Y3629460D01*
X701528Y3624869D01*
X713527D01*
X724612Y3629460D01*
X731657Y3636506D01*
X738703Y3629460D01*
X749788Y3624869D01*
X761787D01*
X772872Y3629460D01*
X781356Y3637944D01*
X785947Y3649029D01*
Y3661028D01*
X781356Y3672113D01*
X774310Y3679159D01*
X781356Y3686204D01*
X785947Y3697289D01*
Y3709288D01*
X781356Y3720373D01*
X774310Y3727419D01*
X781356Y3734464D01*
X785947Y3745549D01*
Y3757548D01*
X781356Y3768633D01*
X774310Y3775679D01*
X781356Y3782724D01*
X785947Y3793809D01*
Y3805808D01*
X781356Y3816893D01*
X774310Y3823939D01*
X781356Y3830984D01*
X785947Y3842069D01*
Y3854068D01*
X781356Y3865153D01*
X772872Y3873637D01*
X761787Y3878228D01*
D02*
G37*
G36*
X2934619Y3842700D02*
X2922621D01*
X2911536Y3838108D01*
X2903052Y3829624D01*
X2898460Y3818539D01*
Y3806541D01*
X2903052Y3795456D01*
X2911536Y3786972D01*
X2922621Y3782380D01*
X2934619D01*
X2945704Y3786972D01*
X2954188Y3795456D01*
X2958780Y3806541D01*
Y3818539D01*
X2954188Y3829624D01*
X2945704Y3838108D01*
X2934619Y3842700D01*
D02*
G37*
G36*
X2298355Y3842286D02*
X2286357D01*
X2275272Y3837694D01*
X2266787Y3829210D01*
X2262196Y3818125D01*
Y3806127D01*
X2266787Y3795042D01*
X2275272Y3786558D01*
X2286357Y3781966D01*
X2298355D01*
X2309440Y3786558D01*
X2317924Y3795042D01*
X2322516Y3806127D01*
Y3818125D01*
X2317924Y3829210D01*
X2309440Y3837694D01*
X2298355Y3842286D01*
D02*
G37*
G36*
X2167875D02*
X2155877D01*
X2144792Y3837694D01*
X2136308Y3829210D01*
X2131716Y3818125D01*
Y3806127D01*
X2136308Y3795042D01*
X2144792Y3786558D01*
X2155877Y3781966D01*
X2167875D01*
X2178960Y3786558D01*
X2187444Y3795042D01*
X2192036Y3806127D01*
Y3818125D01*
X2187444Y3829210D01*
X2178960Y3837694D01*
X2167875Y3842286D01*
D02*
G37*
G36*
X2678079Y3804550D02*
X2666081D01*
X2654996Y3799958D01*
X2646512Y3791474D01*
X2641920Y3780389D01*
Y3768391D01*
X2646512Y3757306D01*
X2647801Y3756017D01*
X2654152Y3747720D01*
X2647801Y3739423D01*
X2646512Y3738134D01*
X2641920Y3727049D01*
Y3715051D01*
X2646512Y3703966D01*
X2653557Y3696920D01*
X2646512Y3689874D01*
X2641920Y3678789D01*
Y3666791D01*
X2646512Y3655706D01*
X2654996Y3647222D01*
X2666081Y3642630D01*
X2678079D01*
X2689164Y3647222D01*
X2697648Y3655706D01*
X2702240Y3666791D01*
Y3678789D01*
X2697648Y3689874D01*
X2690603Y3696920D01*
X2697648Y3703966D01*
X2702240Y3715051D01*
Y3727049D01*
X2697648Y3738134D01*
X2696359Y3739423D01*
X2690008Y3747720D01*
X2696359Y3756017D01*
X2697648Y3757306D01*
X2702240Y3768391D01*
Y3780389D01*
X2697648Y3791474D01*
X2689164Y3799958D01*
X2678079Y3804550D01*
D02*
G37*
G36*
X2551079D02*
X2539081D01*
X2527996Y3799958D01*
X2519512Y3791474D01*
X2514920Y3780389D01*
Y3768391D01*
X2519512Y3757306D01*
X2520801Y3756017D01*
X2527152Y3747720D01*
X2520801Y3739423D01*
X2519512Y3738134D01*
X2514920Y3727049D01*
Y3715051D01*
X2519512Y3703966D01*
X2526557Y3696920D01*
X2519512Y3689874D01*
X2514920Y3678789D01*
Y3666791D01*
X2519512Y3655706D01*
X2527996Y3647222D01*
X2539081Y3642630D01*
X2551079D01*
X2562164Y3647222D01*
X2570648Y3655706D01*
X2575240Y3666791D01*
Y3678789D01*
X2570648Y3689874D01*
X2563603Y3696920D01*
X2570648Y3703966D01*
X2575240Y3715051D01*
Y3727049D01*
X2570648Y3738134D01*
X2569359Y3739423D01*
X2563008Y3747720D01*
X2569359Y3756017D01*
X2570648Y3757306D01*
X2575240Y3768391D01*
Y3780389D01*
X2570648Y3791474D01*
X2562164Y3799958D01*
X2551079Y3804550D01*
D02*
G37*
G36*
X1405353Y3732286D02*
X1386879D01*
X1369035Y3727505D01*
X1353037Y3718268D01*
X1339974Y3705205D01*
X1330737Y3689207D01*
X1325956Y3671363D01*
Y3652889D01*
X1330737Y3635045D01*
X1339974Y3619047D01*
X1353037Y3605984D01*
X1369035Y3596747D01*
X1386879Y3591966D01*
X1405353D01*
X1423197Y3596747D01*
X1439195Y3605984D01*
X1452258Y3619047D01*
X1461494Y3635045D01*
X1466276Y3652889D01*
Y3671363D01*
X1461494Y3689207D01*
X1452258Y3705205D01*
X1439195Y3718268D01*
X1423197Y3727505D01*
X1405353Y3732286D01*
D02*
G37*
G36*
X2555168Y3484560D02*
X2543169D01*
X2532084Y3479968D01*
X2523600Y3471484D01*
X2519008Y3460399D01*
Y3448401D01*
X2523600Y3437316D01*
X2532084Y3428832D01*
X2543169Y3424240D01*
X2555168D01*
X2566253Y3428832D01*
X2574737Y3437316D01*
X2579328Y3448401D01*
Y3460399D01*
X2574737Y3471484D01*
X2566253Y3479968D01*
X2555168Y3484560D01*
D02*
G37*
G36*
X1726632D02*
X1714633D01*
X1703548Y3479968D01*
X1695064Y3471484D01*
X1690473Y3460399D01*
Y3448401D01*
X1695064Y3437316D01*
X1703548Y3428832D01*
X1714633Y3424240D01*
X1726632D01*
X1737717Y3428832D01*
X1746201Y3437316D01*
X1750793Y3448401D01*
Y3460399D01*
X1746201Y3471484D01*
X1737717Y3479968D01*
X1726632Y3484560D01*
D02*
G37*
G36*
X2552628Y3382960D02*
X2540629D01*
X2529544Y3378368D01*
X2521060Y3369884D01*
X2516468Y3358799D01*
Y3346801D01*
X2521060Y3335716D01*
X2529544Y3327232D01*
X2540629Y3322640D01*
X2552628D01*
X2563713Y3327232D01*
X2572197Y3335716D01*
X2576788Y3346801D01*
Y3358799D01*
X2572197Y3369884D01*
X2563713Y3378368D01*
X2552628Y3382960D01*
D02*
G37*
G36*
X1724092D02*
X1712093D01*
X1701008Y3378368D01*
X1692524Y3369884D01*
X1687933Y3358799D01*
Y3346801D01*
X1692524Y3335716D01*
X1701008Y3327232D01*
X1712093Y3322640D01*
X1724092D01*
X1735177Y3327232D01*
X1743661Y3335716D01*
X1748253Y3346801D01*
Y3358799D01*
X1743661Y3369884D01*
X1735177Y3378368D01*
X1724092Y3382960D01*
D02*
G37*
G36*
X2552628Y3281360D02*
X2540629D01*
X2529544Y3276768D01*
X2521060Y3268284D01*
X2516468Y3257199D01*
Y3245201D01*
X2521060Y3234116D01*
X2529544Y3225632D01*
X2540629Y3221040D01*
X2552628D01*
X2563713Y3225632D01*
X2572197Y3234116D01*
X2576788Y3245201D01*
Y3257199D01*
X2572197Y3268284D01*
X2563713Y3276768D01*
X2552628Y3281360D01*
D02*
G37*
G36*
X1724092D02*
X1712093D01*
X1701008Y3276768D01*
X1692524Y3268284D01*
X1687933Y3257199D01*
Y3245201D01*
X1692524Y3234116D01*
X1701008Y3225632D01*
X1712093Y3221040D01*
X1724092D01*
X1735177Y3225632D01*
X1743661Y3234116D01*
X1748253Y3245201D01*
Y3257199D01*
X1743661Y3268284D01*
X1735177Y3276768D01*
X1724092Y3281360D01*
D02*
G37*
G36*
X437799Y3159440D02*
X425801D01*
X414716Y3154848D01*
X407670Y3147803D01*
X400624Y3154848D01*
X389539Y3159440D01*
X377541D01*
X366456Y3154848D01*
X357972Y3146364D01*
X353380Y3135279D01*
Y3123281D01*
X357972Y3112196D01*
X365017Y3105150D01*
X357972Y3098104D01*
X353380Y3087019D01*
Y3075021D01*
X357972Y3063936D01*
X366456Y3055452D01*
X377541Y3050860D01*
X389539D01*
X400624Y3055452D01*
X407670Y3062497D01*
X414716Y3055452D01*
X425801Y3050860D01*
X437799D01*
X448884Y3055452D01*
X457368Y3063936D01*
X461960Y3075021D01*
Y3087019D01*
X457368Y3098104D01*
X450323Y3105150D01*
X457368Y3112196D01*
X461960Y3123281D01*
Y3135279D01*
X457368Y3146364D01*
X448884Y3154848D01*
X437799Y3159440D01*
D02*
G37*
G36*
X1093119Y3131500D02*
X1081121D01*
X1070036Y3126908D01*
X1062990Y3119863D01*
X1055944Y3126908D01*
X1044859Y3131500D01*
X1032861D01*
X1021776Y3126908D01*
X1013292Y3118424D01*
X1008700Y3107339D01*
Y3095341D01*
X1013292Y3084256D01*
X1020337Y3077210D01*
X1013292Y3070164D01*
X1008700Y3059079D01*
Y3047081D01*
X1013292Y3035996D01*
X1020337Y3028950D01*
X1013292Y3021904D01*
X1008700Y3010819D01*
Y2998821D01*
X1013292Y2987736D01*
X1020337Y2980690D01*
X1013292Y2973644D01*
X1008700Y2962559D01*
Y2950561D01*
X1013292Y2939476D01*
X1020337Y2932430D01*
X1013292Y2925384D01*
X1008700Y2914299D01*
Y2902301D01*
X1013292Y2891216D01*
X1021776Y2882732D01*
X1032861Y2878140D01*
X1044859D01*
X1055944Y2882732D01*
X1062990Y2889777D01*
X1070036Y2882732D01*
X1081121Y2878140D01*
X1093119D01*
X1104204Y2882732D01*
X1112688Y2891216D01*
X1117280Y2902301D01*
Y2914299D01*
X1112688Y2925384D01*
X1105643Y2932430D01*
X1112688Y2939476D01*
X1117280Y2950561D01*
Y2962559D01*
X1112688Y2973644D01*
X1105643Y2980690D01*
X1112688Y2987736D01*
X1117280Y2998821D01*
Y3010819D01*
X1112688Y3021904D01*
X1105643Y3028950D01*
X1112688Y3035996D01*
X1117280Y3047081D01*
Y3059079D01*
X1112688Y3070164D01*
X1105643Y3077210D01*
X1112688Y3084256D01*
X1117280Y3095341D01*
Y3107339D01*
X1112688Y3118424D01*
X1104204Y3126908D01*
X1093119Y3131500D01*
D02*
G37*
G36*
X111319Y2485160D02*
X99321D01*
X88236Y2480568D01*
X79752Y2472084D01*
X75160Y2460999D01*
Y2449001D01*
X79752Y2437916D01*
X88236Y2429432D01*
X99321Y2424840D01*
X111319D01*
X122404Y2429432D01*
X130888Y2437916D01*
X135480Y2449001D01*
Y2460999D01*
X130888Y2472084D01*
X122404Y2480568D01*
X111319Y2485160D01*
D02*
G37*
G36*
X761787Y2087528D02*
X749788D01*
X738703Y2082937D01*
X731657Y2075891D01*
X724612Y2082937D01*
X713527Y2087528D01*
X701528D01*
X690443Y2082937D01*
X681959Y2074453D01*
X677367Y2063368D01*
Y2051369D01*
X681959Y2040284D01*
X689005Y2033239D01*
X681959Y2026193D01*
X677367Y2015108D01*
Y2003109D01*
X681959Y1992024D01*
X689005Y1984979D01*
X681959Y1977933D01*
X677367Y1966848D01*
Y1954849D01*
X681959Y1943764D01*
X689005Y1936719D01*
X681959Y1929673D01*
X677367Y1918588D01*
Y1906589D01*
X681959Y1895504D01*
X689005Y1888459D01*
X681959Y1881413D01*
X677367Y1870328D01*
Y1858329D01*
X681959Y1847244D01*
X690443Y1838760D01*
X701528Y1834169D01*
X713527D01*
X724612Y1838760D01*
X731657Y1845806D01*
X738703Y1838760D01*
X749788Y1834169D01*
X761787D01*
X772872Y1838760D01*
X781356Y1847244D01*
X785947Y1858329D01*
Y1870328D01*
X781356Y1881413D01*
X774310Y1888459D01*
X781356Y1895504D01*
X785947Y1906589D01*
Y1918588D01*
X781356Y1929673D01*
X774310Y1936719D01*
X781356Y1943764D01*
X785947Y1954849D01*
Y1966848D01*
X781356Y1977933D01*
X774310Y1984979D01*
X781356Y1992024D01*
X785947Y2003109D01*
Y2015108D01*
X781356Y2026193D01*
X774310Y2033239D01*
X781356Y2040284D01*
X785947Y2051369D01*
Y2063368D01*
X781356Y2074453D01*
X772872Y2082937D01*
X761787Y2087528D01*
D02*
G37*
G36*
X437799Y1368740D02*
X425801D01*
X414716Y1364148D01*
X407670Y1357103D01*
X400624Y1364148D01*
X389539Y1368740D01*
X377541D01*
X366456Y1364148D01*
X357972Y1355664D01*
X353380Y1344579D01*
Y1332581D01*
X357972Y1321496D01*
X365017Y1314450D01*
X357972Y1307404D01*
X353380Y1296319D01*
Y1284321D01*
X357972Y1273236D01*
X366456Y1264752D01*
X377541Y1260160D01*
X389539D01*
X400624Y1264752D01*
X407670Y1271797D01*
X414716Y1264752D01*
X425801Y1260160D01*
X437799D01*
X448884Y1264752D01*
X457368Y1273236D01*
X461960Y1284321D01*
Y1296319D01*
X457368Y1307404D01*
X450323Y1314450D01*
X457368Y1321496D01*
X461960Y1332581D01*
Y1344579D01*
X457368Y1355664D01*
X448884Y1364148D01*
X437799Y1368740D01*
D02*
G37*
G36*
X1093119Y1340800D02*
X1081121D01*
X1070036Y1336208D01*
X1062990Y1329163D01*
X1055944Y1336208D01*
X1044859Y1340800D01*
X1032861D01*
X1021776Y1336208D01*
X1013292Y1327724D01*
X1008700Y1316639D01*
Y1304641D01*
X1013292Y1293556D01*
X1020337Y1286510D01*
X1013292Y1279464D01*
X1008700Y1268379D01*
Y1256381D01*
X1013292Y1245296D01*
X1020337Y1238250D01*
X1013292Y1231204D01*
X1008700Y1220119D01*
Y1208121D01*
X1013292Y1197036D01*
X1020337Y1189990D01*
X1013292Y1182944D01*
X1008700Y1171859D01*
Y1159861D01*
X1013292Y1148776D01*
X1020337Y1141730D01*
X1013292Y1134684D01*
X1008700Y1123599D01*
Y1111601D01*
X1013292Y1100516D01*
X1021776Y1092032D01*
X1032861Y1087440D01*
X1044859D01*
X1055944Y1092032D01*
X1062990Y1099077D01*
X1070036Y1092032D01*
X1081121Y1087440D01*
X1093119D01*
X1104204Y1092032D01*
X1112688Y1100516D01*
X1117280Y1111601D01*
Y1123599D01*
X1112688Y1134684D01*
X1105643Y1141730D01*
X1112688Y1148776D01*
X1117280Y1159861D01*
Y1171859D01*
X1112688Y1182944D01*
X1105643Y1189990D01*
X1112688Y1197036D01*
X1117280Y1208121D01*
Y1220119D01*
X1112688Y1231204D01*
X1105643Y1238250D01*
X1112688Y1245296D01*
X1117280Y1256381D01*
Y1268379D01*
X1112688Y1279464D01*
X1105643Y1286510D01*
X1112688Y1293556D01*
X1117280Y1304641D01*
Y1316639D01*
X1112688Y1327724D01*
X1104204Y1336208D01*
X1093119Y1340800D01*
D02*
G37*
G36*
X2919379Y1030920D02*
X2907381D01*
X2896296Y1026328D01*
X2887812Y1017844D01*
X2883220Y1006759D01*
Y994761D01*
X2887812Y983676D01*
X2896296Y975192D01*
X2907381Y970600D01*
X2919379D01*
X2930464Y975192D01*
X2938948Y983676D01*
X2943540Y994761D01*
Y1006759D01*
X2938948Y1017844D01*
X2930464Y1026328D01*
X2919379Y1030920D01*
D02*
G37*
G36*
X2298355Y1028016D02*
X2286357D01*
X2275272Y1023424D01*
X2266787Y1014940D01*
X2262196Y1003855D01*
Y991857D01*
X2266787Y980772D01*
X2275272Y972288D01*
X2286357Y967696D01*
X2298355D01*
X2309440Y972288D01*
X2317924Y980772D01*
X2322516Y991857D01*
Y1003855D01*
X2317924Y1014940D01*
X2309440Y1023424D01*
X2298355Y1028016D01*
D02*
G37*
G36*
X2167875D02*
X2155877D01*
X2144792Y1023424D01*
X2136308Y1014940D01*
X2131716Y1003855D01*
Y991857D01*
X2136308Y980772D01*
X2144792Y972288D01*
X2155877Y967696D01*
X2167875D01*
X2178960Y972288D01*
X2187444Y980772D01*
X2192036Y991857D01*
Y1003855D01*
X2187444Y1014940D01*
X2178960Y1023424D01*
X2167875Y1028016D01*
D02*
G37*
G36*
X2678079Y1099500D02*
X2666081D01*
X2654996Y1094908D01*
X2646512Y1086424D01*
X2641920Y1075339D01*
Y1063341D01*
X2646512Y1052256D01*
X2654827Y1043940D01*
X2646512Y1035624D01*
X2641920Y1024539D01*
Y1012541D01*
X2646512Y1001456D01*
X2647801Y1000167D01*
X2654152Y991870D01*
X2647801Y983573D01*
X2646512Y982284D01*
X2641920Y971199D01*
Y959201D01*
X2646512Y948116D01*
X2647801Y946827D01*
X2654152Y938530D01*
X2647801Y930233D01*
X2646512Y928944D01*
X2641920Y917859D01*
Y905861D01*
X2646512Y894776D01*
X2653557Y887730D01*
X2646512Y880684D01*
X2641920Y869599D01*
Y857601D01*
X2646512Y846516D01*
X2654996Y838032D01*
X2666081Y833440D01*
X2678079D01*
X2689164Y838032D01*
X2697648Y846516D01*
X2702240Y857601D01*
Y869599D01*
X2697648Y880684D01*
X2690603Y887730D01*
X2697648Y894776D01*
X2702240Y905861D01*
Y917859D01*
X2697648Y928944D01*
X2696359Y930233D01*
X2690008Y938530D01*
X2696359Y946827D01*
X2697648Y948116D01*
X2702240Y959201D01*
Y971199D01*
X2697648Y982284D01*
X2696359Y983573D01*
X2690008Y991870D01*
X2696359Y1000167D01*
X2697648Y1001456D01*
X2702240Y1012541D01*
Y1024539D01*
X2697648Y1035624D01*
X2689333Y1043940D01*
X2697648Y1052256D01*
X2702240Y1063341D01*
Y1075339D01*
X2697648Y1086424D01*
X2689164Y1094908D01*
X2678079Y1099500D01*
D02*
G37*
G36*
X2551079D02*
X2539081D01*
X2527996Y1094908D01*
X2519512Y1086424D01*
X2514920Y1075339D01*
Y1063341D01*
X2519512Y1052256D01*
X2527827Y1043940D01*
X2519512Y1035624D01*
X2514920Y1024539D01*
Y1012541D01*
X2519512Y1001456D01*
X2520801Y1000167D01*
X2527152Y991870D01*
X2520801Y983573D01*
X2519512Y982284D01*
X2514920Y971199D01*
Y959201D01*
X2519512Y948116D01*
X2520801Y946827D01*
X2527152Y938530D01*
X2520801Y930233D01*
X2519512Y928944D01*
X2514920Y917859D01*
Y905861D01*
X2519512Y894776D01*
X2526557Y887730D01*
X2519512Y880684D01*
X2514920Y869599D01*
Y857601D01*
X2519512Y846516D01*
X2527996Y838032D01*
X2539081Y833440D01*
X2551079D01*
X2562164Y838032D01*
X2570648Y846516D01*
X2575240Y857601D01*
Y869599D01*
X2570648Y880684D01*
X2563603Y887730D01*
X2570648Y894776D01*
X2575240Y905861D01*
Y917859D01*
X2570648Y928944D01*
X2569359Y930233D01*
X2563008Y938530D01*
X2569359Y946827D01*
X2570648Y948116D01*
X2575240Y959201D01*
Y971199D01*
X2570648Y982284D01*
X2569359Y983573D01*
X2563008Y991870D01*
X2569359Y1000167D01*
X2570648Y1001456D01*
X2575240Y1012541D01*
Y1024539D01*
X2570648Y1035624D01*
X2562333Y1043940D01*
X2570648Y1052256D01*
X2575240Y1063341D01*
Y1075339D01*
X2570648Y1086424D01*
X2562164Y1094908D01*
X2551079Y1099500D01*
D02*
G37*
G36*
X1263299Y789620D02*
X1251301D01*
X1240216Y785028D01*
X1236302Y781115D01*
X1228090Y777948D01*
X1219878Y781115D01*
X1215964Y785028D01*
X1204879Y789620D01*
X1192881D01*
X1181796Y785028D01*
X1173312Y776544D01*
X1168720Y765459D01*
Y753461D01*
X1173312Y742376D01*
X1174601Y741087D01*
X1180952Y732790D01*
X1174601Y724493D01*
X1173312Y723204D01*
X1168720Y712119D01*
Y700121D01*
X1173312Y689036D01*
X1181796Y680552D01*
X1192881Y675960D01*
X1204879D01*
X1215964Y680552D01*
X1219878Y684465D01*
X1228090Y687632D01*
X1236302Y684465D01*
X1240216Y680552D01*
X1251301Y675960D01*
X1263299D01*
X1274384Y680552D01*
X1282868Y689036D01*
X1287460Y700121D01*
Y712119D01*
X1282868Y723204D01*
X1281579Y724493D01*
X1275228Y732790D01*
X1281579Y741087D01*
X1282868Y742376D01*
X1287460Y753461D01*
Y765459D01*
X1282868Y776544D01*
X1274384Y785028D01*
X1263299Y789620D01*
D02*
G37*
G36*
X1405353Y918016D02*
X1386879D01*
X1369035Y913235D01*
X1353037Y903998D01*
X1339974Y890935D01*
X1330737Y874937D01*
X1325956Y857093D01*
Y838619D01*
X1330737Y820775D01*
X1339974Y804777D01*
X1353037Y791714D01*
X1369035Y782477D01*
X1386879Y777696D01*
X1405353D01*
X1423197Y782477D01*
X1439195Y791714D01*
X1452258Y804777D01*
X1461494Y820775D01*
X1466276Y838619D01*
Y857093D01*
X1461494Y874937D01*
X1452258Y890935D01*
X1439195Y903998D01*
X1423197Y913235D01*
X1405353Y918016D01*
D02*
G37*
G36*
X2555168Y792988D02*
X2543169D01*
X2532084Y788396D01*
X2523600Y779912D01*
X2519008Y768827D01*
Y756829D01*
X2523600Y745744D01*
X2532084Y737260D01*
X2543169Y732668D01*
X2555168D01*
X2566253Y737260D01*
X2574737Y745744D01*
X2579328Y756829D01*
Y768827D01*
X2574737Y779912D01*
X2566253Y788396D01*
X2555168Y792988D01*
D02*
G37*
G36*
X1726632D02*
X1714633D01*
X1703548Y788396D01*
X1695064Y779912D01*
X1690473Y768827D01*
Y756829D01*
X1695064Y745744D01*
X1703548Y737260D01*
X1714633Y732668D01*
X1726632D01*
X1737717Y737260D01*
X1746201Y745744D01*
X1750793Y756829D01*
Y768827D01*
X1746201Y779912D01*
X1737717Y788396D01*
X1726632Y792988D01*
D02*
G37*
G36*
X127919Y693100D02*
X115921D01*
X104836Y688508D01*
X96352Y680024D01*
X91760Y668939D01*
Y656941D01*
X96352Y645856D01*
X104836Y637372D01*
X115921Y632780D01*
X127919D01*
X139004Y637372D01*
X147488Y645856D01*
X152080Y656941D01*
Y668939D01*
X147488Y680024D01*
X139004Y688508D01*
X127919Y693100D01*
D02*
G37*
G36*
X2552628Y691388D02*
X2540629D01*
X2529544Y686796D01*
X2521060Y678312D01*
X2516468Y667227D01*
Y655229D01*
X2521060Y644144D01*
X2529544Y635660D01*
X2540629Y631068D01*
X2552628D01*
X2563713Y635660D01*
X2572197Y644144D01*
X2576788Y655229D01*
Y667227D01*
X2572197Y678312D01*
X2563713Y686796D01*
X2552628Y691388D01*
D02*
G37*
G36*
X1724092D02*
X1712093D01*
X1701008Y686796D01*
X1692524Y678312D01*
X1687933Y667227D01*
Y655229D01*
X1692524Y644144D01*
X1701008Y635660D01*
X1712093Y631068D01*
X1724092D01*
X1735177Y635660D01*
X1743661Y644144D01*
X1748253Y655229D01*
Y667227D01*
X1743661Y678312D01*
X1735177Y686796D01*
X1724092Y691388D01*
D02*
G37*
%LPD*%
G36*
X766642Y5616914D02*
X772033Y5611523D01*
X774950Y5604480D01*
Y5596857D01*
X772033Y5589814D01*
X766534Y5584315D01*
X763313Y5576539D01*
X766534Y5568762D01*
X772033Y5563263D01*
X774950Y5556220D01*
Y5548597D01*
X772033Y5541554D01*
X766534Y5536055D01*
X763313Y5528279D01*
X766534Y5520502D01*
X772033Y5515003D01*
X774950Y5507960D01*
Y5500337D01*
X772033Y5493294D01*
X766534Y5487795D01*
X763313Y5480019D01*
X766534Y5472242D01*
X772033Y5466743D01*
X774950Y5459700D01*
Y5452077D01*
X772033Y5445034D01*
X766534Y5439535D01*
X763313Y5431759D01*
X766534Y5423982D01*
X772033Y5418483D01*
X774950Y5411440D01*
Y5403817D01*
X772033Y5396774D01*
X766642Y5391383D01*
X759599Y5388466D01*
X751976D01*
X744933Y5391383D01*
X739434Y5396882D01*
X731657Y5400103D01*
X723881Y5396882D01*
X718382Y5391383D01*
X711339Y5388466D01*
X703716D01*
X696673Y5391383D01*
X691282Y5396774D01*
X688365Y5403817D01*
Y5411440D01*
X691282Y5418483D01*
X696781Y5423982D01*
X700002Y5431759D01*
X696781Y5439535D01*
X691282Y5445034D01*
X688365Y5452077D01*
Y5459700D01*
X691282Y5466743D01*
X696781Y5472242D01*
X700002Y5480019D01*
X696781Y5487795D01*
X691282Y5493294D01*
X688365Y5500337D01*
Y5507960D01*
X691282Y5515003D01*
X696781Y5520502D01*
X700002Y5528279D01*
X696781Y5536055D01*
X691282Y5541554D01*
X688365Y5548597D01*
Y5556220D01*
X691282Y5563263D01*
X696781Y5568762D01*
X700002Y5576539D01*
X696781Y5584315D01*
X691282Y5589814D01*
X688365Y5596857D01*
Y5604480D01*
X691282Y5611523D01*
X696673Y5616914D01*
X703716Y5619831D01*
X711339D01*
X718382Y5616914D01*
X723881Y5611415D01*
X731657Y5608194D01*
X739434Y5611415D01*
X744933Y5616914D01*
X751976Y5619831D01*
X759599D01*
X766642Y5616914D01*
D02*
G37*
G36*
Y3864314D02*
X772033Y3858923D01*
X774950Y3851880D01*
Y3844257D01*
X772033Y3837214D01*
X766534Y3831715D01*
X763313Y3823939D01*
X766534Y3816162D01*
X772033Y3810663D01*
X774950Y3803620D01*
Y3795997D01*
X772033Y3788954D01*
X766534Y3783455D01*
X763313Y3775679D01*
X766534Y3767902D01*
X772033Y3762403D01*
X774950Y3755360D01*
Y3747737D01*
X772033Y3740694D01*
X766534Y3735195D01*
X763313Y3727419D01*
X766534Y3719642D01*
X772033Y3714143D01*
X774950Y3707100D01*
Y3699477D01*
X772033Y3692434D01*
X766534Y3686935D01*
X763313Y3679159D01*
X766534Y3671382D01*
X772033Y3665883D01*
X774950Y3658840D01*
Y3651217D01*
X772033Y3644174D01*
X766642Y3638783D01*
X759599Y3635866D01*
X751976D01*
X744933Y3638783D01*
X739434Y3644282D01*
X731657Y3647503D01*
X723881Y3644282D01*
X718382Y3638783D01*
X711339Y3635866D01*
X703716D01*
X696673Y3638783D01*
X691282Y3644174D01*
X688365Y3651217D01*
Y3658840D01*
X691282Y3665883D01*
X696781Y3671382D01*
X700002Y3679159D01*
X696781Y3686935D01*
X691282Y3692434D01*
X688365Y3699477D01*
Y3707100D01*
X691282Y3714143D01*
X696781Y3719642D01*
X700002Y3727419D01*
X696781Y3735195D01*
X691282Y3740694D01*
X688365Y3747737D01*
Y3755360D01*
X691282Y3762403D01*
X696781Y3767902D01*
X700002Y3775679D01*
X696781Y3783455D01*
X691282Y3788954D01*
X688365Y3795997D01*
Y3803620D01*
X691282Y3810663D01*
X696781Y3816162D01*
X700002Y3823939D01*
X696781Y3831715D01*
X691282Y3837214D01*
X688365Y3844257D01*
Y3851880D01*
X691282Y3858923D01*
X696673Y3864314D01*
X703716Y3867231D01*
X711339D01*
X718382Y3864314D01*
X723881Y3858815D01*
X731657Y3855594D01*
X739434Y3858815D01*
X744933Y3864314D01*
X751976Y3867231D01*
X759599D01*
X766642Y3864314D01*
D02*
G37*
G36*
Y2073614D02*
X772033Y2068223D01*
X774950Y2061180D01*
Y2053557D01*
X772033Y2046514D01*
X766534Y2041015D01*
X763313Y2033239D01*
X766534Y2025462D01*
X772033Y2019963D01*
X774950Y2012920D01*
Y2005297D01*
X772033Y1998254D01*
X766534Y1992755D01*
X763313Y1984979D01*
X766534Y1977202D01*
X772033Y1971703D01*
X774950Y1964660D01*
Y1957037D01*
X772033Y1949994D01*
X766534Y1944495D01*
X763313Y1936719D01*
X766534Y1928942D01*
X772033Y1923443D01*
X774950Y1916400D01*
Y1908777D01*
X772033Y1901734D01*
X766534Y1896235D01*
X763313Y1888459D01*
X766534Y1880682D01*
X772033Y1875183D01*
X774950Y1868140D01*
Y1860517D01*
X772033Y1853474D01*
X766642Y1848083D01*
X759599Y1845166D01*
X751976D01*
X744933Y1848083D01*
X739434Y1853582D01*
X731657Y1856803D01*
X723881Y1853582D01*
X718382Y1848083D01*
X711339Y1845166D01*
X703716D01*
X696673Y1848083D01*
X691282Y1853474D01*
X688365Y1860517D01*
Y1868140D01*
X691282Y1875183D01*
X696781Y1880682D01*
X700002Y1888459D01*
X696781Y1896235D01*
X691282Y1901734D01*
X688365Y1908777D01*
Y1916400D01*
X691282Y1923443D01*
X696781Y1928942D01*
X700002Y1936719D01*
X696781Y1944495D01*
X691282Y1949994D01*
X688365Y1957037D01*
Y1964660D01*
X691282Y1971703D01*
X696781Y1977202D01*
X700002Y1984979D01*
X696781Y1992755D01*
X691282Y1998254D01*
X688365Y2005297D01*
Y2012920D01*
X691282Y2019963D01*
X696781Y2025462D01*
X700002Y2033239D01*
X696781Y2041015D01*
X691282Y2046514D01*
X688365Y2053557D01*
Y2061180D01*
X691282Y2068223D01*
X696673Y2073614D01*
X703716Y2076531D01*
X711339D01*
X718382Y2073614D01*
X723881Y2068115D01*
X731657Y2064894D01*
X739434Y2068115D01*
X744933Y2073614D01*
X751976Y2076531D01*
X759599D01*
X766642Y2073614D01*
D02*
G37*
D11*
X8826500Y5423665D02*
G03*
X8776919Y5543364I-169280J0D01*
G01*
D02*
G03*
X8657220Y5592945I-119699J-119699D01*
G01*
X8847597Y5109703D02*
G03*
X8898531Y5088605I50934J50934D01*
G01*
X8826500Y5160636D02*
G03*
X8847597Y5109703I72031J0D01*
G01*
X8304840Y5592945D02*
X8657220D01*
X8826500Y5160636D02*
Y5423665D01*
X8898531Y5088605D02*
X8944700D01*
D14*
X8494907Y6929165D02*
G03*
X8494868Y6929126I63560J-63638D01*
G01*
X8558468Y6955470D02*
G03*
X8494907Y6929165I0J-89943D01*
G01*
X8558468Y6955470D02*
X8750300D01*
X8468525Y6902783D02*
X8494868Y6929126D01*
X8465820Y6902783D02*
X8468525D01*
D52*
X6563360Y6927596D02*
D03*
X7843520D02*
D03*
D53*
X7603490Y7067550D02*
D03*
X7403338D02*
D03*
X7203440D02*
D03*
X7003542D02*
D03*
X6803390D02*
D03*
X7553452Y6917690D02*
D03*
X7303516D02*
D03*
X7103364D02*
D03*
X6853428D02*
D03*
D54*
X547080Y7138480D02*
D03*
D55*
X767080Y6888480D02*
D03*
D56*
X1047080Y7363480D02*
D03*
D57*
X8823059Y7169125D02*
D03*
X8393062D02*
D03*
Y6689115D02*
D03*
X8823059D02*
D03*
D58*
X1396116Y847856D02*
D03*
X5196116D02*
D03*
X1396116Y6469476D02*
D03*
X5196116D02*
D03*
X1396116Y3662126D02*
D03*
X5196116D02*
D03*
D59*
X4937760Y6062980D02*
D03*
X3906520Y6863080D02*
D03*
X3992880Y6771640D02*
D03*
X3982720Y6140036D02*
D03*
X8917940Y5324790D02*
D03*
Y5272090D02*
D03*
Y3394390D02*
D03*
Y3341690D02*
D03*
X7858285Y3644485D02*
D03*
X8917940Y1486850D02*
D03*
Y1434150D02*
D03*
X7586980Y1688636D02*
D03*
X8944700Y5088605D02*
D03*
X5458523Y6064064D02*
D03*
X4451356Y6606169D02*
D03*
X4220158Y6440394D02*
D03*
X3830320Y6240612D02*
D03*
X2989580Y6789420D02*
D03*
X2862116Y6792424D02*
D03*
X3423920Y7475359D02*
D03*
X3078480Y6962140D02*
D03*
Y6880860D02*
D03*
Y6921500D02*
D03*
X3883660Y7180580D02*
D03*
X3636883Y7057132D02*
D03*
X3579652D02*
D03*
X3522742D02*
D03*
Y6122412D02*
D03*
X3579652D02*
D03*
X3636883D02*
D03*
X6522720Y1150620D02*
D03*
X6548120Y1338580D02*
D03*
X7162800Y1950720D02*
D03*
X7053580Y1846580D02*
D03*
X7254240Y1648460D02*
D03*
X7378700Y1739900D02*
D03*
X6652260Y1021080D02*
D03*
X6761480Y1130300D02*
D03*
X3562356Y6596655D02*
D03*
X4206240Y762828D02*
D03*
X4203700Y661228D02*
D03*
Y559628D02*
D03*
X3375164Y661228D02*
D03*
X3377704Y762828D02*
D03*
X1718093Y661228D02*
D03*
X1720633Y762828D02*
D03*
X2546628Y661228D02*
D03*
X2549168Y762828D02*
D03*
X1257300Y4302760D02*
D03*
X1198880D02*
D03*
X1257300Y4249420D02*
D03*
X1198880D02*
D03*
X1257300Y2548338D02*
D03*
X1198880D02*
D03*
X1257300Y2494998D02*
D03*
X1198880D02*
D03*
Y706120D02*
D03*
X1257300D02*
D03*
X1198880Y759460D02*
D03*
X1257300D02*
D03*
X105320Y2455000D02*
D03*
X105500Y4207600D02*
D03*
X431800Y4881880D02*
D03*
Y4833620D02*
D03*
X383540D02*
D03*
Y4881880D02*
D03*
X431800Y3129280D02*
D03*
Y3081020D02*
D03*
X383540D02*
D03*
Y3129280D02*
D03*
Y1338580D02*
D03*
Y1290320D02*
D03*
X431800D02*
D03*
Y1338580D02*
D03*
X121920Y662940D02*
D03*
X1783080Y3936950D02*
D03*
Y3832810D02*
D03*
Y3883610D02*
D03*
X3050876Y997856D02*
D03*
X4451356D02*
D03*
X4193876D02*
D03*
X3050876Y3812126D02*
D03*
X2928620Y3812540D02*
D03*
X2913380Y1000760D02*
D03*
X2292356Y997856D02*
D03*
X2161876D02*
D03*
X4451356Y3812126D02*
D03*
X4193876Y3810624D02*
D03*
X2292356Y3812126D02*
D03*
X2161876D02*
D03*
X5768340Y5956300D02*
D03*
X4472216Y6302184D02*
D03*
X4391660Y6934200D02*
D03*
X5608320Y5953760D02*
D03*
X5552440D02*
D03*
X5717540D02*
D03*
X5661660D02*
D03*
X5824220Y5956300D02*
D03*
X4892675Y6105525D02*
D03*
X5125003Y6095252D02*
D03*
X5217230Y6124010D02*
D03*
X4086860Y6616700D02*
D03*
X5285870Y6225588D02*
D03*
X5405120Y6268720D02*
D03*
X5681067Y6508393D02*
D03*
X4600095Y6365560D02*
D03*
X4894116Y6462224D02*
D03*
X5257800Y7299960D02*
D03*
X5371775Y7230049D02*
D03*
X5441692Y7143492D02*
D03*
X5546050Y7080800D02*
D03*
X3512820Y6037580D02*
D03*
Y5991860D02*
D03*
Y5948680D02*
D03*
Y6883400D02*
D03*
Y6926580D02*
D03*
Y6972300D02*
D03*
X2282360Y7315200D02*
D03*
X2234100D02*
D03*
Y7363460D02*
D03*
X2282360D02*
D03*
X2427140D02*
D03*
X2330620Y7315200D02*
D03*
X2378880Y7363460D02*
D03*
X2330620D02*
D03*
X2378880Y7315200D02*
D03*
X2427140D02*
D03*
Y6380480D02*
D03*
X2378880D02*
D03*
X2330620Y6428740D02*
D03*
X2378880D02*
D03*
X2330620Y6380480D02*
D03*
X2427140Y6428740D02*
D03*
X2282360D02*
D03*
X2234100D02*
D03*
Y6380480D02*
D03*
X2282360D02*
D03*
X1087120Y1310640D02*
D03*
Y1262380D02*
D03*
X1038860Y1214120D02*
D03*
Y1262380D02*
D03*
X1087120Y1214120D02*
D03*
X1038860Y1310640D02*
D03*
Y1165860D02*
D03*
Y1117600D02*
D03*
X1087120D02*
D03*
Y1165860D02*
D03*
Y3101340D02*
D03*
Y3053080D02*
D03*
X1038860Y3004820D02*
D03*
Y3053080D02*
D03*
X1087120Y3004820D02*
D03*
X1038860Y3101340D02*
D03*
Y2956560D02*
D03*
Y2908300D02*
D03*
X1087120D02*
D03*
Y2956560D02*
D03*
Y4709160D02*
D03*
Y4660900D02*
D03*
X1038860D02*
D03*
Y4709160D02*
D03*
Y4853940D02*
D03*
X1087120Y4757420D02*
D03*
X1038860Y4805680D02*
D03*
Y4757420D02*
D03*
X1087120Y4805680D02*
D03*
Y4853940D02*
D03*
X2545080Y3774390D02*
D03*
Y3721050D02*
D03*
Y3672790D02*
D03*
X2672080Y3774390D02*
D03*
Y3721050D02*
D03*
Y3672790D02*
D03*
X2545080Y1069340D02*
D03*
Y1018540D02*
D03*
Y965200D02*
D03*
Y911860D02*
D03*
Y863600D02*
D03*
X2672080Y1069340D02*
D03*
Y1018540D02*
D03*
Y965200D02*
D03*
Y911860D02*
D03*
Y863600D02*
D03*
X2545080Y6744300D02*
D03*
Y6690960D02*
D03*
Y6640160D02*
D03*
X2672080Y6744300D02*
D03*
Y6690960D02*
D03*
Y6640160D02*
D03*
X2101154Y6793284D02*
D03*
X2355154D02*
D03*
X1783080Y6744300D02*
D03*
Y6690960D02*
D03*
Y6640160D02*
D03*
Y6586820D02*
D03*
Y6533480D02*
D03*
Y6485220D02*
D03*
X1910080D02*
D03*
Y6533480D02*
D03*
Y6586820D02*
D03*
Y6640160D02*
D03*
Y6690960D02*
D03*
Y6744300D02*
D03*
X8460740Y1654790D02*
D03*
Y1707490D02*
D03*
Y1314790D02*
D03*
Y1367490D02*
D03*
X7236460Y2407920D02*
D03*
Y2153920D02*
D03*
Y2024380D02*
D03*
X7528560Y1742440D02*
D03*
X755787Y1912589D02*
D03*
Y1864329D02*
D03*
X707527D02*
D03*
Y1912589D02*
D03*
Y2057369D02*
D03*
X755787Y1960849D02*
D03*
X707527Y2009109D02*
D03*
Y1960849D02*
D03*
X755787Y2009109D02*
D03*
Y2057369D02*
D03*
Y3703289D02*
D03*
Y3655029D02*
D03*
X707527D02*
D03*
Y3703289D02*
D03*
Y3848069D02*
D03*
X755787Y3751549D02*
D03*
X707527Y3799809D02*
D03*
Y3751549D02*
D03*
X755787Y3799809D02*
D03*
Y3848069D02*
D03*
Y5600669D02*
D03*
Y5552409D02*
D03*
X707527Y5504149D02*
D03*
Y5552409D02*
D03*
X755787Y5504149D02*
D03*
X707527Y5600669D02*
D03*
Y5455889D02*
D03*
Y5407629D02*
D03*
X755787D02*
D03*
Y5455889D02*
D03*
X132080Y1501140D02*
D03*
Y1452880D02*
D03*
X83820Y1404620D02*
D03*
Y1452880D02*
D03*
X132080Y1404620D02*
D03*
X83820Y1501140D02*
D03*
Y1356360D02*
D03*
Y1308100D02*
D03*
X132080D02*
D03*
Y1356360D02*
D03*
Y3291840D02*
D03*
Y3243580D02*
D03*
X83820Y3195320D02*
D03*
Y3243580D02*
D03*
X132080Y3195320D02*
D03*
X83820Y3291840D02*
D03*
Y3147060D02*
D03*
Y3098800D02*
D03*
X132080D02*
D03*
Y3147060D02*
D03*
Y4899660D02*
D03*
Y4851400D02*
D03*
X83820D02*
D03*
Y4899660D02*
D03*
Y5044440D02*
D03*
X132080Y4947920D02*
D03*
X83820Y4996180D02*
D03*
Y4947920D02*
D03*
X132080Y4996180D02*
D03*
Y5044440D02*
D03*
X2146300Y4047932D02*
D03*
X2098040D02*
D03*
X2044700D02*
D03*
X1991360D02*
D03*
X1940560D02*
D03*
X1887220D02*
D03*
X2715756D02*
D03*
X2769096D02*
D03*
X2819896D02*
D03*
X2873236D02*
D03*
X2926576D02*
D03*
X2974836D02*
D03*
Y1356360D02*
D03*
X2926576D02*
D03*
X2873236D02*
D03*
X2819896D02*
D03*
X2769096D02*
D03*
X2715756D02*
D03*
X1887220D02*
D03*
X1940560D02*
D03*
X1991360D02*
D03*
X2044700D02*
D03*
X2098040D02*
D03*
X2146300D02*
D03*
X1783080Y3779470D02*
D03*
Y3726130D02*
D03*
Y3677870D02*
D03*
X1910080D02*
D03*
Y3726130D02*
D03*
Y3779470D02*
D03*
Y3832810D02*
D03*
Y3883610D02*
D03*
Y3936950D02*
D03*
Y1122680D02*
D03*
Y1069340D02*
D03*
Y1018540D02*
D03*
Y965200D02*
D03*
Y911860D02*
D03*
Y863600D02*
D03*
X1783080D02*
D03*
Y911860D02*
D03*
Y965200D02*
D03*
Y1018540D02*
D03*
Y1069340D02*
D03*
Y1122680D02*
D03*
X579120Y5890260D02*
D03*
X530860D02*
D03*
X485140D02*
D03*
X439420D02*
D03*
X391160D02*
D03*
X345440D02*
D03*
X299720D02*
D03*
X251460D02*
D03*
X203200D02*
D03*
X627380D02*
D03*
X1579625Y5950965D02*
D03*
X1653285Y6029705D02*
D03*
X1546605Y6136385D02*
D03*
X1470405Y6060185D02*
D03*
X1148080Y5737860D02*
D03*
X1254760Y5631180D02*
D03*
X1181100Y5552440D02*
D03*
X1071880Y5661660D02*
D03*
X3977640Y7269480D02*
D03*
X1685163Y7105778D02*
D03*
X1578483Y6999098D02*
D03*
X1608963Y7181978D02*
D03*
X1977263Y7405498D02*
D03*
X1870583Y7298818D02*
D03*
X1791843Y7372478D02*
D03*
X1901063Y7481698D02*
D03*
X1715643Y6884798D02*
D03*
X1608963Y6778118D02*
D03*
X1530223Y6851778D02*
D03*
X1639443Y6960998D02*
D03*
X1891158Y6938137D02*
D03*
X1784478Y7044817D02*
D03*
X1858138Y7123557D02*
D03*
X1967358Y7014337D02*
D03*
X1517777Y7395082D02*
D03*
X1703197Y7428102D02*
D03*
X1593977Y7318882D02*
D03*
X3078480Y5986780D02*
D03*
Y5946140D02*
D03*
Y6027420D02*
D03*
X7663180Y881380D02*
D03*
X7612380D02*
D03*
X4736432Y6839552D02*
D03*
X4699168Y6802288D02*
D03*
X5463758Y6644716D02*
D03*
X5359876Y6487676D02*
D03*
X5097780Y6428740D02*
D03*
X7993526Y5521325D02*
D03*
X7977697Y5606100D02*
D03*
X7762240Y4704080D02*
D03*
X8460740Y5545430D02*
D03*
Y5492730D02*
D03*
Y3562330D02*
D03*
Y3615030D02*
D03*
X2549168Y3454400D02*
D03*
X2546628Y3352800D02*
D03*
Y3251200D02*
D03*
X1720633Y3454400D02*
D03*
X1718093Y3352800D02*
D03*
Y3251200D02*
D03*
X3377704Y3454400D02*
D03*
X3375164Y3352800D02*
D03*
Y3251200D02*
D03*
X4203700D02*
D03*
Y3352800D02*
D03*
X4206240Y3454400D02*
D03*
X4898311Y830229D02*
D03*
X4894116Y3642824D02*
D03*
X4252433Y6398733D02*
D03*
X4213860Y6360160D02*
D03*
X7681544Y4813300D02*
D03*
X7646477Y4758580D02*
D03*
X7639575Y2821866D02*
D03*
X7683324Y2879615D02*
D03*
X7716520Y4909820D02*
D03*
X7660640D02*
D03*
X7507137Y3589020D02*
D03*
X7551793Y3588558D02*
D03*
X7548880Y5527040D02*
D03*
X7601419Y5526107D02*
D03*
X7612380Y5321300D02*
D03*
X8742680Y7352660D02*
D03*
Y7299960D02*
D03*
X8740140Y7411720D02*
D03*
Y7244080D02*
D03*
X5072380Y6662420D02*
D03*
X5207000Y6631940D02*
D03*
X5199380Y6735130D02*
D03*
X5341620Y6713220D02*
D03*
X5290820Y6593840D02*
D03*
X4968240Y6731000D02*
D03*
X8364220Y7035800D02*
D03*
X8401485Y6998535D02*
D03*
X8830745Y6797875D02*
D03*
X8793480Y6835140D02*
D03*
X8338820Y6804660D02*
D03*
X8376085Y6841925D02*
D03*
X6087374Y7238983D02*
D03*
X8354060Y7292340D02*
D03*
X8303260D02*
D03*
X8187796Y7291695D02*
D03*
X8212068Y6560337D02*
D03*
X7914640Y6563360D02*
D03*
X7960360D02*
D03*
X7610460Y1479976D02*
D03*
X7604760Y3393440D02*
D03*
X4639793Y6098957D02*
D03*
X8750300Y6902770D02*
D03*
X8465820Y6955483D02*
D03*
X4461904Y6869824D02*
D03*
X8750300Y6955470D02*
D03*
X8465820Y6902783D02*
D03*
X4499169Y6907089D02*
D03*
X5902960Y6918960D02*
D03*
X5255260Y6885940D02*
D03*
X5791200Y6814820D02*
D03*
X5933440Y6832600D02*
D03*
X8886989Y6774180D02*
D03*
X8832883Y6889880D02*
D03*
X8318728Y6748780D02*
D03*
X8326120Y7084060D02*
D03*
X8379460Y6896100D02*
D03*
X8413002Y6947109D02*
D03*
X4480625Y7228322D02*
D03*
X4404942Y7154178D02*
D03*
X8427637Y3316036D02*
D03*
X6155273Y7171085D02*
D03*
X6121039Y7349429D02*
D03*
X7886700Y1760220D02*
D03*
X111760Y7241540D02*
D03*
X8224840Y5592946D02*
D03*
X8221980Y5715000D02*
D03*
X8101980D02*
D03*
X7945120Y6240780D02*
D03*
X7950200Y6116320D02*
D03*
X7421880Y5989320D02*
D03*
X7513320Y5859780D02*
D03*
X8304840Y5592945D02*
D03*
X8877300Y746760D02*
D03*
X8798380Y838380D02*
D03*
X8545380Y956760D02*
D03*
X8628380Y1046480D02*
D03*
X8128000Y1430020D02*
D03*
X8242557Y1440061D02*
D03*
X8341360Y1445260D02*
D03*
X8376920Y1595120D02*
D03*
X8255000Y1597660D02*
D03*
X8115300Y1607820D02*
D03*
X8120380Y3309620D02*
D03*
X8321040Y3302000D02*
D03*
X8252460Y3429000D02*
D03*
X8310880Y3502660D02*
D03*
X8199120Y3515360D02*
D03*
X8094980Y3533140D02*
D03*
X8105140Y5204460D02*
D03*
X8161020Y5367020D02*
D03*
X8384977Y5412929D02*
D03*
X8310880Y5466080D02*
D03*
X8318500Y5275580D02*
D03*
X5029200Y6507480D02*
D03*
X5082540Y7045960D02*
D03*
X4841240Y6685280D02*
D03*
X1236980Y6080760D02*
D03*
X5682480Y6693487D02*
D03*
X5742940Y6692900D02*
D03*
X8460740Y3222330D02*
D03*
Y3275030D02*
D03*
X4627880Y7167880D02*
D03*
X4147536Y7479473D02*
D03*
X4074240Y7393940D02*
D03*
X4332986Y7436398D02*
D03*
X4244240Y7139940D02*
D03*
X4587240Y7056120D02*
D03*
X4334458Y7068945D02*
D03*
X4259061Y6990532D02*
D03*
X5531015Y6142381D02*
D03*
X5639805Y6226617D02*
D03*
X5717589Y6318064D02*
D03*
X5806742Y6390757D02*
D03*
X5897268Y7073814D02*
D03*
X5368272Y7404082D02*
D03*
X5500412Y7354756D02*
D03*
X5619097Y7148177D02*
D03*
X5578628Y7277195D02*
D03*
X5213260Y7501980D02*
D03*
X4892040Y7457440D02*
D03*
X4861560Y7350760D02*
D03*
X4532040Y7413580D02*
D03*
X5988482Y7155724D02*
D03*
X4805091Y6958924D02*
D03*
X4803140Y6906260D02*
D03*
X4838810Y7005354D02*
D03*
X4744604Y6895768D02*
D03*
X8465856Y6847997D02*
D03*
X8750300Y7008170D02*
D03*
X8547100Y5971540D02*
D03*
X8336280D02*
D03*
X8442960D02*
D03*
X8608060Y7054113D02*
D03*
Y6804127D02*
D03*
X8460740Y5152730D02*
D03*
Y5205430D02*
D03*
X7769860Y5580380D02*
D03*
X7772400Y5321300D02*
D03*
X7739380Y5257800D02*
D03*
X8303260Y5717540D02*
D03*
X8276040Y5838551D02*
D03*
X7975600Y5839460D02*
D03*
X7703820Y2989580D02*
D03*
X7764780Y2992120D02*
D03*
X7780020Y1076960D02*
D03*
X7724140D02*
D03*
X7508240Y6243320D02*
D03*
X8723620Y4584700D02*
D03*
X8798615Y4678680D02*
D03*
X8542840Y4794700D02*
D03*
X8700320D02*
D03*
X7713496Y4747434D02*
D03*
X8125460Y4048760D02*
D03*
X8227060D02*
D03*
X8547100D02*
D03*
X8440420D02*
D03*
X8336280D02*
D03*
X8887460Y3634740D02*
D03*
X8884920Y3528060D02*
D03*
X8882380Y3098800D02*
D03*
Y3208020D02*
D03*
X8703140Y2864300D02*
D03*
X8542840D02*
D03*
X8798380Y2740840D02*
D03*
X8723620Y2654300D02*
D03*
X7991811Y3588227D02*
D03*
X7712880Y2818300D02*
D03*
X8112760Y2242820D02*
D03*
X8122920Y2141220D02*
D03*
X8229600D02*
D03*
X8336280D02*
D03*
X8442960D02*
D03*
X8549640D02*
D03*
X8279353Y2039619D02*
D03*
X8233040Y1898357D02*
D03*
X7866380Y3070860D02*
D03*
X7835900Y1733144D02*
D03*
X7807960Y1440180D02*
D03*
X7739384Y1425660D02*
D03*
X8062680Y1999698D02*
D03*
X7876540Y1137920D02*
D03*
Y1363980D02*
D03*
X7876098Y1269595D02*
D03*
X7863657Y3269000D02*
D03*
X8303260Y1054100D02*
D03*
X8185000Y1056640D02*
D03*
X8745220Y1145540D02*
D03*
Y1252220D02*
D03*
X8744804Y1574080D02*
D03*
X8625840Y1681480D02*
D03*
X8489400Y1999702D02*
D03*
X8308340Y1910080D02*
D03*
X8135967Y1940560D02*
D03*
X7528129Y1688636D02*
D03*
X8181340Y2959100D02*
D03*
X8304680Y2963060D02*
D03*
X7866380Y3185160D02*
D03*
X7786540Y3276600D02*
D03*
X8114582Y4157262D02*
D03*
X8425303Y1264097D02*
D03*
X8425180Y1414780D02*
D03*
X8425303Y3171637D02*
D03*
X8745220Y3050540D02*
D03*
Y3159760D02*
D03*
X8746282Y3483098D02*
D03*
X8626712Y3588680D02*
D03*
X8336280Y3827780D02*
D03*
X8276040Y3907242D02*
D03*
X8489027D02*
D03*
X8062680Y3907238D02*
D03*
X8064365Y1868965D02*
D03*
X7937500Y2275840D02*
D03*
Y2405380D02*
D03*
X8101980Y3813400D02*
D03*
X8233392Y3808320D02*
D03*
X8187700Y3782060D02*
D03*
X7874000Y5006340D02*
D03*
X7875425Y5110480D02*
D03*
X8183880Y4899660D02*
D03*
X8305800Y4897120D02*
D03*
X8742444Y5184860D02*
D03*
X8742680Y5080000D02*
D03*
Y5412020D02*
D03*
X8613140Y5524500D02*
D03*
X8489400Y5837642D02*
D03*
X8950960Y1374140D02*
D03*
Y1546860D02*
D03*
Y3454400D02*
D03*
Y3281680D02*
D03*
Y5212080D02*
D03*
Y5384800D02*
D03*
X8425180Y5252720D02*
D03*
X8425303Y5102037D02*
D03*
X8305800Y4699000D02*
D03*
X8188960D02*
D03*
X7586980Y5580380D02*
D03*
X7599680Y5471160D02*
D03*
X7594600Y1633220D02*
D03*
X7762240Y871220D02*
D03*
X8188960Y863600D02*
D03*
X8306367Y865574D02*
D03*
X8435340Y701040D02*
D03*
X8486140Y1038860D02*
D03*
X8887460Y1193800D02*
D03*
X8872220Y1300480D02*
D03*
X8879840Y1620520D02*
D03*
X8884920Y1727200D02*
D03*
X8446222Y2609302D02*
D03*
X8486140Y2880360D02*
D03*
X8306367Y2770574D02*
D03*
X8188960Y2786380D02*
D03*
X7762240Y2778760D02*
D03*
X7709620Y3398520D02*
D03*
X7586980Y3545840D02*
D03*
X7585470Y3646114D02*
D03*
X7434580Y4310380D02*
D03*
X8187860Y1871227D02*
D03*
X8063890Y3776980D02*
D03*
X7934960Y4163060D02*
D03*
X7929880Y4302760D02*
D03*
X7447280Y3931920D02*
D03*
X7442200Y4058920D02*
D03*
X8887460Y5565140D02*
D03*
X8879840Y5458460D02*
D03*
X8887460Y5024120D02*
D03*
X8890000Y5133340D02*
D03*
X8422640Y4533900D02*
D03*
X8440420Y4836160D02*
D03*
X8008620Y5199380D02*
D03*
%TF.MD5,78efb5270e55c678559603f26788d8ba*%
M02*
