%TF.GenerationSoftware,Altium Limited,Altium Designer,24.0.1 (36)*%
G04 Layer_Color=16711935*
%FSLAX45Y45*%
%MOMM*%
%TF.SameCoordinates,AAE7DA4B-5550-4C39-BD6C-8ACC05BC0005*%
%TF.FilePolarity,Positive*%
%TF.FileFunction,Other,Mechanical_1*%
%TF.Part,Single*%
G01*
G75*
%TA.AperFunction,NonConductor*%
%ADD144C,0.01270*%
%ADD145C,0.00508*%
D144*
X1300635Y1697000D02*
G03*
X1600635Y1397000I299939J-61D01*
G01*
X6700635D02*
G03*
X7000635Y1697000I232J299768D01*
G01*
Y2798000D02*
G03*
X6700635Y3098000I-299768J232D01*
G01*
X1600635D02*
G03*
X1300635Y2798000I-61J-299939D01*
G01*
X6700635Y4211200D02*
G03*
X7000635Y4511200I61J299939D01*
G01*
Y5612300D02*
G03*
X6700635Y5912300I-299939J61D01*
G01*
X1600635D02*
G03*
X1300635Y5612300I109J-300109D01*
G01*
Y4511200D02*
G03*
X1600635Y4211200I300109J109D01*
G01*
X300635Y7552300D02*
G03*
X635Y7252300I-61J-299939D01*
G01*
X8700635Y512300D02*
G03*
X9000635Y812300I61J299939D01*
G01*
Y7252300D02*
G03*
X8700635Y7552300I-299768J232D01*
G01*
X635Y812300D02*
G03*
X300635Y512300I300109J109D01*
G01*
X1600635Y1397000D02*
X6700635D01*
X7000635Y1697000D02*
Y2798000D01*
X1600635Y3098000D02*
X6700635D01*
X1300635Y1697000D02*
Y2798000D01*
X1600635Y4211200D02*
X6700635D01*
X7000635Y4511200D02*
Y5612300D01*
X1600635Y5912300D02*
X6700635D01*
X1300635Y4511200D02*
Y5612300D01*
X300635Y512300D02*
X8700635D01*
X300635Y7552300D02*
X8700635D01*
X9000635Y7252300D02*
X9000635Y812300D01*
X635Y7252300D02*
X635Y812300D01*
D145*
X8641073Y7304126D02*
G03*
X8641073Y7304126I-33000J0D01*
G01*
X8608065Y6504703D02*
G03*
X8637059Y6532121I-0J29040D01*
G01*
X8637070Y6573520D02*
G03*
X8608070Y6602311I-28999J-209D01*
G01*
D02*
G03*
X8579071Y6573520I0J-29000D01*
G01*
X8579061Y6532298D02*
G03*
X8608065Y6504703I29004J1444D01*
G01*
X8637059Y6532121D02*
X8637070Y6573520D01*
X8579061Y6532298D02*
X8579071Y6573520D01*
%TF.MD5,0f0da31536b51a0ce75c7c6efeccd6df*%
M02*
