%TF.GenerationSoftware,Altium Limited,Altium Designer,24.0.1 (36)*%
G04 Layer_Physical_Order=3*
G04 Layer_Color=16440176*
%FSLAX45Y45*%
%MOMM*%
%TF.SameCoordinates,AAE7DA4B-5550-4C39-BD6C-8ACC05BC0005*%
%TF.FilePolarity,Positive*%
%TF.FileFunction,Copper,L3,Inr,Signal*%
%TF.Part,Single*%
G01*
G75*
%TA.AperFunction,Conductor*%
%ADD10C,0.12954*%
%ADD12C,0.15240*%
%ADD13C,0.25400*%
%ADD14C,0.20320*%
%ADD15C,0.12700*%
%TA.AperFunction,ComponentPad*%
%ADD52C,2.99974*%
%ADD53C,1.19888*%
%ADD54R,1.80000X4.50000*%
%ADD55R,1.80000X4.00000*%
%ADD56R,5.00000X2.60000*%
%ADD57C,1.30000*%
%ADD58C,1.00000*%
%TA.AperFunction,ViaPad*%
%ADD59C,0.40000*%
G36*
X4427220Y7426960D02*
Y7203440D01*
X4490720Y7139940D01*
X4616522D01*
X4621881Y7137720D01*
X4633879D01*
X4639239Y7139940D01*
X4699000D01*
X4876800Y7317740D01*
X5389880D01*
X5603240Y7104380D01*
Y6438899D01*
X5610678Y6431462D01*
Y6416170D01*
X5392108Y6197600D01*
X4683760D01*
X4442461Y6438899D01*
X4428656D01*
X4427666Y6439309D01*
X4110974D01*
X4109984Y6438899D01*
X4109555D01*
X4108659Y6439063D01*
X4108423Y6438899D01*
X4039897D01*
X4039661Y6439063D01*
X4038765Y6438899D01*
X4038336D01*
X4037346Y6439309D01*
X3086095D01*
X3085105Y6438899D01*
X3083495D01*
X3081504Y6443706D01*
X3073020Y6452191D01*
X3063989Y6455931D01*
X2984500Y6535420D01*
Y6763329D01*
X2997201Y6771279D01*
X3001361Y6769556D01*
X3013359D01*
X3024444Y6774147D01*
X3032928Y6782632D01*
X3037520Y6793717D01*
Y6805715D01*
X3032928Y6816800D01*
X3024444Y6825284D01*
X3013359Y6829876D01*
X3001361D01*
X2997201Y6828152D01*
X2984500Y6836102D01*
Y6908684D01*
X2988247Y6917731D01*
Y6929729D01*
X2984500Y6938775D01*
Y7472680D01*
X3030220Y7518400D01*
X4129514D01*
X4132040Y7505700D01*
X4130451Y7505042D01*
X4121967Y7496558D01*
X4117376Y7485473D01*
Y7473474D01*
X4121967Y7462389D01*
X4130451Y7453905D01*
X4141536Y7449314D01*
X4153535D01*
X4164620Y7453905D01*
X4173104Y7462389D01*
X4177695Y7473474D01*
Y7485473D01*
X4173104Y7496558D01*
X4164620Y7505042D01*
X4163031Y7505700D01*
X4165557Y7518400D01*
X4335780D01*
X4427220Y7426960D01*
D02*
G37*
G36*
X300635Y7540616D02*
X3024117D01*
X3026643Y7527916D01*
X3022444Y7526176D01*
X2976724Y7480456D01*
X2973503Y7472680D01*
Y6938775D01*
X2974340Y6936754D01*
Y6934567D01*
X2977250Y6927542D01*
Y6919918D01*
X2974340Y6912893D01*
Y6910706D01*
X2973503Y6908684D01*
Y6838751D01*
X2966059Y6831372D01*
X2964260Y6830229D01*
X2962700Y6829479D01*
X2962062Y6829743D01*
X2950064D01*
X2938979Y6825152D01*
X2930495Y6816668D01*
X2925903Y6805583D01*
Y6793584D01*
X2930495Y6782499D01*
X2938979Y6774015D01*
X2950064Y6769423D01*
X2962062D01*
X2962477Y6769595D01*
X2966294Y6767426D01*
X2973503Y6760416D01*
Y6552652D01*
X2960803Y6547392D01*
X2671124Y6837071D01*
X2665243Y6841001D01*
X2658305Y6842381D01*
X2657930D01*
X2657009Y6844604D01*
X2648525Y6853088D01*
X2637439Y6857680D01*
X2625441D01*
X2614356Y6853088D01*
X2605872Y6844604D01*
X2601280Y6833519D01*
Y6821521D01*
X2605872Y6810436D01*
X2614356Y6801952D01*
X2625441Y6797360D01*
X2637439D01*
X2648525Y6801952D01*
X2651747Y6805174D01*
X3025776Y6431145D01*
Y6420623D01*
X3030367Y6409538D01*
X3038851Y6401054D01*
X3039295Y6398822D01*
X2984344Y6343870D01*
X2981123Y6336094D01*
Y6086441D01*
X2888261D01*
X2887989Y6086387D01*
X2860670Y6089983D01*
X2834960Y6100633D01*
X2813147Y6117371D01*
X2813015Y6117568D01*
X2812973Y6117596D01*
X2812945Y6117637D01*
X2812714Y6117791D01*
X2795940Y6139652D01*
X2785290Y6165363D01*
X2781694Y6192682D01*
X2781748Y6192954D01*
Y6399770D01*
X2782313D01*
X2778271Y6440802D01*
X2766303Y6480257D01*
X2746867Y6516619D01*
X2720711Y6548491D01*
X2688839Y6574647D01*
X2652477Y6594083D01*
X2613022Y6606051D01*
X2571990Y6610093D01*
Y6609528D01*
X430330D01*
X429355Y6609334D01*
X385268Y6613676D01*
X341937Y6626820D01*
X302003Y6648165D01*
X267758Y6676270D01*
X267206Y6677096D01*
X202636Y6741666D01*
X201810Y6742218D01*
X173705Y6776463D01*
X152360Y6816397D01*
X139216Y6859728D01*
X134874Y6903815D01*
X135068Y6904790D01*
Y7222195D01*
X137328Y7224456D01*
X141920Y7235541D01*
Y7247539D01*
X137328Y7258624D01*
X128844Y7267108D01*
X117759Y7271700D01*
X105761D01*
X94676Y7267108D01*
X86192Y7258624D01*
X81600Y7247539D01*
Y7235541D01*
X86192Y7224456D01*
X88452Y7222195D01*
Y6904790D01*
X88044D01*
X91463Y6861346D01*
X101636Y6818971D01*
X118313Y6778710D01*
X141083Y6741553D01*
X169385Y6708416D01*
X169674Y6708704D01*
X234244Y6644134D01*
X233956Y6643845D01*
X267093Y6615543D01*
X304250Y6592773D01*
X344511Y6576096D01*
X386886Y6565923D01*
X430330Y6562504D01*
Y6562912D01*
X2516394D01*
X2524793Y6550212D01*
X2523388Y6546819D01*
Y6534821D01*
X2527979Y6523736D01*
X2536464Y6515252D01*
X2547549Y6510660D01*
X2559547D01*
X2570632Y6515252D01*
X2579116Y6523736D01*
X2583708Y6534821D01*
Y6546819D01*
X2582784Y6549051D01*
X2591604Y6560943D01*
X2603810Y6559741D01*
X2634408Y6550460D01*
X2662607Y6535387D01*
X2687323Y6515103D01*
X2707607Y6490387D01*
X2722680Y6462188D01*
X2731961Y6431590D01*
X2735095Y6399770D01*
X2735132D01*
Y6192954D01*
X2734841D01*
X2737789Y6163023D01*
X2746520Y6134243D01*
X2760697Y6107718D01*
X2779777Y6084469D01*
X2779777Y6084470D01*
X2803026Y6065390D01*
X2829550Y6051213D01*
X2858330Y6042482D01*
X2888261Y6039534D01*
Y6039825D01*
X2981123D01*
Y5986780D01*
X2984344Y5979004D01*
X3026663Y5936685D01*
X3026272Y5932605D01*
X3022920Y5923985D01*
X2555071D01*
X2550210Y5935718D01*
X2551972Y5937479D01*
X2552191Y5938009D01*
X2552696Y5938279D01*
X2553773Y5941828D01*
X2555193Y5945255D01*
X2554973Y5945785D01*
X2555140Y5946333D01*
X2554565Y5952164D01*
X2553554Y5954057D01*
X2553360Y5956194D01*
X2547438Y5967487D01*
X2546128Y5968580D01*
X2545475Y5970156D01*
X2543018Y5971174D01*
X2540975Y5972878D01*
X2539275Y5972724D01*
X2537699Y5973377D01*
X2527888D01*
X2520845Y5976294D01*
X2515454Y5981685D01*
X2512537Y5988728D01*
Y5996352D01*
X2515454Y6003395D01*
X2520845Y6008786D01*
X2527888Y6011703D01*
X2535511D01*
X2535791Y6011587D01*
X2536918D01*
X2537854Y6010961D01*
X2541000Y6011587D01*
X2544208D01*
X2545005Y6012383D01*
X2546109Y6012603D01*
X2558810Y6021089D01*
X2559435Y6022026D01*
X2560476Y6022457D01*
X2561704Y6025421D01*
X2563486Y6028088D01*
X2563266Y6029192D01*
X2563697Y6030233D01*
Y6459220D01*
X2560476Y6466996D01*
X2499516Y6527956D01*
X2491740Y6531177D01*
X2444306D01*
X2442669Y6530499D01*
X2440902Y6530637D01*
X2438929Y6528950D01*
X2436530Y6527956D01*
X2435852Y6526319D01*
X2434505Y6525167D01*
X2428043Y6512467D01*
X2428008Y6512012D01*
X2427684Y6511688D01*
Y6507874D01*
X2427388Y6504075D01*
X2427685Y6503728D01*
Y6503271D01*
X2429623Y6498592D01*
Y6490968D01*
X2426706Y6483925D01*
X2421315Y6478534D01*
X2414272Y6475617D01*
X2406648D01*
X2399605Y6478534D01*
X2394214Y6483925D01*
X2391297Y6490968D01*
Y6498592D01*
X2393235Y6503271D01*
Y6503728D01*
X2393532Y6504075D01*
X2393235Y6507877D01*
Y6511688D01*
X2392913Y6512011D01*
X2392877Y6512467D01*
X2386415Y6525167D01*
X2385068Y6526318D01*
X2384390Y6527956D01*
X2381991Y6528950D01*
X2380018Y6530637D01*
X2378251Y6530499D01*
X2376614Y6531177D01*
X2187766D01*
X2186129Y6530499D01*
X2184362Y6530637D01*
X2182389Y6528950D01*
X2179990Y6527956D01*
X2179312Y6526319D01*
X2177965Y6525167D01*
X2171503Y6512467D01*
X2171468Y6512012D01*
X2171144Y6511688D01*
Y6507874D01*
X2170848Y6504075D01*
X2171145Y6503728D01*
Y6503271D01*
X2173083Y6498592D01*
Y6490968D01*
X2170166Y6483925D01*
X2164775Y6478534D01*
X2157732Y6475617D01*
X2150108D01*
X2143065Y6478534D01*
X2137674Y6483925D01*
X2134757Y6490968D01*
Y6498592D01*
X2136695Y6503271D01*
Y6503728D01*
X2136992Y6504075D01*
X2136695Y6507877D01*
Y6511688D01*
X2136373Y6512011D01*
X2136337Y6512467D01*
X2129875Y6525167D01*
X2128528Y6526318D01*
X2127850Y6527956D01*
X2125451Y6528950D01*
X2123478Y6530637D01*
X2121711Y6530499D01*
X2120074Y6531177D01*
X1968500D01*
X1960724Y6527956D01*
X1888976Y6456208D01*
X1883147Y6457335D01*
X1875454Y6460647D01*
X1871684Y6469748D01*
X1863200Y6478232D01*
X1852115Y6482824D01*
X1840117D01*
X1829032Y6478232D01*
X1820548Y6469748D01*
X1815956Y6458663D01*
Y6446665D01*
X1820548Y6435580D01*
X1829032Y6427096D01*
X1838133Y6423326D01*
X1841445Y6415633D01*
X1842572Y6409804D01*
X1781065Y6348297D01*
X952500D01*
X944724Y6345076D01*
X680564Y6080916D01*
X677343Y6073140D01*
Y1715774D01*
X669843Y1708520D01*
X666399Y1706560D01*
X654401D01*
X643316Y1701968D01*
X634832Y1693484D01*
X630240Y1682399D01*
Y1670401D01*
X634832Y1659316D01*
X643147Y1651000D01*
X634832Y1642684D01*
X630240Y1631599D01*
Y1619601D01*
X634832Y1608516D01*
X643147Y1600200D01*
X634832Y1591884D01*
X630240Y1580799D01*
Y1568801D01*
X634832Y1557716D01*
X643316Y1549232D01*
X654401Y1544640D01*
X666399D01*
X669843Y1542680D01*
X677343Y1535426D01*
Y1229360D01*
X680564Y1221584D01*
X1163164Y738984D01*
X1170940Y735763D01*
X1694500D01*
X1702276Y738984D01*
X1705497Y746760D01*
Y755652D01*
X1708414Y762695D01*
X1713805Y768086D01*
X1720848Y771003D01*
X1728472D01*
X1735515Y768086D01*
X1740906Y762695D01*
X1743823Y755652D01*
Y746760D01*
X1747044Y738984D01*
X1754820Y735763D01*
X2523036D01*
X2530812Y738984D01*
X2534033Y746760D01*
Y755652D01*
X2536950Y762695D01*
X2542341Y768086D01*
X2549384Y771003D01*
X2557008D01*
X2564050Y768086D01*
X2569441Y762695D01*
X2572359Y755652D01*
Y746760D01*
X2575580Y738984D01*
X2583356Y735763D01*
X2750820D01*
X2758596Y738984D01*
X2829716Y810104D01*
X2832937Y817880D01*
X2832937Y1328420D01*
X2829716Y1336196D01*
X2792330Y1373582D01*
X2797190Y1385315D01*
X6700625D01*
X6700626Y1385263D01*
X6700867Y1385244D01*
X6709897Y1385955D01*
X6720298D01*
X6721000Y1386246D01*
X6721734Y1386049D01*
X6737554Y1388132D01*
X6749600Y1389080D01*
X6755482Y1390492D01*
X6760723Y1391182D01*
X6761381Y1391562D01*
X6762134Y1391463D01*
X6784607Y1397485D01*
X6797133Y1400492D01*
X6799520Y1401481D01*
X6800120Y1401641D01*
X6800369Y1401832D01*
X6801025Y1402104D01*
X6801482D01*
X6837815Y1417153D01*
X6838138Y1417476D01*
X6838795Y1417748D01*
X6839105Y1417789D01*
X6839642Y1418099D01*
X6842296Y1419199D01*
X6854512Y1426684D01*
X6873162Y1437453D01*
X6873625Y1438055D01*
X6874358Y1438252D01*
X6878208Y1441206D01*
X6883976Y1444740D01*
X6894248Y1453514D01*
X6905558Y1462192D01*
X6905937Y1462849D01*
X6906639Y1463140D01*
X6913194Y1469695D01*
X6921147Y1476488D01*
X6927940Y1484441D01*
X6934447Y1490948D01*
X6934738Y1491650D01*
X6935396Y1492030D01*
X6944012Y1503258D01*
X6952895Y1513659D01*
X6956474Y1519499D01*
X6959336Y1523229D01*
X6959532Y1523963D01*
X6960135Y1524425D01*
X6970600Y1542551D01*
X6978437Y1555340D01*
X6979588Y1558118D01*
X6979798Y1558482D01*
X6982328Y1559599D01*
X6995028Y1551323D01*
Y705415D01*
X6998249Y697638D01*
X7160170Y535718D01*
X7155310Y523984D01*
X300635D01*
X299618Y523563D01*
X255545Y527031D01*
X211459Y537616D01*
X169571Y554966D01*
X130913Y578656D01*
X96436Y608101D01*
X66991Y642578D01*
X43301Y681236D01*
X25951Y723124D01*
X15366Y767210D01*
X11898Y811282D01*
X12320Y812300D01*
Y7252300D01*
X11898Y7253317D01*
X15366Y7297390D01*
X25951Y7341476D01*
X43301Y7383364D01*
X66991Y7422022D01*
X96436Y7456498D01*
X130913Y7485944D01*
X169571Y7509634D01*
X211459Y7526984D01*
X255545Y7537568D01*
X299618Y7541037D01*
X300635Y7540616D01*
D02*
G37*
G36*
X8746013Y7537572D02*
X8790047Y7527000D01*
X8831885Y7509670D01*
X8870497Y7486008D01*
X8904933Y7456598D01*
X8934343Y7422162D01*
X8958005Y7383550D01*
X8975335Y7341712D01*
X8985907Y7297678D01*
X8989394Y7253370D01*
X8988951Y7252300D01*
Y5405082D01*
X8977795Y5402210D01*
X8976251Y5402162D01*
X8968045Y5410368D01*
X8956959Y5414960D01*
X8944961D01*
X8933876Y5410368D01*
X8925392Y5401884D01*
X8920800Y5390799D01*
Y5378801D01*
X8925392Y5367716D01*
X8926424Y5366683D01*
X8926319Y5366188D01*
X8920197Y5354950D01*
X8911941D01*
X8900856Y5350358D01*
X8892372Y5341874D01*
X8887780Y5330789D01*
Y5318791D01*
X8892372Y5307706D01*
X8893341Y5306737D01*
X8900209Y5298440D01*
X8893341Y5290143D01*
X8892372Y5289174D01*
X8887780Y5278089D01*
Y5266091D01*
X8892372Y5255006D01*
X8900856Y5246522D01*
X8911941Y5241930D01*
X8920197D01*
X8926319Y5230692D01*
X8926424Y5230197D01*
X8925392Y5229164D01*
X8920800Y5218079D01*
Y5206081D01*
X8925392Y5194996D01*
X8933876Y5186512D01*
X8944961Y5181920D01*
X8956959D01*
X8968045Y5186512D01*
X8976251Y5194718D01*
X8977795Y5194670D01*
X8988951Y5191798D01*
Y3474682D01*
X8977795Y3471810D01*
X8976251Y3471762D01*
X8968045Y3479968D01*
X8956959Y3484560D01*
X8944961D01*
X8933876Y3479968D01*
X8925392Y3471484D01*
X8920800Y3460399D01*
Y3448401D01*
X8925392Y3437316D01*
X8926424Y3436283D01*
X8926319Y3435788D01*
X8920197Y3424550D01*
X8911941D01*
X8900856Y3419958D01*
X8892372Y3411474D01*
X8887780Y3400389D01*
Y3388391D01*
X8892372Y3377306D01*
X8893341Y3376337D01*
X8900209Y3368040D01*
X8893341Y3359743D01*
X8892372Y3358774D01*
X8887780Y3347689D01*
Y3335691D01*
X8892372Y3324606D01*
X8900856Y3316122D01*
X8911941Y3311530D01*
X8920197D01*
X8926319Y3300292D01*
X8926424Y3299797D01*
X8925392Y3298764D01*
X8920800Y3287679D01*
Y3275681D01*
X8925392Y3264596D01*
X8933876Y3256112D01*
X8944961Y3251520D01*
X8956959D01*
X8968045Y3256112D01*
X8976251Y3264318D01*
X8977795Y3264270D01*
X8988951Y3261398D01*
Y1567142D01*
X8977795Y1564270D01*
X8976251Y1564222D01*
X8968045Y1572428D01*
X8956959Y1577020D01*
X8944961D01*
X8933876Y1572428D01*
X8925392Y1563944D01*
X8920800Y1552859D01*
Y1540861D01*
X8925392Y1529776D01*
X8926424Y1528743D01*
X8926319Y1528248D01*
X8920197Y1517010D01*
X8911941D01*
X8900856Y1512418D01*
X8892372Y1503934D01*
X8887780Y1492849D01*
Y1480851D01*
X8892372Y1469766D01*
X8893341Y1468797D01*
X8900209Y1460500D01*
X8893341Y1452203D01*
X8892372Y1451234D01*
X8887780Y1440149D01*
Y1428151D01*
X8892372Y1417066D01*
X8900856Y1408582D01*
X8911941Y1403990D01*
X8920197D01*
X8926319Y1392752D01*
X8926424Y1392257D01*
X8925392Y1391224D01*
X8920800Y1380139D01*
Y1368141D01*
X8925392Y1357056D01*
X8933876Y1348572D01*
X8944961Y1343980D01*
X8956959D01*
X8968045Y1348572D01*
X8976251Y1356778D01*
X8977795Y1356730D01*
X8988951Y1353858D01*
Y812300D01*
X8989394Y811230D01*
X8985907Y766922D01*
X8975335Y722888D01*
X8958005Y681050D01*
X8934343Y642438D01*
X8904933Y608002D01*
X8870497Y578592D01*
X8831885Y554930D01*
X8790047Y537600D01*
X8746013Y527028D01*
X8701705Y523541D01*
X8700635Y523984D01*
X7187456D01*
X7006025Y705415D01*
Y1635084D01*
X7006124Y1635453D01*
X7006025Y1636206D01*
X7006405Y1636864D01*
X7007051Y1641770D01*
X7008555Y1648035D01*
X7009565Y1660866D01*
X7011538Y1675854D01*
X7011342Y1676587D01*
X7011632Y1677289D01*
Y1687131D01*
X7012391Y1696768D01*
X7012372Y1697010D01*
X7012319Y1697010D01*
Y2797990D01*
X7012372Y2797991D01*
X7012391Y2798232D01*
X7011632Y2807869D01*
Y2817693D01*
X7011342Y2818394D01*
X7011538Y2819128D01*
X7009569Y2834089D01*
X7008555Y2846965D01*
X7007045Y2853253D01*
X7006405Y2858118D01*
X7006025Y2858775D01*
X7006124Y2859529D01*
X7006025Y2859898D01*
Y4449354D01*
X7006124Y4449723D01*
X7006025Y4450476D01*
X7006405Y4451134D01*
X7007074Y4456218D01*
X7008553Y4462379D01*
X7009546Y4474993D01*
X7011538Y4490124D01*
X7011342Y4490858D01*
X7011632Y4491559D01*
Y4498787D01*
X7011634Y4498814D01*
X7012350Y4510618D01*
X7012392Y4511139D01*
X7012386Y4511203D01*
X7012319Y4523875D01*
Y5599625D01*
X7012386Y5612297D01*
X7012392Y5612361D01*
X7012350Y5612888D01*
X7011632Y5624685D01*
Y5631963D01*
X7011342Y5632664D01*
X7011538Y5633398D01*
X7009542Y5648561D01*
X7008553Y5661121D01*
X7007081Y5667255D01*
X7006405Y5672388D01*
X7006025Y5673045D01*
X7006124Y5673799D01*
X7006025Y5674168D01*
Y5688894D01*
X7000635Y5694285D01*
X7000216Y5695849D01*
X6997135Y5708680D01*
X6996122Y5711125D01*
X6995946Y5711785D01*
X6995736Y5712058D01*
X6995483Y5712669D01*
Y5713147D01*
X6980434Y5749479D01*
X6980096Y5749818D01*
X6979843Y5750428D01*
X6979798Y5750770D01*
X6979457Y5751360D01*
X6978418Y5753868D01*
X6971346Y5765408D01*
X6960135Y5784827D01*
X6959532Y5785289D01*
X6959336Y5786023D01*
X6956246Y5790050D01*
X6952862Y5795571D01*
X6944465Y5805403D01*
X6935396Y5817223D01*
X6934737Y5817603D01*
X6934447Y5818304D01*
X6927591Y5825160D01*
X6921098Y5832763D01*
X6913495Y5839256D01*
X6906639Y5846112D01*
X6905937Y5846402D01*
X6905558Y5847060D01*
X6893740Y5856128D01*
X6883906Y5864528D01*
X6878385Y5867910D01*
X6874358Y5871000D01*
X6873625Y5871197D01*
X6873162Y5871800D01*
X6853746Y5883009D01*
X6842203Y5890083D01*
X6839694Y5891122D01*
X6839105Y5891462D01*
X6838765Y5891507D01*
X6838153Y5891761D01*
X6837815Y5892099D01*
X6801482Y5907148D01*
X6801004D01*
X6800393Y5907401D01*
X6800120Y5907611D01*
X6799461Y5907787D01*
X6797015Y5908800D01*
X6784176Y5911883D01*
X6762134Y5917789D01*
X6761381Y5917690D01*
X6760723Y5918070D01*
X6755594Y5918745D01*
X6749456Y5920219D01*
X6736888Y5921208D01*
X6721734Y5923203D01*
X6721000Y5923006D01*
X6720298Y5923297D01*
X6713048D01*
X6713020Y5923298D01*
X6701219Y5924016D01*
X6700696Y5924057D01*
X6700632Y5924051D01*
X6687959Y5923985D01*
X6110535D01*
X5890108Y6144412D01*
X5891097Y6146800D01*
X5891097Y6817011D01*
X5899535Y6826216D01*
X5899536Y6826217D01*
Y6826216D01*
X5903281Y6826600D01*
X5907872Y6815516D01*
X5916356Y6807032D01*
X5927441Y6802440D01*
X5939439D01*
X5950525Y6807032D01*
X5959009Y6815516D01*
X5963600Y6826601D01*
Y6838599D01*
X5959009Y6849684D01*
X5950525Y6858168D01*
X5939439Y6862760D01*
X5927441D01*
X5916356Y6858168D01*
X5907872Y6849684D01*
X5903281Y6838600D01*
X5899536Y6838984D01*
Y6838983D01*
X5899535Y6838984D01*
X5891097Y6848189D01*
Y6884882D01*
X5896961Y6888800D01*
X5908959D01*
X5920044Y6893392D01*
X5928528Y6901876D01*
X5933120Y6912961D01*
Y6924959D01*
X5928528Y6936044D01*
X5920044Y6944528D01*
X5908959Y6949120D01*
X5896961D01*
X5891097Y6953038D01*
Y7043539D01*
X5891269Y7043654D01*
X5903267D01*
X5914352Y7048245D01*
X5922836Y7056729D01*
X5927428Y7067814D01*
Y7079813D01*
X5922836Y7090898D01*
X5914352Y7099382D01*
X5903267Y7103974D01*
X5891269D01*
X5891097Y7104088D01*
Y7284720D01*
X6065520Y7459142D01*
X6146993Y7540616D01*
X8700635D01*
X8701705Y7541059D01*
X8746013Y7537572D01*
D02*
G37*
G36*
X2552700Y6459220D02*
Y6030233D01*
X2540000Y6021747D01*
X2537699Y6022700D01*
X2525701D01*
X2514616Y6018108D01*
X2506132Y6009624D01*
X2501540Y5998539D01*
Y5986541D01*
X2506132Y5975456D01*
X2514616Y5966972D01*
X2525701Y5962380D01*
X2537699D01*
X2543621Y5951086D01*
X2544195Y5945255D01*
X2522925Y5923985D01*
X1600635D01*
X1600631Y5923988D01*
Y5924048D01*
X1591089Y5923297D01*
X1580972Y5923297D01*
X1580270Y5923006D01*
X1579537Y5923203D01*
X1564139Y5921176D01*
X1551958Y5920217D01*
X1546009Y5918789D01*
X1540547Y5918070D01*
X1539889Y5917690D01*
X1539136Y5917789D01*
X1515804Y5911537D01*
X1504373Y5908793D01*
X1502194Y5907890D01*
X1501150Y5907610D01*
X1500718Y5907279D01*
X1500402Y5907148D01*
X1499788D01*
X1463456Y5892099D01*
X1463021Y5891664D01*
X1462705Y5891534D01*
X1462165Y5891462D01*
X1461230Y5890922D01*
X1459160Y5890065D01*
X1449637Y5884229D01*
X1428108Y5871799D01*
X1427646Y5871197D01*
X1426912Y5871000D01*
X1422401Y5867539D01*
X1417435Y5864496D01*
X1408591Y5856942D01*
X1395712Y5847060D01*
X1395332Y5846402D01*
X1394631Y5846111D01*
X1387144Y5838624D01*
X1380222Y5832713D01*
X1374311Y5825792D01*
X1366823Y5818304D01*
X1366532Y5817602D01*
X1365875Y5817222D01*
X1355992Y5804343D01*
X1348440Y5795501D01*
X1345398Y5790536D01*
X1341934Y5786023D01*
X1341738Y5785289D01*
X1341135Y5784827D01*
X1328701Y5763290D01*
X1322870Y5753775D01*
X1322014Y5751707D01*
X1321472Y5750770D01*
X1321401Y5750228D01*
X1321271Y5749915D01*
X1320836Y5749479D01*
X1305787Y5713147D01*
Y5712531D01*
X1305657Y5712218D01*
X1305324Y5711785D01*
X1305043Y5710737D01*
X1304143Y5708563D01*
X1301403Y5697150D01*
X1295146Y5673799D01*
X1295245Y5673046D01*
X1294865Y5672388D01*
X1294145Y5666922D01*
X1292718Y5660977D01*
X1291760Y5648805D01*
X1289732Y5633398D01*
X1289929Y5632664D01*
X1289638Y5631963D01*
Y5621838D01*
X1288888Y5612304D01*
X1288947D01*
X1288950Y5612300D01*
Y4511200D01*
X1288947Y4511196D01*
X1288888D01*
X1289639Y4501655D01*
Y4491559D01*
X1289929Y4490858D01*
X1289732Y4490124D01*
X1291755Y4474758D01*
X1292718Y4462523D01*
X1294153Y4456549D01*
X1294865Y4451134D01*
X1295245Y4450476D01*
X1295146Y4449723D01*
X1301349Y4426573D01*
X1304143Y4414938D01*
X1305061Y4412720D01*
X1305325Y4411737D01*
X1305637Y4411330D01*
X1305787Y4410968D01*
Y4410375D01*
X1320836Y4374043D01*
X1321255Y4373623D01*
X1321406Y4373261D01*
X1321473Y4372752D01*
X1321981Y4371872D01*
X1322870Y4369725D01*
X1328925Y4359845D01*
X1341136Y4338695D01*
X1341738Y4338233D01*
X1341935Y4337499D01*
X1345329Y4333075D01*
X1348440Y4327999D01*
X1356161Y4318959D01*
X1365875Y4306300D01*
X1366533Y4305920D01*
X1366823Y4305218D01*
X1374182Y4297860D01*
X1380222Y4290787D01*
X1387295Y4284747D01*
X1394631Y4277410D01*
X1395333Y4277120D01*
X1395713Y4276462D01*
X1408335Y4266776D01*
X1417435Y4259005D01*
X1422544Y4255874D01*
X1426912Y4252522D01*
X1427646Y4252325D01*
X1428108Y4251723D01*
X1449016Y4239651D01*
X1459160Y4233435D01*
X1461365Y4232522D01*
X1462165Y4232060D01*
X1462628Y4231999D01*
X1463059Y4231820D01*
X1463456Y4231423D01*
X1499788Y4216374D01*
X1500349D01*
X1500780Y4216196D01*
X1501150Y4215912D01*
X1502045Y4215672D01*
X1504373Y4214708D01*
X1516589Y4211775D01*
X1539136Y4205733D01*
X1539889Y4205832D01*
X1540547Y4205452D01*
X1545807Y4204760D01*
X1551958Y4203283D01*
X1564555Y4202292D01*
X1579537Y4200320D01*
X1580271Y4200516D01*
X1580972Y4200226D01*
X1590810D01*
X1600631Y4199453D01*
Y4199513D01*
X1600635Y4199516D01*
X2719444D01*
X2786380Y4132580D01*
Y3182620D01*
X2713444Y3109684D01*
X1613310D01*
X1600638Y3109751D01*
X1600574Y3109757D01*
X1600122Y3109721D01*
X1588237Y3109028D01*
X1588210Y3109027D01*
X1580972D01*
X1580270Y3108736D01*
X1579537Y3108933D01*
X1563817Y3106863D01*
X1551814Y3105919D01*
X1545952Y3104511D01*
X1540547Y3103800D01*
X1539889Y3103420D01*
X1539136Y3103519D01*
X1516026Y3097327D01*
X1504255Y3094501D01*
X1502011Y3093571D01*
X1501150Y3093341D01*
X1500794Y3093067D01*
X1500338Y3092878D01*
X1499788D01*
X1463456Y3077829D01*
X1463067Y3077440D01*
X1462611Y3077251D01*
X1462165Y3077192D01*
X1461393Y3076747D01*
X1459067Y3075783D01*
X1448362Y3069223D01*
X1428108Y3057529D01*
X1427646Y3056927D01*
X1426912Y3056730D01*
X1422693Y3053493D01*
X1417364Y3050228D01*
X1407873Y3042122D01*
X1395712Y3032790D01*
X1395332Y3032132D01*
X1394631Y3031842D01*
X1387572Y3024782D01*
X1380172Y3018463D01*
X1373853Y3011064D01*
X1366823Y3004034D01*
X1366532Y3003332D01*
X1365875Y3002952D01*
X1356582Y2990842D01*
X1348408Y2981271D01*
X1345115Y2975899D01*
X1341934Y2971753D01*
X1341738Y2971019D01*
X1341135Y2970557D01*
X1329627Y2950624D01*
X1322852Y2939568D01*
X1321856Y2937165D01*
X1321472Y2936500D01*
X1321422Y2936116D01*
X1321195Y2935569D01*
X1320836Y2935210D01*
X1305787Y2898877D01*
Y2898369D01*
X1305561Y2897823D01*
X1305324Y2897515D01*
X1305125Y2896771D01*
X1304135Y2894380D01*
X1301122Y2881833D01*
X1295146Y2859529D01*
X1295245Y2858776D01*
X1294865Y2858118D01*
X1294181Y2852921D01*
X1292716Y2846821D01*
X1291734Y2834331D01*
X1289732Y2819128D01*
X1289929Y2818394D01*
X1289638Y2817693D01*
Y2810413D01*
X1289636Y2810386D01*
X1288919Y2798583D01*
X1288878Y2798061D01*
X1288884Y2797997D01*
X1288950Y2785325D01*
Y1709676D01*
X1288884Y1697003D01*
X1288878Y1696939D01*
X1288919Y1696416D01*
X1289637Y1684615D01*
X1289639Y1684588D01*
Y1677289D01*
X1289929Y1676587D01*
X1289732Y1675854D01*
X1291737Y1660631D01*
X1292716Y1648179D01*
X1294176Y1642099D01*
X1294865Y1636864D01*
X1295245Y1636206D01*
X1295146Y1635453D01*
X1301161Y1613004D01*
X1304135Y1600620D01*
X1305112Y1598260D01*
X1305325Y1597467D01*
X1305577Y1597139D01*
X1305787Y1596630D01*
Y1596105D01*
X1320836Y1559772D01*
X1321208Y1559400D01*
X1321418Y1558892D01*
X1321473Y1558482D01*
X1321883Y1557772D01*
X1322852Y1555432D01*
X1329451Y1544664D01*
X1341136Y1524425D01*
X1341738Y1523963D01*
X1341935Y1523229D01*
X1345169Y1519014D01*
X1348408Y1513729D01*
X1356447Y1504316D01*
X1365875Y1492030D01*
X1366533Y1491650D01*
X1366823Y1490948D01*
X1373958Y1483813D01*
X1380172Y1476537D01*
X1387448Y1470323D01*
X1394631Y1463140D01*
X1395333Y1462849D01*
X1395713Y1462192D01*
X1408080Y1452701D01*
X1417364Y1444773D01*
X1422576Y1441579D01*
X1426912Y1438252D01*
X1427646Y1438055D01*
X1428108Y1437453D01*
X1448874Y1425463D01*
X1459067Y1419217D01*
X1461282Y1418299D01*
X1462165Y1417789D01*
X1462676Y1417722D01*
X1463036Y1417573D01*
X1463456Y1417153D01*
X1499788Y1402104D01*
X1500382D01*
X1500742Y1401955D01*
X1501150Y1401641D01*
X1502136Y1401377D01*
X1504255Y1400500D01*
X1515371Y1397831D01*
X1539136Y1391463D01*
X1539889Y1391562D01*
X1540547Y1391182D01*
X1546120Y1390449D01*
X1551814Y1389082D01*
X1563475Y1388164D01*
X1579537Y1386049D01*
X1580271Y1386246D01*
X1580972Y1385955D01*
X1588203D01*
X1588230Y1385954D01*
X1600157Y1385276D01*
X1600574Y1385243D01*
X1600638Y1385249D01*
X1613310Y1385315D01*
X2765044D01*
X2821939Y1328420D01*
X2821940Y817880D01*
X2750820Y746760D01*
X2583356D01*
Y757839D01*
X2578764Y768924D01*
X2570280Y777408D01*
X2559195Y782000D01*
X2547197D01*
X2536112Y777408D01*
X2527627Y768924D01*
X2523036Y757839D01*
Y746760D01*
X1754820D01*
Y757839D01*
X1750228Y768924D01*
X1741744Y777408D01*
X1730659Y782000D01*
X1718661D01*
X1707576Y777408D01*
X1699092Y768924D01*
X1694500Y757839D01*
Y746760D01*
X1170940D01*
X688340Y1229360D01*
Y1538414D01*
X701040Y1546363D01*
X705201Y1544640D01*
X717199D01*
X728284Y1549232D01*
X736768Y1557716D01*
X741360Y1568801D01*
Y1580799D01*
X736768Y1591884D01*
X728453Y1600200D01*
X736768Y1608516D01*
X741360Y1619601D01*
Y1631599D01*
X736768Y1642684D01*
X728453Y1651000D01*
X736768Y1659316D01*
X741360Y1670401D01*
Y1682399D01*
X736768Y1693484D01*
X728284Y1701968D01*
X717199Y1706560D01*
X705201D01*
X701040Y1704837D01*
X688340Y1712786D01*
Y6073140D01*
X952500Y6337300D01*
X1785620D01*
X1968500Y6520180D01*
X2120074D01*
X2126535Y6507480D01*
X2123760Y6500779D01*
Y6488781D01*
X2128352Y6477696D01*
X2136836Y6469212D01*
X2147921Y6464620D01*
X2159919D01*
X2171004Y6469212D01*
X2179488Y6477696D01*
X2184080Y6488781D01*
Y6500779D01*
X2181305Y6507480D01*
X2187766Y6520180D01*
X2376614D01*
X2383075Y6507480D01*
X2380300Y6500779D01*
Y6488781D01*
X2384892Y6477696D01*
X2393376Y6469212D01*
X2404461Y6464620D01*
X2416459D01*
X2427544Y6469212D01*
X2436028Y6477696D01*
X2440620Y6488781D01*
Y6500779D01*
X2437845Y6507480D01*
X2444306Y6520180D01*
X2491740D01*
X2552700Y6459220D01*
D02*
G37*
G36*
X5880100Y7284720D02*
Y7099299D01*
X5871699Y7090898D01*
X5867108Y7079813D01*
Y7067814D01*
X5871699Y7056729D01*
X5880100Y7048328D01*
Y6938753D01*
X5877392Y6936044D01*
X5872800Y6924959D01*
Y6912961D01*
X5877392Y6901876D01*
X5880100Y6899167D01*
X5880100Y6146800D01*
X5676900Y5943600D01*
X5295553D01*
X5292149Y5948802D01*
X5289212Y5956300D01*
X5293040Y5965541D01*
Y5977539D01*
X5288449Y5988624D01*
X5279965Y5997108D01*
X5268879Y6001700D01*
X5256881D01*
X5245796Y5997108D01*
X5237312Y5988624D01*
X5232720Y5977539D01*
Y5965541D01*
X5236548Y5956300D01*
X5233612Y5948802D01*
X5230207Y5943600D01*
X4851988D01*
X4846000Y5952562D01*
Y5964560D01*
X4841409Y5975645D01*
X4832925Y5984129D01*
X4821839Y5988721D01*
X4809841D01*
X4798756Y5984129D01*
X4790272Y5975645D01*
X4785680Y5964560D01*
Y5956300D01*
X4776692Y5943600D01*
X3035300Y5943600D01*
X2992120Y5986780D01*
Y6336094D01*
X3052488Y6396462D01*
X3061935D01*
X3073020Y6401054D01*
X3081504Y6409538D01*
X3086095Y6420623D01*
Y6428312D01*
X4037346D01*
X4045546Y6415612D01*
X4044000Y6411879D01*
Y6399881D01*
X4048592Y6388796D01*
X4057076Y6380312D01*
X4068161Y6375720D01*
X4080159D01*
X4091244Y6380312D01*
X4099728Y6388796D01*
X4104320Y6399881D01*
Y6411879D01*
X4102774Y6415612D01*
X4110974Y6428312D01*
X4427666D01*
X4678698Y6177280D01*
X5387340D01*
X5626100Y6416039D01*
Y7106920D01*
X5630660Y7120322D01*
X5636182Y7122609D01*
X5644666Y7131093D01*
X5649257Y7142178D01*
Y7154176D01*
X5644666Y7165262D01*
X5636182Y7173746D01*
X5625097Y7178337D01*
X5613098D01*
X5602013Y7173746D01*
X5593529Y7165262D01*
X5591242Y7159739D01*
X5577204Y7155816D01*
X5398963Y7334057D01*
X4898716D01*
X4891661Y7344617D01*
X4891720Y7344761D01*
Y7356759D01*
X4887129Y7367844D01*
X4878645Y7376328D01*
X4867559Y7380920D01*
X4855561D01*
X4844476Y7376328D01*
X4835992Y7367844D01*
X4831400Y7356759D01*
Y7344761D01*
X4835992Y7333676D01*
X4844476Y7325192D01*
X4846717Y7310517D01*
X4696460Y7160260D01*
X4500880D01*
X4475678Y7185462D01*
X4480938Y7198162D01*
X4486624D01*
X4497709Y7202754D01*
X4506193Y7211238D01*
X4510784Y7222323D01*
Y7234322D01*
X4506193Y7245407D01*
X4497709Y7253891D01*
X4486624Y7258482D01*
X4474625D01*
X4465320Y7254628D01*
X4457959Y7257489D01*
X4452620Y7260931D01*
Y7437120D01*
X4541520Y7526020D01*
X5638800D01*
X5880100Y7284720D01*
D02*
G37*
G36*
X6995028Y4365569D02*
Y2943652D01*
X6982328Y2935381D01*
X6979798Y2936500D01*
X6979614Y2936817D01*
X6978437Y2939661D01*
X6970417Y2952747D01*
X6960135Y2970557D01*
X6959532Y2971019D01*
X6959336Y2971753D01*
X6956529Y2975410D01*
X6952895Y2981341D01*
X6943873Y2991904D01*
X6935396Y3002952D01*
X6934738Y3003332D01*
X6934447Y3004034D01*
X6928047Y3010434D01*
X6921147Y3018512D01*
X6913069Y3025412D01*
X6906639Y3031842D01*
X6905937Y3032132D01*
X6905558Y3032790D01*
X6894459Y3041306D01*
X6883976Y3050260D01*
X6878090Y3053867D01*
X6874358Y3056730D01*
X6873625Y3056927D01*
X6873162Y3057529D01*
X6855028Y3067999D01*
X6842296Y3075802D01*
X6839529Y3076947D01*
X6839105Y3077192D01*
X6838860Y3077225D01*
X6838107Y3077537D01*
X6837815Y3077829D01*
X6801482Y3092878D01*
X6801069D01*
X6800317Y3093190D01*
X6800120Y3093341D01*
X6799645Y3093468D01*
X6797133Y3094508D01*
X6783951Y3097673D01*
X6762134Y3103519D01*
X6761381Y3103420D01*
X6760723Y3103800D01*
X6755650Y3104468D01*
X6749600Y3105920D01*
X6737211Y3106895D01*
X6721734Y3108933D01*
X6721000Y3108736D01*
X6720298Y3109027D01*
X6710126D01*
X6700867Y3109756D01*
X6700626Y3109737D01*
X6700625Y3109684D01*
X2745590D01*
X2740730Y3121418D01*
X2794156Y3174844D01*
X2797377Y3182620D01*
Y4132580D01*
X2794156Y4140356D01*
X2746730Y4187782D01*
X2751590Y4199516D01*
X6687959D01*
X6700632Y4199449D01*
X6700696Y4199443D01*
X6701286Y4199490D01*
X6713011Y4200224D01*
X6713038Y4200226D01*
X6720298D01*
X6721000Y4200516D01*
X6721734Y4200320D01*
X6736468Y4202259D01*
X6749456Y4203281D01*
X6755798Y4204804D01*
X6760723Y4205452D01*
X6761381Y4205832D01*
X6762134Y4205733D01*
X6783379Y4211426D01*
X6797015Y4214699D01*
X6799614Y4215776D01*
X6800120Y4215912D01*
X6800330Y4216073D01*
X6801058Y4216374D01*
X6801482D01*
X6837815Y4231423D01*
X6838115Y4231724D01*
X6838843Y4232025D01*
X6839105Y4232060D01*
X6839558Y4232321D01*
X6842203Y4233417D01*
X6854373Y4240874D01*
X6873162Y4251723D01*
X6873625Y4252325D01*
X6874358Y4252522D01*
X6878241Y4255501D01*
X6883906Y4258972D01*
X6893996Y4267590D01*
X6905558Y4276462D01*
X6905937Y4277120D01*
X6906639Y4277410D01*
X6913343Y4284114D01*
X6921098Y4290737D01*
X6927720Y4298492D01*
X6934447Y4305218D01*
X6934738Y4305920D01*
X6935396Y4306300D01*
X6944297Y4317900D01*
X6952862Y4327929D01*
X6956313Y4333560D01*
X6959336Y4337499D01*
X6959532Y4338233D01*
X6960135Y4338695D01*
X6971126Y4357732D01*
X6978418Y4369632D01*
X6979489Y4372218D01*
X6979798Y4372752D01*
X6982328Y4373863D01*
X6995028Y4365569D01*
D02*
G37*
%LPC*%
G36*
X4338985Y7466558D02*
X4326987D01*
X4315902Y7461967D01*
X4307418Y7453483D01*
X4302826Y7442398D01*
Y7430399D01*
X4307418Y7419314D01*
X4315902Y7410830D01*
X4326987Y7406238D01*
X4338985D01*
X4350070Y7410830D01*
X4358554Y7419314D01*
X4363146Y7430399D01*
Y7442398D01*
X4358554Y7453483D01*
X4350070Y7461967D01*
X4338985Y7466558D01*
D02*
G37*
G36*
X4080239Y7424100D02*
X4068241D01*
X4057156Y7419508D01*
X4048672Y7411024D01*
X4044080Y7399939D01*
Y7387941D01*
X4048672Y7376856D01*
X4057156Y7368372D01*
X4068241Y7363780D01*
X4080239D01*
X4091325Y7368372D01*
X4099809Y7376856D01*
X4104400Y7387941D01*
Y7399939D01*
X4099809Y7411024D01*
X4091325Y7419508D01*
X4080239Y7424100D01*
D02*
G37*
G36*
X3287679Y7492680D02*
X3275681D01*
X3264596Y7488088D01*
X3256112Y7479604D01*
X3251520Y7468519D01*
Y7456521D01*
X3256112Y7445436D01*
X3257630Y7443917D01*
X3262610Y7434207D01*
X3257630Y7427324D01*
X3254771Y7424465D01*
X3250180Y7413380D01*
Y7401381D01*
X3254771Y7390296D01*
X3260481Y7384586D01*
X3262174Y7376901D01*
X3260481Y7369215D01*
X3254771Y7363505D01*
X3250180Y7352420D01*
Y7340421D01*
X3254771Y7329336D01*
X3257330Y7326777D01*
X3261938Y7318481D01*
X3257330Y7310184D01*
X3254771Y7307625D01*
X3250180Y7296540D01*
Y7284541D01*
X3254771Y7273456D01*
X3263255Y7264972D01*
X3274340Y7260381D01*
X3286339D01*
X3297424Y7264972D01*
X3305908Y7273456D01*
X3310500Y7284541D01*
Y7296540D01*
X3305908Y7307625D01*
X3303349Y7310184D01*
X3298741Y7318481D01*
X3303349Y7326777D01*
X3305908Y7329336D01*
X3310500Y7340421D01*
Y7352420D01*
X3305908Y7363505D01*
X3300198Y7369215D01*
X3298506Y7376901D01*
X3300198Y7384586D01*
X3305908Y7390296D01*
X3310500Y7401381D01*
Y7413380D01*
X3305908Y7424465D01*
X3304390Y7425983D01*
X3299410Y7435694D01*
X3304390Y7442577D01*
X3307248Y7445436D01*
X3311840Y7456521D01*
Y7468519D01*
X3307248Y7479604D01*
X3298764Y7488088D01*
X3287679Y7492680D01*
D02*
G37*
G36*
X3983639Y7299640D02*
X3971641D01*
X3960556Y7295048D01*
X3952072Y7286564D01*
X3947480Y7275479D01*
Y7263481D01*
X3952072Y7252396D01*
X3960556Y7243912D01*
X3971641Y7239320D01*
X3983639D01*
X3994725Y7243912D01*
X4003209Y7252396D01*
X4007800Y7263481D01*
Y7275479D01*
X4003209Y7286564D01*
X3994725Y7295048D01*
X3983639Y7299640D01*
D02*
G37*
G36*
X3903439Y7212420D02*
X3891441D01*
X3880356Y7207828D01*
X3871872Y7199344D01*
X3867280Y7188259D01*
Y7176261D01*
X3871872Y7165176D01*
X3880356Y7156692D01*
X3891441Y7152100D01*
X3903439D01*
X3914525Y7156692D01*
X3923009Y7165176D01*
X3927600Y7176261D01*
Y7188259D01*
X3923009Y7199344D01*
X3914525Y7207828D01*
X3903439Y7212420D01*
D02*
G37*
G36*
X4410941Y7184338D02*
X4398942D01*
X4387857Y7179746D01*
X4379373Y7171262D01*
X4374782Y7160177D01*
Y7148178D01*
X4379373Y7137093D01*
X4387857Y7128609D01*
X4398942Y7124018D01*
X4410941D01*
X4422026Y7128609D01*
X4430510Y7137093D01*
X4435102Y7148178D01*
Y7160177D01*
X4430510Y7171262D01*
X4422026Y7179746D01*
X4410941Y7184338D01*
D02*
G37*
G36*
X4250240Y7170100D02*
X4238241D01*
X4227156Y7165508D01*
X4218672Y7157024D01*
X4214080Y7145939D01*
Y7133941D01*
X4218672Y7122856D01*
X4227156Y7114372D01*
X4238241Y7109780D01*
X4250240D01*
X4261325Y7114372D01*
X4269809Y7122856D01*
X4274400Y7133941D01*
Y7145939D01*
X4269809Y7157024D01*
X4261325Y7165508D01*
X4250240Y7170100D01*
D02*
G37*
G36*
X4340458Y7099105D02*
X4328459D01*
X4317374Y7094513D01*
X4308890Y7086029D01*
X4304298Y7074944D01*
Y7062946D01*
X4308890Y7051861D01*
X4317374Y7043377D01*
X4328459Y7038785D01*
X4340458D01*
X4351543Y7043377D01*
X4360027Y7051861D01*
X4364618Y7062946D01*
Y7074944D01*
X4360027Y7086029D01*
X4351543Y7094513D01*
X4340458Y7099105D01*
D02*
G37*
G36*
X5088539Y7076120D02*
X5076541D01*
X5065456Y7071528D01*
X5056972Y7063044D01*
X5052380Y7051959D01*
Y7039961D01*
X5056972Y7028876D01*
X5065456Y7020392D01*
X5076541Y7015800D01*
X5088539D01*
X5099624Y7020392D01*
X5108108Y7028876D01*
X5112700Y7039961D01*
Y7051959D01*
X5108108Y7063044D01*
X5099624Y7071528D01*
X5088539Y7076120D01*
D02*
G37*
G36*
X4265060Y7020692D02*
X4253062D01*
X4241977Y7016101D01*
X4233493Y7007616D01*
X4228901Y6996531D01*
Y6984533D01*
X4233493Y6973448D01*
X4241977Y6964964D01*
X4253062Y6960372D01*
X4265060D01*
X4276145Y6964964D01*
X4284629Y6973448D01*
X4289221Y6984533D01*
Y6996531D01*
X4284629Y7007616D01*
X4276145Y7016101D01*
X4265060Y7020692D01*
D02*
G37*
G36*
X3290219Y6944040D02*
X3278221D01*
X3267136Y6939448D01*
X3258820Y6931133D01*
X3250504Y6939448D01*
X3239419Y6944040D01*
X3227421D01*
X3216336Y6939448D01*
X3207852Y6930964D01*
X3203260Y6919879D01*
Y6907881D01*
X3207852Y6896796D01*
X3216336Y6888312D01*
X3227421Y6883720D01*
X3239419D01*
X3250504Y6888312D01*
X3251109Y6888269D01*
X3253102Y6886158D01*
X3254196Y6884475D01*
X3257923Y6875864D01*
X3254060Y6866539D01*
Y6854541D01*
X3258652Y6843456D01*
X3262565Y6839542D01*
X3265732Y6831330D01*
X3262565Y6823118D01*
X3258652Y6819204D01*
X3254060Y6808119D01*
Y6796121D01*
X3258652Y6785036D01*
X3267136Y6776552D01*
X3278221Y6771960D01*
X3290219D01*
X3301304Y6776552D01*
X3309788Y6785036D01*
X3314380Y6796121D01*
Y6808119D01*
X3309788Y6819204D01*
X3305875Y6823118D01*
X3302708Y6831330D01*
X3305875Y6839542D01*
X3309788Y6843456D01*
X3314380Y6854541D01*
Y6866539D01*
X3309788Y6877624D01*
X3308499Y6878913D01*
X3302148Y6887210D01*
X3308499Y6895507D01*
X3309788Y6896796D01*
X3314380Y6907881D01*
Y6919879D01*
X3309788Y6930964D01*
X3301304Y6939448D01*
X3290219Y6944040D01*
D02*
G37*
G36*
X4844809Y7035514D02*
X4832811D01*
X4821725Y7030922D01*
X4813241Y7022438D01*
X4808650Y7011353D01*
Y6999355D01*
X4799158Y6989084D01*
X4799092D01*
X4788007Y6984492D01*
X4779523Y6976008D01*
X4774931Y6964923D01*
Y6952924D01*
X4779523Y6941839D01*
X4786056Y6931828D01*
X4777572Y6923345D01*
X4762611Y6920413D01*
X4761688Y6921336D01*
X4750603Y6925927D01*
X4738604D01*
X4727519Y6921336D01*
X4719035Y6912852D01*
X4714444Y6901767D01*
Y6889768D01*
X4719016Y6878729D01*
X4719035Y6878682D01*
X4719348Y6865120D01*
X4710864Y6856637D01*
X4706273Y6845551D01*
Y6844181D01*
X4705262Y6833458D01*
X4694539Y6832448D01*
X4693169D01*
X4682084Y6827856D01*
X4673599Y6819372D01*
X4669008Y6808287D01*
Y6796288D01*
X4673599Y6785203D01*
X4682084Y6776719D01*
X4693169Y6772128D01*
X4705167D01*
X4716252Y6776719D01*
X4724736Y6785203D01*
X4729328Y6796288D01*
Y6797659D01*
X4730338Y6808382D01*
X4741061Y6809392D01*
X4742432D01*
X4753517Y6813984D01*
X4762001Y6822468D01*
X4766592Y6833553D01*
Y6845551D01*
X4762020Y6856590D01*
X4762001Y6856638D01*
X4761688Y6870199D01*
X4770172Y6878683D01*
X4785133Y6881615D01*
X4786056Y6880692D01*
X4797141Y6876100D01*
X4809139D01*
X4820225Y6880692D01*
X4828709Y6889176D01*
X4833300Y6900261D01*
Y6912259D01*
X4828709Y6923344D01*
X4822176Y6933355D01*
X4830660Y6941839D01*
X4835251Y6952924D01*
Y6964923D01*
X4844743Y6975194D01*
X4844809D01*
X4855894Y6979786D01*
X4864378Y6988270D01*
X4868970Y6999355D01*
Y7011353D01*
X4864378Y7022438D01*
X4855894Y7030922D01*
X4844809Y7035514D01*
D02*
G37*
G36*
X5261259Y6916100D02*
X5249261D01*
X5238176Y6911508D01*
X5229692Y6903024D01*
X5225100Y6891939D01*
Y6879941D01*
X5229692Y6868856D01*
X5238176Y6860372D01*
X5249261Y6855780D01*
X5261259D01*
X5272344Y6860372D01*
X5280828Y6868856D01*
X5285420Y6879941D01*
Y6891939D01*
X5280828Y6903024D01*
X5272344Y6911508D01*
X5261259Y6916100D01*
D02*
G37*
G36*
X4505168Y6937249D02*
X4493170D01*
X4482085Y6932657D01*
X4473601Y6924173D01*
X4469009Y6913088D01*
Y6911718D01*
X4467999Y6900995D01*
X4457276Y6899984D01*
X4455905D01*
X4444820Y6895393D01*
X4436336Y6886909D01*
X4431745Y6875824D01*
Y6863825D01*
X4436336Y6852740D01*
X4444820Y6844256D01*
X4455905Y6839665D01*
X4467904D01*
X4478989Y6844256D01*
X4487473Y6852740D01*
X4492064Y6863825D01*
Y6865196D01*
X4493075Y6875919D01*
X4503798Y6876929D01*
X4505168D01*
X4516253Y6881521D01*
X4524737Y6890005D01*
X4529329Y6901090D01*
Y6913088D01*
X4524737Y6924173D01*
X4516253Y6932657D01*
X4505168Y6937249D01*
D02*
G37*
G36*
X4138115Y6811496D02*
X4126117D01*
X4115032Y6806904D01*
X4106548Y6798420D01*
X4101956Y6787335D01*
Y6775337D01*
X4106548Y6764252D01*
X4115032Y6755768D01*
X4126117Y6751176D01*
X4138115D01*
X4149200Y6755768D01*
X4157684Y6764252D01*
X4162276Y6775337D01*
Y6787335D01*
X4157684Y6798420D01*
X4149200Y6806904D01*
X4138115Y6811496D01*
D02*
G37*
G36*
X5205379Y6765290D02*
X5193381D01*
X5182296Y6760698D01*
X5173812Y6752214D01*
X5169220Y6741129D01*
Y6729131D01*
X5173812Y6718046D01*
X5182296Y6709562D01*
X5193381Y6704970D01*
X5205379D01*
X5216464Y6709562D01*
X5224948Y6718046D01*
X5229540Y6729131D01*
Y6741129D01*
X5224948Y6752214D01*
X5216464Y6760698D01*
X5205379Y6765290D01*
D02*
G37*
G36*
X4974239Y6761160D02*
X4962241D01*
X4951156Y6756568D01*
X4942672Y6748084D01*
X4938080Y6736999D01*
Y6725001D01*
X4942672Y6713916D01*
X4951156Y6705432D01*
X4962241Y6700840D01*
X4974239D01*
X4985324Y6705432D01*
X4993808Y6713916D01*
X4998400Y6725001D01*
Y6736999D01*
X4993808Y6748084D01*
X4985324Y6756568D01*
X4974239Y6761160D01*
D02*
G37*
G36*
X5347619Y6743380D02*
X5335621D01*
X5324536Y6738788D01*
X5316052Y6730304D01*
X5311460Y6719219D01*
Y6707221D01*
X5316052Y6696136D01*
X5324536Y6687652D01*
X5335621Y6683060D01*
X5347619D01*
X5358704Y6687652D01*
X5367188Y6696136D01*
X5371780Y6707221D01*
Y6719219D01*
X5367188Y6730304D01*
X5358704Y6738788D01*
X5347619Y6743380D01*
D02*
G37*
G36*
X4847239Y6715440D02*
X4835241D01*
X4824156Y6710848D01*
X4815672Y6702364D01*
X4811080Y6691279D01*
Y6679281D01*
X4815672Y6668196D01*
X4824156Y6659712D01*
X4835241Y6655120D01*
X4847239D01*
X4858324Y6659712D01*
X4866808Y6668196D01*
X4871400Y6679281D01*
Y6691279D01*
X4866808Y6702364D01*
X4858324Y6710848D01*
X4847239Y6715440D01*
D02*
G37*
G36*
X5078379Y6692580D02*
X5066381D01*
X5055296Y6687988D01*
X5046812Y6679504D01*
X5042220Y6668419D01*
Y6656421D01*
X5046812Y6645336D01*
X5055296Y6636852D01*
X5066381Y6632260D01*
X5078379D01*
X5089464Y6636852D01*
X5097948Y6645336D01*
X5102540Y6656421D01*
Y6668419D01*
X5097948Y6679504D01*
X5089464Y6687988D01*
X5078379Y6692580D01*
D02*
G37*
G36*
X5212999Y6662100D02*
X5201001D01*
X5189916Y6657508D01*
X5181432Y6649024D01*
X5176840Y6637939D01*
Y6625941D01*
X5181432Y6614856D01*
X5189916Y6606372D01*
X5201001Y6601780D01*
X5212999D01*
X5224084Y6606372D01*
X5232568Y6614856D01*
X5237160Y6625941D01*
Y6637939D01*
X5232568Y6649024D01*
X5224084Y6657508D01*
X5212999Y6662100D01*
D02*
G37*
G36*
X4457355Y6636329D02*
X4445357D01*
X4434272Y6631738D01*
X4425787Y6623253D01*
X4421196Y6612168D01*
Y6600170D01*
X4425787Y6589085D01*
X4434272Y6580601D01*
X4445357Y6576009D01*
X4457355D01*
X4468440Y6580601D01*
X4476924Y6589085D01*
X4481516Y6600170D01*
Y6612168D01*
X4476924Y6623253D01*
X4468440Y6631738D01*
X4457355Y6636329D01*
D02*
G37*
G36*
X5296819Y6624000D02*
X5284821D01*
X5273736Y6619408D01*
X5265252Y6610924D01*
X5260660Y6599839D01*
Y6587841D01*
X5265252Y6576756D01*
X5273736Y6568272D01*
X5284821Y6563680D01*
X5296819D01*
X5307904Y6568272D01*
X5316388Y6576756D01*
X5320980Y6587841D01*
Y6599839D01*
X5316388Y6610924D01*
X5307904Y6619408D01*
X5296819Y6624000D01*
D02*
G37*
G36*
X5035199Y6537640D02*
X5023201D01*
X5012116Y6533048D01*
X5003632Y6524564D01*
X4999040Y6513479D01*
Y6501481D01*
X5003632Y6490396D01*
X5012116Y6481912D01*
X5023201Y6477320D01*
X5035199D01*
X5046284Y6481912D01*
X5054768Y6490396D01*
X5059360Y6501481D01*
Y6513479D01*
X5054768Y6524564D01*
X5046284Y6533048D01*
X5035199Y6537640D01*
D02*
G37*
G36*
X5205353Y6539636D02*
X5186879D01*
X5169035Y6534855D01*
X5153037Y6525618D01*
X5139974Y6512555D01*
X5130737Y6496557D01*
X5125956Y6478713D01*
Y6461177D01*
X5123094Y6458709D01*
X5119361Y6456713D01*
X5114339Y6454526D01*
X5103779Y6458900D01*
X5091781D01*
X5080696Y6454308D01*
X5072212Y6445824D01*
X5067620Y6434739D01*
Y6422741D01*
X5072212Y6411656D01*
X5080696Y6403172D01*
X5091781Y6398580D01*
X5103779D01*
X5114864Y6403172D01*
X5123348Y6411656D01*
X5127723Y6422216D01*
X5132838Y6424229D01*
X5136859Y6425450D01*
X5140640Y6425731D01*
X5153037Y6413334D01*
X5169035Y6404097D01*
X5186879Y6399316D01*
X5205353D01*
X5223197Y6404097D01*
X5239195Y6413334D01*
X5252258Y6426397D01*
X5261494Y6442395D01*
X5266276Y6460239D01*
Y6478713D01*
X5261494Y6496557D01*
X5252258Y6512555D01*
X5239195Y6525618D01*
X5223197Y6534855D01*
X5205353Y6539636D01*
D02*
G37*
G36*
X4900115Y6492384D02*
X4888117D01*
X4877032Y6487792D01*
X4868548Y6479308D01*
X4863956Y6468223D01*
Y6456225D01*
X4868548Y6445140D01*
X4877032Y6436656D01*
X4888117Y6432064D01*
X4900115D01*
X4911200Y6436656D01*
X4919684Y6445140D01*
X4924276Y6456225D01*
Y6468223D01*
X4919684Y6479308D01*
X4911200Y6487792D01*
X4900115Y6492384D01*
D02*
G37*
G36*
X1307240Y7503640D02*
X786920D01*
Y7223320D01*
X1307240D01*
Y7503640D01*
D02*
G37*
G36*
X1725115Y6482824D02*
X1713117D01*
X1702032Y6478232D01*
X1693548Y6469748D01*
X1688956Y6458663D01*
Y6446665D01*
X1693548Y6435580D01*
X1702032Y6427096D01*
X1713117Y6422504D01*
X1725115D01*
X1736200Y6427096D01*
X1744684Y6435580D01*
X1749276Y6446665D01*
Y6458663D01*
X1744684Y6469748D01*
X1736200Y6478232D01*
X1725115Y6482824D01*
D02*
G37*
G36*
X1405353Y6539636D02*
X1386879D01*
X1369035Y6534855D01*
X1353037Y6525618D01*
X1339974Y6512555D01*
X1330737Y6496557D01*
X1325956Y6478713D01*
Y6460239D01*
X1330737Y6442395D01*
X1339974Y6426397D01*
X1353037Y6413334D01*
X1369035Y6404097D01*
X1386879Y6399316D01*
X1405353D01*
X1423197Y6404097D01*
X1439195Y6413334D01*
X1452258Y6426397D01*
X1461494Y6442395D01*
X1466276Y6460239D01*
Y6478713D01*
X1461494Y6496557D01*
X1452258Y6512555D01*
X1439195Y6525618D01*
X1423197Y6534855D01*
X1405353Y6539636D01*
D02*
G37*
G36*
X409859Y4510720D02*
X397861D01*
X386776Y4506128D01*
X378292Y4497644D01*
X373700Y4486559D01*
Y4474561D01*
X378292Y4463476D01*
X379575Y4462193D01*
X372381Y4451426D01*
X364139Y4454840D01*
X352141D01*
X341056Y4450248D01*
X332572Y4441764D01*
X327980Y4430679D01*
Y4418681D01*
X332572Y4407596D01*
X341056Y4399112D01*
X352141Y4394520D01*
X364139D01*
X375225Y4399112D01*
X383709Y4407596D01*
X388300Y4418681D01*
Y4430679D01*
X383709Y4441764D01*
X382426Y4443047D01*
X389620Y4453814D01*
X397861Y4450400D01*
X409859D01*
X420945Y4454992D01*
X429429Y4463476D01*
X434020Y4474561D01*
Y4486559D01*
X429429Y4497644D01*
X420945Y4506128D01*
X409859Y4510720D01*
D02*
G37*
G36*
X517658Y4221905D02*
X505659D01*
X494574Y4217313D01*
X486090Y4208829D01*
X481498Y4197744D01*
Y4185746D01*
X486090Y4174661D01*
X494574Y4166177D01*
X505659Y4161585D01*
X517658D01*
X522238Y4163482D01*
X526778Y4160732D01*
X533227Y4154287D01*
Y4144826D01*
X537818Y4133741D01*
X546302Y4125256D01*
X557388Y4120665D01*
X569386D01*
X580471Y4125256D01*
X588955Y4133741D01*
X593547Y4144826D01*
Y4156824D01*
X588955Y4167909D01*
X580471Y4176393D01*
X569386Y4180985D01*
X557388D01*
X552807Y4179087D01*
X548267Y4181838D01*
X541818Y4188282D01*
Y4197744D01*
X537227Y4208829D01*
X528743Y4217313D01*
X517658Y4221905D01*
D02*
G37*
G36*
X5205353Y918016D02*
X5186879D01*
X5169035Y913235D01*
X5153037Y903998D01*
X5139974Y890935D01*
X5130737Y874937D01*
X5125956Y857093D01*
Y838619D01*
X5130737Y820775D01*
X5139974Y804777D01*
X5153037Y791714D01*
X5169035Y782477D01*
X5186879Y777696D01*
X5205353D01*
X5223197Y782477D01*
X5239195Y791714D01*
X5252258Y804777D01*
X5261494Y820775D01*
X5266276Y838619D01*
Y857093D01*
X5261494Y874937D01*
X5252258Y890935D01*
X5239195Y903998D01*
X5223197Y913235D01*
X5205353Y918016D01*
D02*
G37*
G36*
X8703930Y7510866D02*
Y7510217D01*
X6336569D01*
Y7510791D01*
X6300115Y7507200D01*
X6265062Y7496567D01*
X6232756Y7479299D01*
X6214096Y7463985D01*
X6204553Y7456154D01*
X6204440Y7456061D01*
X6195866Y7446675D01*
X6183568Y7434377D01*
X6180049Y7430859D01*
X6179916Y7430704D01*
X6179862Y7430667D01*
X6175394Y7425456D01*
X6175394D01*
X6171597Y7413299D01*
X6163542Y7392953D01*
X6163125Y7392773D01*
X6163125D01*
X6157031Y7372683D01*
X6156182Y7372180D01*
X6142986Y7370134D01*
X6138123Y7374997D01*
X6127038Y7379589D01*
X6115040D01*
X6103955Y7374997D01*
X6095471Y7366513D01*
X6090879Y7355428D01*
Y7343430D01*
X6095471Y7332345D01*
X6103955Y7323861D01*
X6115040Y7319269D01*
X6127038D01*
X6137199Y7323478D01*
X6138804Y7323536D01*
X6150284Y7318061D01*
Y7281198D01*
X6150076D01*
X6147146Y7258940D01*
X6138554Y7238199D01*
X6124888Y7220388D01*
X6125035Y7220241D01*
X6098774Y7193980D01*
X6098545Y7194209D01*
X6083556Y7182708D01*
X6066101Y7175478D01*
X6047370Y7173012D01*
Y7172687D01*
X6014101D01*
X6014051Y7172809D01*
X6005567Y7181293D01*
X5994482Y7185884D01*
X5982483D01*
X5971398Y7181293D01*
X5962914Y7172809D01*
X5958322Y7161724D01*
Y7149725D01*
X5962914Y7138640D01*
X5971398Y7130156D01*
X5982483Y7125564D01*
X5994482D01*
X6005567Y7130156D01*
X6014051Y7138640D01*
X6014101Y7138761D01*
X6047370D01*
Y7138170D01*
X6075119Y7141823D01*
X6100977Y7152534D01*
X6113380Y7162051D01*
X6128268Y7157468D01*
X6129705Y7154000D01*
X6138189Y7145516D01*
X6149274Y7140925D01*
X6161272D01*
X6172357Y7145516D01*
X6180841Y7154000D01*
X6185433Y7165085D01*
Y7177084D01*
X6180841Y7188169D01*
X6178604Y7190406D01*
X6179244Y7191364D01*
X6186796Y7200936D01*
X6186796Y7200936D01*
X6198087Y7215651D01*
X6205185Y7232787D01*
X6207606Y7251177D01*
X6207324D01*
Y7323932D01*
X6207226Y7324425D01*
X6211571Y7357425D01*
X6224499Y7388636D01*
X6244761Y7415043D01*
X6245179Y7415322D01*
X6245459Y7415740D01*
X6271865Y7436003D01*
X6303076Y7448931D01*
X6336076Y7453275D01*
X6336569Y7453177D01*
X8703930D01*
X8704831Y7453356D01*
X8722913Y7450976D01*
X8724629Y7437940D01*
X8723056Y7437288D01*
X8714572Y7428804D01*
X8709980Y7417719D01*
Y7405721D01*
X8714572Y7394636D01*
X8719991Y7389217D01*
X8722661Y7383981D01*
X8720734Y7373367D01*
X8717112Y7369744D01*
X8712520Y7358659D01*
Y7346661D01*
X8717112Y7335576D01*
X8718081Y7334607D01*
X8724949Y7326310D01*
X8718081Y7318013D01*
X8717112Y7317044D01*
X8712520Y7305959D01*
Y7293961D01*
X8717112Y7282876D01*
X8718485Y7281502D01*
X8722690Y7270596D01*
X8718401Y7264993D01*
X8714572Y7261164D01*
X8709980Y7250079D01*
Y7238081D01*
X8714572Y7226996D01*
X8723056Y7218512D01*
X8734141Y7213920D01*
X8746139D01*
X8747887Y7214644D01*
X8756731Y7204561D01*
X8753021Y7198135D01*
X8747899Y7179020D01*
Y7159230D01*
X8753021Y7140114D01*
X8762916Y7122975D01*
X8776909Y7108982D01*
X8794048Y7099087D01*
X8813163Y7093965D01*
X8832954D01*
X8839528Y7095726D01*
X8840956Y7094523D01*
X8841982Y7077479D01*
X8801059Y7036556D01*
X8801058Y7036556D01*
X8800918Y7036696D01*
X8788330Y7028285D01*
X8775408Y7025715D01*
X8767385Y7033738D01*
X8756299Y7038330D01*
X8744301D01*
X8733216Y7033738D01*
X8724732Y7025254D01*
X8720140Y7014169D01*
Y7002171D01*
X8724732Y6991086D01*
X8725701Y6990117D01*
X8732569Y6981820D01*
X8725701Y6973523D01*
X8724732Y6972554D01*
X8720140Y6961469D01*
Y6949471D01*
X8724732Y6938386D01*
X8725701Y6937417D01*
X8732569Y6929120D01*
X8725701Y6920823D01*
X8724732Y6919854D01*
X8724682Y6919733D01*
X8558511D01*
Y6920055D01*
X8539695Y6922532D01*
X8522160Y6929795D01*
X8507103Y6941349D01*
X8506876Y6941121D01*
X8495980Y6952017D01*
Y6961482D01*
X8491389Y6972567D01*
X8482905Y6981051D01*
X8471819Y6985643D01*
X8459821D01*
X8448736Y6981051D01*
X8446522Y6978837D01*
X8431261Y6981429D01*
X8428995Y6986139D01*
X8431645Y6992536D01*
Y7004535D01*
X8427053Y7015620D01*
X8418569Y7024104D01*
X8407484Y7028695D01*
X8406113D01*
X8395391Y7029706D01*
X8394380Y7040429D01*
Y7041799D01*
X8389789Y7052884D01*
X8381305Y7061368D01*
X8370219Y7065960D01*
X8365014D01*
X8356178Y7077814D01*
X8356280Y7078061D01*
Y7088909D01*
X8359157Y7092676D01*
X8366566Y7098413D01*
X8383167Y7093965D01*
X8402957D01*
X8422073Y7099087D01*
X8439211Y7108982D01*
X8453205Y7122975D01*
X8463100Y7140114D01*
X8468222Y7159230D01*
Y7179020D01*
X8463100Y7198135D01*
X8453205Y7215274D01*
X8439211Y7229267D01*
X8422073Y7239162D01*
X8402957Y7244284D01*
X8383167D01*
X8364051Y7239162D01*
X8346913Y7229267D01*
X8332919Y7215274D01*
X8323024Y7198135D01*
X8317902Y7179020D01*
Y7159230D01*
X8323024Y7140114D01*
X8330642Y7126920D01*
X8325947Y7116248D01*
X8323845Y7114220D01*
X8320121D01*
X8309036Y7109628D01*
X8300552Y7101144D01*
X8295960Y7090059D01*
Y7078061D01*
X8300552Y7066976D01*
X8309036Y7058492D01*
X8320121Y7053900D01*
X8325326D01*
X8334163Y7042046D01*
X8334060Y7041799D01*
Y7029801D01*
X8338652Y7018716D01*
X8347136Y7010232D01*
X8358221Y7005640D01*
X8359592D01*
X8370314Y7004630D01*
X8371325Y6993907D01*
Y6992536D01*
X8375916Y6981451D01*
X8384400Y6972967D01*
X8385966Y6960652D01*
X8382842Y6953109D01*
Y6941110D01*
X8383732Y6938960D01*
X8375246Y6926260D01*
X8373461D01*
X8362376Y6921668D01*
X8353892Y6913184D01*
X8349300Y6902099D01*
Y6890101D01*
X8353892Y6879016D01*
X8353911Y6878997D01*
X8359000Y6867493D01*
X8350516Y6859009D01*
X8345925Y6847924D01*
Y6846553D01*
X8344914Y6835830D01*
X8334192Y6834820D01*
X8332821D01*
X8321736Y6830228D01*
X8313252Y6821744D01*
X8308660Y6810659D01*
Y6798661D01*
X8311738Y6791230D01*
X8312177Y6785789D01*
X8306505Y6776362D01*
X8301644Y6774348D01*
X8293160Y6765864D01*
X8288568Y6754779D01*
Y6742781D01*
X8293160Y6731696D01*
X8301644Y6723212D01*
X8311331Y6719199D01*
X8312729Y6718620D01*
X8319753Y6705920D01*
X8317902Y6699010D01*
Y6679220D01*
X8323024Y6660105D01*
X8332919Y6642966D01*
X8346913Y6628973D01*
X8364051Y6619078D01*
X8383167Y6613956D01*
X8402957D01*
X8422073Y6619078D01*
X8439211Y6628973D01*
X8453205Y6642966D01*
X8463100Y6660105D01*
X8468222Y6679220D01*
Y6699010D01*
X8463100Y6718126D01*
X8453205Y6735265D01*
X8439211Y6749258D01*
X8422073Y6759153D01*
X8402957Y6764275D01*
X8383167D01*
X8364052Y6759153D01*
X8352415Y6765752D01*
X8349662Y6774782D01*
X8351043Y6777078D01*
X8355905Y6779092D01*
X8364389Y6787576D01*
X8368980Y6798661D01*
Y6800031D01*
X8369991Y6810754D01*
X8380713Y6811765D01*
X8382084D01*
X8393169Y6816356D01*
X8401653Y6824840D01*
X8406245Y6835925D01*
Y6847924D01*
X8401653Y6859009D01*
X8401634Y6859028D01*
X8396545Y6870532D01*
X8405028Y6879016D01*
X8409620Y6890101D01*
Y6902099D01*
X8408729Y6904249D01*
X8415971Y6915086D01*
X8425715Y6917105D01*
X8430963Y6912713D01*
X8435660Y6907955D01*
Y6896784D01*
X8440252Y6885698D01*
X8442282Y6883668D01*
X8447587Y6875410D01*
X8442282Y6867075D01*
X8440288Y6865081D01*
X8435696Y6853996D01*
Y6841998D01*
X8440288Y6830913D01*
X8448772Y6822429D01*
X8459857Y6817837D01*
X8471856D01*
X8482941Y6822429D01*
X8491425Y6830913D01*
X8491475Y6831034D01*
X8714663D01*
Y6830461D01*
X8741864Y6834042D01*
X8750620Y6837669D01*
X8763320Y6829183D01*
Y6829141D01*
X8767912Y6818056D01*
X8776396Y6809572D01*
X8787481Y6804980D01*
X8788852D01*
X8799574Y6803970D01*
X8800585Y6793247D01*
Y6791876D01*
X8805176Y6780791D01*
X8809520Y6776447D01*
X8806622Y6762522D01*
X8794048Y6759153D01*
X8776909Y6749258D01*
X8762916Y6735265D01*
X8753021Y6718126D01*
X8747899Y6699010D01*
Y6679220D01*
X8753021Y6660105D01*
X8762916Y6642966D01*
X8776909Y6628973D01*
X8794048Y6619078D01*
X8813163Y6613956D01*
X8832954D01*
X8852069Y6619078D01*
X8869208Y6628973D01*
X8883201Y6642966D01*
X8893096Y6660105D01*
X8898218Y6679220D01*
Y6699010D01*
X8893096Y6718126D01*
X8885479Y6731320D01*
X8890173Y6741992D01*
X8892275Y6744020D01*
X8892988D01*
X8904073Y6748612D01*
X8912557Y6757096D01*
X8917149Y6768181D01*
Y6780179D01*
X8912557Y6791264D01*
X8904073Y6799748D01*
X8892988Y6804340D01*
X8880990D01*
X8873605Y6801281D01*
X8865505Y6802935D01*
X8859489Y6807293D01*
X8856313Y6814960D01*
X8847829Y6823444D01*
X8836744Y6828035D01*
X8835373D01*
X8824651Y6829046D01*
X8823640Y6839769D01*
Y6841139D01*
X8820551Y6848596D01*
X8824054Y6854749D01*
X8827250Y6858631D01*
X8828644Y6859720D01*
X8838882D01*
X8849967Y6864312D01*
X8858451Y6872796D01*
X8863042Y6883881D01*
Y6895879D01*
X8858451Y6906964D01*
X8849967Y6915448D01*
X8838882Y6920040D01*
X8830526D01*
X8824602Y6924861D01*
X8819759Y6935556D01*
X8820899Y6947423D01*
X8822495Y6959549D01*
X8831756Y6981906D01*
X8846488Y7001105D01*
X8846381Y7001212D01*
X8897175Y7052006D01*
X8897584Y7052618D01*
X8898160Y7053079D01*
X8903513Y7059441D01*
X8904330Y7060925D01*
X8918043Y7077634D01*
X8937555Y7114139D01*
X8949571Y7153749D01*
X8953628Y7194942D01*
X8952937D01*
Y7266374D01*
X8953526D01*
X8949875Y7303442D01*
X8939063Y7339085D01*
X8921505Y7371934D01*
X8897875Y7400727D01*
X8897875Y7400727D01*
X8888478Y7409291D01*
X8853498Y7444271D01*
X8844990Y7452780D01*
X8845525Y7454067D01*
X8845525Y7454068D01*
X8845523Y7454069D01*
X8835532Y7461074D01*
X8816450Y7476734D01*
X8781436Y7495450D01*
X8743442Y7506975D01*
X8703930Y7510866D01*
D02*
G37*
G36*
X8360059Y7322500D02*
X8348061D01*
X8336976Y7317908D01*
X8328660Y7309593D01*
X8320344Y7317908D01*
X8309259Y7322500D01*
X8297261D01*
X8286176Y7317908D01*
X8277692Y7309424D01*
X8273100Y7298339D01*
Y7286341D01*
X8277692Y7275256D01*
X8286176Y7266772D01*
X8297261Y7262180D01*
X8309259D01*
X8320344Y7266772D01*
X8328660Y7275087D01*
X8336976Y7266772D01*
X8348061Y7262180D01*
X8360059D01*
X8371144Y7266772D01*
X8379628Y7275256D01*
X8384220Y7286341D01*
Y7298339D01*
X8379628Y7309424D01*
X8371144Y7317908D01*
X8360059Y7322500D01*
D02*
G37*
G36*
X8193796Y7321855D02*
X8181797D01*
X8170712Y7317263D01*
X8162228Y7308779D01*
X8157636Y7297694D01*
Y7285696D01*
X8162228Y7274611D01*
X8170712Y7266127D01*
X8181797Y7261535D01*
X8193796D01*
X8204881Y7266127D01*
X8213365Y7274611D01*
X8217956Y7285696D01*
Y7297694D01*
X8213365Y7308779D01*
X8204881Y7317263D01*
X8193796Y7321855D01*
D02*
G37*
G36*
X8614637Y7348122D02*
X8601509D01*
X8599488Y7347285D01*
X8597300D01*
X8585172Y7342261D01*
X8583625Y7340715D01*
X8581604Y7339878D01*
X8572321Y7330595D01*
X8571484Y7328573D01*
X8569937Y7327027D01*
X8564913Y7314898D01*
Y7312711D01*
X8564076Y7310690D01*
Y7297562D01*
X8564913Y7295541D01*
Y7293353D01*
X8569937Y7281224D01*
X8571484Y7279678D01*
X8572321Y7277657D01*
X8581604Y7268374D01*
X8583624Y7267537D01*
X8585171Y7265990D01*
X8597300Y7260966D01*
X8599488D01*
X8601509Y7260129D01*
X8614637D01*
X8616658Y7260966D01*
X8618845D01*
X8630974Y7265990D01*
X8632521Y7267537D01*
X8634542Y7268374D01*
X8643825Y7277657D01*
X8644662Y7279677D01*
X8646209Y7281224D01*
X8651233Y7293353D01*
Y7295541D01*
X8652070Y7297562D01*
Y7310690D01*
X8651233Y7312711D01*
Y7314898D01*
X8646209Y7327027D01*
X8644662Y7328574D01*
X8643825Y7330595D01*
X8634542Y7339878D01*
X8632520Y7340715D01*
X8630974Y7342261D01*
X8618845Y7347285D01*
X8616658D01*
X8614637Y7348122D01*
D02*
G37*
G36*
X7612720Y7137654D02*
X7594261D01*
X7576431Y7132877D01*
X7560445Y7123647D01*
X7547393Y7110595D01*
X7538164Y7094609D01*
X7533386Y7076779D01*
Y7058321D01*
X7538164Y7040491D01*
X7547393Y7024505D01*
X7560445Y7011453D01*
X7576431Y7002223D01*
X7594261Y6997446D01*
X7612720D01*
X7630549Y7002223D01*
X7646535Y7011453D01*
X7659587Y7024505D01*
X7668817Y7040491D01*
X7673594Y7058321D01*
Y7076779D01*
X7668817Y7094609D01*
X7659587Y7110595D01*
X7646535Y7123647D01*
X7630549Y7132877D01*
X7612720Y7137654D01*
D02*
G37*
G36*
X7412568D02*
X7394109D01*
X7376279Y7132877D01*
X7360293Y7123647D01*
X7347241Y7110595D01*
X7338012Y7094609D01*
X7333234Y7076779D01*
Y7058321D01*
X7338012Y7040491D01*
X7347241Y7024505D01*
X7360293Y7011453D01*
X7376279Y7002223D01*
X7394109Y6997446D01*
X7412568D01*
X7430397Y7002223D01*
X7446383Y7011453D01*
X7459435Y7024505D01*
X7468665Y7040491D01*
X7473442Y7058321D01*
Y7076779D01*
X7468665Y7094609D01*
X7459435Y7110595D01*
X7446383Y7123647D01*
X7430397Y7132877D01*
X7412568Y7137654D01*
D02*
G37*
G36*
X7212670D02*
X7194211D01*
X7176381Y7132877D01*
X7160395Y7123647D01*
X7147343Y7110595D01*
X7138114Y7094609D01*
X7133336Y7076779D01*
Y7058321D01*
X7138114Y7040491D01*
X7147343Y7024505D01*
X7160395Y7011453D01*
X7176381Y7002223D01*
X7194211Y6997446D01*
X7212670D01*
X7230499Y7002223D01*
X7246485Y7011453D01*
X7259537Y7024505D01*
X7268767Y7040491D01*
X7273544Y7058321D01*
Y7076779D01*
X7268767Y7094609D01*
X7259537Y7110595D01*
X7246485Y7123647D01*
X7230499Y7132877D01*
X7212670Y7137654D01*
D02*
G37*
G36*
X7012772D02*
X6994313D01*
X6976483Y7132877D01*
X6960497Y7123647D01*
X6947445Y7110595D01*
X6938216Y7094609D01*
X6933438Y7076779D01*
Y7058321D01*
X6938216Y7040491D01*
X6947445Y7024505D01*
X6960497Y7011453D01*
X6976483Y7002223D01*
X6994313Y6997446D01*
X7012772D01*
X7030601Y7002223D01*
X7046587Y7011453D01*
X7059639Y7024505D01*
X7068869Y7040491D01*
X7073646Y7058321D01*
Y7076779D01*
X7068869Y7094609D01*
X7059639Y7110595D01*
X7046587Y7123647D01*
X7030601Y7132877D01*
X7012772Y7137654D01*
D02*
G37*
G36*
X6812620D02*
X6794161D01*
X6776331Y7132877D01*
X6760345Y7123647D01*
X6747293Y7110595D01*
X6738064Y7094609D01*
X6733286Y7076779D01*
Y7058321D01*
X6738064Y7040491D01*
X6747293Y7024505D01*
X6760345Y7011453D01*
X6776331Y7002223D01*
X6794161Y6997446D01*
X6812620D01*
X6830449Y7002223D01*
X6846435Y7011453D01*
X6859487Y7024505D01*
X6868717Y7040491D01*
X6873494Y7058321D01*
Y7076779D01*
X6868717Y7094609D01*
X6859487Y7110595D01*
X6846435Y7123647D01*
X6830449Y7132877D01*
X6812620Y7137654D01*
D02*
G37*
G36*
X7562682Y6987794D02*
X7544223D01*
X7526393Y6983017D01*
X7510407Y6973787D01*
X7497355Y6960735D01*
X7488126Y6944749D01*
X7483348Y6926919D01*
Y6908461D01*
X7488126Y6890631D01*
X7497355Y6874645D01*
X7510407Y6861593D01*
X7526393Y6852363D01*
X7544223Y6847586D01*
X7562682D01*
X7580511Y6852363D01*
X7596497Y6861593D01*
X7609549Y6874645D01*
X7618779Y6890631D01*
X7623556Y6908461D01*
Y6926919D01*
X7618779Y6944749D01*
X7609549Y6960735D01*
X7596497Y6973787D01*
X7580511Y6983017D01*
X7562682Y6987794D01*
D02*
G37*
G36*
X7312746D02*
X7294287D01*
X7276457Y6983017D01*
X7260471Y6973787D01*
X7247419Y6960735D01*
X7238190Y6944749D01*
X7233412Y6926919D01*
Y6908461D01*
X7238190Y6890631D01*
X7247419Y6874645D01*
X7260471Y6861593D01*
X7276457Y6852363D01*
X7294287Y6847586D01*
X7312746D01*
X7330575Y6852363D01*
X7346561Y6861593D01*
X7359613Y6874645D01*
X7368843Y6890631D01*
X7373620Y6908461D01*
Y6926919D01*
X7368843Y6944749D01*
X7359613Y6960735D01*
X7346561Y6973787D01*
X7330575Y6983017D01*
X7312746Y6987794D01*
D02*
G37*
G36*
X7112594D02*
X7094135D01*
X7076305Y6983017D01*
X7060319Y6973787D01*
X7047267Y6960735D01*
X7038038Y6944749D01*
X7033260Y6926919D01*
Y6908461D01*
X7038038Y6890631D01*
X7047267Y6874645D01*
X7060319Y6861593D01*
X7076305Y6852363D01*
X7094135Y6847586D01*
X7112594D01*
X7130423Y6852363D01*
X7146409Y6861593D01*
X7159461Y6874645D01*
X7168691Y6890631D01*
X7173468Y6908461D01*
Y6926919D01*
X7168691Y6944749D01*
X7159461Y6960735D01*
X7146409Y6973787D01*
X7130423Y6983017D01*
X7112594Y6987794D01*
D02*
G37*
G36*
X7859293Y7087743D02*
X7827747D01*
X7796807Y7081589D01*
X7767662Y7069516D01*
X7741433Y7051990D01*
X7719126Y7029684D01*
X7701600Y7003454D01*
X7689527Y6974309D01*
X7683373Y6943369D01*
Y6911823D01*
X7689527Y6880883D01*
X7701600Y6851738D01*
X7719126Y6825508D01*
X7741433Y6803202D01*
X7767662Y6785676D01*
X7796807Y6773603D01*
X7827747Y6767449D01*
X7859293D01*
X7890233Y6773603D01*
X7919378Y6785676D01*
X7945608Y6803202D01*
X7967915Y6825508D01*
X7985441Y6851738D01*
X7997513Y6880883D01*
X8003667Y6911823D01*
Y6943369D01*
X7997513Y6974309D01*
X7985441Y7003454D01*
X7967915Y7029684D01*
X7945608Y7051990D01*
X7919378Y7069516D01*
X7890233Y7081589D01*
X7859293Y7087743D01*
D02*
G37*
G36*
X6579133D02*
X6547587D01*
X6516647Y7081589D01*
X6487502Y7069516D01*
X6461273Y7051990D01*
X6438966Y7029684D01*
X6421440Y7003454D01*
X6409367Y6974309D01*
X6403213Y6943369D01*
Y6911823D01*
X6409367Y6880883D01*
X6421440Y6851738D01*
X6438966Y6825508D01*
X6461273Y6803202D01*
X6487502Y6785676D01*
X6516647Y6773603D01*
X6547587Y6767449D01*
X6579133D01*
X6610073Y6773603D01*
X6639218Y6785676D01*
X6665448Y6803202D01*
X6687755Y6825508D01*
X6705281Y6851738D01*
X6717353Y6880883D01*
X6723507Y6911823D01*
Y6943369D01*
X6717353Y6974309D01*
X6705281Y7003454D01*
X6687755Y7029684D01*
X6665448Y7051990D01*
X6639218Y7069516D01*
X6610073Y7081589D01*
X6579133Y7087743D01*
D02*
G37*
G36*
X8613812Y6613308D02*
X8602329D01*
X8600317Y6612474D01*
X8598139Y6612479D01*
X8587523Y6608104D01*
X8585980Y6606567D01*
X8583964Y6605740D01*
X8575816Y6597650D01*
X8574975Y6595641D01*
X8573427Y6594109D01*
X8568975Y6583525D01*
X8568963Y6581347D01*
X8568115Y6579341D01*
X8568074Y6573599D01*
X8568090Y6573561D01*
X8568074Y6573523D01*
X8568064Y6532301D01*
X8568177Y6532029D01*
X8568078Y6531751D01*
X8568355Y6526170D01*
X8569264Y6524252D01*
X8569343Y6522132D01*
X8574003Y6511972D01*
X8575558Y6510529D01*
X8576418Y6508589D01*
X8584516Y6500884D01*
X8586496Y6500122D01*
X8588015Y6498640D01*
X8598394Y6494491D01*
X8600516Y6494518D01*
X8602477Y6493706D01*
X8608065Y6493706D01*
X8608065Y6493706D01*
X8608066Y6493706D01*
X8613631D01*
X8615583Y6494515D01*
X8617697Y6494485D01*
X8628040Y6498601D01*
X8629555Y6500075D01*
X8631529Y6500829D01*
X8639617Y6508477D01*
X8640480Y6510406D01*
X8642036Y6511837D01*
X8646723Y6521933D01*
X8646812Y6524045D01*
X8647728Y6525949D01*
X8648039Y6531506D01*
X8647931Y6531815D01*
X8648056Y6532118D01*
X8648067Y6573517D01*
X8648050Y6573558D01*
X8648067Y6573599D01*
X8648025Y6579340D01*
X8647177Y6581347D01*
X8647165Y6583525D01*
X8642714Y6594109D01*
X8641166Y6595641D01*
X8640325Y6597650D01*
X8632176Y6605740D01*
X8630161Y6606567D01*
X8628618Y6608104D01*
X8618002Y6612479D01*
X8615824Y6612474D01*
X8613812Y6613308D01*
D02*
G37*
G36*
X7966359Y6593520D02*
X7954361D01*
X7943276Y6588928D01*
X7937500Y6583153D01*
X7931724Y6588928D01*
X7920639Y6593520D01*
X7908641D01*
X7897556Y6588928D01*
X7889072Y6580444D01*
X7884480Y6569359D01*
Y6557361D01*
X7889072Y6546276D01*
X7897556Y6537792D01*
X7908641Y6533200D01*
X7920639D01*
X7931724Y6537792D01*
X7937500Y6543567D01*
X7943276Y6537792D01*
X7954361Y6533200D01*
X7966359D01*
X7977444Y6537792D01*
X7985928Y6546276D01*
X7990520Y6557361D01*
Y6569359D01*
X7985928Y6580444D01*
X7977444Y6588928D01*
X7966359Y6593520D01*
D02*
G37*
G36*
X8218067Y6590497D02*
X8206068D01*
X8194983Y6585905D01*
X8186499Y6577421D01*
X8181908Y6566336D01*
Y6554338D01*
X8186499Y6543253D01*
X8194983Y6534768D01*
X8206068Y6530177D01*
X8218067D01*
X8229152Y6534768D01*
X8237636Y6543253D01*
X8242228Y6554338D01*
Y6566336D01*
X8237636Y6577421D01*
X8229152Y6585905D01*
X8218067Y6590497D01*
D02*
G37*
G36*
X7514239Y6273480D02*
X7502241D01*
X7491156Y6268888D01*
X7482672Y6260404D01*
X7478080Y6249319D01*
Y6237321D01*
X7482672Y6226236D01*
X7491156Y6217752D01*
X7502241Y6213160D01*
X7514239D01*
X7525325Y6217752D01*
X7533809Y6226236D01*
X7538400Y6237321D01*
Y6249319D01*
X7533809Y6260404D01*
X7525325Y6268888D01*
X7514239Y6273480D01*
D02*
G37*
G36*
X7951119Y6270940D02*
X7939121D01*
X7928036Y6266348D01*
X7919552Y6257864D01*
X7914960Y6246779D01*
Y6234781D01*
X7919552Y6223696D01*
X7928036Y6215212D01*
X7928287Y6215108D01*
Y6173437D01*
X7865695Y6110846D01*
X7862046Y6105385D01*
X7860765Y6098943D01*
Y6076047D01*
Y5813002D01*
X7862046Y5806560D01*
X7865695Y5801099D01*
X7927341Y5739453D01*
X7922080Y5726753D01*
X7580561D01*
X7530153Y5777161D01*
Y5834108D01*
X7530404Y5834212D01*
X7538888Y5842696D01*
X7543480Y5853781D01*
Y5865779D01*
X7538888Y5876864D01*
X7530404Y5885348D01*
X7519319Y5889940D01*
X7507321D01*
X7502214Y5887824D01*
X7489513Y5895220D01*
Y5938520D01*
X7488232Y5944962D01*
X7484583Y5950423D01*
X7451936Y5983070D01*
X7452040Y5983321D01*
Y5995319D01*
X7447448Y6006404D01*
X7438964Y6014888D01*
X7427879Y6019480D01*
X7415881D01*
X7404796Y6014888D01*
X7396312Y6006404D01*
X7391720Y5995319D01*
Y5983321D01*
X7396312Y5972236D01*
X7404796Y5963752D01*
X7415881Y5959160D01*
X7427879D01*
X7428130Y5959264D01*
X7455847Y5931547D01*
Y5778500D01*
X7457128Y5772058D01*
X7460777Y5766597D01*
X7554757Y5672617D01*
X7560218Y5668968D01*
X7566660Y5667687D01*
X7926139D01*
X7955648Y5638177D01*
Y5632244D01*
X7947537Y5621857D01*
X7757160D01*
X7749384Y5618636D01*
X7701124Y5570376D01*
X7697903Y5562600D01*
Y5430520D01*
X7701124Y5422744D01*
X7743311Y5380557D01*
X7738050Y5367857D01*
X7663180D01*
X7655404Y5364636D01*
X7633550Y5342782D01*
X7629464Y5346868D01*
X7618379Y5351460D01*
X7606381D01*
X7595296Y5346868D01*
X7586812Y5338384D01*
X7582220Y5327299D01*
Y5315301D01*
X7586812Y5304216D01*
X7595296Y5295732D01*
X7606381Y5291140D01*
X7618379D01*
X7626783Y5285525D01*
Y4848860D01*
X7630004Y4841084D01*
X7630005Y4841084D01*
X7648340Y4822748D01*
X7652158Y4821167D01*
X7651384Y4819299D01*
Y4807301D01*
X7654088Y4800772D01*
X7647285Y4789451D01*
X7646372Y4788740D01*
X7640478D01*
X7629393Y4784148D01*
X7620909Y4775664D01*
X7616317Y4764579D01*
Y4752581D01*
X7620909Y4741496D01*
X7629393Y4733012D01*
X7640478Y4728420D01*
X7652476D01*
X7663562Y4733012D01*
X7671031Y4740481D01*
X7674513Y4740751D01*
X7675645Y4740634D01*
X7684552Y4738501D01*
X7687928Y4730350D01*
X7696412Y4721866D01*
X7707497Y4717274D01*
X7719495D01*
X7721691Y4718184D01*
X7727790Y4713426D01*
X7732080Y4708741D01*
Y4698081D01*
X7736672Y4686996D01*
X7745156Y4678512D01*
X7756241Y4673920D01*
X7768239D01*
X7779325Y4678512D01*
X7787809Y4686996D01*
X7792400Y4698081D01*
Y4710079D01*
X7787809Y4721164D01*
X7779325Y4729648D01*
X7768239Y4734240D01*
X7756241D01*
X7754046Y4733331D01*
X7747947Y4738088D01*
X7743656Y4742774D01*
Y4753433D01*
X7739065Y4764519D01*
X7731760Y4771823D01*
X7732483Y4777322D01*
X7735654Y4784523D01*
X8426535D01*
X8429498Y4785750D01*
X8432645Y4786376D01*
X8433271Y4787313D01*
X8434311Y4787744D01*
X8444675D01*
X8447272Y4787436D01*
X8447570Y4787313D01*
X8448196Y4786376D01*
X8451342Y4785750D01*
X8454305Y4784523D01*
X8512680D01*
X8514157Y4785135D01*
X8517272Y4777616D01*
X8525756Y4769132D01*
X8536841Y4764540D01*
X8548839D01*
X8559924Y4769132D01*
X8568409Y4777616D01*
X8571523Y4785135D01*
X8573000Y4784523D01*
X8670160D01*
X8671637Y4785135D01*
X8674752Y4777616D01*
X8683236Y4769132D01*
X8694321Y4764540D01*
X8706319D01*
X8717404Y4769132D01*
X8725889Y4777616D01*
X8730480Y4788701D01*
Y4800699D01*
X8727246Y4808508D01*
X8728603Y4809070D01*
X8836816Y4917284D01*
X8840037Y4925060D01*
Y5442554D01*
X8852737Y5445080D01*
X8854272Y5441376D01*
X8862756Y5432892D01*
X8873841Y5428300D01*
X8885839D01*
X8896925Y5432892D01*
X8905409Y5441376D01*
X8910000Y5452461D01*
Y5464459D01*
X8905409Y5475544D01*
X8896925Y5484028D01*
X8885839Y5488620D01*
X8873841D01*
X8862756Y5484028D01*
X8854272Y5475544D01*
X8852737Y5471840D01*
X8840037Y5474366D01*
Y5730240D01*
X8836816Y5738016D01*
X8699656Y5875176D01*
X8691880Y5878397D01*
X8226186D01*
X8224165Y5877560D01*
X8221978D01*
X8220431Y5876013D01*
X8218410Y5875176D01*
X8205840Y5871153D01*
X8201816Y5875176D01*
X8194040Y5878397D01*
X7965440D01*
X7957664Y5875176D01*
X7957664Y5875176D01*
X7947504Y5865016D01*
X7944283Y5857240D01*
Y5819045D01*
X7932550Y5814185D01*
X7917292Y5829443D01*
Y6082502D01*
X7929329Y6094539D01*
X7933116Y6090752D01*
X7944201Y6086160D01*
X7956199D01*
X7967284Y6090752D01*
X7975768Y6099236D01*
X7980360Y6110321D01*
Y6122319D01*
X7975768Y6133404D01*
X7967284Y6141888D01*
X7963767Y6143345D01*
X7961731Y6146731D01*
X7959463Y6158213D01*
X7960672Y6160023D01*
X7961953Y6166465D01*
Y6215108D01*
X7962204Y6215212D01*
X7970688Y6223696D01*
X7975280Y6234781D01*
Y6246779D01*
X7970688Y6257864D01*
X7962204Y6266348D01*
X7951119Y6270940D01*
D02*
G37*
G36*
X8553099Y6001700D02*
X8541101D01*
X8530016Y5997108D01*
X8521532Y5988624D01*
X8516940Y5977539D01*
Y5965541D01*
X8521532Y5954456D01*
X8530016Y5945972D01*
X8541101Y5941380D01*
X8553099D01*
X8564185Y5945972D01*
X8572669Y5954456D01*
X8577260Y5965541D01*
Y5977539D01*
X8572669Y5988624D01*
X8564185Y5997108D01*
X8553099Y6001700D01*
D02*
G37*
G36*
X8448959D02*
X8436961D01*
X8425876Y5997108D01*
X8417392Y5988624D01*
X8412800Y5977539D01*
Y5965541D01*
X8417392Y5954456D01*
X8425876Y5945972D01*
X8436961Y5941380D01*
X8448959D01*
X8460045Y5945972D01*
X8468529Y5954456D01*
X8473120Y5965541D01*
Y5977539D01*
X8468529Y5988624D01*
X8460045Y5997108D01*
X8448959Y6001700D01*
D02*
G37*
G36*
X8342279D02*
X8330281D01*
X8319196Y5997108D01*
X8310712Y5988624D01*
X8306120Y5977539D01*
Y5965541D01*
X8310712Y5954456D01*
X8319196Y5945972D01*
X8330281Y5941380D01*
X8342279D01*
X8353365Y5945972D01*
X8361849Y5954456D01*
X8366440Y5965541D01*
Y5977539D01*
X8361849Y5988624D01*
X8353365Y5997108D01*
X8342279Y6001700D01*
D02*
G37*
G36*
X7592979Y5610540D02*
X7580981D01*
X7569896Y5605948D01*
X7561412Y5597464D01*
X7556820Y5586379D01*
Y5574381D01*
X7561412Y5563296D01*
X7569896Y5554812D01*
X7580981Y5550220D01*
X7592979D01*
X7604065Y5554812D01*
X7612549Y5563296D01*
X7617140Y5574381D01*
Y5586379D01*
X7612549Y5597464D01*
X7604065Y5605948D01*
X7592979Y5610540D01*
D02*
G37*
G36*
X8893459Y5595300D02*
X8881461D01*
X8870376Y5590708D01*
X8861892Y5582224D01*
X8857300Y5571139D01*
Y5559141D01*
X8861892Y5548056D01*
X8870376Y5539572D01*
X8881461Y5534980D01*
X8893459D01*
X8904545Y5539572D01*
X8913029Y5548056D01*
X8917620Y5559141D01*
Y5571139D01*
X8913029Y5582224D01*
X8904545Y5590708D01*
X8893459Y5595300D01*
D02*
G37*
G36*
X7605679Y5501320D02*
X7593681D01*
X7582596Y5496728D01*
X7574112Y5488244D01*
X7569520Y5477159D01*
Y5465161D01*
X7574112Y5454076D01*
X7582596Y5445592D01*
X7593681Y5441000D01*
X7605679D01*
X7616765Y5445592D01*
X7625249Y5454076D01*
X7629840Y5465161D01*
Y5477159D01*
X7625249Y5488244D01*
X7616765Y5496728D01*
X7605679Y5501320D01*
D02*
G37*
G36*
X8895999Y5163500D02*
X8884001D01*
X8872916Y5158908D01*
X8864432Y5150424D01*
X8859840Y5139339D01*
Y5127341D01*
X8864432Y5116256D01*
X8872916Y5107772D01*
X8884001Y5103180D01*
X8895999D01*
X8907085Y5107772D01*
X8915569Y5116256D01*
X8920160Y5127341D01*
Y5139339D01*
X8915569Y5150424D01*
X8907085Y5158908D01*
X8895999Y5163500D01*
D02*
G37*
G36*
X8893459Y5054280D02*
X8881461D01*
X8870376Y5049688D01*
X8861892Y5041204D01*
X8857300Y5030119D01*
Y5018121D01*
X8861892Y5007036D01*
X8870376Y4998552D01*
X8881461Y4993960D01*
X8893459D01*
X8904545Y4998552D01*
X8913029Y5007036D01*
X8917620Y5018121D01*
Y5030119D01*
X8913029Y5041204D01*
X8904545Y5049688D01*
X8893459Y5054280D01*
D02*
G37*
G36*
X8311799Y4729160D02*
X8299801D01*
X8288716Y4724568D01*
X8280232Y4716084D01*
X8275640Y4704999D01*
Y4693001D01*
X8280232Y4681916D01*
X8288716Y4673432D01*
X8299801Y4668840D01*
X8311799D01*
X8322885Y4673432D01*
X8331369Y4681916D01*
X8335960Y4693001D01*
Y4704999D01*
X8331369Y4716084D01*
X8322885Y4724568D01*
X8311799Y4729160D01*
D02*
G37*
G36*
X8194959D02*
X8182961D01*
X8171876Y4724568D01*
X8163392Y4716084D01*
X8158800Y4704999D01*
Y4693001D01*
X8163392Y4681916D01*
X8171876Y4673432D01*
X8182961Y4668840D01*
X8194959D01*
X8206045Y4673432D01*
X8214529Y4681916D01*
X8219120Y4693001D01*
Y4704999D01*
X8214529Y4716084D01*
X8206045Y4724568D01*
X8194959Y4729160D01*
D02*
G37*
G36*
X8804614Y4708840D02*
X8792616D01*
X8781531Y4704248D01*
X8773047Y4695764D01*
X8768455Y4684679D01*
Y4672681D01*
X8773047Y4661596D01*
X8781531Y4653112D01*
X8792616Y4648520D01*
X8804614D01*
X8815699Y4653112D01*
X8824184Y4661596D01*
X8828775Y4672681D01*
Y4684679D01*
X8824184Y4695764D01*
X8815699Y4704248D01*
X8804614Y4708840D01*
D02*
G37*
G36*
X8729620Y4614860D02*
X8717621D01*
X8706536Y4610268D01*
X8698052Y4601784D01*
X8693460Y4590699D01*
Y4578701D01*
X8698052Y4567616D01*
X8706536Y4559132D01*
X8717621Y4554540D01*
X8729620D01*
X8740705Y4559132D01*
X8749189Y4567616D01*
X8753780Y4578701D01*
Y4590699D01*
X8749189Y4601784D01*
X8740705Y4610268D01*
X8729620Y4614860D01*
D02*
G37*
G36*
X8428639Y4564060D02*
X8416641D01*
X8405556Y4559468D01*
X8397072Y4550984D01*
X8392480Y4539899D01*
Y4527901D01*
X8397072Y4516816D01*
X8405556Y4508332D01*
X8416641Y4503740D01*
X8428639D01*
X8439725Y4508332D01*
X8448209Y4516816D01*
X8452800Y4527901D01*
Y4539899D01*
X8448209Y4550984D01*
X8439725Y4559468D01*
X8428639Y4564060D01*
D02*
G37*
G36*
X7440579Y4340540D02*
X7428581D01*
X7417496Y4335948D01*
X7409012Y4327464D01*
X7404420Y4316379D01*
Y4304381D01*
X7409012Y4293296D01*
X7417496Y4284812D01*
X7428581Y4280220D01*
X7440579D01*
X7451665Y4284812D01*
X7460149Y4293296D01*
X7464740Y4304381D01*
Y4316379D01*
X7460149Y4327464D01*
X7451665Y4335948D01*
X7440579Y4340540D01*
D02*
G37*
G36*
X7935879Y4332920D02*
X7923881D01*
X7912796Y4328328D01*
X7904312Y4319844D01*
X7899720Y4308759D01*
Y4296761D01*
X7904312Y4285676D01*
X7912796Y4277192D01*
X7923881Y4272600D01*
X7935879D01*
X7936130Y4272704D01*
X7957177Y4251657D01*
Y4200090D01*
X7944477Y4191763D01*
X7940959Y4193220D01*
X7928961D01*
X7917876Y4188628D01*
X7909392Y4180144D01*
X7904800Y4169059D01*
Y4157061D01*
X7909392Y4145976D01*
X7917876Y4137492D01*
X7928961Y4132900D01*
X7934317D01*
Y3903030D01*
X7935598Y3896588D01*
X7939247Y3891127D01*
X8023861Y3806513D01*
X8021379Y3797173D01*
X8019027Y3793813D01*
X7588873D01*
X7509834Y3872853D01*
Y4008120D01*
X7508552Y4014562D01*
X7504903Y4020023D01*
X7472256Y4052670D01*
X7472360Y4052921D01*
Y4064919D01*
X7467769Y4076004D01*
X7459285Y4084488D01*
X7448199Y4089080D01*
X7436201D01*
X7425116Y4084488D01*
X7416632Y4076004D01*
X7412040Y4064919D01*
Y4052921D01*
X7416632Y4041836D01*
X7425116Y4033352D01*
X7436201Y4028760D01*
X7448199D01*
X7448450Y4028864D01*
X7476167Y4001147D01*
Y3963647D01*
X7464364Y3957488D01*
X7453279Y3962080D01*
X7441281D01*
X7430196Y3957488D01*
X7421712Y3949004D01*
X7417120Y3937919D01*
Y3925921D01*
X7421712Y3914836D01*
X7430196Y3906352D01*
X7441281Y3901760D01*
X7453279D01*
X7453307Y3901741D01*
Y3856411D01*
X7454588Y3849969D01*
X7458237Y3844508D01*
X7560528Y3742217D01*
X7565990Y3738568D01*
X7572431Y3737287D01*
X8010957D01*
X8011028Y3737180D01*
X8004240Y3724480D01*
X7863840Y3724477D01*
X7856064Y3721256D01*
X7817964Y3683156D01*
X7814743Y3675380D01*
Y3444203D01*
X7803010Y3439343D01*
X7795416Y3446936D01*
X7787640Y3450157D01*
X7668260D01*
X7660484Y3446936D01*
X7645244Y3431696D01*
X7642023Y3423920D01*
Y3415423D01*
X7633970Y3412050D01*
X7629323Y3411530D01*
X7621844Y3419008D01*
X7610759Y3423600D01*
X7598761D01*
X7587676Y3419008D01*
X7579192Y3410524D01*
X7574600Y3399439D01*
Y3387441D01*
X7579192Y3376356D01*
X7587676Y3367872D01*
X7598761Y3363280D01*
X7610759D01*
X7621844Y3367872D01*
X7629323Y3375350D01*
X7633970Y3374830D01*
X7642023Y3371457D01*
Y2997200D01*
X7645244Y2989424D01*
X7739224Y2895444D01*
X7747000Y2892223D01*
X8452062D01*
X8455980Y2886359D01*
Y2874361D01*
X8460572Y2863276D01*
X8469056Y2854792D01*
X8480141Y2850200D01*
X8492139D01*
X8501696Y2854158D01*
X8503299Y2854763D01*
X8516199Y2849806D01*
X8517272Y2847216D01*
X8525756Y2838732D01*
X8536841Y2834140D01*
X8548839D01*
X8559924Y2838732D01*
X8568409Y2847216D01*
X8573000Y2858301D01*
Y2870299D01*
X8569180Y2879523D01*
X8572137Y2887057D01*
X8575531Y2892223D01*
X8661400D01*
X8669176Y2895444D01*
X8783476Y3009744D01*
X8786697Y3017520D01*
Y3792220D01*
X8783476Y3799996D01*
X8603135Y3980337D01*
X8595359Y3983558D01*
X8205867Y3983556D01*
X8203846Y3982719D01*
X8201658D01*
X8200112Y3981172D01*
X8198091Y3980335D01*
X8185520Y3976312D01*
X8181496Y3980336D01*
X8173720Y3983557D01*
X8006080D01*
X8003544Y3982507D01*
X7990844Y3989470D01*
Y4258630D01*
X7989562Y4265072D01*
X7985913Y4270533D01*
X7959936Y4296510D01*
X7960040Y4296761D01*
Y4308759D01*
X7955449Y4319844D01*
X7946965Y4328328D01*
X7935879Y4332920D01*
D02*
G37*
G36*
X8120581Y4187422D02*
X8108583D01*
X8097498Y4182830D01*
X8089014Y4174346D01*
X8084422Y4163261D01*
Y4151262D01*
X8089014Y4140177D01*
X8097498Y4131693D01*
X8108583Y4127102D01*
X8120581D01*
X8131666Y4131693D01*
X8140150Y4140177D01*
X8144742Y4151262D01*
Y4163261D01*
X8140150Y4174346D01*
X8131666Y4182830D01*
X8120581Y4187422D01*
D02*
G37*
G36*
X8553099Y4078920D02*
X8541101D01*
X8530016Y4074328D01*
X8521532Y4065844D01*
X8516940Y4054759D01*
Y4042761D01*
X8521532Y4031676D01*
X8530016Y4023192D01*
X8541101Y4018600D01*
X8553099D01*
X8564185Y4023192D01*
X8572669Y4031676D01*
X8577260Y4042761D01*
Y4054759D01*
X8572669Y4065844D01*
X8564185Y4074328D01*
X8553099Y4078920D01*
D02*
G37*
G36*
X8446419D02*
X8434421D01*
X8423336Y4074328D01*
X8414852Y4065844D01*
X8410260Y4054759D01*
Y4042761D01*
X8414852Y4031676D01*
X8423336Y4023192D01*
X8434421Y4018600D01*
X8446419D01*
X8457505Y4023192D01*
X8465989Y4031676D01*
X8470580Y4042761D01*
Y4054759D01*
X8465989Y4065844D01*
X8457505Y4074328D01*
X8446419Y4078920D01*
D02*
G37*
G36*
X8342279D02*
X8330281D01*
X8319196Y4074328D01*
X8310712Y4065844D01*
X8306120Y4054759D01*
Y4042761D01*
X8310712Y4031676D01*
X8319196Y4023192D01*
X8330281Y4018600D01*
X8342279D01*
X8353365Y4023192D01*
X8361849Y4031676D01*
X8366440Y4042761D01*
Y4054759D01*
X8361849Y4065844D01*
X8353365Y4074328D01*
X8342279Y4078920D01*
D02*
G37*
G36*
X8233059D02*
X8221061D01*
X8209976Y4074328D01*
X8201492Y4065844D01*
X8196900Y4054759D01*
Y4042761D01*
X8201492Y4031676D01*
X8209976Y4023192D01*
X8221061Y4018600D01*
X8233059D01*
X8244145Y4023192D01*
X8252629Y4031676D01*
X8257220Y4042761D01*
Y4054759D01*
X8252629Y4065844D01*
X8244145Y4074328D01*
X8233059Y4078920D01*
D02*
G37*
G36*
X8131459D02*
X8119461D01*
X8108376Y4074328D01*
X8099892Y4065844D01*
X8095300Y4054759D01*
Y4042761D01*
X8099892Y4031676D01*
X8108376Y4023192D01*
X8119461Y4018600D01*
X8131459D01*
X8142545Y4023192D01*
X8151029Y4031676D01*
X8155620Y4042761D01*
Y4054759D01*
X8151029Y4065844D01*
X8142545Y4074328D01*
X8131459Y4078920D01*
D02*
G37*
G36*
X7591469Y3676274D02*
X7579470D01*
X7568385Y3671682D01*
X7559901Y3663198D01*
X7555310Y3652113D01*
Y3640114D01*
X7559901Y3629029D01*
X7568385Y3620545D01*
X7579470Y3615954D01*
X7591469D01*
X7602554Y3620545D01*
X7611038Y3629029D01*
X7615630Y3640114D01*
Y3652113D01*
X7611038Y3663198D01*
X7602554Y3671682D01*
X7591469Y3676274D01*
D02*
G37*
G36*
X8893459Y3664900D02*
X8881461D01*
X8870376Y3660308D01*
X8861892Y3651824D01*
X8857300Y3640739D01*
Y3628741D01*
X8861892Y3617656D01*
X8870376Y3609172D01*
X8881461Y3604580D01*
X8893459D01*
X8904545Y3609172D01*
X8913029Y3617656D01*
X8917620Y3628741D01*
Y3640739D01*
X8913029Y3651824D01*
X8904545Y3660308D01*
X8893459Y3664900D01*
D02*
G37*
G36*
X7592979Y3576000D02*
X7580981D01*
X7569896Y3571408D01*
X7561412Y3562924D01*
X7556820Y3551839D01*
Y3539841D01*
X7561412Y3528756D01*
X7569896Y3520272D01*
X7580981Y3515680D01*
X7592979D01*
X7604065Y3520272D01*
X7612549Y3528756D01*
X7617140Y3539841D01*
Y3551839D01*
X7612549Y3562924D01*
X7604065Y3571408D01*
X7592979Y3576000D01*
D02*
G37*
G36*
X8890919Y3558220D02*
X8878921D01*
X8867836Y3553628D01*
X8859352Y3545144D01*
X8854760Y3534059D01*
Y3522061D01*
X8859352Y3510976D01*
X8867836Y3502492D01*
X8878921Y3497900D01*
X8890919D01*
X8902005Y3502492D01*
X8910489Y3510976D01*
X8915080Y3522061D01*
Y3534059D01*
X8910489Y3545144D01*
X8902005Y3553628D01*
X8890919Y3558220D01*
D02*
G37*
G36*
X8888379Y3238180D02*
X8876381D01*
X8865296Y3233588D01*
X8856812Y3225104D01*
X8852220Y3214019D01*
Y3202021D01*
X8856812Y3190936D01*
X8865296Y3182452D01*
X8876381Y3177860D01*
X8888379D01*
X8899465Y3182452D01*
X8907949Y3190936D01*
X8912540Y3202021D01*
Y3214019D01*
X8907949Y3225104D01*
X8899465Y3233588D01*
X8888379Y3238180D01*
D02*
G37*
G36*
Y3128960D02*
X8876381D01*
X8865296Y3124368D01*
X8856812Y3115884D01*
X8852220Y3104799D01*
Y3092801D01*
X8856812Y3081716D01*
X8865296Y3073232D01*
X8876381Y3068640D01*
X8888379D01*
X8899465Y3073232D01*
X8907949Y3081716D01*
X8912540Y3092801D01*
Y3104799D01*
X8907949Y3115884D01*
X8899465Y3124368D01*
X8888379Y3128960D01*
D02*
G37*
G36*
X8709140Y2894460D02*
X8697141D01*
X8686056Y2889868D01*
X8677572Y2881384D01*
X8672980Y2870299D01*
Y2858301D01*
X8677572Y2847216D01*
X8686056Y2838732D01*
X8697141Y2834140D01*
X8709140D01*
X8720225Y2838732D01*
X8728709Y2847216D01*
X8733300Y2858301D01*
Y2870299D01*
X8728709Y2881384D01*
X8720225Y2889868D01*
X8709140Y2894460D01*
D02*
G37*
G36*
X8194959Y2816540D02*
X8182961D01*
X8171876Y2811948D01*
X8163392Y2803464D01*
X8158800Y2792379D01*
Y2780381D01*
X8163392Y2769296D01*
X8171876Y2760812D01*
X8182961Y2756220D01*
X8194959D01*
X8206045Y2760812D01*
X8214529Y2769296D01*
X8219120Y2780381D01*
Y2792379D01*
X8214529Y2803464D01*
X8206045Y2811948D01*
X8194959Y2816540D01*
D02*
G37*
G36*
X7689323Y2909775D02*
X7677325D01*
X7666240Y2905183D01*
X7657756Y2896699D01*
X7653164Y2885614D01*
Y2873616D01*
X7657756Y2862531D01*
X7659738Y2860548D01*
X7660835Y2859451D01*
X7653642Y2848685D01*
X7651757Y2849465D01*
X7645574Y2852026D01*
X7633576D01*
X7622490Y2847434D01*
X7614006Y2838950D01*
X7609415Y2827865D01*
Y2815867D01*
X7614006Y2804782D01*
X7622490Y2796298D01*
X7633576Y2791706D01*
X7645574D01*
X7656659Y2796298D01*
X7665143Y2804782D01*
X7669735Y2815867D01*
Y2827865D01*
X7665143Y2838950D01*
X7663161Y2840933D01*
X7662064Y2842030D01*
X7669257Y2852796D01*
X7671142Y2852016D01*
X7677325Y2849455D01*
X7683422D01*
X7688683Y2836755D01*
X7687312Y2835384D01*
X7682720Y2824299D01*
Y2812301D01*
X7687312Y2801216D01*
X7695796Y2792732D01*
X7706881Y2788140D01*
X7718880D01*
X7720347Y2788748D01*
X7722407Y2788048D01*
X7732080Y2779862D01*
Y2772761D01*
X7736672Y2761676D01*
X7745156Y2753192D01*
X7756241Y2748600D01*
X7768239D01*
X7779325Y2753192D01*
X7787809Y2761676D01*
X7792400Y2772761D01*
Y2784759D01*
X7787809Y2795844D01*
X7779325Y2804328D01*
X7768239Y2808920D01*
X7756241D01*
X7754774Y2808312D01*
X7752714Y2809013D01*
X7743040Y2817199D01*
Y2824299D01*
X7738449Y2835384D01*
X7729965Y2843869D01*
X7718880Y2848460D01*
X7712783D01*
X7707522Y2861160D01*
X7708893Y2862531D01*
X7713484Y2873616D01*
Y2885614D01*
X7708893Y2896699D01*
X7700409Y2905183D01*
X7689323Y2909775D01*
D02*
G37*
G36*
X8312366Y2800734D02*
X8300367D01*
X8289282Y2796142D01*
X8280798Y2787658D01*
X8276207Y2776573D01*
Y2764574D01*
X8280798Y2753489D01*
X8289282Y2745005D01*
X8300367Y2740414D01*
X8312366D01*
X8323451Y2745005D01*
X8331935Y2753489D01*
X8336527Y2764574D01*
Y2776573D01*
X8331935Y2787658D01*
X8323451Y2796142D01*
X8312366Y2800734D01*
D02*
G37*
G36*
X8804380Y2771000D02*
X8792381D01*
X8781296Y2766408D01*
X8772812Y2757924D01*
X8768220Y2746839D01*
Y2734841D01*
X8772812Y2723756D01*
X8781296Y2715271D01*
X8792381Y2710680D01*
X8804380D01*
X8815465Y2715271D01*
X8823949Y2723756D01*
X8828540Y2734841D01*
Y2746839D01*
X8823949Y2757924D01*
X8815465Y2766408D01*
X8804380Y2771000D01*
D02*
G37*
G36*
X8729620Y2684460D02*
X8717621D01*
X8706536Y2679868D01*
X8698052Y2671384D01*
X8693460Y2660299D01*
Y2648301D01*
X8698052Y2637216D01*
X8706536Y2628732D01*
X8717621Y2624140D01*
X8729620D01*
X8740705Y2628732D01*
X8749189Y2637216D01*
X8753780Y2648301D01*
Y2660299D01*
X8749189Y2671384D01*
X8740705Y2679868D01*
X8729620Y2684460D01*
D02*
G37*
G36*
X8452221Y2639462D02*
X8440223D01*
X8429138Y2634870D01*
X8420654Y2626386D01*
X8416062Y2615301D01*
Y2603303D01*
X8420654Y2592218D01*
X8429138Y2583733D01*
X8440223Y2579142D01*
X8452221D01*
X8463306Y2583733D01*
X8471791Y2592218D01*
X8476382Y2603303D01*
Y2615301D01*
X8471791Y2626386D01*
X8463306Y2634870D01*
X8452221Y2639462D01*
D02*
G37*
G36*
X7440579Y2435540D02*
X7428581D01*
X7417496Y2430948D01*
X7409012Y2422464D01*
X7404420Y2411379D01*
Y2399381D01*
X7409012Y2388296D01*
X7417496Y2379812D01*
X7428581Y2375220D01*
X7440579D01*
X7451665Y2379812D01*
X7460149Y2388296D01*
X7464740Y2399381D01*
Y2411379D01*
X7460149Y2422464D01*
X7451665Y2430948D01*
X7440579Y2435540D01*
D02*
G37*
G36*
X8118759Y2272980D02*
X8106761D01*
X8095676Y2268388D01*
X8087192Y2259904D01*
X8082600Y2248819D01*
Y2236821D01*
X8087192Y2225736D01*
X8095676Y2217252D01*
X8106761Y2212660D01*
X8118759D01*
X8129845Y2217252D01*
X8138329Y2225736D01*
X8142920Y2236821D01*
Y2248819D01*
X8138329Y2259904D01*
X8129845Y2268388D01*
X8118759Y2272980D01*
D02*
G37*
G36*
X8555639Y2171380D02*
X8543641D01*
X8532556Y2166788D01*
X8524072Y2158304D01*
X8519480Y2147219D01*
Y2135221D01*
X8524072Y2124136D01*
X8532556Y2115652D01*
X8543641Y2111060D01*
X8555639D01*
X8566725Y2115652D01*
X8575209Y2124136D01*
X8579800Y2135221D01*
Y2147219D01*
X8575209Y2158304D01*
X8566725Y2166788D01*
X8555639Y2171380D01*
D02*
G37*
G36*
X8448959D02*
X8436961D01*
X8425876Y2166788D01*
X8417392Y2158304D01*
X8412800Y2147219D01*
Y2135221D01*
X8417392Y2124136D01*
X8425876Y2115652D01*
X8436961Y2111060D01*
X8448959D01*
X8460045Y2115652D01*
X8468529Y2124136D01*
X8473120Y2135221D01*
Y2147219D01*
X8468529Y2158304D01*
X8460045Y2166788D01*
X8448959Y2171380D01*
D02*
G37*
G36*
X8342279D02*
X8330281D01*
X8319196Y2166788D01*
X8310712Y2158304D01*
X8306120Y2147219D01*
Y2135221D01*
X8310712Y2124136D01*
X8319196Y2115652D01*
X8330281Y2111060D01*
X8342279D01*
X8353365Y2115652D01*
X8361849Y2124136D01*
X8366440Y2135221D01*
Y2147219D01*
X8361849Y2158304D01*
X8353365Y2166788D01*
X8342279Y2171380D01*
D02*
G37*
G36*
X8235599D02*
X8223601D01*
X8212516Y2166788D01*
X8204032Y2158304D01*
X8199440Y2147219D01*
Y2135221D01*
X8204032Y2124136D01*
X8212516Y2115652D01*
X8223601Y2111060D01*
X8235599D01*
X8246685Y2115652D01*
X8255169Y2124136D01*
X8259760Y2135221D01*
Y2147219D01*
X8255169Y2158304D01*
X8246685Y2166788D01*
X8235599Y2171380D01*
D02*
G37*
G36*
X8128919D02*
X8116921D01*
X8105836Y2166788D01*
X8097352Y2158304D01*
X8092760Y2147219D01*
Y2135221D01*
X8097352Y2124136D01*
X8105836Y2115652D01*
X8116921Y2111060D01*
X8128919D01*
X8140005Y2115652D01*
X8148489Y2124136D01*
X8153080Y2135221D01*
Y2147219D01*
X8148489Y2158304D01*
X8140005Y2166788D01*
X8128919Y2171380D01*
D02*
G37*
G36*
X7943499Y2435540D02*
X7931501D01*
X7920416Y2430948D01*
X7911932Y2422464D01*
X7907340Y2411379D01*
Y2399381D01*
X7911932Y2388296D01*
X7920416Y2379812D01*
X7920667Y2379708D01*
Y2338037D01*
X7884957Y2302328D01*
X7881308Y2296867D01*
X7880027Y2290425D01*
Y1992960D01*
X7880026Y1992958D01*
X7881308Y1986516D01*
X7884957Y1981055D01*
X7960214Y1905797D01*
X7965675Y1902148D01*
X7972117Y1900867D01*
X8022943D01*
X8029731Y1888167D01*
X8028149Y1885798D01*
X7584268D01*
X7497134Y1972933D01*
Y2113280D01*
X7495852Y2119722D01*
X7492203Y2125183D01*
X7469716Y2147670D01*
X7469820Y2147921D01*
Y2159919D01*
X7465229Y2171004D01*
X7456745Y2179488D01*
X7445659Y2184080D01*
X7433661D01*
X7422576Y2179488D01*
X7414092Y2171004D01*
X7409500Y2159919D01*
Y2147921D01*
X7414092Y2136836D01*
X7422576Y2128352D01*
X7433661Y2123760D01*
X7445659D01*
X7445910Y2123864D01*
X7463467Y2106307D01*
Y2059820D01*
X7450767Y2052424D01*
X7445659Y2054540D01*
X7433661D01*
X7422576Y2049948D01*
X7414092Y2041464D01*
X7409500Y2030379D01*
Y2018381D01*
X7414092Y2007296D01*
X7422576Y1998812D01*
X7433661Y1994220D01*
X7440607D01*
Y1956491D01*
X7441888Y1950049D01*
X7445537Y1944588D01*
X7555923Y1834202D01*
X7561384Y1830553D01*
X7567826Y1829272D01*
X7624726D01*
X7625996Y1827104D01*
X7628619Y1816572D01*
X7622372Y1810324D01*
X7617780Y1799239D01*
Y1787241D01*
X7622372Y1776156D01*
X7630856Y1767672D01*
X7641941Y1763080D01*
X7653939D01*
X7665025Y1767672D01*
X7673509Y1776156D01*
X7678100Y1787241D01*
Y1799239D01*
X7673509Y1810324D01*
X7667261Y1816572D01*
X7669885Y1827104D01*
X7671155Y1829272D01*
X7823819D01*
X7826346Y1816572D01*
X7825584Y1816256D01*
X7792564Y1783236D01*
X7789343Y1775460D01*
Y1572260D01*
X7792564Y1564484D01*
X7807777Y1549270D01*
X7802917Y1537537D01*
X7785100D01*
X7781360Y1535988D01*
X7777571Y1534555D01*
X7707883Y1469091D01*
X7706453Y1465922D01*
X7704584Y1462992D01*
X7704764Y1462179D01*
X7704421Y1461419D01*
X7705650Y1458168D01*
X7706401Y1454773D01*
X7713288Y1444926D01*
X7713599Y1444728D01*
X7713815Y1442744D01*
X7709224Y1431659D01*
Y1419661D01*
X7708720Y1418679D01*
X7698782Y1416361D01*
X7696312Y1414591D01*
X7693504Y1413428D01*
X7693004Y1412220D01*
X7691941Y1411458D01*
X7691446Y1408459D01*
X7690283Y1405651D01*
Y1018540D01*
X7690816Y1017253D01*
X7690186Y1015336D01*
X7682154Y1005520D01*
X7674961D01*
X7663876Y1000928D01*
X7655392Y992444D01*
X7650800Y981359D01*
Y969361D01*
X7655392Y958276D01*
X7663876Y949792D01*
X7674961Y945200D01*
X7686959D01*
X7698044Y949792D01*
X7706528Y958276D01*
X7711120Y969361D01*
Y975187D01*
X7723820Y980447D01*
X7762084Y942184D01*
X7769860Y938963D01*
X8514685D01*
X8515725Y939394D01*
X8516830Y939174D01*
X8518278Y940141D01*
X8519812Y939676D01*
X8528296Y931192D01*
X8539381Y926600D01*
X8551379D01*
X8562464Y931192D01*
X8570948Y939676D01*
X8572482Y940141D01*
X8573930Y939174D01*
X8575034Y939394D01*
X8576075Y938963D01*
X8727440D01*
X8735216Y942184D01*
X8839356Y1046324D01*
X8842577Y1054100D01*
Y1269510D01*
X8855136Y1274912D01*
X8866221Y1270320D01*
X8878219D01*
X8889305Y1274912D01*
X8897789Y1283396D01*
X8902380Y1294481D01*
Y1306479D01*
X8897789Y1317564D01*
X8889305Y1326048D01*
X8878219Y1330640D01*
X8866221D01*
X8855136Y1326048D01*
X8842577Y1331450D01*
Y1598537D01*
X8850629Y1601909D01*
X8855277Y1602430D01*
X8862756Y1594952D01*
X8873841Y1590360D01*
X8885839D01*
X8896925Y1594952D01*
X8905409Y1603436D01*
X8910000Y1614521D01*
Y1626519D01*
X8905409Y1637604D01*
X8896925Y1646088D01*
X8885839Y1650680D01*
X8873841D01*
X8862756Y1646088D01*
X8855277Y1638610D01*
X8850629Y1639131D01*
X8842577Y1642503D01*
Y1711611D01*
X8851015Y1720816D01*
X8851016Y1720817D01*
Y1720816D01*
X8854761Y1721200D01*
X8859352Y1710116D01*
X8867836Y1701632D01*
X8878921Y1697040D01*
X8890919D01*
X8902005Y1701632D01*
X8910489Y1710116D01*
X8915080Y1721201D01*
Y1733199D01*
X8910489Y1744284D01*
X8902005Y1752768D01*
X8890919Y1757360D01*
X8878921D01*
X8867836Y1752768D01*
X8859352Y1744284D01*
X8854761Y1733200D01*
X8851016Y1733584D01*
Y1733583D01*
X8851015Y1733584D01*
X8842577Y1742789D01*
Y1955800D01*
X8839356Y1963576D01*
X8735216Y2067716D01*
X8727440Y2070937D01*
X8241426D01*
X8239405Y2070100D01*
X8237218D01*
X8235671Y2068553D01*
X8233650Y2067716D01*
X8221080Y2063693D01*
X8217056Y2067716D01*
X8209280Y2070937D01*
X7952740D01*
X7949254Y2069493D01*
X7936554Y2075899D01*
Y2245680D01*
X7943499D01*
X7954585Y2250272D01*
X7963069Y2258756D01*
X7967660Y2269841D01*
Y2281839D01*
X7963069Y2292924D01*
X7954585Y2301408D01*
X7951067Y2302865D01*
X7947974Y2317733D01*
X7949403Y2319162D01*
X7953052Y2324623D01*
X7954334Y2331065D01*
Y2379708D01*
X7954585Y2379812D01*
X7963069Y2388296D01*
X7967660Y2399381D01*
Y2411379D01*
X7963069Y2422464D01*
X7954585Y2430948D01*
X7943499Y2435540D01*
D02*
G37*
G36*
X7600599Y1663380D02*
X7588601D01*
X7577516Y1658788D01*
X7569032Y1650304D01*
X7564440Y1639219D01*
Y1627221D01*
X7569032Y1616136D01*
X7577516Y1607652D01*
X7588601Y1603060D01*
X7600599D01*
X7611685Y1607652D01*
X7620169Y1616136D01*
X7624760Y1627221D01*
Y1639219D01*
X7620169Y1650304D01*
X7611685Y1658788D01*
X7600599Y1663380D01*
D02*
G37*
G36*
X7616459Y1510136D02*
X7604461D01*
X7593376Y1505545D01*
X7584892Y1497061D01*
X7580300Y1485976D01*
Y1473977D01*
X7584892Y1462892D01*
X7593376Y1454408D01*
X7604461Y1449817D01*
X7616459D01*
X7627545Y1454408D01*
X7636029Y1462892D01*
X7640620Y1473977D01*
Y1485976D01*
X7636029Y1497061D01*
X7627545Y1505545D01*
X7616459Y1510136D01*
D02*
G37*
G36*
X8893459Y1223960D02*
X8881461D01*
X8870376Y1219368D01*
X8861892Y1210884D01*
X8857300Y1199799D01*
Y1187801D01*
X8861892Y1176716D01*
X8870376Y1168232D01*
X8881461Y1163640D01*
X8893459D01*
X8904545Y1168232D01*
X8913029Y1176716D01*
X8917620Y1187801D01*
Y1199799D01*
X8913029Y1210884D01*
X8904545Y1219368D01*
X8893459Y1223960D01*
D02*
G37*
G36*
X7645159Y943180D02*
X7633161D01*
X7622076Y938588D01*
X7613592Y930104D01*
X7609000Y919019D01*
Y907021D01*
X7613592Y895936D01*
X7622076Y887452D01*
X7633161Y882860D01*
X7645159D01*
X7656244Y887452D01*
X7664728Y895936D01*
X7669320Y907021D01*
Y919019D01*
X7664728Y930104D01*
X7656244Y938588D01*
X7645159Y943180D01*
D02*
G37*
G36*
X7768239Y901380D02*
X7756241D01*
X7745156Y896788D01*
X7736672Y888304D01*
X7732080Y877219D01*
Y865221D01*
X7736672Y854136D01*
X7745156Y845652D01*
X7756241Y841060D01*
X7768239D01*
X7779325Y845652D01*
X7787809Y854136D01*
X7792400Y865221D01*
Y877219D01*
X7787809Y888304D01*
X7779325Y896788D01*
X7768239Y901380D01*
D02*
G37*
G36*
X8312366Y895734D02*
X8300367D01*
X8289282Y891142D01*
X8280798Y882658D01*
X8276207Y871573D01*
Y859574D01*
X8280798Y848489D01*
X8289282Y840005D01*
X8300367Y835414D01*
X8312366D01*
X8323451Y840005D01*
X8331935Y848489D01*
X8336527Y859574D01*
Y871573D01*
X8331935Y882658D01*
X8323451Y891142D01*
X8312366Y895734D01*
D02*
G37*
G36*
X8194959Y893760D02*
X8182961D01*
X8171876Y889168D01*
X8163392Y880684D01*
X8158800Y869599D01*
Y857601D01*
X8163392Y846516D01*
X8171876Y838032D01*
X8182961Y833440D01*
X8194959D01*
X8206045Y838032D01*
X8214529Y846516D01*
X8219120Y857601D01*
Y869599D01*
X8214529Y880684D01*
X8206045Y889168D01*
X8194959Y893760D01*
D02*
G37*
G36*
X8804380Y868540D02*
X8792381D01*
X8781296Y863948D01*
X8772812Y855464D01*
X8768220Y844379D01*
Y832380D01*
X8772812Y821295D01*
X8781296Y812811D01*
X8792381Y808220D01*
X8804380D01*
X8815465Y812811D01*
X8823949Y821295D01*
X8828540Y832380D01*
Y844379D01*
X8823949Y855464D01*
X8815465Y863948D01*
X8804380Y868540D01*
D02*
G37*
G36*
X8883299Y776920D02*
X8871301D01*
X8860216Y772328D01*
X8851732Y763844D01*
X8847140Y752759D01*
Y740761D01*
X8851732Y729676D01*
X8860216Y721192D01*
X8871301Y716600D01*
X8883299D01*
X8894384Y721192D01*
X8902868Y729676D01*
X8907460Y740761D01*
Y752759D01*
X8902868Y763844D01*
X8894384Y772328D01*
X8883299Y776920D01*
D02*
G37*
G36*
X8441339Y731200D02*
X8429341D01*
X8418256Y726608D01*
X8409772Y718124D01*
X8405180Y707039D01*
Y695041D01*
X8409772Y683956D01*
X8418256Y675472D01*
X8429341Y670880D01*
X8441339D01*
X8452425Y675472D01*
X8460909Y683956D01*
X8465500Y695041D01*
Y707039D01*
X8460909Y718124D01*
X8452425Y726608D01*
X8441339Y731200D01*
D02*
G37*
%LPD*%
G36*
X8776500Y7434030D02*
X8805784Y7411559D01*
X8806268Y7410834D01*
X8806317Y7410802D01*
X8806349Y7410754D01*
X8853740Y7363362D01*
X8853772Y7363341D01*
X8853793Y7363310D01*
X8854511Y7362830D01*
X8876865Y7333698D01*
X8891273Y7298915D01*
X8896072Y7262464D01*
X8895897Y7261587D01*
Y7194942D01*
X8895691D01*
X8892747Y7165052D01*
X8884028Y7136311D01*
X8869870Y7109822D01*
X8863067Y7101533D01*
X8858319Y7100638D01*
X8848299Y7102742D01*
X8847891Y7103060D01*
X8846619Y7104132D01*
X8846619Y7104133D01*
X8845647Y7104442D01*
X8845030Y7105246D01*
X8845027Y7105251D01*
X8844847Y7105274D01*
X8841748Y7105682D01*
X8838600Y7106684D01*
X8838598Y7106685D01*
X8837692Y7106216D01*
X8836682Y7106349D01*
X8831505Y7104962D01*
X8814612D01*
X8798293Y7109335D01*
X8783661Y7117782D01*
X8771716Y7129727D01*
X8763269Y7144359D01*
X8758896Y7160678D01*
Y7177572D01*
X8763269Y7193891D01*
X8766255Y7199062D01*
X8766585Y7201572D01*
X8767704Y7203842D01*
X8767113Y7205583D01*
X8767353Y7207407D01*
X8765812Y7209415D01*
X8764998Y7211812D01*
X8756155Y7221895D01*
X8753885Y7223015D01*
X8752095Y7224804D01*
X8750256D01*
X8748606Y7225618D01*
X8746321Y7224842D01*
X8746139Y7224917D01*
X8736328D01*
X8729285Y7227834D01*
X8723894Y7233225D01*
X8720977Y7240268D01*
Y7247892D01*
X8723894Y7254935D01*
X8726177Y7257217D01*
X8726470Y7257925D01*
X8727133Y7258309D01*
X8731422Y7263911D01*
X8736681Y7269800D01*
X8748679D01*
X8759764Y7274392D01*
X8768248Y7282876D01*
X8772840Y7293961D01*
Y7305959D01*
X8768248Y7317044D01*
X8767279Y7318013D01*
X8760411Y7326310D01*
X8767279Y7334607D01*
X8768248Y7335576D01*
X8772840Y7346661D01*
Y7358659D01*
X8768248Y7369744D01*
X8759764Y7378228D01*
X8748679Y7382820D01*
X8736681Y7382820D01*
X8732458Y7388978D01*
X8729787Y7394213D01*
X8728443Y7395360D01*
X8727767Y7396993D01*
X8723894Y7400865D01*
X8720977Y7407908D01*
Y7415532D01*
X8723894Y7422575D01*
X8730832Y7429512D01*
X8730983Y7429876D01*
X8733354Y7431245D01*
X8733738Y7432680D01*
X8734789Y7433731D01*
X8734789Y7436602D01*
X8735220Y7438211D01*
X8737587Y7440526D01*
X8747462Y7446057D01*
X8776500Y7434030D01*
D02*
G37*
G36*
X7887026Y7071014D02*
X7914169Y7059771D01*
X7938597Y7043449D01*
X7959373Y7022673D01*
X7975695Y6998245D01*
X7986939Y6971102D01*
X7992670Y6942286D01*
Y6912906D01*
X7986939Y6884091D01*
X7975695Y6856947D01*
X7959373Y6832519D01*
X7938597Y6811743D01*
X7914169Y6795421D01*
X7887026Y6784178D01*
X7858211Y6778446D01*
X7828830D01*
X7800015Y6784178D01*
X7772871Y6795421D01*
X7748443Y6811743D01*
X7727668Y6832519D01*
X7711345Y6856947D01*
X7700102Y6884090D01*
X7694370Y6912906D01*
Y6942286D01*
X7700102Y6971101D01*
X7711345Y6998245D01*
X7727668Y7022673D01*
X7748443Y7043449D01*
X7772871Y7059771D01*
X7800015Y7071014D01*
X7828830Y7076746D01*
X7858211D01*
X7887026Y7071014D01*
D02*
G37*
G36*
X6606866D02*
X6634009Y7059771D01*
X6658437Y7043449D01*
X6679213Y7022673D01*
X6695535Y6998245D01*
X6706779Y6971102D01*
X6712510Y6942286D01*
Y6912906D01*
X6706779Y6884091D01*
X6695535Y6856947D01*
X6679213Y6832519D01*
X6658437Y6811743D01*
X6634009Y6795421D01*
X6606866Y6784178D01*
X6578051Y6778446D01*
X6548670D01*
X6519855Y6784178D01*
X6492711Y6795421D01*
X6468283Y6811743D01*
X6447508Y6832519D01*
X6431185Y6856947D01*
X6419942Y6884090D01*
X6414210Y6912906D01*
Y6942286D01*
X6419942Y6971101D01*
X6431185Y6998245D01*
X6447508Y7022673D01*
X6468283Y7043449D01*
X6492711Y7059771D01*
X6519855Y7071014D01*
X6548670Y7076746D01*
X6578051D01*
X6606866Y7071014D01*
D02*
G37*
G36*
X8303260Y5758180D02*
X8564880D01*
X8651240Y5671820D01*
Y5021580D01*
X8564880Y4935220D01*
X7891780D01*
X7848600Y4978400D01*
Y5351780D01*
X7820660Y5379720D01*
X7759700D01*
X7708900Y5430520D01*
Y5562600D01*
X7757160Y5610860D01*
X7947537D01*
Y5600101D01*
X7952129Y5589016D01*
X7960613Y5580532D01*
X7971698Y5575940D01*
X7982580D01*
X7993430Y5565090D01*
X7994335Y5564185D01*
X7992093Y5551485D01*
X7991073Y5551485D01*
X7987526D01*
X7976441Y5546893D01*
X7967957Y5538409D01*
X7963366Y5527324D01*
Y5515326D01*
X7967957Y5504241D01*
X7976441Y5495757D01*
X7987526Y5491165D01*
X7999525D01*
X8010610Y5495757D01*
X8019094Y5504241D01*
X8023686Y5515326D01*
Y5527324D01*
X8019094Y5538409D01*
X8010610Y5546893D01*
X8004618Y5549375D01*
X8003352Y5549900D01*
X8005878Y5562599D01*
X8006704Y5562600D01*
X8232140D01*
X8233376Y5563836D01*
X8241925Y5567377D01*
X8250409Y5575861D01*
X8255000Y5586946D01*
Y5598945D01*
X8252460Y5605077D01*
X8252460Y5717540D01*
X8252140Y5717860D01*
Y5720999D01*
X8247548Y5732084D01*
X8239064Y5740568D01*
X8227979Y5745160D01*
X8215981D01*
X8210621Y5742940D01*
X8113339D01*
X8107980Y5745160D01*
X8095981D01*
X8090622Y5742940D01*
X8003795D01*
X7955280Y5791455D01*
Y5857240D01*
X7965440Y5867400D01*
X8194040D01*
X8303260Y5758180D01*
D02*
G37*
G36*
X8829040Y5730240D02*
Y4925060D01*
X8720827Y4816846D01*
X8717404Y4820268D01*
X8706319Y4824860D01*
X8694321D01*
X8683236Y4820268D01*
X8674752Y4811784D01*
X8670160Y4800699D01*
Y4795520D01*
X8573000D01*
Y4800699D01*
X8568409Y4811784D01*
X8559924Y4820268D01*
X8548839Y4824860D01*
X8536841D01*
X8525756Y4820268D01*
X8517272Y4811784D01*
X8512680Y4800699D01*
Y4795520D01*
X8454305D01*
X8451779Y4808220D01*
X8457505Y4810592D01*
X8465989Y4819076D01*
X8470580Y4830161D01*
Y4842159D01*
X8465989Y4853244D01*
X8457505Y4861728D01*
X8446419Y4866320D01*
X8434421D01*
X8423336Y4861728D01*
X8414852Y4853244D01*
X8410260Y4842159D01*
Y4830161D01*
X8414852Y4819076D01*
X8423336Y4810592D01*
X8429061Y4808220D01*
X8426535Y4795520D01*
X7720571D01*
X7711704Y4807301D01*
Y4819299D01*
X7707113Y4830384D01*
X7698628Y4838868D01*
X7687543Y4843460D01*
X7675545D01*
X7664460Y4838868D01*
X7656116Y4830524D01*
X7637780Y4848860D01*
Y5304048D01*
X7637948Y5304216D01*
X7642540Y5315301D01*
Y5327299D01*
X7639927Y5333607D01*
X7663180Y5356860D01*
X7813040D01*
X7828280Y5341620D01*
Y4973320D01*
X7879080Y4922520D01*
X8574611D01*
X8669020Y5016929D01*
Y5676900D01*
X8577580Y5768340D01*
X8566901D01*
X8564880Y5769177D01*
X8307815D01*
X8221326Y5855667D01*
X8226186Y5867400D01*
X8691880D01*
X8829040Y5730240D01*
D02*
G37*
%LPC*%
G36*
X8310840Y5623105D02*
X8298841D01*
X8287756Y5618514D01*
X8279272Y5610030D01*
X8274680Y5598945D01*
Y5586946D01*
X8279272Y5575861D01*
X8287756Y5567377D01*
X8298841Y5562785D01*
X8310840D01*
X8321925Y5567377D01*
X8330409Y5575861D01*
X8335000Y5586946D01*
Y5598945D01*
X8330409Y5610030D01*
X8321925Y5618514D01*
X8310840Y5623105D01*
D02*
G37*
G36*
X8466739Y5575590D02*
X8454741D01*
X8443656Y5570998D01*
X8435172Y5562514D01*
X8430580Y5551429D01*
Y5539431D01*
X8435172Y5528346D01*
X8436141Y5527377D01*
X8443009Y5519080D01*
X8436141Y5510783D01*
X8435172Y5509814D01*
X8430580Y5498729D01*
Y5486731D01*
X8435172Y5475646D01*
X8443656Y5467162D01*
X8454741Y5462570D01*
X8466739D01*
X8477825Y5467162D01*
X8486309Y5475646D01*
X8490900Y5486731D01*
Y5498729D01*
X8486309Y5509814D01*
X8485340Y5510783D01*
X8478472Y5519080D01*
X8485340Y5527377D01*
X8486309Y5528346D01*
X8490900Y5539431D01*
Y5551429D01*
X8486309Y5562514D01*
X8477825Y5570998D01*
X8466739Y5575590D01*
D02*
G37*
G36*
X8316879Y5496240D02*
X8304881D01*
X8293796Y5491648D01*
X8285312Y5483164D01*
X8280720Y5472079D01*
Y5460081D01*
X8285312Y5448996D01*
X8293796Y5440512D01*
X8304881Y5435920D01*
X8316879D01*
X8327964Y5440512D01*
X8336448Y5448996D01*
X8341040Y5460081D01*
Y5472079D01*
X8336448Y5483164D01*
X8327964Y5491648D01*
X8316879Y5496240D01*
D02*
G37*
G36*
X8390977Y5443089D02*
X8378978D01*
X8367893Y5438498D01*
X8359409Y5430014D01*
X8354817Y5418929D01*
Y5406930D01*
X8359409Y5395845D01*
X8367893Y5387361D01*
X8378978Y5382770D01*
X8390977D01*
X8402062Y5387361D01*
X8410546Y5395845D01*
X8415137Y5406930D01*
Y5418929D01*
X8410546Y5430014D01*
X8402062Y5438498D01*
X8390977Y5443089D01*
D02*
G37*
G36*
X8167019Y5397180D02*
X8155021D01*
X8143936Y5392588D01*
X8135452Y5384104D01*
X8130860Y5373019D01*
Y5361021D01*
X8135452Y5349936D01*
X8143936Y5341452D01*
X8155021Y5336860D01*
X8167019D01*
X8178104Y5341452D01*
X8186588Y5349936D01*
X8191180Y5361021D01*
Y5373019D01*
X8186588Y5384104D01*
X8178104Y5392588D01*
X8167019Y5397180D01*
D02*
G37*
G36*
X8324499Y5305740D02*
X8312501D01*
X8301416Y5301148D01*
X8292932Y5292664D01*
X8288340Y5281579D01*
Y5269581D01*
X8292932Y5258496D01*
X8301416Y5250012D01*
X8312501Y5245420D01*
X8324499D01*
X8335584Y5250012D01*
X8344068Y5258496D01*
X8348660Y5269581D01*
Y5281579D01*
X8344068Y5292664D01*
X8335584Y5301148D01*
X8324499Y5305740D01*
D02*
G37*
G36*
X8111139Y5234620D02*
X8099141D01*
X8088056Y5230028D01*
X8079572Y5221544D01*
X8074980Y5210459D01*
Y5198461D01*
X8079572Y5187376D01*
X8088056Y5178892D01*
X8099141Y5174300D01*
X8111139D01*
X8122224Y5178892D01*
X8130708Y5187376D01*
X8135300Y5198461D01*
Y5210459D01*
X8130708Y5221544D01*
X8122224Y5230028D01*
X8111139Y5234620D01*
D02*
G37*
G36*
X8431179Y5282880D02*
X8419181D01*
X8408096Y5278288D01*
X8399612Y5269804D01*
X8395020Y5258719D01*
Y5246721D01*
X8399612Y5235636D01*
X8408096Y5227152D01*
X8419181Y5222560D01*
X8421444D01*
X8430580Y5211429D01*
Y5199431D01*
X8435172Y5188346D01*
X8436141Y5187377D01*
X8443009Y5179080D01*
X8436141Y5170783D01*
X8435172Y5169814D01*
X8430580Y5158729D01*
Y5146731D01*
X8431348Y5144878D01*
X8422854Y5132196D01*
X8419304D01*
X8408219Y5127605D01*
X8399735Y5119121D01*
X8395143Y5108036D01*
Y5096037D01*
X8399735Y5084952D01*
X8408219Y5076468D01*
X8419304Y5071877D01*
X8431302D01*
X8442387Y5076468D01*
X8450872Y5084952D01*
X8455463Y5096037D01*
Y5108036D01*
X8454696Y5109889D01*
X8463189Y5122570D01*
X8466739D01*
X8477825Y5127162D01*
X8486309Y5135646D01*
X8490900Y5146731D01*
Y5158729D01*
X8486309Y5169814D01*
X8485340Y5170783D01*
X8478472Y5179080D01*
X8485340Y5187377D01*
X8486309Y5188346D01*
X8490900Y5199431D01*
Y5211429D01*
X8486309Y5222514D01*
X8477825Y5230998D01*
X8466739Y5235590D01*
X8464476D01*
X8455340Y5246721D01*
Y5258719D01*
X8450749Y5269804D01*
X8442265Y5278288D01*
X8431179Y5282880D01*
D02*
G37*
G36*
X7745379Y5287960D02*
X7733381D01*
X7722296Y5283368D01*
X7713812Y5274884D01*
X7709220Y5263799D01*
Y5251801D01*
X7713812Y5240716D01*
X7722296Y5232232D01*
X7733381Y5227640D01*
X7745379D01*
X7756465Y5232232D01*
X7764949Y5240716D01*
X7769540Y5251801D01*
Y5263799D01*
X7764949Y5274884D01*
X7756465Y5283368D01*
X7745379Y5287960D01*
D02*
G37*
%LPD*%
G36*
X8775700Y3792220D02*
Y3017520D01*
X8661400Y2903220D01*
X8505933D01*
X8503225Y2905928D01*
X8492139Y2910520D01*
X8480141D01*
X8469056Y2905928D01*
X8466348Y2903220D01*
X7747000D01*
X7653020Y2997200D01*
Y3423920D01*
X7668260Y3439160D01*
X7787640D01*
X7807960Y3418840D01*
Y3314119D01*
X7795260Y3305633D01*
X7792540Y3306760D01*
X7780541D01*
X7769456Y3302168D01*
X7760972Y3293684D01*
X7756380Y3282599D01*
Y3270601D01*
X7760972Y3259516D01*
X7769456Y3251032D01*
X7780541Y3246440D01*
X7792540D01*
X7795260Y3247567D01*
X7807960Y3239081D01*
X7807960Y3045460D01*
X7856220Y2997200D01*
X8575040D01*
X8651240Y3073400D01*
Y3570555D01*
X8652280Y3571596D01*
X8656872Y3582681D01*
Y3594679D01*
X8652280Y3605764D01*
X8651240Y3606804D01*
Y3731260D01*
X8495650Y3886850D01*
X8273798D01*
X8272811Y3887838D01*
X8265186Y3890996D01*
X8259795Y3896387D01*
X8256637Y3904012D01*
X8255090Y3905559D01*
X8254253Y3907580D01*
X8201007Y3960825D01*
X8205867Y3972559D01*
X8595359Y3972561D01*
X8775700Y3792220D01*
D02*
G37*
G36*
X8246477Y3899804D02*
X8250472Y3890158D01*
X8258956Y3881673D01*
X8268602Y3877678D01*
X8272780Y3873500D01*
X8486545D01*
X8626712Y3733333D01*
Y3089512D01*
X8554720Y3017520D01*
X7871460D01*
X7825740Y3063240D01*
Y3675380D01*
X7863840Y3713479D01*
X8098810Y3713485D01*
X8209285D01*
X8274545Y3778744D01*
Y3827780D01*
X8264385Y3837940D01*
X8240694D01*
X8239391Y3838480D01*
X8227392D01*
X8226089Y3837940D01*
X8168640D01*
X8140700Y3865880D01*
X8127771D01*
X8124597Y3868001D01*
X8118155Y3869282D01*
X8041033D01*
X7990844Y3919472D01*
Y3957323D01*
X8006080Y3972560D01*
X8173720D01*
X8246477Y3899804D01*
D02*
G37*
%LPC*%
G36*
X7997810Y3618387D02*
X7985811D01*
X7974726Y3613795D01*
X7966242Y3605311D01*
X7961651Y3594226D01*
Y3582228D01*
X7966242Y3571142D01*
X7974726Y3562658D01*
X7985811Y3558067D01*
X7997810D01*
X8008895Y3562658D01*
X8017379Y3571142D01*
X8021970Y3582228D01*
Y3594226D01*
X8017379Y3605311D01*
X8008895Y3613795D01*
X7997810Y3618387D01*
D02*
G37*
G36*
X8466739Y3645190D02*
X8454741D01*
X8443656Y3640598D01*
X8435172Y3632114D01*
X8430580Y3621029D01*
Y3609031D01*
X8435172Y3597946D01*
X8436141Y3596977D01*
X8443009Y3588680D01*
X8436141Y3580383D01*
X8435172Y3579414D01*
X8430580Y3568329D01*
Y3556331D01*
X8435172Y3545246D01*
X8443656Y3536762D01*
X8454741Y3532170D01*
X8466739D01*
X8477825Y3536762D01*
X8486309Y3545246D01*
X8490900Y3556331D01*
Y3568329D01*
X8486309Y3579414D01*
X8485340Y3580383D01*
X8478472Y3588680D01*
X8485340Y3596977D01*
X8486309Y3597946D01*
X8490900Y3609031D01*
Y3621029D01*
X8486309Y3632114D01*
X8477825Y3640598D01*
X8466739Y3645190D01*
D02*
G37*
G36*
X8100979Y3563300D02*
X8088981D01*
X8077896Y3558708D01*
X8069412Y3550224D01*
X8064820Y3539139D01*
Y3527141D01*
X8069412Y3516056D01*
X8077896Y3507572D01*
X8088981Y3502980D01*
X8100979D01*
X8112064Y3507572D01*
X8120548Y3516056D01*
X8125140Y3527141D01*
Y3539139D01*
X8120548Y3550224D01*
X8112064Y3558708D01*
X8100979Y3563300D01*
D02*
G37*
G36*
X8205119Y3545520D02*
X8193121D01*
X8182036Y3540928D01*
X8173552Y3532444D01*
X8168960Y3521359D01*
Y3509361D01*
X8173552Y3498276D01*
X8182036Y3489792D01*
X8193121Y3485200D01*
X8205119D01*
X8216204Y3489792D01*
X8224688Y3498276D01*
X8229280Y3509361D01*
Y3521359D01*
X8224688Y3532444D01*
X8216204Y3540928D01*
X8205119Y3545520D01*
D02*
G37*
G36*
X8316879Y3532820D02*
X8304881D01*
X8293796Y3528228D01*
X8285312Y3519744D01*
X8280720Y3508659D01*
Y3496661D01*
X8285312Y3485576D01*
X8293796Y3477092D01*
X8304881Y3472500D01*
X8316879D01*
X8327964Y3477092D01*
X8336448Y3485576D01*
X8341040Y3496661D01*
Y3508659D01*
X8336448Y3519744D01*
X8327964Y3528228D01*
X8316879Y3532820D01*
D02*
G37*
G36*
X8258459Y3459160D02*
X8246461D01*
X8235376Y3454568D01*
X8226892Y3446084D01*
X8222300Y3434999D01*
Y3423001D01*
X8226892Y3411916D01*
X8235376Y3403432D01*
X8246461Y3398840D01*
X8258459D01*
X8269544Y3403432D01*
X8278028Y3411916D01*
X8282620Y3423001D01*
Y3434999D01*
X8278028Y3446084D01*
X8269544Y3454568D01*
X8258459Y3459160D01*
D02*
G37*
G36*
X8126379Y3339780D02*
X8114381D01*
X8103296Y3335188D01*
X8094812Y3326704D01*
X8090220Y3315619D01*
Y3303621D01*
X8094812Y3292536D01*
X8103296Y3284052D01*
X8114381Y3279460D01*
X8126379D01*
X8137464Y3284052D01*
X8145948Y3292536D01*
X8150540Y3303621D01*
Y3315619D01*
X8145948Y3326704D01*
X8137464Y3335188D01*
X8126379Y3339780D01*
D02*
G37*
G36*
X8327039Y3332160D02*
X8315041D01*
X8303956Y3327568D01*
X8295472Y3319084D01*
X8290880Y3307999D01*
Y3296001D01*
X8295472Y3284916D01*
X8303956Y3276432D01*
X8315041Y3271840D01*
X8327039D01*
X8338124Y3276432D01*
X8346608Y3284916D01*
X8351200Y3296001D01*
Y3307999D01*
X8346608Y3319084D01*
X8338124Y3327568D01*
X8327039Y3332160D01*
D02*
G37*
G36*
X8433637Y3346196D02*
X8421638D01*
X8410553Y3341604D01*
X8402069Y3333120D01*
X8397477Y3322035D01*
Y3310037D01*
X8402069Y3298952D01*
X8410553Y3290468D01*
X8419251Y3286865D01*
X8430580Y3281029D01*
Y3269031D01*
X8435172Y3257946D01*
X8436141Y3256977D01*
X8443009Y3248680D01*
X8436141Y3240383D01*
X8435172Y3239414D01*
X8430580Y3228329D01*
Y3216331D01*
X8431348Y3214478D01*
X8422854Y3201796D01*
X8419304D01*
X8408219Y3197205D01*
X8399735Y3188721D01*
X8395143Y3177636D01*
Y3165637D01*
X8399735Y3154552D01*
X8408219Y3146068D01*
X8419304Y3141477D01*
X8431302D01*
X8442387Y3146068D01*
X8450872Y3154552D01*
X8455463Y3165637D01*
Y3177636D01*
X8454696Y3179489D01*
X8463189Y3192170D01*
X8466739D01*
X8477825Y3196762D01*
X8486309Y3205246D01*
X8490900Y3216331D01*
Y3228329D01*
X8486309Y3239414D01*
X8485340Y3240383D01*
X8478472Y3248680D01*
X8485340Y3256977D01*
X8486309Y3257946D01*
X8490900Y3269031D01*
Y3281029D01*
X8486309Y3292114D01*
X8477825Y3300598D01*
X8469127Y3304201D01*
X8457797Y3310037D01*
Y3322035D01*
X8453206Y3333120D01*
X8444722Y3341604D01*
X8433637Y3346196D01*
D02*
G37*
%LPD*%
G36*
X8331200Y1938020D02*
X8455660D01*
X8641080Y1752600D01*
Y1188720D01*
X8552180Y1099820D01*
X7886700D01*
X7846060Y1140460D01*
Y1526540D01*
X7800340Y1572260D01*
Y1775460D01*
X7833360Y1808480D01*
X8232140D01*
X8260080Y1836420D01*
Y1884825D01*
X8263200Y1892358D01*
Y1904356D01*
X8260080Y1911889D01*
Y1920240D01*
X8219440Y1960880D01*
X8181340D01*
X8178800Y1963420D01*
X8155760D01*
X8153052Y1966128D01*
X8141966Y1970720D01*
X8129968D01*
X8118883Y1966128D01*
X8116175Y1963420D01*
X7983466D01*
X7940040Y2006846D01*
Y2047240D01*
X7952740Y2059940D01*
X8209280D01*
X8331200Y1938020D01*
D02*
G37*
G36*
X8831580Y1955800D02*
Y1054100D01*
X8727440Y949960D01*
X8576075D01*
X8575540Y950761D01*
Y962759D01*
X8570948Y973844D01*
X8562464Y982328D01*
X8551379Y986920D01*
X8539381D01*
X8528296Y982328D01*
X8519812Y973844D01*
X8515220Y962759D01*
Y950761D01*
X8514685Y949960D01*
X7769860D01*
X7701280Y1018540D01*
Y1405651D01*
X7713035Y1408393D01*
X7713980Y1408411D01*
X7722300Y1400092D01*
X7733385Y1395500D01*
X7745383D01*
X7756468Y1400092D01*
X7764952Y1408576D01*
X7769544Y1419661D01*
Y1431659D01*
X7764952Y1442744D01*
X7756468Y1451228D01*
X7745383Y1455820D01*
X7733385D01*
X7722300Y1451228D01*
X7715413Y1461076D01*
X7785100Y1526540D01*
X7830508D01*
X7835063Y1521985D01*
Y1140460D01*
X7838284Y1132684D01*
X7878924Y1092044D01*
X7886700Y1088823D01*
X8552180D01*
X8559956Y1092044D01*
X8648856Y1180944D01*
X8652077Y1188720D01*
Y1666010D01*
X8656000Y1675481D01*
Y1687479D01*
X8652077Y1696950D01*
Y1752600D01*
X8648856Y1760376D01*
X8463436Y1945796D01*
X8455660Y1949017D01*
X8335755D01*
X8236566Y2048207D01*
X8241426Y2059940D01*
X8727440D01*
X8831580Y1955800D01*
D02*
G37*
%LPC*%
G36*
X7892699Y1790380D02*
X7880701D01*
X7869616Y1785788D01*
X7861132Y1777304D01*
X7856540Y1766219D01*
Y1754221D01*
X7861132Y1743136D01*
X7869616Y1734652D01*
X7880701Y1730060D01*
X7892699D01*
X7903784Y1734652D01*
X7912268Y1743136D01*
X7916860Y1754221D01*
Y1766219D01*
X7912268Y1777304D01*
X7903784Y1785788D01*
X7892699Y1790380D01*
D02*
G37*
G36*
X8466739Y1737650D02*
X8454741D01*
X8443656Y1733058D01*
X8435172Y1724574D01*
X8430580Y1713489D01*
Y1701491D01*
X8435172Y1690406D01*
X8436141Y1689437D01*
X8443009Y1681140D01*
X8436141Y1672843D01*
X8435172Y1671874D01*
X8430580Y1660789D01*
Y1648791D01*
X8435172Y1637706D01*
X8443656Y1629222D01*
X8454741Y1624630D01*
X8466739D01*
X8477825Y1629222D01*
X8486309Y1637706D01*
X8490900Y1648791D01*
Y1660789D01*
X8486309Y1671874D01*
X8485340Y1672843D01*
X8478472Y1681140D01*
X8485340Y1689437D01*
X8486309Y1690406D01*
X8490900Y1701491D01*
Y1713489D01*
X8486309Y1724574D01*
X8477825Y1733058D01*
X8466739Y1737650D01*
D02*
G37*
G36*
X8121299Y1637980D02*
X8109301D01*
X8098216Y1633388D01*
X8089732Y1624904D01*
X8085140Y1613819D01*
Y1601821D01*
X8089732Y1590736D01*
X8098216Y1582252D01*
X8109301Y1577660D01*
X8121299D01*
X8132384Y1582252D01*
X8140868Y1590736D01*
X8145460Y1601821D01*
Y1613819D01*
X8140868Y1624904D01*
X8132384Y1633388D01*
X8121299Y1637980D01*
D02*
G37*
G36*
X8260999Y1627820D02*
X8249001D01*
X8237916Y1623228D01*
X8229432Y1614744D01*
X8224840Y1603659D01*
Y1591661D01*
X8229432Y1580576D01*
X8237916Y1572092D01*
X8249001Y1567500D01*
X8260999D01*
X8272084Y1572092D01*
X8280568Y1580576D01*
X8285160Y1591661D01*
Y1603659D01*
X8280568Y1614744D01*
X8272084Y1623228D01*
X8260999Y1627820D01*
D02*
G37*
G36*
X8382919Y1625280D02*
X8370921D01*
X8359836Y1620688D01*
X8351352Y1612204D01*
X8346760Y1601119D01*
Y1589121D01*
X8351352Y1578036D01*
X8359836Y1569552D01*
X8370921Y1564960D01*
X8382919D01*
X8394004Y1569552D01*
X8402488Y1578036D01*
X8407080Y1589121D01*
Y1601119D01*
X8402488Y1612204D01*
X8394004Y1620688D01*
X8382919Y1625280D01*
D02*
G37*
G36*
X8347359Y1475420D02*
X8335361D01*
X8324276Y1470828D01*
X8315792Y1462344D01*
X8311200Y1451259D01*
Y1439261D01*
X8315792Y1428176D01*
X8324276Y1419692D01*
X8335361Y1415100D01*
X8347359D01*
X8358444Y1419692D01*
X8366928Y1428176D01*
X8371520Y1439261D01*
Y1451259D01*
X8366928Y1462344D01*
X8358444Y1470828D01*
X8347359Y1475420D01*
D02*
G37*
G36*
X8248556Y1470221D02*
X8236557D01*
X8225472Y1465630D01*
X8216988Y1457146D01*
X8212397Y1446061D01*
Y1434062D01*
X8216988Y1422977D01*
X8225472Y1414493D01*
X8236557Y1409901D01*
X8248556D01*
X8259641Y1414493D01*
X8268125Y1422977D01*
X8272716Y1434062D01*
Y1446061D01*
X8268125Y1457146D01*
X8259641Y1465630D01*
X8248556Y1470221D01*
D02*
G37*
G36*
X8133999Y1460180D02*
X8122001D01*
X8110916Y1455588D01*
X8102432Y1447104D01*
X8097840Y1436019D01*
Y1424021D01*
X8102432Y1412936D01*
X8110916Y1404452D01*
X8122001Y1399860D01*
X8133999D01*
X8145084Y1404452D01*
X8153568Y1412936D01*
X8158160Y1424021D01*
Y1436019D01*
X8153568Y1447104D01*
X8145084Y1455588D01*
X8133999Y1460180D01*
D02*
G37*
G36*
X8431179Y1444940D02*
X8419181D01*
X8408096Y1440348D01*
X8399612Y1431864D01*
X8395020Y1420779D01*
Y1408781D01*
X8399612Y1397696D01*
X8408096Y1389212D01*
X8419181Y1384620D01*
X8421444D01*
X8430580Y1373489D01*
Y1361491D01*
X8435172Y1350406D01*
X8436141Y1349437D01*
X8443009Y1341140D01*
X8436141Y1332843D01*
X8435172Y1331874D01*
X8430580Y1320789D01*
Y1308791D01*
X8431348Y1306938D01*
X8422854Y1294256D01*
X8419304D01*
X8408219Y1289665D01*
X8399735Y1281181D01*
X8395143Y1270096D01*
Y1258097D01*
X8399735Y1247012D01*
X8408219Y1238528D01*
X8419304Y1233937D01*
X8431302D01*
X8442387Y1238528D01*
X8450872Y1247012D01*
X8455463Y1258097D01*
Y1270096D01*
X8454696Y1271949D01*
X8463189Y1284630D01*
X8466739D01*
X8477825Y1289222D01*
X8486309Y1297706D01*
X8490900Y1308791D01*
Y1320789D01*
X8486309Y1331874D01*
X8485340Y1332843D01*
X8478472Y1341140D01*
X8485340Y1349437D01*
X8486309Y1350406D01*
X8490900Y1361491D01*
Y1373489D01*
X8486309Y1384574D01*
X8477825Y1393058D01*
X8466739Y1397650D01*
X8464476D01*
X8455340Y1408781D01*
Y1420779D01*
X8450749Y1431864D01*
X8442265Y1440348D01*
X8431179Y1444940D01*
D02*
G37*
G36*
X8634379Y1076640D02*
X8622381D01*
X8611296Y1072048D01*
X8602812Y1063564D01*
X8598220Y1052479D01*
Y1040481D01*
X8602812Y1029395D01*
X8611296Y1020911D01*
X8622381Y1016320D01*
X8634379D01*
X8645465Y1020911D01*
X8653949Y1029395D01*
X8658540Y1040481D01*
Y1052479D01*
X8653949Y1063564D01*
X8645465Y1072048D01*
X8634379Y1076640D01*
D02*
G37*
G36*
X8492139Y1069020D02*
X8480141D01*
X8469056Y1064428D01*
X8460572Y1055944D01*
X8455980Y1044859D01*
Y1032861D01*
X8460572Y1021776D01*
X8469056Y1013292D01*
X8480141Y1008700D01*
X8492139D01*
X8503225Y1013292D01*
X8511709Y1021776D01*
X8516300Y1032861D01*
Y1044859D01*
X8511709Y1055944D01*
X8503225Y1064428D01*
X8492139Y1069020D01*
D02*
G37*
G36*
X1979115Y6482824D02*
X1967117D01*
X1956032Y6478232D01*
X1947548Y6469748D01*
X1942956Y6458663D01*
Y6446665D01*
X1947548Y6435580D01*
X1956032Y6427096D01*
X1967117Y6422504D01*
X1979115D01*
X1990200Y6427096D01*
X1998684Y6435580D01*
X2003276Y6446665D01*
Y6458663D01*
X1998684Y6469748D01*
X1990200Y6478232D01*
X1979115Y6482824D01*
D02*
G37*
G36*
X2428612Y6305275D02*
X2416613D01*
X2405528Y6300684D01*
X2397044Y6292200D01*
X2392453Y6281114D01*
Y6269116D01*
X2397044Y6258031D01*
X2405528Y6249547D01*
X2416613Y6244955D01*
X2428612D01*
X2439697Y6249547D01*
X2448181Y6258031D01*
X2452773Y6269116D01*
Y6281114D01*
X2448181Y6292200D01*
X2439697Y6300684D01*
X2428612Y6305275D01*
D02*
G37*
G36*
X1242979Y6110920D02*
X1230981D01*
X1219896Y6106328D01*
X1211412Y6097844D01*
X1206820Y6086759D01*
Y6074761D01*
X1211412Y6063676D01*
X1219896Y6055192D01*
X1230981Y6050600D01*
X1242979D01*
X1254065Y6055192D01*
X1262549Y6063676D01*
X1267140Y6074761D01*
Y6086759D01*
X1262549Y6097844D01*
X1254065Y6106328D01*
X1242979Y6110920D01*
D02*
G37*
G36*
X814919Y5358339D02*
X802920D01*
X791835Y5353748D01*
X786060Y5347972D01*
X780284Y5353748D01*
X769199Y5358339D01*
X757200D01*
X746115Y5353748D01*
X737631Y5345264D01*
X733040Y5334179D01*
Y5322180D01*
X737631Y5311095D01*
X740190Y5308536D01*
X744798Y5300239D01*
X740190Y5291943D01*
X737631Y5289384D01*
X733040Y5278299D01*
Y5266300D01*
X737631Y5255215D01*
X743341Y5249505D01*
X745034Y5241819D01*
X743341Y5234134D01*
X737631Y5228424D01*
X733040Y5217339D01*
Y5205340D01*
X737631Y5194255D01*
X740490Y5191396D01*
X745470Y5184513D01*
X740490Y5174803D01*
X738972Y5173284D01*
X734380Y5162199D01*
Y5150201D01*
X738972Y5139116D01*
X747456Y5130632D01*
X758541Y5126040D01*
X770539D01*
X781624Y5130632D01*
X787400Y5136407D01*
X793176Y5130632D01*
X804261Y5126040D01*
X816259D01*
X827344Y5130632D01*
X835828Y5139116D01*
X840420Y5150201D01*
Y5162199D01*
X835828Y5173284D01*
X832970Y5176143D01*
X827990Y5183026D01*
X832970Y5192737D01*
X834488Y5194255D01*
X839080Y5205340D01*
Y5217339D01*
X834488Y5228424D01*
X828778Y5234134D01*
X827086Y5241819D01*
X828778Y5249505D01*
X834488Y5255215D01*
X839080Y5266300D01*
Y5278299D01*
X834488Y5289384D01*
X831929Y5291943D01*
X827321Y5300239D01*
X831929Y5308536D01*
X834488Y5311095D01*
X839080Y5322180D01*
Y5334179D01*
X834488Y5345264D01*
X826004Y5353748D01*
X814919Y5358339D01*
D02*
G37*
G36*
X1146459Y5031420D02*
X1134461D01*
X1123376Y5026828D01*
X1114892Y5018344D01*
X1110300Y5007259D01*
Y4995261D01*
X1114892Y4984176D01*
X1117451Y4981617D01*
X1122058Y4973320D01*
X1117451Y4965023D01*
X1114892Y4962464D01*
X1110300Y4951379D01*
Y4939381D01*
X1114892Y4928296D01*
X1120602Y4922586D01*
X1122294Y4914900D01*
X1120602Y4907214D01*
X1114892Y4901504D01*
X1110300Y4890419D01*
Y4878421D01*
X1114892Y4867336D01*
X1117750Y4864477D01*
X1122730Y4857594D01*
X1117750Y4847883D01*
X1116232Y4846365D01*
X1111640Y4835280D01*
Y4823281D01*
X1116232Y4812196D01*
X1118491Y4809937D01*
X1122575Y4800147D01*
X1118491Y4793344D01*
X1114892Y4789744D01*
X1110300Y4778659D01*
Y4766661D01*
X1114892Y4755576D01*
X1117750Y4752717D01*
X1122730Y4745834D01*
X1117750Y4736123D01*
X1116232Y4734605D01*
X1111640Y4723520D01*
Y4711521D01*
X1116232Y4700436D01*
X1119761Y4696907D01*
X1123863Y4689949D01*
X1119761Y4680314D01*
X1117432Y4677984D01*
X1112840Y4666899D01*
Y4654901D01*
X1117432Y4643816D01*
X1120290Y4640957D01*
X1125270Y4634074D01*
X1120290Y4624363D01*
X1118772Y4622845D01*
X1114180Y4611760D01*
Y4599761D01*
X1118772Y4588676D01*
X1127256Y4580192D01*
X1138341Y4575601D01*
X1150340D01*
X1161425Y4580192D01*
X1169909Y4588676D01*
X1174500Y4599761D01*
Y4611760D01*
X1169909Y4622845D01*
X1167050Y4625704D01*
X1162070Y4632587D01*
X1167050Y4642297D01*
X1168568Y4643816D01*
X1173160Y4654901D01*
Y4666899D01*
X1168568Y4677984D01*
X1165039Y4681513D01*
X1160937Y4688471D01*
X1165039Y4698107D01*
X1167369Y4700436D01*
X1171960Y4711521D01*
Y4723520D01*
X1167369Y4734605D01*
X1164510Y4737464D01*
X1159530Y4744347D01*
X1164510Y4754057D01*
X1166028Y4755576D01*
X1170620Y4766661D01*
Y4778659D01*
X1166028Y4789744D01*
X1163769Y4792003D01*
X1159685Y4801794D01*
X1163769Y4808597D01*
X1167369Y4812196D01*
X1171960Y4823281D01*
Y4835280D01*
X1167369Y4846365D01*
X1164510Y4849224D01*
X1159530Y4856107D01*
X1164510Y4865817D01*
X1166028Y4867336D01*
X1170620Y4878421D01*
Y4890419D01*
X1166028Y4901504D01*
X1160318Y4907214D01*
X1158626Y4914900D01*
X1160318Y4922586D01*
X1166028Y4928296D01*
X1170620Y4939381D01*
Y4951379D01*
X1166028Y4962464D01*
X1163469Y4965023D01*
X1158862Y4973320D01*
X1163469Y4981617D01*
X1166028Y4984176D01*
X1170620Y4995261D01*
Y5007259D01*
X1166028Y5018344D01*
X1157544Y5026828D01*
X1146459Y5031420D01*
D02*
G37*
G36*
X1224590Y4304980D02*
X1212591D01*
X1201506Y4300388D01*
X1194765Y4293647D01*
X1188024Y4300388D01*
X1176939Y4304980D01*
X1164941D01*
X1153856Y4300388D01*
X1145372Y4291904D01*
X1140780Y4280819D01*
Y4268821D01*
X1145372Y4257736D01*
X1153856Y4249252D01*
X1164941Y4244660D01*
X1176939D01*
X1188024Y4249252D01*
X1194765Y4255993D01*
X1201506Y4249252D01*
X1212591Y4244660D01*
X1224590D01*
X1235675Y4249252D01*
X1244159Y4257736D01*
X1248750Y4268821D01*
Y4280819D01*
X1244159Y4291904D01*
X1235675Y4300388D01*
X1224590Y4304980D01*
D02*
G37*
G36*
X2363119Y4010340D02*
X2351121D01*
X2340036Y4005748D01*
X2331552Y3997264D01*
X2326960Y3986179D01*
Y3974181D01*
X2331552Y3963096D01*
X2340036Y3954612D01*
X2351121Y3950020D01*
X2363119D01*
X2374204Y3954612D01*
X2382688Y3963096D01*
X2387280Y3974181D01*
Y3986179D01*
X2382688Y3997264D01*
X2374204Y4005748D01*
X2363119Y4010340D01*
D02*
G37*
G36*
X2106579D02*
X2094581D01*
X2083496Y4005748D01*
X2075012Y3997264D01*
X2070420Y3986179D01*
Y3974181D01*
X2075012Y3963096D01*
X2083496Y3954612D01*
X2094581Y3950020D01*
X2106579D01*
X2117664Y3954612D01*
X2126148Y3963096D01*
X2130740Y3974181D01*
Y3986179D01*
X2126148Y3997264D01*
X2117664Y4005748D01*
X2106579Y4010340D01*
D02*
G37*
G36*
X1979115Y3675474D02*
X1967117D01*
X1956032Y3670882D01*
X1947548Y3662398D01*
X1942956Y3651313D01*
Y3639315D01*
X1947548Y3628230D01*
X1956032Y3619746D01*
X1967117Y3615154D01*
X1979115D01*
X1990200Y3619746D01*
X1998684Y3628230D01*
X2003276Y3639315D01*
Y3651313D01*
X1998684Y3662398D01*
X1990200Y3670882D01*
X1979115Y3675474D01*
D02*
G37*
G36*
X1852115D02*
X1840117D01*
X1829032Y3670882D01*
X1820548Y3662398D01*
X1815956Y3651313D01*
Y3639315D01*
X1820548Y3628230D01*
X1829032Y3619746D01*
X1840117Y3615154D01*
X1852115D01*
X1863200Y3619746D01*
X1871684Y3628230D01*
X1876276Y3639315D01*
Y3651313D01*
X1871684Y3662398D01*
X1863200Y3670882D01*
X1852115Y3675474D01*
D02*
G37*
G36*
X1725115D02*
X1713117D01*
X1702032Y3670882D01*
X1693548Y3662398D01*
X1688956Y3651313D01*
Y3639315D01*
X1693548Y3628230D01*
X1702032Y3619746D01*
X1713117Y3615154D01*
X1725115D01*
X1736200Y3619746D01*
X1744684Y3628230D01*
X1749276Y3639315D01*
Y3651313D01*
X1744684Y3662398D01*
X1736200Y3670882D01*
X1725115Y3675474D01*
D02*
G37*
G36*
X1405353Y3732286D02*
X1386879D01*
X1369035Y3727505D01*
X1353037Y3718268D01*
X1339974Y3705205D01*
X1330737Y3689207D01*
X1325956Y3671363D01*
Y3652889D01*
X1330737Y3635045D01*
X1339974Y3619047D01*
X1353037Y3605984D01*
X1369035Y3596747D01*
X1386879Y3591966D01*
X1405353D01*
X1423197Y3596747D01*
X1439195Y3605984D01*
X1452258Y3619047D01*
X1461494Y3635045D01*
X1466276Y3652889D01*
Y3671363D01*
X1461494Y3689207D01*
X1452258Y3705205D01*
X1439195Y3718268D01*
X1423197Y3727505D01*
X1405353Y3732286D01*
D02*
G37*
G36*
X2555168Y3484560D02*
X2543169D01*
X2532084Y3479968D01*
X2523600Y3471484D01*
X2519008Y3460399D01*
Y3448401D01*
X2523600Y3437316D01*
X2532084Y3428832D01*
X2543169Y3424240D01*
X2555168D01*
X2566253Y3428832D01*
X2574737Y3437316D01*
X2579328Y3448401D01*
Y3460399D01*
X2574737Y3471484D01*
X2566253Y3479968D01*
X2555168Y3484560D01*
D02*
G37*
G36*
X1726632D02*
X1714633D01*
X1703548Y3479968D01*
X1695064Y3471484D01*
X1690473Y3460399D01*
Y3448401D01*
X1695064Y3437316D01*
X1703548Y3428832D01*
X1714633Y3424240D01*
X1726632D01*
X1737717Y3428832D01*
X1746201Y3437316D01*
X1750793Y3448401D01*
Y3460399D01*
X1746201Y3471484D01*
X1737717Y3479968D01*
X1726632Y3484560D01*
D02*
G37*
G36*
X2552628Y3382960D02*
X2540629D01*
X2529544Y3378368D01*
X2521060Y3369884D01*
X2516468Y3358799D01*
Y3346801D01*
X2521060Y3335716D01*
X2529544Y3327232D01*
X2540629Y3322640D01*
X2552628D01*
X2563713Y3327232D01*
X2572197Y3335716D01*
X2576788Y3346801D01*
Y3358799D01*
X2572197Y3369884D01*
X2563713Y3378368D01*
X2552628Y3382960D01*
D02*
G37*
G36*
X1724092D02*
X1712093D01*
X1701008Y3378368D01*
X1692524Y3369884D01*
X1687933Y3358799D01*
Y3346801D01*
X1692524Y3335716D01*
X1701008Y3327232D01*
X1712093Y3322640D01*
X1724092D01*
X1735177Y3327232D01*
X1743661Y3335716D01*
X1748253Y3346801D01*
Y3358799D01*
X1743661Y3369884D01*
X1735177Y3378368D01*
X1724092Y3382960D01*
D02*
G37*
G36*
X2552628Y3281360D02*
X2540629D01*
X2529544Y3276768D01*
X2521060Y3268284D01*
X2516468Y3257199D01*
Y3245201D01*
X2521060Y3234116D01*
X2529544Y3225632D01*
X2540629Y3221040D01*
X2552628D01*
X2563713Y3225632D01*
X2572197Y3234116D01*
X2576788Y3245201D01*
Y3257199D01*
X2572197Y3268284D01*
X2563713Y3276768D01*
X2552628Y3281360D01*
D02*
G37*
G36*
X1724092D02*
X1712093D01*
X1701008Y3276768D01*
X1692524Y3268284D01*
X1687933Y3257199D01*
Y3245201D01*
X1692524Y3234116D01*
X1701008Y3225632D01*
X1712093Y3221040D01*
X1724092D01*
X1735177Y3225632D01*
X1743661Y3234116D01*
X1748253Y3245201D01*
Y3257199D01*
X1743661Y3268284D01*
X1735177Y3276768D01*
X1724092Y3281360D01*
D02*
G37*
G36*
X973739Y2397440D02*
X961741D01*
X950656Y2392848D01*
X947797Y2389990D01*
X940914Y2385010D01*
X931203Y2389990D01*
X929685Y2391508D01*
X918600Y2396100D01*
X906601D01*
X895516Y2391508D01*
X889806Y2385798D01*
X882121Y2384106D01*
X874435Y2385798D01*
X868725Y2391508D01*
X857640Y2396100D01*
X845641D01*
X834556Y2391508D01*
X831997Y2388949D01*
X823701Y2384341D01*
X815404Y2388949D01*
X812845Y2391508D01*
X801760Y2396100D01*
X789761D01*
X778676Y2391508D01*
X770192Y2383024D01*
X765601Y2371939D01*
Y2359940D01*
X770192Y2348855D01*
X778676Y2340371D01*
X789761Y2335780D01*
X801760D01*
X812845Y2340371D01*
X815404Y2342930D01*
X823701Y2347538D01*
X831997Y2342930D01*
X834556Y2340371D01*
X845641Y2335780D01*
X857640D01*
X868725Y2340371D01*
X874435Y2346081D01*
X882121Y2347774D01*
X889806Y2346081D01*
X895516Y2340371D01*
X906601Y2335780D01*
X918600D01*
X929685Y2340371D01*
X932544Y2343230D01*
X939427Y2348210D01*
X949137Y2343230D01*
X950656Y2341712D01*
X961741Y2337120D01*
X973739D01*
X984824Y2341712D01*
X993308Y2350196D01*
X997900Y2361281D01*
Y2373279D01*
X993308Y2384364D01*
X984824Y2392848D01*
X973739Y2397440D01*
D02*
G37*
G36*
X2106115Y861204D02*
X2094117D01*
X2083032Y856612D01*
X2074548Y848128D01*
X2069956Y837043D01*
Y825045D01*
X2074548Y813960D01*
X2083032Y805476D01*
X2094117Y800884D01*
X2106115D01*
X2117200Y805476D01*
X2125684Y813960D01*
X2130276Y825045D01*
Y837043D01*
X2125684Y848128D01*
X2117200Y856612D01*
X2106115Y861204D01*
D02*
G37*
G36*
X1979115D02*
X1967117D01*
X1956032Y856612D01*
X1947548Y848128D01*
X1942956Y837043D01*
Y825045D01*
X1947548Y813960D01*
X1956032Y805476D01*
X1967117Y800884D01*
X1979115D01*
X1990200Y805476D01*
X1998684Y813960D01*
X2003276Y825045D01*
Y837043D01*
X1998684Y848128D01*
X1990200Y856612D01*
X1979115Y861204D01*
D02*
G37*
G36*
X1852115D02*
X1840117D01*
X1829032Y856612D01*
X1820548Y848128D01*
X1815956Y837043D01*
Y825045D01*
X1820548Y813960D01*
X1829032Y805476D01*
X1840117Y800884D01*
X1852115D01*
X1863200Y805476D01*
X1871684Y813960D01*
X1876276Y825045D01*
Y837043D01*
X1871684Y848128D01*
X1863200Y856612D01*
X1852115Y861204D01*
D02*
G37*
G36*
X1725115D02*
X1713117D01*
X1702032Y856612D01*
X1693548Y848128D01*
X1688956Y837043D01*
Y825045D01*
X1693548Y813960D01*
X1702032Y805476D01*
X1713117Y800884D01*
X1725115D01*
X1736200Y805476D01*
X1744684Y813960D01*
X1749276Y825045D01*
Y837043D01*
X1744684Y848128D01*
X1736200Y856612D01*
X1725115Y861204D01*
D02*
G37*
G36*
X2363119Y860740D02*
X2351121D01*
X2340036Y856148D01*
X2331552Y847664D01*
X2326960Y836579D01*
Y824581D01*
X2331552Y813496D01*
X2340036Y805012D01*
X2351121Y800420D01*
X2363119D01*
X2374204Y805012D01*
X2382688Y813496D01*
X2387280Y824581D01*
Y836579D01*
X2382688Y847664D01*
X2374204Y856148D01*
X2363119Y860740D01*
D02*
G37*
G36*
X1405353Y918016D02*
X1386879D01*
X1369035Y913235D01*
X1353037Y903998D01*
X1339974Y890935D01*
X1330737Y874937D01*
X1325956Y857093D01*
Y838619D01*
X1330737Y820775D01*
X1339974Y804777D01*
X1353037Y791714D01*
X1369035Y782477D01*
X1386879Y777696D01*
X1405353D01*
X1423197Y782477D01*
X1439195Y791714D01*
X1452258Y804777D01*
X1461494Y820775D01*
X1466276Y838619D01*
Y857093D01*
X1461494Y874937D01*
X1452258Y890935D01*
X1439195Y903998D01*
X1423197Y913235D01*
X1405353Y918016D01*
D02*
G37*
G36*
X5374272Y7434242D02*
X5362273D01*
X5351188Y7429651D01*
X5342704Y7421167D01*
X5338113Y7410081D01*
Y7398083D01*
X5342704Y7386998D01*
X5351188Y7378514D01*
X5362273Y7373922D01*
X5374272D01*
X5385357Y7378514D01*
X5393841Y7386998D01*
X5398432Y7398083D01*
Y7410081D01*
X5393841Y7421167D01*
X5385357Y7429651D01*
X5374272Y7434242D01*
D02*
G37*
G36*
X5506412Y7384916D02*
X5494413D01*
X5483328Y7380325D01*
X5474844Y7371841D01*
X5470252Y7360756D01*
Y7348757D01*
X5474844Y7337672D01*
X5483328Y7329188D01*
X5494413Y7324596D01*
X5506412D01*
X5517497Y7329188D01*
X5525981Y7337672D01*
X5530572Y7348757D01*
Y7360756D01*
X5525981Y7371841D01*
X5517497Y7380325D01*
X5506412Y7384916D01*
D02*
G37*
G36*
X5584627Y7307355D02*
X5572629D01*
X5561544Y7302763D01*
X5553060Y7294279D01*
X5548468Y7283194D01*
Y7271196D01*
X5553060Y7260111D01*
X5561544Y7251627D01*
X5572629Y7247035D01*
X5584627D01*
X5595712Y7251627D01*
X5604197Y7260111D01*
X5608788Y7271196D01*
Y7283194D01*
X5604197Y7294279D01*
X5595712Y7302763D01*
X5584627Y7307355D01*
D02*
G37*
G36*
X5797199Y6844980D02*
X5785201D01*
X5774116Y6840388D01*
X5765632Y6831904D01*
X5761040Y6820819D01*
Y6808821D01*
X5765632Y6797736D01*
X5774116Y6789252D01*
X5785201Y6784660D01*
X5797199D01*
X5808285Y6789252D01*
X5816769Y6797736D01*
X5821360Y6808821D01*
Y6820819D01*
X5816769Y6831904D01*
X5808285Y6840388D01*
X5797199Y6844980D01*
D02*
G37*
G36*
X5812741Y6420917D02*
X5800743D01*
X5789657Y6416326D01*
X5781173Y6407842D01*
X5776582Y6396757D01*
Y6384758D01*
X5781173Y6373673D01*
X5789657Y6365189D01*
X5800743Y6360597D01*
X5812741D01*
X5823826Y6365189D01*
X5832310Y6373673D01*
X5836902Y6384758D01*
Y6396757D01*
X5832310Y6407842D01*
X5823826Y6416326D01*
X5812741Y6420917D01*
D02*
G37*
G36*
X5723588Y6348224D02*
X5711589D01*
X5700504Y6343632D01*
X5692020Y6335148D01*
X5687429Y6324063D01*
Y6312064D01*
X5692020Y6300979D01*
X5700504Y6292495D01*
X5711589Y6287904D01*
X5723588D01*
X5734673Y6292495D01*
X5743157Y6300979D01*
X5747748Y6312064D01*
Y6324063D01*
X5743157Y6335148D01*
X5734673Y6343632D01*
X5723588Y6348224D01*
D02*
G37*
G36*
X4407819Y6298880D02*
X4395821D01*
X4384736Y6294288D01*
X4376252Y6285804D01*
X4371660Y6274719D01*
Y6262721D01*
X4376252Y6251636D01*
X4384736Y6243152D01*
X4395821Y6238560D01*
X4407819D01*
X4418904Y6243152D01*
X4427388Y6251636D01*
X4431980Y6262721D01*
Y6274719D01*
X4427388Y6285804D01*
X4418904Y6294288D01*
X4407819Y6298880D01*
D02*
G37*
G36*
X5645804Y6256777D02*
X5633805D01*
X5622720Y6252185D01*
X5614236Y6243701D01*
X5609645Y6232616D01*
Y6220618D01*
X5614236Y6209533D01*
X5622720Y6201049D01*
X5633805Y6196457D01*
X5645804D01*
X5656889Y6201049D01*
X5665373Y6209533D01*
X5669965Y6220618D01*
Y6232616D01*
X5665373Y6243701D01*
X5656889Y6252185D01*
X5645804Y6256777D01*
D02*
G37*
G36*
X5537014Y6172541D02*
X5525016D01*
X5513931Y6167949D01*
X5505446Y6159465D01*
X5500855Y6148380D01*
Y6136381D01*
X5505446Y6125296D01*
X5513931Y6116812D01*
X5525016Y6112221D01*
X5537014D01*
X5548099Y6116812D01*
X5556583Y6125296D01*
X5561175Y6136381D01*
Y6148380D01*
X5556583Y6159465D01*
X5548099Y6167949D01*
X5537014Y6172541D01*
D02*
G37*
G36*
X5417851Y6129117D02*
X5405852D01*
X5394767Y6124525D01*
X5386283Y6116041D01*
X5381692Y6104956D01*
Y6092957D01*
X5386283Y6081872D01*
X5394767Y6073388D01*
X5405852Y6068797D01*
X5417851D01*
X5428936Y6073388D01*
X5437420Y6081872D01*
X5442011Y6092957D01*
Y6104956D01*
X5437420Y6116041D01*
X5428936Y6124525D01*
X5417851Y6129117D01*
D02*
G37*
G36*
X3953159Y6042340D02*
X3941161D01*
X3930076Y6037748D01*
X3921592Y6029264D01*
X3917000Y6018179D01*
Y6006181D01*
X3921592Y5995096D01*
X3930076Y5986612D01*
X3941161Y5982020D01*
X3953159D01*
X3964244Y5986612D01*
X3972728Y5995096D01*
X3977320Y6006181D01*
Y6018179D01*
X3972728Y6029264D01*
X3964244Y6037748D01*
X3953159Y6042340D01*
D02*
G37*
G36*
X3286339Y6214319D02*
X3274340D01*
X3263255Y6209728D01*
X3254771Y6201244D01*
X3250180Y6190159D01*
Y6178160D01*
X3254771Y6167075D01*
X3257330Y6164516D01*
X3261938Y6156219D01*
X3257330Y6147923D01*
X3254771Y6145364D01*
X3250180Y6134279D01*
Y6122280D01*
X3254771Y6111195D01*
X3260481Y6105485D01*
X3262174Y6097799D01*
X3260481Y6090114D01*
X3254771Y6084404D01*
X3250180Y6073319D01*
Y6061320D01*
X3254771Y6050235D01*
X3257630Y6047376D01*
X3262610Y6040493D01*
X3257630Y6030783D01*
X3256112Y6029264D01*
X3251520Y6018179D01*
Y6006181D01*
X3256112Y5995096D01*
X3264596Y5986612D01*
X3275681Y5982020D01*
X3287679D01*
X3298764Y5986612D01*
X3307248Y5995096D01*
X3311840Y6006181D01*
Y6018179D01*
X3307248Y6029264D01*
X3304390Y6032123D01*
X3299410Y6039006D01*
X3304390Y6048717D01*
X3305908Y6050235D01*
X3310500Y6061320D01*
Y6073319D01*
X3305908Y6084404D01*
X3300198Y6090114D01*
X3298506Y6097799D01*
X3300198Y6105485D01*
X3305908Y6111195D01*
X3310500Y6122280D01*
Y6134279D01*
X3305908Y6145364D01*
X3303349Y6147923D01*
X3298741Y6156219D01*
X3303349Y6164516D01*
X3305908Y6167075D01*
X3310500Y6178160D01*
Y6190159D01*
X3305908Y6201244D01*
X3297424Y6209728D01*
X3286339Y6214319D01*
D02*
G37*
G36*
X5205353Y3732286D02*
X5186879D01*
X5169035Y3727505D01*
X5153037Y3718268D01*
X5139974Y3705205D01*
X5130737Y3689207D01*
X5125956Y3671363D01*
Y3652889D01*
X5130737Y3635045D01*
X5139974Y3619047D01*
X5153037Y3605984D01*
X5169035Y3596747D01*
X5186879Y3591966D01*
X5205353D01*
X5223197Y3596747D01*
X5239195Y3605984D01*
X5252258Y3619047D01*
X5261494Y3635045D01*
X5266276Y3652889D01*
Y3671363D01*
X5261494Y3689207D01*
X5252258Y3705205D01*
X5239195Y3718268D01*
X5223197Y3727505D01*
X5205353Y3732286D01*
D02*
G37*
%LPD*%
D10*
X8494881Y6929126D02*
G03*
X8558511Y6902770I63630J63630D01*
G01*
X6110734Y7181951D02*
G03*
X6110769Y7181985I-63365J63434D01*
G01*
X6047370Y7155724D02*
G03*
X6110734Y7181951I0J89660D01*
G01*
X6174602Y7213130D02*
G03*
X6190361Y7251177I-38047J38047D01*
G01*
X6158842Y7190547D02*
G03*
X6155273Y7171085I51273J-19462D01*
G01*
X6171336Y7209864D02*
G03*
X6158842Y7190547I38779J-38779D01*
G01*
X6137030Y7208246D02*
G03*
X6167247Y7281198I-72952J72952D01*
G01*
X6179190Y7386396D02*
G03*
X6167247Y7323932I157379J-62465D01*
G01*
X6192043Y7418862D02*
G03*
X6192044Y7418864I-12044J4770D01*
G01*
X6336569Y7470140D02*
G03*
X6233185Y7427317I0J-146208D01*
G01*
D02*
G03*
X6190361Y7323932I103385J-103385D01*
G01*
X6216934Y7443754D02*
G03*
X6216841Y7443661I119635J-119822D01*
G01*
X6336569Y7493254D02*
G03*
X6216934Y7443754I0J-169322D01*
G01*
X8832950Y7440827D02*
G03*
X8832995Y7440785I8920J9393D01*
G01*
X8831519Y7442186D02*
G03*
X8703930Y7493254I-127589J-133851D01*
G01*
X8818263Y7422829D02*
G03*
X8703930Y7470140I-114333J-114494D01*
G01*
X8818344Y7422748D02*
G03*
X8818263Y7422829I-114413J-114413D01*
G01*
X8935974Y7266374D02*
G03*
X8885464Y7388316I-172452J0D01*
G01*
X8865788Y7375304D02*
G03*
X8865735Y7375357I-113822J-113717D01*
G01*
X8912860Y7261587D02*
G03*
X8865788Y7375304I-160895J0D01*
G01*
X8890533Y7070362D02*
G03*
X8935974Y7194942I-148054J124580D01*
G01*
X8862957Y7074465D02*
G03*
X8912860Y7194942I-120478J120478D01*
G01*
X8773481Y7008170D02*
G03*
X8813053Y7024561I0J55963D01*
G01*
X8781512Y6879007D02*
G03*
X8802223Y6935556I-66848J56549D01*
G01*
X8834387Y7013207D02*
G03*
X8802223Y6935556I77651J-77651D01*
G01*
X8778002Y6875067D02*
G03*
X8778048Y6875114I-27701J27703D01*
G01*
X8714663Y6847997D02*
G03*
X8776577Y6873643I0J87560D01*
G01*
X8778048Y6875114D02*
G03*
X8780211Y6877468I-27748J27656D01*
G01*
X8558511Y6902770D02*
X8750300D01*
X8468525Y6955483D02*
X8494881Y6929126D01*
X8465820Y6955483D02*
X8468525D01*
X6110769Y7181985D02*
X6137030Y7208246D01*
X5988482Y7155724D02*
X6047370D01*
X6171336Y7209864D02*
X6174602Y7213130D01*
X6190361Y7251177D02*
Y7323932D01*
X6167247Y7281198D02*
Y7323932D01*
X6192044Y7418864D02*
X6216841Y7443661D01*
X6179190Y7386396D02*
X6192043Y7418862D01*
X6336569Y7493254D02*
X8703930D01*
X6336569Y7470140D02*
X8703930D01*
X8831519Y7442186D02*
X8832950Y7440827D01*
X8832995Y7440785D02*
X8885464Y7388316D01*
X8818344Y7422748D02*
X8865735Y7375357D01*
X8935974Y7194942D02*
Y7266374D01*
X8912860Y7194942D02*
Y7261587D01*
X8834387Y7013207D02*
X8885180Y7064000D01*
X8890533Y7070362D01*
X8813053Y7024561D02*
X8862957Y7074465D01*
X8750300Y7008170D02*
X8773481D01*
X8776577Y6873643D02*
X8778002Y6875067D01*
X8780211Y6877468D02*
X8781512Y6879007D01*
X8465856Y6847997D02*
X8714663D01*
D12*
X2631440Y6827520D02*
X2634708Y6824252D01*
X2658305D01*
X3055935Y6426622D01*
D13*
X2758440Y6192954D02*
G03*
X2796464Y6101156I129821J0D01*
G01*
X111760Y6904790D02*
G03*
X186155Y6725185I254000J0D01*
G01*
X2703830Y6531610D02*
G03*
X2571990Y6586220I-131840J-131840D01*
G01*
X2758440Y6399770D02*
G03*
X2703830Y6531610I-186449J0D01*
G01*
X250725Y6660615D02*
G03*
X430330Y6586220I179605J179605D01*
G01*
X2796534Y6101087D02*
G03*
X2888261Y6063133I91727J91867D01*
G01*
X2796464Y6101156D02*
G03*
X2796534Y6101087I91797J91797D01*
G01*
X2758440Y6192954D02*
Y6399770D01*
X111760Y6904790D02*
Y7241540D01*
X186155Y6725185D02*
X250725Y6660615D01*
X430330Y6586220D02*
X2571990D01*
X2888261Y6063133D02*
X3086014D01*
D14*
X7175500Y3586480D02*
X7504597D01*
X7507137Y3589020D01*
X7546340Y5524500D02*
X7548880Y5527040D01*
X7317803Y5524500D02*
X7546340D01*
X7287725Y1688636D02*
X7528129D01*
D15*
X7933111Y5684520D02*
X7972481Y5645150D01*
Y5611316D02*
X7977697Y5606100D01*
X7972481Y5611316D02*
Y5645150D01*
X7940040Y5709920D02*
X8001000Y5648960D01*
X8168826D01*
X8224840Y5592946D01*
X7900458Y5822471D02*
Y6089474D01*
X7946736Y6112856D02*
X7950200Y6116320D01*
X7900458Y6089474D02*
X7923840Y6112856D01*
X7946736D01*
X7877598Y5813002D02*
Y6076047D01*
Y6098943D01*
X7945120Y6166465D01*
X7877598Y5813002D02*
X8014650Y5675950D01*
X7900458Y5822471D02*
X8007929Y5715000D01*
X8101980D01*
X8014650Y5675950D02*
X8182930D01*
X8221980Y5715000D01*
X7945120Y6166465D02*
Y6240780D01*
X7566660Y5684520D02*
X7933111D01*
X7513320Y5770189D02*
X7573589Y5709920D01*
X7513320Y5770189D02*
Y5859780D01*
X7573589Y5709920D02*
X7940040D01*
X7421880Y5989320D02*
X7472680Y5938520D01*
Y5778500D02*
X7566660Y5684520D01*
X7472680Y5778500D02*
Y5938520D01*
X8234092Y1852956D02*
Y1897305D01*
X8233040Y1898357D02*
X8234092Y1897305D01*
X8211051Y1829915D02*
X8234092Y1852956D01*
X8101010Y1901510D02*
X8157578D01*
X8084821Y1917700D02*
X8101010Y1901510D01*
X7972117Y1917700D02*
X8084821D01*
X7896860Y1992958D02*
X7972117Y1917700D01*
X7981587Y1940560D02*
X8135967D01*
X7919720Y2002427D02*
X7981587Y1940560D01*
X8141029Y3828731D02*
X8187700Y3782060D01*
X8141029Y3828731D02*
Y3829575D01*
X8034060Y3852449D02*
X8118155D01*
X8141029Y3829575D01*
X7974010Y3912499D02*
X8034060Y3852449D01*
X7974010Y3912499D02*
Y4258630D01*
X8038151Y3816030D02*
X8099351D01*
X7951150Y3903030D02*
Y4141970D01*
X8099351Y3816030D02*
X8101980Y3813400D01*
X7951150Y3903030D02*
X8038151Y3816030D01*
X7919720Y2002427D02*
Y2254750D01*
X7937500Y2272530D01*
Y2275840D01*
X7896860Y2290425D02*
X7937500Y2331065D01*
X7896860Y1992958D02*
Y2290425D01*
X7937500Y2331065D02*
Y2405380D01*
X8157578Y1901510D02*
X8187860Y1871227D01*
X8032000Y1846105D02*
X8048190Y1829915D01*
X7567826Y1846105D02*
X8032000D01*
X8048190Y1829915D02*
X8211051D01*
X7439660Y2021070D02*
X7457440Y2003290D01*
X7439660Y2021070D02*
Y2024380D01*
X7457440Y1956491D02*
X7567826Y1846105D01*
X7457440Y1956491D02*
Y2003290D01*
X7439660Y2153920D02*
X7480300Y2113280D01*
Y1965960D02*
X7577295Y1868965D01*
X7480300Y1965960D02*
Y2113280D01*
X7577295Y1868965D02*
X8064365D01*
X7470140Y3856411D02*
X7572431Y3754120D01*
X7447280Y3931920D02*
X7470140Y3909060D01*
Y3856411D02*
Y3909060D01*
X7493000Y3865880D02*
Y4008120D01*
Y3865880D02*
X7581900Y3776980D01*
X7442200Y4058920D02*
X7493000Y4008120D01*
X7934960Y4158160D02*
Y4163060D01*
Y4158160D02*
X7951150Y4141970D01*
X7929880Y4302760D02*
X7974010Y4258630D01*
X7572431Y3754120D02*
X8031525D01*
X8047715Y3737930D01*
X8198795D02*
X8230135Y3769270D01*
X8047715Y3737930D02*
X8198795D01*
X8230135Y3805063D02*
X8233392Y3808320D01*
X8230135Y3769270D02*
Y3805063D01*
X7581900Y3776980D02*
X8063890D01*
D52*
X6563360Y6927596D02*
D03*
X7843520D02*
D03*
D53*
X7603490Y7067550D02*
D03*
X7403338D02*
D03*
X7203440D02*
D03*
X7003542D02*
D03*
X6803390D02*
D03*
X7553452Y6917690D02*
D03*
X7303516D02*
D03*
X7103364D02*
D03*
X6853428D02*
D03*
D54*
X547080Y7138480D02*
D03*
D55*
X767080Y6888480D02*
D03*
D56*
X1047080Y7363480D02*
D03*
D57*
X8823059Y7169125D02*
D03*
X8393062D02*
D03*
Y6689115D02*
D03*
X8823059D02*
D03*
D58*
X1396116Y847856D02*
D03*
X5196116D02*
D03*
X1396116Y6469476D02*
D03*
X5196116D02*
D03*
X1396116Y3662126D02*
D03*
X5196116D02*
D03*
D59*
X4736432Y6839552D02*
D03*
X4699168Y6802288D02*
D03*
X3007360Y6799716D02*
D03*
X2956063Y6799583D02*
D03*
X5681067Y6508393D02*
D03*
X5463758Y6644716D02*
D03*
X5359876Y6487676D02*
D03*
X5097780Y6428740D02*
D03*
X7993526Y5521325D02*
D03*
X7977697Y5606100D02*
D03*
X7762240Y4704080D02*
D03*
X8460740Y1654790D02*
D03*
Y1707490D02*
D03*
Y5545430D02*
D03*
Y5492730D02*
D03*
Y3562330D02*
D03*
Y3615030D02*
D03*
X4210267Y632460D02*
D03*
Y690880D02*
D03*
Y751840D02*
D03*
X3381732Y632460D02*
D03*
Y690880D02*
D03*
Y751840D02*
D03*
X2553196Y632460D02*
D03*
Y690880D02*
D03*
Y751840D02*
D03*
X1724660D02*
D03*
Y690880D02*
D03*
Y632460D02*
D03*
X2549168Y3454400D02*
D03*
X2546628Y3352800D02*
D03*
Y3251200D02*
D03*
X1720633Y3454400D02*
D03*
X1718093Y3352800D02*
D03*
Y3251200D02*
D03*
X3377704Y3454400D02*
D03*
X3375164Y3352800D02*
D03*
Y3251200D02*
D03*
X4203700D02*
D03*
Y3352800D02*
D03*
X4206240Y3454400D02*
D03*
X2481116Y831044D02*
D03*
X2608116D02*
D03*
X2735116D02*
D03*
Y3645314D02*
D03*
X2608116D02*
D03*
X2481116D02*
D03*
X2370311Y6438490D02*
D03*
X2438720Y6438900D02*
D03*
X2405380D02*
D03*
X2553548Y6540820D02*
D03*
X1846116Y6452664D02*
D03*
X1719116D02*
D03*
X1973116D02*
D03*
Y3645314D02*
D03*
X1846116D02*
D03*
X1719116D02*
D03*
Y831044D02*
D03*
X1846116D02*
D03*
X1973116D02*
D03*
X2357120Y830580D02*
D03*
X2100116Y831044D02*
D03*
X2862116Y833584D02*
D03*
X2991997Y831502D02*
D03*
X4132116Y828504D02*
D03*
X4513116Y823424D02*
D03*
X4898311Y830229D02*
D03*
X2100580Y3980180D02*
D03*
X2357120D02*
D03*
X2862116Y3647904D02*
D03*
X2989116Y3645364D02*
D03*
X4135120Y3649980D02*
D03*
X4513116Y3984796D02*
D03*
X4894116Y3642824D02*
D03*
X3233420Y6913880D02*
D03*
X3284220Y6802120D02*
D03*
Y6860540D02*
D03*
Y6913880D02*
D03*
X3947160Y6012180D02*
D03*
X5420015Y5960773D02*
D03*
X2153920Y6494780D02*
D03*
X2410460D02*
D03*
X2422613Y6275115D02*
D03*
X2989506Y6412433D02*
D03*
X3055935Y6426622D02*
D03*
X2958087Y6923730D02*
D03*
X5262880Y5971540D02*
D03*
X4451356Y6606169D02*
D03*
X4894116Y6462224D02*
D03*
X4132116Y6781336D02*
D03*
X4074160Y6405880D02*
D03*
X169188Y4520034D02*
D03*
X4401820Y6268720D02*
D03*
X4252433Y6398733D02*
D03*
X4213860Y6360160D02*
D03*
X2631440Y6827520D02*
D03*
X7681544Y4813300D02*
D03*
X7646477Y4758580D02*
D03*
X7639575Y2821866D02*
D03*
X7683324Y2879615D02*
D03*
X7680960Y975360D02*
D03*
X7639160Y913020D02*
D03*
X7716520Y4909820D02*
D03*
X7660640D02*
D03*
X7586980Y1688636D02*
D03*
X7507137Y3589020D02*
D03*
X7551793Y3588558D02*
D03*
X7548880Y5527040D02*
D03*
X7601419Y5526107D02*
D03*
X208280Y2009140D02*
D03*
Y1958340D02*
D03*
X259080D02*
D03*
Y2009140D02*
D03*
X309880D02*
D03*
Y1958340D02*
D03*
X711200Y1676400D02*
D03*
X660400D02*
D03*
Y1625600D02*
D03*
X711200D02*
D03*
Y1574800D02*
D03*
X660400D02*
D03*
X7612380Y5321300D02*
D03*
X8742680Y7352660D02*
D03*
Y7299960D02*
D03*
X8740140Y7411720D02*
D03*
Y7244080D02*
D03*
X5072380Y6662420D02*
D03*
X5207000Y6631940D02*
D03*
X5199380Y6735130D02*
D03*
X5341620Y6713220D02*
D03*
X5290820Y6593840D02*
D03*
X4968240Y6731000D02*
D03*
X8364220Y7035800D02*
D03*
X8401485Y6998535D02*
D03*
X8830745Y6797875D02*
D03*
X8793480Y6835140D02*
D03*
X8338820Y6804660D02*
D03*
X8376085Y6841925D02*
D03*
X6087374Y7238983D02*
D03*
X1144340Y4605761D02*
D03*
X1143000Y4660900D02*
D03*
X1141800Y4717521D02*
D03*
X1140460Y4772660D02*
D03*
X8354060Y7292340D02*
D03*
X8303260D02*
D03*
X8187796Y7291695D02*
D03*
X8212068Y6560337D02*
D03*
X7914640Y6563360D02*
D03*
X7960360D02*
D03*
X7610460Y1479976D02*
D03*
X7604760Y3393440D02*
D03*
X4639793Y6098957D02*
D03*
X4886960D02*
D03*
X4600095Y6365560D02*
D03*
X8750300Y6902770D02*
D03*
X8465820Y6955483D02*
D03*
X4461904Y6869824D02*
D03*
X8750300Y6955470D02*
D03*
X8465820Y6902783D02*
D03*
X4499169Y6907089D02*
D03*
X5902960Y6918960D02*
D03*
X5255260Y6885940D02*
D03*
X5791200Y6814820D02*
D03*
X5933440Y6832600D02*
D03*
X8886989Y6774180D02*
D03*
X8832883Y6889880D02*
D03*
X8318728Y6748780D02*
D03*
X8326120Y7084060D02*
D03*
X8379460Y6896100D02*
D03*
X8413002Y6947109D02*
D03*
X4480625Y7228322D02*
D03*
X4404942Y7154178D02*
D03*
X8427637Y3316036D02*
D03*
X6155273Y7171085D02*
D03*
X6121039Y7349429D02*
D03*
X7886700Y1760220D02*
D03*
X111760Y7241540D02*
D03*
X1218590Y4274820D02*
D03*
X1170940D02*
D03*
X370840Y4224020D02*
D03*
X419423Y4223367D02*
D03*
X8224840Y5592946D02*
D03*
X8221980Y5715000D02*
D03*
X8101980D02*
D03*
X7945120Y6240780D02*
D03*
X7950200Y6116320D02*
D03*
X7421880Y5989320D02*
D03*
X7513320Y5859780D02*
D03*
X3281680Y7462520D02*
D03*
X3280340Y7346421D02*
D03*
Y7290541D02*
D03*
Y7407381D02*
D03*
Y6067319D02*
D03*
Y6184159D02*
D03*
Y6128279D02*
D03*
X3281680Y6012180D02*
D03*
X2435180Y7482160D02*
D03*
X2420583Y7195783D02*
D03*
X2531700Y5992540D02*
D03*
X764540Y5156200D02*
D03*
X763200Y5272299D02*
D03*
Y5328179D02*
D03*
Y5211339D02*
D03*
X810260Y5156200D02*
D03*
X808920Y5272299D02*
D03*
Y5328179D02*
D03*
Y5211339D02*
D03*
X8304840Y5592945D02*
D03*
X8877300Y746760D02*
D03*
X8798380Y838380D02*
D03*
X8545380Y956760D02*
D03*
X8628380Y1046480D02*
D03*
X8128000Y1430020D02*
D03*
X8242557Y1440061D02*
D03*
X8341360Y1445260D02*
D03*
X8376920Y1595120D02*
D03*
X8255000Y1597660D02*
D03*
X8115300Y1607820D02*
D03*
X8120380Y3309620D02*
D03*
X8321040Y3302000D02*
D03*
X8252460Y3429000D02*
D03*
X8310880Y3502660D02*
D03*
X8199120Y3515360D02*
D03*
X8094980Y3533140D02*
D03*
X8105140Y5204460D02*
D03*
X8161020Y5367020D02*
D03*
X8384977Y5412929D02*
D03*
X8310880Y5466080D02*
D03*
X8318500Y5275580D02*
D03*
X5029200Y6507480D02*
D03*
X5082540Y7045960D02*
D03*
X4841240Y6685280D02*
D03*
X972820Y2590800D02*
D03*
X856721Y2589460D02*
D03*
X800841D02*
D03*
X917681D02*
D03*
X967740Y2367280D02*
D03*
X851641Y2365940D02*
D03*
X795761D02*
D03*
X912601D02*
D03*
X543560Y2369820D02*
D03*
X427461Y2368480D02*
D03*
X371581D02*
D03*
X488421D02*
D03*
X340360Y4775200D02*
D03*
X339020Y4891299D02*
D03*
Y4947179D02*
D03*
Y4830339D02*
D03*
X1140460Y4884420D02*
D03*
Y5001260D02*
D03*
Y4945380D02*
D03*
X1141800Y4829281D02*
D03*
X162560Y4320540D02*
D03*
X1236980Y6080760D02*
D03*
X5257800Y7299960D02*
D03*
X5546050Y7080800D02*
D03*
X5682480Y6693487D02*
D03*
X5742940Y6692900D02*
D03*
X3030306Y7358227D02*
D03*
X3083646Y7411567D02*
D03*
Y7358227D02*
D03*
X3030306Y7411567D02*
D03*
X3086014Y6063133D02*
D03*
X3032674Y6116473D02*
D03*
X3086014D02*
D03*
X8460740Y3222330D02*
D03*
Y3275030D02*
D03*
X4627880Y7167880D02*
D03*
X4147536Y7479473D02*
D03*
X4074240Y7393940D02*
D03*
X3977640Y7269480D02*
D03*
X3897440Y7182260D02*
D03*
X4332986Y7436398D02*
D03*
X4244240Y7139940D02*
D03*
X4587240Y7056120D02*
D03*
X4391660Y6934200D02*
D03*
X4334458Y7068945D02*
D03*
X4259061Y6990532D02*
D03*
X5531015Y6142381D02*
D03*
X5411852Y6098957D02*
D03*
X5639805Y6226617D02*
D03*
X5717589Y6318064D02*
D03*
X5806742Y6390757D02*
D03*
X5897268Y7073814D02*
D03*
X8917940Y5324790D02*
D03*
Y5272090D02*
D03*
X5368272Y7404082D02*
D03*
X5500412Y7354756D02*
D03*
X5619097Y7148177D02*
D03*
X5578628Y7277195D02*
D03*
X4815840Y5958561D02*
D03*
X5285870Y6225588D02*
D03*
X5405120Y6268720D02*
D03*
X5441692Y7143492D02*
D03*
X5371775Y7230049D02*
D03*
X5213260Y7501980D02*
D03*
X4892040Y7457440D02*
D03*
X4861560Y7350760D02*
D03*
X4532040Y7413580D02*
D03*
X5988482Y7155724D02*
D03*
X4805091Y6958924D02*
D03*
X4803140Y6906260D02*
D03*
X4838810Y7005354D02*
D03*
X4744604Y6895768D02*
D03*
X8465856Y6847997D02*
D03*
X8750300Y7008170D02*
D03*
X8547100Y5971540D02*
D03*
X8336280D02*
D03*
X8442960D02*
D03*
X8608060Y7054113D02*
D03*
Y6804127D02*
D03*
X8460740Y5152730D02*
D03*
Y5205430D02*
D03*
X8917940Y3394390D02*
D03*
Y3341690D02*
D03*
Y1486850D02*
D03*
Y1434150D02*
D03*
X8460740Y1367490D02*
D03*
Y1314790D02*
D03*
X7769860Y5580380D02*
D03*
X7772400Y5321300D02*
D03*
X7739380Y5257800D02*
D03*
X8303260Y5717540D02*
D03*
X8276040Y5838551D02*
D03*
X7975600Y5839460D02*
D03*
X7703820Y2989580D02*
D03*
X7764780Y2992120D02*
D03*
X7780020Y1076960D02*
D03*
X7724140D02*
D03*
X7508240Y6243320D02*
D03*
X8723620Y4584700D02*
D03*
X8798615Y4678680D02*
D03*
X8542840Y4794700D02*
D03*
X8700320D02*
D03*
X7713496Y4747434D02*
D03*
X8125460Y4048760D02*
D03*
X8227060D02*
D03*
X8547100D02*
D03*
X8440420D02*
D03*
X8336280D02*
D03*
X8887460Y3634740D02*
D03*
X8884920Y3528060D02*
D03*
X8882380Y3098800D02*
D03*
Y3208020D02*
D03*
X8703140Y2864300D02*
D03*
X8542840D02*
D03*
X8798380Y2740840D02*
D03*
X8723620Y2654300D02*
D03*
X7991811Y3588227D02*
D03*
X7712880Y2818300D02*
D03*
X8112760Y2242820D02*
D03*
X8122920Y2141220D02*
D03*
X8229600D02*
D03*
X8336280D02*
D03*
X8442960D02*
D03*
X8549640D02*
D03*
X8279353Y2039619D02*
D03*
X8233040Y1898357D02*
D03*
X7866380Y3070860D02*
D03*
X7434580Y2405380D02*
D03*
X7647940Y1793240D02*
D03*
X7835900Y1733144D02*
D03*
X7807960Y1440180D02*
D03*
X7739384Y1425660D02*
D03*
X8062680Y1999698D02*
D03*
X7876540Y1137920D02*
D03*
Y1363980D02*
D03*
X7876098Y1269595D02*
D03*
X7863657Y3269000D02*
D03*
X8303260Y1054100D02*
D03*
X8185000Y1056640D02*
D03*
X8745220Y1145540D02*
D03*
Y1252220D02*
D03*
X8744804Y1574080D02*
D03*
X8625840Y1681480D02*
D03*
X8489400Y1999702D02*
D03*
X8308340Y1910080D02*
D03*
X8135967Y1940560D02*
D03*
X7528129Y1688636D02*
D03*
X8181340Y2959100D02*
D03*
X8304680Y2963060D02*
D03*
X7866380Y3185160D02*
D03*
X7786540Y3276600D02*
D03*
X7858285Y3644485D02*
D03*
X8114582Y4157262D02*
D03*
X8425303Y1264097D02*
D03*
X8425180Y1414780D02*
D03*
X8425303Y3171637D02*
D03*
X8745220Y3050540D02*
D03*
Y3159760D02*
D03*
X8746282Y3483098D02*
D03*
X8626712Y3588680D02*
D03*
X8336280Y3827780D02*
D03*
X8276040Y3907242D02*
D03*
X8489027D02*
D03*
X8062680Y3907238D02*
D03*
X7439660Y2153920D02*
D03*
Y2024380D02*
D03*
X8064365Y1868965D02*
D03*
X7937500Y2275840D02*
D03*
Y2405380D02*
D03*
X8101980Y3813400D02*
D03*
X8233392Y3808320D02*
D03*
X8187700Y3782060D02*
D03*
X7874000Y5006340D02*
D03*
X7875425Y5110480D02*
D03*
X8183880Y4899660D02*
D03*
X8305800Y4897120D02*
D03*
X8742444Y5184860D02*
D03*
X8742680Y5080000D02*
D03*
Y5412020D02*
D03*
X8613140Y5524500D02*
D03*
X8489400Y5837642D02*
D03*
X8950960Y1374140D02*
D03*
Y1546860D02*
D03*
Y3454400D02*
D03*
Y3281680D02*
D03*
Y5212080D02*
D03*
Y5384800D02*
D03*
X8425180Y5252720D02*
D03*
X8425303Y5102037D02*
D03*
X8305800Y4699000D02*
D03*
X8188960D02*
D03*
X7586980Y5580380D02*
D03*
X7599680Y5471160D02*
D03*
X7594600Y1633220D02*
D03*
X7762240Y871220D02*
D03*
X8188960Y863600D02*
D03*
X8306367Y865574D02*
D03*
X8435340Y701040D02*
D03*
X8486140Y1038860D02*
D03*
X8887460Y1193800D02*
D03*
X8872220Y1300480D02*
D03*
X8879840Y1620520D02*
D03*
X8884920Y1727200D02*
D03*
X8446222Y2609302D02*
D03*
X8486140Y2880360D02*
D03*
X8306367Y2770574D02*
D03*
X8188960Y2786380D02*
D03*
X7762240Y2778760D02*
D03*
X7709620Y3398520D02*
D03*
X7586980Y3545840D02*
D03*
X7585470Y3646114D02*
D03*
X7434580Y4310380D02*
D03*
X8187860Y1871227D02*
D03*
X8063890Y3776980D02*
D03*
X7934960Y4163060D02*
D03*
X7929880Y4302760D02*
D03*
X7447280Y3931920D02*
D03*
X7442200Y4058920D02*
D03*
X8887460Y5565140D02*
D03*
X8879840Y5458460D02*
D03*
X8887460Y5024120D02*
D03*
X8890000Y5133340D02*
D03*
X8422640Y4533900D02*
D03*
X8440420Y4836160D02*
D03*
X8008620Y5199380D02*
D03*
X358140Y4424680D02*
D03*
X511658Y4191745D02*
D03*
X563387Y4150825D02*
D03*
X403860Y4480560D02*
D03*
%TF.MD5,6c44e05b8e48782c7de2b751d5e6eca5*%
M02*
