%TF.GenerationSoftware,Altium Limited,Altium Designer,24.0.1 (36)*%
G04 Layer_Color=8421504*
%FSLAX45Y45*%
%MOMM*%
%TF.SameCoordinates,67999EC4-2163-46B7-AA5F-10FA3A16FE06*%
%TF.FilePolarity,Positive*%
%TF.FileFunction,Paste,Top*%
%TF.Part,Single*%
G01*
G75*
%TA.AperFunction,SMDPad,CuDef*%
%ADD16O,1.00000X2.70000*%
%ADD17R,1.00000X2.70000*%
%ADD18R,0.50000X0.50000*%
%ADD19P,0.70711X4X270.0*%
%ADD20P,0.70711X4X180.0*%
%ADD21O,0.50000X1.50000*%
%ADD22R,0.50000X1.50000*%
G04:AMPARAMS|DCode=23|XSize=1.95mm|YSize=1.5mm|CornerRadius=0mm|HoleSize=0mm|Usage=FLASHONLY|Rotation=135.000|XOffset=0mm|YOffset=0mm|HoleType=Round|Shape=Rectangle|*
%AMROTATEDRECTD23*
4,1,4,1.21976,-0.15910,0.15910,-1.21976,-1.21976,0.15910,-0.15910,1.21976,1.21976,-0.15910,0.0*
%
%ADD23ROTATEDRECTD23*%

G04:AMPARAMS|DCode=24|XSize=0.5mm|YSize=1.5mm|CornerRadius=0mm|HoleSize=0mm|Usage=FLASHONLY|Rotation=135.000|XOffset=0mm|YOffset=0mm|HoleType=Round|Shape=Rectangle|*
%AMROTATEDRECTD24*
4,1,4,0.70711,0.35356,-0.35356,-0.70711,-0.70711,-0.35356,0.35356,0.70711,0.70711,0.35356,0.0*
%
%ADD24ROTATEDRECTD24*%

G04:AMPARAMS|DCode=25|XSize=0.5mm|YSize=1.5mm|CornerRadius=0mm|HoleSize=0mm|Usage=FLASHONLY|Rotation=135.000|XOffset=0mm|YOffset=0mm|HoleType=Round|Shape=Round|*
%AMOVALD25*
21,1,1.00000,0.50000,0.00000,0.00000,225.0*
1,1,0.50000,0.35355,0.35355*
1,1,0.50000,-0.35355,-0.35355*
%
%ADD25OVALD25*%

%ADD26R,1.27000X0.88900*%
%TA.AperFunction,ConnectorPad*%
%ADD27R,2.70000X1.00000*%
%ADD28O,2.70000X1.00000*%
%TA.AperFunction,SMDPad,CuDef*%
%ADD29R,0.45000X1.00000*%
%ADD30R,0.50000X0.50000*%
%ADD31R,0.85000X0.75000*%
%ADD32R,0.88900X1.27000*%
%TA.AperFunction,ConnectorPad*%
%ADD34R,1.00000X2.70000*%
%ADD35O,1.00000X2.70000*%
%TA.AperFunction,SMDPad,CuDef*%
%ADD36R,2.70000X1.00000*%
%ADD37O,2.70000X1.00000*%
%TA.AperFunction,ConnectorPad*%
%ADD39R,0.85000X0.75000*%
G04:AMPARAMS|DCode=40|XSize=2mm|YSize=3.5mm|CornerRadius=0mm|HoleSize=0mm|Usage=FLASHONLY|Rotation=45.000|XOffset=0mm|YOffset=0mm|HoleType=Round|Shape=Rectangle|*
%AMROTATEDRECTD40*
4,1,4,0.53033,-1.94455,-1.94455,0.53033,-0.53033,1.94455,1.94455,-0.53033,0.53033,-1.94455,0.0*
%
%ADD40ROTATEDRECTD40*%

G04:AMPARAMS|DCode=41|XSize=1.2mm|YSize=3.5mm|CornerRadius=0mm|HoleSize=0mm|Usage=FLASHONLY|Rotation=225.000|XOffset=0mm|YOffset=0mm|HoleType=Round|Shape=Rectangle|*
%AMROTATEDRECTD41*
4,1,4,-0.81317,1.66170,1.66170,-0.81317,0.81317,-1.66170,-1.66170,0.81317,-0.81317,1.66170,0.0*
%
%ADD41ROTATEDRECTD41*%

%TA.AperFunction,SMDPad,CuDef*%
%ADD46R,1.20000X1.30000*%
G04:AMPARAMS|DCode=47|XSize=0.8mm|YSize=2.5mm|CornerRadius=0mm|HoleSize=0mm|Usage=FLASHONLY|Rotation=225.000|XOffset=0mm|YOffset=0mm|HoleType=Round|Shape=Rectangle|*
%AMROTATEDRECTD47*
4,1,4,-0.60104,1.16673,1.16673,-0.60104,0.60104,-1.16673,-1.16673,0.60104,-0.60104,1.16673,0.0*
%
%ADD47ROTATEDRECTD47*%

%TA.AperFunction,NonConductor*%
%ADD142C,0.65001*%
G36*
X5160445Y7318683D02*
X5166303Y7312826D01*
Y7304542D01*
X5163374Y7301613D01*
X5120948Y7259186D01*
X5118019Y7256257D01*
X5109735D01*
X5103877Y7262115D01*
Y7270399D01*
X5106806Y7273328D01*
X5149232Y7315755D01*
X5152161Y7318684D01*
X5160445Y7318683D01*
D02*
G37*
G36*
X4997683D02*
X5000612Y7315755D01*
X5043038Y7273328D01*
X5045968Y7270399D01*
Y7262115D01*
X5040110Y7256257D01*
X5031825D01*
X5028896Y7259186D01*
X4986470Y7301613D01*
X4983541Y7304541D01*
Y7312826D01*
X4989399Y7318684D01*
X4997683Y7318683D01*
D02*
G37*
G36*
X5194501Y7284628D02*
Y7276344D01*
X5191572Y7273414D01*
X5149146Y7230988D01*
X5146217Y7228059D01*
X5137933Y7228059D01*
X5132075Y7233917D01*
Y7242201D01*
X5135003Y7245130D01*
X5177430Y7287557D01*
X5180359Y7290486D01*
X5188643D01*
X5194501Y7284628D01*
D02*
G37*
G36*
X4972414Y7287557D02*
X5014841Y7245130D01*
X5017769Y7242201D01*
Y7233917D01*
X5011912Y7228059D01*
X5003628Y7228059D01*
X5000698Y7230988D01*
X4958272Y7273414D01*
X4955343Y7276343D01*
Y7284628D01*
X4961201Y7290486D01*
X4969485D01*
X4972414Y7287557D01*
D02*
G37*
G36*
X5222879Y7256250D02*
Y7247966D01*
X5219950Y7245037D01*
X5177523Y7202611D01*
X5174594Y7199682D01*
X5166310Y7199682D01*
X5160452Y7205539D01*
Y7213824D01*
X5163381Y7216753D01*
X5205807Y7259179D01*
X5208737Y7262108D01*
X5217021D01*
X5222879Y7256250D01*
D02*
G37*
G36*
X4944037Y7259179D02*
X4986463Y7216753D01*
X4989392Y7213824D01*
Y7205540D01*
X4983534Y7199682D01*
X4975250Y7199682D01*
X4972321Y7202611D01*
X4929894Y7245037D01*
X4926966Y7247966D01*
Y7256250D01*
X4932824Y7262108D01*
X4941108D01*
X4944037Y7259179D01*
D02*
G37*
G36*
X8730069Y7189125D02*
X8630069D01*
Y7219124D01*
X8730069D01*
Y7189125D01*
D02*
G37*
G36*
X8586069Y7189114D02*
X8486069D01*
Y7219114D01*
X8586069D01*
Y7189114D01*
D02*
G37*
G36*
X5245219Y7233910D02*
X5251077Y7228052D01*
Y7219768D01*
X5248147Y7216839D01*
X5205721Y7174413D01*
X5202792Y7171484D01*
X5194508Y7171483D01*
X5188650Y7177342D01*
Y7185626D01*
X5191579Y7188555D01*
X5234006Y7230981D01*
X5236934Y7233910D01*
X5245219Y7233910D01*
D02*
G37*
G36*
X4912910D02*
X4915839Y7230981D01*
X4958265Y7188555D01*
X4961194Y7185626D01*
Y7177342D01*
X4955336Y7171484D01*
X4947052Y7171483D01*
X4944123Y7174413D01*
X4901697Y7216839D01*
X4898768Y7219768D01*
Y7228052D01*
X4904625Y7233910D01*
X4912910Y7233910D01*
D02*
G37*
G36*
X5273597Y7205532D02*
X5279454Y7199674D01*
Y7191390D01*
X5276525Y7188461D01*
X5234099Y7146035D01*
X5231170Y7143106D01*
X5222886D01*
X5217028Y7148964D01*
Y7157248D01*
X5219957Y7160177D01*
X5262383Y7202603D01*
X5265312Y7205532D01*
X5273597Y7205532D01*
D02*
G37*
G36*
X4884532D02*
X4887461Y7202603D01*
X4929887Y7160177D01*
X4932816Y7157248D01*
Y7148964D01*
X4926958Y7143106D01*
X4918674D01*
X4915745Y7146035D01*
X4873319Y7188461D01*
X4870390Y7191390D01*
Y7199675D01*
X4876248Y7205532D01*
X4884532Y7205532D01*
D02*
G37*
G36*
X8586069Y7139114D02*
X8486069D01*
Y7169114D01*
X8586069D01*
Y7139114D01*
D02*
G37*
G36*
X8730069Y7139112D02*
X8630069D01*
Y7169112D01*
X8730069D01*
Y7139112D01*
D02*
G37*
G36*
X5301794Y7177334D02*
X5307652Y7171476D01*
Y7163192D01*
X5304723Y7160263D01*
X5262297Y7117837D01*
X5259368Y7114908D01*
X5251084D01*
X5245226Y7120766D01*
Y7129050D01*
X5248155Y7131979D01*
X5290581Y7174406D01*
X5293510Y7177334D01*
X5301794Y7177334D01*
D02*
G37*
G36*
X4856334D02*
X4859263Y7174406D01*
X4901689Y7131979D01*
X4904618Y7129050D01*
Y7120766D01*
X4898761Y7114908D01*
X4890476D01*
X4887547Y7117837D01*
X4845121Y7160263D01*
X4842192Y7163192D01*
Y7171477D01*
X4848050Y7177334D01*
X4856334Y7177334D01*
D02*
G37*
G36*
X8586069Y7089127D02*
X8486069D01*
Y7119127D01*
X8586069D01*
Y7089127D01*
D02*
G37*
G36*
X8730069Y7089125D02*
X8630069D01*
Y7119125D01*
X8730069D01*
Y7089125D01*
D02*
G37*
G36*
X5336030Y7143099D02*
Y7134815D01*
X5333101Y7131886D01*
X5290674Y7089459D01*
X5287746Y7086531D01*
X5279461Y7086530D01*
X5273604Y7092388D01*
Y7100673D01*
X5276532Y7103601D01*
X5318959Y7146028D01*
X5321888Y7148957D01*
X5330172D01*
X5336030Y7143099D01*
D02*
G37*
G36*
X4830885Y7146028D02*
X4873312Y7103601D01*
X4876241Y7100672D01*
Y7092388D01*
X4870383Y7086531D01*
X4862098Y7086530D01*
X4859170Y7089459D01*
X4816743Y7131886D01*
X4813814Y7134815D01*
Y7143099D01*
X4819672Y7148957D01*
X4827957D01*
X4830885Y7146028D01*
D02*
G37*
G36*
X5364228Y7114901D02*
Y7106617D01*
X5361299Y7103688D01*
X5318873Y7061261D01*
X5315944Y7058333D01*
X5307659Y7058332D01*
X5301802Y7064190D01*
Y7072475D01*
X5304730Y7075403D01*
X5347157Y7117830D01*
X5350086Y7120759D01*
X5358370D01*
X5364228Y7114901D01*
D02*
G37*
G36*
X4802687Y7117830D02*
X4845114Y7075403D01*
X4848043Y7072475D01*
Y7064190D01*
X4842185Y7058333D01*
X4833901Y7058332D01*
X4830972Y7061261D01*
X4788545Y7103688D01*
X4785617Y7106616D01*
Y7114901D01*
X4791474Y7120759D01*
X4799758D01*
X4802687Y7117830D01*
D02*
G37*
G36*
X8586069Y7039115D02*
X8486069D01*
Y7069115D01*
X8586069D01*
Y7039115D01*
D02*
G37*
G36*
X8730069Y7039112D02*
X8630069D01*
Y7069112D01*
X8730069D01*
Y7039112D01*
D02*
G37*
G36*
X5386748Y7092381D02*
X5392605Y7086523D01*
Y7078239D01*
X5389677Y7075310D01*
X5347250Y7032884D01*
X5344321Y7029955D01*
X5336037Y7029955D01*
X5330179Y7035813D01*
Y7044097D01*
X5333108Y7047026D01*
X5375534Y7089452D01*
X5378463Y7092381D01*
X5386748Y7092381D01*
D02*
G37*
G36*
X4771381D02*
X4774310Y7089452D01*
X4816736Y7047026D01*
X4819665Y7044097D01*
Y7035813D01*
X4813807Y7029955D01*
X4805523Y7029955D01*
X4802594Y7032884D01*
X4760168Y7075310D01*
X4757239Y7078239D01*
Y7086523D01*
X4763097Y7092381D01*
X4771381Y7092381D01*
D02*
G37*
G36*
X5414946Y7064183D02*
X5420803Y7058325D01*
Y7050041D01*
X5417874Y7047112D01*
X5375448Y7004686D01*
X5372519Y7001757D01*
X5364235Y7001757D01*
X5358377Y7007615D01*
Y7015899D01*
X5361306Y7018828D01*
X5403732Y7061254D01*
X5406661Y7064183D01*
X5414946Y7064183D01*
D02*
G37*
G36*
X4743183D02*
X4746112Y7061254D01*
X4788538Y7018828D01*
X4791467Y7015899D01*
Y7007615D01*
X4785609Y7001757D01*
X4777325Y7001757D01*
X4774396Y7004686D01*
X4731970Y7047112D01*
X4729041Y7050041D01*
Y7058325D01*
X4734899Y7064183D01*
X4743183Y7064183D01*
D02*
G37*
G36*
X8586069Y6989127D02*
X8486069D01*
Y7019127D01*
X8586069D01*
Y6989127D01*
D02*
G37*
G36*
X8730069Y6989125D02*
X8630069D01*
Y7019125D01*
X8730069D01*
Y6989125D01*
D02*
G37*
G36*
X5443144Y7035985D02*
X5449002Y7030127D01*
Y7021843D01*
X5446072Y7018914D01*
X5403646Y6976488D01*
X5400717Y6973559D01*
X5392433D01*
X5386575Y6979417D01*
Y6987701D01*
X5389504Y6990630D01*
X5431930Y7033056D01*
X5434859Y7035985D01*
X5443144Y7035985D01*
D02*
G37*
G36*
X4714985D02*
X4717914Y7033056D01*
X4760340Y6990630D01*
X4763269Y6987701D01*
Y6979417D01*
X4757411Y6973559D01*
X4749127D01*
X4746198Y6976488D01*
X4703772Y7018914D01*
X4700843Y7021843D01*
Y7030127D01*
X4706701Y7035985D01*
X4714985Y7035985D01*
D02*
G37*
G36*
X5471521Y7007607D02*
X5477379Y7001750D01*
Y6993466D01*
X5474450Y6990536D01*
X5432024Y6948110D01*
X5429095Y6945181D01*
X5420811Y6945181D01*
X5414953Y6951039D01*
Y6959323D01*
X5417882Y6962252D01*
X5460308Y7004679D01*
X5463237Y7007608D01*
X5471521Y7007607D01*
D02*
G37*
G36*
X4686607D02*
X4689536Y7004679D01*
X4731963Y6962252D01*
X4734891Y6959323D01*
Y6951039D01*
X4729034Y6945181D01*
X4720749Y6945181D01*
X4717820Y6948110D01*
X4675394Y6990536D01*
X4672465Y6993465D01*
Y7001750D01*
X4678323Y7007608D01*
X4686607Y7007607D01*
D02*
G37*
G36*
X8586069Y6939128D02*
X8486069D01*
Y6969128D01*
X8586069D01*
Y6939128D01*
D02*
G37*
G36*
X8730069Y6939112D02*
X8630069D01*
Y6969112D01*
X8730069D01*
Y6939112D01*
D02*
G37*
G36*
X5505577Y6973551D02*
Y6965268D01*
X5502648Y6962338D01*
X5460222Y6919912D01*
X5457293Y6916983D01*
X5449009Y6916983D01*
X5443151Y6922841D01*
Y6931125D01*
X5446080Y6934054D01*
X5488506Y6976481D01*
X5491435Y6979409D01*
X5499719D01*
X5505577Y6973551D01*
D02*
G37*
G36*
X4661338Y6976481D02*
X4703765Y6934054D01*
X4706693Y6931125D01*
Y6922841D01*
X4700836Y6916983D01*
X4692551Y6916983D01*
X4689622Y6919912D01*
X4647196Y6962338D01*
X4644267Y6965267D01*
Y6973552D01*
X4650125Y6979409D01*
X4658409D01*
X4661338Y6976481D01*
D02*
G37*
G36*
X8586069Y6889128D02*
X8486069D01*
Y6919128D01*
X8586069D01*
Y6889128D01*
D02*
G37*
G36*
X8730069Y6889125D02*
X8630069D01*
Y6919125D01*
X8730069D01*
Y6889125D01*
D02*
G37*
G36*
X5528097Y6951032D02*
X5533955Y6945174D01*
Y6936890D01*
X5531026Y6933961D01*
X5488599Y6891535D01*
X5485671Y6888606D01*
X5477386Y6888605D01*
X5471528Y6894463D01*
Y6902748D01*
X5474457Y6905677D01*
X5516884Y6948103D01*
X5519813Y6951032D01*
X5528097Y6951032D01*
D02*
G37*
G36*
X4630032D02*
X4632961Y6948103D01*
X4675387Y6905677D01*
X4678316Y6902748D01*
Y6894463D01*
X4672458Y6888606D01*
X4664174Y6888605D01*
X4661245Y6891535D01*
X4618819Y6933961D01*
X4615890Y6936890D01*
Y6945174D01*
X4621747Y6951032D01*
X4630032Y6951032D01*
D02*
G37*
G36*
X5556295Y6922834D02*
X5562153Y6916976D01*
Y6908692D01*
X5559224Y6905763D01*
X5516797Y6863337D01*
X5513869Y6860408D01*
X5505584Y6860407D01*
X5499726Y6866265D01*
Y6874550D01*
X5502655Y6877479D01*
X5545082Y6919905D01*
X5548010Y6922834D01*
X5556295Y6922834D01*
D02*
G37*
G36*
X4601834D02*
X4604762Y6919905D01*
X4647189Y6877479D01*
X4650118Y6874550D01*
Y6866265D01*
X4644260Y6860408D01*
X4635976Y6860407D01*
X4633047Y6863337D01*
X4590620Y6905763D01*
X4587692Y6908692D01*
Y6916976D01*
X4593549Y6922834D01*
X4601834Y6922834D01*
D02*
G37*
G36*
X8586069Y6839115D02*
X8486069D01*
Y6869115D01*
X8586069D01*
Y6839115D01*
D02*
G37*
G36*
X8730069Y6839113D02*
X8630069D01*
Y6869112D01*
X8730069D01*
Y6839113D01*
D02*
G37*
G36*
X5584672Y6894456D02*
X5590530Y6888598D01*
Y6880314D01*
X5587601Y6877385D01*
X5545175Y6834959D01*
X5542246Y6832030D01*
X5533962D01*
X5528104Y6837888D01*
Y6846172D01*
X5531033Y6849101D01*
X5573459Y6891527D01*
X5576388Y6894456D01*
X5584672Y6894456D01*
D02*
G37*
G36*
X4573456D02*
X4576385Y6891527D01*
X4618811Y6849101D01*
X4621740Y6846172D01*
Y6837888D01*
X4615882Y6832030D01*
X4607598D01*
X4604669Y6834959D01*
X4562243Y6877385D01*
X4559314Y6880314D01*
Y6888599D01*
X4565172Y6894456D01*
X4573456Y6894456D01*
D02*
G37*
G36*
X5612870Y6866258D02*
X5618728Y6860400D01*
Y6852116D01*
X5615799Y6849187D01*
X5573373Y6806761D01*
X5570444Y6803832D01*
X5562160Y6803832D01*
X5556302Y6809690D01*
Y6817974D01*
X5559231Y6820903D01*
X5601657Y6863329D01*
X5604586Y6866258D01*
X5612870Y6866258D01*
D02*
G37*
G36*
X4545258D02*
X4548187Y6863329D01*
X4590613Y6820903D01*
X4593542Y6817974D01*
Y6809690D01*
X4587684Y6803832D01*
X4579400Y6803832D01*
X4576471Y6806761D01*
X4534045Y6849187D01*
X4531116Y6852116D01*
Y6860401D01*
X4536974Y6866258D01*
X4545258Y6866258D01*
D02*
G37*
G36*
X8586069Y6789128D02*
X8486069D01*
Y6819128D01*
X8586069D01*
Y6789128D01*
D02*
G37*
G36*
X8730069Y6789125D02*
X8630069D01*
Y6819125D01*
X8730069D01*
Y6789125D01*
D02*
G37*
G36*
X5647106Y6832023D02*
Y6823739D01*
X5644177Y6820810D01*
X5601751Y6778383D01*
X5598822Y6775455D01*
X5590537Y6775454D01*
X5584680Y6781312D01*
Y6789597D01*
X5587609Y6792525D01*
X5630035Y6834952D01*
X5632964Y6837881D01*
X5641248D01*
X5647106Y6832023D01*
D02*
G37*
G36*
X4519809Y6834952D02*
X4562236Y6792525D01*
X4565165Y6789597D01*
Y6781312D01*
X4559307Y6775455D01*
X4551023Y6775454D01*
X4548094Y6778383D01*
X4505667Y6820810D01*
X4502738Y6823738D01*
Y6832023D01*
X4508596Y6837881D01*
X4516880D01*
X4519809Y6834952D01*
D02*
G37*
G36*
X5669446Y6809683D02*
X5675304Y6803825D01*
Y6795541D01*
X5672375Y6792612D01*
X5629949Y6750185D01*
X5627020Y6747257D01*
X5618736Y6747256D01*
X5612878Y6753114D01*
Y6761398D01*
X5615806Y6764327D01*
X5658233Y6806754D01*
X5661162Y6809683D01*
X5669446Y6809683D01*
D02*
G37*
G36*
X4488682D02*
X4491611Y6806754D01*
X4534038Y6764327D01*
X4536967Y6761398D01*
Y6753114D01*
X4531109Y6747257D01*
X4522825Y6747256D01*
X4519895Y6750185D01*
X4477469Y6792612D01*
X4474540Y6795540D01*
Y6803825D01*
X4480398Y6809683D01*
X4488682Y6809683D01*
D02*
G37*
G36*
X8586069Y6739115D02*
X8486069D01*
Y6769115D01*
X8586069D01*
Y6739115D01*
D02*
G37*
G36*
X8730069Y6739113D02*
X8630069D01*
Y6769113D01*
X8730069D01*
Y6739113D01*
D02*
G37*
G36*
X8586069Y6689128D02*
X8486069D01*
Y6719128D01*
X8586069D01*
Y6689128D01*
D02*
G37*
G36*
X8730069Y6689126D02*
X8630069D01*
Y6719125D01*
X8730069D01*
Y6689126D01*
D02*
G37*
G36*
X8586069Y6639115D02*
X8486069D01*
Y6669115D01*
X8586069D01*
Y6639115D01*
D02*
G37*
G36*
X8730069Y6639113D02*
X8630069D01*
Y6669113D01*
X8730069D01*
Y6639113D01*
D02*
G37*
G36*
X5627020Y6689347D02*
X5629949Y6686418D01*
X5672375Y6643992D01*
X5675304Y6641063D01*
Y6632779D01*
X5669446Y6626921D01*
X5661162D01*
X5658233Y6629850D01*
X5615806Y6672276D01*
X5612878Y6675205D01*
Y6683490D01*
X5618736Y6689347D01*
X5627020Y6689347D01*
D02*
G37*
G36*
X4531109D02*
X4536967Y6683489D01*
Y6675205D01*
X4534038Y6672276D01*
X4491611Y6629850D01*
X4488682Y6626921D01*
X4480398D01*
X4474540Y6632779D01*
Y6641063D01*
X4477469Y6643992D01*
X4519895Y6686418D01*
X4522825Y6689347D01*
X4531109Y6689347D01*
D02*
G37*
G36*
X5601751Y6658220D02*
X5644177Y6615794D01*
X5647106Y6612865D01*
Y6604581D01*
X5641248Y6598723D01*
X5632964Y6598723D01*
X5630035Y6601652D01*
X5587609Y6644078D01*
X5584680Y6647007D01*
Y6655291D01*
X5590537Y6661149D01*
X5598822D01*
X5601751Y6658220D01*
D02*
G37*
G36*
X4565165Y6655291D02*
Y6647007D01*
X4562236Y6644078D01*
X4519809Y6601652D01*
X4516880Y6598723D01*
X4508596Y6598723D01*
X4502738Y6604581D01*
Y6612865D01*
X4505667Y6615794D01*
X4548094Y6658220D01*
X4551023Y6661149D01*
X4559307D01*
X4565165Y6655291D01*
D02*
G37*
G36*
X5573373Y6629843D02*
X5615799Y6587416D01*
X5618728Y6584487D01*
Y6576203D01*
X5612870Y6570346D01*
X5604586Y6570345D01*
X5601657Y6573274D01*
X5559231Y6615701D01*
X5556302Y6618629D01*
Y6626914D01*
X5562160Y6632772D01*
X5570444D01*
X5573373Y6629843D01*
D02*
G37*
G36*
X4593542Y6626914D02*
Y6618630D01*
X4590613Y6615701D01*
X4548187Y6573274D01*
X4545258Y6570346D01*
X4536974Y6570345D01*
X4531116Y6576203D01*
Y6584487D01*
X4534045Y6587416D01*
X4576471Y6629843D01*
X4579400Y6632772D01*
X4587684D01*
X4593542Y6626914D01*
D02*
G37*
G36*
X5542246Y6604574D02*
X5545175Y6601645D01*
X5587601Y6559218D01*
X5590530Y6556289D01*
Y6548005D01*
X5584672Y6542147D01*
X5576388Y6542147D01*
X5573459Y6545076D01*
X5531033Y6587502D01*
X5528104Y6590431D01*
Y6598716D01*
X5533962Y6604574D01*
X5542246Y6604574D01*
D02*
G37*
G36*
X4615882D02*
X4621740Y6598716D01*
Y6590432D01*
X4618811Y6587502D01*
X4576385Y6545076D01*
X4573456Y6542147D01*
X4565172Y6542147D01*
X4559314Y6548005D01*
Y6556290D01*
X4562243Y6559218D01*
X4604669Y6601645D01*
X4607598Y6604574D01*
X4615882Y6604574D01*
D02*
G37*
G36*
X5513869Y6576196D02*
X5516797Y6573267D01*
X5559224Y6530841D01*
X5562153Y6527912D01*
Y6519628D01*
X5556295Y6513770D01*
X5548010Y6513770D01*
X5545082Y6516699D01*
X5502655Y6559125D01*
X5499726Y6562054D01*
Y6570338D01*
X5505584Y6576196D01*
X5513869Y6576196D01*
D02*
G37*
G36*
X4644260D02*
X4650118Y6570338D01*
Y6562054D01*
X4647189Y6559125D01*
X4604762Y6516699D01*
X4601834Y6513770D01*
X4593549Y6513770D01*
X4587692Y6519628D01*
Y6527912D01*
X4590620Y6530841D01*
X4633047Y6573267D01*
X4635976Y6576196D01*
X4644260Y6576196D01*
D02*
G37*
G36*
X5485671Y6547998D02*
X5488599Y6545069D01*
X5531026Y6502643D01*
X5533955Y6499714D01*
Y6491430D01*
X5528097Y6485572D01*
X5519813D01*
X5516884Y6488501D01*
X5474457Y6530927D01*
X5471528Y6533856D01*
Y6542140D01*
X5477386Y6547998D01*
X5485671Y6547998D01*
D02*
G37*
G36*
X4672458D02*
X4678316Y6542140D01*
Y6533856D01*
X4675387Y6530927D01*
X4632961Y6488501D01*
X4630032Y6485572D01*
X4621747D01*
X4615890Y6491429D01*
Y6499714D01*
X4618819Y6502643D01*
X4661245Y6545069D01*
X4664174Y6547998D01*
X4672458Y6547998D01*
D02*
G37*
G36*
X5457293Y6519620D02*
X5460222Y6516692D01*
X5502648Y6474265D01*
X5505577Y6471336D01*
Y6463052D01*
X5499719Y6457194D01*
X5491435D01*
X5488506Y6460123D01*
X5446080Y6502549D01*
X5443151Y6505478D01*
Y6513763D01*
X5449009Y6519620D01*
X5457293Y6519620D01*
D02*
G37*
G36*
X4700836D02*
X4706693Y6513762D01*
Y6505478D01*
X4703765Y6502549D01*
X4661338Y6460123D01*
X4658409Y6457194D01*
X4650125D01*
X4644267Y6463052D01*
Y6471336D01*
X4647196Y6474265D01*
X4689622Y6516692D01*
X4692551Y6519620D01*
X4700836Y6519620D01*
D02*
G37*
G36*
X5432024Y6488493D02*
X5474450Y6446067D01*
X5477379Y6443138D01*
Y6434854D01*
X5471521Y6428996D01*
X5463237Y6428996D01*
X5460308Y6431925D01*
X5417882Y6474351D01*
X5414953Y6477280D01*
Y6485565D01*
X5420811Y6491422D01*
X5429095D01*
X5432024Y6488493D01*
D02*
G37*
G36*
X4734891Y6485564D02*
Y6477280D01*
X4731963Y6474351D01*
X4689536Y6431925D01*
X4686607Y6428996D01*
X4678323Y6428996D01*
X4672465Y6434854D01*
Y6443138D01*
X4675394Y6446067D01*
X4717820Y6488493D01*
X4720749Y6491422D01*
X4729034D01*
X4734891Y6485564D01*
D02*
G37*
G36*
X5403646Y6460116D02*
X5446072Y6417689D01*
X5449002Y6414761D01*
Y6406476D01*
X5443144Y6400619D01*
X5434859Y6400618D01*
X5431930Y6403548D01*
X5389504Y6445974D01*
X5386575Y6448903D01*
Y6457187D01*
X5392433Y6463045D01*
X5400717D01*
X5403646Y6460116D01*
D02*
G37*
G36*
X4763269Y6457187D02*
Y6448903D01*
X4760340Y6445974D01*
X4717914Y6403548D01*
X4714985Y6400619D01*
X4706701Y6400618D01*
X4700843Y6406476D01*
Y6414761D01*
X4703772Y6417689D01*
X4746198Y6460116D01*
X4749127Y6463045D01*
X4757411D01*
X4763269Y6457187D01*
D02*
G37*
G36*
X5372519Y6434847D02*
X5375448Y6431918D01*
X5417874Y6389491D01*
X5420803Y6386563D01*
Y6378278D01*
X5414946Y6372421D01*
X5406661Y6372420D01*
X5403732Y6375349D01*
X5361306Y6417776D01*
X5358377Y6420704D01*
Y6428989D01*
X5364235Y6434847D01*
X5372519Y6434847D01*
D02*
G37*
G36*
X4785609D02*
X4791467Y6428989D01*
Y6420705D01*
X4788538Y6417776D01*
X4746112Y6375349D01*
X4743183Y6372421D01*
X4734899Y6372420D01*
X4729041Y6378278D01*
Y6386563D01*
X4731970Y6389491D01*
X4774396Y6431918D01*
X4777325Y6434847D01*
X4785609Y6434847D01*
D02*
G37*
G36*
X5344321Y6406649D02*
X5347250Y6403720D01*
X5389677Y6361294D01*
X5392605Y6358364D01*
Y6350081D01*
X5386748Y6344223D01*
X5378463D01*
X5375534Y6347151D01*
X5333108Y6389578D01*
X5330179Y6392507D01*
Y6400791D01*
X5336037Y6406649D01*
X5344321Y6406649D01*
D02*
G37*
G36*
X4813807D02*
X4819665Y6400791D01*
Y6392507D01*
X4816736Y6389578D01*
X4774310Y6347151D01*
X4771381Y6344223D01*
X4763097D01*
X4757239Y6350080D01*
Y6358365D01*
X4760168Y6361294D01*
X4802594Y6403720D01*
X4805523Y6406649D01*
X4813807Y6406649D01*
D02*
G37*
G36*
X5315944Y6378271D02*
X5318873Y6375342D01*
X5361299Y6332916D01*
X5364228Y6329987D01*
Y6321703D01*
X5358370Y6315845D01*
X5350086D01*
X5347157Y6318774D01*
X5304730Y6361200D01*
X5301802Y6364129D01*
Y6372413D01*
X5307659Y6378271D01*
X5315944Y6378271D01*
D02*
G37*
G36*
X4842185D02*
X4848043Y6372413D01*
Y6364129D01*
X4845114Y6361200D01*
X4802687Y6318774D01*
X4799758Y6315845D01*
X4791474D01*
X4785617Y6321703D01*
Y6329987D01*
X4788545Y6332916D01*
X4830972Y6375342D01*
X4833901Y6378271D01*
X4842185Y6378271D01*
D02*
G37*
G36*
X5485043Y6718302D02*
X5074922Y6308181D01*
X4664801Y6718302D01*
X5074922Y7128423D01*
X5485043Y6718302D01*
D02*
G37*
G36*
X5290674Y6347144D02*
X5333101Y6304718D01*
X5336030Y6301789D01*
Y6293505D01*
X5330172Y6287647D01*
X5321888Y6287647D01*
X5318959Y6290576D01*
X5276532Y6333002D01*
X5273604Y6335931D01*
Y6344215D01*
X5279461Y6350073D01*
X5287746D01*
X5290674Y6347144D01*
D02*
G37*
G36*
X4876241Y6344215D02*
Y6335931D01*
X4873312Y6333002D01*
X4830885Y6290576D01*
X4827957Y6287647D01*
X4819672Y6287647D01*
X4813814Y6293505D01*
Y6301789D01*
X4816743Y6304718D01*
X4859170Y6347144D01*
X4862098Y6350073D01*
X4870383D01*
X4876241Y6344215D01*
D02*
G37*
G36*
X5262297Y6318767D02*
X5304723Y6276340D01*
X5307652Y6273411D01*
Y6265127D01*
X5301794Y6259269D01*
X5293510Y6259269D01*
X5290581Y6262198D01*
X5248155Y6304624D01*
X5245226Y6307553D01*
Y6315838D01*
X5251084Y6321696D01*
X5259368D01*
X5262297Y6318767D01*
D02*
G37*
G36*
X4904618Y6315838D02*
Y6307554D01*
X4901689Y6304624D01*
X4859263Y6262198D01*
X4856334Y6259269D01*
X4848050Y6259269D01*
X4842192Y6265127D01*
Y6273411D01*
X4845121Y6276340D01*
X4887547Y6318767D01*
X4890476Y6321696D01*
X4898761D01*
X4904618Y6315838D01*
D02*
G37*
G36*
X5231170Y6293497D02*
X5234099Y6290569D01*
X5276525Y6248142D01*
X5279454Y6245213D01*
Y6236929D01*
X5273597Y6231071D01*
X5265312Y6231071D01*
X5262383Y6234000D01*
X5219957Y6276427D01*
X5217028Y6279355D01*
Y6287640D01*
X5222886Y6293498D01*
X5231170Y6293497D01*
D02*
G37*
G36*
X4926958D02*
X4932816Y6287640D01*
Y6279355D01*
X4929887Y6276427D01*
X4887461Y6234000D01*
X4884532Y6231071D01*
X4876248Y6231071D01*
X4870390Y6236929D01*
Y6245214D01*
X4873319Y6248142D01*
X4915745Y6290569D01*
X4918674Y6293498D01*
X4926958Y6293497D01*
D02*
G37*
G36*
X5202792Y6265120D02*
X5205721Y6262191D01*
X5248147Y6219765D01*
X5251077Y6216836D01*
Y6208551D01*
X5245219Y6202694D01*
X5236934Y6202693D01*
X5234006Y6205623D01*
X5191579Y6248049D01*
X5188650Y6250978D01*
Y6259262D01*
X5194508Y6265120D01*
X5202792Y6265120D01*
D02*
G37*
G36*
X4955336D02*
X4961194Y6259262D01*
Y6250978D01*
X4958265Y6248049D01*
X4915839Y6205623D01*
X4912910Y6202694D01*
X4904625Y6202693D01*
X4898768Y6208551D01*
Y6216836D01*
X4901697Y6219765D01*
X4944123Y6262191D01*
X4947052Y6265120D01*
X4955336Y6265120D01*
D02*
G37*
G36*
X5174594Y6236922D02*
X5177523Y6233993D01*
X5219950Y6191567D01*
X5222879Y6188638D01*
Y6180354D01*
X5217021Y6174496D01*
X5208737D01*
X5205807Y6177425D01*
X5163381Y6219851D01*
X5160452Y6222780D01*
Y6231064D01*
X5166310Y6236922D01*
X5174594Y6236922D01*
D02*
G37*
G36*
X4983534D02*
X4989392Y6231064D01*
Y6222780D01*
X4986463Y6219851D01*
X4944037Y6177425D01*
X4941108Y6174496D01*
X4932824D01*
X4926966Y6180353D01*
Y6188638D01*
X4929894Y6191567D01*
X4972321Y6233993D01*
X4975250Y6236922D01*
X4983534Y6236922D01*
D02*
G37*
G36*
X5146217Y6208544D02*
X5149146Y6205615D01*
X5191572Y6163189D01*
X5194501Y6160260D01*
Y6151976D01*
X5188643Y6146118D01*
X5180359D01*
X5177430Y6149047D01*
X5135003Y6191473D01*
X5132075Y6194402D01*
Y6202687D01*
X5137933Y6208544D01*
X5146217Y6208544D01*
D02*
G37*
G36*
X5011912D02*
X5017769Y6202686D01*
Y6194402D01*
X5014841Y6191473D01*
X4972414Y6149047D01*
X4969485Y6146118D01*
X4961201D01*
X4955343Y6151976D01*
Y6160260D01*
X4958272Y6163189D01*
X5000698Y6205615D01*
X5003628Y6208544D01*
X5011912Y6208544D01*
D02*
G37*
G36*
X5120948Y6177417D02*
X5163374Y6134991D01*
X5166303Y6132062D01*
Y6123778D01*
X5160445Y6117920D01*
X5152161Y6117920D01*
X5149232Y6120849D01*
X5106806Y6163275D01*
X5103877Y6166204D01*
Y6174489D01*
X5109735Y6180346D01*
X5118019D01*
X5120948Y6177417D01*
D02*
G37*
G36*
X5045968Y6174488D02*
Y6166204D01*
X5043038Y6163275D01*
X5000612Y6120849D01*
X4997683Y6117920D01*
X4989399Y6117920D01*
X4983541Y6123778D01*
Y6132062D01*
X4986470Y6134991D01*
X5028896Y6177417D01*
X5031825Y6180346D01*
X5040110D01*
X5045968Y6174488D01*
D02*
G37*
D16*
X1801912Y3346612D02*
D03*
X2630448D02*
D03*
X838200Y5501920D02*
D03*
X4287519Y3346612D02*
D03*
X3458984D02*
D03*
X838200Y3749320D02*
D03*
Y1958620D02*
D03*
D17*
X1801912Y3946612D02*
D03*
X2630448D02*
D03*
X838200Y4901920D02*
D03*
X4287519Y3946612D02*
D03*
X3458984D02*
D03*
X838200Y3149320D02*
D03*
Y1358620D02*
D03*
D18*
X4939120Y5969000D02*
D03*
X5024120D02*
D03*
X186142Y4815840D02*
D03*
X276142D02*
D03*
X186142Y3063240D02*
D03*
X276142D02*
D03*
X186142Y1272540D02*
D03*
X276142D02*
D03*
X6342935Y6065273D02*
D03*
X6252935D02*
D03*
X6342935Y5958593D02*
D03*
X6252935D02*
D03*
X6334042Y6380480D02*
D03*
X6244042D02*
D03*
X5018360Y7457440D02*
D03*
X4933360D02*
D03*
X4617040D02*
D03*
X4532040D02*
D03*
X6244042Y6273800D02*
D03*
X6334042D02*
D03*
X6203402Y7223760D02*
D03*
X6293402D02*
D03*
X6203402Y7330440D02*
D03*
X6293402D02*
D03*
X5128260Y7457440D02*
D03*
X5213260D02*
D03*
X5131480Y5969000D02*
D03*
X5216480D02*
D03*
D19*
X4846323Y6055363D02*
D03*
X4782683Y5991723D02*
D03*
X3950128Y6172628D02*
D03*
X4010232Y6232732D02*
D03*
X4659216Y6117176D02*
D03*
X4719320Y6177280D02*
D03*
X4645660Y6256020D02*
D03*
X4582021Y6192380D02*
D03*
X4430616Y6345776D02*
D03*
X4490720Y6405880D02*
D03*
X4505821Y6268580D02*
D03*
X4569460Y6332220D02*
D03*
X4277221Y6497180D02*
D03*
X4340860Y6560820D02*
D03*
X4414520Y6482080D02*
D03*
X4354416Y6421976D02*
D03*
X5490142Y7191941D02*
D03*
X5553781Y7255581D02*
D03*
X5406322Y7278301D02*
D03*
X5469961Y7341941D02*
D03*
X5576502Y7105581D02*
D03*
X5640141Y7169221D02*
D03*
X5325042Y7362121D02*
D03*
X5388681Y7425761D02*
D03*
X5781468Y6909228D02*
D03*
X5841572Y6969332D02*
D03*
X5660322Y7024301D02*
D03*
X5723961Y7087941D02*
D03*
D20*
X5278548Y6047312D02*
D03*
X5338652Y5987208D02*
D03*
X4759532Y7300388D02*
D03*
X4699428Y7360492D02*
D03*
X5368222Y6140519D02*
D03*
X5431861Y6076879D02*
D03*
X5454582Y6226879D02*
D03*
X5518221Y6163239D02*
D03*
X4507299Y7049701D02*
D03*
X4443659Y7113341D02*
D03*
X5624762Y6394519D02*
D03*
X5688401Y6330879D02*
D03*
X5711122Y6478339D02*
D03*
X5774761Y6414699D02*
D03*
X4431099Y6973501D02*
D03*
X4367459Y7037141D02*
D03*
X5538402Y6310699D02*
D03*
X5602041Y6247059D02*
D03*
X4354899Y6897301D02*
D03*
X4291259Y6960941D02*
D03*
X6179681Y7010540D02*
D03*
X6243320Y6946900D02*
D03*
X6103481Y6934340D02*
D03*
X6167120Y6870700D02*
D03*
X4581732Y7127668D02*
D03*
X4521628Y7187772D02*
D03*
X4775628Y7436692D02*
D03*
X4835732Y7376588D02*
D03*
X4662239Y7202101D02*
D03*
X4598599Y7265741D02*
D03*
D21*
X208280Y5786500D02*
D03*
X335280D02*
D03*
X462280D02*
D03*
X589280D02*
D03*
X208280Y6286500D02*
D03*
X335280D02*
D03*
X462280D02*
D03*
D22*
X589280D02*
D03*
D23*
X1563243Y6043803D02*
D03*
X1164718Y5645277D02*
D03*
D24*
X3625520Y6574627D02*
D03*
D25*
X3715322Y6484824D02*
D03*
X3805124Y6395022D02*
D03*
X3894927Y6305220D02*
D03*
X3979073Y6928180D02*
D03*
X4068876Y6838378D02*
D03*
X4158678Y6748576D02*
D03*
X4248480Y6658773D02*
D03*
D26*
X3604260Y6014720D02*
D03*
Y6204720D02*
D03*
Y7139440D02*
D03*
Y6949440D02*
D03*
D27*
X2382800Y7208480D02*
D03*
D28*
X1782800D02*
D03*
D29*
X401320Y4693920D02*
D03*
X306320D02*
D03*
X211320D02*
D03*
Y4414520D02*
D03*
X306320D02*
D03*
X401320D02*
D03*
Y2941320D02*
D03*
X306320D02*
D03*
X211320D02*
D03*
Y2661920D02*
D03*
X306320D02*
D03*
X401320D02*
D03*
X3126740Y5999480D02*
D03*
X3221740D02*
D03*
X3316740D02*
D03*
Y6278880D02*
D03*
X3221740D02*
D03*
X3126740D02*
D03*
X401320Y1150620D02*
D03*
X306320D02*
D03*
X211320D02*
D03*
Y871220D02*
D03*
X306320D02*
D03*
X401320D02*
D03*
X3126740Y6934200D02*
D03*
X3221740D02*
D03*
X3316740D02*
D03*
Y7213600D02*
D03*
X3221740D02*
D03*
X3126740D02*
D03*
D30*
X1104900Y4270462D02*
D03*
Y4360462D02*
D03*
X508000Y4205425D02*
D03*
Y4295425D02*
D03*
X187960Y4292600D02*
D03*
Y4207600D02*
D03*
X294640Y4208243D02*
D03*
Y4293243D02*
D03*
X401320Y4205425D02*
D03*
Y4295425D02*
D03*
X3423920Y7345680D02*
D03*
Y7430680D02*
D03*
X3317240Y7345680D02*
D03*
Y7430680D02*
D03*
X508000Y2452825D02*
D03*
Y2542825D02*
D03*
X3446780Y5979882D02*
D03*
Y6069882D02*
D03*
X401320Y2452825D02*
D03*
Y2542825D02*
D03*
X3210560Y6498420D02*
D03*
Y6408420D02*
D03*
X1104900Y727162D02*
D03*
Y817162D02*
D03*
X508000Y662125D02*
D03*
Y752125D02*
D03*
X401320Y662125D02*
D03*
Y752125D02*
D03*
X3210560Y7433140D02*
D03*
Y7343140D02*
D03*
X3446780Y6914602D02*
D03*
Y7004602D02*
D03*
X3103880Y7433140D02*
D03*
Y7343140D02*
D03*
Y6498420D02*
D03*
Y6408420D02*
D03*
X1104900Y2516040D02*
D03*
Y2606040D02*
D03*
X2504440Y6061162D02*
D03*
Y6151162D02*
D03*
X723900Y6056082D02*
D03*
Y6146082D02*
D03*
X3423920Y6495960D02*
D03*
Y6410960D02*
D03*
X294640Y2540643D02*
D03*
Y2455643D02*
D03*
X4290060Y7139940D02*
D03*
Y7229940D02*
D03*
Y7436398D02*
D03*
Y7346398D02*
D03*
X2504440Y6995882D02*
D03*
Y7085882D02*
D03*
X3317240Y6495960D02*
D03*
Y6410960D02*
D03*
X294640Y664943D02*
D03*
Y749943D02*
D03*
X187960Y2540000D02*
D03*
Y2455000D02*
D03*
X835660Y6143580D02*
D03*
Y6058580D02*
D03*
X187960Y749300D02*
D03*
Y664300D02*
D03*
D31*
X1219200Y4368800D02*
D03*
Y4513800D02*
D03*
Y2761200D02*
D03*
Y2616200D02*
D03*
X2504440Y6403340D02*
D03*
Y6548340D02*
D03*
X1219200Y970500D02*
D03*
Y825500D02*
D03*
D32*
X221186Y4970780D02*
D03*
X411186D02*
D03*
X221186Y3218180D02*
D03*
X411186D02*
D03*
X221186Y1427480D02*
D03*
X411186D02*
D03*
D34*
X1801912Y1255040D02*
D03*
X2630448D02*
D03*
X3458984D02*
D03*
X4287519D02*
D03*
D35*
X1801912Y655040D02*
D03*
X2630448D02*
D03*
X3458984D02*
D03*
X4287519D02*
D03*
D36*
X2382800Y6273760D02*
D03*
D37*
X1782800D02*
D03*
D39*
X2504440Y7338060D02*
D03*
Y7483060D02*
D03*
D40*
X7215137Y1791493D02*
D03*
X6603207Y1179563D02*
D03*
D41*
X7501798Y1069679D02*
D03*
X7325021Y892902D02*
D03*
D46*
X4149000Y7182260D02*
D03*
X3979000D02*
D03*
X4149000Y7392260D02*
D03*
X3979000D02*
D03*
D47*
X1130635Y6183951D02*
D03*
X1024569Y6077885D02*
D03*
D142*
X8855571Y7169125D02*
G03*
X8855571Y7169125I-32512J0D01*
G01*
X8425574D02*
G03*
X8425574Y7169125I-32512J0D01*
G01*
Y6689115D02*
G03*
X8425574Y6689115I-32512J0D01*
G01*
X8855571D02*
G03*
X8855571Y6689115I-32512J0D01*
G01*
%TF.MD5,520d25e326bc696f742bc29cf09aeb87*%
M02*
