%TF.GenerationSoftware,Altium Limited,Altium Designer,24.0.1 (36)*%
G04 Layer_Physical_Order=1*
G04 Layer_Color=152*
%FSLAX45Y45*%
%MOMM*%
%TF.SameCoordinates,AAE7DA4B-5550-4C39-BD6C-8ACC05BC0005*%
%TF.FilePolarity,Positive*%
%TF.FileFunction,Copper,L1,Top,Signal*%
%TF.Part,Single*%
G01*
G75*
%TA.AperFunction,Conductor*%
%ADD10C,0.12954*%
%ADD11C,0.38100*%
%ADD12C,0.15240*%
%ADD13C,0.25400*%
%ADD14C,0.20320*%
%ADD15C,0.12700*%
%TA.AperFunction,ConnectorPad*%
%ADD16O,1.00000X2.70000*%
%ADD17R,1.00000X2.70000*%
%TA.AperFunction,SMDPad,CuDef*%
%ADD18O,1.00000X2.70000*%
%ADD19R,1.00000X2.70000*%
%ADD20R,3.50000X2.00000*%
%ADD21R,3.50000X1.20000*%
%ADD22R,0.42000X0.66000*%
%ADD23P,0.70711X4X270.0*%
%ADD24O,1.50000X0.50000*%
%ADD25R,1.50000X0.50000*%
G04:AMPARAMS|DCode=26|XSize=0.2mm|YSize=0.8mm|CornerRadius=0mm|HoleSize=0mm|Usage=FLASHONLY|Rotation=135.000|XOffset=0mm|YOffset=0mm|HoleType=Round|Shape=Round|*
%AMOVALD26*
21,1,0.60000,0.20000,0.00000,0.00000,225.0*
1,1,0.20000,0.21213,0.21213*
1,1,0.20000,-0.21213,-0.21213*
%
%ADD26OVALD26*%

G04:AMPARAMS|DCode=27|XSize=0.2mm|YSize=0.8mm|CornerRadius=0mm|HoleSize=0mm|Usage=FLASHONLY|Rotation=45.000|XOffset=0mm|YOffset=0mm|HoleType=Round|Shape=Round|*
%AMOVALD27*
21,1,0.60000,0.20000,0.00000,0.00000,135.0*
1,1,0.20000,0.21213,-0.21213*
1,1,0.20000,-0.21213,0.21213*
%
%ADD27OVALD27*%

%ADD28P,7.77817X4X180.0*%
%ADD29C,1.00000*%
%ADD30R,0.50000X0.50000*%
%ADD31R,0.43180X0.97790*%
%ADD32R,0.50000X0.50000*%
%ADD33R,1.27000X0.88900*%
%ADD34R,0.88900X1.27000*%
%ADD35R,1.00000X0.20000*%
%ADD36R,0.26700X1.35001*%
%ADD37R,0.26670X0.90170*%
%ADD38R,0.26670X1.35001*%
%ADD39P,0.70711X4X180.0*%
%ADD40R,1.20000X1.30000*%
%ADD41R,7.50000X2.20000*%
%ADD42R,0.75000X0.85000*%
G04:AMPARAMS|DCode=43|XSize=1.95mm|YSize=1.5mm|CornerRadius=0mm|HoleSize=0mm|Usage=FLASHONLY|Rotation=135.000|XOffset=0mm|YOffset=0mm|HoleType=Round|Shape=Rectangle|*
%AMROTATEDRECTD43*
4,1,4,1.21976,-0.15910,0.15910,-1.21976,-1.21976,0.15910,-0.15910,1.21976,1.21976,-0.15910,0.0*
%
%ADD43ROTATEDRECTD43*%

G04:AMPARAMS|DCode=44|XSize=0.8mm|YSize=2.5mm|CornerRadius=0mm|HoleSize=0mm|Usage=FLASHONLY|Rotation=225.000|XOffset=0mm|YOffset=0mm|HoleType=Round|Shape=Rectangle|*
%AMROTATEDRECTD44*
4,1,4,-0.60104,1.16673,1.16673,-0.60104,0.60104,-1.16673,-1.16673,0.60104,-0.60104,1.16673,0.0*
%
%ADD44ROTATEDRECTD44*%

%ADD45R,3.70000X1.10000*%
%TA.AperFunction,ConnectorPad*%
%ADD46R,3.70000X1.10000*%
%ADD47R,0.75000X0.85000*%
%TA.AperFunction,SMDPad,CuDef*%
%ADD48R,1.00000X0.30000*%
%ADD49C,3.20000*%
%TA.AperFunction,Conductor*%
%ADD50R,2.37000X1.83000*%
%ADD51R,3.46000X0.57000*%
%TA.AperFunction,ComponentPad*%
%ADD52C,2.99974*%
%ADD53C,1.19888*%
%ADD54R,1.80000X4.50000*%
%ADD55R,1.80000X4.00000*%
%ADD56R,5.00000X2.60000*%
%ADD57C,1.30000*%
%ADD58C,1.00000*%
%TA.AperFunction,ViaPad*%
%ADD59C,0.40000*%
G36*
X3296920Y7523480D02*
X3314700Y7505700D01*
Y7274560D01*
X3286760Y7246620D01*
X3172460D01*
X3149600Y7269480D01*
Y7498080D01*
X3175000Y7523480D01*
X3296920Y7523480D01*
D02*
G37*
G36*
X3124200Y7498080D02*
Y7264400D01*
X3106420Y7246620D01*
X3004820D01*
X2893060Y7358380D01*
X2580640D01*
X2565400Y7373620D01*
Y7513320D01*
X2578100Y7526020D01*
X3096260D01*
X3124200Y7498080D01*
D02*
G37*
G36*
X3304540Y6924040D02*
X3304540Y6629400D01*
X3289300Y6614160D01*
X3147060D01*
X3131820Y6629400D01*
Y6863080D01*
X3108960Y6885940D01*
X2992120Y6885940D01*
X2933700Y6827520D01*
X2885440D01*
X2877820Y6835140D01*
Y6924040D01*
X2885440Y6931660D01*
X2951480Y6931660D01*
X2974340Y6954520D01*
X3274060D01*
X3304540Y6924040D01*
D02*
G37*
G36*
X2959100Y7211060D02*
Y6967220D01*
X2938780Y6946900D01*
X2877820D01*
X2867660Y6936740D01*
Y6832600D01*
X2860040Y6824980D01*
X2819400D01*
X2811780Y6832600D01*
Y6936740D01*
X2801620Y6946900D01*
X2590800D01*
X2567940Y6969760D01*
Y7213600D01*
X2578100Y7223760D01*
X2946400D01*
X2959100Y7211060D01*
D02*
G37*
G36*
X2796540Y6931660D02*
X2801620Y6926580D01*
Y6824980D01*
X2815477Y6811123D01*
X2940164D01*
X2999740Y6870700D01*
X3101340D01*
X3114040Y6858000D01*
Y6629400D01*
X3098800Y6614160D01*
X2981960D01*
X2915920Y6680200D01*
X2763520D01*
X2745740Y6697980D01*
Y6926580D01*
X2750820Y6931660D01*
X2796540Y6931660D01*
D02*
G37*
G36*
X2867660Y6649720D02*
Y6545580D01*
X2877820Y6535420D01*
X2938780D01*
X2959100Y6515100D01*
Y6271260D01*
X2946400Y6258560D01*
X2578100D01*
X2567940Y6268720D01*
Y6512560D01*
X2590800Y6535420D01*
X2801620D01*
X2811780Y6545580D01*
Y6649720D01*
X2819400Y6657340D01*
X2860040D01*
X2867660Y6649720D01*
D02*
G37*
G36*
X1333500Y7526020D02*
X1366520D01*
X1437640Y7454900D01*
Y6497320D01*
X1315720Y6375400D01*
X604520Y6375400D01*
X561340Y6332220D01*
X561340Y6215380D01*
X535939Y6189979D01*
X388619Y6189980D01*
X358140Y6220459D01*
Y6619240D01*
X391159Y6652259D01*
X866140Y6652260D01*
X916940Y6703060D01*
Y7114540D01*
X873760Y7157720D01*
X769620D01*
X731520Y7195820D01*
Y7477760D01*
X784860Y7531100D01*
X1328420D01*
X1333500Y7526020D01*
D02*
G37*
G36*
X3314700Y6200140D02*
Y5994400D01*
X3294380Y5974080D01*
X3169920D01*
X3149600Y5994400D01*
X3149600Y6205220D01*
X3172460Y6228080D01*
X3286760D01*
X3314700Y6200140D01*
D02*
G37*
G36*
X3126740Y6210300D02*
Y5976620D01*
X3098800Y5948680D01*
X2580640D01*
X2567940Y5961380D01*
Y6101080D01*
X2583180Y6116320D01*
X2895600D01*
X3007360Y6228080D01*
X3108960D01*
X3126740Y6210300D01*
D02*
G37*
G36*
X495300Y5039360D02*
Y4704080D01*
X467360Y4676140D01*
X330200D01*
X300635Y4705705D01*
Y5037735D01*
X322580Y5059680D01*
X474980D01*
X495300Y5039360D01*
D02*
G37*
G36*
X1165860Y5036819D02*
X1165860Y4787900D01*
X1165859Y4536439D01*
X975360Y4345940D01*
X962660Y4333240D01*
Y4152900D01*
X949960Y4140200D01*
X845820Y4140200D01*
X835660Y4150360D01*
Y4411980D01*
X848360Y4424680D01*
X896620Y4472938D01*
Y4683760D01*
Y5039360D01*
X916940Y5059680D01*
X1143000D01*
X1165860Y5036819D01*
D02*
G37*
G36*
X1089660Y4203700D02*
Y4147820D01*
X1079500Y4137660D01*
X982980D01*
X972820Y4147820D01*
X972820Y4201160D01*
X982980Y4211320D01*
X1082040D01*
X1089660Y4203700D01*
D02*
G37*
G36*
X863600Y6065520D02*
X863600Y4467860D01*
X822960Y4427220D01*
Y4147820D01*
X810260Y4135120D01*
X739140Y4135120D01*
X726440Y4147820D01*
X726440Y4338320D01*
X695960Y4368800D01*
X510540D01*
X462280Y4417060D01*
Y4645660D01*
X530860Y4714240D01*
Y5046980D01*
X490220Y5087620D01*
X99060D01*
X33020Y5153660D01*
Y6045200D01*
X113499Y6125679D01*
X803440Y6125680D01*
X863600Y6065520D01*
D02*
G37*
G36*
X779780Y4109720D02*
Y4005580D01*
X734060Y3959860D01*
X568963D01*
X553723Y3944620D01*
X373380D01*
X363220Y3954780D01*
Y4048760D01*
X381000Y4066540D01*
X698500Y4066540D01*
X721360Y4089400D01*
Y4112260D01*
X728980Y4119880D01*
X769620D01*
X779780Y4109720D01*
D02*
G37*
G36*
X2768600Y4030152D02*
Y3753292D01*
X2697480Y3682172D01*
X2447732D01*
X2352040Y3586480D01*
X1557020Y3586479D01*
X1490980Y3652520D01*
Y4038600D01*
X1528252Y4075872D01*
X2722880D01*
X2768600Y4030152D01*
D02*
G37*
G36*
X4450080Y4035232D02*
X4450080Y3665220D01*
X4358649Y3573789D01*
X2394039Y3573778D01*
X2389178Y3585512D01*
X2470586Y3666932D01*
X2700020D01*
X2791460Y3758372D01*
Y4030152D01*
X2839720Y4078412D01*
X4406900D01*
X4450080Y4035232D01*
D02*
G37*
G36*
X932180Y4119880D02*
X942340Y4109720D01*
Y4066540D01*
X965200Y4043680D01*
X1104900D01*
X1206500Y3942080D01*
Y3718560D01*
Y3444240D01*
X1125220Y3362960D01*
X317500D01*
X274320Y3406140D01*
Y3738880D01*
X335280Y3799840D01*
X525780D01*
X563880Y3837940D01*
Y3921760D01*
X586740Y3944620D01*
X749300D01*
X802640Y3997960D01*
X802640Y4112260D01*
X810260Y4119880D01*
X932180Y4119880D01*
D02*
G37*
G36*
X4348480Y3484880D02*
Y3215640D01*
X4328160Y3195320D01*
X4188460Y3195320D01*
X4163060Y3220720D01*
Y3482340D01*
X4188460Y3507740D01*
X4325620D01*
X4348480Y3484880D01*
D02*
G37*
G36*
X3519944D02*
Y3215640D01*
X3499624Y3195320D01*
X3359924Y3195320D01*
X3334524Y3220720D01*
Y3482340D01*
X3359924Y3507740D01*
X3497084D01*
X3519944Y3484880D01*
D02*
G37*
G36*
X2691408D02*
Y3215640D01*
X2671088Y3195320D01*
X2531388Y3195320D01*
X2505988Y3220720D01*
Y3482340D01*
X2531388Y3507740D01*
X2668548D01*
X2691408Y3484880D01*
D02*
G37*
G36*
X1862873D02*
Y3215640D01*
X1842553Y3195320D01*
X1702853Y3195320D01*
X1677453Y3220720D01*
Y3482340D01*
X1702853Y3507740D01*
X1840013D01*
X1862873Y3484880D01*
D02*
G37*
G36*
X1084580Y3017520D02*
Y2608580D01*
X1043940Y2567940D01*
X302260D01*
X251460Y2618740D01*
Y3014980D01*
X299720Y3063240D01*
X1038860D01*
X1084580Y3017520D01*
D02*
G37*
G36*
X1056640Y2506980D02*
Y2364740D01*
X1028700Y2336800D01*
X302260Y2336800D01*
X266700Y2372360D01*
Y2504440D01*
X294640Y2532380D01*
X1031240D01*
X1056640Y2506980D01*
D02*
G37*
G36*
X556260Y2009140D02*
Y1831340D01*
X533400Y1808480D01*
X200660D01*
X180340Y1828800D01*
Y2011680D01*
X198120Y2029460D01*
X535940D01*
X556260Y2009140D01*
D02*
G37*
G36*
X731520Y1694180D02*
X731520Y1557020D01*
X711200Y1536700D01*
X208280D01*
X190500Y1554480D01*
X190500Y1701800D01*
X208280Y1719580D01*
X706120Y1719580D01*
X731520Y1694180D01*
D02*
G37*
G36*
X2768600Y1338580D02*
Y1061720D01*
X2697480Y990600D01*
X2459957D01*
X2281654Y812297D01*
X2138742D01*
X2130256Y824997D01*
X2130276Y825045D01*
Y837043D01*
X2125684Y848128D01*
X2117200Y856612D01*
X2106115Y861204D01*
X2094117D01*
X2083032Y856612D01*
X2074548Y848128D01*
X2069956Y837043D01*
Y825045D01*
X2069976Y824997D01*
X2061490Y812297D01*
X1580383Y812297D01*
X1490980Y901700D01*
Y1347028D01*
X1528252Y1384300D01*
X2722880D01*
X2768600Y1338580D01*
D02*
G37*
G36*
X4450080Y1343660D02*
Y853440D01*
X4399280Y802640D01*
X4336749D01*
X4334727Y803477D01*
X4210267D01*
X4208246Y802640D01*
X4166748D01*
X4164380Y804933D01*
X4159308Y815340D01*
X4162276Y822505D01*
Y834503D01*
X4157684Y845588D01*
X4149200Y854072D01*
X4138115Y858664D01*
X4126117D01*
X4115032Y854072D01*
X4106548Y845588D01*
X4101956Y834503D01*
Y822505D01*
X4104924Y815340D01*
X4099852Y804933D01*
X4097484Y802640D01*
X3508213D01*
X3506192Y803477D01*
X3381732D01*
X3379711Y802640D01*
X3023748D01*
X3017565Y814418D01*
X3022157Y825503D01*
Y837501D01*
X3017565Y848586D01*
X3009081Y857070D01*
X2997996Y861662D01*
X2985997D01*
X2974912Y857070D01*
X2966428Y848586D01*
X2961837Y837501D01*
Y825503D01*
X2966428Y814418D01*
X2960245Y802640D01*
X2891785D01*
X2886525Y815340D01*
X2887684Y816500D01*
X2892276Y827585D01*
Y839583D01*
X2887684Y850668D01*
X2879200Y859152D01*
X2868115Y863744D01*
X2856117D01*
X2845032Y859152D01*
X2836548Y850668D01*
X2831956Y839583D01*
Y827585D01*
X2836548Y816500D01*
X2837707Y815340D01*
X2832447Y802640D01*
X2679677D01*
X2677656Y803477D01*
X2553196D01*
X2551175Y802640D01*
X2389793D01*
X2386389Y807841D01*
X2383452Y815340D01*
X2387280Y824581D01*
Y836579D01*
X2382688Y847664D01*
X2374204Y856148D01*
X2365388Y859800D01*
X2361933Y868081D01*
X2361067Y873440D01*
X2462971Y975360D01*
X2700020D01*
X2791460Y1066800D01*
Y1338580D01*
X2838195Y1385315D01*
X4408425D01*
X4450080Y1343660D01*
D02*
G37*
G36*
X4352507Y774700D02*
Y543560D01*
X4337267Y528320D01*
X4202647D01*
X4187407Y543560D01*
Y769620D01*
X4210267Y792480D01*
X4334727D01*
X4352507Y774700D01*
D02*
G37*
G36*
X3523972D02*
Y543560D01*
X3508731Y528320D01*
X3374111D01*
X3358872Y543560D01*
Y769620D01*
X3381732Y792480D01*
X3506192D01*
X3523972Y774700D01*
D02*
G37*
G36*
X2695436D02*
Y543560D01*
X2680196Y528320D01*
X2545576D01*
X2530336Y543560D01*
Y769620D01*
X2553196Y792480D01*
X2677656D01*
X2695436Y774700D01*
D02*
G37*
G36*
X1866900D02*
Y543560D01*
X1851660Y528320D01*
X1717040D01*
X1701800Y543560D01*
Y769620D01*
X1724660Y792480D01*
X1849120D01*
X1866900Y774700D01*
D02*
G37*
%LPC*%
G36*
X2363119Y4010340D02*
X2351121D01*
X2340036Y4005748D01*
X2331552Y3997264D01*
X2326960Y3986179D01*
Y3974181D01*
X2331552Y3963096D01*
X2340036Y3954612D01*
X2351121Y3950020D01*
X2363119D01*
X2374204Y3954612D01*
X2382688Y3963096D01*
X2387280Y3974181D01*
Y3986179D01*
X2382688Y3997264D01*
X2374204Y4005748D01*
X2363119Y4010340D01*
D02*
G37*
G36*
X2106579D02*
X2094581D01*
X2083496Y4005748D01*
X2075012Y3997264D01*
X2070420Y3986179D01*
Y3974181D01*
X2075012Y3963096D01*
X2083496Y3954612D01*
X2094581Y3950020D01*
X2106579D01*
X2117664Y3954612D01*
X2126148Y3963096D01*
X2130740Y3974181D01*
Y3986179D01*
X2126148Y3997264D01*
X2117664Y4005748D01*
X2106579Y4010340D01*
D02*
G37*
G36*
X4141119Y3680140D02*
X4129121D01*
X4118036Y3675548D01*
X4109552Y3667064D01*
X4104960Y3655979D01*
Y3643981D01*
X4109552Y3632896D01*
X4118036Y3624412D01*
X4129121Y3619820D01*
X4141119D01*
X4152204Y3624412D01*
X4160688Y3632896D01*
X4165280Y3643981D01*
Y3655979D01*
X4160688Y3667064D01*
X4152204Y3675548D01*
X4141119Y3680140D01*
D02*
G37*
G36*
X2868115Y3678064D02*
X2856117D01*
X2845032Y3673472D01*
X2836548Y3664988D01*
X2831956Y3653903D01*
Y3641905D01*
X2836548Y3630820D01*
X2845032Y3622336D01*
X2856117Y3617744D01*
X2868115D01*
X2879200Y3622336D01*
X2887684Y3630820D01*
X2892276Y3641905D01*
Y3653903D01*
X2887684Y3664988D01*
X2879200Y3673472D01*
X2868115Y3678064D01*
D02*
G37*
G36*
X2995115Y3675524D02*
X2983117D01*
X2972032Y3670932D01*
X2963548Y3662448D01*
X2958956Y3651363D01*
Y3639365D01*
X2963548Y3628280D01*
X2972032Y3619796D01*
X2983117Y3615204D01*
X2995115D01*
X3006200Y3619796D01*
X3014684Y3628280D01*
X3019276Y3639365D01*
Y3651363D01*
X3014684Y3662448D01*
X3006200Y3670932D01*
X2995115Y3675524D01*
D02*
G37*
%LPD*%
D10*
X4705371Y6851489D02*
G03*
X4705480Y6851380I16324J16324D01*
G01*
X4655219Y6909398D02*
G03*
X4653601Y6913317I-5556J0D01*
G01*
X4653855Y6905732D02*
G03*
X4655219Y6909025I-3293J3293D01*
G01*
X4653855Y6905732D02*
G03*
X4653855Y6903004I1364J-1364D01*
G01*
X4736432Y6839552D02*
G03*
X4723939Y6844727I-12493J-12493D01*
G01*
X4693993Y6817024D02*
G03*
X4687232Y6833347I-23084J0D01*
G01*
X4693993Y6814781D02*
G03*
X4699168Y6802288I17668J0D01*
G01*
X7554553Y1907321D02*
G03*
X7612112Y1768362I196519J0D01*
G01*
X7467960Y3039712D02*
G03*
X7494684Y2975197I91238J0D01*
G01*
X7182133Y6136144D02*
G03*
X6984964Y6217814I-197169J-197170D01*
G01*
X7495982Y5706795D02*
G03*
X7414312Y5903965I-278840J0D01*
G01*
X7518708Y3774027D02*
G03*
X7467960Y3651513I122515J-122515D01*
G01*
X7495982Y4536943D02*
G03*
X7514611Y4491969I63602J0D01*
G01*
X5974104Y6187440D02*
G03*
X5992769Y6195171I0J26396D01*
G01*
X5574283Y6208880D02*
G03*
X5626100Y6187440I51818J51898D01*
G01*
X6047433Y6217814D02*
G03*
X5992769Y6195171I0J-77307D01*
G01*
X8428093Y1693967D02*
G03*
X8448227Y1702295I0J28501D01*
G01*
X7612112Y1768362D02*
G03*
X7791717Y1693967I179605J179605D01*
G01*
X7508283Y2961597D02*
G03*
X7508201Y2961679I-111988J-111822D01*
G01*
X7554553Y2849774D02*
G03*
X7508283Y2961597I-158258J0D01*
G01*
X7569454Y4359566D02*
G03*
X7514611Y4491969I-187247J0D01*
G01*
X7518854Y3774173D02*
G03*
X7569454Y3896334I-122160J122160D01*
G01*
X7528899Y1896695D02*
G03*
X7586458Y1757736I196519J0D01*
G01*
X7164232Y6117765D02*
G03*
X6984627Y6192160I-179605J-179605D01*
G01*
X7470328Y5706458D02*
G03*
X7395933Y5886063I-254000J0D01*
G01*
X7442306Y3039558D02*
G03*
X7476377Y2957223I116520J0D01*
G01*
X7470328Y4536504D02*
G03*
X7496160Y4474140I88196J0D01*
G01*
X5974218Y6161786D02*
G03*
X6010828Y6176950I0J51776D01*
G01*
X5563617Y6183266D02*
G03*
X5615474Y6161786I51857J51857D01*
G01*
X6047515Y6192160D02*
G03*
X6010851Y6176973I0J-51851D01*
G01*
X8448227Y1659985D02*
G03*
X8428093Y1668313I-20134J-20173D01*
G01*
X7528899Y2849555D02*
G03*
X7489987Y2943613I-133135J0D01*
G01*
X7594188Y1750006D02*
G03*
X7791622Y1668313I197434J197731D01*
G01*
X7543800Y4359127D02*
G03*
X7496251Y4474049I-162653J0D01*
G01*
X5574242Y6208920D02*
G03*
X5574283Y6208880I51858J51858D01*
G01*
X8448227Y1702295D02*
G03*
X8448246Y1702315I-20134J20173D01*
G01*
X8460740Y1707490D02*
G03*
X8448247Y1702315I0J-17669D01*
G01*
X7442306Y3651925D02*
G03*
X7442306Y3651608I198686J-318D01*
G01*
X7476377Y2957223D02*
G03*
X7476434Y2957166I82450J82335D01*
G01*
X7500287Y3791887D02*
G03*
X7442306Y3651925I140706J-140279D01*
G01*
X8448247Y1659965D02*
G03*
X8460740Y1654790I12494J12494D01*
G01*
X8448246Y1659965D02*
G03*
X8448227Y1659985I-20153J-20153D01*
G01*
X7489987Y2943613D02*
G03*
X7489905Y2943695I-94223J-94058D01*
G01*
X7500500Y3792100D02*
G03*
X7500287Y3791887I140492J-140492D01*
G01*
X7496251Y4474049D02*
G03*
X7496160Y4474140I-115104J-114922D01*
G01*
X7594040Y1750154D02*
G03*
X7594188Y1750006I197582J197582D01*
G01*
X7500500Y3792100D02*
G03*
X7543800Y3896635I-104535J104535D01*
G01*
X8460740Y5545430D02*
G03*
X8448247Y5540255I0J-17669D01*
G01*
X8431077Y5531907D02*
G03*
X8446137Y5538145I0J21298D01*
G01*
X8416017D02*
G03*
X8431077Y5531907I15059J15059D01*
G01*
X8161128Y7421826D02*
G03*
X7964173Y7503407I-196955J-196955D01*
G01*
X5388521D02*
G03*
X5341750Y7484073I0J-66237D01*
G01*
X8268412Y7265930D02*
G03*
X8197881Y7385073I-267701J-78026D01*
G01*
X8382478Y5763726D02*
G03*
X8323876Y5905203I-200079J0D01*
G01*
X8382478Y5599810D02*
G03*
X8402318Y5551844I67903J0D01*
G01*
X8279551Y7187904D02*
G03*
X8268412Y7265930I-278840J0D01*
G01*
X8279551Y6012214D02*
G03*
X8323876Y5905204I151335J0D01*
G01*
X8446630Y5499521D02*
G03*
X8430336Y5506253I-16294J-16353D01*
G01*
X8401667Y5516215D02*
G03*
X8425764Y5506253I24097J24163D01*
G01*
X8448247Y5497905D02*
G03*
X8460740Y5492730I12494J12494D01*
G01*
X8143315Y7403359D02*
G03*
X7963711Y7477753I-179605J-179605D01*
G01*
X8242445Y7262978D02*
G03*
X8179503Y7367172I-242547J-75411D01*
G01*
X5388681Y7477753D02*
G03*
X5359711Y7465753I0J-40971D01*
G01*
X8356824Y5761713D02*
G03*
X8304313Y5888487I-179285J0D01*
G01*
X8304159Y5888641D02*
G03*
X8304313Y5888487I121867J121560D01*
G01*
X8356824Y5599633D02*
G03*
X8384070Y5533812I93130J0D01*
G01*
X8253897Y7187567D02*
G03*
X8242445Y7262978I-254000J0D01*
G01*
X8253897Y6010201D02*
G03*
X8304159Y5888641I172129J0D01*
G01*
X5341750Y7484073D02*
G03*
X5341684Y7484007I46771J-46903D01*
G01*
X8402318Y5551844D02*
G03*
X8402367Y5551795I48064J47966D01*
G01*
X8446660Y5499491D02*
G03*
X8446630Y5499521I-16324J-16324D01*
G01*
X8384070Y5533812D02*
G03*
X8384101Y5533780I65885J65821D01*
G01*
X8401634Y5516248D02*
G03*
X8401667Y5516215I24130J24130D01*
G01*
X7931875Y5818731D02*
G03*
X7850205Y6015900I-278840J0D01*
G01*
X7884160Y3932990D02*
G03*
X7958555Y3753385I254000J0D01*
G01*
Y4500895D02*
G03*
X7884160Y4321290I179605J-179605D01*
G01*
X7931875Y5265661D02*
G03*
X7981901Y5144819I170966J0D01*
G01*
X7389152Y6476953D02*
G03*
X7192197Y6558534I-196955J-196955D01*
G01*
X8428093Y3601507D02*
G03*
X8448227Y3609835I0J28501D01*
G01*
X8036039Y3675902D02*
G03*
X8215644Y3601507I179605J179605D01*
G01*
X8009159Y4551498D02*
G03*
X8059314Y4672584I-121085J121085D01*
G01*
X8059314Y4990629D02*
G03*
X8005025Y5121695I-185355J0D01*
G01*
X7906221Y5818393D02*
G03*
X7831826Y5997999I-254000J0D01*
G01*
X7858506Y3929909D02*
G03*
X7938130Y3737530I272215J0D01*
G01*
X7940319Y4518939D02*
G03*
X7858506Y4321425I197514J-197514D01*
G01*
X7906221Y5265438D02*
G03*
X7963505Y5126936I196080J0D01*
G01*
X7371340Y6458485D02*
G03*
X7191735Y6532880I-179605J-179605D01*
G01*
X8033660Y4990221D02*
G03*
X7986596Y5103844I-160688J0D01*
G01*
X8448227Y3567525D02*
G03*
X8428093Y3575853I-20134J-20173D01*
G01*
X8017966Y3657694D02*
G03*
X8215548Y3575853I197582J197582D01*
G01*
X7963505Y5126936D02*
G03*
X7963652Y5126788I138797J138502D01*
G01*
X8448247Y3567505D02*
G03*
X8460740Y3562330I12494J12494D01*
G01*
X8448246Y3567505D02*
G03*
X8448227Y3567525I-20153J-20153D01*
G01*
X7990795Y4569415D02*
G03*
X7990833Y4569453I-103486J103486D01*
G01*
D02*
G03*
X8033660Y4672900I-103524J103448D01*
G01*
X7981901Y5144819D02*
G03*
X7981950Y5144770I120940J120843D01*
G01*
X8448227Y3609835D02*
G03*
X8448246Y3609855I-20134J20173D01*
G01*
X8460740Y3615030D02*
G03*
X8448247Y3609855I0J-17669D01*
G01*
X8953754Y7230022D02*
G03*
X8921931Y7306849I-108650J0D01*
G01*
X8923090Y7085504D02*
G03*
X8953754Y7159533I-74029J74029D01*
G01*
X8921466Y7307314D02*
G03*
X8844639Y7339137I-76827J-76827D01*
G01*
X8914440Y7076870D02*
G03*
X8915414Y7077828I-55306J57239D01*
G01*
X8859134Y7054516D02*
G03*
X8914440Y7076870I0J79593D01*
G01*
X8680057Y7104126D02*
G03*
X8687913Y7100872I7856J7856D01*
G01*
X8758139Y7082312D02*
G03*
X8758160Y7082291I67106J67106D01*
G01*
D02*
G03*
X8825245Y7054516I67084J67128D01*
G01*
X8758139Y7082312D02*
G03*
X8713333Y7100872I-44806J-44806D01*
G01*
X8755174Y7347485D02*
G03*
X8742680Y7352660I-12494J-12494D01*
G01*
X8756760Y7345898D02*
G03*
X8773084Y7339137I16324J16324D01*
G01*
X8903506Y7288994D02*
G03*
X8844310Y7313483I-59196J-59301D01*
G01*
X8928100Y7229693D02*
G03*
X8903611Y7288889I-83790J0D01*
G01*
X8774639Y7102092D02*
G03*
X8827627Y7080170I52988J53079D01*
G01*
X8848508D02*
G03*
X8904788Y7103482I0J79593D01*
G01*
X8728679Y7140491D02*
G03*
X8695728Y7154113I-32951J-33041D01*
G01*
X8728724Y7140446D02*
G03*
X8728679Y7140491I-32996J-32996D01*
G01*
X8728860Y7140310D02*
G03*
X8730659Y7138833I9083J9237D01*
G01*
X8742680Y7299960D02*
G03*
X8755174Y7305135I0J17669D01*
G01*
X8773084Y7313483D02*
G03*
X8756760Y7306721I0J-23085D01*
G01*
X8904788Y7103482D02*
G03*
X8928100Y7159762I-56279J56279D01*
G01*
X8903559Y7288941D02*
G03*
X8903506Y7288994I-59248J-59248D01*
G01*
X8903611Y7288889D02*
G03*
X8903559Y7288941I-59301J-59196D01*
G01*
X8774594Y7102137D02*
G03*
X8774639Y7102092I53033J53033D01*
G01*
X8509667Y7154113D02*
G03*
X8494981Y7148030I0J-20770D01*
G01*
X8480294Y7141947D02*
G03*
X8494981Y7148030I0J20770D01*
G01*
X8480294Y7141947D02*
G03*
X8469632Y7136350I0J-12954D01*
G01*
X8451624Y7112247D02*
G03*
X8460254Y7122759I-58562J56878D01*
G01*
X8451553Y7112169D02*
G03*
X8446976Y7106284I28047J-26532D01*
G01*
X8434210Y7086666D02*
G03*
X8435930Y7088831I-9226J9093D01*
G01*
X8392380Y7044835D02*
G03*
X8392372Y7044826I18080J-18200D01*
G01*
D02*
G03*
X8392321Y7044775I18089J-18191D01*
G01*
X8386328Y7041375D02*
G03*
X8392321Y7044775I-3167J12561D01*
G01*
X8489771Y7110621D02*
G03*
X8479396Y7105424I0J-12954D01*
G01*
X8470214Y7094567D02*
G03*
X8479396Y7105424I-77152J74557D01*
G01*
X8470129Y7094476D02*
G03*
X8468653Y7092565I9470J-8839D01*
G01*
X8452385Y7068560D02*
G03*
X8457607Y7075112I-27401J27199D01*
G01*
X8452372Y7068547D02*
G03*
X8452385Y7068560I-27388J27212D01*
G01*
X8410461Y7026635D02*
G03*
X8407060Y7020643I9160J-9160D01*
G01*
X8784504Y6807040D02*
G03*
X8787905Y6813032I-9160J9160D01*
G01*
X8784504Y6807039D02*
G03*
X8782910Y6805346I27300J-27300D01*
G01*
X8746611Y6764403D02*
G03*
X8746871Y6764680I-9320J8997D01*
G01*
X8745865Y6763631D02*
G03*
X8736708Y6752794I77193J-74515D01*
G01*
X8721140Y6748031D02*
G03*
X8706454Y6754114I-14686J-14686D01*
G01*
X8726350Y6747619D02*
G03*
X8736708Y6752794I0J12955D01*
G01*
X8808637Y6792300D02*
G03*
X8802109Y6788331I3168J-12561D01*
G01*
X8765069Y6746587D02*
G03*
X8766123Y6747723I-27778J26813D01*
G01*
X8764387Y6745880D02*
G03*
X8755929Y6735573I58671J-56765D01*
G01*
X8735826Y6716293D02*
G03*
X8746488Y6721890I0J12954D01*
G01*
X8735826Y6716293D02*
G03*
X8721140Y6710210I0J-20770D01*
G01*
X8706454Y6704127D02*
G03*
X8721140Y6710210I0J20770D01*
G01*
X8366920Y6795683D02*
G03*
X8360928Y6799084I-9160J-9160D01*
G01*
X8366920Y6795684D02*
G03*
X8366938Y6795666I27300J27300D01*
G01*
X8494950Y6710240D02*
G03*
X8480294Y6716293I-14656J-14717D01*
G01*
X8469577Y6721971D02*
G03*
X8480294Y6716293I10718J7276D01*
G01*
X8495011Y6710180D02*
G03*
X8509667Y6704127I14656J14717D01*
G01*
X8366943Y6795661D02*
G03*
X8376949Y6788454I27277J27323D01*
G01*
X8509667Y6754114D02*
G03*
X8494981Y6748031I0J-20770D01*
G01*
X8479296Y6752951D02*
G03*
X8489771Y6747619I10474J7622D01*
G01*
X8385081Y6813802D02*
G03*
X8385060Y6813824I-9091J-9049D01*
G01*
X8381659Y6819816D02*
G03*
X8385060Y6813824I12561J3167D01*
G01*
X8385088Y6813796D02*
G03*
X8388425Y6811398I9132J9188D01*
G01*
X8494981Y6710210D02*
G03*
X8494950Y6710240I-14686J-14686D01*
G01*
X8494981Y6710210D02*
G03*
X8495011Y6710180I14686J14686D01*
G01*
X8450855Y6746774D02*
G03*
X8450720Y6746909I-57793J-57659D01*
G01*
X8460254Y6735481D02*
G03*
X8450855Y6746774I-67192J-46366D01*
G01*
X8450720Y6746909D02*
G03*
X8429581Y6762128I-57659J-57793D01*
G01*
X8479296Y6752951D02*
G03*
X8469058Y6764851I-86234J-63836D01*
G01*
X8468798Y6765112D02*
G03*
X8441057Y6785073I-75736J-75996D01*
G01*
X8469058Y6764851D02*
G03*
X8468798Y6765112I-75996J-75736D01*
G01*
X8660256Y5285613D02*
G03*
X8660438Y5285613I181J64823D01*
G01*
X8614730Y5304470D02*
G03*
X8660256Y5285613I45707J45966D01*
G01*
X7085187Y6659880D02*
G03*
X7152640Y6687820I-0J95393D01*
G01*
X4850140Y7155755D02*
G03*
X4873403Y7146119I23263J23263D01*
G01*
X4786801Y7186407D02*
G03*
X4770203Y7193280I-16598J-16604D01*
G01*
X4786804Y7186403D02*
G03*
X4786801Y7186407I-16601J-16601D01*
G01*
X4833745Y7129023D02*
G03*
X4826363Y7146844I-25204J0D01*
G01*
X4753601Y7200157D02*
G03*
X4753604Y7200153I16601J16601D01*
G01*
D02*
G03*
X4770203Y7193280I16598J16604D01*
G01*
X4762552Y7223893D02*
G03*
X4762555Y7223890I16601J16601D01*
G01*
D02*
G03*
X4779154Y7217017I16598J16604D01*
G01*
X4795752Y7210143D02*
G03*
X4779154Y7217017I-16598J-16604D01*
G01*
X4795755Y7210140D02*
G03*
X4795752Y7210143I-16601J-16601D01*
G01*
X4527666Y7351807D02*
G03*
X4457675Y7322795I0J-98931D01*
G01*
X4408643Y7302500D02*
G03*
X4457675Y7322795I0J69377D01*
G01*
X4413595Y7272020D02*
G03*
X4471504Y7295983I0J81951D01*
G01*
X4550472Y7328693D02*
G03*
X4471504Y7295983I0J-111678D01*
G01*
X4668557Y7317889D02*
G03*
X4586592Y7351807I-81965J-82077D01*
G01*
X4668613Y7317833D02*
G03*
X4668557Y7317889I-82021J-82021D01*
G01*
X4652269Y7301489D02*
G03*
X4586592Y7328693I-65677J-65677D01*
G01*
X4044620Y7321640D02*
G03*
X4090848Y7302500I46228J46255D01*
G01*
X4044606Y7321654D02*
G03*
X4044620Y7321640I46242J46242D01*
G01*
X4220014Y7253274D02*
G03*
X4219960Y7253220I45333J-45441D01*
G01*
X4265348Y7272020D02*
G03*
X4220014Y7253274I0J-64187D01*
G01*
X7876234Y3317546D02*
G03*
X8073668Y3235853I197434J197731D01*
G01*
X7649941Y3659580D02*
G03*
X7731634Y3462147I279424J0D01*
G01*
X8448227Y3227525D02*
G03*
X8428093Y3235853I-20134J-20173D01*
G01*
X7227215Y6239918D02*
G03*
X7047610Y6314313I-179605J-179605D01*
G01*
X6365520D02*
G03*
X6356359Y6310519I0J-12955D01*
G01*
D02*
G03*
X6352565Y6301358I9160J-9160D01*
G01*
X6347498Y6287256D02*
G03*
X6352565Y6299524I-12317J12268D01*
G01*
X6347473Y6287231D02*
G03*
X6347498Y6287256I-12292J12292D01*
G01*
X7632415Y5249895D02*
G03*
X7632460Y5249940I-86284J86284D01*
G01*
X7668154Y5693769D02*
G03*
X7593760Y5873374I-254000J0D01*
G01*
X7649941Y4543697D02*
G03*
X7615699Y4626381I-116950J0D01*
G01*
X7581646Y4708574D02*
G03*
X7615620Y4626460I116221J0D01*
G01*
X7632411Y5249891D02*
G03*
X7581646Y5127334I122557J-122557D01*
G01*
X7675595Y3659676D02*
G03*
X7749990Y3480071I254000J0D01*
G01*
X7650764Y5231964D02*
G03*
X7693808Y5335881I-103917J103917D01*
G01*
X7894158Y3335902D02*
G03*
X8073764Y3261507I179605J179605D01*
G01*
X8428093D02*
G03*
X8448227Y3269835I0J28501D01*
G01*
X6352565Y6352922D02*
G03*
X6356359Y6343761I12955J0D01*
G01*
D02*
G03*
X6365520Y6339967I9160J9160D01*
G01*
X6347498Y6367024D02*
G03*
X6347473Y6367049I-12317J-12268D01*
G01*
X6352565Y6354756D02*
G03*
X6347498Y6367024I-17384J0D01*
G01*
X7693808Y5694106D02*
G03*
X7612138Y5891275I-278840J0D01*
G01*
X7675595Y4543868D02*
G03*
X7633948Y4644411I-142189J0D01*
G01*
X7245027Y6258386D02*
G03*
X7048072Y6339967I-196955J-196955D01*
G01*
X7607300Y4708724D02*
G03*
X7633933Y4644427I90930J0D01*
G01*
X7650764Y5231964D02*
G03*
X7607300Y5127032I104932J-104932D01*
G01*
X7876086Y3317694D02*
G03*
X7876234Y3317546I197582J197582D01*
G01*
X7731634Y3462147D02*
G03*
X7731782Y3461998I197731J197434D01*
G01*
X8448246Y3227505D02*
G03*
X8448227Y3227525I-20153J-20153D01*
G01*
X8448247Y3227505D02*
G03*
X8460740Y3222330I12494J12494D01*
G01*
X7632460Y5249940D02*
G03*
X7668154Y5336178I-86329J86238D01*
G01*
X7615620Y4626460D02*
G03*
X7615687Y4626393I82248J82114D01*
G01*
X8460740Y3275030D02*
G03*
X8448247Y3269855I0J-17669D01*
G01*
X8448227Y3269835D02*
G03*
X8448246Y3269855I-20134J20173D01*
G01*
X8625164Y5330316D02*
G03*
X8579389Y5349240I-45775J-45901D01*
G01*
X8625227Y5330253D02*
G03*
X8625164Y5330316I-45838J-45839D01*
G01*
X8632741Y5322739D02*
G03*
X8660438Y5311267I27697J27697D01*
G01*
X8079213Y7341252D02*
G03*
X7889872Y7419587I-189341J-189656D01*
G01*
X8079370Y7341095D02*
G03*
X8079213Y7341252I-189498J-189499D01*
G01*
X5469889Y7419587D02*
G03*
X5430946Y7403542I0J-55280D01*
G01*
D02*
G03*
X5430800Y7403396I38943J-39235D01*
G01*
X8230358Y5406903D02*
G03*
X8230455Y5406805I139071J138876D01*
G01*
X8172891Y5545778D02*
G03*
X8230358Y5406903I196538J0D01*
G01*
X8230553Y5406707D02*
G03*
X8369429Y5349240I138876J139071D01*
G01*
X8230455Y5406805D02*
G03*
X8230553Y5406707I138974J138974D01*
G01*
X8172891Y7132075D02*
G03*
X8091220Y7329245I-278840J0D01*
G01*
X8614600Y5304599D02*
G03*
X8614538Y5304662I-45838J-45839D01*
G01*
X8614600Y5304599D02*
G03*
X8614730Y5304470I45837J45837D01*
G01*
X8064646Y7319539D02*
G03*
X7885041Y7393933I-179605J-179605D01*
G01*
X5469961D02*
G03*
X5448889Y7385205I0J-29801D01*
G01*
X8218125Y5382856D02*
G03*
X8361214Y5323586I143089J143089D01*
G01*
X8614538Y5304662D02*
G03*
X8568763Y5323586I-45775J-45901D01*
G01*
X8147237Y7131738D02*
G03*
X8072842Y7311343I-254000J0D01*
G01*
X8204704Y5396276D02*
G03*
X8204801Y5396179I139071J138876D01*
G01*
X8147237Y5535152D02*
G03*
X8204704Y5396276I196538J0D01*
G01*
X7490587Y7144081D02*
G03*
X7419340Y7215328I-71247J0D01*
G01*
X6527800D02*
G03*
X6439539Y7193213I0J-187184D01*
G01*
X7419340Y7067550D02*
G03*
X7490587Y7138797I0J71247D01*
G01*
X6273242Y7071106D02*
G03*
X6329238Y7094300I0J79190D01*
G01*
X5656336Y7223866D02*
G03*
X5606043Y7203084I0J-71247D01*
G01*
X6031429Y7203245D02*
G03*
X5981298Y7223866I-50131J-50626D01*
G01*
X5455936Y7052978D02*
G03*
X5455963Y7053004I-18164J18116D01*
G01*
X5455912Y7052953D02*
G03*
X5455936Y7052978I-68519J68520D01*
G01*
X5455912Y7052953D02*
G03*
X5439000Y7025983I50379J-50379D01*
G01*
X6143915Y7090759D02*
G03*
X6191361Y7071106I47446J47446D01*
G01*
X6527558Y7240982D02*
G03*
X6424226Y7214131I0J-212253D01*
G01*
X7516241Y7144081D02*
G03*
X7419340Y7240982I-96901J0D01*
G01*
X7516241Y7138797D02*
G03*
X7587488Y7067550I71247J0D01*
G01*
X6262616Y7096760D02*
G03*
X6318560Y7119902I0J79190D01*
G01*
X5656336Y7249520D02*
G03*
X5587919Y7221240I0J-96901D01*
G01*
X6049410Y7221543D02*
G03*
X5981298Y7249520I-68112J-68924D01*
G01*
X5437823Y7071144D02*
G03*
X5437796Y7071117I18089J-18191D01*
G01*
D02*
G03*
X5437772Y7071093I68495J-68543D01*
G01*
X5410920Y7054222D02*
G03*
X5437772Y7071093I-23528J67250D01*
G01*
X6154541Y7116413D02*
G03*
X6201987Y7096760I47446J47447D01*
G01*
X6424226Y7214131D02*
G03*
X6377473Y7178815I103332J-185402D01*
G01*
X6439539Y7193213D02*
G03*
X6395441Y7160503I88262J-165069D01*
G01*
X6042680Y7052943D02*
G03*
X5988482Y7073314I-54198J-61915D01*
G01*
X6046667Y7049213D02*
G03*
X6045600Y7050260I-58185J-58185D01*
G01*
X6103483Y6960597D02*
G03*
X6082650Y7013229I-71211J2253D01*
G01*
X5742534Y7140337D02*
G03*
X5740822Y7140317I0J-71247D01*
G01*
X5700117Y7126335D02*
G03*
X5692052Y7119367I42417J-57245D01*
G01*
X5920740Y7106920D02*
G03*
X5840064Y7140337I-80676J-80676D01*
G01*
X5540959Y6968274D02*
G03*
X5523953Y6941030I50379J-50379D01*
G01*
X5930396Y7097264D02*
G03*
X5988347Y7073314I57951J58134D01*
G01*
X5930305Y7097356D02*
G03*
X5930396Y7097264I58043J58043D01*
G01*
X6053263Y7078633D02*
G03*
X5999082Y7098968I-54180J-62014D01*
G01*
X5938638Y7125302D02*
G03*
X5840405Y7165991I-98233J-98233D01*
G01*
X6100790Y7031370D02*
G03*
X6153484Y7010539I50379J50379D01*
G01*
X5742534Y7165991D02*
G03*
X5740355Y7165967I0J-96901D01*
G01*
X5723010Y7165577D02*
G03*
X5698783Y7157276I951J-42280D01*
G01*
X5684844Y7146947D02*
G03*
X5673924Y7137519I57690J-77857D01*
G01*
D02*
G03*
X5673905Y7137500I68610J-68428D01*
G01*
X5522871Y6986465D02*
G03*
X5522844Y6986438I18089J-18191D01*
G01*
X5495575Y6969407D02*
G03*
X5522820Y6986414I-23135J67386D01*
G01*
X5948349Y7115591D02*
G03*
X5988482Y7098968I40133J40133D01*
G01*
X6056203Y7075936D02*
G03*
X6053263Y7078633I-57121J-59316D01*
G01*
X6056226Y7075914D02*
G03*
X6056203Y7075936I-57143J-59295D01*
G01*
X6057311Y7074848D02*
G03*
X6057183Y7074976I-58229J-58229D01*
G01*
D02*
G03*
X6056226Y7075914I-58101J-58357D01*
G01*
X6100790Y7031370D02*
G03*
X6100734Y7031426I-68519J-68520D01*
G01*
D02*
G03*
X6100716Y7031444I-18084J-18197D01*
G01*
X5522844Y6986438D02*
G03*
X5522820Y6986414I68495J-68543D01*
G01*
X6045600Y7050260D02*
G03*
X6042680Y7052943I-57118J-59232D01*
G01*
X5723587Y7139929D02*
G03*
X5714056Y7136663I375J-16633D01*
G01*
X3992880Y7338060D02*
G03*
X3992514Y7342258I-24394J-13D01*
G01*
X5770172Y6904551D02*
G03*
X5770169Y6904548I11296J-11302D01*
G01*
X5781468Y6909228D02*
G03*
X5770172Y6904551I0J-15980D01*
G01*
X4792598Y6953749D02*
G03*
X4805091Y6958924I0J17668D01*
G01*
X4754616Y6977090D02*
G03*
X4758217Y6968370I12358J0D01*
G01*
X4754616Y6977090D02*
G03*
X4751014Y6985810I-12358J0D01*
G01*
X4758217Y6968370D02*
G03*
X4758235Y6968352I8757J8720D01*
G01*
X4751014Y6985810D02*
G03*
X4750996Y6985828I-8757J-8720D01*
G01*
X4769467Y6957120D02*
G03*
X4778614Y6953338I9147J9172D01*
G01*
X4769455Y6957132D02*
G03*
X4769467Y6957120I9159J9159D01*
G01*
X4779507Y6923274D02*
G03*
X4768860Y6927684I-10647J-10647D01*
G01*
X4791840Y6910941D02*
G03*
X4803140Y6906260I11300J11300D01*
G01*
X4740077Y6950230D02*
G03*
X4731356Y6953831I-8721J-8756D01*
G01*
X4722636Y6957433D02*
G03*
X4731356Y6953831I8720J8757D01*
G01*
X4740095Y6950212D02*
G03*
X4740077Y6950230I-8738J-8739D01*
G01*
X4722618Y6957451D02*
G03*
X4722636Y6957433I8738J8739D01*
G01*
X4764767Y6929357D02*
G03*
X4767148Y6928267I6558J11173D01*
G01*
X4755625Y6934682D02*
G03*
X4759242Y6932168I9093J9226D01*
G01*
X4764767Y6929357D02*
G03*
X4760996Y6931350I-20164J-33589D01*
G01*
X8032703Y5486153D02*
G03*
X8114395Y5288719I279424J0D01*
G01*
X6436783Y7306165D02*
G03*
X6396176Y7289345I0J-57428D01*
G01*
X7983152Y7256848D02*
G03*
X7863925Y7306165I-119227J-119462D01*
G01*
X6342517Y7264273D02*
G03*
X6391318Y7284487I0J69014D01*
G01*
X6324880Y7264273D02*
G03*
X6315719Y7260479I0J-12955D01*
G01*
X8032703Y7137389D02*
G03*
X7983269Y7256731I-168776J0D01*
G01*
X6315719Y7260479D02*
G03*
X6311925Y7251318I9160J-9160D01*
G01*
X6306858Y7237216D02*
G03*
X6311925Y7249484I-12317J12268D01*
G01*
X6306833Y7237191D02*
G03*
X6306858Y7237216I-12292J12292D01*
G01*
X8168834Y5234281D02*
G03*
X8333067Y5166253I164233J164233D01*
G01*
X8058357Y5486248D02*
G03*
X8132751Y5306643I254000J0D01*
G01*
X8058357Y7137569D02*
G03*
X8001565Y7274715I-193993J0D01*
G01*
X6436583Y7331819D02*
G03*
X6378302Y7307750I0J-82597D01*
G01*
X6311925Y7304716D02*
G03*
X6306858Y7316984I-17384J0D01*
G01*
D02*
G03*
X6306833Y7317009I-12317J-12268D01*
G01*
X7993778Y7282502D02*
G03*
X7874551Y7331819I-119227J-119462D01*
G01*
X6342380Y7289927D02*
G03*
X6373237Y7302686I0J43693D01*
G01*
X6311925Y7302882D02*
G03*
X6315719Y7293721I12955J0D01*
G01*
D02*
G03*
X6324880Y7289927I9160J9160D01*
G01*
X8179522Y5259872D02*
G03*
X8343693Y5191907I164171J164296D01*
G01*
X8179459Y5259935D02*
G03*
X8179522Y5259872I164234J164234D01*
G01*
X8114395Y5288719D02*
G03*
X8114544Y5288570I197731J197434D01*
G01*
X7983270Y7256731D02*
G03*
X7983152Y7256848I-119344J-119345D01*
G01*
X8001565Y7274715D02*
G03*
X8001537Y7274743I-137202J-137146D01*
G01*
X6378302Y7307750D02*
G03*
X6378177Y7307627I58281J-58529D01*
G01*
X7993896Y7282385D02*
G03*
X7993778Y7282502I-119344J-119345D01*
G01*
X6373237Y7302686D02*
G03*
X6373276Y7302724I-30857J30934D01*
G01*
X5835233Y6347714D02*
G03*
X5889313Y6370092I0J76533D01*
G01*
X7807238Y5161520D02*
G03*
X7792425Y5125720I35854J-35800D01*
G01*
X7807265Y5161547D02*
G03*
X7807238Y5161520I35827J-35827D01*
G01*
X7813762Y4623522D02*
G03*
X7782560Y4548141I75456J-75381D01*
G01*
Y3747570D02*
G03*
X7856955Y3567965I254000J0D01*
G01*
X7792425Y4947249D02*
G03*
X7818775Y4883546I90178J0D01*
G01*
X7807291Y5161573D02*
G03*
X7837231Y5233854I-72281J72281D01*
G01*
X5732043Y6390394D02*
G03*
X5835233Y6347714I103191J103407D01*
G01*
X6047384Y6464300D02*
G03*
X5938362Y6419142I0J-154180D01*
G01*
X7293283Y6382630D02*
G03*
X7096113Y6464300I-197170J-197170D01*
G01*
X7969658Y3455262D02*
G03*
X8149263Y3380867I179605J179605D01*
G01*
X8885293D02*
G03*
X8905427Y3389195I0J28501D01*
G01*
X7813800Y4623560D02*
G03*
X7813762Y4623522I75419J-75419D01*
G01*
X7813800Y4623560D02*
G03*
X7860067Y4735258I-111699J111699D01*
G01*
Y4783948D02*
G03*
X7818918Y4883403I-140765J0D01*
G01*
X7837231Y5723182D02*
G03*
X7755561Y5920352I-278840J0D01*
G01*
X5835487Y6322060D02*
G03*
X5907311Y6351811I0J101574D01*
G01*
X7788975Y5179537D02*
G03*
X7766771Y5125932I53604J-53604D01*
G01*
X7788975Y5179537D02*
G03*
X7789016Y5179578I-54567J54567D01*
G01*
X7795462Y4641502D02*
G03*
X7756906Y4548420I93081J-93081D01*
G01*
Y3747475D02*
G03*
X7838599Y3550041I279424J0D01*
G01*
X7766771Y4947026D02*
G03*
X7800496Y4865546I115293J0D01*
G01*
X5716596Y6369561D02*
G03*
X5831374Y6322060I114778J114922D01*
G01*
X6047669Y6438646D02*
G03*
X5956301Y6400800I0J-129214D01*
G01*
X7275381Y6364251D02*
G03*
X7095777Y6438646I-179605J-179605D01*
G01*
X8905427Y3346885D02*
G03*
X8885293Y3355213I-20134J-20173D01*
G01*
X7834413Y4783799D02*
G03*
X7800592Y4865450I-115472J0D01*
G01*
X7800496Y4865546D02*
G03*
X7800540Y4865502I81569J81481D01*
G01*
X7951586Y3437054D02*
G03*
X8149168Y3355213I197582J197582D01*
G01*
X7795462Y4641502D02*
G03*
X7834413Y4735538I-94036J94036D01*
G01*
X7811577Y5722845D02*
G03*
X7737182Y5902450I-254000J0D01*
G01*
X7818775Y4883546D02*
G03*
X7818838Y4883484I63828J63703D01*
G01*
X7818918Y4883403D02*
G03*
X7818838Y4883484I-99617J-99455D01*
G01*
X8917940Y3394390D02*
G03*
X8905447Y3389215I0J-17669D01*
G01*
X8905427Y3389195D02*
G03*
X8905446Y3389215I-20134J20173D01*
G01*
X5889313Y6370092D02*
G03*
X5889350Y6370130I-54079J54155D01*
G01*
X5731935Y6390502D02*
G03*
X5732043Y6390394I103299J103299D01*
G01*
X7838599Y3550041D02*
G03*
X7838748Y3549892I197731J197434D01*
G01*
X7789016Y5179578D02*
G03*
X7811577Y5234104I-54608J54526D01*
G01*
X8905447Y3346865D02*
G03*
X8917940Y3341690I12494J12494D01*
G01*
X8905446Y3346865D02*
G03*
X8905427Y3346885I-20153J-20153D01*
G01*
X5716524Y6369632D02*
G03*
X5716596Y6369561I114850J114850D01*
G01*
X7443150Y1618969D02*
G03*
X7622755Y1544574I179605J179605D01*
G01*
X8521130Y1501710D02*
G03*
X8417648Y1544574I-103482J-103482D01*
G01*
X8885293Y1473327D02*
G03*
X8905427Y1481655I0J28501D01*
G01*
X8521185Y1501655D02*
G03*
X8589653Y1473327I68468J68578D01*
G01*
X6128784Y6139697D02*
G03*
X6085481Y6121760I0J-61240D01*
G01*
X5490939Y6122496D02*
G03*
X5542280Y6101252I51341J51414D01*
G01*
X6085424Y6121704D02*
G03*
X6085481Y6121760I-49455J49568D01*
G01*
X7319203Y1841000D02*
G03*
X7388448Y1673671I236797J0D01*
G01*
X7084271Y6058026D02*
G03*
X6887102Y6139696I-197169J-197170D01*
G01*
X6035969Y6101252D02*
G03*
X6085424Y6121704I0J70020D01*
G01*
X7319203Y5707595D02*
G03*
X7237533Y5904765I-278840J0D01*
G01*
X8503340Y1483221D02*
G03*
X8589266Y1447673I85927J86079D01*
G01*
X7425226Y1600613D02*
G03*
X7622660Y1518920I197434J197731D01*
G01*
X8503188Y1483372D02*
G03*
X8417261Y1518920I-85927J-86079D01*
G01*
X8905427Y1439345D02*
G03*
X8885293Y1447673I-20134J-20173D01*
G01*
X6139410Y6114043D02*
G03*
X6096106Y6096106I0J-61240D01*
G01*
X6096095Y6096095D02*
G03*
X6096106Y6096106I-49500J49522D01*
G01*
X6046595Y6075598D02*
G03*
X6096095Y6096095I0J70019D01*
G01*
X5480277Y6096879D02*
G03*
X5531654Y6075598I51377J51377D01*
G01*
X7293549Y1840715D02*
G03*
X7370091Y1655748I261762J0D01*
G01*
X7066369Y6039648D02*
G03*
X6886764Y6114043I-179605J-179605D01*
G01*
X7293549Y5707258D02*
G03*
X7219154Y5886863I-254000J0D01*
G01*
X8917940Y1486850D02*
G03*
X8905447Y1481675I0J-17669D01*
G01*
X8905427Y1481655D02*
G03*
X8905446Y1481675I-20134J20173D01*
G01*
X8521130Y1501710D02*
G03*
X8521185Y1501655I68523J68523D01*
G01*
X5490903Y6122533D02*
G03*
X5490939Y6122496I51378J51378D01*
G01*
X7388448Y1673671D02*
G03*
X7388560Y1673559I167552J167329D01*
G01*
X8503264Y1483296D02*
G03*
X8503340Y1483221I86003J86003D01*
G01*
X7425077Y1600761D02*
G03*
X7425226Y1600613I197582J197582D01*
G01*
X8503264Y1483296D02*
G03*
X8503188Y1483372I-86003J-86003D01*
G01*
X8905446Y1439325D02*
G03*
X8905427Y1439345I-20153J-20153D01*
G01*
X8905447Y1439325D02*
G03*
X8917940Y1434150I12494J12494D01*
G01*
X7370091Y1655748D02*
G03*
X7370218Y1655621I185221J184967D01*
G01*
X8428093Y1353967D02*
G03*
X8448227Y1362295I0J28501D01*
G01*
X7983881Y1221994D02*
G03*
X8125047Y1280467I0J199638D01*
G01*
X7293592Y1291608D02*
G03*
X7461809Y1221994I168217J168436D01*
G01*
X6365252Y6028554D02*
G03*
X6374413Y6024760I9160J9160D01*
G01*
X6361458Y6037714D02*
G03*
X6365252Y6028554I12955J0D01*
G01*
X6361458Y6039549D02*
G03*
X6356391Y6051817I-17384J0D01*
G01*
D02*
G03*
X6356367Y6051842I-12317J-12268D01*
G01*
X7170420Y1490214D02*
G03*
X7223760Y1361440I182115J0D01*
G01*
X7293483Y1291717D02*
G03*
X7293592Y1291608I168326J168326D01*
G01*
X7037511Y5943090D02*
G03*
X6840342Y6024760I-197169J-197170D01*
G01*
X7170420Y5698943D02*
G03*
X7091763Y5888838I-268552J0D01*
G01*
X8125187Y1280607D02*
G03*
X8125072Y1280492I177270J-177501D01*
G01*
X8302457Y1353967D02*
G03*
X8125187Y1280607I0J-250861D01*
G01*
X8448227Y1319985D02*
G03*
X8428093Y1328313I-20134J-20173D01*
G01*
X7984228Y1196340D02*
G03*
X8142941Y1262081I0J224454D01*
G01*
X6374413Y5999106D02*
G03*
X6365252Y5995312I0J-12955D01*
G01*
D02*
G03*
X6361458Y5986151I9160J-9160D01*
G01*
X6356391Y5972049D02*
G03*
X6361458Y5984316I-12317J12268D01*
G01*
X6356367Y5972024D02*
G03*
X6356391Y5972049I-12292J12292D01*
G01*
X7144766Y1479588D02*
G03*
X7196596Y1352341I182114J0D01*
G01*
X7196597D02*
G03*
X7198106Y1350814I130284J127247D01*
G01*
X7019610Y5924711D02*
G03*
X6840005Y5999106I-179605J-179605D01*
G01*
X7144766Y5698428D02*
G03*
X7073347Y5870975I-244143J0D01*
G01*
X8142986Y1262126D02*
G03*
X8142941Y1262081I159854J-159944D01*
G01*
X8302840Y1328313D02*
G03*
X8142986Y1262126I0J-226131D01*
G01*
X8460740Y1367490D02*
G03*
X8448247Y1362315I0J-17669D01*
G01*
X8448227Y1362295D02*
G03*
X8448246Y1362315I-20134J20173D01*
G01*
X8448247Y1319965D02*
G03*
X8460740Y1314790I12494J12494D01*
G01*
X8448246Y1319965D02*
G03*
X8448227Y1319985I-20153J-20153D01*
G01*
X7461262Y1196340D02*
G03*
X7461628Y1196340I366J263265D01*
G01*
X7275670Y1273250D02*
G03*
X7461262Y1196340I185958J186355D01*
G01*
X7275471Y1273449D02*
G03*
X7275670Y1273250I186157J186156D01*
G01*
X7073347Y5870975D02*
G03*
X7073258Y5871063I-172723J-172547D01*
G01*
X5597694Y7345934D02*
G03*
X5504449Y7307319I0J-131886D01*
G01*
X6088196Y7317924D02*
G03*
X6020574Y7345934I-67621J-67622D01*
G01*
X6092755Y7313365D02*
G03*
X6149340Y7289927I56586J56586D01*
G01*
X6171924D02*
G03*
X6181085Y7293721I0J12955D01*
G01*
X6189946Y7316984D02*
G03*
X6184879Y7304716I12317J-12268D01*
G01*
X6189971Y7317009D02*
G03*
X6189946Y7316984I12292J-12292D01*
G01*
X5603493Y7320280D02*
G03*
X5518614Y7285203I0J-120233D01*
G01*
X6070240Y7299600D02*
G03*
X6020314Y7320280I-49926J-49926D01*
G01*
X6074732Y7295108D02*
G03*
X6149175Y7264273I74443J74443D01*
G01*
X6181085Y7260479D02*
G03*
X6171924Y7264273I-9160J-9160D01*
G01*
X6184879Y7251318D02*
G03*
X6181085Y7260479I-12955J0D01*
G01*
X6189946Y7237216D02*
G03*
X6189971Y7237191I12317J12268D01*
G01*
X6184879Y7249484D02*
G03*
X6189946Y7237216I17384J0D01*
G01*
X5518614Y7285203D02*
G03*
X5518475Y7285065I84879J-85156D01*
G01*
X6181085Y7293721D02*
G03*
X6184879Y7302882I-9160J9160D01*
G01*
X7287514Y6917690D02*
G03*
X7216267Y6846443I0J-71247D01*
G01*
X7216107Y6840882D02*
G03*
X7216267Y6846443I-96741J5561D01*
G01*
X7202207Y6714884D02*
G03*
X7211018Y6750159I-87938J40704D01*
G01*
X7201514Y6713386D02*
G03*
X7201514Y6713387I-17403J8056D01*
G01*
X5885580Y7003171D02*
G03*
X5835361Y7023880I-50219J-50539D01*
G01*
X5795803D02*
G03*
X5745510Y7003098I0J-71247D01*
G01*
X5625740Y6883328D02*
G03*
X5625678Y6883266I50278J-50481D01*
G01*
X5625663Y6883250D02*
G03*
X5625678Y6883266I-18165J18116D01*
G01*
X5625638Y6883226D02*
G03*
X5625663Y6883250I-68519J68519D01*
G01*
X5625638Y6883226D02*
G03*
X5608726Y6856256I50380J-50379D01*
G01*
X7170848Y6669747D02*
G03*
X7201448Y6713245I-109653J109653D01*
G01*
X7085322Y6634226D02*
G03*
X7170684Y6669584I0J120720D01*
G01*
X6226247Y6662506D02*
G03*
X6294664Y6634226I68417J68621D01*
G01*
X7190501Y6842452D02*
G03*
X7119366Y6917690I-71135J3991D01*
G01*
X7178926Y6725660D02*
G03*
X7185404Y6751596I-64657J29928D01*
G01*
X7178229Y6724198D02*
G03*
X7178851Y6725499I-63970J31369D01*
G01*
X7152640Y6687820D02*
G03*
X7178229Y6724198I-91675J91675D01*
G01*
X5795803Y7049534D02*
G03*
X5727386Y7021254I0J-96901D01*
G01*
X5903664Y7021368D02*
G03*
X5835361Y7049534I-68303J-68735D01*
G01*
X5607616Y6901484D02*
G03*
X5607498Y6901366I68402J-68636D01*
G01*
X5580528Y6884454D02*
G03*
X5607498Y6901366I-23409J67291D01*
G01*
X6244371Y6680661D02*
G03*
X6294664Y6659880I50293J50466D01*
G01*
X6911105Y6996361D02*
G03*
X6921727Y6952330I96901J80D01*
G01*
X6911105Y6996362D02*
G03*
X6839858Y7067550I-71247J-59D01*
G01*
X6836966Y6746710D02*
G03*
X6891020Y6769100I0J76445D01*
G01*
X6243320Y6920703D02*
G03*
X6264150Y6868010I71209J-2314D01*
G01*
X6364669Y6767491D02*
G03*
X6414962Y6746710I50293J50466D01*
G01*
X7003080Y7067518D02*
G03*
X6944595Y6963956I4926J-71077D01*
G01*
X6246010Y6849870D02*
G03*
X6193377Y6870702I-50379J-50379D01*
G01*
X6246010Y6849870D02*
G03*
X6246101Y6849779I68520J68519D01*
G01*
X6837202Y6721056D02*
G03*
X6908993Y6750793I0J101528D01*
G01*
X6346544Y6749336D02*
G03*
X6414962Y6721056I68417J68621D01*
G01*
X6915937Y6794016D02*
G03*
X6935427Y6841070I-47053J47053D01*
G01*
X6929829Y6922943D02*
G03*
X6921727Y6952330I-76401J-5253D01*
G01*
X6264207Y6867953D02*
G03*
X6264150Y6868010I-68576J-68463D01*
G01*
X6264246Y6867914D02*
G03*
X6264207Y6867953I-18236J-18044D01*
G01*
X6955422Y6924703D02*
G03*
X6944595Y6963956I-101994J-7013D01*
G01*
X6941591Y6783390D02*
G03*
X6961081Y6830444I-47053J47053D01*
G01*
X5409602Y6034107D02*
G03*
X5431861Y6024887I22259J22259D01*
G01*
X6221457Y6024760D02*
G03*
X6230618Y6028554I0J12955D01*
G01*
X6239479Y6051817D02*
G03*
X6234412Y6039549I12317J-12268D01*
G01*
X6239504Y6051842D02*
G03*
X6239479Y6051817I12292J-12292D01*
G01*
X5391625Y6015803D02*
G03*
X5431726Y5999233I40101J40236D01*
G01*
X6230618Y5995312D02*
G03*
X6221457Y5999106I-9160J-9160D01*
G01*
X6234412Y5986151D02*
G03*
X6230618Y5995312I-12955J0D01*
G01*
X6239479Y5972049D02*
G03*
X6239504Y5972024I12317J12268D01*
G01*
X6234412Y5984316D02*
G03*
X6239479Y5972049I17384J0D01*
G01*
X5391558Y6015871D02*
G03*
X5391625Y6015803I40169J40169D01*
G01*
X6230618Y6028554D02*
G03*
X6234412Y6037714I-9160J9160D01*
G01*
X6042904Y6339967D02*
G03*
X5976539Y6312538I0J-94002D01*
G01*
X5915447Y6278887D02*
G03*
X5962254Y6298254I0J66247D01*
G01*
X5663571Y6289139D02*
G03*
X5688401Y6278887I24831J24943D01*
G01*
X6212564Y6339967D02*
G03*
X6221725Y6343761I0J12955D01*
G01*
X6230586Y6367024D02*
G03*
X6225519Y6354756I12317J-12268D01*
G01*
X6230611Y6367049D02*
G03*
X6230586Y6367024I12292J-12292D01*
G01*
X6043151Y6314313D02*
G03*
X5994454Y6294173I0J-68944D01*
G01*
X5926073Y6253233D02*
G03*
X5972880Y6272600I0J66247D01*
G01*
X6221725Y6310519D02*
G03*
X6212564Y6314313I-9160J-9160D01*
G01*
X6225519Y6301358D02*
G03*
X6221725Y6310519I-12955J0D01*
G01*
X6230586Y6287256D02*
G03*
X6230611Y6287231I12317J12268D01*
G01*
X6225519Y6299524D02*
G03*
X6230586Y6287256I17384J0D01*
G01*
X5976539Y6312538D02*
G03*
X5976435Y6312434I66365J-66573D01*
G01*
X5962254Y6298254D02*
G03*
X5962290Y6298290I-46807J46880D01*
G01*
X5663514Y6289195D02*
G03*
X5663571Y6289139I24887J24887D01*
G01*
X5994454Y6294173D02*
G03*
X5994400Y6294120I48697J-48804D01*
G01*
X5972880Y6272600D02*
G03*
X5972916Y6272636I-46807J46880D01*
G01*
X5645499Y6270930D02*
G03*
X5645660Y6270770I42725J42725D01*
G01*
D02*
G03*
X5688049Y6253233I42565J42885D01*
G01*
D02*
G03*
X5688224Y6253232I175J60422D01*
G01*
X6221725Y6343761D02*
G03*
X6225519Y6352922I-9160J9160D01*
G01*
X4653855Y6903004D02*
X4705371Y6851489D01*
X4712133Y6844727D02*
X4723939D01*
X4705480Y6851380D02*
X4712133Y6844727D01*
X4655219Y6909025D02*
Y6909398D01*
X4647101Y6919817D02*
X4653601Y6913317D01*
X4674267Y6846312D02*
X4674268D01*
X4674267D02*
X4687232Y6833347D01*
X4651522Y6869058D02*
X4674267Y6846312D01*
X4674268D02*
X4693993Y6826587D01*
X4625404Y6885118D02*
X4641464Y6869058D01*
X4651522D01*
X4635716Y6884864D02*
X4651522Y6869058D01*
X4693993Y6814781D02*
Y6817024D01*
Y6826587D01*
Y6807462D02*
X4699168Y6802288D01*
X4693993Y6807462D02*
Y6814781D01*
X7554553Y1907321D02*
Y2849774D01*
X7467960Y3039712D02*
Y3651513D01*
X7182133Y6136144D02*
X7414312Y5903965D01*
X7494684Y2975197D02*
X7508201Y2961680D01*
X7495982Y4536943D02*
Y5706795D01*
X5626100Y6187440D02*
X5974104D01*
X6047433Y6217814D02*
X6984964D01*
X7791717Y1693967D02*
X8428093D01*
X7518708Y3774027D02*
X7518854Y3774173D01*
X7569454Y3896334D02*
Y4359566D01*
X7442306Y3039558D02*
Y3651608D01*
X7164232Y6117765D02*
X7395933Y5886063D01*
X7470328Y4536504D02*
Y5706458D01*
X5508951Y6237931D02*
X5563617Y6183266D01*
X5615474Y6161786D02*
X5974218D01*
X6010828Y6176950D02*
X6010851Y6176973D01*
X6047515Y6192160D02*
X6984627D01*
X7791622Y1668313D02*
X8428093D01*
X7528899Y1896695D02*
Y2849555D01*
X7586458Y1757736D02*
X7594040Y1750154D01*
X7543800Y3896635D02*
Y4359127D01*
X5412149Y6371013D02*
X5574242Y6208920D01*
X5412149Y6371013D02*
Y6381071D01*
X5389588Y6403632D02*
X5412149Y6381071D01*
X7476435Y2957166D02*
X7489905Y2943695D01*
X5394010Y6352872D02*
X5508951Y6237931D01*
X5508951D01*
X5383952Y6352872D02*
X5394010D01*
X5361391Y6375434D02*
X5383952Y6352872D01*
X8446137Y5538145D02*
X8448246Y5540255D01*
X8402367Y5551795D02*
X8416017Y5538145D01*
X5388521Y7503407D02*
X7964173D01*
X8161128Y7421826D02*
X8197881Y7385073D01*
X8382478Y5599810D02*
Y5763726D01*
X8279551Y6012214D02*
Y7187904D01*
X8425764Y5506253D02*
X8430336D01*
X8446660Y5499491D02*
X8448246Y5497905D01*
X5388681Y7477753D02*
X7963711D01*
X8143316Y7403359D02*
X8179503Y7367172D01*
X5185847Y7291890D02*
X5359710Y7465753D01*
X8356824Y5599633D02*
Y5761713D01*
X8253897Y6010201D02*
Y7187567D01*
X5167707Y7310030D02*
X5341684Y7484007D01*
X5157649Y7310030D02*
X5167707D01*
X5135088Y7287469D02*
X5157649Y7310030D01*
X8384102Y5533780D02*
X8401634Y5516248D01*
X5185847Y7281832D02*
Y7291890D01*
X5163286Y7259271D02*
X5185847Y7281832D01*
X7884160Y3932990D02*
Y4321290D01*
X7958555Y4500895D02*
X8009159Y4551498D01*
X7958555Y3753385D02*
X8036039Y3675902D01*
X7389152Y6476953D02*
X7850205Y6015900D01*
X7931875Y5265661D02*
Y5818731D01*
X8215644Y3601507D02*
X8428093D01*
X7981950Y5144770D02*
X8005025Y5121695D01*
X8059314Y4672584D02*
Y4990629D01*
X6045200Y6558534D02*
X7192197D01*
X7858506Y3929909D02*
Y4321425D01*
X7938130Y3737530D02*
X8017966Y3657694D01*
X7940319Y4518939D02*
X7990795Y4569415D01*
X7963652Y5126788D02*
X7986596Y5103845D01*
Y5103844D02*
Y5103845D01*
X7906221Y5265438D02*
Y5818393D01*
X5723003Y6532880D02*
X7191735D01*
X7371340Y6458485D02*
X7831826Y5997999D01*
X8033660Y4672900D02*
Y4990221D01*
X8215548Y3575853D02*
X8428093D01*
X5638452Y6607373D02*
X5648510D01*
X5723003Y6532880D01*
X5615891Y6629934D02*
X5638452Y6607373D01*
X5666650Y6625514D02*
Y6635571D01*
Y6625514D02*
X5733629Y6558534D01*
X5644089Y6658132D02*
X5666650Y6635571D01*
X5733629Y6558534D02*
X5798820D01*
X5836920D01*
X5862320Y6583934D01*
X5900420D01*
X5925820Y6558534D01*
X6045200D01*
X8953754Y7159533D02*
Y7230022D01*
X8921466Y7307314D02*
X8921931Y7306849D01*
X8915414Y7077828D02*
X8923090Y7085504D01*
X8825245Y7054516D02*
X8859134D01*
X8687913Y7100872D02*
X8713333D01*
X8755174Y7347485D02*
X8756760Y7345898D01*
X8773084Y7339137D02*
X8844639D01*
X8928100Y7159762D02*
Y7229693D01*
X8827627Y7080170D02*
X8848508D01*
X8680057Y7154113D02*
X8695728D01*
X8728724Y7140446D02*
X8728860Y7140310D01*
X8755174Y7305135D02*
X8756760Y7306721D01*
X8773084Y7313483D02*
X8844310D01*
X8752626Y7124105D02*
X8774594Y7102137D01*
X8730659Y7138833D02*
X8735239Y7135763D01*
X8752626Y7124105D01*
X8509667Y7154113D02*
X8536064D01*
X8460254Y7122759D02*
X8469632Y7136350D01*
X8451553Y7112169D02*
X8451624Y7112247D01*
X8435930Y7088831D02*
X8446976Y7106284D01*
X8434206Y7086661D02*
X8434210Y7086666D01*
X8392380Y7044835D02*
X8434206Y7086661D01*
X8392372Y7044826D02*
X8392380Y7044835D01*
X8364220Y7035800D02*
X8386328Y7041374D01*
X8489771Y7110621D02*
X8492541D01*
X8470129Y7094476D02*
X8470214Y7094567D01*
X8457607Y7075112D02*
X8468653Y7092565D01*
X8452372Y7068547D02*
X8452385Y7068560D01*
X8410461Y7026635D02*
X8452372Y7068547D01*
X8401485Y6998535D02*
X8407060Y7020643D01*
X8492541Y7110621D02*
X8494086Y7111104D01*
X8746871Y6764680D02*
X8746923Y6764738D01*
X8745865Y6763631D02*
X8746611Y6764403D01*
X8721140Y6748031D02*
X8723579Y6747619D01*
X8726350D01*
X8680057Y6754114D02*
X8706454D01*
X8800447Y6786456D02*
X8802109Y6788331D01*
X8766123Y6747723D02*
X8793984Y6779162D01*
X8764387Y6745880D02*
X8765069Y6746587D01*
X8746488Y6721890D02*
X8755929Y6735573D01*
X8680057Y6704127D02*
X8706454D01*
X8787905Y6813032D02*
X8793480Y6835140D01*
X8773567Y6794804D02*
X8782910Y6805346D01*
X8746923Y6764738D02*
X8773567Y6794804D01*
X8808637Y6792300D02*
X8830745Y6797875D01*
X8793984Y6779162D02*
X8800447Y6786456D01*
X8460254Y6735481D02*
X8469563Y6721991D01*
X8469577Y6721971D01*
X8509667Y6704127D02*
X8536064D01*
X8376949Y6788454D02*
X8412339Y6770752D01*
X8366938Y6795666D02*
X8366943Y6795660D01*
X8509667Y6754114D02*
X8536064D01*
X8492541Y6747619D02*
X8494981Y6748031D01*
X8489771Y6747619D02*
X8492541D01*
X8385081Y6813802D02*
X8385088Y6813796D01*
X8376085Y6841925D02*
X8381659Y6819816D01*
X8388425Y6811398D02*
X8400055Y6805581D01*
X8338820Y6804660D02*
X8360928Y6799084D01*
X8412339Y6770752D02*
X8429581Y6762128D01*
X8400055Y6805581D02*
X8418397Y6796406D01*
X8441057Y6785072D01*
X8465820Y6955483D02*
X8466492Y6954811D01*
X8535392D01*
X8536064Y6954139D01*
X8680735Y6903448D02*
X8749622D01*
X8750300Y6902770D01*
X8680057Y6904126D02*
X8680735Y6903448D01*
X4486204Y6864650D02*
X4494896Y6855957D01*
X4467079Y6864650D02*
X4486204D01*
X4494896Y6855957D02*
Y6855957D01*
X4511388Y6829227D02*
Y6839465D01*
Y6829227D02*
X4533950Y6806666D01*
X4494896Y6855957D02*
X4511388Y6839465D01*
X4461904Y6869824D02*
X4467079Y6864650D01*
X8749622Y6954792D02*
X8750300Y6955470D01*
X8680735Y6954792D02*
X8749622D01*
X8680057Y6954114D02*
X8680735Y6954792D01*
X8535392Y6903455D02*
X8536064Y6904126D01*
X8466492Y6903455D02*
X8535392D01*
X8465820Y6902783D02*
X8466492Y6903455D01*
X4520550Y6866583D02*
Y6866583D01*
X4504344Y6882790D02*
X4520550Y6866583D01*
X4529529Y6857604D02*
X4539766D01*
X4562327Y6835043D01*
X4520550Y6866583D02*
X4529529Y6857604D01*
X4499169Y6907089D02*
X4504344Y6901914D01*
Y6882790D02*
Y6901914D01*
X7622755Y1544574D02*
X7886700D01*
X8013700D02*
X8166100D01*
X7988300Y1569974D02*
X8013700Y1544574D01*
X7950200Y1569974D02*
X7988300D01*
X7924800Y1544574D02*
X7950200Y1569974D01*
X7886700Y1544574D02*
X7924800D01*
X8166100D02*
X8417648D01*
X7622660Y1518920D02*
X8417261D01*
X8882380Y3380867D02*
X8885293D01*
X8826500D02*
X8882380D01*
X8801100Y3406267D02*
X8826500Y3380867D01*
X8763000Y3406267D02*
X8801100D01*
X8737600Y3380867D02*
X8763000Y3406267D01*
X8699500Y3380867D02*
X8737600D01*
X8149263D02*
X8699500D01*
X8663940Y5285613D02*
X8724900D01*
X8750300Y5260213D01*
X8788400D01*
X8813800Y5285613D01*
X8851900D01*
X8660438D02*
X8663940D01*
X8851900D02*
X8897099D01*
X6294664Y6659880D02*
X6893777D01*
X7023100D02*
X7061200D01*
X6996538Y6686442D02*
X7023100Y6659880D01*
X6958438Y6686442D02*
X6996538D01*
X6931877Y6659880D02*
X6958438Y6686442D01*
X6893777Y6659880D02*
X6931877D01*
X7061200D02*
X7085187D01*
X6596380Y6746710D02*
X6675120D01*
X6700520Y6772110D01*
X6738620D01*
X6764020Y6746710D01*
X6802120D01*
X6836966D01*
X6414962D02*
X6596380D01*
X7264451Y7215328D02*
X7305040D01*
X7239051Y7189928D02*
X7264451Y7215328D01*
X7200951Y7189928D02*
X7239051D01*
X7175551Y7215328D02*
X7200951Y7189928D01*
X7137451Y7215328D02*
X7175551D01*
X7112051Y7189928D02*
X7137451Y7215328D01*
X7073951Y7189928D02*
X7112051D01*
X7047255Y7216624D02*
X7073951Y7189928D01*
X7009155Y7216624D02*
X7047255D01*
X6982460Y7189928D02*
X7009155Y7216624D01*
X6944360Y7189928D02*
X6982460D01*
X6918960Y7215328D02*
X6944360Y7189928D01*
X6880860Y7215328D02*
X6918960D01*
X6527800D02*
X6880860D01*
X7305040D02*
X7419340D01*
X5765800Y7320280D02*
X5864860D01*
X5740400Y7294880D02*
X5765800Y7320280D01*
X5702300Y7294880D02*
X5740400D01*
X5676900Y7320280D02*
X5702300Y7294880D01*
X5638800Y7320280D02*
X5676900D01*
X5864860D02*
X6020314D01*
X5603493D02*
X5638800D01*
X4795755Y7210140D02*
X4850140Y7155755D01*
X4786801Y7186407D02*
X4786804Y7186403D01*
X4826363Y7146845D01*
X4753601Y7200157D02*
X4753604Y7200153D01*
X4652269Y7301489D02*
X4753601Y7200157D01*
X4762552Y7223893D02*
X4762555Y7223890D01*
X4674963Y7311483D02*
X4762552Y7223893D01*
X4795752Y7210143D02*
X4795755Y7210140D01*
X4527666Y7351807D02*
X4586592D01*
X4550472Y7328693D02*
X4586592D01*
X4668613Y7317832D02*
X4674963Y7311483D01*
X4090848Y7302500D02*
X4292601D01*
X4044606Y7321654D02*
X4044620Y7321640D01*
X3979000Y7387260D02*
X4044606Y7321654D01*
X4149000Y7182260D02*
X4219960Y7253220D01*
X4287520Y7272020D02*
X4413595D01*
X4265348D02*
X4287520D01*
X4292601Y7302500D02*
X4408643D01*
X8073668Y3235853D02*
X8428093D01*
X7668154Y5336178D02*
Y5693769D01*
X7649941Y3659580D02*
Y4543697D01*
X6365520Y6314313D02*
X7047610D01*
X6352565Y6299524D02*
Y6301358D01*
X6347473Y6287231D02*
X6347498Y6287256D01*
X6334042Y6273800D02*
X6347473Y6287231D01*
X7227215Y6239918D02*
X7593760Y5873374D01*
X7581646Y4708574D02*
Y5127334D01*
X7632411Y5249891D02*
X7632415Y5249895D01*
X7749990Y3480071D02*
X7894158Y3335902D01*
X7693808Y5335881D02*
Y5694106D01*
X7675595Y3659676D02*
Y4543868D01*
X8073764Y3261507D02*
X8428093D01*
X6352565Y6352922D02*
Y6354756D01*
X6365520Y6339967D02*
X7048072D01*
X6334042Y6380480D02*
X6347473Y6367049D01*
X6347498Y6367024D01*
X7633933Y4644427D02*
X7633948Y4644412D01*
X7245028Y6258386D02*
X7612138Y5891275D01*
X7607300Y4708724D02*
Y5127032D01*
X7731782Y3461998D02*
X7876086Y3317694D01*
X8910621Y5324790D02*
X8917940D01*
X8369429Y5349240D02*
X8579389D01*
X8625227Y5330253D02*
X8632741Y5322739D01*
X8897099Y5311267D02*
X8910621Y5324790D01*
X8660438Y5311267D02*
X8897099D01*
X5469889Y7419587D02*
X7889872D01*
X8079370Y7341095D02*
X8091220Y7329245D01*
X5252660Y7225256D02*
X5430800Y7403396D01*
X5242423Y7225256D02*
X5252660D01*
X8172891Y5545778D02*
Y7132075D01*
X5219862Y7202695D02*
X5242423Y7225256D01*
X8614600Y5304599D02*
Y5304599D01*
X8910621Y5272090D02*
X8917940D01*
X8897099Y5285613D02*
X8910621Y5272090D01*
X5469961Y7393933D02*
X7885041D01*
X8064646Y7319539D02*
X8072842Y7311343D01*
X5448889Y7385204D02*
X5448889Y7385205D01*
X5270800Y7207116D02*
X5448889Y7385204D01*
X5270800Y7196879D02*
Y7207116D01*
X5248239Y7174318D02*
X5270800Y7196879D01*
X8204801Y5396179D02*
X8218125Y5382856D01*
X8361214Y5323586D02*
X8568763D01*
X8147237Y5535152D02*
Y7131738D01*
X7490587Y7138797D02*
Y7144081D01*
X7403338Y7067550D02*
X7419340D01*
X6191361Y7071106D02*
X6273242D01*
X5656336Y7223866D02*
X5981298D01*
X5455963Y7053004D02*
X5606043Y7203084D01*
X5417787Y7004770D02*
X5439000Y7025983D01*
X6031428Y7203245D02*
X6143915Y7090758D01*
X6031428Y7203245D02*
X6031429Y7203245D01*
X6527558Y7240982D02*
X7419340D01*
X7516241Y7138797D02*
Y7144081D01*
X6318560Y7119902D02*
X6377473Y7178815D01*
X7587488Y7067550D02*
X7603490D01*
X6201987Y7096760D02*
X6262616D01*
X5656336Y7249520D02*
X5981298D01*
X5437823Y7071144D02*
X5587919Y7221240D01*
X5410801Y7054181D02*
X5410920Y7054222D01*
X6049410Y7221543D02*
X6154540Y7116413D01*
X5389588Y7032968D02*
X5410801Y7054181D01*
X6329238Y7094300D02*
X6395441Y7160503D01*
X6103481Y6960535D02*
X6103482Y6960597D01*
X6046667Y7049213D02*
X6082650Y7013229D01*
X5742534Y7140337D02*
X5840064D01*
X5540959Y6968274D02*
X5692052Y7119367D01*
X5502740Y6919817D02*
X5523953Y6941030D01*
X5920740Y7106920D02*
X5930305Y7097356D01*
X5988347Y7073314D02*
X5988482D01*
Y7098968D02*
X5999082D01*
X6153485Y7010539D02*
X6179681Y7010540D01*
X6153484Y7010539D02*
X6153485D01*
X5742534Y7165991D02*
X5840405D01*
X5684844Y7146947D02*
X5698783Y7157276D01*
X5522879Y6986474D02*
X5673905Y7137500D01*
X5522871Y6986465D02*
X5522879Y6986474D01*
X5474362Y6948195D02*
X5495575Y6969407D01*
X5938639Y7125302D02*
X5948349Y7115591D01*
X5931366Y7132574D02*
X5938639Y7125302D01*
X6057311Y7074848D02*
X6100716Y7031444D01*
X5723010Y7165576D02*
X5740355Y7165967D01*
X6103481Y6934340D02*
Y6960535D01*
X5723587Y7139929D02*
X5740822Y7140317D01*
X5700117Y7126335D02*
X5714056Y7136663D01*
X4290060Y7229940D02*
Y7269480D01*
X4287520Y7272020D02*
X4290060Y7269480D01*
Y7305040D02*
X4292601Y7302500D01*
X4290060Y7305040D02*
Y7346398D01*
X5770169Y6904548D02*
X5770172Y6904551D01*
X5644089Y6778468D02*
X5770169Y6904548D01*
X4784391Y6953749D02*
X4792598D01*
X4758217Y6968370D02*
X4758235Y6968352D01*
X4750996Y6985828D02*
X4751014Y6985810D01*
X4732055Y7004770D02*
X4750996Y6985828D01*
X4778614Y6953338D02*
X4783980D01*
X4769455Y6957132D02*
X4769467Y6957120D01*
X4758235Y6968352D02*
X4769455Y6957132D01*
X4779507Y6923274D02*
X4791840Y6910941D01*
X4740077Y6950230D02*
X4740095Y6950212D01*
X4722618Y6957451D02*
X4722636Y6957433D01*
X4703676Y6976392D02*
X4722618Y6957451D01*
X4759242Y6932168D02*
X4760996Y6931350D01*
X4767148Y6928267D02*
X4768860Y6927684D01*
X4740095Y6950212D02*
X4755625Y6934682D01*
X4783980Y6953338D02*
X4784391Y6953749D01*
X8533006Y6851055D02*
X8536064Y6854114D01*
X8468915Y6851055D02*
X8533006D01*
X8465856Y6847997D02*
X8468915Y6851055D01*
X8680057Y7004126D02*
X8682078Y7006148D01*
X8748278D01*
X8750300Y7008170D01*
X8333067Y5166253D02*
X8439899D01*
X8032703Y5486153D02*
Y7137389D01*
X6436783Y7306165D02*
X7863925D01*
X6391318Y7284487D02*
X6396176Y7289345D01*
X6324880Y7264273D02*
X6342517D01*
X6311925Y7249484D02*
Y7251318D01*
X6306833Y7237191D02*
X6306858Y7237216D01*
X6293402Y7223760D02*
X6306833Y7237191D01*
X8114544Y5288570D02*
X8168834Y5234281D01*
X8058357Y5486248D02*
Y7137569D01*
X8343693Y5191907D02*
X8439899D01*
X6436583Y7331819D02*
X7874551D01*
X6311925Y7302882D02*
Y7304716D01*
X6306833Y7317009D02*
X6306858Y7316984D01*
X6293402Y7330440D02*
X6306833Y7317009D01*
X6324880Y7289927D02*
X6342380D01*
X8439899Y5166253D02*
X8453421Y5152730D01*
X8460740D01*
X8453421Y5205430D02*
X8460740D01*
X7993895Y7282385D02*
X8001537Y7274743D01*
X8439899Y5191907D02*
X8453421Y5205430D01*
X6373276Y7302724D02*
X6378178Y7307626D01*
X8132751Y5306643D02*
X8179459Y5259935D01*
X7782560Y3747570D02*
Y4548141D01*
X7792425Y4947249D02*
Y5125720D01*
X7807265Y5161547D02*
X7807291Y5161573D01*
X5889350Y6370130D02*
X5938362Y6419142D01*
X6047384Y6464300D02*
X7096113D01*
X7856955Y3567965D02*
X7969658Y3455262D01*
X7860067Y4735258D02*
Y4783948D01*
X7837231Y5233854D02*
Y5723182D01*
X7293283Y6382630D02*
X7755561Y5920352D01*
X7756906Y3747475D02*
Y4548420D01*
X7766771Y4947026D02*
Y5125932D01*
X7275382Y6364251D02*
X7737182Y5902450D01*
X5831374Y6322060D02*
X5835487D01*
X5907311Y6351811D02*
X5956301Y6400800D01*
X6047669Y6438646D02*
X7095777D01*
X7800540Y4865502D02*
X7800592Y4865450D01*
X8149168Y3355213D02*
X8885293D01*
X7834413Y4735538D02*
Y4783799D01*
X7811577Y5234104D02*
Y5722845D01*
X5559315Y6573359D02*
X5581876Y6550798D01*
Y6540560D02*
Y6550798D01*
Y6540560D02*
X5731935Y6390502D01*
X7838748Y3549892D02*
X7951586Y3437054D01*
X5530938Y6544981D02*
X5553499Y6522420D01*
X5563736D01*
X5716524Y6369632D01*
X7388560Y1673559D02*
X7443150Y1618969D01*
X8589653Y1473327D02*
X8885293D01*
X6128784Y6139697D02*
X6887102D01*
X5542280Y6101252D02*
X6035969D01*
X7319203Y1841000D02*
Y5707595D01*
X7084271Y6058026D02*
X7237533Y5904765D01*
X7293549Y1840715D02*
Y5707258D01*
X8589266Y1447673D02*
X8885293D01*
X6139410Y6114043D02*
X6886764D01*
X5531654Y6075598D02*
X6046595D01*
X5309236Y6267920D02*
X5480277Y6096879D01*
X7066369Y6039648D02*
X7219154Y5886863D01*
X5304815Y6318858D02*
X5327376Y6296297D01*
Y6286060D02*
Y6296297D01*
Y6286060D02*
X5490903Y6122533D01*
X5276437Y6290481D02*
X5298998Y6267920D01*
X5309236D01*
X7370218Y1655621D02*
X7425077Y1600761D01*
X8302457Y1353967D02*
X8428093D01*
X7461809Y1221994D02*
X7983881D01*
X6361458Y6037714D02*
Y6039549D01*
X6356367Y6051842D02*
X6356391Y6051817D01*
X6342935Y6065273D02*
X6356367Y6051842D01*
X7170420Y1490214D02*
Y5698943D01*
X7223760Y1361440D02*
X7293483Y1291717D01*
X6374413Y6024760D02*
X6840342D01*
X7037512Y5943090D02*
X7091763Y5888838D01*
X8125047Y1280467D02*
X8125072Y1280491D01*
X8302840Y1328313D02*
X8428093D01*
X7461628Y1196340D02*
X7984228D01*
X6374413Y5999106D02*
X6840005D01*
X6361458Y5984316D02*
Y5986151D01*
X6356367Y5972024D02*
X6356391Y5972049D01*
X6342935Y5958593D02*
X6356367Y5972024D01*
X7144766Y1479588D02*
Y5698428D01*
X7198106Y1350814D02*
X7275471Y1273449D01*
X7019610Y5924711D02*
X7073258Y5871063D01*
X5599175Y7345934D02*
X6020574D01*
X5337434Y7140303D02*
X5504449Y7307319D01*
X6088196Y7317924D02*
X6092755Y7313365D01*
X6149340Y7289927D02*
X6171924D01*
X6184879Y7302882D02*
Y7304716D01*
X6189971Y7317009D02*
X6203402Y7330440D01*
X6189946Y7316984D02*
X6189971Y7317009D01*
X6149175Y7264273D02*
X6171924D01*
X6184879Y7249484D02*
Y7251318D01*
X6189971Y7237191D02*
X6203402Y7223760D01*
X6189946Y7237216D02*
X6189971Y7237191D01*
X5327376Y7140303D02*
X5337434D01*
X5304815Y7117742D02*
X5327376Y7140303D01*
X5355574Y7122163D02*
X5518475Y7285064D01*
X5355574Y7112105D02*
Y7122163D01*
X5333013Y7089544D02*
X5355574Y7112105D01*
X6070240Y7299600D02*
X6074732Y7295108D01*
X7287514Y6917690D02*
X7303516D01*
X7211018Y6750159D02*
X7216107Y6840882D01*
X7201514Y6713387D02*
X7202207Y6714884D01*
X7201448Y6713245D02*
X7201514Y6713386D01*
X5795803Y7023880D02*
X5835361D01*
X5625740Y6883328D02*
X5745510Y7003098D01*
X5587513Y6835043D02*
X5608726Y6856256D01*
X7170684Y6669584D02*
X7170847Y6669747D01*
X5885580Y7003171D02*
X6226246Y6662506D01*
X6294664Y6634226D02*
X7085322D01*
X7185404Y6751596D02*
X7190501Y6842452D01*
X7178851Y6725499D02*
X7178926Y6725660D01*
X5795803Y7049534D02*
X5835361D01*
X7103364Y6917690D02*
X7119366D01*
X5607616Y6901484D02*
X5727386Y7021254D01*
X5903664Y7021368D02*
X6244371Y6680661D01*
X5559315Y6863241D02*
X5580528Y6884454D01*
X6891020Y6769100D02*
X6915937Y6794017D01*
X6803390Y7067550D02*
X6839858D01*
X6243320Y6920703D02*
Y6920704D01*
X6243320Y6946900D01*
X6264245Y6867914D02*
X6364668Y6767491D01*
X7003080Y7067518D02*
X7003542Y7067550D01*
X6193316Y6870700D02*
X6193377Y6870702D01*
X6908993Y6750793D02*
X6941591Y6783391D01*
X6414962Y6721056D02*
X6837202D01*
X6246101Y6849779D02*
X6346544Y6749335D01*
X6935427Y6841070D02*
X6935457Y6841100D01*
X6929829Y6922943D02*
X6935457Y6841100D01*
X6961111Y6830474D02*
Y6842860D01*
X6955422Y6924703D02*
X6961051Y6842860D01*
X6961111D01*
X6961081Y6830444D02*
X6961111Y6830474D01*
X6167120Y6870700D02*
X6193316D01*
X6249125Y6069083D02*
X6252935Y6072893D01*
X5771908Y6024760D02*
X6221457D01*
X5431861Y6024887D02*
X5771782D01*
X5242423Y6201286D02*
X5409602Y6034107D01*
X6234412Y6037714D02*
Y6039549D01*
X6239504Y6051842D02*
X6252935Y6065273D01*
X6239479Y6051817D02*
X6239504Y6051842D01*
X5431726Y5999233D02*
X5761156D01*
X5761282Y5999106D02*
X6221457D01*
X6234412Y5984316D02*
Y5986151D01*
X6239504Y5972024D02*
X6252935Y5958593D01*
X6239479Y5972049D02*
X6239504Y5972024D01*
X5771782Y6024887D02*
X5771908Y6024760D01*
X5219862Y6233905D02*
X5242423Y6211344D01*
Y6201286D02*
Y6211344D01*
X5761156Y5999233D02*
X5761282Y5999106D01*
X5224283Y6183146D02*
X5391558Y6015871D01*
X5191664Y6205707D02*
X5214225Y6183146D01*
X5224283D01*
X5688401Y6278887D02*
X5915447D01*
X6042904Y6339967D02*
X6212564D01*
X6225519Y6352922D02*
Y6354756D01*
X6230611Y6367049D02*
X6244042Y6380480D01*
X6230586Y6367024D02*
X6230611Y6367049D01*
X6043151Y6314313D02*
X6212564D01*
X5688224Y6253233D02*
X5926073D01*
X6225519Y6299524D02*
Y6301358D01*
X6230611Y6287231D02*
X6244042Y6273800D01*
X6230586Y6287256D02*
X6230611Y6287231D01*
X5962290Y6298290D02*
X5976435Y6312434D01*
X5496923Y6455787D02*
X5663514Y6289195D01*
X5474362Y6488406D02*
X5496923Y6465845D01*
Y6455787D02*
Y6465845D01*
X5972916Y6272636D02*
X5994400Y6294120D01*
X5478783Y6437647D02*
X5645500Y6270930D01*
X5446164Y6460208D02*
X5468725Y6437647D01*
X5478783D01*
D11*
X1248702Y3312698D02*
G03*
X1282152Y3393298I-80381J80600D01*
G01*
Y4027882D02*
G03*
X1148079Y4173220I-145811J0D01*
G01*
X1248702Y3312698D02*
G03*
X1174307Y3133093I179605J-179605D01*
G01*
X1154283Y2721522D02*
G03*
X1174307Y2791024I-110608J69502D01*
G01*
X1006703Y2660392D02*
G03*
X1154282Y2721521I0J208711D01*
G01*
X1282152Y3393298D02*
Y4027882D01*
X606546Y1628140D02*
X659886Y1574800D01*
X366040Y1628140D02*
X606546D01*
X659886Y1574800D02*
X660400D01*
X365500Y1627600D02*
X366040Y1628140D01*
X1028700Y4173220D02*
X1148080D01*
X1174307Y2791024D02*
Y3133093D01*
X977900Y2660392D02*
X1006703D01*
X296500Y3668440D02*
X302260Y3662680D01*
X296500Y3668440D02*
Y3893820D01*
X405130Y3892550D02*
X506730D01*
X403860Y3891280D02*
X405130Y3892550D01*
X506730D02*
X508000Y3893820D01*
D12*
X2374900Y7396517D02*
G03*
X2332120Y7293237I103280J-103280D01*
G01*
X2363728Y6859012D02*
G03*
X2439838Y6827520I76110J76226D01*
G01*
X2332120Y6935239D02*
G03*
X2363670Y6859070I107719J0D01*
G01*
X2509904Y6908416D02*
G03*
X2584189Y6877685I74286J74418D01*
G01*
X2509838Y6908482D02*
G03*
X2509904Y6908416I74352J74352D01*
G01*
X2509772Y6908549D02*
G03*
X2509838Y6908482I74418J74286D01*
G01*
X2479040Y6982834D02*
G03*
X2509772Y6908549I105149J0D01*
G01*
X2363670Y6859070D02*
G03*
X2363728Y6859012I76168J76168D01*
G01*
X2363979Y6089104D02*
G03*
X2364015Y6089068I83167J83096D01*
G01*
X2329580Y6172200D02*
G03*
X2363979Y6089104I117566J0D01*
G01*
X2584189Y6604635D02*
G03*
X2509904Y6573904I0J-105149D01*
G01*
X2509772Y6573771D02*
G03*
X2479040Y6499486I74418J-74286D01*
G01*
X2509838Y6573838D02*
G03*
X2509772Y6573771I74352J-74352D01*
G01*
X2509904Y6573904D02*
G03*
X2509838Y6573838I74286J-74418D01*
G01*
X2372490Y6642230D02*
G03*
X2329580Y6538537I103833J-103693D01*
G01*
X2476323Y6685280D02*
G03*
X2372560Y6642300I0J-146742D01*
G01*
D02*
G03*
X2372490Y6642230I103763J-103763D01*
G01*
X2935985Y6563360D02*
X3051198Y6448147D01*
Y6431360D02*
Y6448147D01*
Y6431360D02*
X3055935Y6426622D01*
X2439838Y6827520D02*
X2631440D01*
X2374900Y7396517D02*
X2483478D01*
X2332120Y6935239D02*
Y7293237D01*
X2918170Y6563360D02*
X2935985D01*
X2904200Y6577330D02*
X2918170Y6563360D01*
X2904200Y6577330D02*
Y6604635D01*
X2479040Y6982834D02*
Y7114540D01*
X2509772Y6908549D02*
X2509838Y6908482D01*
X2509904Y6908416D01*
X2584189Y6877685D02*
X2709200D01*
X2329580Y6172200D02*
Y6538537D01*
X2364015Y6089068D02*
X2374900Y6078183D01*
X2483478D01*
X2479040Y6367780D02*
Y6499486D01*
X2584189Y6604635D02*
X2709200D01*
X2476323Y6685280D02*
X2724185D01*
X4652010Y6249670D02*
X4719320Y6182360D01*
Y6177280D02*
Y6182360D01*
X4528129Y6438994D02*
X4682463D01*
X4439100Y6482080D02*
X4485044D01*
X4528129Y6438994D01*
X4682463D02*
X4703676Y6460208D01*
X4730766Y6431830D02*
X4732054D01*
X4704816Y6405880D02*
X4730766Y6431830D01*
X4490720Y6405880D02*
X4704816D01*
X4653280Y6250940D02*
X4663956D01*
X4788450Y6375434D01*
X4439099Y6482080D02*
X4439100Y6482080D01*
X4414520Y6482080D02*
X4439099D01*
X2724185Y6685280D02*
X2760230Y6649235D01*
Y6618605D02*
X2774200Y6604635D01*
X2760230Y6618605D02*
Y6649235D01*
X2483478Y6078183D02*
X2484120Y6077540D01*
X2483478Y7396517D02*
X2484120Y7397160D01*
X2373003Y7119620D02*
X2484120D01*
X2372360Y7120263D02*
X2373003Y7119620D01*
X2479040Y7114540D02*
X2484120Y7119620D01*
X2479040Y6367780D02*
X2484120Y6362700D01*
X2372360Y6362057D02*
X2373003Y6362700D01*
X2484120D01*
X4926454Y7365534D02*
X5000980Y7440060D01*
X4958177Y7230893D02*
Y7231691D01*
X4926454Y7263414D02*
X4958177Y7231691D01*
X4926454Y7263414D02*
Y7365534D01*
X5000980Y7440060D02*
X5018360Y7457440D01*
X5018360D01*
X5000980Y7440060D02*
Y7440060D01*
X5047054Y7238058D02*
X5073763Y7264766D01*
Y7402942D02*
X5128260Y7457440D01*
X5073763Y7264766D02*
Y7402942D01*
X5007768Y7238058D02*
X5047054D01*
X4986555Y7259271D02*
X5007768Y7238058D01*
X4737528Y7398592D02*
X4775628Y7436692D01*
X4699428Y7360492D02*
X4737528Y7398592D01*
X4617040Y7457440D02*
X4678680D01*
X4737528Y7398592D01*
X4775531Y7300388D02*
X4901601Y7174318D01*
X4759532Y7300388D02*
X4775531D01*
X4742696Y7106920D02*
X4788450Y7061166D01*
X4595295Y7127668D02*
X4616043Y7106920D01*
X4581732Y7127668D02*
X4595295D01*
X4616043Y7106920D02*
X4742696D01*
X4965342Y6027779D02*
X5024120Y5969000D01*
X4965342Y6027779D02*
Y6156116D01*
X5018610Y6226322D02*
X5019275D01*
X5018012Y6226920D02*
X5018610Y6226322D01*
X4979390Y6226920D02*
X5018012D01*
X5019275Y6226322D02*
X5063746Y6181851D01*
Y6181187D02*
Y6181851D01*
X4958177Y6205707D02*
X4979390Y6226920D01*
X5063746Y6181187D02*
X5131480Y6113452D01*
X4965342Y6156116D02*
X4986555Y6177329D01*
X5007768Y6198542D01*
X5131480Y5969000D02*
Y6113452D01*
X5236907Y6047312D02*
X5278548D01*
X5135088Y6149131D02*
X5236907Y6047312D01*
D13*
X2327375Y7433992D02*
G03*
X2252980Y7254387I179605J-179605D01*
G01*
X2327375Y7433992D02*
X2374900Y7481517D01*
X2252980Y6743700D02*
Y7254387D01*
Y6202680D02*
Y6743700D01*
X2329180Y6038903D02*
X2374900Y5993183D01*
X2252980Y6743700D02*
X2788629D01*
X2374900Y5991860D02*
Y5993183D01*
D14*
X2252980Y6202680D02*
G03*
X2314875Y6053208I211431J0D01*
G01*
X4332986Y7436398D02*
G03*
X4340860Y7439660I0J11136D01*
G01*
X4291259Y6960941D02*
G03*
X4295595Y6962737I0J6132D01*
G01*
X2673277Y7300040D02*
G03*
X2529441Y7240461I0J-203415D01*
G01*
X2314875Y6053208D02*
G03*
X2314907Y6053176I149536J149472D01*
G01*
X2538140Y6223680D02*
G03*
X2668556Y6169660I130416J130416D01*
G01*
X3096516Y5976364D02*
G03*
X3157220Y5951220I60704J60704D01*
G01*
X3444462D02*
G03*
X3535065Y5988705I0J128238D01*
G01*
X3537852Y5991492D02*
G03*
X3572700Y6075680I-84269J84188D01*
G01*
X3537811Y5991451D02*
G03*
X3537852Y5991492I-84229J84229D01*
G01*
X3535065Y5988705D02*
G03*
X3535140Y5988780I-90603J90753D01*
G01*
X171292Y2686208D02*
G03*
X233680Y2660392I62388J62475D01*
G01*
X171248Y2686252D02*
G03*
X171292Y2686208I62432J62432D01*
G01*
X93980Y2836443D02*
G03*
X145544Y2711956I176051J0D01*
G01*
X211500Y4213860D02*
G03*
X132291Y4181050I0J-112019D01*
G01*
X132284Y4181044D02*
G03*
X93980Y4088561I92496J-92483D01*
G01*
X5587513Y6601557D02*
X5641375Y6547695D01*
X5641765D02*
X5681067Y6508393D01*
X5680432Y6507758D02*
X5709852Y6478339D01*
X5641375Y6547695D02*
X5641765D01*
X5449414Y6625046D02*
X5463758Y6639391D01*
X5449414Y6570335D02*
Y6625046D01*
Y6570335D02*
X5502853Y6516896D01*
X5463758Y6639391D02*
Y6644716D01*
X5502853Y6516896D02*
X5583389Y6436360D01*
X5359876Y6487676D02*
X5361714D01*
X5417786Y6431830D02*
X5483341Y6366276D01*
X5417786Y6431830D02*
X5417786D01*
X5417560D02*
X5417786D01*
X5359876Y6487676D02*
Y6490176D01*
X5361714Y6487676D02*
X5417560Y6431830D01*
X5359639Y5987208D02*
X5382309Y5964538D01*
X5416250D01*
X5420015Y5960773D01*
X2421642Y6276086D02*
X2422613Y6275115D01*
X2372360Y6277057D02*
X2373331Y6276086D01*
X2421642D01*
X5261610Y5970270D02*
X5262880Y5971540D01*
X5217750Y5970270D02*
X5261610D01*
X5216480Y5969000D02*
X5217750Y5970270D01*
X5338652Y5987208D02*
X5359639D01*
X4074160Y6405880D02*
Y6455220D01*
X4072700Y6456680D02*
X4074160Y6455220D01*
X4521129Y7188271D02*
X4598599Y7265741D01*
X4290060Y7436398D02*
X4332986D01*
X4147320Y7393940D02*
X4147536Y7393725D01*
X4444929Y7112071D02*
X4521129Y7188271D01*
X4443626Y7112071D02*
Y7114434D01*
Y7112071D02*
X4444929D01*
X4295595Y6962737D02*
X4444929Y7112071D01*
X4289956Y6960941D02*
X4291259D01*
X199218Y4523800D02*
X209318Y4533900D01*
X169188Y4520034D02*
X172953Y4523800D01*
X199218D01*
X4401960Y6268580D02*
X4505821D01*
X4401820Y6268720D02*
X4401960Y6268580D01*
X4252433Y6398733D02*
X4291006Y6437306D01*
X4213860Y6360160D02*
X4252433Y6398733D01*
X4291006Y6437306D02*
X4291286D01*
X4325680Y6471700D01*
X2673277Y7300040D02*
X3053160D01*
X2484120Y7195140D02*
X2529441Y7240461D01*
X2314907Y6053176D02*
X2329180Y6038903D01*
X2484120Y6277700D02*
X2538140Y6223680D01*
X2668556Y6169660D02*
X3058160D01*
X253040Y1877600D02*
X365500D01*
X203200Y1927440D02*
X253040Y1877600D01*
X203200Y1927440D02*
Y1955800D01*
X574040Y6162040D02*
X658200Y6246200D01*
X703920D01*
X321600Y6173943D02*
Y6222680D01*
X333504Y6162040D02*
X574040D01*
X321600Y6173943D02*
X333504Y6162040D01*
X703920Y6246200D02*
X812460D01*
X4658614Y6117176D02*
X4659216D01*
X4639793Y6098957D02*
X4640395D01*
X4658614Y6117176D01*
X4886960Y6098957D02*
Y6190886D01*
Y6097478D02*
Y6098957D01*
Y6190886D02*
X4929979Y6233905D01*
X4846320Y6056838D02*
X4886960Y6097478D01*
Y6096000D02*
Y6097478D01*
X3157220Y5951220D02*
X3444462D01*
X3058160Y6014720D02*
X3096516Y5976364D01*
X3572700Y6075680D02*
Y6202680D01*
X3535140Y5988780D02*
X3537811Y5991451D01*
X4239015Y6464300D02*
X4244340D01*
X4231395Y6456680D02*
X4239015Y6464300D01*
X4072700Y6456680D02*
X4231395D01*
X4340860Y6560820D02*
X4377830Y6523850D01*
X4267628Y6634052D02*
X4340860Y6560820D01*
X4264232Y6634052D02*
X4267628D01*
X4377830Y6523850D02*
X4404640Y6550660D01*
X4472940D01*
X4505497Y6518103D01*
X4592025D02*
X4618903Y6544981D01*
X4505497Y6518103D02*
X4592025D01*
X5504180Y6864861D02*
X5660322Y7021002D01*
X4569460Y6333573D02*
X4600095Y6364207D01*
X4721954Y6365560D02*
X4760026Y6403632D01*
X4600095Y6364207D02*
Y6369437D01*
X4569460Y6332220D02*
Y6333573D01*
X4600095Y6369437D02*
X4603972Y6365560D01*
X4721954D01*
X4760026Y6403632D02*
X4760252D01*
X4244340Y6464300D02*
X4277221Y6497180D01*
X4325680Y6471700D02*
X4354416Y6442963D01*
X4325680Y6471700D02*
Y6471700D01*
X4377830Y6523850D01*
X4377830D02*
X4377830D01*
X4354416Y6421976D02*
Y6442963D01*
Y6421976D02*
X4375403D01*
X4430616Y6345776D02*
Y6366924D01*
X4383901Y6413640D02*
X4430616Y6366924D01*
X4383740Y6413640D02*
X4383901D01*
X4375403Y6421976D02*
X4383740Y6413640D01*
X4505821Y6268580D02*
X4582021Y6192380D01*
X4480851Y7228322D02*
X4520902Y7188271D01*
X4521129D01*
X4480625Y7228322D02*
X4480851D01*
X4404942Y7153118D02*
Y7154178D01*
Y7153118D02*
X4443626Y7114434D01*
X825166Y6234174D02*
X868280D01*
X812800Y6246540D02*
X825166Y6234174D01*
X868280D02*
X1024569Y6077885D01*
X1024569D01*
X703580Y6245860D02*
X703920Y6246200D01*
X812460D02*
X812800Y6246540D01*
X703580Y6335860D02*
Y6443980D01*
X744220Y6438900D02*
X759460Y6423660D01*
X800897D02*
X812800Y6411757D01*
Y6331540D02*
Y6411757D01*
X759460Y6423660D02*
X800897D01*
X233680Y2660392D02*
X350520D01*
X145544Y2711956D02*
X171248Y2686252D01*
X93980Y2836443D02*
Y3990340D01*
Y4088561D01*
X1170940Y4274820D02*
X1218590D01*
X1030961Y4273855D02*
X1031121Y4274015D01*
X1170135D02*
X1170940Y4274820D01*
X1031121Y4274015D02*
X1170135D01*
X530167Y4233850D02*
X650951D01*
X529411Y4234605D02*
X530167Y4233850D01*
X493905Y4234605D02*
X529411D01*
X483745Y4224444D02*
X493905Y4234605D01*
X420500Y4224444D02*
X483745D01*
X370840Y4224020D02*
X371166Y4223694D01*
X419097D02*
X419423Y4223367D01*
X371166Y4223694D02*
X419097D01*
X419423Y4223367D02*
X420500Y4224444D01*
X2435180Y7482160D02*
X2484120D01*
X2374900Y7195783D02*
X2420583D01*
X2484120Y5992540D02*
X2531700D01*
X162560Y4320540D02*
X212143D01*
X1130635Y6183951D02*
X1133789D01*
X1236980Y6080760D01*
X5260340Y7299960D02*
X5322502Y7362121D01*
X5257800Y7299960D02*
X5260340D01*
X5322502Y7362121D02*
X5325042D01*
X5191663Y7230893D02*
Y7231119D01*
X5257800Y7297256D02*
Y7299960D01*
X5191663Y7231119D02*
X5257800Y7297256D01*
X5546050Y7076248D02*
Y7080800D01*
X5446164Y6976392D02*
X5446194D01*
X5546050Y7076248D01*
X5549900Y7079524D02*
X5575958Y7105581D01*
X5576502D01*
X5660322Y7021002D02*
Y7024301D01*
X5504180Y6819838D02*
X5597084Y6726935D01*
X5504180Y6819838D02*
Y6864861D01*
X5644539Y6726935D02*
X5677987Y6693487D01*
X5682480D01*
X5597084Y6726935D02*
X5644539D01*
X4707968Y7156372D02*
X4749999D01*
X4627880Y7167880D02*
X4627949D01*
X4662170Y7202101D02*
X4662239D01*
X4627949Y7167880D02*
X4662170Y7202101D01*
X4749999Y7156372D02*
X4816828Y7089544D01*
X4662239Y7202101D02*
X4707968Y7156372D01*
X4431099Y6973501D02*
X4507299Y7049701D01*
X4534887Y7056303D02*
X4736691D01*
X5248239Y6262056D02*
X5285870Y6224425D01*
X4147536Y7393725D02*
Y7479473D01*
Y7393725D02*
X4149000Y7392260D01*
X4074240Y7393940D02*
X4147320D01*
X3977640Y7183620D02*
X3979000Y7182260D01*
X3977640Y7183620D02*
Y7269480D01*
X3897440Y7182260D02*
X3979000D01*
X4244240Y7139940D02*
X4290060D01*
X4528286Y7049701D02*
X4534887Y7056303D01*
X4507299Y7049701D02*
X4528286D01*
X4760026Y7032968D02*
X4760252D01*
X4736691Y7056303D02*
X4760026Y7032968D01*
X4391797Y6934200D02*
X4417197Y6959600D01*
X4354899Y6897301D02*
Y6897370D01*
X4391660Y6934131D02*
Y6934200D01*
X4391797D01*
X4354899Y6897370D02*
X4391660Y6934131D01*
X4335057Y7068945D02*
X4366861Y7037141D01*
X4367459D01*
X4334458Y7068945D02*
X4335057D01*
X4260365Y6990532D02*
X4289956Y6960941D01*
X4259061Y6990532D02*
X4260365D01*
X5518221Y6155174D02*
X5531015Y6142381D01*
X5518221Y6155174D02*
Y6163239D01*
X5431861Y6076879D02*
Y6077913D01*
X5411852Y6097923D02*
X5431861Y6077913D01*
X5411852Y6097923D02*
Y6098957D01*
X5602041Y6247059D02*
X5614037D01*
X5634479Y6226617D01*
X5639805D01*
X5688401Y6330879D02*
X5699448D01*
X5712263Y6318064D01*
X5717589D01*
X5723961Y7087941D02*
X5877815D01*
X5891942Y7073814D02*
X5897268D01*
X5877815Y7087941D02*
X5891942Y7073814D01*
X5388681Y7425126D02*
Y7425761D01*
X5368272Y7404717D02*
X5388681Y7425126D01*
X5368272Y7404082D02*
Y7404717D01*
X5482272Y7341941D02*
X5495087Y7354756D01*
X5469961Y7341941D02*
X5482272D01*
X5495087Y7354756D02*
X5500412D01*
X5619097Y7145637D02*
Y7148177D01*
X5640141Y7169221D01*
X5555398Y7255581D02*
X5577012Y7277195D01*
X5578628D01*
X5553781Y7255581D02*
X5555398D01*
X4555831Y6897936D02*
X4590525Y6863241D01*
X4555831Y6897936D02*
Y6973501D01*
X4650172D01*
X4493844D02*
X4555831D01*
X4650172D02*
X4675479Y6948194D01*
X4431099Y6973501D02*
X4450633Y6974954D01*
X4493844Y6973501D01*
X4782681Y5991720D02*
X4815840Y5958561D01*
X5285870Y6224425D02*
Y6225588D01*
Y6224229D02*
Y6224425D01*
Y6224229D02*
X5368222Y6141877D01*
X5285870Y6224425D02*
X5287788Y6222507D01*
X5285870Y6225588D02*
X5287788Y6223671D01*
Y6222507D02*
Y6223671D01*
X5368222Y6140519D02*
Y6141877D01*
X5401355Y6272486D02*
Y6278714D01*
X5450772Y6226879D02*
X5454582D01*
X5405120Y6268720D02*
X5408930D01*
X5333013Y6347056D02*
X5401355Y6278714D01*
Y6272486D02*
X5405120Y6268720D01*
X5408930D02*
X5450772Y6226879D01*
X5483341Y6365760D02*
X5538402Y6310699D01*
X5583389Y6436360D02*
X5585460D01*
Y6435090D02*
X5624762Y6395789D01*
X5585460Y6435090D02*
Y6436360D01*
X5624762Y6394519D02*
Y6395789D01*
X5709852Y6478339D02*
X5711122D01*
X5742940Y6692900D02*
X5747506D01*
X5841572Y6786966D01*
Y6969332D01*
X5361390Y7061166D02*
X5441692Y7141468D01*
Y7143492D01*
X5490142Y7191941D01*
X5371775Y7230049D02*
Y7235374D01*
X5276437Y7146119D02*
X5364359Y7234041D01*
X5368351Y7230049D02*
X5371775D01*
X5364359Y7234041D02*
X5368351Y7230049D01*
X5371775Y7235374D02*
X5406322Y7269921D01*
Y7278301D01*
X5213260Y7457440D02*
Y7501980D01*
X4892040Y7457440D02*
X4933360D01*
X4835732Y7376588D02*
X4861560Y7350760D01*
X4532040Y7413580D02*
Y7457440D01*
X3053160Y7300040D02*
X3058160Y7305040D01*
X4852760Y6055360D02*
X4939120Y5969000D01*
X4846320Y6055360D02*
X4852760D01*
X5248239Y6262056D02*
Y6262282D01*
X5483341Y6365760D02*
Y6366276D01*
X8536064Y7054113D02*
X8608060D01*
X8680057D01*
X8536064Y6804127D02*
X8608060D01*
X8680057D01*
X8682215Y6656272D02*
X8760536D01*
X8793379Y6689115D02*
X8823059D01*
X8680057Y6654114D02*
X8682215Y6656272D01*
X8760536D02*
X8793379Y6689115D01*
X8422741D02*
X8455584Y6656272D01*
X8393062Y6689115D02*
X8422741D01*
X8533906Y6656272D02*
X8536064Y6654114D01*
X8455584Y6656272D02*
X8533906D01*
X8455584Y7201968D02*
X8533906D01*
X8393062Y7169125D02*
X8422741D01*
X8533906Y7201968D02*
X8536064Y7204126D01*
X8422741Y7169125D02*
X8455584Y7201968D01*
X8680057Y7204126D02*
X8682215Y7201968D01*
X8760536D01*
X8793379Y7169125D01*
X8823059D01*
X8608060Y6804127D02*
Y7054113D01*
X255732Y3956911D02*
Y4000500D01*
X255733Y4000500D02*
X299321D01*
X255732Y4000500D02*
X255733Y4000500D01*
X255732Y4000500D02*
Y4063591D01*
X255411Y3956589D02*
X255732Y3956911D01*
X212143Y4107180D02*
X255732Y4063591D01*
X297143Y4107180D02*
Y4267521D01*
X104140Y4000500D02*
X209322D01*
X93980Y3990340D02*
X104140Y4000500D01*
X255411Y3937731D02*
Y3956589D01*
X211500Y3893820D02*
X255411Y3937731D01*
X297770Y4425950D02*
X356870D01*
X296500Y4427220D02*
X297770Y4425950D01*
X356870D02*
X358140Y4424680D01*
X511658Y4191745D02*
X513598Y4193685D01*
X650791D01*
X563387Y4150825D02*
X566267Y4153705D01*
X650791D01*
Y4193685D02*
X650951Y4193845D01*
X403860Y4480560D02*
Y4533900D01*
X650791Y4153705D02*
X650951Y4153865D01*
X296500Y4427220D02*
X297909Y4428629D01*
Y4532491D02*
X299318Y4533900D01*
X297909Y4428629D02*
Y4532491D01*
X297143Y4267521D02*
Y4320540D01*
Y4267521D02*
X303476Y4273855D01*
X650951D01*
X211500Y4427220D02*
X259760Y4378960D01*
X439420D02*
X504520Y4313860D01*
X259760Y4378960D02*
X439420D01*
X504520Y4313860D02*
X650951D01*
D15*
X3998707Y6556342D02*
G03*
X3981190Y6513990I42441J-42352D01*
G01*
X3998796Y6556431D02*
G03*
X3998751Y6556387I42352J-42441D01*
G01*
X4041148Y6573948D02*
G03*
X3998796Y6556431I0J-59958D01*
G01*
X3998751Y6556387D02*
G03*
X3998707Y6556342I42397J-42397D01*
G01*
X4001904Y6350475D02*
G03*
X4001945Y6350435I50147J50066D01*
G01*
X3981190Y6400542D02*
G03*
X4001904Y6350475I70861J0D01*
G01*
X3875521Y6350519D02*
G03*
X3755225Y6400288I-120296J-120498D01*
G01*
X3641815Y6428484D02*
G03*
X3709886Y6400288I68071J68071D01*
G01*
X3647058Y6353593D02*
G03*
X3647020Y6353554I57599J-57676D01*
G01*
X3704657Y6377428D02*
G03*
X3647058Y6353593I0J-81512D01*
G01*
X3875683Y6350358D02*
G03*
X3875521Y6350519I-120458J-120336D01*
G01*
X3882681Y6343359D02*
G03*
X4038411Y6278880I155730J155819D01*
G01*
X3866659Y6327053D02*
G03*
X4038410Y6256020I171752J172126D01*
G01*
X3859331Y6334381D02*
G03*
X3755225Y6377428I-104106J-104359D01*
G01*
X3859457Y6334254D02*
G03*
X3859331Y6334381I-104232J-104232D01*
G01*
X4325400Y6197819D02*
G03*
X4129661Y6278880I-195740J-195799D01*
G01*
X4309266Y6181625D02*
G03*
X4129661Y6256020I-179605J-179605D01*
G01*
X4098157Y6101137D02*
G03*
X4098100Y6101080I61264J-61378D01*
G01*
X4159421Y6126480D02*
G03*
X4098157Y6101137I0J-86721D01*
G01*
X4099434Y6175946D02*
G03*
X4163757Y6149340I64323J64451D01*
G01*
X4099370Y6176010D02*
G03*
X4099434Y6175946I64387J64387D01*
G01*
X4361178Y6097384D02*
G03*
X4235615Y6149340I-125563J-125747D01*
G01*
X4361352Y6097210D02*
G03*
X4361178Y6097384I-125737J-125573D01*
G01*
X4345071Y6081162D02*
G03*
X4235615Y6126480I-109456J-109525D01*
G01*
X4345105Y6081128D02*
G03*
X4345071Y6081162I-109491J-109491D01*
G01*
X4464665Y6039249D02*
G03*
X4587240Y6007100I122575J217599D01*
G01*
X4410739Y6080152D02*
G03*
X4464665Y6039249I176501J176696D01*
G01*
X4410544Y6080347D02*
G03*
X4410736Y6080155I176696J176501D01*
G01*
X4612640Y6007100D02*
G03*
X4714689Y6049347I0J144375D01*
G01*
X4406671Y6051890D02*
G03*
X4570063Y5984240I163392J163490D01*
G01*
X4632123D02*
G03*
X4717116Y6019445I-1J120199D01*
G01*
X4558782Y5961631D02*
G03*
X4570063Y5961380I11281J253749D01*
G01*
X4390458Y6035775D02*
G03*
X4558782Y5961631I179605J179605D01*
G01*
X4639295Y5961380D02*
G03*
X4728210Y5998210I-1J125745D01*
G01*
X4426806Y6096414D02*
G03*
X4587240Y6029960I160434J160434D01*
G01*
X4714689Y6049347D02*
G03*
X4714768Y6049426I-102049J102128D01*
G01*
X4612640Y6029960D02*
G03*
X4698564Y6065551I0J121515D01*
G01*
X4745757Y6112743D02*
G03*
X4791710Y6223686I-110942J110942D01*
G01*
X4806916Y6335169D02*
G03*
X4791710Y6286417I70551J-48752D01*
G01*
X4816828Y6347056D02*
G03*
X4806916Y6335169I60639J-60639D01*
G01*
X4834331Y6306317D02*
G03*
X4814570Y6245333I84220J-60984D01*
G01*
X4845026Y6318858D02*
G03*
X4834331Y6306317I73526J-73526D01*
G01*
X4865473Y6282550D02*
G03*
X4837430Y6214850I67700J-67700D01*
G01*
X4869519Y6230200D02*
G03*
X4860290Y6207863I22417J-22337D01*
G01*
X4869559Y6230241D02*
G03*
X4869519Y6230200I22377J-22377D01*
G01*
X4828541Y6098541D02*
G03*
X4860290Y6175192I-76653J76651D01*
G01*
X4812438Y6114768D02*
G03*
X4837430Y6175192I-60551J60425D01*
G01*
X4812375Y6114705D02*
G03*
X4812438Y6114768I-60488J60488D01*
G01*
X4778494Y6113152D02*
G03*
X4814570Y6200337I-87310J87184D01*
G01*
X4778431Y6113089D02*
G03*
X4778494Y6113152I-87247J87247D01*
G01*
X4041148Y6573948D02*
X4204128D01*
X3981190Y6400542D02*
Y6513990D01*
X4001945Y6350435D02*
X4022700Y6329680D01*
X3709886Y6400288D02*
X3755225D01*
X3613620Y6456680D02*
X3641815Y6428484D01*
X3623145Y6329680D02*
X3647020Y6353554D01*
X3704657Y6377428D02*
X3755225D01*
X3880814Y6345226D02*
X3882681Y6343359D01*
X3875682Y6350357D02*
X3880814Y6345226D01*
X3859457Y6334254D02*
X3866659Y6327052D01*
X4038410Y6256020D02*
X4129661D01*
X4038411Y6278880D02*
X4129661D01*
X4366165Y6157055D02*
X4426806Y6096414D01*
X4325400Y6197819D02*
X4366165Y6157054D01*
X4309266Y6181625D02*
X4390736Y6100155D01*
X4159421Y6126480D02*
X4235615D01*
X4072700Y6075680D02*
X4098100Y6101080D01*
X4163757Y6149340D02*
X4235615D01*
X4072700Y6202680D02*
X4099370Y6176010D01*
X4378940Y6079622D02*
X4406671Y6051890D01*
X4361352Y6097210D02*
X4367472Y6091089D01*
X4345105Y6081128D02*
X4390458Y6035775D01*
X4390735Y6100155D02*
X4410544Y6080347D01*
X4587240Y6007100D02*
X4612640D01*
X4367472Y6091089D02*
X4374189Y6084373D01*
X4378940Y6079622D01*
X4606170Y5984240D02*
X4632123Y5984240D01*
X4570063Y5984240D02*
X4606170D01*
X4632123D02*
X4632123D01*
X4570063Y5961380D02*
X4639295D01*
X4587240Y6029960D02*
X4612640D01*
X4728210Y5998210D02*
X4828541Y6098541D01*
X4717116Y6019445D02*
X4812375Y6114705D01*
X4714768Y6049426D02*
X4778431Y6113089D01*
X4698564Y6065551D02*
X4745757Y6112743D01*
X4791710Y6223686D02*
Y6286417D01*
X4814570Y6200337D02*
Y6245333D01*
X4837430Y6175192D02*
Y6214850D01*
X4865473Y6282550D02*
X4873403Y6290481D01*
X4860290Y6175192D02*
Y6207863D01*
X4869559Y6230241D02*
X4901601Y6262283D01*
X3572700Y6329680D02*
X3623145D01*
X3572700Y6456680D02*
X3613620D01*
X4022700Y6329680D02*
X4072700D01*
D16*
X1801912Y655040D02*
D03*
X4287519D02*
D03*
X2630448D02*
D03*
X3458984D02*
D03*
D17*
X1801912Y1255040D02*
D03*
X4287519D02*
D03*
X2630448D02*
D03*
X3458984D02*
D03*
D18*
X4287519Y3346612D02*
D03*
X2630448D02*
D03*
X1801912D02*
D03*
X3458984D02*
D03*
D19*
X4287519Y3946612D02*
D03*
X2630448D02*
D03*
X1801912D02*
D03*
X3458984D02*
D03*
D20*
X1078600Y1319900D02*
D03*
Y2185300D02*
D03*
D21*
X365500Y1627600D02*
D03*
Y1877600D02*
D03*
D22*
X321600Y5928680D02*
D03*
X386600D02*
D03*
X451600D02*
D03*
X516600D02*
D03*
X516600Y6222680D02*
D03*
X451600D02*
D03*
X386600D02*
D03*
X321600D02*
D03*
D23*
X4659216Y6117176D02*
D03*
X4719320Y6177280D02*
D03*
X4645660Y6256020D02*
D03*
X4582021Y6192380D02*
D03*
X4430616Y6345776D02*
D03*
X4490720Y6405880D02*
D03*
X4505821Y6268580D02*
D03*
X4569460Y6332220D02*
D03*
X4277221Y6497180D02*
D03*
X4340860Y6560820D02*
D03*
X4414520Y6482080D02*
D03*
X4354416Y6421976D02*
D03*
X4204128Y6573948D02*
D03*
X4264232Y6634052D02*
D03*
X5490142Y7191941D02*
D03*
X5553781Y7255581D02*
D03*
X5406322Y7278301D02*
D03*
X5469961Y7341941D02*
D03*
X5576502Y7105581D02*
D03*
X5640141Y7169221D02*
D03*
X4846320Y6055360D02*
D03*
X4782681Y5991720D02*
D03*
X5325042Y7362121D02*
D03*
X5388681Y7425761D02*
D03*
X5781468Y6909228D02*
D03*
X5841572Y6969332D02*
D03*
X5660322Y7024301D02*
D03*
X5723961Y7087941D02*
D03*
D24*
X3572700Y6456680D02*
D03*
Y6329680D02*
D03*
Y6202680D02*
D03*
Y6075680D02*
D03*
X4072700Y6456680D02*
D03*
Y6329680D02*
D03*
Y6202680D02*
D03*
D25*
Y6075680D02*
D03*
D26*
X5014752Y6149131D02*
D03*
X4986554Y6177329D02*
D03*
X4958177Y6205707D02*
D03*
X4929979Y6233905D02*
D03*
X4901601Y6262283D02*
D03*
X4873403Y6290481D02*
D03*
X4845026Y6318858D02*
D03*
X4816828Y6347056D02*
D03*
X4788450Y6375434D02*
D03*
X4760252Y6403632D02*
D03*
X4732054Y6431830D02*
D03*
X4703676Y6460208D02*
D03*
X4675479Y6488405D02*
D03*
X4647101Y6516783D02*
D03*
X4618903Y6544981D02*
D03*
X4590525Y6573359D02*
D03*
X4562327Y6601557D02*
D03*
X4533950Y6629934D02*
D03*
X4505752Y6658132D02*
D03*
X5135088Y7287469D02*
D03*
X5163286Y7259271D02*
D03*
X5191663Y7230893D02*
D03*
X5219862Y7202695D02*
D03*
X5248239Y7174317D02*
D03*
X5276437Y7146119D02*
D03*
X5304815Y7117742D02*
D03*
X5333013Y7089544D02*
D03*
X5361390Y7061166D02*
D03*
X5389588Y7032968D02*
D03*
X5417786Y7004770D02*
D03*
X5446164Y6976392D02*
D03*
X5474362Y6948195D02*
D03*
X5502740Y6919817D02*
D03*
X5530938Y6891619D02*
D03*
X5559315Y6863241D02*
D03*
X5587513Y6835043D02*
D03*
X5615891Y6806666D02*
D03*
X5644089Y6778468D02*
D03*
D27*
X4505752D02*
D03*
X4533950Y6806666D02*
D03*
X4562327Y6835043D02*
D03*
X4590525Y6863241D02*
D03*
X4618903Y6891619D02*
D03*
X4647101Y6919817D02*
D03*
X4675479Y6948195D02*
D03*
X4703676Y6976392D02*
D03*
X4732054Y7004770D02*
D03*
X4760252Y7032968D02*
D03*
X4788450Y7061166D02*
D03*
X4816828Y7089544D02*
D03*
X4845026Y7117742D02*
D03*
X4873403Y7146119D02*
D03*
X4901601Y7174317D02*
D03*
X4929979Y7202695D02*
D03*
X4958177Y7230893D02*
D03*
X4986554Y7259271D02*
D03*
X5014752Y7287469D02*
D03*
X5644089Y6658132D02*
D03*
X5615891Y6629934D02*
D03*
X5587513Y6601557D02*
D03*
X5559315Y6573359D02*
D03*
X5530938Y6544981D02*
D03*
X5502740Y6516783D02*
D03*
X5474362Y6488405D02*
D03*
X5446164Y6460208D02*
D03*
X5417786Y6431830D02*
D03*
X5389588Y6403632D02*
D03*
X5361390Y6375434D02*
D03*
X5333013Y6347056D02*
D03*
X5304815Y6318858D02*
D03*
X5276437Y6290481D02*
D03*
X5248239Y6262283D02*
D03*
X5219862Y6233905D02*
D03*
X5191663Y6205707D02*
D03*
X5163286Y6177329D02*
D03*
X5135088Y6149131D02*
D03*
D28*
X5074920Y6718300D02*
D03*
D29*
X218440Y7355840D02*
D03*
X8768080Y650240D02*
D03*
D30*
X703580Y6245860D02*
D03*
Y6335860D02*
D03*
X2372360Y6277057D02*
D03*
Y6362057D02*
D03*
X4290060Y7139940D02*
D03*
Y7229940D02*
D03*
Y7436398D02*
D03*
Y7346398D02*
D03*
X403860Y3976280D02*
D03*
Y3891280D02*
D03*
X2374900Y5993183D02*
D03*
Y6078183D02*
D03*
Y7481517D02*
D03*
Y7396517D02*
D03*
X812800Y6331540D02*
D03*
Y6246540D02*
D03*
X2484120Y6077540D02*
D03*
Y5992540D02*
D03*
Y7397160D02*
D03*
Y7482160D02*
D03*
Y6277700D02*
D03*
Y6362700D02*
D03*
Y7195140D02*
D03*
Y7110140D02*
D03*
X2374900Y7110783D02*
D03*
Y7195783D02*
D03*
D31*
X2709200Y6604635D02*
D03*
X2774200D02*
D03*
X2839200D02*
D03*
X2904200D02*
D03*
Y6877685D02*
D03*
X2839200D02*
D03*
X2774200D02*
D03*
X2709200D02*
D03*
D32*
X297143Y4107180D02*
D03*
X212143D02*
D03*
X403860Y4533900D02*
D03*
X488860D02*
D03*
X209322Y4000500D02*
D03*
X299321D02*
D03*
X211500Y3893820D02*
D03*
X296500D02*
D03*
X297143Y4320540D02*
D03*
X212143D02*
D03*
X209318Y4533900D02*
D03*
X299318D02*
D03*
X211500Y4427220D02*
D03*
X296500D02*
D03*
X6342935Y6065273D02*
D03*
X6252935D02*
D03*
X6342935Y5958593D02*
D03*
X6252935D02*
D03*
X6334042Y6380480D02*
D03*
X6244042D02*
D03*
X5018360Y7457440D02*
D03*
X4933360D02*
D03*
X5024120Y5969000D02*
D03*
X4939120D02*
D03*
X4617040Y7457440D02*
D03*
X4532040D02*
D03*
X6244042Y6273800D02*
D03*
X6334042D02*
D03*
X6203402Y7223760D02*
D03*
X6293402D02*
D03*
X6203402Y7330440D02*
D03*
X6293402D02*
D03*
X5128260Y7457440D02*
D03*
X5213260D02*
D03*
X5131480Y5969000D02*
D03*
X5216480D02*
D03*
X598000Y3893820D02*
D03*
X508000D02*
D03*
X296500Y4213860D02*
D03*
X211500D02*
D03*
D33*
X768773Y2470392D02*
D03*
Y2660392D02*
D03*
X977900Y2470392D02*
D03*
Y2660392D02*
D03*
X350520Y2470392D02*
D03*
Y2660392D02*
D03*
X559647D02*
D03*
Y2470392D02*
D03*
D34*
X420612Y4752332D02*
D03*
X610612D02*
D03*
X420612Y4958072D02*
D03*
X610612D02*
D03*
X973308Y4958096D02*
D03*
X783308D02*
D03*
X973848Y4752348D02*
D03*
X783848D02*
D03*
D35*
X1030961Y4193845D02*
D03*
Y4113835D02*
D03*
Y4153865D02*
D03*
X650951Y4193845D02*
D03*
X1030961Y4233850D02*
D03*
Y4273855D02*
D03*
Y4313860D02*
D03*
X650951D02*
D03*
Y4273855D02*
D03*
Y4233850D02*
D03*
Y4153865D02*
D03*
Y4113835D02*
D03*
D36*
X916940Y4213860D02*
D03*
X796951D02*
D03*
D37*
X753440Y4068775D02*
D03*
X823443D02*
D03*
X893445D02*
D03*
X928446Y4358945D02*
D03*
X858444D02*
D03*
X788442D02*
D03*
D38*
X856945Y4213860D02*
D03*
D39*
X4759532Y7300388D02*
D03*
X4699428Y7360492D02*
D03*
X5368222Y6140519D02*
D03*
X5431861Y6076879D02*
D03*
X5454582Y6226879D02*
D03*
X5518221Y6163239D02*
D03*
X5278548Y6047312D02*
D03*
X5338652Y5987208D02*
D03*
X4507299Y7049701D02*
D03*
X4443659Y7113341D02*
D03*
X5624762Y6394519D02*
D03*
X5688401Y6330879D02*
D03*
X5711122Y6478339D02*
D03*
X5774761Y6414699D02*
D03*
X4431099Y6973501D02*
D03*
X4367459Y7037141D02*
D03*
X5538402Y6310699D02*
D03*
X5602041Y6247059D02*
D03*
X4354899Y6897301D02*
D03*
X4291259Y6960941D02*
D03*
X6179681Y7010540D02*
D03*
X6243320Y6946900D02*
D03*
X6103481Y6934340D02*
D03*
X6167120Y6870700D02*
D03*
X4581732Y7127668D02*
D03*
X4521628Y7187772D02*
D03*
X4775628Y7436692D02*
D03*
X4835732Y7376588D02*
D03*
X4662239Y7202101D02*
D03*
X4598599Y7265741D02*
D03*
D40*
X4149000Y7182260D02*
D03*
X3979000D02*
D03*
X4149000Y7392260D02*
D03*
X3979000D02*
D03*
D41*
X665480Y3515640D02*
D03*
Y2915640D02*
D03*
D42*
X3203160Y6659880D02*
D03*
X3058160D02*
D03*
X3203160Y6817360D02*
D03*
X3058160D02*
D03*
X3203160Y6014720D02*
D03*
X3058160D02*
D03*
X3203160Y6169660D02*
D03*
X3058160D02*
D03*
X3203160Y7305040D02*
D03*
X3058160D02*
D03*
D43*
X1563243Y6043803D02*
D03*
X1164718Y5645277D02*
D03*
D44*
X1130635Y6183951D02*
D03*
X1024569Y6077885D02*
D03*
D45*
X2766060Y6327140D02*
D03*
Y6027140D02*
D03*
D46*
X2763520Y7147560D02*
D03*
Y7447560D02*
D03*
D47*
X3203160Y7459980D02*
D03*
X3058160D02*
D03*
D48*
X8680057Y7204126D02*
D03*
Y6954114D02*
D03*
Y7154113D02*
D03*
Y7104126D02*
D03*
Y7054113D02*
D03*
Y7004126D02*
D03*
Y6654114D02*
D03*
Y6904126D02*
D03*
Y6854114D02*
D03*
Y6804127D02*
D03*
Y6754114D02*
D03*
Y6704127D02*
D03*
X8536064Y7204126D02*
D03*
Y6954139D02*
D03*
Y7154113D02*
D03*
Y7104126D02*
D03*
Y7054113D02*
D03*
Y7004126D02*
D03*
Y6654114D02*
D03*
Y6904126D02*
D03*
Y6854114D02*
D03*
Y6804127D02*
D03*
Y6754114D02*
D03*
Y6704127D02*
D03*
D49*
X8768080Y2339340D02*
D03*
X1932940Y6764020D02*
D03*
X8757920Y6192520D02*
D03*
D50*
X419100Y6034179D02*
D03*
D51*
X419101Y6079179D02*
D03*
D52*
X6563360Y6927596D02*
D03*
X7843520D02*
D03*
D53*
X7603490Y7067550D02*
D03*
X7403338D02*
D03*
X7203440D02*
D03*
X7003542D02*
D03*
X6803390D02*
D03*
X7553452Y6917690D02*
D03*
X7303516D02*
D03*
X7103364D02*
D03*
X6853428D02*
D03*
D54*
X547080Y7138480D02*
D03*
D55*
X767080Y6888480D02*
D03*
D56*
X1047080Y7363480D02*
D03*
D57*
X8823059Y7169125D02*
D03*
X8393062D02*
D03*
Y6689115D02*
D03*
X8823059D02*
D03*
D58*
X1396116Y847856D02*
D03*
X5196116D02*
D03*
X1396116Y6469476D02*
D03*
X5196116D02*
D03*
X1396116Y3662126D02*
D03*
X5196116D02*
D03*
D59*
X4736432Y6839552D02*
D03*
X4699168Y6802288D02*
D03*
X3007360Y6799716D02*
D03*
X2956063Y6799583D02*
D03*
X5681067Y6508393D02*
D03*
X5463758Y6644716D02*
D03*
X5359876Y6487676D02*
D03*
X5097780Y6428740D02*
D03*
X7993526Y5521325D02*
D03*
X7977697Y5606100D02*
D03*
X7762240Y4704080D02*
D03*
X8460740Y1654790D02*
D03*
Y1707490D02*
D03*
Y5545430D02*
D03*
Y5492730D02*
D03*
Y3562330D02*
D03*
Y3615030D02*
D03*
X4210267Y632460D02*
D03*
Y690880D02*
D03*
Y751840D02*
D03*
X3381732Y632460D02*
D03*
Y690880D02*
D03*
Y751840D02*
D03*
X2553196Y632460D02*
D03*
Y690880D02*
D03*
Y751840D02*
D03*
X1724660D02*
D03*
Y690880D02*
D03*
Y632460D02*
D03*
X2549168Y3454400D02*
D03*
X2546628Y3352800D02*
D03*
Y3251200D02*
D03*
X1720633Y3454400D02*
D03*
X1718093Y3352800D02*
D03*
Y3251200D02*
D03*
X3377704Y3454400D02*
D03*
X3375164Y3352800D02*
D03*
Y3251200D02*
D03*
X4203700D02*
D03*
Y3352800D02*
D03*
X4206240Y3454400D02*
D03*
X2481116Y831044D02*
D03*
X2608116D02*
D03*
X2735116D02*
D03*
Y3645314D02*
D03*
X2608116D02*
D03*
X2481116D02*
D03*
X2370311Y6438490D02*
D03*
X2438720Y6438900D02*
D03*
X2405380D02*
D03*
X2553548Y6540820D02*
D03*
X1846116Y6452664D02*
D03*
X1719116D02*
D03*
X1973116D02*
D03*
Y3645314D02*
D03*
X1846116D02*
D03*
X1719116D02*
D03*
Y831044D02*
D03*
X1846116D02*
D03*
X1973116D02*
D03*
X2357120Y830580D02*
D03*
X2100116Y831044D02*
D03*
X2862116Y833584D02*
D03*
X2991997Y831502D02*
D03*
X4132116Y828504D02*
D03*
X4513116Y823424D02*
D03*
X4898311Y830229D02*
D03*
X2100580Y3980180D02*
D03*
X2357120D02*
D03*
X2862116Y3647904D02*
D03*
X2989116Y3645364D02*
D03*
X4135120Y3649980D02*
D03*
X4513116Y3984796D02*
D03*
X4894116Y3642824D02*
D03*
X3233420Y6913880D02*
D03*
X3284220Y6802120D02*
D03*
Y6860540D02*
D03*
Y6913880D02*
D03*
X3947160Y6012180D02*
D03*
X5420015Y5960773D02*
D03*
X2153920Y6494780D02*
D03*
X2410460D02*
D03*
X2422613Y6275115D02*
D03*
X2989506Y6412433D02*
D03*
X3055935Y6426622D02*
D03*
X2958087Y6923730D02*
D03*
X5262880Y5971540D02*
D03*
X4451356Y6606169D02*
D03*
X4894116Y6462224D02*
D03*
X4132116Y6781336D02*
D03*
X4074160Y6405880D02*
D03*
X169188Y4520034D02*
D03*
X4401820Y6268720D02*
D03*
X4252433Y6398733D02*
D03*
X4213860Y6360160D02*
D03*
X2631440Y6827520D02*
D03*
X7681544Y4813300D02*
D03*
X7646477Y4758580D02*
D03*
X7639575Y2821866D02*
D03*
X7683324Y2879615D02*
D03*
X7680960Y975360D02*
D03*
X7639160Y913020D02*
D03*
X7716520Y4909820D02*
D03*
X7660640D02*
D03*
X7586980Y1688636D02*
D03*
X7507137Y3589020D02*
D03*
X7551793Y3588558D02*
D03*
X7548880Y5527040D02*
D03*
X7601419Y5526107D02*
D03*
X208280Y2009140D02*
D03*
Y1958340D02*
D03*
X259080D02*
D03*
Y2009140D02*
D03*
X309880D02*
D03*
Y1958340D02*
D03*
X711200Y1676400D02*
D03*
X660400D02*
D03*
Y1625600D02*
D03*
X711200D02*
D03*
Y1574800D02*
D03*
X660400D02*
D03*
X7612380Y5321300D02*
D03*
X8742680Y7352660D02*
D03*
Y7299960D02*
D03*
X8740140Y7411720D02*
D03*
Y7244080D02*
D03*
X5072380Y6662420D02*
D03*
X5207000Y6631940D02*
D03*
X5199380Y6735130D02*
D03*
X5341620Y6713220D02*
D03*
X5290820Y6593840D02*
D03*
X4968240Y6731000D02*
D03*
X8364220Y7035800D02*
D03*
X8401485Y6998535D02*
D03*
X8830745Y6797875D02*
D03*
X8793480Y6835140D02*
D03*
X8338820Y6804660D02*
D03*
X8376085Y6841925D02*
D03*
X6087374Y7238983D02*
D03*
X1144340Y4605761D02*
D03*
X1143000Y4660900D02*
D03*
X1141800Y4717521D02*
D03*
X1140460Y4772660D02*
D03*
X8354060Y7292340D02*
D03*
X8303260D02*
D03*
X8187796Y7291695D02*
D03*
X8212068Y6560337D02*
D03*
X7914640Y6563360D02*
D03*
X7960360D02*
D03*
X7610460Y1479976D02*
D03*
X7604760Y3393440D02*
D03*
X4639793Y6098957D02*
D03*
X4886960D02*
D03*
X4600095Y6365560D02*
D03*
X8750300Y6902770D02*
D03*
X8465820Y6955483D02*
D03*
X4461904Y6869824D02*
D03*
X8750300Y6955470D02*
D03*
X8465820Y6902783D02*
D03*
X4499169Y6907089D02*
D03*
X5902960Y6918960D02*
D03*
X5255260Y6885940D02*
D03*
X5791200Y6814820D02*
D03*
X5933440Y6832600D02*
D03*
X8886989Y6774180D02*
D03*
X8832883Y6889880D02*
D03*
X8318728Y6748780D02*
D03*
X8326120Y7084060D02*
D03*
X8379460Y6896100D02*
D03*
X8413002Y6947109D02*
D03*
X4480625Y7228322D02*
D03*
X4404942Y7154178D02*
D03*
X8427637Y3316036D02*
D03*
X6155273Y7171085D02*
D03*
X6121039Y7349429D02*
D03*
X7886700Y1760220D02*
D03*
X111760Y7241540D02*
D03*
X1218590Y4274820D02*
D03*
X1170940D02*
D03*
X370840Y4224020D02*
D03*
X419423Y4223367D02*
D03*
X8224840Y5592946D02*
D03*
X8221980Y5715000D02*
D03*
X8101980D02*
D03*
X7945120Y6240780D02*
D03*
X7950200Y6116320D02*
D03*
X7421880Y5989320D02*
D03*
X7513320Y5859780D02*
D03*
X3281680Y7462520D02*
D03*
X3280340Y7346421D02*
D03*
Y7290541D02*
D03*
Y7407381D02*
D03*
Y6067319D02*
D03*
Y6184159D02*
D03*
Y6128279D02*
D03*
X3281680Y6012180D02*
D03*
X2435180Y7482160D02*
D03*
X2420583Y7195783D02*
D03*
X2531700Y5992540D02*
D03*
X764540Y5156200D02*
D03*
X763200Y5272299D02*
D03*
Y5328179D02*
D03*
Y5211339D02*
D03*
X810260Y5156200D02*
D03*
X808920Y5272299D02*
D03*
Y5328179D02*
D03*
Y5211339D02*
D03*
X8304840Y5592945D02*
D03*
X8877300Y746760D02*
D03*
X8798380Y838380D02*
D03*
X8545380Y956760D02*
D03*
X8628380Y1046480D02*
D03*
X8128000Y1430020D02*
D03*
X8242557Y1440061D02*
D03*
X8341360Y1445260D02*
D03*
X8376920Y1595120D02*
D03*
X8255000Y1597660D02*
D03*
X8115300Y1607820D02*
D03*
X8120380Y3309620D02*
D03*
X8321040Y3302000D02*
D03*
X8252460Y3429000D02*
D03*
X8310880Y3502660D02*
D03*
X8199120Y3515360D02*
D03*
X8094980Y3533140D02*
D03*
X8105140Y5204460D02*
D03*
X8161020Y5367020D02*
D03*
X8384977Y5412929D02*
D03*
X8310880Y5466080D02*
D03*
X8318500Y5275580D02*
D03*
X5029200Y6507480D02*
D03*
X5082540Y7045960D02*
D03*
X4841240Y6685280D02*
D03*
X972820Y2590800D02*
D03*
X856721Y2589460D02*
D03*
X800841D02*
D03*
X917681D02*
D03*
X967740Y2367280D02*
D03*
X851641Y2365940D02*
D03*
X795761D02*
D03*
X912601D02*
D03*
X543560Y2369820D02*
D03*
X427461Y2368480D02*
D03*
X371581D02*
D03*
X488421D02*
D03*
X340360Y4775200D02*
D03*
X339020Y4891299D02*
D03*
Y4947179D02*
D03*
Y4830339D02*
D03*
X1140460Y4884420D02*
D03*
Y5001260D02*
D03*
Y4945380D02*
D03*
X1141800Y4829281D02*
D03*
X162560Y4320540D02*
D03*
X1236980Y6080760D02*
D03*
X5257800Y7299960D02*
D03*
X5546050Y7080800D02*
D03*
X5682480Y6693487D02*
D03*
X5742940Y6692900D02*
D03*
X3030306Y7358227D02*
D03*
X3083646Y7411567D02*
D03*
Y7358227D02*
D03*
X3030306Y7411567D02*
D03*
X3086014Y6063133D02*
D03*
X3032674Y6116473D02*
D03*
X3086014D02*
D03*
X8460740Y3222330D02*
D03*
Y3275030D02*
D03*
X4627880Y7167880D02*
D03*
X4147536Y7479473D02*
D03*
X4074240Y7393940D02*
D03*
X3977640Y7269480D02*
D03*
X3897440Y7182260D02*
D03*
X4332986Y7436398D02*
D03*
X4244240Y7139940D02*
D03*
X4587240Y7056120D02*
D03*
X4391660Y6934200D02*
D03*
X4334458Y7068945D02*
D03*
X4259061Y6990532D02*
D03*
X5531015Y6142381D02*
D03*
X5411852Y6098957D02*
D03*
X5639805Y6226617D02*
D03*
X5717589Y6318064D02*
D03*
X5806742Y6390757D02*
D03*
X5897268Y7073814D02*
D03*
X8917940Y5324790D02*
D03*
Y5272090D02*
D03*
X5368272Y7404082D02*
D03*
X5500412Y7354756D02*
D03*
X5619097Y7148177D02*
D03*
X5578628Y7277195D02*
D03*
X4815840Y5958561D02*
D03*
X5285870Y6225588D02*
D03*
X5405120Y6268720D02*
D03*
X5441692Y7143492D02*
D03*
X5371775Y7230049D02*
D03*
X5213260Y7501980D02*
D03*
X4892040Y7457440D02*
D03*
X4861560Y7350760D02*
D03*
X4532040Y7413580D02*
D03*
X5988482Y7155724D02*
D03*
X4805091Y6958924D02*
D03*
X4803140Y6906260D02*
D03*
X4838810Y7005354D02*
D03*
X4744604Y6895768D02*
D03*
X8465856Y6847997D02*
D03*
X8750300Y7008170D02*
D03*
X8547100Y5971540D02*
D03*
X8336280D02*
D03*
X8442960D02*
D03*
X8608060Y7054113D02*
D03*
Y6804127D02*
D03*
X8460740Y5152730D02*
D03*
Y5205430D02*
D03*
X8917940Y3394390D02*
D03*
Y3341690D02*
D03*
Y1486850D02*
D03*
Y1434150D02*
D03*
X8460740Y1367490D02*
D03*
Y1314790D02*
D03*
X7769860Y5580380D02*
D03*
X7772400Y5321300D02*
D03*
X7739380Y5257800D02*
D03*
X8303260Y5717540D02*
D03*
X8276040Y5838551D02*
D03*
X7975600Y5839460D02*
D03*
X7703820Y2989580D02*
D03*
X7764780Y2992120D02*
D03*
X7780020Y1076960D02*
D03*
X7724140D02*
D03*
X7508240Y6243320D02*
D03*
X8723620Y4584700D02*
D03*
X8798615Y4678680D02*
D03*
X8542840Y4794700D02*
D03*
X8700320D02*
D03*
X7713496Y4747434D02*
D03*
X8125460Y4048760D02*
D03*
X8227060D02*
D03*
X8547100D02*
D03*
X8440420D02*
D03*
X8336280D02*
D03*
X8887460Y3634740D02*
D03*
X8884920Y3528060D02*
D03*
X8882380Y3098800D02*
D03*
Y3208020D02*
D03*
X8703140Y2864300D02*
D03*
X8542840D02*
D03*
X8798380Y2740840D02*
D03*
X8723620Y2654300D02*
D03*
X7991811Y3588227D02*
D03*
X7712880Y2818300D02*
D03*
X8112760Y2242820D02*
D03*
X8122920Y2141220D02*
D03*
X8229600D02*
D03*
X8336280D02*
D03*
X8442960D02*
D03*
X8549640D02*
D03*
X8279353Y2039619D02*
D03*
X8233040Y1898357D02*
D03*
X7866380Y3070860D02*
D03*
X7434580Y2405380D02*
D03*
X7647940Y1793240D02*
D03*
X7835900Y1733144D02*
D03*
X7807960Y1440180D02*
D03*
X7739384Y1425660D02*
D03*
X8062680Y1999698D02*
D03*
X7876540Y1137920D02*
D03*
Y1363980D02*
D03*
X7876098Y1269595D02*
D03*
X7863657Y3269000D02*
D03*
X8303260Y1054100D02*
D03*
X8185000Y1056640D02*
D03*
X8745220Y1145540D02*
D03*
Y1252220D02*
D03*
X8744804Y1574080D02*
D03*
X8625840Y1681480D02*
D03*
X8489400Y1999702D02*
D03*
X8308340Y1910080D02*
D03*
X8135967Y1940560D02*
D03*
X7528129Y1688636D02*
D03*
X8181340Y2959100D02*
D03*
X8304680Y2963060D02*
D03*
X7866380Y3185160D02*
D03*
X7786540Y3276600D02*
D03*
X7858285Y3644485D02*
D03*
X8114582Y4157262D02*
D03*
X8425303Y1264097D02*
D03*
X8425180Y1414780D02*
D03*
X8425303Y3171637D02*
D03*
X8745220Y3050540D02*
D03*
Y3159760D02*
D03*
X8746282Y3483098D02*
D03*
X8626712Y3588680D02*
D03*
X8336280Y3827780D02*
D03*
X8276040Y3907242D02*
D03*
X8489027D02*
D03*
X8062680Y3907238D02*
D03*
X7439660Y2153920D02*
D03*
Y2024380D02*
D03*
X8064365Y1868965D02*
D03*
X7937500Y2275840D02*
D03*
Y2405380D02*
D03*
X8101980Y3813400D02*
D03*
X8233392Y3808320D02*
D03*
X8187700Y3782060D02*
D03*
X7874000Y5006340D02*
D03*
X7875425Y5110480D02*
D03*
X8183880Y4899660D02*
D03*
X8305800Y4897120D02*
D03*
X8742444Y5184860D02*
D03*
X8742680Y5080000D02*
D03*
Y5412020D02*
D03*
X8613140Y5524500D02*
D03*
X8489400Y5837642D02*
D03*
X8950960Y1374140D02*
D03*
Y1546860D02*
D03*
Y3454400D02*
D03*
Y3281680D02*
D03*
Y5212080D02*
D03*
Y5384800D02*
D03*
X8425180Y5252720D02*
D03*
X8425303Y5102037D02*
D03*
X8305800Y4699000D02*
D03*
X8188960D02*
D03*
X7586980Y5580380D02*
D03*
X7599680Y5471160D02*
D03*
X7594600Y1633220D02*
D03*
X7762240Y871220D02*
D03*
X8188960Y863600D02*
D03*
X8306367Y865574D02*
D03*
X8435340Y701040D02*
D03*
X8486140Y1038860D02*
D03*
X8887460Y1193800D02*
D03*
X8872220Y1300480D02*
D03*
X8879840Y1620520D02*
D03*
X8884920Y1727200D02*
D03*
X8446222Y2609302D02*
D03*
X8486140Y2880360D02*
D03*
X8306367Y2770574D02*
D03*
X8188960Y2786380D02*
D03*
X7762240Y2778760D02*
D03*
X7709620Y3398520D02*
D03*
X7586980Y3545840D02*
D03*
X7585470Y3646114D02*
D03*
X7434580Y4310380D02*
D03*
X8187860Y1871227D02*
D03*
X8063890Y3776980D02*
D03*
X7934960Y4163060D02*
D03*
X7929880Y4302760D02*
D03*
X7447280Y3931920D02*
D03*
X7442200Y4058920D02*
D03*
X8887460Y5565140D02*
D03*
X8879840Y5458460D02*
D03*
X8887460Y5024120D02*
D03*
X8890000Y5133340D02*
D03*
X8422640Y4533900D02*
D03*
X8440420Y4836160D02*
D03*
X8008620Y5199380D02*
D03*
X358140Y4424680D02*
D03*
X511658Y4191745D02*
D03*
X563387Y4150825D02*
D03*
X403860Y4480560D02*
D03*
%TF.MD5,fa39f799b21cab0152f1e865ce483816*%
M02*
