%TF.GenerationSoftware,Altium Limited,Altium Designer,24.0.1 (36)*%
G04 Layer_Physical_Order=1*
G04 Layer_Color=152*
%FSLAX45Y45*%
%MOMM*%
%TF.SameCoordinates,67999EC4-2163-46B7-AA5F-10FA3A16FE06*%
%TF.FilePolarity,Positive*%
%TF.FileFunction,Copper,L1,Top,Signal*%
%TF.Part,Single*%
G01*
G75*
%TA.AperFunction,Conductor*%
%ADD10C,0.20320*%
%ADD11C,0.15240*%
%ADD12C,0.25400*%
%ADD13C,0.12700*%
%ADD14C,0.12954*%
%ADD15C,1.27000*%
%TA.AperFunction,SMDPad,CuDef*%
%ADD16O,1.00000X2.70000*%
%ADD17R,1.00000X2.70000*%
%ADD18R,0.50000X0.50000*%
%ADD19P,0.70711X4X270.0*%
%ADD20P,0.70711X4X180.0*%
%ADD21O,0.50000X1.50000*%
%ADD22R,0.50000X1.50000*%
G04:AMPARAMS|DCode=23|XSize=1.95mm|YSize=1.5mm|CornerRadius=0mm|HoleSize=0mm|Usage=FLASHONLY|Rotation=135.000|XOffset=0mm|YOffset=0mm|HoleType=Round|Shape=Rectangle|*
%AMROTATEDRECTD23*
4,1,4,1.21976,-0.15910,0.15910,-1.21976,-1.21976,0.15910,-0.15910,1.21976,1.21976,-0.15910,0.0*
%
%ADD23ROTATEDRECTD23*%

G04:AMPARAMS|DCode=24|XSize=0.5mm|YSize=1.5mm|CornerRadius=0mm|HoleSize=0mm|Usage=FLASHONLY|Rotation=135.000|XOffset=0mm|YOffset=0mm|HoleType=Round|Shape=Rectangle|*
%AMROTATEDRECTD24*
4,1,4,0.70711,0.35356,-0.35356,-0.70711,-0.70711,-0.35356,0.35356,0.70711,0.70711,0.35356,0.0*
%
%ADD24ROTATEDRECTD24*%

G04:AMPARAMS|DCode=25|XSize=0.5mm|YSize=1.5mm|CornerRadius=0mm|HoleSize=0mm|Usage=FLASHONLY|Rotation=135.000|XOffset=0mm|YOffset=0mm|HoleType=Round|Shape=Round|*
%AMOVALD25*
21,1,1.00000,0.50000,0.00000,0.00000,225.0*
1,1,0.50000,0.35355,0.35355*
1,1,0.50000,-0.35355,-0.35355*
%
%ADD25OVALD25*%

%ADD26R,1.27000X0.88900*%
%TA.AperFunction,ConnectorPad*%
%ADD27R,2.70000X1.00000*%
%ADD28O,2.70000X1.00000*%
%TA.AperFunction,SMDPad,CuDef*%
%ADD29R,0.45000X1.00000*%
%ADD30R,0.50000X0.50000*%
%ADD31R,0.85000X0.75000*%
%ADD32R,0.88900X1.27000*%
%ADD33R,1.72400X1.92001*%
%TA.AperFunction,ConnectorPad*%
%ADD34R,1.00000X2.70000*%
%ADD35O,1.00000X2.70000*%
%TA.AperFunction,SMDPad,CuDef*%
%ADD36R,2.70000X1.00000*%
%ADD37O,2.70000X1.00000*%
%ADD38R,1.92001X1.72400*%
%TA.AperFunction,ConnectorPad*%
%ADD39R,0.85000X0.75000*%
G04:AMPARAMS|DCode=40|XSize=2mm|YSize=3.5mm|CornerRadius=0mm|HoleSize=0mm|Usage=FLASHONLY|Rotation=45.000|XOffset=0mm|YOffset=0mm|HoleType=Round|Shape=Rectangle|*
%AMROTATEDRECTD40*
4,1,4,0.53033,-1.94455,-1.94455,0.53033,-0.53033,1.94455,1.94455,-0.53033,0.53033,-1.94455,0.0*
%
%ADD40ROTATEDRECTD40*%

G04:AMPARAMS|DCode=41|XSize=1.2mm|YSize=3.5mm|CornerRadius=0mm|HoleSize=0mm|Usage=FLASHONLY|Rotation=225.000|XOffset=0mm|YOffset=0mm|HoleType=Round|Shape=Rectangle|*
%AMROTATEDRECTD41*
4,1,4,-0.81317,1.66170,1.66170,-0.81317,0.81317,-1.66170,-1.66170,0.81317,-0.81317,1.66170,0.0*
%
%ADD41ROTATEDRECTD41*%

%TA.AperFunction,SMDPad,CuDef*%
G04:AMPARAMS|DCode=42|XSize=0.2mm|YSize=0.8mm|CornerRadius=0mm|HoleSize=0mm|Usage=FLASHONLY|Rotation=135.000|XOffset=0mm|YOffset=0mm|HoleType=Round|Shape=Round|*
%AMOVALD42*
21,1,0.60000,0.20000,0.00000,0.00000,225.0*
1,1,0.20000,0.21213,0.21213*
1,1,0.20000,-0.21213,-0.21213*
%
%ADD42OVALD42*%

G04:AMPARAMS|DCode=43|XSize=0.2mm|YSize=0.8mm|CornerRadius=0mm|HoleSize=0mm|Usage=FLASHONLY|Rotation=45.000|XOffset=0mm|YOffset=0mm|HoleType=Round|Shape=Round|*
%AMOVALD43*
21,1,0.60000,0.20000,0.00000,0.00000,135.0*
1,1,0.20000,0.21213,-0.21213*
1,1,0.20000,-0.21213,0.21213*
%
%ADD43OVALD43*%

%ADD44P,7.77817X4X180.0*%
%ADD45C,1.00000*%
%ADD46R,1.20000X1.30000*%
G04:AMPARAMS|DCode=47|XSize=0.8mm|YSize=2.5mm|CornerRadius=0mm|HoleSize=0mm|Usage=FLASHONLY|Rotation=225.000|XOffset=0mm|YOffset=0mm|HoleType=Round|Shape=Rectangle|*
%AMROTATEDRECTD47*
4,1,4,-0.60104,1.16673,1.16673,-0.60104,0.60104,-1.16673,-1.16673,0.60104,-0.60104,1.16673,0.0*
%
%ADD47ROTATEDRECTD47*%

%ADD48R,1.00000X0.30000*%
%TA.AperFunction,Conductor*%
%ADD49C,0.63500*%
%ADD50C,0.38100*%
%ADD51C,0.50800*%
%TA.AperFunction,ComponentPad*%
%ADD52C,2.99974*%
%ADD53C,1.19888*%
%ADD54R,1.80000X4.50000*%
%ADD55R,1.80000X4.00000*%
%ADD56R,5.00000X2.60000*%
%ADD57C,1.30000*%
%ADD58C,1.00000*%
%TA.AperFunction,ViaPad*%
%ADD59C,0.40000*%
G36*
X2933700Y7505700D02*
Y7195820D01*
X2900680Y7162800D01*
X2707640D01*
X2664460Y7119620D01*
Y7061200D01*
X2644140Y7040880D01*
X2225040D01*
X2192020Y7073900D01*
Y7363460D01*
X2227580Y7399020D01*
X2547620D01*
X2578100Y7429500D01*
Y7498080D01*
X2613660Y7533640D01*
X2905760D01*
X2933700Y7505700D01*
D02*
G37*
G36*
X3660140Y7198360D02*
X3677920Y7180580D01*
Y7045960D01*
X3652520Y7020560D01*
X3515360D01*
X3474720Y6979920D01*
X3421380D01*
X3383280Y7018020D01*
Y7172960D01*
X3408680Y7198360D01*
X3660140Y7198360D01*
D02*
G37*
G36*
X3279651Y7106409D02*
Y6891128D01*
X3269383Y6880860D01*
X3194704D01*
X3182854Y6892710D01*
Y6987306D01*
X3169920Y7000240D01*
X3057883Y7000239D01*
X3043638Y6985994D01*
Y6878220D01*
X3025958Y6860540D01*
X2702560Y6860540D01*
X2682240Y6880860D01*
Y7112000D01*
X2717800Y7147560D01*
X3238500D01*
X3279651Y7106409D01*
D02*
G37*
G36*
X3309620Y7010400D02*
X3375660Y7010400D01*
X3418840Y6967220D01*
X3482340Y6967220D01*
X3522980Y7007860D01*
X3657600Y7007860D01*
X3674636Y6990824D01*
Y6874432D01*
X3663284Y6863080D01*
X3309620D01*
X3294380Y6878320D01*
Y6995160D01*
X3309620Y7010400D01*
X3307080D01*
X3309620D01*
D01*
D02*
G37*
G36*
X3167319Y6976049D02*
X3167319Y6870099D01*
X3155220Y6858000D01*
X3067105Y6858000D01*
X3055620Y6869485D01*
Y6976632D01*
X3069067Y6990080D01*
X3153288D01*
X3167319Y6976049D01*
D02*
G37*
G36*
X1463040Y7459980D02*
Y6519071D01*
X1458213Y6516154D01*
X1450340Y6514473D01*
X1439195Y6525618D01*
X1423197Y6534855D01*
X1405353Y6539636D01*
X1386879D01*
X1369035Y6534855D01*
X1353037Y6525618D01*
X1339974Y6512555D01*
X1330737Y6496557D01*
X1325956Y6478713D01*
Y6460239D01*
X1330737Y6442395D01*
X1339974Y6426397D01*
X1353037Y6413334D01*
X1369035Y6404097D01*
X1386879Y6399316D01*
X1387716D01*
X1392976Y6386616D01*
X1384300Y6377940D01*
X1000760D01*
X942340Y6319520D01*
Y6202680D01*
X840740Y6101080D01*
X335280Y6101080D01*
X276860Y6159500D01*
Y6583680D01*
X337820Y6644640D01*
X883920D01*
X932180Y6692900D01*
X932180Y7071360D01*
X868679Y7134860D01*
X728980Y7134860D01*
X680720Y7183120D01*
Y7477760D01*
X734060Y7531100D01*
X1391920D01*
X1463040Y7459980D01*
D02*
G37*
G36*
X2933700Y6570980D02*
Y6261100D01*
X2900680Y6228080D01*
X2707640D01*
X2664460Y6184900D01*
Y6126480D01*
X2644140Y6106160D01*
X2225040D01*
X2192020Y6139180D01*
Y6428740D01*
X2227580Y6464300D01*
X2547620D01*
X2578100Y6494780D01*
Y6563360D01*
X2613660Y6598920D01*
X2905760D01*
X2933700Y6570980D01*
D02*
G37*
G36*
X3660140Y6263640D02*
X3677920Y6245860D01*
Y6111240D01*
X3652520Y6085840D01*
X3515360D01*
X3474720Y6045200D01*
X3421380D01*
X3383280Y6083300D01*
Y6238240D01*
X3408680Y6263640D01*
X3660140Y6263640D01*
D02*
G37*
G36*
X3279651Y6171689D02*
Y5956408D01*
X3269383Y5946140D01*
X3194704D01*
X3182854Y5957990D01*
Y6052586D01*
X3169920Y6065520D01*
X3057883Y6065519D01*
X3043638Y6051274D01*
Y5943500D01*
X3025958Y5925820D01*
X2702560Y5925820D01*
X2682240Y5946140D01*
Y6177280D01*
X2717800Y6212840D01*
X3238500D01*
X3279651Y6171689D01*
D02*
G37*
G36*
X2024380Y7475220D02*
Y6004560D01*
X1953260Y5933440D01*
X1305560D01*
X993140Y6245860D01*
Y6324600D01*
X1021080Y6352540D01*
X1391920D01*
X1490980Y6451600D01*
Y7457440D01*
X1564640Y7531100D01*
X1968500D01*
X2024380Y7475220D01*
D02*
G37*
G36*
X3309620Y6075680D02*
X3375660Y6075680D01*
X3418840Y6032500D01*
X3482340Y6032500D01*
X3522980Y6073140D01*
X3657600Y6073140D01*
X3674636Y6056104D01*
Y5939712D01*
X3663284Y5928360D01*
X3309620D01*
X3294380Y5943600D01*
Y6060440D01*
X3309620Y6075680D01*
X3307080D01*
X3309620D01*
D01*
D02*
G37*
G36*
X3167319Y6041329D02*
X3167319Y5935379D01*
X3155220Y5923280D01*
X3067105Y5923280D01*
X3055620Y5934765D01*
Y6041912D01*
X3069067Y6055360D01*
X3153288D01*
X3167319Y6041329D01*
D02*
G37*
G36*
X662940Y5887720D02*
Y5704840D01*
X635000Y5676900D01*
X160020D01*
X134620Y5702300D01*
Y5887720D01*
X160020Y5913120D01*
X563880Y5913120D01*
X637540D01*
X662940Y5887720D01*
D02*
G37*
G36*
X894080Y5610860D02*
Y5389880D01*
X871220Y5367020D01*
X708660D01*
X688340Y5387340D01*
Y5618480D01*
X708660Y5638800D01*
X866140Y5638800D01*
X894080Y5610860D01*
D02*
G37*
G36*
X477520Y5057140D02*
X477520Y4678200D01*
X439293Y4639973D01*
X373987D01*
X363220Y4650740D01*
Y4754880D01*
X358140Y4759960D01*
X299720D01*
X281940Y4777740D01*
Y4854641D01*
X350520Y4923221D01*
Y5054600D01*
X365760Y5069840D01*
X464820D01*
X477520Y5057140D01*
D02*
G37*
G36*
X297180Y5059680D02*
Y4909819D01*
X256540Y4869180D01*
X231140Y4843780D01*
Y4772660D01*
X251460Y4752340D01*
Y4650740D01*
X233680Y4632960D01*
X38100D01*
X12700Y4658360D01*
X12700Y5049520D01*
X33020Y5069840D01*
X287020D01*
X297180Y5059680D01*
D02*
G37*
G36*
X350520Y4737100D02*
Y4640580D01*
X363220Y4627880D01*
X444500D01*
X447040Y4630420D01*
X477520Y4660900D01*
X670560D01*
X688340Y4643120D01*
Y4411980D01*
X673100Y4396740D01*
X472440D01*
X452120Y4417060D01*
Y4470400D01*
X434340Y4488180D01*
X297180D01*
X271780Y4513580D01*
Y4737100D01*
X281940Y4747260D01*
X340360D01*
X350520Y4737100D01*
D02*
G37*
G36*
X1117326Y5039359D02*
Y4691379D01*
X1132566Y4676139D01*
X1259566D01*
X1279886Y4655819D01*
Y4470399D01*
X1257026Y4447539D01*
X1198878D01*
X1089660Y4338320D01*
X812800D01*
X766806Y4384314D01*
Y5041899D01*
X794746Y5069839D01*
X1086846D01*
X1117326Y5039359D01*
D02*
G37*
G36*
X1280160Y4404360D02*
Y4229100D01*
X1259840Y4208780D01*
X1082040D01*
X1066800Y4224020D01*
Y4297680D01*
X1074420Y4305300D01*
X1137920D01*
X1153160Y4320540D01*
Y4378960D01*
X1191260Y4417060D01*
X1267460D01*
X1280160Y4404360D01*
D02*
G37*
G36*
X4363720Y4063172D02*
Y3826952D01*
X4363719D01*
X4345940Y3809172D01*
X4224036D01*
Y3816623D01*
X4219444Y3827708D01*
X4210960Y3836192D01*
X4199875Y3840784D01*
X4187877D01*
X4176792Y3836192D01*
X4168308Y3827708D01*
X4163716Y3816623D01*
Y3809172D01*
X3081036D01*
Y3818125D01*
X3076444Y3829210D01*
X3067960Y3837694D01*
X3056875Y3842286D01*
X3044877D01*
X3033792Y3837694D01*
X3025308Y3829210D01*
X3020716Y3818125D01*
Y3809172D01*
X2958780D01*
Y3818539D01*
X2954188Y3829624D01*
X2945704Y3838108D01*
X2934619Y3842700D01*
X2922621D01*
X2911536Y3838108D01*
X2903052Y3829624D01*
X2898460Y3818539D01*
Y3809172D01*
X2322516D01*
Y3818125D01*
X2317924Y3829210D01*
X2309440Y3837694D01*
X2298355Y3842286D01*
X2286357D01*
X2275272Y3837694D01*
X2266787Y3829210D01*
X2262196Y3818125D01*
Y3809172D01*
X2192036D01*
Y3818125D01*
X2187444Y3829210D01*
X2178960Y3837694D01*
X2167875Y3842286D01*
X2155877D01*
X2144792Y3837694D01*
X2136308Y3829210D01*
X2131716Y3818125D01*
Y3809172D01*
X1739900D01*
X1714500Y3834572D01*
Y4050472D01*
X1739900Y4075872D01*
X4351020D01*
X4363720Y4063172D01*
D02*
G37*
G36*
X894080Y3858260D02*
Y3637280D01*
X871220Y3614420D01*
X708660D01*
X688340Y3634740D01*
Y3865880D01*
X708660Y3886200D01*
X866140Y3886200D01*
X894080Y3858260D01*
D02*
G37*
G36*
X4338320Y3479800D02*
Y3213100D01*
X4320540Y3195320D01*
X1727200D01*
X1684020Y3238500D01*
Y3467100D01*
X1722120Y3505200D01*
X4312920D01*
X4338320Y3479800D01*
D02*
G37*
G36*
X477520Y3304540D02*
X477520Y2925600D01*
X439293Y2887373D01*
X373987D01*
X363220Y2898140D01*
Y3002280D01*
X358140Y3007360D01*
X299720D01*
X281940Y3025140D01*
Y3102041D01*
X350520Y3170621D01*
Y3302000D01*
X365760Y3317240D01*
X464820D01*
X477520Y3304540D01*
D02*
G37*
G36*
X297180Y3307080D02*
Y3157219D01*
X256540Y3116580D01*
X231140Y3091180D01*
Y3020060D01*
X251460Y2999740D01*
Y2898140D01*
X233680Y2880360D01*
X38100D01*
X12700Y2905760D01*
X12700Y3296920D01*
X33020Y3317240D01*
X287020D01*
X297180Y3307080D01*
D02*
G37*
G36*
X350520Y2984500D02*
Y2887980D01*
X363220Y2875280D01*
X444500D01*
X447040Y2877820D01*
X477520Y2908300D01*
X670560D01*
X688340Y2890520D01*
Y2659380D01*
X673100Y2644140D01*
X472440D01*
X452120Y2664460D01*
Y2717800D01*
X434340Y2735580D01*
X297180D01*
X271780Y2760980D01*
Y2984500D01*
X281940Y2994660D01*
X340360D01*
X350520Y2984500D01*
D02*
G37*
G36*
X1117326Y3286759D02*
Y2938779D01*
X1132566Y2923539D01*
X1259566D01*
X1279886Y2903219D01*
Y2717799D01*
X1257026Y2694939D01*
X1198878D01*
X1089660Y2585720D01*
X812800D01*
X766806Y2631714D01*
Y3289299D01*
X794746Y3317239D01*
X1086846D01*
X1117326Y3286759D01*
D02*
G37*
G36*
X1280160Y2649938D02*
Y2474678D01*
X1259840Y2454358D01*
X1082040D01*
X1066800Y2469598D01*
Y2543258D01*
X1074420Y2550878D01*
X1137920D01*
X1153160Y2566118D01*
Y2624538D01*
X1191260Y2662638D01*
X1267460D01*
X1280160Y2649938D01*
D02*
G37*
G36*
X894080Y2067560D02*
Y1846580D01*
X871220Y1823720D01*
X708660D01*
X688340Y1844040D01*
Y2075180D01*
X708660Y2095500D01*
X866140Y2095500D01*
X894080Y2067560D01*
D02*
G37*
G36*
X4363720Y1371600D02*
Y1135380D01*
X4363719D01*
X4345940Y1117600D01*
X1739900D01*
X1714500Y1143000D01*
Y1358900D01*
X1739900Y1384300D01*
X4351020D01*
X4363720Y1371600D01*
D02*
G37*
G36*
X477520Y1513840D02*
X477520Y1134900D01*
X439293Y1096673D01*
X373987D01*
X363220Y1107440D01*
Y1211580D01*
X358140Y1216660D01*
X299720D01*
X281940Y1234440D01*
Y1311341D01*
X350520Y1379921D01*
Y1511300D01*
X365760Y1526540D01*
X464820D01*
X477520Y1513840D01*
D02*
G37*
G36*
X297180Y1516380D02*
Y1366519D01*
X256540Y1325880D01*
X231140Y1300480D01*
Y1229360D01*
X251460Y1209040D01*
Y1107440D01*
X233680Y1089660D01*
X38100D01*
X12700Y1115060D01*
X12700Y1506220D01*
X33020Y1526540D01*
X287020D01*
X297180Y1516380D01*
D02*
G37*
G36*
X350520Y1193800D02*
Y1097280D01*
X363220Y1084580D01*
X444500D01*
X447040Y1087120D01*
X477520Y1117600D01*
X670560D01*
X688340Y1099820D01*
Y868680D01*
X673100Y853440D01*
X472440D01*
X452120Y873760D01*
Y927100D01*
X434340Y944880D01*
X297180D01*
X271780Y970280D01*
Y1193800D01*
X281940Y1203960D01*
X340360D01*
X350520Y1193800D01*
D02*
G37*
G36*
X1117326Y1496059D02*
Y1148079D01*
X1132566Y1132839D01*
X1259566D01*
X1279886Y1112519D01*
Y927099D01*
X1257026Y904239D01*
X1198878D01*
X1089660Y795020D01*
X812800D01*
X766806Y841014D01*
Y1498599D01*
X794746Y1526539D01*
X1086846D01*
X1117326Y1496059D01*
D02*
G37*
G36*
X1280160Y861060D02*
Y685800D01*
X1259840Y665480D01*
X1082040D01*
X1066800Y680720D01*
Y754380D01*
X1074420Y762000D01*
X1137920D01*
X1153160Y777240D01*
Y835660D01*
X1191260Y873760D01*
X1267460D01*
X1280160Y861060D01*
D02*
G37*
G36*
X4338320Y788228D02*
Y523984D01*
X1706964D01*
X1684020Y546928D01*
Y775528D01*
X1722120Y813628D01*
X4312920D01*
X4338320Y788228D01*
D02*
G37*
%LPC*%
G36*
X1916079Y6774460D02*
X1904081D01*
X1892996Y6769868D01*
X1884512Y6761384D01*
X1879920Y6750299D01*
Y6738301D01*
X1884512Y6727216D01*
X1885801Y6725927D01*
X1892152Y6717630D01*
X1885801Y6709333D01*
X1884512Y6708044D01*
X1879920Y6696959D01*
Y6684961D01*
X1884512Y6673876D01*
X1892827Y6665560D01*
X1884512Y6657244D01*
X1879920Y6646159D01*
Y6634161D01*
X1884512Y6623076D01*
X1885801Y6621787D01*
X1892152Y6613490D01*
X1885801Y6605193D01*
X1884512Y6603904D01*
X1879920Y6592819D01*
Y6580821D01*
X1884512Y6569736D01*
X1885801Y6568447D01*
X1892152Y6560150D01*
X1885801Y6551853D01*
X1884512Y6550564D01*
X1879920Y6539479D01*
Y6527481D01*
X1884512Y6516396D01*
X1891557Y6509350D01*
X1884512Y6502304D01*
X1879920Y6491219D01*
Y6479221D01*
X1884512Y6468136D01*
X1892996Y6459652D01*
X1904081Y6455060D01*
X1916079D01*
X1927164Y6459652D01*
X1935648Y6468136D01*
X1940240Y6479221D01*
Y6491219D01*
X1935648Y6502304D01*
X1928603Y6509350D01*
X1935648Y6516396D01*
X1940240Y6527481D01*
Y6539479D01*
X1935648Y6550564D01*
X1934359Y6551853D01*
X1928008Y6560150D01*
X1934359Y6568447D01*
X1935648Y6569736D01*
X1940240Y6580821D01*
Y6592819D01*
X1935648Y6603904D01*
X1934359Y6605193D01*
X1928008Y6613490D01*
X1934359Y6621787D01*
X1935648Y6623076D01*
X1940240Y6634161D01*
Y6646159D01*
X1935648Y6657244D01*
X1927333Y6665560D01*
X1935648Y6673876D01*
X1940240Y6684961D01*
Y6696959D01*
X1935648Y6708044D01*
X1934359Y6709333D01*
X1928008Y6717630D01*
X1934359Y6725927D01*
X1935648Y6727216D01*
X1940240Y6738301D01*
Y6750299D01*
X1935648Y6761384D01*
X1927164Y6769868D01*
X1916079Y6774460D01*
D02*
G37*
G36*
X1789079D02*
X1777081D01*
X1765996Y6769868D01*
X1757512Y6761384D01*
X1752920Y6750299D01*
Y6738301D01*
X1757512Y6727216D01*
X1758801Y6725927D01*
X1765152Y6717630D01*
X1758801Y6709333D01*
X1757512Y6708044D01*
X1752920Y6696959D01*
Y6684961D01*
X1757512Y6673876D01*
X1765827Y6665560D01*
X1757512Y6657244D01*
X1752920Y6646159D01*
Y6634161D01*
X1757512Y6623076D01*
X1758801Y6621787D01*
X1765152Y6613490D01*
X1758801Y6605193D01*
X1757512Y6603904D01*
X1752920Y6592819D01*
Y6580821D01*
X1757512Y6569736D01*
X1758801Y6568447D01*
X1765152Y6560150D01*
X1758801Y6551853D01*
X1757512Y6550564D01*
X1752920Y6539479D01*
Y6527481D01*
X1757512Y6516396D01*
X1764557Y6509350D01*
X1757512Y6502304D01*
X1752920Y6491219D01*
Y6479221D01*
X1757512Y6468136D01*
X1765996Y6459652D01*
X1777081Y6455060D01*
X1789079D01*
X1800164Y6459652D01*
X1808648Y6468136D01*
X1813240Y6479221D01*
Y6491219D01*
X1808648Y6502304D01*
X1801603Y6509350D01*
X1808648Y6516396D01*
X1813240Y6527481D01*
Y6539479D01*
X1808648Y6550564D01*
X1807359Y6551853D01*
X1801008Y6560150D01*
X1807359Y6568447D01*
X1808648Y6569736D01*
X1813240Y6580821D01*
Y6592819D01*
X1808648Y6603904D01*
X1807359Y6605193D01*
X1801008Y6613490D01*
X1807359Y6621787D01*
X1808648Y6623076D01*
X1813240Y6634161D01*
Y6646159D01*
X1808648Y6657244D01*
X1800333Y6665560D01*
X1808648Y6673876D01*
X1813240Y6684961D01*
Y6696959D01*
X1808648Y6708044D01*
X1807359Y6709333D01*
X1801008Y6717630D01*
X1807359Y6725927D01*
X1808648Y6727216D01*
X1813240Y6738301D01*
Y6750299D01*
X1808648Y6761384D01*
X1800164Y6769868D01*
X1789079Y6774460D01*
D02*
G37*
%LPD*%
D10*
X4902200Y6181370D02*
G03*
X4919706Y6139108I59768J0D01*
G01*
X4935146Y6111285D02*
G03*
X4922982Y6135831I-42471J-5761D01*
G01*
X4919671Y6223597D02*
G03*
X4902200Y6181370I42296J-42228D01*
G01*
X4919705Y6223631D02*
G03*
X4919671Y6223597I42262J-42262D01*
G01*
X4818576Y5972745D02*
G03*
X4831409Y5971540I12833J67703D01*
G01*
X4782683Y5991723D02*
G03*
X4818576Y5972745I48726J48726D01*
G01*
X3446528Y6574048D02*
G03*
X3423920Y6519468I54580J-54580D01*
G01*
X3446591Y6574111D02*
G03*
X3446528Y6574048I54516J-54643D01*
G01*
X3501107Y6596655D02*
G03*
X3446591Y6574111I0J-77187D01*
G01*
X3187075Y6521904D02*
G03*
X3134360Y6543740I-52715J-52715D01*
G01*
X3187856Y7455843D02*
G03*
X3133194Y7478460I-54663J-54750D01*
G01*
X3187900Y7455800D02*
G03*
X3187856Y7455843I-54706J-54706D01*
G01*
X914158Y6087682D02*
G03*
X914210Y6087735I-70333J70438D01*
G01*
X843825Y6058580D02*
G03*
X914158Y6087682I0J99540D01*
G01*
X208280Y6217853D02*
G03*
X254860Y6105300I159273J0D01*
G01*
X254930Y6105230D02*
G03*
X367553Y6058580I112623J112623D01*
G01*
X254860Y6105300D02*
G03*
X254930Y6105230I112693J112553D01*
G01*
X4695033Y6365560D02*
G03*
X4740950Y6384556I0J64993D01*
G01*
X5453105Y6628737D02*
G03*
X5449414Y6610086I45284J-18651D01*
G01*
D02*
G03*
X5477522Y6542226I95967J0D01*
G01*
X4494897Y6985903D02*
G03*
X4524838Y6973501I29940J29940D01*
G01*
X4740950Y6384556D02*
G03*
X4740990Y6384596I-45917J45997D01*
G01*
X5463758Y6644716D02*
G03*
X5453105Y6628737I34630J-34630D01*
G01*
X5881394Y7084362D02*
G03*
X5863161Y7087941I-18233J-44655D01*
G01*
X5897268Y7073814D02*
G03*
X5881394Y7084362I-34107J-34107D01*
G01*
X5504180Y6842350D02*
G03*
X5520080Y6803938I54348J0D01*
G01*
X5520053Y6880734D02*
G03*
X5504180Y6842350I38474J-38384D01*
G01*
X5520098Y6880779D02*
G03*
X5520053Y6880734I38429J-38429D01*
G01*
X5520080Y6803938D02*
G03*
X5520098Y6803920I38447J38412D01*
G01*
X5661263Y6710211D02*
G03*
X5620888Y6726935I-40375J-40375D01*
G01*
X5580252Y6743767D02*
G03*
X5620888Y6726935I40636J40636D01*
G01*
X5813840Y6759234D02*
G03*
X5841572Y6826238I-67078J67004D01*
G01*
X5813803Y6759197D02*
G03*
X5813840Y6759234I-67041J67041D01*
G01*
X4391259Y6537279D02*
G03*
X4391235Y6537255I32338J-32386D01*
G01*
X4423597Y6550660D02*
G03*
X4391259Y6537279I0J-45767D01*
G01*
X4489219Y6534381D02*
G03*
X4449918Y6550660I-39300J-39300D01*
G01*
X4489219Y6534381D02*
G03*
X4528519Y6518103I39300J39300D01*
G01*
X4605450Y6531528D02*
G03*
X4605464Y6531542I-32431J32459D01*
G01*
X4573019Y6518103D02*
G03*
X4605450Y6531528I0J45884D01*
G01*
X4675479Y6948194D02*
G03*
X4614382Y6973501I-61097J-61097D01*
G01*
X4582501Y6871266D02*
G03*
X4582547Y6871219I64546J64453D01*
G01*
X4555831Y6935719D02*
G03*
X4582501Y6871266I91216J0D01*
G01*
X4756570Y7036424D02*
G03*
X4725843Y7053226I-52652J-59791D01*
G01*
X4760252Y7032968D02*
G03*
X4756570Y7036424I-56335J-56335D01*
G01*
X4719185Y7055132D02*
G03*
X4710965Y7056303I-8344J-29149D01*
G01*
X4332986Y7436398D02*
G03*
X4340860Y7439660I0J11136D01*
G01*
X4291259Y6960941D02*
G03*
X4295595Y6962737I0J6132D01*
G01*
X4919706Y6139107D02*
X4922982Y6135831D01*
X4937760Y6062980D02*
Y6092016D01*
X4935146Y6111285D02*
X4937760Y6092016D01*
X4919705Y6223631D02*
X4929979Y6233905D01*
X4831409Y5971540D02*
X4936580D01*
X4938440Y5969680D02*
Y6062300D01*
X4937760Y6062980D02*
X4938440Y6062300D01*
Y5969680D02*
X4939120Y5969000D01*
X4936580Y5971540D02*
X4939120Y5969000D01*
X3910246Y6863080D02*
X3975347Y6928180D01*
X3979073D01*
X3906520Y6863080D02*
X3910246D01*
X3997509Y6771640D02*
X4064247Y6838378D01*
X3992880Y6771640D02*
X3997509D01*
X4064247Y6838378D02*
X4068876D01*
X3950128Y6172628D02*
X3982720Y6140036D01*
X3501107Y6596655D02*
X3562356D01*
X3423920Y6495960D02*
Y6519468D01*
X3187076Y6521904D02*
X3210560Y6498420D01*
X2875040Y6543740D02*
X3134360D01*
X3187900Y7455800D02*
X3210560Y7433140D01*
X2875040Y7478460D02*
X3133194D01*
X5431861Y6076879D02*
X5440382D01*
X5453198Y6064064D01*
X5458523D01*
X4220158Y6440394D02*
X4220296D01*
X4277082Y6497180D01*
X4277221D01*
X3423920Y7430680D02*
Y7475359D01*
X3883660Y7180580D02*
X3977320D01*
X3979000Y7182260D01*
X914210Y6087735D02*
X943365Y6116889D01*
X367553Y6058580D02*
X835660D01*
X843825D01*
X208280Y6217853D02*
Y6286500D01*
X1219200Y2616200D02*
X1267300D01*
X105320Y2455000D02*
X187960D01*
X105500Y4207600D02*
X187960D01*
X187280Y663620D02*
X187960Y664300D01*
X121920Y662940D02*
X122600Y663620D01*
X187280D01*
X4472216Y6302184D02*
X4505821Y6268580D01*
X5680432Y6507758D02*
X5709852Y6478339D01*
X4603972Y6365560D02*
X4695033D01*
X5477522Y6542226D02*
X5583389Y6436360D01*
X4469199Y7011601D02*
X4494897Y6985903D01*
X4524838Y6973501D02*
X4555831D01*
X4534887Y7056303D02*
X4703917D01*
X4354899Y6897370D02*
X4391660Y6934131D01*
Y6934200D01*
X4892675Y6103620D02*
Y6105525D01*
X4846323Y6055363D02*
Y6057268D01*
X4892675Y6103620D01*
X5125003Y6060477D02*
X5216480Y5969000D01*
X5125003Y6060477D02*
Y6095252D01*
X5217230Y6124010D02*
X5278548Y6062692D01*
Y6047312D02*
Y6062692D01*
X5368222Y6140519D02*
Y6141877D01*
X5285870Y6224229D02*
X5368222Y6141877D01*
X5405120Y6268720D02*
X5408930D01*
X5333013Y6347056D02*
X5401355Y6278714D01*
Y6272486D02*
Y6278714D01*
Y6272486D02*
X5405120Y6268720D01*
X5408930D02*
X5450772Y6226879D01*
X5641765Y6547695D02*
X5681067Y6508393D01*
X5587513Y6601557D02*
X5641375Y6547695D01*
X5641765D01*
X4740990Y6384596D02*
X4760026Y6403632D01*
X4760252D01*
X4569460Y6333573D02*
X4600095Y6364207D01*
X4569460Y6332220D02*
Y6333573D01*
X5191663Y7231119D02*
X5257800Y7297256D01*
X5322502Y7362121D02*
X5325042D01*
X5257800Y7299960D02*
X5260340D01*
X5322502Y7362121D01*
X5191663Y7230893D02*
Y7231119D01*
X5257800Y7297256D02*
Y7299960D01*
X5276437Y7146119D02*
X5364359Y7234041D01*
X5371775Y7235374D02*
X5406322Y7269921D01*
Y7278301D01*
X5371775Y7230049D02*
Y7235374D01*
X5441692Y7141468D02*
Y7143492D01*
X5490142Y7191941D01*
X5361390Y7061166D02*
X5441692Y7141468D01*
X5549900Y7079524D02*
X5575958Y7105581D01*
X5446164Y6976392D02*
X5446194D01*
X5546050Y7076248D01*
X5709852Y6478339D02*
X5711122D01*
X5450772Y6226879D02*
X5454582D01*
X5723961Y7087941D02*
X5863161D01*
X5520098Y6880779D02*
X5660322Y7021002D01*
X5520080Y6803938D02*
X5520098Y6803920D01*
X5580252Y6743767D01*
X5661263Y6710211D02*
X5677987Y6693487D01*
X5747506Y6692900D02*
X5813803Y6759197D01*
X5841572Y6826238D02*
Y6969332D01*
X4340860Y6560820D02*
X4377830Y6523850D01*
X4377830D02*
X4391235Y6537255D01*
X4423597Y6550660D02*
X4449918D01*
X4528519Y6518103D02*
X4573019D01*
X4555831Y6973501D02*
X4614382D01*
X4555831Y6935719D02*
Y6973501D01*
X4582547Y6871219D02*
X4590525Y6863241D01*
X4719185Y7055132D02*
X4725843Y7053226D01*
X985565Y6116889D02*
X1024569Y6077885D01*
X943365Y6116889D02*
X985565D01*
X3977640Y7183620D02*
X3979000Y7182260D01*
X3977640Y7183620D02*
Y7269480D01*
X3946732Y6172628D02*
X3950128D01*
X3211790Y7431910D02*
X3316010D01*
X3317240Y7430680D01*
X3210560Y7433140D02*
X3211790Y7431910D01*
X2814320Y7417740D02*
X2875040Y7478460D01*
X2814320Y6483020D02*
X2875040Y6543740D01*
X3210560Y6498420D02*
X3211790Y6497190D01*
X3316010D01*
X3317240Y6495960D01*
X5359876Y6487676D02*
X5361714D01*
X5417786Y6431830D02*
X5483341Y6366276D01*
X5417786Y6431830D02*
X5417786D01*
X5417560D02*
X5417786D01*
X5361714Y6487676D02*
X5417560Y6431830D01*
X4521129Y7188271D02*
X4598599Y7265741D01*
X4290060Y7436398D02*
X4332986D01*
X4147320Y7393940D02*
X4147536Y7393725D01*
X4444929Y7112071D02*
X4521129Y7188271D01*
X4443626Y7112071D02*
Y7114434D01*
Y7112071D02*
X4444929D01*
X4295595Y6962737D02*
X4444929Y7112071D01*
X4289956Y6960941D02*
X4291259D01*
X4252433Y6398733D02*
X4291006Y6437306D01*
X4213860Y6360160D02*
X4252433Y6398733D01*
X4291006Y6437306D02*
X4291286D01*
X4325680Y6471700D01*
X4658614Y6117176D02*
X4659216D01*
X4639793Y6098957D02*
X4640395D01*
X4658614Y6117176D01*
X4325680Y6471700D02*
X4354416Y6442963D01*
X4325680Y6471700D02*
Y6471700D01*
X4377830Y6523850D01*
X4377830D02*
X4377830D01*
X4354416Y6421976D02*
Y6442963D01*
Y6421976D02*
X4375403D01*
X4430616Y6345776D02*
Y6366924D01*
X4383901Y6413640D02*
X4430616Y6366924D01*
X4383740Y6413640D02*
X4383901D01*
X4375403Y6421976D02*
X4383740Y6413640D01*
X4505821Y6268580D02*
X4582021Y6192380D01*
X4480851Y7228322D02*
X4520902Y7188271D01*
X4521129D01*
X4480625Y7228322D02*
X4480851D01*
X4404942Y7153118D02*
Y7154178D01*
Y7153118D02*
X4443626Y7114434D01*
X1130635Y6183951D02*
X1133789D01*
X1236980Y6080760D01*
X5660322Y7021002D02*
Y7024301D01*
X5677987Y6693487D02*
X5682480D01*
X4707968Y7156372D02*
X4749999D01*
X4627880Y7167880D02*
X4627949D01*
X4662170Y7202101D02*
X4662239D01*
X4627949Y7167880D02*
X4662170Y7202101D01*
X4749999Y7156372D02*
X4816828Y7089544D01*
X4662239Y7202101D02*
X4707968Y7156372D01*
X4147536Y7393725D02*
Y7479473D01*
Y7393725D02*
X4149000Y7392260D01*
X4074240Y7393940D02*
X4147320D01*
X4244240Y7139940D02*
X4290060D01*
X4528286Y7049701D02*
X4534887Y7056303D01*
X4507299Y7049701D02*
X4528286D01*
X4354899Y6897301D02*
Y6897370D01*
X4335057Y7068945D02*
X4366861Y7037141D01*
X4367459D01*
X4334458Y7068945D02*
X4335057D01*
X4260365Y6990532D02*
X4289956Y6960941D01*
X4259061Y6990532D02*
X4260365D01*
X5518221Y6155174D02*
X5531015Y6142381D01*
X5518221Y6155174D02*
Y6163239D01*
X5602041Y6247059D02*
X5614037D01*
X5634479Y6226617D01*
X5639805D01*
X5688401Y6330879D02*
X5699448D01*
X5712263Y6318064D01*
X5717589D01*
X5388681Y7425126D02*
Y7425761D01*
X5368272Y7404717D02*
X5388681Y7425126D01*
X5368272Y7404082D02*
Y7404717D01*
X5482272Y7341941D02*
X5495087Y7354756D01*
X5469961Y7341941D02*
X5482272D01*
X5495087Y7354756D02*
X5500412D01*
X5619097Y7145637D02*
Y7148177D01*
X5640141Y7169221D01*
X5555398Y7255581D02*
X5577012Y7277195D01*
X5578628D01*
X5553781Y7255581D02*
X5555398D01*
X5483341Y6365760D02*
X5538402Y6310699D01*
X5583389Y6436360D02*
X5585460D01*
Y6435090D02*
X5624762Y6395789D01*
X5585460Y6435090D02*
Y6436360D01*
X5624762Y6394519D02*
Y6395789D01*
X5742940Y6692900D02*
X5747506D01*
X5213260Y7457440D02*
Y7501980D01*
X4892040Y7457440D02*
X4933360D01*
X4835732Y7376588D02*
X4861560Y7350760D01*
X4532040Y7413580D02*
Y7457440D01*
X5483341Y6365760D02*
Y6366276D01*
X8536064Y7054113D02*
X8608060D01*
X8680057D01*
X8536064Y6804127D02*
X8608060D01*
X8680057D01*
X8682215Y6656272D02*
X8760536D01*
X8793379Y6689115D02*
X8823059D01*
X8680057Y6654114D02*
X8682215Y6656272D01*
X8760536D02*
X8793379Y6689115D01*
X8422741D02*
X8455584Y6656272D01*
X8393062Y6689115D02*
X8422741D01*
X8533906Y6656272D02*
X8536064Y6654114D01*
X8455584Y6656272D02*
X8533906D01*
X8455584Y7201968D02*
X8533906D01*
X8393062Y7169125D02*
X8422741D01*
X8533906Y7201968D02*
X8536064Y7204126D01*
X8422741Y7169125D02*
X8455584Y7201968D01*
X8680057Y7204126D02*
X8682215Y7201968D01*
X8760536D01*
X8793379Y7169125D01*
X8823059D01*
X8608060Y6804127D02*
Y7054113D01*
D11*
X4965700Y6127932D02*
G03*
X4985883Y6079205I68909J0D01*
G01*
X5024120Y6004984D02*
G03*
X4998676Y6066413I-86873J0D01*
G01*
X5107962Y5992518D02*
G03*
X5108026Y5992454I56687J56560D01*
G01*
X5084571Y6049078D02*
G03*
X5107962Y5992518I80078J0D01*
G01*
X5084571Y6130909D02*
G03*
X5063746Y6181187I-71103J0D01*
G01*
X4708104Y7428016D02*
G03*
X4637068Y7457440I-71036J-71036D01*
G01*
X4926454Y7308276D02*
G03*
X4958177Y7231691I108308J0D01*
G01*
X4962559Y7401638D02*
G03*
X4926454Y7314474I87164J-87164D01*
G01*
X5098065Y7427245D02*
G03*
X5073763Y7368540I58751J-58705D01*
G01*
X5098089Y7427268D02*
G03*
X5098065Y7427245I58728J-58728D01*
G01*
X5037393Y7238512D02*
G03*
X5055521Y7246525I-1427J27743D01*
G01*
D02*
G03*
X5055610Y7246613I-19556J19731D01*
G01*
X5060445Y7251449D02*
G03*
X5073763Y7283651I-32276J32203D01*
G01*
X5060408Y7251412D02*
G03*
X5060445Y7251449I-32239J32239D01*
G01*
X5028168Y7238058D02*
G03*
X5028951Y7238078I0J15241D01*
G01*
X4998701Y6226920D02*
G03*
X4965736Y6213266I0J-46620D01*
G01*
X5027410Y6218186D02*
G03*
X5009442Y6226272I-19643J-19644D01*
G01*
X4506615Y6460508D02*
G03*
X4558595Y6438994I51980J52038D01*
G01*
X4454730Y6482080D02*
G03*
X4454537Y6482080I-194J-73650D01*
G01*
X4462512Y6481647D02*
G03*
X4454730Y6482080I-7975J-73217D01*
G01*
X4492885Y6471309D02*
G03*
X4462512Y6481647I-38348J-62879D01*
G01*
X4506565Y6460559D02*
G03*
X4492885Y6471309I-52028J-52129D01*
G01*
X4506615Y6460508D02*
G03*
X4506565Y6460559I-52079J-52079D01*
G01*
X4703617Y6460148D02*
G03*
X4703676Y6460208I-51154J51272D01*
G01*
X4652464Y6438994D02*
G03*
X4703617Y6460148I0J72426D01*
G01*
X4669405Y6405880D02*
G03*
X4732054Y6431830I0J88599D01*
G01*
X5024120Y5969000D02*
Y6004984D01*
X4985883Y6079205D02*
X4998676Y6066413D01*
X4965700Y6127932D02*
Y6156475D01*
X4986554Y6177329D01*
X5108026Y5992454D02*
X5131480Y5969000D01*
X5084571Y6049078D02*
Y6130909D01*
X5063746Y6181187D02*
Y6181851D01*
X5214499Y6050861D02*
X5278153Y5987208D01*
X5214499Y6050861D02*
Y6069720D01*
X5135088Y6149131D02*
X5214499Y6069720D01*
X5278153Y5987208D02*
X5338652D01*
X4708104Y7428016D02*
X4737528Y7398592D01*
X4617040Y7457440D02*
X4637068D01*
X4958177Y7230893D02*
Y7231691D01*
X4926454Y7308276D02*
Y7314474D01*
X4962559Y7401638D02*
X5000980Y7440060D01*
X5073763Y7283651D02*
Y7368540D01*
X5098089Y7427268D02*
X5128260Y7457440D01*
X5098065Y7427245D02*
X5098089Y7427268D01*
X5028951Y7238078D02*
X5037393Y7238512D01*
X5055610Y7246613D02*
X5060408Y7251412D01*
X5007768Y7238058D02*
X5028168D01*
X4998701Y6226920D02*
X5009442Y6226272D01*
X5027410Y6218186D02*
X5032801Y6212796D01*
X5063746Y6181851D01*
X4958177Y6205707D02*
X4965736Y6213266D01*
X4490720Y6405880D02*
X4669405D01*
X4414520Y6482080D02*
X4454537D01*
X4558595Y6438994D02*
X4652464D01*
X4652010Y6249670D02*
X4719320Y6182360D01*
Y6177280D02*
Y6182360D01*
X4653280Y6250940D02*
X4663956D01*
X4788450Y6375434D01*
X5000980Y7440060D02*
X5018360Y7457440D01*
X5018360D01*
X5000980Y7440060D02*
Y7440060D01*
X4986555Y7259271D02*
X5007768Y7238058D01*
X4737528Y7398592D02*
X4775628Y7436692D01*
X4699428Y7360492D02*
X4737528Y7398592D01*
X4775531Y7300388D02*
X4901601Y7174318D01*
X4759532Y7300388D02*
X4775531D01*
D12*
X3106939Y6326181D02*
G03*
X3126740Y6292630I74989J21638D01*
G01*
X3103880Y6347819D02*
G03*
X3106939Y6326181I78049J0D01*
G01*
X3064862Y6498420D02*
G03*
X3020610Y6480090I0J-62582D01*
G01*
D02*
G03*
X3002280Y6435838I44252J-44252D01*
G01*
X3106939Y7260901D02*
G03*
X3126740Y7227350I74989J21638D01*
G01*
X3103880Y7282539D02*
G03*
X3106939Y7260901I78049J0D01*
G01*
X3028230Y7414810D02*
G03*
X3009900Y7370558I44252J-44252D01*
G01*
X3072482Y7433140D02*
G03*
X3028230Y7414810I0J-62582D01*
G01*
X188167Y4363867D02*
G03*
X187960Y4358124I79549J-5743D01*
G01*
X211320Y4414520D02*
G03*
X188167Y4363867I56396J-56396D01*
G01*
X425549Y4181197D02*
G03*
X482600Y4157565I57051J57051D01*
G01*
X401320Y4414520D02*
G03*
X410099Y4393326I29973J0D01*
G01*
X543560Y4240985D02*
G03*
X579120Y4326834I-85849J85849D01*
G01*
X796075Y4157565D02*
G03*
X975680Y4231960I0J254000D01*
G01*
X1003090Y4259370D02*
G03*
X1034720Y4335780I-76479J76410D01*
G01*
X1003055Y4259335D02*
G03*
X1003090Y4259370I-76445J76445D01*
G01*
X425549Y2428597D02*
G03*
X482600Y2404965I57051J57051D01*
G01*
X188167Y2611267D02*
G03*
X187960Y2605524I79549J-5743D01*
G01*
X211320Y2661920D02*
G03*
X188167Y2611267I56396J-56396D01*
G01*
X482248Y2553491D02*
G03*
X508000Y2542825I25752J25752D01*
G01*
X529856Y2474681D02*
G03*
X541391Y2488881I-62779J62779D01*
G01*
X552134Y2505317D02*
G03*
X555860Y2517825I-19134J12508D01*
G01*
X992279Y2475639D02*
G03*
X992339Y2475699I-102461J102461D01*
G01*
X821656Y2404965D02*
G03*
X992279Y2475639I0J241297D01*
G01*
X992339Y2475699D02*
G03*
X1034720Y2578100I-102521J102401D01*
G01*
X869983Y614265D02*
G03*
X988460Y663340I0J167551D01*
G01*
D02*
G03*
X1037534Y781816I-118477J118477D01*
G01*
X188167Y820567D02*
G03*
X187960Y814824I79549J-5743D01*
G01*
X211320Y871220D02*
G03*
X188167Y820567I56396J-56396D01*
G01*
X482248Y762791D02*
G03*
X508000Y752125I25752J25752D01*
G01*
X547427Y701552D02*
G03*
X581934Y784860I-83308J83308D01*
G01*
X425250Y638195D02*
G03*
X483022Y614265I57772J57772D01*
G01*
X4615282Y7107681D02*
G03*
X4618018Y7106920I22672J76209D01*
G01*
X4787471Y7062137D02*
G03*
X4677991Y7106920I-109480J-111430D01*
G01*
X4788450Y7061166D02*
G03*
X4787471Y7062137I-110460J-110460D01*
G01*
X4581732Y7127668D02*
G03*
X4615282Y7107681I56222J56222D01*
G01*
X3103880Y6347819D02*
Y6408420D01*
X3002280Y6164580D02*
Y6435838D01*
X3064862Y6498420D02*
X3103880D01*
Y7282539D02*
Y7343140D01*
X3072482Y7433140D02*
X3103880D01*
X3009900Y7106920D02*
Y7370558D01*
X189372Y4294012D02*
X399908D01*
X187960Y4292600D02*
Y4358124D01*
X482600Y4157565D02*
X796075D01*
X401320Y4205425D02*
X425548Y4181197D01*
X410099Y4393326D02*
X508000Y4295425D01*
Y4205425D02*
X543560Y4240985D01*
X579120Y4326834D02*
Y4528820D01*
X975680Y4231960D02*
X1003055Y4259335D01*
X1034720Y4335780D02*
Y4528820D01*
X482600Y2404965D02*
X821656D01*
X401320Y2452825D02*
X425548Y2428597D01*
X189372Y2541412D02*
X399908D01*
X187960Y2540000D02*
Y2605524D01*
X401320Y2634420D02*
X482249Y2553491D01*
X508000Y2452825D02*
X529856Y2474681D01*
X541391Y2488881D02*
X552134Y2505317D01*
X555860Y2517825D02*
Y2752960D01*
X1034720Y2578100D02*
Y2776220D01*
X1037534Y781816D02*
Y985521D01*
X483022Y614265D02*
X869983D01*
X189372Y750712D02*
X399908D01*
X187960Y749300D02*
Y814824D01*
X401320Y843720D02*
X482249Y762791D01*
X508000Y662125D02*
X547427Y701552D01*
X401320Y662125D02*
X425250Y638195D01*
X581934Y784860D02*
Y985521D01*
X4618018Y7106920D02*
X4677991D01*
X401320Y843720D02*
Y871220D01*
X399908Y750712D02*
X401320Y752125D01*
X187960Y749300D02*
X189372Y750712D01*
X296049Y663534D02*
X399911D01*
X401320Y662125D01*
X294640Y664943D02*
X296049Y663534D01*
Y2454234D02*
X399911D01*
X294640Y2455643D02*
X296049Y2454234D01*
X399911D02*
X401320Y2452825D01*
X555860Y2752960D02*
X579120Y2776220D01*
X401320Y2634420D02*
Y2661920D01*
X187960Y2540000D02*
X189372Y2541412D01*
X399908D02*
X401320Y2542825D01*
X296049Y4206834D02*
X399911D01*
X401320Y4205425D01*
X294640Y4208243D02*
X296049Y4206834D01*
X399908Y4294012D02*
X401320Y4295425D01*
X187960Y4292600D02*
X189372Y4294012D01*
X3316990Y7344410D02*
Y7345430D01*
Y7213850D02*
Y7344410D01*
X3422650D01*
X3211830D02*
X3316990D01*
X3316740Y7213600D02*
X3316990Y7213850D01*
Y7345430D02*
X3317240Y7345680D01*
X3210560Y7343140D02*
X3211830Y7344410D01*
X3422650D02*
X3423920Y7345680D01*
X3004820Y7101840D02*
X3009900Y7106920D01*
X3316990Y6409690D02*
X3422650D01*
X3211830D02*
X3316990D01*
Y6410710D01*
Y6279130D02*
Y6409690D01*
Y6410710D02*
X3317240Y6410960D01*
X3316740Y6278880D02*
X3316990Y6279130D01*
X3210560Y6408420D02*
X3211830Y6409690D01*
X3422650D02*
X3423920Y6410960D01*
D13*
X3655594Y6415138D02*
G03*
X3696341Y6398260I40747J40747D01*
G01*
X3622879Y6470986D02*
G03*
X3639236Y6431496I55847J0D01*
G01*
X3625520Y6574627D02*
G03*
X3622879Y6568252I6376J-6376D01*
G01*
X3696341Y6398260D02*
G03*
X3737089Y6415138I0J57626D01*
G01*
X4010232Y6285372D02*
G03*
X3986221Y6343341I-81980J0D01*
G01*
X3914062Y6415499D02*
G03*
X3869832Y6433820I-44230J-44230D01*
G01*
X3935805Y6470108D02*
G03*
X3863932Y6499860I-71873J-71938D01*
G01*
D02*
G03*
X3792026Y6470075I0J-101690D01*
G01*
X3935838Y6470076D02*
G03*
X3935805Y6470108I-71906J-71906D01*
G01*
X3919639Y6518337D02*
G03*
X3865021Y6538835I-54617J-62516D01*
G01*
X3922188Y6516055D02*
G03*
X3920939Y6517209I-16134J-16195D01*
G01*
X3922248Y6515994D02*
G03*
X3922188Y6516055I-16195J-16134D01*
G01*
X3814958Y6538835D02*
G03*
X3749804Y6511872I0J-92202D01*
G01*
D02*
G03*
X3749762Y6511830I65154J-65239D01*
G01*
X4075881Y6665779D02*
G03*
X4023360Y6538981I126798J-126798D01*
G01*
X4088221Y6382350D02*
G03*
X4088251Y6382320I156691J156631D01*
G01*
X4023360Y6538981D02*
G03*
X4088221Y6382350I221552J0D01*
G01*
X4111202Y6521494D02*
G03*
X4084320Y6456596I64898J-64898D01*
G01*
D02*
G03*
X4111202Y6391699I91779J0D01*
G01*
X4330846Y6075068D02*
G03*
X4509828Y5990686I207253J207591D01*
G01*
X4330585Y6075328D02*
G03*
X4330846Y6075068I207513J207331D01*
G01*
X4297447Y6108466D02*
G03*
X4297463Y6108450I9058J8902D01*
G01*
X4346966Y6091276D02*
G03*
X4519246Y6012838I191132J191383D01*
G01*
X4346750Y6091492D02*
G03*
X4346966Y6091276I191349J191167D01*
G01*
X4363073Y6107498D02*
G03*
X4528714Y6035218I175025J175161D01*
G01*
X4362937Y6107634D02*
G03*
X4363073Y6107498I175161J175026D01*
G01*
X4533364Y6035040D02*
G03*
X4533347Y6035041I-486J-12690D01*
G01*
X4379170Y6123730D02*
G03*
X4538098Y6057900I158929J158929D01*
G01*
X4764145Y6044305D02*
G03*
X4764291Y6044451I-132949J133235D01*
G01*
X4631197Y5989320D02*
G03*
X4764145Y6044305I0J188220D01*
G01*
X4748017Y6060506D02*
G03*
X4748231Y6060720I-116820J117034D01*
G01*
X4631197Y6012180D02*
G03*
X4748017Y6060506I0J165360D01*
G01*
X4731895Y6076713D02*
G03*
X4732024Y6076842I-100698J100828D01*
G01*
X4631197Y6035040D02*
G03*
X4731895Y6076713I0J142500D01*
G01*
X4631197Y6057900D02*
G03*
X4715795Y6092942I0J119640D01*
G01*
X4877329Y6238010D02*
G03*
X4848860Y6169281I68729J-68729D01*
G01*
X4827270Y6107430D02*
G03*
X4848860Y6159553I-52122J52122D01*
G01*
X4804560Y6117049D02*
G03*
X4826000Y6168867I-51898J51818D01*
G01*
X4804520Y6117009D02*
G03*
X4804560Y6117049I-51858J51858D01*
G01*
X4779858Y6124676D02*
G03*
X4803140Y6180906I-56263J56230D01*
G01*
X4779842Y6124660D02*
G03*
X4779858Y6124676I-56247J56247D01*
G01*
X4750837Y6127983D02*
G03*
X4777740Y6192934I-64950J64950D01*
G01*
X4813481Y6238820D02*
G03*
X4823813Y6263769I-24959J24949D01*
G01*
X4813449Y6238788D02*
G03*
X4803140Y6213854I24999J-24933D01*
G01*
X4813481Y6238820D02*
G03*
X4813449Y6238788I24966J-24966D01*
G01*
X4839940Y6232950D02*
G03*
X4826000Y6199244I33780J-33706D01*
G01*
X4839977Y6232987D02*
G03*
X4839940Y6232950I33743J-33743D01*
G01*
X4839977Y6232987D02*
G03*
X4853587Y6265897I-32984J32910D01*
G01*
X4840930Y6314763D02*
G03*
X4823813Y6273398I41420J-41364D01*
G01*
X4840958Y6314791D02*
G03*
X4840930Y6314763I41392J-41392D01*
G01*
X4786677Y6259464D02*
G03*
X4795615Y6281040I-21577J21577D01*
G01*
X4786677Y6259464D02*
G03*
X4777740Y6237887I21577J-21577D01*
G01*
X4815924Y6346152D02*
G03*
X4795615Y6297122I49030J-49030D01*
G01*
X3639236Y6431496D02*
X3655593Y6415138D01*
X3622879Y6470986D02*
Y6568252D01*
X3737089Y6415138D02*
X3792026Y6470075D01*
X3914062Y6415499D02*
X3986221Y6343341D01*
X4010232Y6232732D02*
Y6285372D01*
X3843922Y6433820D02*
X3869832D01*
X3935838Y6470076D02*
X4297447Y6108467D01*
X3938961Y6499281D02*
X4311071Y6127171D01*
X3919639Y6518337D02*
X3920939Y6517209D01*
X3814958Y6538835D02*
X3865021D01*
X3922248Y6515994D02*
X3938961Y6499281D01*
X3722756Y6484824D02*
X3749762Y6511830D01*
X4088251Y6382320D02*
X4350096Y6120475D01*
X4075881Y6665779D02*
X4158678Y6748576D01*
X4111202Y6391698D02*
X4379170Y6123730D01*
X4111202Y6521494D02*
X4248480Y6658773D01*
X4523895Y5989320D02*
X4631197D01*
X4509828Y5990685D02*
X4523895Y5989320D01*
X4297463Y6108450D02*
X4330585Y6075328D01*
X4519246Y6012838D02*
X4528629Y6012180D01*
X4631197D01*
X4311071Y6127171D02*
X4346750Y6091492D01*
X4350096Y6120475D02*
X4362937Y6107634D01*
X4528714Y6035218D02*
X4533347Y6035041D01*
X4533364Y6035040D02*
X4631197D01*
X4538098Y6057900D02*
X4631197D01*
X4768215Y6048375D02*
X4827270Y6107430D01*
X4764291Y6044451D02*
X4768215Y6048375D01*
X4748231Y6060720D02*
X4748231Y6060720D01*
X4804520Y6117009D01*
X4779842Y6124660D02*
X4779858Y6124676D01*
X4732024Y6076842D02*
X4779842Y6124660D01*
X4715795Y6092942D02*
X4750837Y6127983D01*
X4848860Y6159553D02*
Y6169281D01*
X4826000Y6168867D02*
Y6199244D01*
X4803140Y6180906D02*
Y6213854D01*
X4777740Y6192934D02*
Y6237887D01*
X4877329Y6238010D02*
X4901601Y6262283D01*
X4853587Y6265897D02*
Y6270664D01*
X4873403Y6290481D01*
X4823813Y6263769D02*
Y6273398D01*
X4840958Y6314790D02*
X4845026Y6318858D01*
X4795615Y6281040D02*
Y6297122D01*
X4815924Y6346152D02*
X4816828Y6347056D01*
X3715322Y6484824D02*
X3722756D01*
X3805124Y6395022D02*
X3843922Y6433820D01*
D14*
X8172891Y7132075D02*
G03*
X8091220Y7329245I-278840J0D01*
G01*
X8230553Y5406707D02*
G03*
X8369429Y5349240I138876J139071D01*
G01*
X8172891Y5545778D02*
G03*
X8230358Y5406903I196538J0D01*
G01*
X5469889Y7419587D02*
G03*
X5430946Y7403542I0J-55280D01*
G01*
X8079213Y7341252D02*
G03*
X7889872Y7419587I-189341J-189656D01*
G01*
X8632741Y5322739D02*
G03*
X8660438Y5311267I27697J27697D01*
G01*
X8625164Y5330316D02*
G03*
X8579389Y5349240I-45775J-45901D01*
G01*
X8147237Y5535152D02*
G03*
X8204704Y5396276I196538J0D01*
G01*
X8147237Y7131738D02*
G03*
X8072842Y7311343I-254000J0D01*
G01*
X8614538Y5304662D02*
G03*
X8568763Y5323586I-45775J-45901D01*
G01*
X8218125Y5382856D02*
G03*
X8361214Y5323586I143089J143089D01*
G01*
X5469961Y7393933D02*
G03*
X5448889Y7385205I0J-29801D01*
G01*
X8064646Y7319539D02*
G03*
X7885041Y7393933I-179605J-179605D01*
G01*
X8614600Y5304599D02*
G03*
X8614730Y5304470I45837J45837D01*
G01*
X8614600Y5304599D02*
G03*
X8614538Y5304662I-45838J-45839D01*
G01*
X8230455Y5406805D02*
G03*
X8230553Y5406707I138974J138974D01*
G01*
X8230358Y5406903D02*
G03*
X8230455Y5406805I139071J138876D01*
G01*
X5430946Y7403542D02*
G03*
X5430800Y7403396I38943J-39235D01*
G01*
X8079370Y7341095D02*
G03*
X8079213Y7341252I-189498J-189499D01*
G01*
X8625227Y5330253D02*
G03*
X8625164Y5330316I-45838J-45839D01*
G01*
X8204704Y5396276D02*
G03*
X8204801Y5396179I139071J138876D01*
G01*
X8614730Y5304470D02*
G03*
X8660256Y5285613I45707J45966D01*
G01*
D02*
G03*
X8660438Y5285613I181J64823D01*
G01*
X7837231Y5723182D02*
G03*
X7755561Y5920352I-278840J0D01*
G01*
X7860067Y4783948D02*
G03*
X7818918Y4883403I-140765J0D01*
G01*
X7813800Y4623560D02*
G03*
X7860067Y4735258I-111699J111699D01*
G01*
X7813800Y4623560D02*
G03*
X7813762Y4623522I75419J-75419D01*
G01*
X8885293Y3380867D02*
G03*
X8905427Y3389195I0J28501D01*
G01*
X7969658Y3455262D02*
G03*
X8149263Y3380867I179605J179605D01*
G01*
X7293283Y6382630D02*
G03*
X7096113Y6464300I-197170J-197170D01*
G01*
X6047384D02*
G03*
X5938362Y6419142I0J-154180D01*
G01*
X5732043Y6390394D02*
G03*
X5835233Y6347714I103191J103407D01*
G01*
X7807291Y5161573D02*
G03*
X7837231Y5233854I-72281J72281D01*
G01*
X7792425Y4947249D02*
G03*
X7818775Y4883546I90178J0D01*
G01*
X7782560Y3747570D02*
G03*
X7856955Y3567965I254000J0D01*
G01*
X7813762Y4623522D02*
G03*
X7782560Y4548141I75456J-75381D01*
G01*
X7807265Y5161547D02*
G03*
X7807238Y5161520I35827J-35827D01*
G01*
D02*
G03*
X7792425Y5125720I35854J-35800D01*
G01*
X5835233Y6347714D02*
G03*
X5889313Y6370092I0J76533D01*
G01*
X7811577Y5722845D02*
G03*
X7737182Y5902450I-254000J0D01*
G01*
X7795462Y4641502D02*
G03*
X7834413Y4735538I-94036J94036D01*
G01*
X7951586Y3437054D02*
G03*
X8149168Y3355213I197582J197582D01*
G01*
X7800496Y4865546D02*
G03*
X7800540Y4865502I81569J81481D01*
G01*
X7834413Y4783799D02*
G03*
X7800592Y4865450I-115472J0D01*
G01*
X8905427Y3346885D02*
G03*
X8885293Y3355213I-20134J-20173D01*
G01*
X7275381Y6364251D02*
G03*
X7095777Y6438646I-179605J-179605D01*
G01*
X6047669D02*
G03*
X5956301Y6400800I0J-129214D01*
G01*
X5716596Y6369561D02*
G03*
X5831374Y6322060I114778J114922D01*
G01*
X7766771Y4947026D02*
G03*
X7800496Y4865546I115293J0D01*
G01*
X7756906Y3747475D02*
G03*
X7838599Y3550041I279424J0D01*
G01*
X7795462Y4641502D02*
G03*
X7756906Y4548420I93081J-93081D01*
G01*
X7788975Y5179537D02*
G03*
X7789016Y5179578I-54567J54567D01*
G01*
X7788975Y5179537D02*
G03*
X7766771Y5125932I53604J-53604D01*
G01*
X5835487Y6322060D02*
G03*
X5907311Y6351811I0J101574D01*
G01*
X5731935Y6390502D02*
G03*
X5732043Y6390394I103299J103299D01*
G01*
X5889313Y6370092D02*
G03*
X5889350Y6370130I-54079J54155D01*
G01*
X8905427Y3389195D02*
G03*
X8905446Y3389215I-20134J20173D01*
G01*
X8917940Y3394390D02*
G03*
X8905447Y3389215I0J-17669D01*
G01*
X7818918Y4883403D02*
G03*
X7818838Y4883484I-99617J-99455D01*
G01*
X7818775Y4883546D02*
G03*
X7818838Y4883484I63828J63703D01*
G01*
X5716524Y6369632D02*
G03*
X5716596Y6369561I114850J114850D01*
G01*
X8905446Y3346865D02*
G03*
X8905427Y3346885I-20153J-20153D01*
G01*
X8905447Y3346865D02*
G03*
X8917940Y3341690I12494J12494D01*
G01*
X7789016Y5179578D02*
G03*
X7811577Y5234104I-54608J54526D01*
G01*
X7838599Y3550041D02*
G03*
X7838748Y3549892I197731J197434D01*
G01*
X8047001Y1567867D02*
G03*
X8143321Y1527970I96320J96320D01*
G01*
X7999326Y1615541D02*
G03*
X7871832Y1668350I-127495J-127495D01*
G01*
X8528841Y1493381D02*
G03*
X8445336Y1527969I-83505J-83505D01*
G01*
X7754874Y1761432D02*
G03*
X7778704Y1699236I93082J0D01*
G01*
X7754874Y1828966D02*
G03*
X7715693Y1923607I-133892J0D01*
G01*
X7778704Y1699236D02*
G03*
X7858581Y1668351I79877J87850D01*
G01*
X7774623Y1703127D02*
G03*
X7778704Y1699236I83958J83958D01*
G01*
X8885293Y1473327D02*
G03*
X8905427Y1481655I0J28501D01*
G01*
X8528841Y1493381D02*
G03*
X8577255Y1473327I48414J48414D01*
G01*
X6153663Y6140624D02*
G03*
X6108494Y6121914I0J-63879D01*
G01*
X6063323Y6103204D02*
G03*
X6108456Y6121876I0J63881D01*
G01*
X5327376Y6291179D02*
G03*
X5323756Y6299917I-12357J0D01*
G01*
X5327376Y6291179D02*
G03*
X5330995Y6282441I12357J0D01*
G01*
X7594600Y2342604D02*
G03*
X7512930Y2539773I-278840J0D01*
G01*
X7594600Y2149910D02*
G03*
X7668995Y1970305I254000J0D01*
G01*
X7259508Y5711538D02*
G03*
X7193822Y5870118I-224266J0D01*
G01*
X6979539Y6084401D02*
G03*
X6843805Y6140624I-135734J-135735D01*
G01*
X7259508Y2889480D02*
G03*
X7327508Y2725195I232452J0D01*
G01*
X7981450Y1597138D02*
G03*
X7871460Y1642697I-109990J-109990D01*
G01*
X8510880Y1475062D02*
G03*
X8444988Y1502316I-65891J-66027D01*
G01*
X8029027Y1549561D02*
G03*
X8143182Y1502316I114155J114290D01*
G01*
X7729220Y1818339D02*
G03*
X7690004Y1913016I-133893J0D01*
G01*
X7763867Y1677603D02*
G03*
X7848235Y1642697I84368J84504D01*
G01*
X7729220Y1761297D02*
G03*
X7763799Y1677671I118410J0D01*
G01*
X8905427Y1439345D02*
G03*
X8885293Y1447673I-20134J-20173D01*
G01*
X8511015Y1474926D02*
G03*
X8576907Y1447673I65891J66027D01*
G01*
X6153897Y6114970D02*
G03*
X6126469Y6103609I0J-38789D01*
G01*
X5477675Y6099481D02*
G03*
X5530726Y6077550I53051J53199D01*
G01*
X5295379Y6271539D02*
G03*
X5295397Y6271521I8738J8739D01*
G01*
X5312856Y6264300D02*
G03*
X5304117Y6267920I-8739J-8739D01*
G01*
X5295397Y6271521D02*
G03*
X5304117Y6267920I8720J8757D01*
G01*
X7233854Y2889218D02*
G03*
X7309176Y2707247I257474J0D01*
G01*
X7233854Y5711281D02*
G03*
X7175594Y5852066I-199233J0D01*
G01*
X7568946Y2342267D02*
G03*
X7494551Y2521872I-254000J0D01*
G01*
X7568946Y2149815D02*
G03*
X7650519Y1952501I279424J0D01*
G01*
X6063557Y6077550D02*
G03*
X6126469Y6103609I0J88971D01*
G01*
X6961508Y6066152D02*
G03*
X6843598Y6114970I-117909J-117984D01*
G01*
X8917940Y1486850D02*
G03*
X8905447Y1481675I0J-17669D01*
G01*
X8905427Y1481655D02*
G03*
X8905446Y1481675I-20134J20173D01*
G01*
X6108456Y6121876D02*
G03*
X6108494Y6121914I-45133J45209D01*
G01*
X5530855Y6103204D02*
G03*
X5531015Y6103203I160J50174D01*
G01*
X5495687Y6117749D02*
G03*
X5530855Y6103204I35328J35629D01*
G01*
X5495536Y6117899D02*
G03*
X5495687Y6117749I35479J35479D01*
G01*
X7715693Y1923607D02*
G03*
X7715658Y1923642I-94711J-94641D01*
G01*
X7327508Y2725195D02*
G03*
X7327592Y2725111I164453J164284D01*
G01*
X8028959Y1549628D02*
G03*
X8029027Y1549561I114223J114223D01*
G01*
X8510947Y1474994D02*
G03*
X8510880Y1475062I-65959J-65959D01*
G01*
X7650519Y1952501D02*
G03*
X7650787Y1952232I197851J197313D01*
G01*
X7763799Y1677671D02*
G03*
X7763867Y1677603I84436J84436D01*
G01*
X8905447Y1439325D02*
G03*
X8917940Y1434150I12494J12494D01*
G01*
X8905446Y1439325D02*
G03*
X8905427Y1439345I-20153J-20153D01*
G01*
X8510947Y1474994D02*
G03*
X8511015Y1474926I65959J65959D01*
G01*
X5477601Y6099555D02*
G03*
X5477675Y6099481I53125J53125D01*
G01*
X7309176Y2707247D02*
G03*
X7309266Y2707156I182152J181972D01*
G01*
X6961545Y6066115D02*
G03*
X6961508Y6066152I-117947J-117947D01*
G01*
X7175594Y5852066D02*
G03*
X7175500Y5852160I-140973J-140785D01*
G01*
X6189946Y7237216D02*
G03*
X6189971Y7237191I12317J12268D01*
G01*
X8043359Y1759221D02*
G03*
X8201022Y1693967I157663J157842D01*
G01*
X6065976Y6220460D02*
G03*
X6006520Y6195846I0J-84116D01*
G01*
X5569059Y6214103D02*
G03*
X5636473Y6186213I67414J67530D01*
G01*
X5412149Y6376042D02*
G03*
X5408593Y6384627I-12141J0D01*
G01*
X5412149Y6376042D02*
G03*
X5415705Y6367457I12141J0D01*
G01*
X7460272Y2773388D02*
G03*
X7460388Y2773271I179722J179488D01*
G01*
X7385994Y2952876D02*
G03*
X7460272Y2773388I254000J0D01*
G01*
X7765140Y2142650D02*
G03*
X7839535Y1963045I254000J0D01*
G01*
X7765140Y2353145D02*
G03*
X7683558Y2550101I-278538J0D01*
G01*
X7066513Y6172686D02*
G03*
X6951178Y6220460I-115335J-115335D01*
G01*
X5983297Y6186213D02*
G03*
X6006462Y6195788I0J32810D01*
G01*
X7385994Y5737707D02*
G03*
X7304323Y5934877I-278840J0D01*
G01*
X8448227Y1702295D02*
G03*
X8448246Y1702315I-20134J20173D01*
G01*
X8428093Y1693967D02*
G03*
X8448227Y1702295I0J28501D01*
G01*
X8460740Y1707490D02*
G03*
X8448247Y1702315I0J-17669D01*
G01*
X8025272Y1741028D02*
G03*
X8200821Y1668313I175549J175549D01*
G01*
X6066169Y6194806D02*
G03*
X6024500Y6177546I0J-58929D01*
G01*
X5983490Y6160559D02*
G03*
X6024500Y6177546I0J57997D01*
G01*
X5380395Y6356429D02*
G03*
X5388980Y6352873I8585J8585D01*
G01*
X5397566Y6349316D02*
G03*
X5388980Y6352873I-8585J-8585D01*
G01*
X7665251Y2532128D02*
G03*
X7665091Y2532288I-179765J-179445D01*
G01*
X7739486Y2352683D02*
G03*
X7665251Y2532128I-254000J0D01*
G01*
X7739486Y2142555D02*
G03*
X7821195Y1945105I279424J0D01*
G01*
X7360340Y5737370D02*
G03*
X7285945Y5916975I-254000J0D01*
G01*
X7048500Y6154420D02*
G03*
X6951000Y6194806I-97500J-97500D01*
G01*
X7360340Y2952741D02*
G03*
X7442002Y2755378I279327J0D01*
G01*
X8448227Y1659985D02*
G03*
X8428093Y1668313I-20134J-20173D01*
G01*
X8448246Y1659965D02*
G03*
X8448227Y1659985I-20153J-20153D01*
G01*
X8448247Y1659965D02*
G03*
X8460740Y1654790I12494J12494D01*
G01*
X8043270Y1759310D02*
G03*
X8043359Y1759221I157753J157752D01*
G01*
X6006520Y6195846D02*
G03*
X6006497Y6195823I59456J-59502D01*
G01*
X6006462Y6195788D02*
G03*
X6006497Y6195823I-23165J23235D01*
G01*
X5569001Y6214161D02*
G03*
X5569059Y6214103I67472J67472D01*
G01*
X5551165Y6195717D02*
G03*
X5636049Y6160559I85131J85489D01*
G01*
D02*
G03*
X5636297Y6160559I248J120647D01*
G01*
X5550986Y6195896D02*
G03*
X5551165Y6195717I85310J85310D01*
G01*
X7821195Y1945105D02*
G03*
X7821328Y1944972I197714J197450D01*
G01*
X7442002Y2755378D02*
G03*
X7442153Y2755227I197665J197363D01*
G01*
X7890490Y1534964D02*
G03*
X7812101Y1567434I-78389J-78389D01*
G01*
X7673340Y1725860D02*
G03*
X7719742Y1613836I158426J0D01*
G01*
X7733713Y1599865D02*
G03*
X7812082Y1567434I78369J78475D01*
G01*
X8003297Y1422157D02*
G03*
X8167923Y1353967I164626J164626D01*
G01*
X6361458Y6037714D02*
G03*
X6365252Y6028554I12955J0D01*
G01*
D02*
G03*
X6374413Y6024760I9160J9160D01*
G01*
X6928048Y5970792D02*
G03*
X6797758Y6024760I-130290J-130290D01*
G01*
X6356391Y6051817D02*
G03*
X6356367Y6051842I-12317J-12268D01*
G01*
X6361458Y6039549D02*
G03*
X6356391Y6051817I-17384J0D01*
G01*
X7438969Y2131002D02*
G03*
X7513363Y1951397I254000J0D01*
G01*
X7438969Y2311336D02*
G03*
X7357298Y2508506I-278840J0D01*
G01*
X7673340Y1729535D02*
G03*
X7629581Y1835179I-149404J0D01*
G01*
X7129798Y5674548D02*
G03*
X7062980Y5835860I-228129J0D01*
G01*
X7129798Y2841216D02*
G03*
X7204193Y2661611I254000J0D01*
G01*
X8448227Y1362295D02*
G03*
X8448246Y1362315I-20134J20173D01*
G01*
X8428093Y1353967D02*
G03*
X8448227Y1362295I0J28501D01*
G01*
X8460740Y1367490D02*
G03*
X8448247Y1362315I0J-17669D01*
G01*
X7715739Y1581559D02*
G03*
X7811896Y1541780I96157J96330D01*
G01*
X7872495Y1516679D02*
G03*
X7811896Y1541780I-60599J-60599D01*
G01*
X7647686Y1718909D02*
G03*
X7603927Y1824554I-149405J0D01*
G01*
X7647686Y1725747D02*
G03*
X7701406Y1595891I183806J0D01*
G01*
X7985212Y1403962D02*
G03*
X8167923Y1328313I182711J182820D01*
G01*
X6909991Y5952569D02*
G03*
X6797529Y5999106I-112462J-112620D01*
G01*
X6374413D02*
G03*
X6365252Y5995312I0J-12955D01*
G01*
D02*
G03*
X6361458Y5986151I9160J-9160D01*
G01*
X6356391Y5972049D02*
G03*
X6361458Y5984316I-12317J12268D01*
G01*
X6356367Y5972024D02*
G03*
X6356391Y5972049I-12292J12292D01*
G01*
X7413315Y2130906D02*
G03*
X7495007Y1933473I279424J0D01*
G01*
X7413315Y2310999D02*
G03*
X7338920Y2490604I-254000J0D01*
G01*
X7104144Y2841121D02*
G03*
X7185837Y2643687I279424J0D01*
G01*
X7104144Y5674336D02*
G03*
X7044690Y5817870I-202988J0D01*
G01*
X8448227Y1319985D02*
G03*
X8428093Y1328313I-20134J-20173D01*
G01*
X8448246Y1319965D02*
G03*
X8448227Y1319985I-20153J-20153D01*
G01*
X8448247Y1319965D02*
G03*
X8460740Y1314790I12494J12494D01*
G01*
X7733660Y1599917D02*
G03*
X7733713Y1599865I78422J78422D01*
G01*
X7715652Y1581645D02*
G03*
X7715739Y1581559I96244J96244D01*
G01*
X7985157Y1404017D02*
G03*
X7985212Y1403962I182765J182765D01*
G01*
X7701406Y1595891D02*
G03*
X7701522Y1595776I130086J129855D01*
G01*
X6910070Y5952490D02*
G03*
X6909991Y5952569I-112541J-112541D01*
G01*
X7495007Y1933473D02*
G03*
X7495156Y1933324I197731J197434D01*
G01*
X7185837Y2643687D02*
G03*
X7185985Y2643539I197731J197434D01*
G01*
X5409602Y6034107D02*
G03*
X5431861Y6024887I22259J22259D01*
G01*
X6221457Y6024760D02*
G03*
X6230618Y6028554I0J12955D01*
G01*
X6239479Y6051817D02*
G03*
X6234412Y6039549I12317J-12268D01*
G01*
X6239504Y6051842D02*
G03*
X6239479Y6051817I12292J-12292D01*
G01*
X5391625Y6015803D02*
G03*
X5431726Y5999233I40101J40236D01*
G01*
X6230618Y5995312D02*
G03*
X6221457Y5999106I-9160J-9160D01*
G01*
X6234412Y5986151D02*
G03*
X6230618Y5995312I-12955J0D01*
G01*
X6239479Y5972049D02*
G03*
X6239504Y5972024I12317J12268D01*
G01*
X6234412Y5984316D02*
G03*
X6239479Y5972049I17384J0D01*
G01*
X5391558Y6015871D02*
G03*
X5391625Y6015803I40169J40169D01*
G01*
X6230618Y6028554D02*
G03*
X6234412Y6037714I-9160J9160D01*
G01*
X4705371Y6851489D02*
G03*
X4705480Y6851380I16324J16324D01*
G01*
X4655219Y6909398D02*
G03*
X4653601Y6913317I-5556J0D01*
G01*
X4653855Y6905732D02*
G03*
X4655219Y6909025I-3293J3293D01*
G01*
X4653855Y6905732D02*
G03*
X4653855Y6903004I1364J-1364D01*
G01*
X4736432Y6839552D02*
G03*
X4723939Y6844727I-12493J-12493D01*
G01*
X4693993Y6817024D02*
G03*
X4687232Y6833347I-23084J0D01*
G01*
X4693993Y6814781D02*
G03*
X4699168Y6802288I17668J0D01*
G01*
X8460740Y5545430D02*
G03*
X8448247Y5540255I0J-17669D01*
G01*
X8431077Y5531907D02*
G03*
X8446137Y5538145I0J21298D01*
G01*
X8416017D02*
G03*
X8431077Y5531907I15059J15059D01*
G01*
X8161128Y7421826D02*
G03*
X7964173Y7503407I-196955J-196955D01*
G01*
X5388521D02*
G03*
X5341750Y7484073I0J-66237D01*
G01*
X8268412Y7265930D02*
G03*
X8197881Y7385073I-267701J-78026D01*
G01*
X8382478Y5763726D02*
G03*
X8323876Y5905203I-200079J0D01*
G01*
X8382478Y5599810D02*
G03*
X8402318Y5551844I67903J0D01*
G01*
X8279551Y7187904D02*
G03*
X8268412Y7265930I-278840J0D01*
G01*
X8279551Y6012214D02*
G03*
X8323876Y5905204I151335J0D01*
G01*
X8446630Y5499521D02*
G03*
X8430336Y5506253I-16294J-16353D01*
G01*
X8401667Y5516215D02*
G03*
X8425764Y5506253I24097J24163D01*
G01*
X8448247Y5497905D02*
G03*
X8460740Y5492730I12494J12494D01*
G01*
X8143315Y7403359D02*
G03*
X7963711Y7477753I-179605J-179605D01*
G01*
X8242445Y7262978D02*
G03*
X8179503Y7367172I-242547J-75411D01*
G01*
X5388681Y7477753D02*
G03*
X5359711Y7465753I0J-40971D01*
G01*
X8356824Y5761713D02*
G03*
X8304313Y5888487I-179285J0D01*
G01*
X8304159Y5888641D02*
G03*
X8304313Y5888487I121867J121560D01*
G01*
X8356824Y5599633D02*
G03*
X8384070Y5533812I93130J0D01*
G01*
X8253897Y7187567D02*
G03*
X8242445Y7262978I-254000J0D01*
G01*
X8253897Y6010201D02*
G03*
X8304159Y5888641I172129J0D01*
G01*
X5341750Y7484073D02*
G03*
X5341684Y7484007I46771J-46903D01*
G01*
X8402318Y5551844D02*
G03*
X8402367Y5551795I48064J47966D01*
G01*
X8446660Y5499491D02*
G03*
X8446630Y5499521I-16324J-16324D01*
G01*
X8384070Y5533812D02*
G03*
X8384101Y5533780I65885J65821D01*
G01*
X8401634Y5516248D02*
G03*
X8401667Y5516215I24130J24130D01*
G01*
X7931875Y5818731D02*
G03*
X7850205Y6015900I-278840J0D01*
G01*
X7884160Y3932990D02*
G03*
X7958555Y3753385I254000J0D01*
G01*
Y4500895D02*
G03*
X7884160Y4321290I179605J-179605D01*
G01*
X7931875Y5265661D02*
G03*
X7981901Y5144819I170966J0D01*
G01*
X7389152Y6476953D02*
G03*
X7192197Y6558534I-196955J-196955D01*
G01*
X8428093Y3601507D02*
G03*
X8448227Y3609835I0J28501D01*
G01*
X8036039Y3675902D02*
G03*
X8215644Y3601507I179605J179605D01*
G01*
X8009159Y4551498D02*
G03*
X8059314Y4672584I-121085J121085D01*
G01*
X8059314Y4990629D02*
G03*
X8005025Y5121695I-185355J0D01*
G01*
X7906221Y5818393D02*
G03*
X7831826Y5997999I-254000J0D01*
G01*
X7858506Y3929909D02*
G03*
X7938130Y3737530I272215J0D01*
G01*
X7940319Y4518939D02*
G03*
X7858506Y4321425I197514J-197514D01*
G01*
X7906221Y5265438D02*
G03*
X7963505Y5126936I196080J0D01*
G01*
X7371340Y6458485D02*
G03*
X7191735Y6532880I-179605J-179605D01*
G01*
X8033660Y4990221D02*
G03*
X7986596Y5103844I-160688J0D01*
G01*
X8448227Y3567525D02*
G03*
X8428093Y3575853I-20134J-20173D01*
G01*
X8017966Y3657694D02*
G03*
X8215548Y3575853I197582J197582D01*
G01*
X7963505Y5126936D02*
G03*
X7963652Y5126788I138797J138502D01*
G01*
X8448247Y3567505D02*
G03*
X8460740Y3562330I12494J12494D01*
G01*
X8448246Y3567505D02*
G03*
X8448227Y3567525I-20153J-20153D01*
G01*
X7990795Y4569415D02*
G03*
X7990833Y4569453I-103486J103486D01*
G01*
D02*
G03*
X8033660Y4672900I-103524J103448D01*
G01*
X7981901Y5144819D02*
G03*
X7981950Y5144770I120940J120843D01*
G01*
X8448227Y3609835D02*
G03*
X8448246Y3609855I-20134J20173D01*
G01*
X8460740Y3615030D02*
G03*
X8448247Y3609855I0J-17669D01*
G01*
X8953754Y7230022D02*
G03*
X8921931Y7306849I-108650J0D01*
G01*
X8923090Y7085504D02*
G03*
X8953754Y7159533I-74029J74029D01*
G01*
X8921466Y7307314D02*
G03*
X8844639Y7339137I-76827J-76827D01*
G01*
X8914440Y7076870D02*
G03*
X8915414Y7077828I-55306J57239D01*
G01*
X8859134Y7054516D02*
G03*
X8914440Y7076870I0J79593D01*
G01*
X8680057Y7104126D02*
G03*
X8687913Y7100872I7856J7856D01*
G01*
X8758139Y7082312D02*
G03*
X8758160Y7082291I67106J67106D01*
G01*
D02*
G03*
X8825245Y7054516I67084J67128D01*
G01*
X8758139Y7082312D02*
G03*
X8713333Y7100872I-44806J-44806D01*
G01*
X8755174Y7347485D02*
G03*
X8742680Y7352660I-12494J-12494D01*
G01*
X8756760Y7345898D02*
G03*
X8773084Y7339137I16324J16324D01*
G01*
X8903506Y7288994D02*
G03*
X8844310Y7313483I-59196J-59301D01*
G01*
X8928100Y7229693D02*
G03*
X8903611Y7288889I-83790J0D01*
G01*
X8774639Y7102092D02*
G03*
X8827627Y7080170I52988J53079D01*
G01*
X8848508D02*
G03*
X8904788Y7103482I0J79593D01*
G01*
X8728679Y7140491D02*
G03*
X8695728Y7154113I-32951J-33041D01*
G01*
X8728724Y7140446D02*
G03*
X8728679Y7140491I-32996J-32996D01*
G01*
X8728860Y7140310D02*
G03*
X8730659Y7138833I9083J9237D01*
G01*
X8742680Y7299960D02*
G03*
X8755174Y7305135I0J17669D01*
G01*
X8773084Y7313483D02*
G03*
X8756760Y7306721I0J-23085D01*
G01*
X8904788Y7103482D02*
G03*
X8928100Y7159762I-56279J56279D01*
G01*
X8903559Y7288941D02*
G03*
X8903506Y7288994I-59248J-59248D01*
G01*
X8903611Y7288889D02*
G03*
X8903559Y7288941I-59301J-59196D01*
G01*
X8774594Y7102137D02*
G03*
X8774639Y7102092I53033J53033D01*
G01*
X8509667Y7154113D02*
G03*
X8494981Y7148030I0J-20770D01*
G01*
X8480294Y7141947D02*
G03*
X8494981Y7148030I0J20770D01*
G01*
X8480294Y7141947D02*
G03*
X8469632Y7136350I0J-12954D01*
G01*
X8451624Y7112247D02*
G03*
X8460254Y7122759I-58562J56878D01*
G01*
X8451553Y7112169D02*
G03*
X8446976Y7106284I28047J-26532D01*
G01*
X8434210Y7086666D02*
G03*
X8435930Y7088831I-9226J9093D01*
G01*
X8392380Y7044835D02*
G03*
X8392372Y7044826I18080J-18200D01*
G01*
D02*
G03*
X8392321Y7044775I18089J-18191D01*
G01*
X8386328Y7041375D02*
G03*
X8392321Y7044775I-3167J12561D01*
G01*
X8489771Y7110621D02*
G03*
X8479396Y7105424I0J-12954D01*
G01*
X8470214Y7094567D02*
G03*
X8479396Y7105424I-77152J74557D01*
G01*
X8470129Y7094476D02*
G03*
X8468653Y7092565I9470J-8839D01*
G01*
X8452385Y7068560D02*
G03*
X8457607Y7075112I-27401J27199D01*
G01*
X8452372Y7068547D02*
G03*
X8452385Y7068560I-27388J27212D01*
G01*
X8410461Y7026635D02*
G03*
X8407060Y7020643I9160J-9160D01*
G01*
X8784504Y6807040D02*
G03*
X8787905Y6813032I-9160J9160D01*
G01*
X8784504Y6807039D02*
G03*
X8782910Y6805346I27300J-27300D01*
G01*
X8746611Y6764403D02*
G03*
X8746871Y6764680I-9320J8997D01*
G01*
X8745865Y6763631D02*
G03*
X8736708Y6752794I77193J-74515D01*
G01*
X8721140Y6748031D02*
G03*
X8706454Y6754114I-14686J-14686D01*
G01*
X8726350Y6747619D02*
G03*
X8736708Y6752794I0J12955D01*
G01*
X8808637Y6792300D02*
G03*
X8802109Y6788331I3168J-12561D01*
G01*
X8765069Y6746587D02*
G03*
X8766123Y6747723I-27778J26813D01*
G01*
X8764387Y6745880D02*
G03*
X8755929Y6735573I58671J-56765D01*
G01*
X8735826Y6716293D02*
G03*
X8746488Y6721890I0J12954D01*
G01*
X8735826Y6716293D02*
G03*
X8721140Y6710210I0J-20770D01*
G01*
X8706454Y6704127D02*
G03*
X8721140Y6710210I0J20770D01*
G01*
X8366920Y6795683D02*
G03*
X8360928Y6799084I-9160J-9160D01*
G01*
X8366920Y6795684D02*
G03*
X8366938Y6795666I27300J27300D01*
G01*
X8494950Y6710240D02*
G03*
X8480294Y6716293I-14656J-14717D01*
G01*
X8469577Y6721971D02*
G03*
X8480294Y6716293I10718J7276D01*
G01*
X8495011Y6710180D02*
G03*
X8509667Y6704127I14656J14717D01*
G01*
X8366943Y6795661D02*
G03*
X8376949Y6788454I27277J27323D01*
G01*
X8509667Y6754114D02*
G03*
X8494981Y6748031I0J-20770D01*
G01*
X8479296Y6752951D02*
G03*
X8489771Y6747619I10474J7622D01*
G01*
X8385081Y6813802D02*
G03*
X8385060Y6813824I-9091J-9049D01*
G01*
X8381659Y6819816D02*
G03*
X8385060Y6813824I12561J3167D01*
G01*
X8385088Y6813796D02*
G03*
X8388425Y6811398I9132J9188D01*
G01*
X8494981Y6710210D02*
G03*
X8494950Y6710240I-14686J-14686D01*
G01*
X8494981Y6710210D02*
G03*
X8495011Y6710180I14686J14686D01*
G01*
X8450855Y6746774D02*
G03*
X8450720Y6746909I-57793J-57659D01*
G01*
X8460254Y6735481D02*
G03*
X8450855Y6746774I-67192J-46366D01*
G01*
X8450720Y6746909D02*
G03*
X8429581Y6762128I-57659J-57793D01*
G01*
X8479296Y6752951D02*
G03*
X8469058Y6764851I-86234J-63836D01*
G01*
X8468798Y6765112D02*
G03*
X8441057Y6785073I-75736J-75996D01*
G01*
X8469058Y6764851D02*
G03*
X8468798Y6765112I-75996J-75736D01*
G01*
X7085187Y6659880D02*
G03*
X7152640Y6687820I-0J95393D01*
G01*
X4850140Y7155755D02*
G03*
X4873403Y7146119I23263J23263D01*
G01*
X4786801Y7186407D02*
G03*
X4770203Y7193280I-16598J-16604D01*
G01*
X4786804Y7186403D02*
G03*
X4786801Y7186407I-16601J-16601D01*
G01*
X4833745Y7129023D02*
G03*
X4826363Y7146844I-25204J0D01*
G01*
X4753601Y7200157D02*
G03*
X4753604Y7200153I16601J16601D01*
G01*
D02*
G03*
X4770203Y7193280I16598J16604D01*
G01*
X4762552Y7223893D02*
G03*
X4762555Y7223890I16601J16601D01*
G01*
D02*
G03*
X4779154Y7217017I16598J16604D01*
G01*
X4795752Y7210143D02*
G03*
X4779154Y7217017I-16598J-16604D01*
G01*
X4795755Y7210140D02*
G03*
X4795752Y7210143I-16601J-16601D01*
G01*
X4527666Y7351807D02*
G03*
X4457675Y7322795I0J-98931D01*
G01*
X4408643Y7302500D02*
G03*
X4457675Y7322795I0J69377D01*
G01*
X4413595Y7272020D02*
G03*
X4471504Y7295983I0J81951D01*
G01*
X4550472Y7328693D02*
G03*
X4471504Y7295983I0J-111678D01*
G01*
X4668557Y7317889D02*
G03*
X4586592Y7351807I-81965J-82077D01*
G01*
X4668613Y7317833D02*
G03*
X4668557Y7317889I-82021J-82021D01*
G01*
X4652269Y7301489D02*
G03*
X4586592Y7328693I-65677J-65677D01*
G01*
X4044620Y7321640D02*
G03*
X4090848Y7302500I46228J46255D01*
G01*
X4044606Y7321654D02*
G03*
X4044620Y7321640I46242J46242D01*
G01*
X4220014Y7253274D02*
G03*
X4219960Y7253220I45333J-45441D01*
G01*
X4265348Y7272020D02*
G03*
X4220014Y7253274I0J-64187D01*
G01*
X7876234Y3317546D02*
G03*
X8073668Y3235853I197434J197731D01*
G01*
X7649941Y3659580D02*
G03*
X7731634Y3462147I279424J0D01*
G01*
X8448227Y3227525D02*
G03*
X8428093Y3235853I-20134J-20173D01*
G01*
X7227215Y6239918D02*
G03*
X7047610Y6314313I-179605J-179605D01*
G01*
X6365520D02*
G03*
X6356359Y6310519I0J-12955D01*
G01*
D02*
G03*
X6352565Y6301358I9160J-9160D01*
G01*
X6347498Y6287256D02*
G03*
X6352565Y6299524I-12317J12268D01*
G01*
X6347473Y6287231D02*
G03*
X6347498Y6287256I-12292J12292D01*
G01*
X7632415Y5249895D02*
G03*
X7632460Y5249940I-86284J86284D01*
G01*
X7668154Y5693769D02*
G03*
X7593760Y5873374I-254000J0D01*
G01*
X7649941Y4543697D02*
G03*
X7615699Y4626381I-116950J0D01*
G01*
X7581646Y4708574D02*
G03*
X7615620Y4626460I116221J0D01*
G01*
X7632411Y5249891D02*
G03*
X7581646Y5127334I122557J-122557D01*
G01*
X7675595Y3659676D02*
G03*
X7749990Y3480071I254000J0D01*
G01*
X7650764Y5231964D02*
G03*
X7693808Y5335881I-103917J103917D01*
G01*
X7894158Y3335902D02*
G03*
X8073764Y3261507I179605J179605D01*
G01*
X8428093D02*
G03*
X8448227Y3269835I0J28501D01*
G01*
X6352565Y6352922D02*
G03*
X6356359Y6343761I12955J0D01*
G01*
D02*
G03*
X6365520Y6339967I9160J9160D01*
G01*
X6347498Y6367024D02*
G03*
X6347473Y6367049I-12317J-12268D01*
G01*
X6352565Y6354756D02*
G03*
X6347498Y6367024I-17384J0D01*
G01*
X7693808Y5694106D02*
G03*
X7612138Y5891275I-278840J0D01*
G01*
X7675595Y4543868D02*
G03*
X7633948Y4644411I-142189J0D01*
G01*
X7245027Y6258386D02*
G03*
X7048072Y6339967I-196955J-196955D01*
G01*
X7607300Y4708724D02*
G03*
X7633933Y4644427I90930J0D01*
G01*
X7650764Y5231964D02*
G03*
X7607300Y5127032I104932J-104932D01*
G01*
X7876086Y3317694D02*
G03*
X7876234Y3317546I197582J197582D01*
G01*
X7731634Y3462147D02*
G03*
X7731782Y3461998I197731J197434D01*
G01*
X8448246Y3227505D02*
G03*
X8448227Y3227525I-20153J-20153D01*
G01*
X8448247Y3227505D02*
G03*
X8460740Y3222330I12494J12494D01*
G01*
X7632460Y5249940D02*
G03*
X7668154Y5336178I-86329J86238D01*
G01*
X7615620Y4626460D02*
G03*
X7615687Y4626393I82248J82114D01*
G01*
X8460740Y3275030D02*
G03*
X8448247Y3269855I0J-17669D01*
G01*
X8448227Y3269835D02*
G03*
X8448246Y3269855I-20134J20173D01*
G01*
X7490587Y7144081D02*
G03*
X7419340Y7215328I-71247J0D01*
G01*
X6527800D02*
G03*
X6439539Y7193213I0J-187184D01*
G01*
X7419340Y7067550D02*
G03*
X7490587Y7138797I0J71247D01*
G01*
X6273242Y7071106D02*
G03*
X6329238Y7094300I0J79190D01*
G01*
X5656336Y7223866D02*
G03*
X5606043Y7203084I0J-71247D01*
G01*
X6031429Y7203245D02*
G03*
X5981298Y7223866I-50131J-50626D01*
G01*
X5455936Y7052978D02*
G03*
X5455963Y7053004I-18164J18116D01*
G01*
X5455912Y7052953D02*
G03*
X5455936Y7052978I-68519J68520D01*
G01*
X5455912Y7052953D02*
G03*
X5439000Y7025983I50379J-50379D01*
G01*
X6143915Y7090759D02*
G03*
X6191361Y7071106I47446J47446D01*
G01*
X6527558Y7240982D02*
G03*
X6424226Y7214131I0J-212253D01*
G01*
X7516241Y7144081D02*
G03*
X7419340Y7240982I-96901J0D01*
G01*
X7516241Y7138797D02*
G03*
X7587488Y7067550I71247J0D01*
G01*
X6262616Y7096760D02*
G03*
X6318560Y7119902I0J79190D01*
G01*
X5656336Y7249520D02*
G03*
X5587919Y7221240I0J-96901D01*
G01*
X6049410Y7221543D02*
G03*
X5981298Y7249520I-68112J-68924D01*
G01*
X5437823Y7071144D02*
G03*
X5437796Y7071117I18089J-18191D01*
G01*
D02*
G03*
X5437772Y7071093I68495J-68543D01*
G01*
X5410920Y7054222D02*
G03*
X5437772Y7071093I-23528J67250D01*
G01*
X6154541Y7116413D02*
G03*
X6201987Y7096760I47446J47447D01*
G01*
X6424226Y7214131D02*
G03*
X6377473Y7178815I103332J-185402D01*
G01*
X6439539Y7193213D02*
G03*
X6395441Y7160503I88262J-165069D01*
G01*
X6042680Y7052943D02*
G03*
X5988482Y7073314I-54198J-61915D01*
G01*
X6046667Y7049213D02*
G03*
X6045600Y7050260I-58185J-58185D01*
G01*
X6103483Y6960597D02*
G03*
X6082650Y7013229I-71211J2253D01*
G01*
X5742534Y7140337D02*
G03*
X5740822Y7140317I0J-71247D01*
G01*
X5700117Y7126335D02*
G03*
X5692052Y7119367I42417J-57245D01*
G01*
X5920740Y7106920D02*
G03*
X5840064Y7140337I-80676J-80676D01*
G01*
X5540959Y6968274D02*
G03*
X5523953Y6941030I50379J-50379D01*
G01*
X5930396Y7097264D02*
G03*
X5988347Y7073314I57951J58134D01*
G01*
X5930305Y7097356D02*
G03*
X5930396Y7097264I58043J58043D01*
G01*
X6053263Y7078633D02*
G03*
X5999082Y7098968I-54180J-62014D01*
G01*
X5938638Y7125302D02*
G03*
X5840405Y7165991I-98233J-98233D01*
G01*
X6100790Y7031370D02*
G03*
X6153484Y7010539I50379J50379D01*
G01*
X5742534Y7165991D02*
G03*
X5740355Y7165967I0J-96901D01*
G01*
X5723010Y7165577D02*
G03*
X5698783Y7157276I951J-42280D01*
G01*
X5684844Y7146947D02*
G03*
X5673924Y7137519I57690J-77857D01*
G01*
D02*
G03*
X5673905Y7137500I68610J-68428D01*
G01*
X5522871Y6986465D02*
G03*
X5522844Y6986438I18089J-18191D01*
G01*
X5495575Y6969407D02*
G03*
X5522820Y6986414I-23135J67386D01*
G01*
X5948349Y7115591D02*
G03*
X5988482Y7098968I40133J40133D01*
G01*
X6056203Y7075936D02*
G03*
X6053263Y7078633I-57121J-59316D01*
G01*
X6056226Y7075914D02*
G03*
X6056203Y7075936I-57143J-59295D01*
G01*
X6057311Y7074848D02*
G03*
X6057183Y7074976I-58229J-58229D01*
G01*
D02*
G03*
X6056226Y7075914I-58101J-58357D01*
G01*
X6100790Y7031370D02*
G03*
X6100734Y7031426I-68519J-68520D01*
G01*
D02*
G03*
X6100716Y7031444I-18084J-18197D01*
G01*
X5522844Y6986438D02*
G03*
X5522820Y6986414I68495J-68543D01*
G01*
X6045600Y7050260D02*
G03*
X6042680Y7052943I-57118J-59232D01*
G01*
X5723587Y7139929D02*
G03*
X5714056Y7136663I375J-16633D01*
G01*
X3992880Y7338060D02*
G03*
X3992514Y7342258I-24394J-13D01*
G01*
X5770172Y6904551D02*
G03*
X5770169Y6904548I11296J-11302D01*
G01*
X5781468Y6909228D02*
G03*
X5770172Y6904551I0J-15980D01*
G01*
X4792598Y6953749D02*
G03*
X4805091Y6958924I0J17668D01*
G01*
X4754616Y6977090D02*
G03*
X4758217Y6968370I12358J0D01*
G01*
X4754616Y6977090D02*
G03*
X4751014Y6985810I-12358J0D01*
G01*
X4758217Y6968370D02*
G03*
X4758235Y6968352I8757J8720D01*
G01*
X4751014Y6985810D02*
G03*
X4750996Y6985828I-8757J-8720D01*
G01*
X4769467Y6957120D02*
G03*
X4778614Y6953338I9147J9172D01*
G01*
X4769455Y6957132D02*
G03*
X4769467Y6957120I9159J9159D01*
G01*
X4779507Y6923274D02*
G03*
X4768860Y6927684I-10647J-10647D01*
G01*
X4791840Y6910941D02*
G03*
X4803140Y6906260I11300J11300D01*
G01*
X4740077Y6950230D02*
G03*
X4731356Y6953831I-8721J-8756D01*
G01*
X4722636Y6957433D02*
G03*
X4731356Y6953831I8720J8757D01*
G01*
X4740095Y6950212D02*
G03*
X4740077Y6950230I-8738J-8739D01*
G01*
X4722618Y6957451D02*
G03*
X4722636Y6957433I8738J8739D01*
G01*
X4764767Y6929357D02*
G03*
X4767148Y6928267I6558J11173D01*
G01*
X4755625Y6934682D02*
G03*
X4759242Y6932168I9093J9226D01*
G01*
X4764767Y6929357D02*
G03*
X4760996Y6931350I-20164J-33589D01*
G01*
X8032703Y5486153D02*
G03*
X8114395Y5288719I279424J0D01*
G01*
X6436783Y7306165D02*
G03*
X6396176Y7289345I0J-57428D01*
G01*
X7983152Y7256848D02*
G03*
X7863925Y7306165I-119227J-119462D01*
G01*
X6342517Y7264273D02*
G03*
X6391318Y7284487I0J69014D01*
G01*
X6324880Y7264273D02*
G03*
X6315719Y7260479I0J-12955D01*
G01*
X8032703Y7137389D02*
G03*
X7983269Y7256731I-168776J0D01*
G01*
X6315719Y7260479D02*
G03*
X6311925Y7251318I9160J-9160D01*
G01*
X6306858Y7237216D02*
G03*
X6311925Y7249484I-12317J12268D01*
G01*
X6306833Y7237191D02*
G03*
X6306858Y7237216I-12292J12292D01*
G01*
X8168834Y5234281D02*
G03*
X8333067Y5166253I164233J164233D01*
G01*
X8058357Y5486248D02*
G03*
X8132751Y5306643I254000J0D01*
G01*
X8058357Y7137569D02*
G03*
X8001565Y7274715I-193993J0D01*
G01*
X6436583Y7331819D02*
G03*
X6378302Y7307750I0J-82597D01*
G01*
X6311925Y7304716D02*
G03*
X6306858Y7316984I-17384J0D01*
G01*
D02*
G03*
X6306833Y7317009I-12317J-12268D01*
G01*
X7993778Y7282502D02*
G03*
X7874551Y7331819I-119227J-119462D01*
G01*
X6342380Y7289927D02*
G03*
X6373237Y7302686I0J43693D01*
G01*
X6311925Y7302882D02*
G03*
X6315719Y7293721I12955J0D01*
G01*
D02*
G03*
X6324880Y7289927I9160J9160D01*
G01*
X8179522Y5259872D02*
G03*
X8343693Y5191907I164171J164296D01*
G01*
X8179459Y5259935D02*
G03*
X8179522Y5259872I164234J164234D01*
G01*
X8114395Y5288719D02*
G03*
X8114544Y5288570I197731J197434D01*
G01*
X7983270Y7256731D02*
G03*
X7983152Y7256848I-119344J-119345D01*
G01*
X8001565Y7274715D02*
G03*
X8001537Y7274743I-137202J-137146D01*
G01*
X6378302Y7307750D02*
G03*
X6378177Y7307627I58281J-58529D01*
G01*
X7993896Y7282385D02*
G03*
X7993778Y7282502I-119344J-119345D01*
G01*
X6373237Y7302686D02*
G03*
X6373276Y7302724I-30857J30934D01*
G01*
X5597694Y7345934D02*
G03*
X5504449Y7307319I0J-131886D01*
G01*
X6088196Y7317924D02*
G03*
X6020574Y7345934I-67621J-67622D01*
G01*
X6092755Y7313365D02*
G03*
X6149340Y7289927I56586J56586D01*
G01*
X6171924D02*
G03*
X6181085Y7293721I0J12955D01*
G01*
X6189946Y7316984D02*
G03*
X6184879Y7304716I12317J-12268D01*
G01*
X6189971Y7317009D02*
G03*
X6189946Y7316984I12292J-12292D01*
G01*
X5603493Y7320280D02*
G03*
X5518614Y7285203I0J-120233D01*
G01*
X6070240Y7299600D02*
G03*
X6020314Y7320280I-49926J-49926D01*
G01*
X6074732Y7295108D02*
G03*
X6149175Y7264273I74443J74443D01*
G01*
X6181085Y7260479D02*
G03*
X6171924Y7264273I-9160J-9160D01*
G01*
X6184879Y7251318D02*
G03*
X6181085Y7260479I-12955J0D01*
G01*
X6184879Y7249484D02*
G03*
X6189946Y7237216I17384J0D01*
G01*
X5518614Y7285203D02*
G03*
X5518475Y7285065I84879J-85156D01*
G01*
X6181085Y7293721D02*
G03*
X6184879Y7302882I-9160J9160D01*
G01*
X7287514Y6917690D02*
G03*
X7216267Y6846443I0J-71247D01*
G01*
X7216107Y6840882D02*
G03*
X7216267Y6846443I-96741J5561D01*
G01*
X7202207Y6714884D02*
G03*
X7211018Y6750159I-87938J40704D01*
G01*
X7201514Y6713386D02*
G03*
X7201514Y6713387I-17403J8056D01*
G01*
X5885580Y7003171D02*
G03*
X5835361Y7023880I-50219J-50539D01*
G01*
X5795803D02*
G03*
X5745510Y7003098I0J-71247D01*
G01*
X5625740Y6883328D02*
G03*
X5625678Y6883266I50278J-50481D01*
G01*
X5625663Y6883250D02*
G03*
X5625678Y6883266I-18165J18116D01*
G01*
X5625638Y6883226D02*
G03*
X5625663Y6883250I-68519J68519D01*
G01*
X5625638Y6883226D02*
G03*
X5608726Y6856256I50380J-50379D01*
G01*
X7170848Y6669747D02*
G03*
X7201448Y6713245I-109653J109653D01*
G01*
X7085322Y6634226D02*
G03*
X7170684Y6669584I0J120720D01*
G01*
X6226247Y6662506D02*
G03*
X6294664Y6634226I68417J68621D01*
G01*
X7190501Y6842452D02*
G03*
X7119366Y6917690I-71135J3991D01*
G01*
X7178926Y6725660D02*
G03*
X7185404Y6751596I-64657J29928D01*
G01*
X7178229Y6724198D02*
G03*
X7178851Y6725499I-63970J31369D01*
G01*
X7152640Y6687820D02*
G03*
X7178229Y6724198I-91675J91675D01*
G01*
X5795803Y7049534D02*
G03*
X5727386Y7021254I0J-96901D01*
G01*
X5903664Y7021368D02*
G03*
X5835361Y7049534I-68303J-68735D01*
G01*
X5607616Y6901484D02*
G03*
X5607498Y6901366I68402J-68636D01*
G01*
X5580528Y6884454D02*
G03*
X5607498Y6901366I-23409J67291D01*
G01*
X6244371Y6680661D02*
G03*
X6294664Y6659880I50293J50466D01*
G01*
X6911105Y6996361D02*
G03*
X6921727Y6952330I96901J80D01*
G01*
X6911105Y6996362D02*
G03*
X6839858Y7067550I-71247J-59D01*
G01*
X6836966Y6746710D02*
G03*
X6891020Y6769100I0J76445D01*
G01*
X6243320Y6920703D02*
G03*
X6264150Y6868010I71209J-2314D01*
G01*
X6364669Y6767491D02*
G03*
X6414962Y6746710I50293J50466D01*
G01*
X7003080Y7067518D02*
G03*
X6944595Y6963956I4926J-71077D01*
G01*
X6246010Y6849870D02*
G03*
X6193377Y6870702I-50379J-50379D01*
G01*
X6246010Y6849870D02*
G03*
X6246101Y6849779I68520J68519D01*
G01*
X6837202Y6721056D02*
G03*
X6908993Y6750793I0J101528D01*
G01*
X6346544Y6749336D02*
G03*
X6414962Y6721056I68417J68621D01*
G01*
X6915937Y6794016D02*
G03*
X6935427Y6841070I-47053J47053D01*
G01*
X6929829Y6922943D02*
G03*
X6921727Y6952330I-76401J-5253D01*
G01*
X6264207Y6867953D02*
G03*
X6264150Y6868010I-68576J-68463D01*
G01*
X6264246Y6867914D02*
G03*
X6264207Y6867953I-18236J-18044D01*
G01*
X6955422Y6924703D02*
G03*
X6944595Y6963956I-101994J-7013D01*
G01*
X6941591Y6783390D02*
G03*
X6961081Y6830444I-47053J47053D01*
G01*
X6042904Y6339967D02*
G03*
X5976539Y6312538I0J-94002D01*
G01*
X5915447Y6278887D02*
G03*
X5962254Y6298254I0J66247D01*
G01*
X5663571Y6289139D02*
G03*
X5688401Y6278887I24831J24943D01*
G01*
X6212564Y6339967D02*
G03*
X6221725Y6343761I0J12955D01*
G01*
X6230586Y6367024D02*
G03*
X6225519Y6354756I12317J-12268D01*
G01*
X6230611Y6367049D02*
G03*
X6230586Y6367024I12292J-12292D01*
G01*
X6043151Y6314313D02*
G03*
X5994454Y6294173I0J-68944D01*
G01*
X5926073Y6253233D02*
G03*
X5972880Y6272600I0J66247D01*
G01*
X6221725Y6310519D02*
G03*
X6212564Y6314313I-9160J-9160D01*
G01*
X6225519Y6301358D02*
G03*
X6221725Y6310519I-12955J0D01*
G01*
X6230586Y6287256D02*
G03*
X6230611Y6287231I12317J12268D01*
G01*
X6225519Y6299524D02*
G03*
X6230586Y6287256I17384J0D01*
G01*
X5976539Y6312538D02*
G03*
X5976435Y6312434I66365J-66573D01*
G01*
X5962254Y6298254D02*
G03*
X5962290Y6298290I-46807J46880D01*
G01*
X5663514Y6289195D02*
G03*
X5663571Y6289139I24887J24887D01*
G01*
X5994454Y6294173D02*
G03*
X5994400Y6294120I48697J-48804D01*
G01*
X5972880Y6272600D02*
G03*
X5972916Y6272636I-46807J46880D01*
G01*
X5645499Y6270930D02*
G03*
X5645660Y6270770I42725J42725D01*
G01*
D02*
G03*
X5688049Y6253233I42565J42885D01*
G01*
D02*
G03*
X5688224Y6253232I175J60422D01*
G01*
X6221725Y6343761D02*
G03*
X6225519Y6352922I-9160J9160D01*
G01*
X8172891Y5545778D02*
Y7132075D01*
X8079370Y7341095D02*
X8091220Y7329245D01*
X5469889Y7419587D02*
X7889872D01*
X8660438Y5311267D02*
X8897099D01*
X8625227Y5330253D02*
X8632741Y5322739D01*
X8369429Y5349240D02*
X8579389D01*
X8147237Y5535152D02*
Y7131738D01*
X8361214Y5323586D02*
X8568763D01*
X8204801Y5396179D02*
X8218125Y5382856D01*
X5448889Y7385204D02*
X5448889Y7385205D01*
X8064646Y7319539D02*
X8072842Y7311343D01*
X5469961Y7393933D02*
X7885041D01*
X8614600Y5304599D02*
Y5304599D01*
X5219862Y7202695D02*
X5242423Y7225256D01*
X5252660D01*
X5430800Y7403396D01*
X8897099Y5311267D02*
X8910621Y5324790D01*
X8917940D01*
X5248239Y7174318D02*
X5270800Y7196879D01*
Y7207116D01*
X5448889Y7385204D01*
X8897099Y5285613D02*
X8910621Y5272090D01*
X8917940D01*
X8851900Y5285613D02*
X8897099D01*
X8660438D02*
X8663940D01*
X8813800D02*
X8851900D01*
X8788400Y5260213D02*
X8813800Y5285613D01*
X8750300Y5260213D02*
X8788400D01*
X8724900Y5285613D02*
X8750300Y5260213D01*
X8663940Y5285613D02*
X8724900D01*
X7293283Y6382630D02*
X7755561Y5920352D01*
X7837231Y5233854D02*
Y5723182D01*
X7860067Y4735258D02*
Y4783948D01*
X7856955Y3567965D02*
X7969658Y3455262D01*
X6047384Y6464300D02*
X7096113D01*
X5889350Y6370130D02*
X5938362Y6419142D01*
X7807265Y5161547D02*
X7807291Y5161573D01*
X7792425Y4947249D02*
Y5125720D01*
X7782560Y3747570D02*
Y4548141D01*
X8149263Y3380867D02*
X8699500D01*
X8882380D02*
X8885293D01*
X7811577Y5234104D02*
Y5722845D01*
X7834413Y4735538D02*
Y4783799D01*
X8149168Y3355213D02*
X8885293D01*
X7800540Y4865502D02*
X7800592Y4865450D01*
X6047669Y6438646D02*
X7095777D01*
X5907311Y6351811D02*
X5956301Y6400800D01*
X5831374Y6322060D02*
X5835487D01*
X7275382Y6364251D02*
X7737182Y5902450D01*
X7766771Y4947026D02*
Y5125932D01*
X7756906Y3747475D02*
Y4548420D01*
X5581876Y6540560D02*
X5731935Y6390502D01*
X5581876Y6540560D02*
Y6550798D01*
X5559315Y6573359D02*
X5581876Y6550798D01*
X8699500Y3380867D02*
X8737600D01*
X8763000Y3406267D01*
X8801100D01*
X8826500Y3380867D01*
X8882380D01*
X5563736Y6522420D02*
X5716524Y6369632D01*
X5553499Y6522420D02*
X5563736D01*
X5530938Y6544981D02*
X5553499Y6522420D01*
X7838748Y3549892D02*
X7951586Y3437054D01*
X8143321Y1527970D02*
X8445336D01*
X7999327Y1615541D02*
X8047001Y1567867D01*
X7754874Y1761432D02*
Y1828966D01*
X7858581Y1668351D02*
X7871832D01*
X8577255Y1473327D02*
X8885293D01*
X6153663Y6140624D02*
X6843805D01*
X5531015Y6103204D02*
X6063323D01*
X5304815Y6318858D02*
X5323756Y6299917D01*
X5330995Y6282441D02*
X5495536Y6117900D01*
X7594600Y2149910D02*
Y2342604D01*
X7327592Y2725111D02*
X7512930Y2539773D01*
X7668995Y1970305D02*
X7715658Y1923642D01*
X6979539Y6084401D02*
X7193822Y5870118D01*
X7259508Y2889480D02*
Y5711538D01*
X7981450Y1597138D02*
X8028959Y1549628D01*
X7848235Y1642697D02*
X7871460D01*
X8143182Y1502316D02*
X8444988D01*
X7650787Y1952232D02*
X7690004Y1913016D01*
X7568946Y2149815D02*
Y2342267D01*
X7729220Y1761297D02*
Y1818339D01*
X8576907Y1447673D02*
X8885293D01*
X6153897Y6114970D02*
X6843598D01*
X5530726Y6077550D02*
X6063557D01*
X5295379Y6271539D02*
X5295397Y6271521D01*
X5276437Y6290481D02*
X5295379Y6271539D01*
X5312856Y6264300D02*
X5359318Y6217838D01*
X7233854Y2889218D02*
Y5711281D01*
X7309267Y2707156D02*
X7494551Y2521872D01*
X5457108Y6120048D02*
X5477601Y6099555D01*
X5359318Y6217838D02*
X5457108Y6120048D01*
X5457108D01*
X6961545Y6066115D02*
X7010400Y6017260D01*
X7010400D02*
X7175500Y5852160D01*
X7010400Y6017260D02*
X7010400D01*
X5603493Y7320280D02*
X5638800D01*
X6189946Y7237216D02*
X6189971Y7237191D01*
X6203402Y7223760D01*
X7839535Y1963045D02*
X8043270Y1759310D01*
X6065976Y6220460D02*
X6951178D01*
X5636473Y6186213D02*
X5983297D01*
X5389588Y6403632D02*
X5408593Y6384627D01*
X5415705Y6367457D02*
X5569001Y6214161D01*
X7460388Y2773271D02*
X7683558Y2550101D01*
X7765140Y2142650D02*
Y2353145D01*
X7066514Y6172686D02*
X7304323Y5934877D01*
X7385994Y2952876D02*
Y5737707D01*
X8201022Y1693967D02*
X8428093D01*
X8025130Y1741170D02*
X8025272Y1741028D01*
X6066169Y6194806D02*
X6951000D01*
X5636297Y6160559D02*
X5983490D01*
X5361390Y6375434D02*
X5380395Y6356429D01*
X5397566Y6349316D02*
X5550986Y6195896D01*
X7442153Y2755227D02*
X7665091Y2532289D01*
X7739486Y2142555D02*
Y2352683D01*
X7048500Y6154420D02*
X7285945Y5916975D01*
X7360340Y2952741D02*
Y5737370D01*
X8200821Y1668313D02*
X8428093D01*
X7851140Y1915160D02*
X8025130Y1741170D01*
X7821328Y1944972D02*
X7851140Y1915160D01*
X7890490Y1534964D02*
X8003297Y1422157D01*
X7812082Y1567434D02*
X7812101D01*
X7719742Y1613836D02*
X7733661Y1599917D01*
X7673340Y1725860D02*
Y1729535D01*
X6374413Y6024760D02*
X6797758D01*
X6356367Y6051842D02*
X6356391Y6051817D01*
X6342935Y6065273D02*
X6356367Y6051842D01*
X6361458Y6037714D02*
Y6039549D01*
X7438969Y2131002D02*
Y2311336D01*
X7513363Y1951397D02*
X7629581Y1835179D01*
X7129798Y2841216D02*
Y5674548D01*
X6928048Y5970792D02*
X7062980Y5835860D01*
X7204193Y2661611D02*
X7357298Y2508506D01*
X8167923Y1353967D02*
X8428093D01*
X7872495Y1516679D02*
X7985157Y1404017D01*
X7560168Y1868313D02*
X7603927Y1824554D01*
X7647686Y1725747D02*
Y1729535D01*
X6374413Y5999106D02*
X6797529D01*
X6910070Y5952490D02*
X7044690Y5817870D01*
X6361458Y5984316D02*
Y5986151D01*
X6356367Y5972024D02*
X6356391Y5972049D01*
X6342935Y5958593D02*
X6356367Y5972024D01*
X7413315Y2130906D02*
Y2310999D01*
X7104144Y2841121D02*
Y5674336D01*
X7185985Y2643539D02*
X7338920Y2490604D01*
X8167923Y1328313D02*
X8428093D01*
X7701522Y1595776D02*
X7715652Y1581646D01*
X7560167Y1868313D02*
X7560168D01*
X7495156Y1933324D02*
X7560167Y1868313D01*
X5242423Y6201286D02*
X5409602Y6034107D01*
X5431861Y6024887D02*
X5771782D01*
X5771908Y6024760D02*
X6221457D01*
X6249125Y6069083D02*
X6252935Y6072893D01*
X6234412Y6037714D02*
Y6039549D01*
X6239504Y6051842D02*
X6252935Y6065273D01*
X6239479Y6051817D02*
X6239504Y6051842D01*
X5431726Y5999233D02*
X5761156D01*
X5761282Y5999106D02*
X6221457D01*
X6234412Y5984316D02*
Y5986151D01*
X6239504Y5972024D02*
X6252935Y5958593D01*
X6239479Y5972049D02*
X6239504Y5972024D01*
X5242423Y6201286D02*
Y6211344D01*
X5219862Y6233905D02*
X5242423Y6211344D01*
X5771782Y6024887D02*
X5771908Y6024760D01*
X5214225Y6183146D02*
X5224283D01*
X5191664Y6205707D02*
X5214225Y6183146D01*
X5224283D02*
X5391558Y6015871D01*
X5761156Y5999233D02*
X5761282Y5999106D01*
X4653855Y6903004D02*
X4705371Y6851489D01*
X4712133Y6844727D02*
X4723939D01*
X4705480Y6851380D02*
X4712133Y6844727D01*
X4655219Y6909025D02*
Y6909398D01*
X4647101Y6919817D02*
X4653601Y6913317D01*
X4674267Y6846312D02*
X4674268D01*
X4674267D02*
X4687232Y6833347D01*
X4651522Y6869058D02*
X4674267Y6846312D01*
X4674268D02*
X4693993Y6826587D01*
X4625404Y6885118D02*
X4641464Y6869058D01*
X4651522D01*
X4635716Y6884864D02*
X4651522Y6869058D01*
X4693993Y6814781D02*
Y6817024D01*
Y6826587D01*
Y6807462D02*
X4699168Y6802288D01*
X4693993Y6807462D02*
Y6814781D01*
X8446137Y5538145D02*
X8448246Y5540255D01*
X8402367Y5551795D02*
X8416017Y5538145D01*
X5388521Y7503407D02*
X7964173D01*
X8161128Y7421826D02*
X8197881Y7385073D01*
X8382478Y5599810D02*
Y5763726D01*
X8279551Y6012214D02*
Y7187904D01*
X8425764Y5506253D02*
X8430336D01*
X8446660Y5499491D02*
X8448246Y5497905D01*
X5388681Y7477753D02*
X7963711D01*
X8143316Y7403359D02*
X8179503Y7367172D01*
X5185847Y7291890D02*
X5359710Y7465753D01*
X8356824Y5599633D02*
Y5761713D01*
X8253897Y6010201D02*
Y7187567D01*
X5167707Y7310030D02*
X5341684Y7484007D01*
X5157649Y7310030D02*
X5167707D01*
X5135088Y7287469D02*
X5157649Y7310030D01*
X8384102Y5533780D02*
X8401634Y5516248D01*
X5185847Y7281832D02*
Y7291890D01*
X5163286Y7259271D02*
X5185847Y7281832D01*
X7884160Y3932990D02*
Y4321290D01*
X7958555Y4500895D02*
X8009159Y4551498D01*
X7958555Y3753385D02*
X8036039Y3675902D01*
X7389152Y6476953D02*
X7850205Y6015900D01*
X7931875Y5265661D02*
Y5818731D01*
X8215644Y3601507D02*
X8428093D01*
X7981950Y5144770D02*
X8005025Y5121695D01*
X8059314Y4672584D02*
Y4990629D01*
X6045200Y6558534D02*
X7192197D01*
X7858506Y3929909D02*
Y4321425D01*
X7938130Y3737530D02*
X8017966Y3657694D01*
X7940319Y4518939D02*
X7990795Y4569415D01*
X7963652Y5126788D02*
X7986596Y5103845D01*
Y5103844D02*
Y5103845D01*
X7906221Y5265438D02*
Y5818393D01*
X5723003Y6532880D02*
X7191735D01*
X7371340Y6458485D02*
X7831826Y5997999D01*
X8033660Y4672900D02*
Y4990221D01*
X8215548Y3575853D02*
X8428093D01*
X5638452Y6607373D02*
X5648510D01*
X5723003Y6532880D01*
X5615891Y6629934D02*
X5638452Y6607373D01*
X5666650Y6625514D02*
Y6635571D01*
Y6625514D02*
X5733629Y6558534D01*
X5644089Y6658132D02*
X5666650Y6635571D01*
X5733629Y6558534D02*
X5798820D01*
X5836920D01*
X5862320Y6583934D01*
X5900420D01*
X5925820Y6558534D01*
X6045200D01*
X8953754Y7159533D02*
Y7230022D01*
X8921466Y7307314D02*
X8921931Y7306849D01*
X8915414Y7077828D02*
X8923090Y7085504D01*
X8825245Y7054516D02*
X8859134D01*
X8687913Y7100872D02*
X8713333D01*
X8755174Y7347485D02*
X8756760Y7345898D01*
X8773084Y7339137D02*
X8844639D01*
X8928100Y7159762D02*
Y7229693D01*
X8827627Y7080170D02*
X8848508D01*
X8680057Y7154113D02*
X8695728D01*
X8728724Y7140446D02*
X8728860Y7140310D01*
X8755174Y7305135D02*
X8756760Y7306721D01*
X8773084Y7313483D02*
X8844310D01*
X8752626Y7124105D02*
X8774594Y7102137D01*
X8730659Y7138833D02*
X8735239Y7135763D01*
X8752626Y7124105D01*
X8509667Y7154113D02*
X8536064D01*
X8460254Y7122759D02*
X8469632Y7136350D01*
X8451553Y7112169D02*
X8451624Y7112247D01*
X8435930Y7088831D02*
X8446976Y7106284D01*
X8434206Y7086661D02*
X8434210Y7086666D01*
X8392380Y7044835D02*
X8434206Y7086661D01*
X8392372Y7044826D02*
X8392380Y7044835D01*
X8364220Y7035800D02*
X8386328Y7041374D01*
X8489771Y7110621D02*
X8492541D01*
X8470129Y7094476D02*
X8470214Y7094567D01*
X8457607Y7075112D02*
X8468653Y7092565D01*
X8452372Y7068547D02*
X8452385Y7068560D01*
X8410461Y7026635D02*
X8452372Y7068547D01*
X8401485Y6998535D02*
X8407060Y7020643D01*
X8492541Y7110621D02*
X8494086Y7111104D01*
X8746871Y6764680D02*
X8746923Y6764738D01*
X8745865Y6763631D02*
X8746611Y6764403D01*
X8721140Y6748031D02*
X8723579Y6747619D01*
X8726350D01*
X8680057Y6754114D02*
X8706454D01*
X8800447Y6786456D02*
X8802109Y6788331D01*
X8766123Y6747723D02*
X8793984Y6779162D01*
X8764387Y6745880D02*
X8765069Y6746587D01*
X8746488Y6721890D02*
X8755929Y6735573D01*
X8680057Y6704127D02*
X8706454D01*
X8787905Y6813032D02*
X8793480Y6835140D01*
X8773567Y6794804D02*
X8782910Y6805346D01*
X8746923Y6764738D02*
X8773567Y6794804D01*
X8808637Y6792300D02*
X8830745Y6797875D01*
X8793984Y6779162D02*
X8800447Y6786456D01*
X8460254Y6735481D02*
X8469563Y6721991D01*
X8469577Y6721971D01*
X8509667Y6704127D02*
X8536064D01*
X8376949Y6788454D02*
X8412339Y6770752D01*
X8366938Y6795666D02*
X8366943Y6795660D01*
X8509667Y6754114D02*
X8536064D01*
X8492541Y6747619D02*
X8494981Y6748031D01*
X8489771Y6747619D02*
X8492541D01*
X8385081Y6813802D02*
X8385088Y6813796D01*
X8376085Y6841925D02*
X8381659Y6819816D01*
X8388425Y6811398D02*
X8400055Y6805581D01*
X8338820Y6804660D02*
X8360928Y6799084D01*
X8412339Y6770752D02*
X8429581Y6762128D01*
X8400055Y6805581D02*
X8418397Y6796406D01*
X8441057Y6785072D01*
X8465820Y6955483D02*
X8466492Y6954811D01*
X8535392D01*
X8536064Y6954139D01*
X8680735Y6903448D02*
X8749622D01*
X8750300Y6902770D01*
X8680057Y6904126D02*
X8680735Y6903448D01*
X4486204Y6864650D02*
X4494896Y6855957D01*
X4467079Y6864650D02*
X4486204D01*
X4494896Y6855957D02*
Y6855957D01*
X4511388Y6829227D02*
Y6839465D01*
Y6829227D02*
X4533950Y6806666D01*
X4494896Y6855957D02*
X4511388Y6839465D01*
X4461904Y6869824D02*
X4467079Y6864650D01*
X8749622Y6954792D02*
X8750300Y6955470D01*
X8680735Y6954792D02*
X8749622D01*
X8680057Y6954114D02*
X8680735Y6954792D01*
X8535392Y6903455D02*
X8536064Y6904126D01*
X8466492Y6903455D02*
X8535392D01*
X8465820Y6902783D02*
X8466492Y6903455D01*
X4520550Y6866583D02*
Y6866583D01*
X4504344Y6882790D02*
X4520550Y6866583D01*
X4529529Y6857604D02*
X4539766D01*
X4562327Y6835043D01*
X4520550Y6866583D02*
X4529529Y6857604D01*
X4499169Y6907089D02*
X4504344Y6901914D01*
Y6882790D02*
Y6901914D01*
X6294664Y6659880D02*
X6893777D01*
X7023100D02*
X7061200D01*
X6996538Y6686442D02*
X7023100Y6659880D01*
X6958438Y6686442D02*
X6996538D01*
X6931877Y6659880D02*
X6958438Y6686442D01*
X6893777Y6659880D02*
X6931877D01*
X7061200D02*
X7085187D01*
X6596380Y6746710D02*
X6675120D01*
X6700520Y6772110D01*
X6738620D01*
X6764020Y6746710D01*
X6802120D01*
X6836966D01*
X6414962D02*
X6596380D01*
X7264451Y7215328D02*
X7305040D01*
X7239051Y7189928D02*
X7264451Y7215328D01*
X7200951Y7189928D02*
X7239051D01*
X7175551Y7215328D02*
X7200951Y7189928D01*
X7137451Y7215328D02*
X7175551D01*
X7112051Y7189928D02*
X7137451Y7215328D01*
X7073951Y7189928D02*
X7112051D01*
X7047255Y7216624D02*
X7073951Y7189928D01*
X7009155Y7216624D02*
X7047255D01*
X6982460Y7189928D02*
X7009155Y7216624D01*
X6944360Y7189928D02*
X6982460D01*
X6918960Y7215328D02*
X6944360Y7189928D01*
X6880860Y7215328D02*
X6918960D01*
X6527800D02*
X6880860D01*
X7305040D02*
X7419340D01*
X5765800Y7320280D02*
X5864860D01*
X5740400Y7294880D02*
X5765800Y7320280D01*
X5702300Y7294880D02*
X5740400D01*
X5676900Y7320280D02*
X5702300Y7294880D01*
X5638800Y7320280D02*
X5676900D01*
X5864860D02*
X6020314D01*
X4795755Y7210140D02*
X4850140Y7155755D01*
X4786801Y7186407D02*
X4786804Y7186403D01*
X4826363Y7146845D01*
X4753601Y7200157D02*
X4753604Y7200153D01*
X4652269Y7301489D02*
X4753601Y7200157D01*
X4762552Y7223893D02*
X4762555Y7223890D01*
X4674963Y7311483D02*
X4762552Y7223893D01*
X4795752Y7210143D02*
X4795755Y7210140D01*
X4527666Y7351807D02*
X4586592D01*
X4550472Y7328693D02*
X4586592D01*
X4668613Y7317832D02*
X4674963Y7311483D01*
X4090848Y7302500D02*
X4292601D01*
X4044606Y7321654D02*
X4044620Y7321640D01*
X3979000Y7387260D02*
X4044606Y7321654D01*
X4149000Y7182260D02*
X4219960Y7253220D01*
X4287520Y7272020D02*
X4413595D01*
X4265348D02*
X4287520D01*
X4292601Y7302500D02*
X4408643D01*
X8073668Y3235853D02*
X8428093D01*
X7668154Y5336178D02*
Y5693769D01*
X7649941Y3659580D02*
Y4543697D01*
X6365520Y6314313D02*
X7047610D01*
X6352565Y6299524D02*
Y6301358D01*
X6347473Y6287231D02*
X6347498Y6287256D01*
X6334042Y6273800D02*
X6347473Y6287231D01*
X7227215Y6239918D02*
X7593760Y5873374D01*
X7581646Y4708574D02*
Y5127334D01*
X7632411Y5249891D02*
X7632415Y5249895D01*
X7749990Y3480071D02*
X7894158Y3335902D01*
X7693808Y5335881D02*
Y5694106D01*
X7675595Y3659676D02*
Y4543868D01*
X8073764Y3261507D02*
X8428093D01*
X6352565Y6352922D02*
Y6354756D01*
X6365520Y6339967D02*
X7048072D01*
X6334042Y6380480D02*
X6347473Y6367049D01*
X6347498Y6367024D01*
X7633933Y4644427D02*
X7633948Y4644412D01*
X7245028Y6258386D02*
X7612138Y5891275D01*
X7607300Y4708724D02*
Y5127032D01*
X7731782Y3461998D02*
X7876086Y3317694D01*
X7490587Y7138797D02*
Y7144081D01*
X7403338Y7067550D02*
X7419340D01*
X6191361Y7071106D02*
X6273242D01*
X5656336Y7223866D02*
X5981298D01*
X5455963Y7053004D02*
X5606043Y7203084D01*
X5417787Y7004770D02*
X5439000Y7025983D01*
X6031428Y7203245D02*
X6143915Y7090758D01*
X6031428Y7203245D02*
X6031429Y7203245D01*
X6527558Y7240982D02*
X7419340D01*
X7516241Y7138797D02*
Y7144081D01*
X6318560Y7119902D02*
X6377473Y7178815D01*
X7587488Y7067550D02*
X7603490D01*
X6201987Y7096760D02*
X6262616D01*
X5656336Y7249520D02*
X5981298D01*
X5437823Y7071144D02*
X5587919Y7221240D01*
X5410801Y7054181D02*
X5410920Y7054222D01*
X6049410Y7221543D02*
X6154540Y7116413D01*
X5389588Y7032968D02*
X5410801Y7054181D01*
X6329238Y7094300D02*
X6395441Y7160503D01*
X6103481Y6960535D02*
X6103482Y6960597D01*
X6046667Y7049213D02*
X6082650Y7013229D01*
X5742534Y7140337D02*
X5840064D01*
X5540959Y6968274D02*
X5692052Y7119367D01*
X5502740Y6919817D02*
X5523953Y6941030D01*
X5920740Y7106920D02*
X5930305Y7097356D01*
X5988347Y7073314D02*
X5988482D01*
Y7098968D02*
X5999082D01*
X6153485Y7010539D02*
X6179681Y7010540D01*
X6153484Y7010539D02*
X6153485D01*
X5742534Y7165991D02*
X5840405D01*
X5684844Y7146947D02*
X5698783Y7157276D01*
X5522879Y6986474D02*
X5673905Y7137500D01*
X5522871Y6986465D02*
X5522879Y6986474D01*
X5474362Y6948195D02*
X5495575Y6969407D01*
X5938639Y7125302D02*
X5948349Y7115591D01*
X5931366Y7132574D02*
X5938639Y7125302D01*
X6057311Y7074848D02*
X6100716Y7031444D01*
X5723010Y7165576D02*
X5740355Y7165967D01*
X6103481Y6934340D02*
Y6960535D01*
X5723587Y7139929D02*
X5740822Y7140317D01*
X5700117Y7126335D02*
X5714056Y7136663D01*
X4290060Y7229940D02*
Y7269480D01*
X4287520Y7272020D02*
X4290060Y7269480D01*
Y7305040D02*
X4292601Y7302500D01*
X4290060Y7305040D02*
Y7346398D01*
X5770169Y6904548D02*
X5770172Y6904551D01*
X5644089Y6778468D02*
X5770169Y6904548D01*
X4784391Y6953749D02*
X4792598D01*
X4758217Y6968370D02*
X4758235Y6968352D01*
X4750996Y6985828D02*
X4751014Y6985810D01*
X4732055Y7004770D02*
X4750996Y6985828D01*
X4778614Y6953338D02*
X4783980D01*
X4769455Y6957132D02*
X4769467Y6957120D01*
X4758235Y6968352D02*
X4769455Y6957132D01*
X4779507Y6923274D02*
X4791840Y6910941D01*
X4740077Y6950230D02*
X4740095Y6950212D01*
X4722618Y6957451D02*
X4722636Y6957433D01*
X4703676Y6976392D02*
X4722618Y6957451D01*
X4759242Y6932168D02*
X4760996Y6931350D01*
X4767148Y6928267D02*
X4768860Y6927684D01*
X4740095Y6950212D02*
X4755625Y6934682D01*
X4783980Y6953338D02*
X4784391Y6953749D01*
X8533006Y6851055D02*
X8536064Y6854114D01*
X8468915Y6851055D02*
X8533006D01*
X8465856Y6847997D02*
X8468915Y6851055D01*
X8680057Y7004126D02*
X8682078Y7006148D01*
X8748278D01*
X8750300Y7008170D01*
X8333067Y5166253D02*
X8439899D01*
X8032703Y5486153D02*
Y7137389D01*
X6436783Y7306165D02*
X7863925D01*
X6391318Y7284487D02*
X6396176Y7289345D01*
X6324880Y7264273D02*
X6342517D01*
X6311925Y7249484D02*
Y7251318D01*
X6306833Y7237191D02*
X6306858Y7237216D01*
X6293402Y7223760D02*
X6306833Y7237191D01*
X8114544Y5288570D02*
X8168834Y5234281D01*
X8058357Y5486248D02*
Y7137569D01*
X8343693Y5191907D02*
X8439899D01*
X6436583Y7331819D02*
X7874551D01*
X6311925Y7302882D02*
Y7304716D01*
X6306833Y7317009D02*
X6306858Y7316984D01*
X6293402Y7330440D02*
X6306833Y7317009D01*
X6324880Y7289927D02*
X6342380D01*
X8439899Y5166253D02*
X8453421Y5152730D01*
X8460740D01*
X8453421Y5205430D02*
X8460740D01*
X7993895Y7282385D02*
X8001537Y7274743D01*
X8439899Y5191907D02*
X8453421Y5205430D01*
X6373276Y7302724D02*
X6378178Y7307626D01*
X8132751Y5306643D02*
X8179459Y5259935D01*
X5599175Y7345934D02*
X6020574D01*
X5337434Y7140303D02*
X5504449Y7307319D01*
X6088196Y7317924D02*
X6092755Y7313365D01*
X6149340Y7289927D02*
X6171924D01*
X6184879Y7302882D02*
Y7304716D01*
X6189971Y7317009D02*
X6203402Y7330440D01*
X6189946Y7316984D02*
X6189971Y7317009D01*
X6149175Y7264273D02*
X6171924D01*
X6184879Y7249484D02*
Y7251318D01*
X5327376Y7140303D02*
X5337434D01*
X5304815Y7117742D02*
X5327376Y7140303D01*
X5355574Y7122163D02*
X5518475Y7285064D01*
X5355574Y7112105D02*
Y7122163D01*
X5333013Y7089544D02*
X5355574Y7112105D01*
X6070240Y7299600D02*
X6074732Y7295108D01*
X7287514Y6917690D02*
X7303516D01*
X7211018Y6750159D02*
X7216107Y6840882D01*
X7201514Y6713387D02*
X7202207Y6714884D01*
X7201448Y6713245D02*
X7201514Y6713386D01*
X5795803Y7023880D02*
X5835361D01*
X5625740Y6883328D02*
X5745510Y7003098D01*
X5587513Y6835043D02*
X5608726Y6856256D01*
X7170684Y6669584D02*
X7170847Y6669747D01*
X5885580Y7003171D02*
X6226246Y6662506D01*
X6294664Y6634226D02*
X7085322D01*
X7185404Y6751596D02*
X7190501Y6842452D01*
X7178851Y6725499D02*
X7178926Y6725660D01*
X5795803Y7049534D02*
X5835361D01*
X7103364Y6917690D02*
X7119366D01*
X5607616Y6901484D02*
X5727386Y7021254D01*
X5903664Y7021368D02*
X6244371Y6680661D01*
X5559315Y6863241D02*
X5580528Y6884454D01*
X6891020Y6769100D02*
X6915937Y6794017D01*
X6803390Y7067550D02*
X6839858D01*
X6243320Y6920703D02*
Y6920704D01*
X6243320Y6946900D01*
X6264245Y6867914D02*
X6364668Y6767491D01*
X7003080Y7067518D02*
X7003542Y7067550D01*
X6193316Y6870700D02*
X6193377Y6870702D01*
X6908993Y6750793D02*
X6941591Y6783391D01*
X6414962Y6721056D02*
X6837202D01*
X6246101Y6849779D02*
X6346544Y6749335D01*
X6935427Y6841070D02*
X6935457Y6841100D01*
X6929829Y6922943D02*
X6935457Y6841100D01*
X6961111Y6830474D02*
Y6842860D01*
X6955422Y6924703D02*
X6961051Y6842860D01*
X6961111D01*
X6961081Y6830444D02*
X6961111Y6830474D01*
X6167120Y6870700D02*
X6193316D01*
X5688401Y6278887D02*
X5915447D01*
X6042904Y6339967D02*
X6212564D01*
X6225519Y6352922D02*
Y6354756D01*
X6230611Y6367049D02*
X6244042Y6380480D01*
X6230586Y6367024D02*
X6230611Y6367049D01*
X6043151Y6314313D02*
X6212564D01*
X5688224Y6253233D02*
X5926073D01*
X6225519Y6299524D02*
Y6301358D01*
X6230611Y6287231D02*
X6244042Y6273800D01*
X6230586Y6287256D02*
X6230611Y6287231D01*
X5962290Y6298290D02*
X5976435Y6312434D01*
X5496923Y6455787D02*
X5663514Y6289195D01*
X5474362Y6488406D02*
X5496923Y6465845D01*
Y6455787D02*
Y6465845D01*
X5972916Y6272636D02*
X5994400Y6294120D01*
X5478783Y6437647D02*
X5645500Y6270930D01*
X5446164Y6460208D02*
X5468725Y6437647D01*
X5478783D01*
D15*
X6119595Y1170205D02*
G03*
X5939990Y1244600I-179605J-179605D01*
G01*
X6321325Y968475D02*
G03*
X6500930Y894080I179605J179605D01*
G01*
X6684210D02*
G03*
X6863815Y968475I0J254000D01*
G01*
X7209282Y1208731D02*
G03*
X7029677Y1134337I0J-254000D01*
G01*
X7404952Y1161575D02*
G03*
X7257535Y1208731I-147418J-206843D01*
G01*
X7437140Y1134337D02*
G03*
X7404952Y1161575I-179605J-179605D01*
G01*
X6981949Y655040D02*
G03*
X7161554Y729435I0J254000D01*
G01*
X4301019Y1244600D02*
X5939990D01*
X6119595Y1170205D02*
X6321325Y968475D01*
X6500930Y894080D02*
X6684210D01*
X6863815Y968475D02*
X7029677Y1134337D01*
X7209282Y1208731D02*
X7257535D01*
X7437140Y1134337D02*
X7501798Y1069679D01*
X7161554Y729435D02*
X7325021Y892902D01*
X4287519Y655040D02*
X6981949D01*
D16*
X1801912Y3346612D02*
D03*
X2630448D02*
D03*
X838200Y5501920D02*
D03*
X4287519Y3346612D02*
D03*
X3458984D02*
D03*
X838200Y3749320D02*
D03*
Y1958620D02*
D03*
D17*
X1801912Y3946612D02*
D03*
X2630448D02*
D03*
X838200Y4901920D02*
D03*
X4287519Y3946612D02*
D03*
X3458984D02*
D03*
X838200Y3149320D02*
D03*
Y1358620D02*
D03*
D18*
X4939120Y5969000D02*
D03*
X5024120D02*
D03*
X186142Y4815840D02*
D03*
X276142D02*
D03*
X186142Y3063240D02*
D03*
X276142D02*
D03*
X186142Y1272540D02*
D03*
X276142D02*
D03*
X6342935Y6065273D02*
D03*
X6252935D02*
D03*
X6342935Y5958593D02*
D03*
X6252935D02*
D03*
X6334042Y6380480D02*
D03*
X6244042D02*
D03*
X5018360Y7457440D02*
D03*
X4933360D02*
D03*
X4617040D02*
D03*
X4532040D02*
D03*
X6244042Y6273800D02*
D03*
X6334042D02*
D03*
X6203402Y7223760D02*
D03*
X6293402D02*
D03*
X6203402Y7330440D02*
D03*
X6293402D02*
D03*
X5128260Y7457440D02*
D03*
X5213260D02*
D03*
X5131480Y5969000D02*
D03*
X5216480D02*
D03*
D19*
X4846323Y6055363D02*
D03*
X4782683Y5991723D02*
D03*
X3950128Y6172628D02*
D03*
X4010232Y6232732D02*
D03*
X4659216Y6117176D02*
D03*
X4719320Y6177280D02*
D03*
X4645660Y6256020D02*
D03*
X4582021Y6192380D02*
D03*
X4430616Y6345776D02*
D03*
X4490720Y6405880D02*
D03*
X4505821Y6268580D02*
D03*
X4569460Y6332220D02*
D03*
X4277221Y6497180D02*
D03*
X4340860Y6560820D02*
D03*
X4414520Y6482080D02*
D03*
X4354416Y6421976D02*
D03*
X5490142Y7191941D02*
D03*
X5553781Y7255581D02*
D03*
X5406322Y7278301D02*
D03*
X5469961Y7341941D02*
D03*
X5576502Y7105581D02*
D03*
X5640141Y7169221D02*
D03*
X5325042Y7362121D02*
D03*
X5388681Y7425761D02*
D03*
X5781468Y6909228D02*
D03*
X5841572Y6969332D02*
D03*
X5660322Y7024301D02*
D03*
X5723961Y7087941D02*
D03*
D20*
X5278548Y6047312D02*
D03*
X5338652Y5987208D02*
D03*
X4759532Y7300388D02*
D03*
X4699428Y7360492D02*
D03*
X5368222Y6140519D02*
D03*
X5431861Y6076879D02*
D03*
X5454582Y6226879D02*
D03*
X5518221Y6163239D02*
D03*
X4507299Y7049701D02*
D03*
X4443659Y7113341D02*
D03*
X5624762Y6394519D02*
D03*
X5688401Y6330879D02*
D03*
X5711122Y6478339D02*
D03*
X5774761Y6414699D02*
D03*
X4431099Y6973501D02*
D03*
X4367459Y7037141D02*
D03*
X5538402Y6310699D02*
D03*
X5602041Y6247059D02*
D03*
X4354899Y6897301D02*
D03*
X4291259Y6960941D02*
D03*
X6179681Y7010540D02*
D03*
X6243320Y6946900D02*
D03*
X6103481Y6934340D02*
D03*
X6167120Y6870700D02*
D03*
X4581732Y7127668D02*
D03*
X4521628Y7187772D02*
D03*
X4775628Y7436692D02*
D03*
X4835732Y7376588D02*
D03*
X4662239Y7202101D02*
D03*
X4598599Y7265741D02*
D03*
D21*
X208280Y5786500D02*
D03*
X335280D02*
D03*
X462280D02*
D03*
X589280D02*
D03*
X208280Y6286500D02*
D03*
X335280D02*
D03*
X462280D02*
D03*
D22*
X589280D02*
D03*
D23*
X1563243Y6043803D02*
D03*
X1164718Y5645277D02*
D03*
D24*
X3625520Y6574627D02*
D03*
D25*
X3715322Y6484824D02*
D03*
X3805124Y6395022D02*
D03*
X3894927Y6305220D02*
D03*
X3979073Y6928180D02*
D03*
X4068876Y6838378D02*
D03*
X4158678Y6748576D02*
D03*
X4248480Y6658773D02*
D03*
D26*
X3604260Y6014720D02*
D03*
Y6204720D02*
D03*
Y7139440D02*
D03*
Y6949440D02*
D03*
D27*
X2382800Y7208480D02*
D03*
D28*
X1782800D02*
D03*
D29*
X401320Y4693920D02*
D03*
X306320D02*
D03*
X211320D02*
D03*
Y4414520D02*
D03*
X306320D02*
D03*
X401320D02*
D03*
Y2941320D02*
D03*
X306320D02*
D03*
X211320D02*
D03*
Y2661920D02*
D03*
X306320D02*
D03*
X401320D02*
D03*
X3126740Y5999480D02*
D03*
X3221740D02*
D03*
X3316740D02*
D03*
Y6278880D02*
D03*
X3221740D02*
D03*
X3126740D02*
D03*
X401320Y1150620D02*
D03*
X306320D02*
D03*
X211320D02*
D03*
Y871220D02*
D03*
X306320D02*
D03*
X401320D02*
D03*
X3126740Y6934200D02*
D03*
X3221740D02*
D03*
X3316740D02*
D03*
Y7213600D02*
D03*
X3221740D02*
D03*
X3126740D02*
D03*
D30*
X1104900Y4270462D02*
D03*
Y4360462D02*
D03*
X508000Y4205425D02*
D03*
Y4295425D02*
D03*
X187960Y4292600D02*
D03*
Y4207600D02*
D03*
X294640Y4208243D02*
D03*
Y4293243D02*
D03*
X401320Y4205425D02*
D03*
Y4295425D02*
D03*
X3423920Y7345680D02*
D03*
Y7430680D02*
D03*
X3317240Y7345680D02*
D03*
Y7430680D02*
D03*
X508000Y2452825D02*
D03*
Y2542825D02*
D03*
X3446780Y5979882D02*
D03*
Y6069882D02*
D03*
X401320Y2452825D02*
D03*
Y2542825D02*
D03*
X3210560Y6498420D02*
D03*
Y6408420D02*
D03*
X1104900Y727162D02*
D03*
Y817162D02*
D03*
X508000Y662125D02*
D03*
Y752125D02*
D03*
X401320Y662125D02*
D03*
Y752125D02*
D03*
X3210560Y7433140D02*
D03*
Y7343140D02*
D03*
X3446780Y6914602D02*
D03*
Y7004602D02*
D03*
X3103880Y7433140D02*
D03*
Y7343140D02*
D03*
Y6498420D02*
D03*
Y6408420D02*
D03*
X1104900Y2516040D02*
D03*
Y2606040D02*
D03*
X2504440Y6061162D02*
D03*
Y6151162D02*
D03*
X723900Y6056082D02*
D03*
Y6146082D02*
D03*
X3423920Y6495960D02*
D03*
Y6410960D02*
D03*
X294640Y2540643D02*
D03*
Y2455643D02*
D03*
X4290060Y7139940D02*
D03*
Y7229940D02*
D03*
Y7436398D02*
D03*
Y7346398D02*
D03*
X2504440Y6995882D02*
D03*
Y7085882D02*
D03*
X3317240Y6495960D02*
D03*
Y6410960D02*
D03*
X294640Y664943D02*
D03*
Y749943D02*
D03*
X187960Y2540000D02*
D03*
Y2455000D02*
D03*
X835660Y6143580D02*
D03*
Y6058580D02*
D03*
X187960Y749300D02*
D03*
Y664300D02*
D03*
D31*
X1219200Y4368800D02*
D03*
Y4513800D02*
D03*
Y2761200D02*
D03*
Y2616200D02*
D03*
X2504440Y6403340D02*
D03*
Y6548340D02*
D03*
X1219200Y970500D02*
D03*
Y825500D02*
D03*
D32*
X221186Y4970780D02*
D03*
X411186D02*
D03*
X221186Y3218180D02*
D03*
X411186D02*
D03*
X221186Y1427480D02*
D03*
X411186D02*
D03*
D33*
X579120Y4528820D02*
D03*
X1034720D02*
D03*
X579120Y2776220D02*
D03*
X1034720D02*
D03*
X581934Y985521D02*
D03*
X1037534D02*
D03*
D34*
X1801912Y1255040D02*
D03*
X2630448D02*
D03*
X3458984D02*
D03*
X4287519D02*
D03*
D35*
X1801912Y655040D02*
D03*
X2630448D02*
D03*
X3458984D02*
D03*
X4287519D02*
D03*
D36*
X2382800Y6273760D02*
D03*
D37*
X1782800D02*
D03*
D38*
X2814320Y6962140D02*
D03*
Y7417740D02*
D03*
Y6027420D02*
D03*
Y6483020D02*
D03*
D39*
X2504440Y7338060D02*
D03*
Y7483060D02*
D03*
D40*
X7215137Y1791493D02*
D03*
X6603207Y1179563D02*
D03*
D41*
X7501798Y1069679D02*
D03*
X7325021Y892902D02*
D03*
D42*
X5014752Y6149131D02*
D03*
X4986554Y6177329D02*
D03*
X4958177Y6205707D02*
D03*
X4929979Y6233905D02*
D03*
X4901601Y6262283D02*
D03*
X4873403Y6290481D02*
D03*
X4845026Y6318858D02*
D03*
X4816828Y6347056D02*
D03*
X4788450Y6375434D02*
D03*
X4760252Y6403632D02*
D03*
X4732054Y6431830D02*
D03*
X4703676Y6460208D02*
D03*
X4675479Y6488405D02*
D03*
X4647101Y6516783D02*
D03*
X4618903Y6544981D02*
D03*
X4590525Y6573359D02*
D03*
X4562327Y6601557D02*
D03*
X4533950Y6629934D02*
D03*
X4505752Y6658132D02*
D03*
X5135088Y7287469D02*
D03*
X5163286Y7259271D02*
D03*
X5191663Y7230893D02*
D03*
X5219862Y7202695D02*
D03*
X5248239Y7174317D02*
D03*
X5276437Y7146119D02*
D03*
X5304815Y7117742D02*
D03*
X5333013Y7089544D02*
D03*
X5361390Y7061166D02*
D03*
X5389588Y7032968D02*
D03*
X5417786Y7004770D02*
D03*
X5446164Y6976392D02*
D03*
X5474362Y6948195D02*
D03*
X5502740Y6919817D02*
D03*
X5530938Y6891619D02*
D03*
X5559315Y6863241D02*
D03*
X5587513Y6835043D02*
D03*
X5615891Y6806666D02*
D03*
X5644089Y6778468D02*
D03*
D43*
X4505752D02*
D03*
X4533950Y6806666D02*
D03*
X4562327Y6835043D02*
D03*
X4590525Y6863241D02*
D03*
X4618903Y6891619D02*
D03*
X4647101Y6919817D02*
D03*
X4675479Y6948195D02*
D03*
X4703676Y6976392D02*
D03*
X4732054Y7004770D02*
D03*
X4760252Y7032968D02*
D03*
X4788450Y7061166D02*
D03*
X4816828Y7089544D02*
D03*
X4845026Y7117742D02*
D03*
X4873403Y7146119D02*
D03*
X4901601Y7174317D02*
D03*
X4929979Y7202695D02*
D03*
X4958177Y7230893D02*
D03*
X4986554Y7259271D02*
D03*
X5014752Y7287469D02*
D03*
X5644089Y6658132D02*
D03*
X5615891Y6629934D02*
D03*
X5587513Y6601557D02*
D03*
X5559315Y6573359D02*
D03*
X5530938Y6544981D02*
D03*
X5502740Y6516783D02*
D03*
X5474362Y6488405D02*
D03*
X5446164Y6460208D02*
D03*
X5417786Y6431830D02*
D03*
X5389588Y6403632D02*
D03*
X5361390Y6375434D02*
D03*
X5333013Y6347056D02*
D03*
X5304815Y6318858D02*
D03*
X5276437Y6290481D02*
D03*
X5248239Y6262283D02*
D03*
X5219862Y6233905D02*
D03*
X5191663Y6205707D02*
D03*
X5163286Y6177329D02*
D03*
X5135088Y6149131D02*
D03*
D44*
X5074920Y6718300D02*
D03*
D45*
X218440Y7355840D02*
D03*
X8768080Y650240D02*
D03*
D46*
X4149000Y7182260D02*
D03*
X3979000D02*
D03*
X4149000Y7392260D02*
D03*
X3979000D02*
D03*
D47*
X1130635Y6183951D02*
D03*
X1024569Y6077885D02*
D03*
D48*
X8680057Y7204126D02*
D03*
Y6954114D02*
D03*
Y7154113D02*
D03*
Y7104126D02*
D03*
Y7054113D02*
D03*
Y7004126D02*
D03*
Y6654114D02*
D03*
Y6904126D02*
D03*
Y6854114D02*
D03*
Y6804127D02*
D03*
Y6754114D02*
D03*
Y6704127D02*
D03*
X8536064Y7204126D02*
D03*
Y6954139D02*
D03*
Y7154113D02*
D03*
Y7104126D02*
D03*
Y7054113D02*
D03*
Y7004126D02*
D03*
Y6654114D02*
D03*
Y6904126D02*
D03*
Y6854114D02*
D03*
Y6804127D02*
D03*
Y6754114D02*
D03*
Y6704127D02*
D03*
D49*
X3830320Y6240612D02*
X3894927Y6305220D01*
X1986500Y7483060D02*
X2504440D01*
X1961602Y6995882D02*
X2504440D01*
X1984910Y6548340D02*
X2504440D01*
X1939838Y6061162D02*
X2504440D01*
D50*
X4354899Y6897301D02*
X4391797Y6934200D01*
X4469199Y7011601D02*
X4507299Y7049701D01*
X4431099Y6973501D02*
X4469199Y7011601D01*
X4391797Y6934200D02*
X4431099Y6973501D01*
X4391729Y6934200D02*
X4431030Y6973501D01*
X4431099D01*
X4391660Y6934200D02*
X4391729D01*
D51*
X4391797D01*
D52*
X6563360Y6927596D02*
D03*
X7843520D02*
D03*
D53*
X7603490Y7067550D02*
D03*
X7403338D02*
D03*
X7203440D02*
D03*
X7003542D02*
D03*
X6803390D02*
D03*
X7553452Y6917690D02*
D03*
X7303516D02*
D03*
X7103364D02*
D03*
X6853428D02*
D03*
D54*
X547080Y7138480D02*
D03*
D55*
X767080Y6888480D02*
D03*
D56*
X1047080Y7363480D02*
D03*
D57*
X8823059Y7169125D02*
D03*
X8393062D02*
D03*
Y6689115D02*
D03*
X8823059D02*
D03*
D58*
X1396116Y847856D02*
D03*
X5196116D02*
D03*
X1396116Y6469476D02*
D03*
X5196116D02*
D03*
X1396116Y3662126D02*
D03*
X5196116D02*
D03*
D59*
X4937760Y6062980D02*
D03*
X3906520Y6863080D02*
D03*
X3992880Y6771640D02*
D03*
X3982720Y6140036D02*
D03*
X8917940Y5324790D02*
D03*
Y5272090D02*
D03*
Y3394390D02*
D03*
Y3341690D02*
D03*
X7858285Y3644485D02*
D03*
X8917940Y1486850D02*
D03*
Y1434150D02*
D03*
X7586980Y1688636D02*
D03*
X8944700Y5088605D02*
D03*
X5458523Y6064064D02*
D03*
X4451356Y6606169D02*
D03*
X4220158Y6440394D02*
D03*
X3830320Y6240612D02*
D03*
X2989580Y6789420D02*
D03*
X2862116Y6792424D02*
D03*
X3423920Y7475359D02*
D03*
X3078480Y6962140D02*
D03*
Y6880860D02*
D03*
Y6921500D02*
D03*
X3883660Y7180580D02*
D03*
X3636883Y7057132D02*
D03*
X3579652D02*
D03*
X3522742D02*
D03*
Y6122412D02*
D03*
X3579652D02*
D03*
X3636883D02*
D03*
X6522720Y1150620D02*
D03*
X6548120Y1338580D02*
D03*
X7162800Y1950720D02*
D03*
X7053580Y1846580D02*
D03*
X7254240Y1648460D02*
D03*
X7378700Y1739900D02*
D03*
X6652260Y1021080D02*
D03*
X6761480Y1130300D02*
D03*
X3562356Y6596655D02*
D03*
X4206240Y762828D02*
D03*
X4203700Y661228D02*
D03*
Y559628D02*
D03*
X3375164Y661228D02*
D03*
X3377704Y762828D02*
D03*
X1718093Y661228D02*
D03*
X1720633Y762828D02*
D03*
X2546628Y661228D02*
D03*
X2549168Y762828D02*
D03*
X1257300Y4302760D02*
D03*
X1198880D02*
D03*
X1257300Y4249420D02*
D03*
X1198880D02*
D03*
X1257300Y2548338D02*
D03*
X1198880D02*
D03*
X1257300Y2494998D02*
D03*
X1198880D02*
D03*
Y706120D02*
D03*
X1257300D02*
D03*
X1198880Y759460D02*
D03*
X1257300D02*
D03*
X105320Y2455000D02*
D03*
X105500Y4207600D02*
D03*
X431800Y4881880D02*
D03*
Y4833620D02*
D03*
X383540D02*
D03*
Y4881880D02*
D03*
X431800Y3129280D02*
D03*
Y3081020D02*
D03*
X383540D02*
D03*
Y3129280D02*
D03*
Y1338580D02*
D03*
Y1290320D02*
D03*
X431800D02*
D03*
Y1338580D02*
D03*
X121920Y662940D02*
D03*
X1783080Y3936950D02*
D03*
Y3832810D02*
D03*
Y3883610D02*
D03*
X3050876Y997856D02*
D03*
X4451356D02*
D03*
X4193876D02*
D03*
X3050876Y3812126D02*
D03*
X2928620Y3812540D02*
D03*
X2913380Y1000760D02*
D03*
X2292356Y997856D02*
D03*
X2161876D02*
D03*
X4451356Y3812126D02*
D03*
X4193876Y3810624D02*
D03*
X2292356Y3812126D02*
D03*
X2161876D02*
D03*
X5768340Y5956300D02*
D03*
X4472216Y6302184D02*
D03*
X4391660Y6934200D02*
D03*
X5608320Y5953760D02*
D03*
X5552440D02*
D03*
X5717540D02*
D03*
X5661660D02*
D03*
X5824220Y5956300D02*
D03*
X4892675Y6105525D02*
D03*
X5125003Y6095252D02*
D03*
X5217230Y6124010D02*
D03*
X4086860Y6616700D02*
D03*
X5285870Y6225588D02*
D03*
X5405120Y6268720D02*
D03*
X5681067Y6508393D02*
D03*
X4600095Y6365560D02*
D03*
X4894116Y6462224D02*
D03*
X5257800Y7299960D02*
D03*
X5371775Y7230049D02*
D03*
X5441692Y7143492D02*
D03*
X5546050Y7080800D02*
D03*
X3512820Y6037580D02*
D03*
Y5991860D02*
D03*
Y5948680D02*
D03*
Y6883400D02*
D03*
Y6926580D02*
D03*
Y6972300D02*
D03*
X2282360Y7315200D02*
D03*
X2234100D02*
D03*
Y7363460D02*
D03*
X2282360D02*
D03*
X2427140D02*
D03*
X2330620Y7315200D02*
D03*
X2378880Y7363460D02*
D03*
X2330620D02*
D03*
X2378880Y7315200D02*
D03*
X2427140D02*
D03*
Y6380480D02*
D03*
X2378880D02*
D03*
X2330620Y6428740D02*
D03*
X2378880D02*
D03*
X2330620Y6380480D02*
D03*
X2427140Y6428740D02*
D03*
X2282360D02*
D03*
X2234100D02*
D03*
Y6380480D02*
D03*
X2282360D02*
D03*
X1087120Y1310640D02*
D03*
Y1262380D02*
D03*
X1038860Y1214120D02*
D03*
Y1262380D02*
D03*
X1087120Y1214120D02*
D03*
X1038860Y1310640D02*
D03*
Y1165860D02*
D03*
Y1117600D02*
D03*
X1087120D02*
D03*
Y1165860D02*
D03*
Y3101340D02*
D03*
Y3053080D02*
D03*
X1038860Y3004820D02*
D03*
Y3053080D02*
D03*
X1087120Y3004820D02*
D03*
X1038860Y3101340D02*
D03*
Y2956560D02*
D03*
Y2908300D02*
D03*
X1087120D02*
D03*
Y2956560D02*
D03*
Y4709160D02*
D03*
Y4660900D02*
D03*
X1038860D02*
D03*
Y4709160D02*
D03*
Y4853940D02*
D03*
X1087120Y4757420D02*
D03*
X1038860Y4805680D02*
D03*
Y4757420D02*
D03*
X1087120Y4805680D02*
D03*
Y4853940D02*
D03*
X2545080Y3774390D02*
D03*
Y3721050D02*
D03*
Y3672790D02*
D03*
X2672080Y3774390D02*
D03*
Y3721050D02*
D03*
Y3672790D02*
D03*
X2545080Y1069340D02*
D03*
Y1018540D02*
D03*
Y965200D02*
D03*
Y911860D02*
D03*
Y863600D02*
D03*
X2672080Y1069340D02*
D03*
Y1018540D02*
D03*
Y965200D02*
D03*
Y911860D02*
D03*
Y863600D02*
D03*
X2545080Y6744300D02*
D03*
Y6690960D02*
D03*
Y6640160D02*
D03*
X2672080Y6744300D02*
D03*
Y6690960D02*
D03*
Y6640160D02*
D03*
X2101154Y6793284D02*
D03*
X2355154D02*
D03*
X1783080Y6744300D02*
D03*
Y6690960D02*
D03*
Y6640160D02*
D03*
Y6586820D02*
D03*
Y6533480D02*
D03*
Y6485220D02*
D03*
X1910080D02*
D03*
Y6533480D02*
D03*
Y6586820D02*
D03*
Y6640160D02*
D03*
Y6690960D02*
D03*
Y6744300D02*
D03*
X8460740Y1654790D02*
D03*
Y1707490D02*
D03*
Y1314790D02*
D03*
Y1367490D02*
D03*
X7236460Y2407920D02*
D03*
Y2153920D02*
D03*
Y2024380D02*
D03*
X7528560Y1742440D02*
D03*
X755787Y1912589D02*
D03*
Y1864329D02*
D03*
X707527D02*
D03*
Y1912589D02*
D03*
Y2057369D02*
D03*
X755787Y1960849D02*
D03*
X707527Y2009109D02*
D03*
Y1960849D02*
D03*
X755787Y2009109D02*
D03*
Y2057369D02*
D03*
Y3703289D02*
D03*
Y3655029D02*
D03*
X707527D02*
D03*
Y3703289D02*
D03*
Y3848069D02*
D03*
X755787Y3751549D02*
D03*
X707527Y3799809D02*
D03*
Y3751549D02*
D03*
X755787Y3799809D02*
D03*
Y3848069D02*
D03*
Y5600669D02*
D03*
Y5552409D02*
D03*
X707527Y5504149D02*
D03*
Y5552409D02*
D03*
X755787Y5504149D02*
D03*
X707527Y5600669D02*
D03*
Y5455889D02*
D03*
Y5407629D02*
D03*
X755787D02*
D03*
Y5455889D02*
D03*
X132080Y1501140D02*
D03*
Y1452880D02*
D03*
X83820Y1404620D02*
D03*
Y1452880D02*
D03*
X132080Y1404620D02*
D03*
X83820Y1501140D02*
D03*
Y1356360D02*
D03*
Y1308100D02*
D03*
X132080D02*
D03*
Y1356360D02*
D03*
Y3291840D02*
D03*
Y3243580D02*
D03*
X83820Y3195320D02*
D03*
Y3243580D02*
D03*
X132080Y3195320D02*
D03*
X83820Y3291840D02*
D03*
Y3147060D02*
D03*
Y3098800D02*
D03*
X132080D02*
D03*
Y3147060D02*
D03*
Y4899660D02*
D03*
Y4851400D02*
D03*
X83820D02*
D03*
Y4899660D02*
D03*
Y5044440D02*
D03*
X132080Y4947920D02*
D03*
X83820Y4996180D02*
D03*
Y4947920D02*
D03*
X132080Y4996180D02*
D03*
Y5044440D02*
D03*
X2146300Y4047932D02*
D03*
X2098040D02*
D03*
X2044700D02*
D03*
X1991360D02*
D03*
X1940560D02*
D03*
X1887220D02*
D03*
X2715756D02*
D03*
X2769096D02*
D03*
X2819896D02*
D03*
X2873236D02*
D03*
X2926576D02*
D03*
X2974836D02*
D03*
Y1356360D02*
D03*
X2926576D02*
D03*
X2873236D02*
D03*
X2819896D02*
D03*
X2769096D02*
D03*
X2715756D02*
D03*
X1887220D02*
D03*
X1940560D02*
D03*
X1991360D02*
D03*
X2044700D02*
D03*
X2098040D02*
D03*
X2146300D02*
D03*
X1783080Y3779470D02*
D03*
Y3726130D02*
D03*
Y3677870D02*
D03*
X1910080D02*
D03*
Y3726130D02*
D03*
Y3779470D02*
D03*
Y3832810D02*
D03*
Y3883610D02*
D03*
Y3936950D02*
D03*
Y1122680D02*
D03*
Y1069340D02*
D03*
Y1018540D02*
D03*
Y965200D02*
D03*
Y911860D02*
D03*
Y863600D02*
D03*
X1783080D02*
D03*
Y911860D02*
D03*
Y965200D02*
D03*
Y1018540D02*
D03*
Y1069340D02*
D03*
Y1122680D02*
D03*
X579120Y5890260D02*
D03*
X530860D02*
D03*
X485140D02*
D03*
X439420D02*
D03*
X391160D02*
D03*
X345440D02*
D03*
X299720D02*
D03*
X251460D02*
D03*
X203200D02*
D03*
X627380D02*
D03*
X1579625Y5950965D02*
D03*
X1653285Y6029705D02*
D03*
X1546605Y6136385D02*
D03*
X1470405Y6060185D02*
D03*
X1148080Y5737860D02*
D03*
X1254760Y5631180D02*
D03*
X1181100Y5552440D02*
D03*
X1071880Y5661660D02*
D03*
X3977640Y7269480D02*
D03*
X1685163Y7105778D02*
D03*
X1578483Y6999098D02*
D03*
X1608963Y7181978D02*
D03*
X1977263Y7405498D02*
D03*
X1870583Y7298818D02*
D03*
X1791843Y7372478D02*
D03*
X1901063Y7481698D02*
D03*
X1715643Y6884798D02*
D03*
X1608963Y6778118D02*
D03*
X1530223Y6851778D02*
D03*
X1639443Y6960998D02*
D03*
X1891158Y6938137D02*
D03*
X1784478Y7044817D02*
D03*
X1858138Y7123557D02*
D03*
X1967358Y7014337D02*
D03*
X1517777Y7395082D02*
D03*
X1703197Y7428102D02*
D03*
X1593977Y7318882D02*
D03*
X3078480Y5986780D02*
D03*
Y5946140D02*
D03*
Y6027420D02*
D03*
X7663180Y881380D02*
D03*
X7612380D02*
D03*
X4736432Y6839552D02*
D03*
X4699168Y6802288D02*
D03*
X5463758Y6644716D02*
D03*
X5359876Y6487676D02*
D03*
X5097780Y6428740D02*
D03*
X7993526Y5521325D02*
D03*
X7977697Y5606100D02*
D03*
X7762240Y4704080D02*
D03*
X8460740Y5545430D02*
D03*
Y5492730D02*
D03*
Y3562330D02*
D03*
Y3615030D02*
D03*
X2549168Y3454400D02*
D03*
X2546628Y3352800D02*
D03*
Y3251200D02*
D03*
X1720633Y3454400D02*
D03*
X1718093Y3352800D02*
D03*
Y3251200D02*
D03*
X3377704Y3454400D02*
D03*
X3375164Y3352800D02*
D03*
Y3251200D02*
D03*
X4203700D02*
D03*
Y3352800D02*
D03*
X4206240Y3454400D02*
D03*
X4898311Y830229D02*
D03*
X4894116Y3642824D02*
D03*
X4252433Y6398733D02*
D03*
X4213860Y6360160D02*
D03*
X7681544Y4813300D02*
D03*
X7646477Y4758580D02*
D03*
X7639575Y2821866D02*
D03*
X7683324Y2879615D02*
D03*
X7716520Y4909820D02*
D03*
X7660640D02*
D03*
X7507137Y3589020D02*
D03*
X7551793Y3588558D02*
D03*
X7548880Y5527040D02*
D03*
X7601419Y5526107D02*
D03*
X7612380Y5321300D02*
D03*
X8742680Y7352660D02*
D03*
Y7299960D02*
D03*
X8740140Y7411720D02*
D03*
Y7244080D02*
D03*
X5072380Y6662420D02*
D03*
X5207000Y6631940D02*
D03*
X5199380Y6735130D02*
D03*
X5341620Y6713220D02*
D03*
X5290820Y6593840D02*
D03*
X4968240Y6731000D02*
D03*
X8364220Y7035800D02*
D03*
X8401485Y6998535D02*
D03*
X8830745Y6797875D02*
D03*
X8793480Y6835140D02*
D03*
X8338820Y6804660D02*
D03*
X8376085Y6841925D02*
D03*
X6087374Y7238983D02*
D03*
X8354060Y7292340D02*
D03*
X8303260D02*
D03*
X8187796Y7291695D02*
D03*
X8212068Y6560337D02*
D03*
X7914640Y6563360D02*
D03*
X7960360D02*
D03*
X7610460Y1479976D02*
D03*
X7604760Y3393440D02*
D03*
X4639793Y6098957D02*
D03*
X8750300Y6902770D02*
D03*
X8465820Y6955483D02*
D03*
X4461904Y6869824D02*
D03*
X8750300Y6955470D02*
D03*
X8465820Y6902783D02*
D03*
X4499169Y6907089D02*
D03*
X5902960Y6918960D02*
D03*
X5255260Y6885940D02*
D03*
X5791200Y6814820D02*
D03*
X5933440Y6832600D02*
D03*
X8886989Y6774180D02*
D03*
X8832883Y6889880D02*
D03*
X8318728Y6748780D02*
D03*
X8326120Y7084060D02*
D03*
X8379460Y6896100D02*
D03*
X8413002Y6947109D02*
D03*
X4480625Y7228322D02*
D03*
X4404942Y7154178D02*
D03*
X8427637Y3316036D02*
D03*
X6155273Y7171085D02*
D03*
X6121039Y7349429D02*
D03*
X7886700Y1760220D02*
D03*
X111760Y7241540D02*
D03*
X8224840Y5592946D02*
D03*
X8221980Y5715000D02*
D03*
X8101980D02*
D03*
X7945120Y6240780D02*
D03*
X7950200Y6116320D02*
D03*
X7421880Y5989320D02*
D03*
X7513320Y5859780D02*
D03*
X8304840Y5592945D02*
D03*
X8877300Y746760D02*
D03*
X8798380Y838380D02*
D03*
X8545380Y956760D02*
D03*
X8628380Y1046480D02*
D03*
X8128000Y1430020D02*
D03*
X8242557Y1440061D02*
D03*
X8341360Y1445260D02*
D03*
X8376920Y1595120D02*
D03*
X8255000Y1597660D02*
D03*
X8115300Y1607820D02*
D03*
X8120380Y3309620D02*
D03*
X8321040Y3302000D02*
D03*
X8252460Y3429000D02*
D03*
X8310880Y3502660D02*
D03*
X8199120Y3515360D02*
D03*
X8094980Y3533140D02*
D03*
X8105140Y5204460D02*
D03*
X8161020Y5367020D02*
D03*
X8384977Y5412929D02*
D03*
X8310880Y5466080D02*
D03*
X8318500Y5275580D02*
D03*
X5029200Y6507480D02*
D03*
X5082540Y7045960D02*
D03*
X4841240Y6685280D02*
D03*
X1236980Y6080760D02*
D03*
X5682480Y6693487D02*
D03*
X5742940Y6692900D02*
D03*
X8460740Y3222330D02*
D03*
Y3275030D02*
D03*
X4627880Y7167880D02*
D03*
X4147536Y7479473D02*
D03*
X4074240Y7393940D02*
D03*
X4332986Y7436398D02*
D03*
X4244240Y7139940D02*
D03*
X4587240Y7056120D02*
D03*
X4334458Y7068945D02*
D03*
X4259061Y6990532D02*
D03*
X5531015Y6142381D02*
D03*
X5639805Y6226617D02*
D03*
X5717589Y6318064D02*
D03*
X5806742Y6390757D02*
D03*
X5897268Y7073814D02*
D03*
X5368272Y7404082D02*
D03*
X5500412Y7354756D02*
D03*
X5619097Y7148177D02*
D03*
X5578628Y7277195D02*
D03*
X5213260Y7501980D02*
D03*
X4892040Y7457440D02*
D03*
X4861560Y7350760D02*
D03*
X4532040Y7413580D02*
D03*
X5988482Y7155724D02*
D03*
X4805091Y6958924D02*
D03*
X4803140Y6906260D02*
D03*
X4838810Y7005354D02*
D03*
X4744604Y6895768D02*
D03*
X8465856Y6847997D02*
D03*
X8750300Y7008170D02*
D03*
X8547100Y5971540D02*
D03*
X8336280D02*
D03*
X8442960D02*
D03*
X8608060Y7054113D02*
D03*
Y6804127D02*
D03*
X8460740Y5152730D02*
D03*
Y5205430D02*
D03*
X7769860Y5580380D02*
D03*
X7772400Y5321300D02*
D03*
X7739380Y5257800D02*
D03*
X8303260Y5717540D02*
D03*
X8276040Y5838551D02*
D03*
X7975600Y5839460D02*
D03*
X7703820Y2989580D02*
D03*
X7764780Y2992120D02*
D03*
X7780020Y1076960D02*
D03*
X7724140D02*
D03*
X7508240Y6243320D02*
D03*
X8723620Y4584700D02*
D03*
X8798615Y4678680D02*
D03*
X8542840Y4794700D02*
D03*
X8700320D02*
D03*
X7713496Y4747434D02*
D03*
X8125460Y4048760D02*
D03*
X8227060D02*
D03*
X8547100D02*
D03*
X8440420D02*
D03*
X8336280D02*
D03*
X8887460Y3634740D02*
D03*
X8884920Y3528060D02*
D03*
X8882380Y3098800D02*
D03*
Y3208020D02*
D03*
X8703140Y2864300D02*
D03*
X8542840D02*
D03*
X8798380Y2740840D02*
D03*
X8723620Y2654300D02*
D03*
X7991811Y3588227D02*
D03*
X7712880Y2818300D02*
D03*
X8112760Y2242820D02*
D03*
X8122920Y2141220D02*
D03*
X8229600D02*
D03*
X8336280D02*
D03*
X8442960D02*
D03*
X8549640D02*
D03*
X8279353Y2039619D02*
D03*
X8233040Y1898357D02*
D03*
X7866380Y3070860D02*
D03*
X7835900Y1733144D02*
D03*
X7807960Y1440180D02*
D03*
X7739384Y1425660D02*
D03*
X8062680Y1999698D02*
D03*
X7876540Y1137920D02*
D03*
Y1363980D02*
D03*
X7876098Y1269595D02*
D03*
X7863657Y3269000D02*
D03*
X8303260Y1054100D02*
D03*
X8185000Y1056640D02*
D03*
X8745220Y1145540D02*
D03*
Y1252220D02*
D03*
X8744804Y1574080D02*
D03*
X8625840Y1681480D02*
D03*
X8489400Y1999702D02*
D03*
X8308340Y1910080D02*
D03*
X8135967Y1940560D02*
D03*
X7528129Y1688636D02*
D03*
X8181340Y2959100D02*
D03*
X8304680Y2963060D02*
D03*
X7866380Y3185160D02*
D03*
X7786540Y3276600D02*
D03*
X8114582Y4157262D02*
D03*
X8425303Y1264097D02*
D03*
X8425180Y1414780D02*
D03*
X8425303Y3171637D02*
D03*
X8745220Y3050540D02*
D03*
Y3159760D02*
D03*
X8746282Y3483098D02*
D03*
X8626712Y3588680D02*
D03*
X8336280Y3827780D02*
D03*
X8276040Y3907242D02*
D03*
X8489027D02*
D03*
X8062680Y3907238D02*
D03*
X8064365Y1868965D02*
D03*
X7937500Y2275840D02*
D03*
Y2405380D02*
D03*
X8101980Y3813400D02*
D03*
X8233392Y3808320D02*
D03*
X8187700Y3782060D02*
D03*
X7874000Y5006340D02*
D03*
X7875425Y5110480D02*
D03*
X8183880Y4899660D02*
D03*
X8305800Y4897120D02*
D03*
X8742444Y5184860D02*
D03*
X8742680Y5080000D02*
D03*
Y5412020D02*
D03*
X8613140Y5524500D02*
D03*
X8489400Y5837642D02*
D03*
X8950960Y1374140D02*
D03*
Y1546860D02*
D03*
Y3454400D02*
D03*
Y3281680D02*
D03*
Y5212080D02*
D03*
Y5384800D02*
D03*
X8425180Y5252720D02*
D03*
X8425303Y5102037D02*
D03*
X8305800Y4699000D02*
D03*
X8188960D02*
D03*
X7586980Y5580380D02*
D03*
X7599680Y5471160D02*
D03*
X7594600Y1633220D02*
D03*
X7762240Y871220D02*
D03*
X8188960Y863600D02*
D03*
X8306367Y865574D02*
D03*
X8435340Y701040D02*
D03*
X8486140Y1038860D02*
D03*
X8887460Y1193800D02*
D03*
X8872220Y1300480D02*
D03*
X8879840Y1620520D02*
D03*
X8884920Y1727200D02*
D03*
X8446222Y2609302D02*
D03*
X8486140Y2880360D02*
D03*
X8306367Y2770574D02*
D03*
X8188960Y2786380D02*
D03*
X7762240Y2778760D02*
D03*
X7709620Y3398520D02*
D03*
X7586980Y3545840D02*
D03*
X7585470Y3646114D02*
D03*
X7434580Y4310380D02*
D03*
X8187860Y1871227D02*
D03*
X8063890Y3776980D02*
D03*
X7934960Y4163060D02*
D03*
X7929880Y4302760D02*
D03*
X7447280Y3931920D02*
D03*
X7442200Y4058920D02*
D03*
X8887460Y5565140D02*
D03*
X8879840Y5458460D02*
D03*
X8887460Y5024120D02*
D03*
X8890000Y5133340D02*
D03*
X8422640Y4533900D02*
D03*
X8440420Y4836160D02*
D03*
X8008620Y5199380D02*
D03*
%TF.MD5,7b5f2f95f43dc820e5c76f911a8be63b*%
M02*
