%TF.GenerationSoftware,Altium Limited,Altium Designer,24.0.1 (36)*%
G04 Layer_Color=32896*
%FSLAX45Y45*%
%MOMM*%
%TF.SameCoordinates,67999EC4-2163-46B7-AA5F-10FA3A16FE06*%
%TF.FilePolarity,Positive*%
%TF.FileFunction,Legend,Bot*%
%TF.Part,Single*%
G01*
G75*
%TA.AperFunction,NonConductor*%
%ADD78C,0.20000*%
%ADD79C,0.20320*%
%ADD80C,0.50000*%
%ADD81C,0.25000*%
%ADD83C,0.25400*%
%ADD84C,0.15240*%
%ADD85C,0.15000*%
%ADD87C,0.12700*%
D78*
X8219820Y7394880D02*
G03*
X8219820Y7394880I-10000J0D01*
G01*
Y6660820D02*
G03*
X8219820Y6660820I-10000J0D01*
G01*
X8560120Y5610040D02*
Y5655040D01*
X8515120D02*
X8560120D01*
Y5025040D02*
Y5070040D01*
X8515120Y5025040D02*
X8560120D01*
X7930120D02*
X7975120D01*
X7930120D02*
Y5070040D01*
Y5610040D02*
Y5655040D01*
X7975120D01*
X7440660Y5802820D02*
Y6302820D01*
X7745460Y5802820D02*
Y6302820D01*
X7440660D02*
X7745460D01*
X7440660Y4372420D02*
X7745460D01*
Y3872420D02*
Y4372420D01*
X7440660Y3872420D02*
Y4372420D01*
Y2464880D02*
X7745460D01*
Y1964880D02*
Y2464880D01*
X7440660Y1964880D02*
Y2464880D01*
X8774340Y1054960D02*
X8886100D01*
X8888640Y940660D02*
Y1054960D01*
X7929840Y1816140D02*
X7974840D01*
X7929840Y1771140D02*
Y1816140D01*
Y1186140D02*
Y1231140D01*
Y1186140D02*
X7974840D01*
X8514840D02*
X8559840D01*
Y1231140D01*
X8514840Y1816140D02*
X8559840D01*
Y1771140D02*
Y1816140D01*
X7929840Y3723680D02*
X7974840D01*
X7929840Y3678680D02*
Y3723680D01*
Y3093680D02*
Y3138680D01*
Y3093680D02*
X7974840D01*
X8514840D02*
X8559840D01*
Y3138680D01*
X8514840Y3723680D02*
X8559840D01*
Y3678680D02*
Y3723680D01*
X8774340Y2962500D02*
X8886100D01*
X8888640Y2848200D02*
Y2962500D01*
X8774340Y4892900D02*
X8886100D01*
X8888640Y4778600D02*
Y4892900D01*
D79*
X7593060Y5853620D02*
G03*
X7542260Y5802820I-0J-50800D01*
G01*
X7643860Y5802820D02*
G03*
X7593060Y5853620I-50800J0D01*
G01*
X7643860Y3872420D02*
G03*
X7593060Y3923220I-50800J0D01*
G01*
Y3923220D02*
G03*
X7542260Y3872420I-0J-50800D01*
G01*
X7643860Y1964880D02*
G03*
X7593060Y2015680I-50800J0D01*
G01*
Y2015680D02*
G03*
X7542260Y1964880I-0J-50800D01*
G01*
X179166Y4113310D02*
X346666D01*
X179166Y4140810D02*
X349166D01*
X179166Y3788310D02*
X349166D01*
Y3912710D01*
Y3988910D02*
Y4140810D01*
X179166Y3988910D02*
Y4140810D01*
Y3788310D02*
Y3912710D01*
X349166Y4611449D02*
Y4735849D01*
Y4383349D02*
Y4535249D01*
X179166Y4383349D02*
Y4535249D01*
Y4611449D02*
Y4735849D01*
X349166D01*
X179166Y4383349D02*
X349166D01*
X181666Y4410849D02*
X349166D01*
X179166Y1299040D02*
X346666D01*
X179166Y1326540D02*
X349166D01*
X179166Y974040D02*
X349166D01*
Y1098440D01*
Y1174640D02*
Y1326540D01*
X179166Y1174640D02*
Y1326540D01*
Y974040D02*
Y1098440D01*
X349166Y1797179D02*
Y1921579D01*
Y1569079D02*
Y1720979D01*
X179166Y1569079D02*
Y1720979D01*
Y1797179D02*
Y1921579D01*
X349166D01*
X179166Y1569079D02*
X349166D01*
X181666Y1596579D02*
X349166D01*
Y7416799D02*
Y7541199D01*
Y7188699D02*
Y7340599D01*
X179166Y7188699D02*
Y7340599D01*
Y7416799D02*
Y7541199D01*
X349166D01*
X179166Y7188699D02*
X349166D01*
X181666Y7216199D02*
X349166D01*
X179166Y6918660D02*
X346666D01*
X179166Y6946160D02*
X349166D01*
X179166Y6593660D02*
X349166D01*
Y6718060D01*
Y6794260D02*
Y6946160D01*
X179166Y6794260D02*
Y6946160D01*
Y6593660D02*
Y6718060D01*
X7440660Y5802820D02*
X7542260D01*
X7643860D02*
X7745460D01*
X7643860Y3872420D02*
X7745460D01*
X7440660D02*
X7542260D01*
X7643860Y1964880D02*
X7745460D01*
X7440660D02*
X7542260D01*
D80*
X7354511Y5748020D02*
G03*
X7354511Y5748020I-15450J0D01*
G01*
Y3817620D02*
G03*
X7354511Y3817620I-15450J0D01*
G01*
Y1910080D02*
G03*
X7354511Y1910080I-15450J0D01*
G01*
D81*
X7957620Y5720040D02*
G03*
X7957620Y5720040I-12500J0D01*
G01*
X7957340Y1881140D02*
G03*
X7957340Y1881140I-12500J0D01*
G01*
Y3788680D02*
G03*
X7957340Y3788680I-12500J0D01*
G01*
D83*
X5697220Y7165340D02*
X5773420D01*
X5697220Y7139940D02*
Y7165340D01*
Y6695440D02*
X5773420D01*
X5697220D02*
Y6708140D01*
X5976620Y6695440D02*
X6052820D01*
Y6710911D01*
X5976620Y7152640D02*
X6052820D01*
Y7139940D02*
Y7152640D01*
D84*
X6476678Y6138494D02*
X6536234D01*
X6361242Y6047054D02*
X6420798D01*
X6476678D02*
X6536234D01*
X6361240Y6138494D02*
X6420798D01*
X6361240Y6047054D02*
Y6138494D01*
X6536240Y6047054D02*
Y6138494D01*
X6476678Y6031814D02*
X6536234D01*
X6361242Y5940374D02*
X6420798D01*
X6476678D02*
X6536234D01*
X6361240Y6031814D02*
X6420798D01*
X6361240Y5940374D02*
Y6031814D01*
X6536240Y5940374D02*
Y6031814D01*
X7479779Y4895708D02*
X7591161D01*
Y5370947D01*
X7479779D02*
X7591161D01*
X7145919Y4895708D02*
X7257301D01*
X7145919D02*
Y5370947D01*
X7257301D01*
X7479779Y2965308D02*
X7591161D01*
Y3440547D01*
X7479779D02*
X7591161D01*
X7145919Y2965308D02*
X7257301D01*
X7145919D02*
Y3440547D01*
X7257301D01*
X7479779Y1057768D02*
X7591161D01*
Y1533007D01*
X7479779D02*
X7591161D01*
X7145919Y1057768D02*
X7257301D01*
X7145919D02*
Y1533007D01*
X7257301D01*
X157480Y1621599D02*
Y1796599D01*
X66040Y1621599D02*
Y1796599D01*
Y1621599D02*
X157480D01*
X66040Y1796599D02*
X157480D01*
X66040Y845001D02*
Y1020001D01*
X157480Y845001D02*
Y1020001D01*
X66040D02*
X157480D01*
X66040Y845001D02*
X157480D01*
X66040Y6465341D02*
Y6640341D01*
X157480Y6465341D02*
Y6640341D01*
X66040D02*
X157480D01*
X66040Y6465341D02*
X157480D01*
X66040Y3659321D02*
Y3834321D01*
X157480Y3659321D02*
Y3834321D01*
X66040D02*
X157480D01*
X66040Y3659321D02*
X157480D01*
Y4435919D02*
Y4610919D01*
X66040Y4435919D02*
Y4610919D01*
Y4435919D02*
X157480D01*
X66040Y4610919D02*
X157480D01*
X5885180Y7443661D02*
X5976620D01*
X5885180Y7268661D02*
X5976620D01*
X5885180D02*
Y7443661D01*
X5976620Y7268661D02*
Y7443661D01*
X5994400Y7268661D02*
X6085840D01*
X5994400Y7443661D02*
X6085840D01*
Y7384103D02*
Y7443661D01*
X5994400Y7268667D02*
Y7328223D01*
Y7384103D02*
Y7443659D01*
X6085840Y7268667D02*
Y7328223D01*
X5666740Y7268661D02*
X5758180D01*
X5666740Y7443661D02*
X5758180D01*
Y7268661D02*
Y7443661D01*
X5666740Y7268661D02*
Y7443661D01*
X5775960Y7268661D02*
X5867400D01*
X5775960Y7443661D02*
X5867400D01*
Y7268661D02*
Y7443661D01*
X5775960Y7268661D02*
Y7443661D01*
X5765800Y6564179D02*
X5857240D01*
X5765800Y6389179D02*
X5857240D01*
X5765800D02*
Y6564179D01*
X5857240Y6389179D02*
Y6564179D01*
X5877560D02*
X5969000D01*
X5877560Y6389179D02*
X5969000D01*
X5877560D02*
Y6564179D01*
X5969000Y6389179D02*
Y6564179D01*
X7982079Y2148840D02*
Y2240280D01*
X8157078Y2148840D02*
Y2240280D01*
X8097520Y2148840D02*
X8157078D01*
X7982084Y2240280D02*
X8041640D01*
X8097520D02*
X8157077D01*
X7982084Y2148840D02*
X8041640D01*
X7607200Y3027680D02*
Y3119120D01*
X7782200Y3027680D02*
Y3119120D01*
X7607200Y3027680D02*
X7782200D01*
X7607200Y3119120D02*
X7782200D01*
X7607200Y3134360D02*
Y3225800D01*
X7782200Y3134360D02*
Y3225800D01*
X7607200Y3134360D02*
X7782200D01*
X7607200Y3225800D02*
X7782200D01*
X7606879Y3241040D02*
Y3332480D01*
X7781879Y3241040D02*
Y3332480D01*
X7722320Y3241040D02*
X7781879D01*
X7606884Y3332480D02*
X7666440D01*
X7722320D02*
X7781877D01*
X7606884Y3241040D02*
X7666440D01*
X8061960Y3864740D02*
Y3924296D01*
X7970520Y3980176D02*
Y4039733D01*
Y3864740D02*
Y3924296D01*
X8061960Y3980176D02*
Y4039735D01*
X7970520D02*
X8061960D01*
X7970520Y3864735D02*
X8061960D01*
X7929880Y4881204D02*
X8021320D01*
X7929880Y4706204D02*
X8021320D01*
X7929880D02*
Y4765762D01*
X8021320Y4821642D02*
Y4881198D01*
Y4706205D02*
Y4765762D01*
X7929880Y4821642D02*
Y4881198D01*
X6267320Y543560D02*
Y635000D01*
X6092320Y543560D02*
Y635000D01*
X6151878D01*
X6207758Y543560D02*
X6267315D01*
X6092322D02*
X6151878D01*
X6207758Y635000D02*
X6267315D01*
X6267324Y650240D02*
Y741680D01*
X6092324Y650240D02*
Y741680D01*
X6151882D01*
X6207762Y650240D02*
X6267318D01*
X6092326D02*
X6151882D01*
X6207762Y741680D02*
X6267318D01*
X7606886Y1333500D02*
X7666442D01*
X7722322Y1424940D02*
X7781879D01*
X7606886D02*
X7666442D01*
X7722322Y1333500D02*
X7781880D01*
Y1424940D01*
X7606880Y1333500D02*
Y1424940D01*
X7607203Y1318260D02*
X7782203D01*
X7607203Y1226820D02*
X7782203D01*
Y1318260D01*
X7607203Y1226820D02*
Y1318260D01*
Y1211580D02*
X7782203D01*
X7607203Y1120140D02*
X7782203D01*
Y1211580D01*
X7607203Y1120140D02*
Y1211580D01*
X8077200Y1957198D02*
Y2132198D01*
X8168640Y1957198D02*
Y2132198D01*
X8077200D02*
X8168640D01*
X8077200Y1957198D02*
X8168640D01*
X8061960Y1957200D02*
Y2016756D01*
X7970520Y2072636D02*
Y2132193D01*
Y1957200D02*
Y2016756D01*
X8061960Y2072636D02*
Y2132195D01*
X7970520D02*
X8061960D01*
X7970520Y1957195D02*
X8061960D01*
X8275320Y1957204D02*
Y2016760D01*
X8183880Y2072640D02*
Y2132196D01*
Y1957204D02*
Y2016760D01*
X8275320Y2072640D02*
Y2132198D01*
X8183880D02*
X8275320D01*
X8183880Y1957198D02*
X8275320D01*
X7722322Y1785620D02*
X7781879D01*
X7606886Y1694180D02*
X7666442D01*
X7722322D02*
X7781879D01*
X7606884Y1785620D02*
X7666442D01*
X7606884Y1694180D02*
Y1785620D01*
X7781884Y1694180D02*
Y1785620D01*
X7722322Y1678940D02*
X7781879D01*
X7606886Y1587500D02*
X7666442D01*
X7722322D02*
X7781879D01*
X7606884Y1678940D02*
X7666442D01*
X7606884Y1587500D02*
Y1678940D01*
X7781884Y1587500D02*
Y1678940D01*
X7722322Y1531620D02*
X7781879D01*
X7606886Y1440180D02*
X7666442D01*
X7722322D02*
X7781879D01*
X7606884Y1531620D02*
X7666442D01*
X7606884Y1440180D02*
Y1531620D01*
X7781884Y1440180D02*
Y1531620D01*
X8702306Y1574800D02*
X8761862D01*
X8817742Y1666240D02*
X8877298D01*
X8702306D02*
X8761862D01*
X8817742Y1574800D02*
X8877300D01*
Y1666240D01*
X8702300Y1574800D02*
Y1666240D01*
X8260647Y983702D02*
Y1043258D01*
X8352087Y868265D02*
Y927822D01*
Y983702D02*
Y1043258D01*
X8260647Y868264D02*
Y927822D01*
Y868264D02*
X8352087D01*
X8260647Y1043264D02*
X8352087D01*
X8382000Y1957204D02*
Y2016760D01*
X8290560Y2072640D02*
Y2132196D01*
Y1957204D02*
Y2016760D01*
X8382000Y2072640D02*
Y2132198D01*
X8290560D02*
X8382000D01*
X8290560Y1957198D02*
X8382000D01*
X8595360Y1957204D02*
Y2016760D01*
X8503920Y2072640D02*
Y2132196D01*
Y1957204D02*
Y2016760D01*
X8595360Y2072640D02*
Y2132198D01*
X8503920D02*
X8595360D01*
X8503920Y1957198D02*
X8595360D01*
X8488680Y1957204D02*
Y2016760D01*
X8397240Y2072640D02*
Y2132196D01*
Y1957204D02*
Y2016760D01*
X8488680Y2072640D02*
Y2132198D01*
X8397240D02*
X8488680D01*
X8397240Y1957198D02*
X8488680D01*
X8531860Y659264D02*
Y718820D01*
X8440420Y774700D02*
Y834256D01*
Y659264D02*
Y718820D01*
X8531860Y774700D02*
Y834258D01*
X8440420D02*
X8531860D01*
X8440420Y659258D02*
X8531860D01*
X8440420Y982980D02*
Y1042536D01*
X8531860Y867544D02*
Y927100D01*
Y982980D02*
Y1042536D01*
X8440420Y867542D02*
Y927100D01*
Y867542D02*
X8531860D01*
X8440420Y1042542D02*
X8531860D01*
X8702306Y1468120D02*
X8761862D01*
X8817742Y1559560D02*
X8877298D01*
X8702306D02*
X8761862D01*
X8817742Y1468120D02*
X8877300D01*
Y1559560D01*
X8702300Y1468120D02*
Y1559560D01*
X8702306Y1254760D02*
X8761862D01*
X8817742Y1346200D02*
X8877298D01*
X8702306D02*
X8761862D01*
X8817742Y1254760D02*
X8877300D01*
Y1346200D01*
X8702300Y1254760D02*
Y1346200D01*
X8702306Y1681480D02*
X8761862D01*
X8817742Y1772920D02*
X8877298D01*
X8702306D02*
X8761862D01*
X8817742Y1681480D02*
X8877300D01*
Y1772920D01*
X8702300Y1681480D02*
Y1772920D01*
X8702306Y1148080D02*
X8761862D01*
X8817742Y1239520D02*
X8877298D01*
X8702306D02*
X8761862D01*
X8817742Y1148080D02*
X8877300D01*
Y1239520D01*
X8702300Y1148080D02*
Y1239520D01*
X8702306Y1361440D02*
X8761862D01*
X8817742Y1452880D02*
X8877298D01*
X8702306D02*
X8761862D01*
X8817742Y1361440D02*
X8877300D01*
Y1452880D01*
X8702300Y1361440D02*
Y1452880D01*
X7701280Y906780D02*
Y1043940D01*
X7432040Y906780D02*
Y1043940D01*
X7599680Y906780D02*
X7701280D01*
X7432040Y1043940D02*
X7533640D01*
X7599680D02*
X7701280D01*
X7432040Y906780D02*
X7533640D01*
X7576820Y975360D02*
X7589520D01*
X7543800D02*
X7556500D01*
Y949960D02*
Y1000760D01*
X7576820Y949960D02*
Y1000760D01*
X7929880Y1042542D02*
X8021320D01*
X7929880Y867542D02*
X8021320D01*
X7929880D02*
Y927100D01*
X8021320Y982980D02*
Y1042536D01*
Y867544D02*
Y927100D01*
X7929880Y982980D02*
Y1042536D01*
X8143240Y983702D02*
Y1043258D01*
X8234680Y868265D02*
Y927822D01*
Y983702D02*
Y1043258D01*
X8143240Y868264D02*
Y927822D01*
Y868264D02*
X8234680D01*
X8143240Y1043264D02*
X8234680D01*
X7914640Y868264D02*
Y1043264D01*
X7823200Y868264D02*
Y1043264D01*
Y868264D02*
X7914640D01*
X7823200Y1043264D02*
X7914640D01*
X8036560Y1042542D02*
X8128000D01*
X8036560Y867542D02*
X8128000D01*
X8036560D02*
Y927100D01*
X8128000Y982980D02*
Y1042536D01*
Y867544D02*
Y927100D01*
X8036560Y982980D02*
Y1042536D01*
X7716520Y982980D02*
Y1042536D01*
X7807960Y867544D02*
Y927100D01*
Y982980D02*
Y1042536D01*
X7716520Y867542D02*
Y927100D01*
Y867542D02*
X7807960D01*
X7716520Y1042542D02*
X7807960D01*
X8275320Y3864744D02*
Y3924300D01*
X8183880Y3980180D02*
Y4039736D01*
Y3864744D02*
Y3924300D01*
X8275320Y3980180D02*
Y4039738D01*
X8183880D02*
X8275320D01*
X8183880Y3864738D02*
X8275320D01*
X8382000Y3864744D02*
Y3924300D01*
X8290560Y3980180D02*
Y4039736D01*
Y3864744D02*
Y3924300D01*
X8382000Y3980180D02*
Y4039738D01*
X8290560D02*
X8382000D01*
X8290560Y3864738D02*
X8382000D01*
X8077200D02*
X8168640D01*
X8077200Y4039738D02*
X8168640D01*
Y3864738D02*
Y4039738D01*
X8077200Y3864738D02*
Y4039738D01*
X8488680Y3864744D02*
Y3924300D01*
X8397240Y3980180D02*
Y4039736D01*
Y3864744D02*
Y3924300D01*
X8488680Y3980180D02*
Y4039738D01*
X8397240D02*
X8488680D01*
X8397240Y3864738D02*
X8488680D01*
X8595360Y3864744D02*
Y3924300D01*
X8503920Y3980180D02*
Y4039736D01*
Y3864744D02*
Y3924300D01*
X8595360Y3980180D02*
Y4039738D01*
X8503920D02*
X8595360D01*
X8503920Y3864738D02*
X8595360D01*
X8260647Y2891242D02*
Y2950798D01*
X8352087Y2775805D02*
Y2835362D01*
Y2891242D02*
Y2950798D01*
X8260647Y2775804D02*
Y2835362D01*
Y2775804D02*
X8352087D01*
X8260647Y2950804D02*
X8352087D01*
X8440420Y2890520D02*
Y2950076D01*
X8531860Y2775084D02*
Y2834640D01*
Y2890520D02*
Y2950076D01*
X8440420Y2775082D02*
Y2834640D01*
Y2775082D02*
X8531860D01*
X8440420Y2950082D02*
X8531860D01*
X8702306Y3589020D02*
X8761862D01*
X8817742Y3680460D02*
X8877298D01*
X8702306D02*
X8761862D01*
X8817742Y3589020D02*
X8877300D01*
Y3680460D01*
X8702300Y3589020D02*
Y3680460D01*
X8702306Y3268980D02*
X8761862D01*
X8817742Y3360420D02*
X8877298D01*
X8702306D02*
X8761862D01*
X8817742Y3268980D02*
X8877300D01*
Y3360420D01*
X8702300Y3268980D02*
Y3360420D01*
X8702306Y3482340D02*
X8761862D01*
X8817742Y3573780D02*
X8877298D01*
X8702306D02*
X8761862D01*
X8817742Y3482340D02*
X8877300D01*
Y3573780D01*
X8702300Y3482340D02*
Y3573780D01*
X8702306Y3162300D02*
X8761862D01*
X8817742Y3253740D02*
X8877298D01*
X8702306D02*
X8761862D01*
X8817742Y3162300D02*
X8877300D01*
Y3253740D01*
X8702300Y3162300D02*
Y3253740D01*
X7722322Y3693160D02*
X7781879D01*
X7606886Y3601720D02*
X7666442D01*
X7722322D02*
X7781879D01*
X7606884Y3693160D02*
X7666442D01*
X7606884Y3601720D02*
Y3693160D01*
X7781884Y3601720D02*
Y3693160D01*
X7722322Y3586480D02*
X7781879D01*
X7606886Y3495040D02*
X7666442D01*
X7722322D02*
X7781879D01*
X7606884Y3586480D02*
X7666442D01*
X7606884Y3495040D02*
Y3586480D01*
X7781884Y3495040D02*
Y3586480D01*
X7722322Y3439160D02*
X7781879D01*
X7606886Y3347720D02*
X7666442D01*
X7722322D02*
X7781879D01*
X7606884Y3439160D02*
X7666442D01*
X7606884Y3347720D02*
Y3439160D01*
X7781884Y3347720D02*
Y3439160D01*
X7929880Y2950802D02*
X8021320D01*
X7929880Y2775802D02*
X8021320D01*
X7929880D02*
Y2835360D01*
X8021320Y2891240D02*
Y2950796D01*
Y2775804D02*
Y2835360D01*
X7929880Y2891240D02*
Y2950796D01*
X7914640Y2775804D02*
Y2950804D01*
X7823200Y2775804D02*
Y2950804D01*
Y2775804D02*
X7914640D01*
X7823200Y2950804D02*
X7914640D01*
X8036560Y2950802D02*
X8128000D01*
X8036560Y2775802D02*
X8128000D01*
X8036560D02*
Y2835360D01*
X8128000Y2891240D02*
Y2950796D01*
Y2775804D02*
Y2835360D01*
X8036560Y2891240D02*
Y2950796D01*
X8143240Y2891242D02*
Y2950798D01*
X8234680Y2775805D02*
Y2835362D01*
Y2891242D02*
Y2950798D01*
X8143240Y2775804D02*
Y2835362D01*
Y2775804D02*
X8234680D01*
X8143240Y2950804D02*
X8234680D01*
X8702306Y3375660D02*
X8761862D01*
X8817742Y3467100D02*
X8877298D01*
X8702306D02*
X8761862D01*
X8817742Y3375660D02*
X8877300D01*
Y3467100D01*
X8702300Y3375660D02*
Y3467100D01*
X8702306Y3055620D02*
X8761862D01*
X8817742Y3147060D02*
X8877298D01*
X8702306D02*
X8761862D01*
X8817742Y3055620D02*
X8877300D01*
Y3147060D01*
X8702300Y3055620D02*
Y3147060D01*
X7716520Y2891242D02*
Y2950798D01*
X7807960Y2775805D02*
Y2835362D01*
Y2891242D02*
Y2950798D01*
X7716520Y2775804D02*
Y2835362D01*
Y2775804D02*
X7807960D01*
X7716520Y2950804D02*
X7807960D01*
X7701280Y2814320D02*
Y2951480D01*
X7432040Y2814320D02*
Y2951480D01*
X7599680Y2814320D02*
X7701280D01*
X7432040Y2951480D02*
X7533640D01*
X7599680D02*
X7701280D01*
X7432040Y2814320D02*
X7533640D01*
X7576820Y2882900D02*
X7589520D01*
X7543800D02*
X7556500D01*
Y2857500D02*
Y2908300D01*
X7576820Y2857500D02*
Y2908300D01*
X7982084Y4056380D02*
X8041640D01*
X8097520Y4147820D02*
X8157077D01*
X7982084D02*
X8041640D01*
X8097520Y4056380D02*
X8157078D01*
Y4147820D01*
X7982079Y4056380D02*
Y4147820D01*
X8531860Y2566804D02*
Y2626360D01*
X8440420Y2682240D02*
Y2741796D01*
Y2566804D02*
Y2626360D01*
X8531860Y2682240D02*
Y2741798D01*
X8440420D02*
X8531860D01*
X8440420Y2566798D02*
X8531860D01*
X7722322Y5516880D02*
X7781879D01*
X7606886Y5425440D02*
X7666442D01*
X7722322D02*
X7781879D01*
X7606884Y5516880D02*
X7666442D01*
X7606884Y5425440D02*
Y5516880D01*
X7781884Y5425440D02*
Y5516880D01*
X7722322Y5623560D02*
X7781879D01*
X7606886Y5532120D02*
X7666442D01*
X7722322D02*
X7781879D01*
X7606884Y5623560D02*
X7666442D01*
X7606884Y5532120D02*
Y5623560D01*
X7781884Y5532120D02*
Y5623560D01*
X8382000Y5795144D02*
Y5854700D01*
X8290560Y5910580D02*
Y5970136D01*
Y5795144D02*
Y5854700D01*
X8382000Y5910580D02*
Y5970138D01*
X8290560D02*
X8382000D01*
X8290560Y5795138D02*
X8382000D01*
X7982084Y5989320D02*
X8041640D01*
X8097520Y6080760D02*
X8157077D01*
X7982084D02*
X8041640D01*
X8097520Y5989320D02*
X8157078D01*
Y6080760D01*
X7982079Y5989320D02*
Y6080760D01*
X8702306Y5519420D02*
X8761862D01*
X8817742Y5610860D02*
X8877298D01*
X8702306D02*
X8761862D01*
X8817742Y5519420D02*
X8877300D01*
Y5610860D01*
X8702300Y5519420D02*
Y5610860D01*
X7722322Y5369560D02*
X7781879D01*
X7606886Y5278120D02*
X7666442D01*
X7722322D02*
X7781879D01*
X7606884Y5369560D02*
X7666442D01*
X7606884Y5278120D02*
Y5369560D01*
X7781884Y5278120D02*
Y5369560D01*
X8702306Y5092700D02*
X8761862D01*
X8817742Y5184140D02*
X8877298D01*
X8702306D02*
X8761862D01*
X8817742Y5092700D02*
X8877300D01*
Y5184140D01*
X8702300Y5092700D02*
Y5184140D01*
X8260647Y4821642D02*
Y4881198D01*
X8352087Y4706205D02*
Y4765762D01*
Y4821642D02*
Y4881198D01*
X8260647Y4706204D02*
Y4765762D01*
Y4706204D02*
X8352087D01*
X8260647Y4881204D02*
X8352087D01*
X8702306Y5412740D02*
X8761862D01*
X8817742Y5504180D02*
X8877298D01*
X8702306D02*
X8761862D01*
X8817742Y5412740D02*
X8877300D01*
Y5504180D01*
X8702300Y5412740D02*
Y5504180D01*
X8702306Y4986020D02*
X8761862D01*
X8817742Y5077460D02*
X8877298D01*
X8702306D02*
X8761862D01*
X8817742Y4986020D02*
X8877300D01*
Y5077460D01*
X8702300Y4986020D02*
Y5077460D01*
X8488680Y5795144D02*
Y5854700D01*
X8397240Y5910580D02*
Y5970136D01*
Y5795144D02*
Y5854700D01*
X8488680Y5910580D02*
Y5970138D01*
X8397240D02*
X8488680D01*
X8397240Y5795138D02*
X8488680D01*
X8275320Y5795144D02*
Y5854700D01*
X8183880Y5910580D02*
Y5970136D01*
Y5795144D02*
Y5854700D01*
X8275320Y5910580D02*
Y5970138D01*
X8183880D02*
X8275320D01*
X8183880Y5795138D02*
X8275320D01*
X8143240Y4821642D02*
Y4881198D01*
X8234680Y4706205D02*
Y4765762D01*
Y4821642D02*
Y4881198D01*
X8143240Y4706204D02*
Y4765762D01*
Y4706204D02*
X8234680D01*
X8143240Y4881204D02*
X8234680D01*
X7606886Y5171440D02*
X7666442D01*
X7722322Y5262880D02*
X7781879D01*
X7606886D02*
X7666442D01*
X7722322Y5171440D02*
X7781880D01*
Y5262880D01*
X7606880Y5171440D02*
Y5262880D01*
X8077200Y5795138D02*
Y5970138D01*
X8168640Y5795138D02*
Y5970138D01*
X8077200D02*
X8168640D01*
X8077200Y5795138D02*
X8168640D01*
X8061960Y5795140D02*
Y5854696D01*
X7970520Y5910576D02*
Y5970133D01*
Y5795140D02*
Y5854696D01*
X8061960Y5910576D02*
Y5970135D01*
X7970520D02*
X8061960D01*
X7970520Y5795135D02*
X8061960D01*
X7607203Y5156200D02*
X7782203D01*
X7607203Y5064760D02*
X7782203D01*
Y5156200D01*
X7607203Y5064760D02*
Y5156200D01*
X8702306Y5199380D02*
X8761862D01*
X8817742Y5290820D02*
X8877298D01*
X8702306D02*
X8761862D01*
X8817742Y5199380D02*
X8877300D01*
Y5290820D01*
X8702300Y5199380D02*
Y5290820D01*
X8531860Y4497204D02*
Y4556760D01*
X8440420Y4612640D02*
Y4672196D01*
Y4497204D02*
Y4556760D01*
X8531860Y4612640D02*
Y4672198D01*
X8440420D02*
X8531860D01*
X8440420Y4497198D02*
X8531860D01*
X8595360Y5795144D02*
Y5854700D01*
X8503920Y5910580D02*
Y5970136D01*
Y5795144D02*
Y5854700D01*
X8595360Y5910580D02*
Y5970138D01*
X8503920D02*
X8595360D01*
X8503920Y5795138D02*
X8595360D01*
X8440420Y4820920D02*
Y4880476D01*
X8531860Y4705484D02*
Y4765040D01*
Y4820920D02*
Y4880476D01*
X8440420Y4705482D02*
Y4765040D01*
Y4705482D02*
X8531860D01*
X8440420Y4880482D02*
X8531860D01*
X8036560Y4881204D02*
X8128000D01*
X8036560Y4706204D02*
X8128000D01*
X8036560D02*
Y4765762D01*
X8128000Y4821642D02*
Y4881198D01*
Y4706205D02*
Y4765762D01*
X8036560Y4821642D02*
Y4881198D01*
X8702306Y5306060D02*
X8761862D01*
X8817742Y5397500D02*
X8877298D01*
X8702306D02*
X8761862D01*
X8817742Y5306060D02*
X8877300D01*
Y5397500D01*
X8702300Y5306060D02*
Y5397500D01*
X7701280Y4744720D02*
Y4881880D01*
X7432040Y4744720D02*
Y4881880D01*
X7599680Y4744720D02*
X7701280D01*
X7432040Y4881880D02*
X7533640D01*
X7599680D02*
X7701280D01*
X7432040Y4744720D02*
X7533640D01*
X7576820Y4813300D02*
X7589520D01*
X7543800D02*
X7556500D01*
Y4787900D02*
Y4838700D01*
X7576820Y4787900D02*
Y4838700D01*
X7607203Y5049520D02*
X7782203D01*
X7607203Y4958080D02*
X7782203D01*
Y5049520D01*
X7607203Y4958080D02*
Y5049520D01*
X7716520Y4821642D02*
Y4881198D01*
X7807960Y4706205D02*
Y4765762D01*
Y4821642D02*
Y4881198D01*
X7716520Y4706204D02*
Y4765762D01*
Y4706204D02*
X7807960D01*
X7716520Y4881204D02*
X7807960D01*
X7914640Y4706204D02*
Y4881204D01*
X7823200Y4706204D02*
Y4881204D01*
Y4706204D02*
X7914640D01*
X7823200Y4881204D02*
X7914640D01*
X4689982Y3243580D02*
Y3335020D01*
X4514982Y3243580D02*
Y3335020D01*
X4574540D01*
X4630420Y3243580D02*
X4689977D01*
X4514984D02*
X4574540D01*
X4630420Y3335020D02*
X4689977D01*
X4689982Y3136900D02*
Y3228340D01*
X4514982Y3136900D02*
Y3228340D01*
X4574540D01*
X4630420Y3136900D02*
X4689977D01*
X4514984D02*
X4574540D01*
X4630420Y3228340D02*
X4689977D01*
X5504180Y6959600D02*
X5563737D01*
X5563738Y6868160D02*
Y6959600D01*
X5388744D02*
X5448300D01*
X5388739Y6868160D02*
Y6959600D01*
X5504180Y6868160D02*
X5563738D01*
X5388744D02*
X5448300D01*
X5504180Y7066280D02*
X5563737D01*
X5563738Y6974840D02*
Y7066280D01*
X5388744D02*
X5448300D01*
X5388739Y6974840D02*
Y7066280D01*
X5504180Y6974840D02*
X5563738D01*
X5388744D02*
X5448300D01*
X66040Y7417619D02*
X157480D01*
X66040Y7242619D02*
X157480D01*
X66040D02*
Y7417619D01*
X157480Y7242619D02*
Y7417619D01*
D85*
X8548280Y661260D02*
Y1042260D01*
Y661260D02*
X8878480D01*
Y1042260D01*
X8548280D02*
X8878480D01*
X8548280Y2568800D02*
Y2949800D01*
Y2568800D02*
X8878480D01*
Y2949800D01*
X8548280D02*
X8878480D01*
X8548280Y4499200D02*
Y4880200D01*
Y4499200D02*
X8878480D01*
Y4880200D01*
X8548280D02*
X8878480D01*
D87*
X8034820Y7152880D02*
X8134820D01*
X8034820Y7436880D02*
X8134820D01*
X8034820Y6418820D02*
X8134820D01*
X8034820Y6702820D02*
X8134820D01*
%TF.MD5,26db69ea5b17ce1581b7734a4a2636d5*%
M02*
