%TF.GenerationSoftware,Altium Limited,Altium Designer,24.0.1 (36)*%
G04 Layer_Color=65535*
%FSLAX45Y45*%
%MOMM*%
%TF.SameCoordinates,AAE7DA4B-5550-4C39-BD6C-8ACC05BC0005*%
%TF.FilePolarity,Positive*%
%TF.FileFunction,Legend,Top*%
%TF.Part,Single*%
G01*
G75*
%TA.AperFunction,NonConductor*%
%ADD76C,0.20000*%
%ADD77C,0.25000*%
%ADD78C,0.20320*%
%ADD79C,0.50000*%
%ADD80C,0.30000*%
%ADD81C,0.25400*%
%ADD82C,0.24892*%
%ADD83C,0.15240*%
%ADD84C,0.15200*%
%ADD85C,0.15000*%
%ADD86C,0.50800*%
G36*
X8548655Y1681735D02*
X8509586D01*
Y1678729D01*
X8476527D01*
Y1675724D01*
X8443469D01*
Y1672719D01*
X8413416D01*
Y1669713D01*
X8383363D01*
Y1666708D01*
X8353310D01*
Y1663703D01*
X8323257D01*
Y1660697D01*
X8296209D01*
Y1657692D01*
X8269162D01*
Y1654687D01*
X8242114D01*
Y1651681D01*
X8215066D01*
Y1648676D01*
X8191023D01*
Y1645671D01*
X8166981D01*
Y1642666D01*
X8148949D01*
Y1639660D01*
X8127912D01*
Y1636655D01*
X8109880D01*
Y1633650D01*
X8094854D01*
Y1630644D01*
X8082833D01*
Y1627639D01*
X8070811D01*
Y1624634D01*
X8061795D01*
Y1621628D01*
X8052780D01*
Y1618623D01*
X8043764D01*
Y1615618D01*
X8037753D01*
Y1612612D01*
X8028737D01*
Y1609607D01*
X8019721D01*
Y1606602D01*
X8013711D01*
Y1603596D01*
X8004695D01*
Y1600591D01*
X7998684D01*
Y1597586D01*
X7992674D01*
Y1594581D01*
X7986663D01*
Y1591575D01*
X7980653D01*
Y1588570D01*
X7974642D01*
Y1585565D01*
X7968631D01*
Y1582560D01*
X7962621D01*
Y1579554D01*
X7956610D01*
Y1576549D01*
X7950599D01*
Y1573544D01*
X7947594D01*
Y1570538D01*
X7941584D01*
Y1567533D01*
X7938578D01*
Y1564528D01*
X7932568D01*
Y1561522D01*
X7926557D01*
Y1558517D01*
X7923552D01*
Y1555512D01*
X7917541D01*
Y1552506D01*
X7914536D01*
Y1549501D01*
X7908525D01*
Y1546496D01*
X7905520D01*
Y1543491D01*
X7899509D01*
Y1540485D01*
X7896504D01*
Y1537480D01*
X7893499D01*
Y1534475D01*
X7887488D01*
Y1531469D01*
X7884483D01*
Y1528464D01*
X7881478D01*
Y1525459D01*
X7878472D01*
Y1522453D01*
X7872462D01*
Y1519448D01*
X7869456D01*
Y1516443D01*
X7866451D01*
Y1513438D01*
X7863446D01*
Y1510432D01*
X7860440D01*
Y1507427D01*
X7854430D01*
Y1504422D01*
X7851424D01*
Y1501416D01*
X7848419D01*
Y1498411D01*
X7845414D01*
Y1495406D01*
X7842408D01*
Y1492400D01*
X7839403D01*
Y1489395D01*
X7836398D01*
Y1486390D01*
X7833393D01*
Y1483385D01*
X7830387D01*
Y1480379D01*
X7827382D01*
Y1477374D01*
X7824377D01*
Y1474369D01*
X7821371D01*
Y1471363D01*
X7818366D01*
Y1468358D01*
X7815361D01*
Y1465353D01*
X7812355D01*
Y1462347D01*
X7809350D01*
Y1459342D01*
X7806345D01*
Y1456337D01*
X7803339D01*
Y1453332D01*
X7800334D01*
Y1450326D01*
Y1447321D01*
X7797329D01*
Y1444316D01*
X7794324D01*
Y1441310D01*
X7791318D01*
Y1438305D01*
X7788313D01*
Y1435300D01*
X7785308D01*
Y1432295D01*
Y1429289D01*
X7782302D01*
Y1426284D01*
X7779297D01*
Y1423279D01*
X7776292D01*
Y1420273D01*
Y1417268D01*
X7773286D01*
Y1414263D01*
X7770281D01*
Y1411257D01*
X7767276D01*
Y1408252D01*
Y1405247D01*
X7764270D01*
Y1402241D01*
X7761265D01*
Y1399236D01*
Y1396231D01*
X7758260D01*
Y1393225D01*
Y1390220D01*
X7755255D01*
Y1387215D01*
X7752249D01*
Y1384210D01*
Y1381204D01*
X7749244D01*
Y1378199D01*
X7746239D01*
Y1375194D01*
Y1372189D01*
X7743234D01*
Y1369183D01*
X7740228D01*
Y1366178D01*
Y1363173D01*
X7737223D01*
Y1360167D01*
Y1357162D01*
X7734218D01*
Y1354157D01*
Y1351151D01*
X7731212D01*
Y1348146D01*
X7728207D01*
Y1345141D01*
Y1342135D01*
X7725202D01*
Y1339130D01*
Y1336125D01*
X7722196D01*
Y1333120D01*
Y1330114D01*
X7719191D01*
Y1327109D01*
Y1324104D01*
X7716186D01*
Y1321098D01*
Y1318093D01*
X7713180D01*
Y1315088D01*
Y1312082D01*
Y1309077D01*
X7710175D01*
Y1306072D01*
Y1303066D01*
X7707170D01*
Y1300061D01*
Y1297056D01*
Y1294050D01*
X7704164D01*
Y1291045D01*
Y1288040D01*
X7701159D01*
Y1285035D01*
Y1282029D01*
Y1279024D01*
X7698154D01*
Y1276019D01*
Y1273013D01*
X7695149D01*
Y1270008D01*
Y1267003D01*
Y1263997D01*
X7692143D01*
Y1260992D01*
Y1257987D01*
Y1254981D01*
X7689138D01*
Y1251976D01*
Y1248971D01*
Y1245966D01*
X7686133D01*
Y1242960D01*
Y1239955D01*
Y1236950D01*
X7683127D01*
Y1233944D01*
Y1230939D01*
Y1227934D01*
Y1224928D01*
X7680122D01*
Y1221923D01*
Y1218918D01*
Y1215913D01*
Y1212907D01*
X7677117D01*
Y1209902D01*
Y1206897D01*
Y1203891D01*
Y1200886D01*
Y1197881D01*
X7674112D01*
Y1194875D01*
Y1191870D01*
Y1188865D01*
Y1185860D01*
X7671106D01*
Y1182854D01*
Y1179849D01*
Y1176844D01*
Y1173838D01*
Y1170833D01*
Y1167828D01*
X7668101D01*
Y1164822D01*
Y1161817D01*
Y1158812D01*
Y1155807D01*
Y1152801D01*
Y1149796D01*
Y1146791D01*
Y1143785D01*
X7665096D01*
Y1140780D01*
Y1137775D01*
Y1134770D01*
Y1131764D01*
Y1128759D01*
Y1125754D01*
Y1122748D01*
Y1119743D01*
Y1116738D01*
Y1113732D01*
Y1110727D01*
Y1107722D01*
Y1104716D01*
Y1101711D01*
Y1098706D01*
X7662090D01*
Y1095700D01*
Y1092695D01*
Y1089690D01*
Y1086685D01*
Y1083679D01*
Y1080674D01*
Y1077669D01*
Y1074664D01*
Y1071658D01*
Y1068653D01*
Y1065648D01*
X7665096D01*
Y1062642D01*
Y1059637D01*
Y1056632D01*
Y1053626D01*
Y1050621D01*
Y1047616D01*
Y1044610D01*
Y1041605D01*
Y1038600D01*
Y1035595D01*
Y1032589D01*
Y1029584D01*
Y1026579D01*
Y1023573D01*
Y1020568D01*
X7668101D01*
Y1017563D01*
Y1014557D01*
Y1011552D01*
Y1008547D01*
Y1005542D01*
Y1002536D01*
Y999531D01*
X7671106D01*
Y996526D01*
Y993520D01*
Y990515D01*
Y987510D01*
Y984504D01*
Y981499D01*
X7674112D01*
Y978494D01*
Y975489D01*
Y972483D01*
Y969478D01*
Y966473D01*
Y963467D01*
X7677117D01*
Y960462D01*
Y957457D01*
Y954451D01*
Y951446D01*
X7680122D01*
Y948441D01*
Y945435D01*
Y942430D01*
Y939425D01*
X7683127D01*
Y936420D01*
Y933414D01*
Y930409D01*
X7686133D01*
Y927404D01*
Y924398D01*
Y921393D01*
Y918388D01*
X7689138D01*
Y915382D01*
Y912377D01*
Y909372D01*
X7692143D01*
Y906366D01*
Y903361D01*
Y900356D01*
X7695149D01*
Y897351D01*
Y894345D01*
Y891340D01*
X7698154D01*
Y888335D01*
Y885329D01*
Y882324D01*
X7701159D01*
Y879319D01*
Y876313D01*
X7704164D01*
Y873308D01*
Y870303D01*
Y867297D01*
X7707170D01*
Y864292D01*
Y861287D01*
X7710175D01*
Y858281D01*
Y855276D01*
Y852271D01*
X7713180D01*
Y849266D01*
X7716186D01*
Y846260D01*
Y843255D01*
Y840250D01*
X7719191D01*
Y837244D01*
Y834239D01*
X7722196D01*
Y831234D01*
Y828229D01*
X7725202D01*
Y825223D01*
Y822218D01*
Y819213D01*
X7728207D01*
Y822218D01*
X7731212D01*
Y819213D01*
X7728207D01*
Y816207D01*
X7731212D01*
Y813202D01*
X7734218D01*
Y810197D01*
Y807191D01*
Y804186D01*
X7737223D01*
Y801181D01*
X7740228D01*
Y798175D01*
Y795170D01*
Y792165D01*
X7743234D01*
Y789160D01*
X7746239D01*
Y786154D01*
Y783149D01*
X7749244D01*
Y780144D01*
X7752249D01*
Y783149D01*
X7755255D01*
Y780144D01*
X7752249D01*
Y777139D01*
Y774133D01*
X7755255D01*
Y771128D01*
X7758260D01*
Y768123D01*
Y765117D01*
X7761265D01*
Y762112D01*
X7764270D01*
Y759107D01*
Y756101D01*
X7767276D01*
Y753096D01*
X7770281D01*
Y756101D01*
X7773286D01*
Y753096D01*
X7770281D01*
Y750091D01*
Y747085D01*
X7773286D01*
Y744080D01*
X7776292D01*
Y741075D01*
Y738069D01*
X7779297D01*
Y735064D01*
X7782302D01*
Y732059D01*
X7785308D01*
Y729054D01*
X7788313D01*
Y726048D01*
Y723043D01*
X7791318D01*
Y720038D01*
X7794324D01*
Y717032D01*
Y714027D01*
X7797329D01*
Y711022D01*
X7800334D01*
Y708017D01*
X7803339D01*
Y711022D01*
X7806345D01*
Y714027D01*
Y717032D01*
X7803339D01*
Y714027D01*
X7800334D01*
Y717032D01*
X7803339D01*
Y720038D01*
Y723043D01*
X7809350D01*
Y720038D01*
Y717032D01*
Y714027D01*
Y711022D01*
X7806345D01*
Y708017D01*
X7803339D01*
Y705011D01*
X7806345D01*
Y702006D01*
X7812355D01*
Y699001D01*
Y695995D01*
Y692990D01*
X7815361D01*
Y695995D01*
X7818366D01*
Y692990D01*
X7815361D01*
Y689985D01*
X7818366D01*
Y686979D01*
X7821371D01*
Y683974D01*
X7827382D01*
Y680969D01*
X7830387D01*
Y677964D01*
Y674958D01*
X7836398D01*
Y671953D01*
Y668948D01*
X7839403D01*
Y665942D01*
X7842408D01*
Y668948D01*
X7848419D01*
Y671953D01*
Y674958D01*
X7851424D01*
Y671953D01*
Y668948D01*
X7848419D01*
Y665942D01*
X7842408D01*
Y662937D01*
X7848419D01*
Y665942D01*
X7851424D01*
Y668948D01*
X7854430D01*
Y665942D01*
X7851424D01*
Y662937D01*
X7848419D01*
Y659932D01*
Y656926D01*
X7854430D01*
Y653921D01*
Y650916D01*
X7860440D01*
Y647911D01*
X7863446D01*
Y644905D01*
X7866451D01*
Y641900D01*
X7869456D01*
Y638895D01*
X7872462D01*
Y635889D01*
X7878472D01*
Y632884D01*
X7884483D01*
Y629879D01*
X7887488D01*
Y626873D01*
X7890493D01*
Y629879D01*
Y632884D01*
X7887488D01*
Y635889D01*
X7890493D01*
Y638895D01*
X7893499D01*
Y641900D01*
X7899509D01*
Y644905D01*
X7902515D01*
Y641900D01*
X7899509D01*
Y638895D01*
X7896504D01*
Y635889D01*
X7893499D01*
Y632884D01*
Y629879D01*
X7896504D01*
Y626873D01*
X7890493D01*
Y623868D01*
X7893499D01*
Y620863D01*
X7896504D01*
Y617858D01*
X7899509D01*
Y620863D01*
Y623868D01*
X7896504D01*
Y626873D01*
X7902515D01*
Y629879D01*
X7899509D01*
Y632884D01*
X7902515D01*
Y635889D01*
Y638895D01*
Y641900D01*
X7950599D01*
Y644905D01*
X8503575D01*
Y641900D01*
X8527617D01*
Y644905D01*
Y647911D01*
Y650916D01*
X8533628D01*
Y647911D01*
Y644905D01*
X8536633D01*
Y641900D01*
X8542644D01*
Y644905D01*
X8545649D01*
Y647911D01*
Y650916D01*
X8551660D01*
Y647911D01*
Y644905D01*
X8578708D01*
Y647911D01*
X8581713D01*
Y650916D01*
X8587723D01*
Y647911D01*
X8581713D01*
Y644905D01*
X8578708D01*
Y641900D01*
X8575702D01*
Y638895D01*
X8578708D01*
Y641900D01*
X8581713D01*
Y644905D01*
X8587723D01*
Y647911D01*
X8590729D01*
Y650916D01*
X8596739D01*
Y647911D01*
X8590729D01*
Y644905D01*
X8587723D01*
Y641900D01*
X8590729D01*
Y644905D01*
X8596739D01*
Y647911D01*
X8599745D01*
Y650916D01*
Y653921D01*
Y656926D01*
X8602750D01*
Y659932D01*
X8608761D01*
Y662937D01*
X8611766D01*
Y665942D01*
X8614771D01*
Y662937D01*
X8611766D01*
Y659932D01*
X8608761D01*
Y656926D01*
Y653921D01*
X8605755D01*
Y650916D01*
X8602750D01*
Y647911D01*
X8599745D01*
Y644905D01*
X8596739D01*
Y641900D01*
X8599745D01*
Y644905D01*
X8602750D01*
Y647911D01*
X8605755D01*
Y650916D01*
X8611766D01*
Y653921D01*
Y656926D01*
X8617777D01*
Y659932D01*
Y662937D01*
X8623787D01*
Y665942D01*
X8626793D01*
Y668948D01*
X8629798D01*
Y671953D01*
X8632803D01*
Y674958D01*
X8635808D01*
Y677964D01*
Y680969D01*
X8641819D01*
Y683974D01*
X8644824D01*
Y686979D01*
X8647830D01*
Y689985D01*
X8650835D01*
Y692990D01*
X8653840D01*
Y695995D01*
X8656846D01*
Y699001D01*
Y702006D01*
X8659851D01*
Y705011D01*
X8662856D01*
Y708017D01*
X8665861D01*
Y711022D01*
X8668867D01*
Y714027D01*
X8671872D01*
Y717032D01*
Y720038D01*
X8674877D01*
Y723043D01*
X8677883D01*
Y726048D01*
X8680888D01*
Y729054D01*
X8683893D01*
Y732059D01*
Y735064D01*
X8686899D01*
Y738069D01*
X8689904D01*
Y741075D01*
X8692909D01*
Y744080D01*
Y747085D01*
X8695915D01*
Y750091D01*
X8698920D01*
Y753096D01*
Y756101D01*
X8701925D01*
Y759107D01*
X8704930D01*
Y762112D01*
Y765117D01*
X8707936D01*
Y768123D01*
Y771128D01*
X8710941D01*
Y774133D01*
X8713946D01*
Y777139D01*
X8716952D01*
Y780144D01*
Y783149D01*
X8719957D01*
Y786154D01*
Y789160D01*
X8722962D01*
Y792165D01*
X8725967D01*
Y795170D01*
Y798175D01*
X8728973D01*
Y801181D01*
Y804186D01*
X8731978D01*
Y807191D01*
X8734983D01*
Y810197D01*
Y813202D01*
X8737989D01*
Y816207D01*
Y819213D01*
X8740994D01*
Y822218D01*
Y825223D01*
X8743999D01*
Y828229D01*
Y831234D01*
X8747005D01*
Y834239D01*
Y837244D01*
X8750010D01*
Y840250D01*
Y843255D01*
X8753015D01*
Y846260D01*
Y849266D01*
X8756020D01*
Y852271D01*
Y855276D01*
X8759026D01*
Y858281D01*
Y861287D01*
Y864292D01*
X8762031D01*
Y867297D01*
Y870303D01*
Y873308D01*
X8765036D01*
Y876313D01*
Y879319D01*
X8768042D01*
Y882324D01*
Y885329D01*
Y888335D01*
X8771047D01*
Y891340D01*
Y894345D01*
Y897351D01*
X8774052D01*
Y900356D01*
Y903361D01*
X8777058D01*
Y906366D01*
Y909372D01*
Y912377D01*
Y915382D01*
X8780063D01*
Y918388D01*
Y921393D01*
Y924398D01*
Y927404D01*
X8783068D01*
Y930409D01*
Y933414D01*
Y936420D01*
Y939425D01*
X8786074D01*
Y942430D01*
Y945435D01*
Y948441D01*
Y951446D01*
Y954451D01*
X8789079D01*
Y957457D01*
Y960462D01*
Y963467D01*
Y966473D01*
Y969478D01*
Y972483D01*
X8792084D01*
Y975489D01*
Y978494D01*
Y981499D01*
Y984504D01*
Y987510D01*
Y990515D01*
Y993520D01*
X8795089D01*
Y996526D01*
Y999531D01*
Y1002536D01*
Y1005542D01*
Y1008547D01*
Y1011552D01*
Y1014557D01*
Y1017563D01*
Y1020568D01*
Y1023573D01*
X8798095D01*
Y1026579D01*
Y1029584D01*
Y1032589D01*
Y1035595D01*
Y1038600D01*
Y1041605D01*
Y1044610D01*
Y1047616D01*
Y1050621D01*
Y1053626D01*
Y1056632D01*
Y1059637D01*
Y1062642D01*
Y1065648D01*
Y1068653D01*
Y1071658D01*
Y1074664D01*
X8801100D01*
Y1077669D01*
Y1080674D01*
Y1083679D01*
Y1086685D01*
Y1089690D01*
Y1092695D01*
Y1095700D01*
Y1098706D01*
Y1101711D01*
Y1104716D01*
Y1107722D01*
Y1110727D01*
Y1113732D01*
Y1116738D01*
Y1119743D01*
Y1122748D01*
Y1125754D01*
Y1128759D01*
Y1131764D01*
Y1134770D01*
Y1137775D01*
Y1140780D01*
Y1143785D01*
Y1146791D01*
Y1149796D01*
Y1152801D01*
Y1155807D01*
Y1158812D01*
Y1161817D01*
Y1164822D01*
Y1167828D01*
Y1170833D01*
Y1173838D01*
Y1176844D01*
Y1179849D01*
Y1182854D01*
Y1185860D01*
Y1188865D01*
Y1191870D01*
Y1194875D01*
Y1197881D01*
Y1200886D01*
Y1203891D01*
Y1206897D01*
Y1209902D01*
Y1212907D01*
Y1215913D01*
Y1218918D01*
Y1221923D01*
Y1224928D01*
Y1227934D01*
Y1230939D01*
Y1233944D01*
Y1236950D01*
Y1239955D01*
Y1242960D01*
Y1245966D01*
Y1248971D01*
Y1251976D01*
Y1254981D01*
Y1257987D01*
Y1260992D01*
Y1263997D01*
Y1267003D01*
Y1270008D01*
Y1273013D01*
Y1276019D01*
Y1279024D01*
Y1282029D01*
Y1285035D01*
Y1288040D01*
X8804105D01*
Y1291045D01*
Y1294050D01*
Y1297056D01*
Y1300061D01*
Y1303066D01*
Y1306072D01*
Y1309077D01*
Y1312082D01*
Y1315088D01*
Y1318093D01*
Y1321098D01*
Y1324104D01*
Y1327109D01*
Y1330114D01*
Y1333120D01*
Y1336125D01*
Y1339130D01*
Y1342135D01*
Y1345141D01*
Y1348146D01*
Y1351151D01*
Y1354157D01*
Y1357162D01*
Y1360167D01*
Y1363173D01*
Y1366178D01*
Y1369183D01*
Y1372189D01*
Y1375194D01*
Y1378199D01*
Y1381204D01*
Y1384210D01*
Y1387215D01*
Y1390220D01*
Y1393225D01*
Y1396231D01*
Y1399236D01*
Y1402241D01*
Y1405247D01*
Y1408252D01*
Y1411257D01*
Y1414263D01*
Y1417268D01*
Y1420273D01*
Y1423279D01*
Y1426284D01*
Y1429289D01*
Y1432295D01*
Y1435300D01*
Y1438305D01*
Y1441310D01*
Y1444316D01*
Y1447321D01*
X8807111D01*
Y1450326D01*
Y1453332D01*
Y1456337D01*
Y1459342D01*
Y1462347D01*
Y1465353D01*
Y1468358D01*
Y1471363D01*
Y1474369D01*
Y1477374D01*
Y1480379D01*
Y1483385D01*
Y1486390D01*
Y1489395D01*
Y1492400D01*
Y1495406D01*
Y1498411D01*
Y1501416D01*
Y1504422D01*
Y1507427D01*
Y1510432D01*
Y1513438D01*
Y1516443D01*
Y1519448D01*
Y1522453D01*
Y1525459D01*
Y1528464D01*
Y1531469D01*
Y1534475D01*
Y1537480D01*
Y1540485D01*
Y1543491D01*
Y1546496D01*
Y1549501D01*
Y1552506D01*
Y1555512D01*
Y1558517D01*
Y1561522D01*
Y1564528D01*
Y1567533D01*
Y1570538D01*
X8804105D01*
Y1573544D01*
Y1576549D01*
Y1579554D01*
Y1582560D01*
Y1585565D01*
Y1588570D01*
Y1591575D01*
Y1594581D01*
Y1597586D01*
Y1600591D01*
Y1603596D01*
Y1606602D01*
Y1609607D01*
Y1612612D01*
Y1615618D01*
Y1618623D01*
Y1621628D01*
Y1624634D01*
Y1627639D01*
Y1630644D01*
Y1633650D01*
Y1636655D01*
Y1639660D01*
Y1642666D01*
Y1645671D01*
X8801100D01*
Y1642666D01*
X8795089D01*
Y1639660D01*
X8792084D01*
Y1636655D01*
X8789079D01*
Y1633650D01*
X8786074D01*
Y1630644D01*
X8783068D01*
Y1627639D01*
X8780063D01*
Y1624634D01*
X8777058D01*
Y1621628D01*
X8774052D01*
Y1618623D01*
X8771047D01*
Y1615618D01*
X8768042D01*
Y1612612D01*
X8762031D01*
Y1609607D01*
X8759026D01*
Y1606602D01*
X8756020D01*
Y1603596D01*
X8753015D01*
Y1600591D01*
X8750010D01*
Y1597586D01*
X8747005D01*
Y1594581D01*
X8743999D01*
Y1591575D01*
X8740994D01*
Y1588570D01*
X8737989D01*
Y1585565D01*
X8734983D01*
Y1582560D01*
X8731978D01*
Y1579554D01*
X8728973D01*
Y1576549D01*
X8725967D01*
Y1573544D01*
X8722962D01*
Y1570538D01*
X8719957D01*
Y1567533D01*
X8716952D01*
Y1564528D01*
X8713946D01*
Y1561522D01*
X8710941D01*
Y1558517D01*
X8707936D01*
Y1555512D01*
X8704930D01*
Y1552506D01*
X8701925D01*
Y1549501D01*
X8698920D01*
Y1546496D01*
X8695915D01*
Y1543491D01*
X8692909D01*
Y1540485D01*
X8689904D01*
Y1537480D01*
X8683893D01*
Y1534475D01*
X8680888D01*
Y1531469D01*
X8677883D01*
Y1528464D01*
X8674877D01*
Y1525459D01*
X8671872D01*
Y1522453D01*
Y1519448D01*
X8668867D01*
Y1516443D01*
X8665861D01*
Y1513438D01*
X8659851D01*
Y1510432D01*
X8656846D01*
Y1507427D01*
X8653840D01*
Y1504422D01*
X8650835D01*
Y1501416D01*
X8647830D01*
Y1498411D01*
X8644824D01*
Y1495406D01*
X8641819D01*
Y1492400D01*
X8638814D01*
Y1489395D01*
X8635808D01*
Y1486390D01*
X8632803D01*
Y1483385D01*
X8629798D01*
Y1480379D01*
X8626793D01*
Y1477374D01*
X8623787D01*
Y1474369D01*
X8620782D01*
Y1471363D01*
X8617777D01*
Y1468358D01*
X8614771D01*
Y1465353D01*
X8611766D01*
Y1462347D01*
X8608761D01*
Y1459342D01*
X8605755D01*
Y1456337D01*
X8602750D01*
Y1453332D01*
X8599745D01*
Y1450326D01*
X8596739D01*
Y1447321D01*
X8593734D01*
Y1444316D01*
X8590729D01*
Y1441310D01*
X8587723D01*
Y1438305D01*
X8584718D01*
Y1435300D01*
X8581713D01*
Y1432295D01*
X8578708D01*
Y1429289D01*
X8575702D01*
Y1426284D01*
X8572697D01*
Y1423279D01*
X8569692D01*
Y1420273D01*
X8566686D01*
Y1417268D01*
X8563681D01*
Y1414263D01*
X8560676D01*
Y1411257D01*
X8557670D01*
Y1408252D01*
X8554665D01*
Y1405247D01*
X8551660D01*
Y1402241D01*
X8548655D01*
Y1399236D01*
X8545649D01*
Y1396231D01*
X8542644D01*
Y1393225D01*
X8539639D01*
Y1390220D01*
X8536633D01*
Y1387215D01*
X8533628D01*
Y1384210D01*
X8530623D01*
Y1381204D01*
X8527617D01*
Y1378199D01*
X8524612D01*
Y1375194D01*
X8521607D01*
Y1372189D01*
X8518601D01*
Y1369183D01*
X8515596D01*
Y1366178D01*
X8512591D01*
Y1363173D01*
X8509586D01*
Y1360167D01*
X8506580D01*
Y1357162D01*
X8503575D01*
Y1354157D01*
X8500570D01*
Y1351151D01*
X8497564D01*
Y1348146D01*
X8494559D01*
Y1345141D01*
X8491554D01*
Y1342135D01*
X8488549D01*
Y1339130D01*
X8485543D01*
Y1336125D01*
X8482538D01*
Y1333120D01*
X8479533D01*
Y1330114D01*
X8476527D01*
Y1327109D01*
X8473522D01*
Y1324104D01*
X8470517D01*
Y1321098D01*
X8467511D01*
Y1318093D01*
X8464506D01*
Y1315088D01*
X8461501D01*
Y1312082D01*
X8458495D01*
Y1309077D01*
X8455490D01*
Y1306072D01*
X8452485D01*
Y1303066D01*
X8449480D01*
Y1300061D01*
X8446474D01*
Y1297056D01*
X8443469D01*
Y1294050D01*
X8440464D01*
Y1291045D01*
X8437458D01*
Y1288040D01*
X8434453D01*
Y1285035D01*
X8431448D01*
Y1282029D01*
X8428442D01*
Y1279024D01*
X8425437D01*
Y1276019D01*
X8422432D01*
Y1273013D01*
X8419427D01*
Y1270008D01*
X8416421D01*
Y1267003D01*
X8413416D01*
Y1263997D01*
X8410411D01*
Y1260992D01*
X8407405D01*
Y1257987D01*
X8404400D01*
Y1254981D01*
X8401395D01*
Y1251976D01*
X8398390D01*
Y1248971D01*
X8395384D01*
Y1245966D01*
X8392379D01*
Y1242960D01*
X8389374D01*
Y1239955D01*
X8386368D01*
Y1236950D01*
X8383363D01*
Y1233944D01*
X8380358D01*
Y1230939D01*
X8377352D01*
Y1227934D01*
X8374347D01*
Y1224928D01*
X8371342D01*
Y1221923D01*
X8368336D01*
Y1218918D01*
X8365331D01*
Y1215913D01*
X8362326D01*
Y1212907D01*
X8359321D01*
Y1209902D01*
X8356315D01*
Y1206897D01*
X8353310D01*
Y1203891D01*
X8347299D01*
Y1200886D01*
X8344294D01*
Y1197881D01*
X8341289D01*
Y1194875D01*
X8335278D01*
Y1191870D01*
Y1188865D01*
X8329268D01*
Y1185860D01*
X8323257D01*
Y1182854D01*
X8320252D01*
Y1179849D01*
X8317246D01*
Y1176844D01*
X8314241D01*
Y1173838D01*
X8311236D01*
Y1170833D01*
X8305225D01*
Y1167828D01*
X8302220D01*
Y1164822D01*
X8296209D01*
Y1161817D01*
X8293204D01*
Y1158812D01*
X8290199D01*
Y1155807D01*
X8275172D01*
Y1158812D01*
X8263151D01*
Y1161817D01*
X8248124D01*
Y1164822D01*
X8236103D01*
Y1167828D01*
X8224082D01*
Y1170833D01*
X8209055D01*
Y1173838D01*
X8194029D01*
Y1176844D01*
X8175997D01*
Y1173838D01*
X8166981D01*
Y1170833D01*
X8160970D01*
Y1167828D01*
X8157965D01*
Y1164822D01*
X8154960D01*
Y1161817D01*
Y1158812D01*
X8151955D01*
Y1155807D01*
X8148949D01*
Y1152801D01*
Y1149796D01*
X8145944D01*
Y1146791D01*
Y1143785D01*
Y1140780D01*
X8142939D01*
Y1137775D01*
Y1134770D01*
Y1131764D01*
X8139933D01*
Y1128759D01*
Y1125754D01*
Y1122748D01*
X8136928D01*
Y1119743D01*
Y1116738D01*
Y1113732D01*
X8133923D01*
Y1110727D01*
Y1107722D01*
Y1104716D01*
X8130917D01*
Y1101711D01*
Y1098706D01*
X8127912D01*
Y1095700D01*
Y1092695D01*
Y1089690D01*
X8124907D01*
Y1086685D01*
Y1083679D01*
Y1080674D01*
Y1077669D01*
X8121902D01*
Y1074664D01*
Y1071658D01*
X8118896D01*
Y1068653D01*
Y1065648D01*
Y1062642D01*
X8115891D01*
Y1059637D01*
Y1056632D01*
Y1053626D01*
X8112886D01*
Y1050621D01*
Y1047616D01*
Y1044610D01*
X8109880D01*
Y1041605D01*
Y1038600D01*
Y1035595D01*
X8106875D01*
Y1032589D01*
Y1029584D01*
Y1026579D01*
X8103870D01*
Y1023573D01*
Y1020568D01*
Y1017563D01*
X8100864D01*
Y1014557D01*
Y1011552D01*
X8097859D01*
Y1008547D01*
Y1005542D01*
Y1002536D01*
Y999531D01*
X8094854D01*
Y996526D01*
Y993520D01*
X8091849D01*
Y990515D01*
Y987510D01*
Y984504D01*
Y981499D01*
X8088843D01*
Y978494D01*
Y975489D01*
X8085838D01*
Y972483D01*
Y969478D01*
Y966473D01*
Y963467D01*
Y960462D01*
Y957457D01*
X8082833D01*
Y954451D01*
X8085838D01*
Y951446D01*
Y948441D01*
Y945435D01*
X8088843D01*
Y942430D01*
Y939425D01*
X8091849D01*
Y936420D01*
X8094854D01*
Y933414D01*
X8100864D01*
Y930409D01*
X8109880D01*
Y927404D01*
X8118896D01*
Y930409D01*
X8127912D01*
Y933414D01*
X8133923D01*
Y936420D01*
X8136928D01*
Y939425D01*
X8139933D01*
Y942430D01*
Y945435D01*
X8142939D01*
Y948441D01*
Y951446D01*
X8145944D01*
Y954451D01*
Y957457D01*
Y960462D01*
X8148949D01*
Y963467D01*
Y966473D01*
Y969478D01*
X8151955D01*
Y972483D01*
Y975489D01*
Y978494D01*
X8154960D01*
Y981499D01*
Y984504D01*
Y987510D01*
X8157965D01*
Y990515D01*
Y993520D01*
Y996526D01*
X8160970D01*
Y999531D01*
Y1002536D01*
Y1005542D01*
X8163976D01*
Y1008547D01*
Y1011552D01*
X8166981D01*
Y1014557D01*
Y1017563D01*
Y1020568D01*
Y1023573D01*
X8169986D01*
Y1026579D01*
Y1029584D01*
Y1032589D01*
X8172992D01*
Y1035595D01*
Y1038600D01*
Y1041605D01*
X8175997D01*
Y1044610D01*
Y1047616D01*
Y1050621D01*
X8179002D01*
Y1053626D01*
Y1056632D01*
Y1059637D01*
X8182008D01*
Y1062642D01*
Y1065648D01*
Y1068653D01*
X8185013D01*
Y1071658D01*
Y1074664D01*
Y1077669D01*
X8188018D01*
Y1080674D01*
Y1083679D01*
X8191023D01*
Y1086685D01*
Y1089690D01*
Y1092695D01*
Y1095700D01*
X8194029D01*
Y1098706D01*
Y1101711D01*
X8197034D01*
Y1104716D01*
Y1107722D01*
X8212061D01*
Y1104716D01*
X8227087D01*
Y1101711D01*
X8242114D01*
Y1098706D01*
X8260146D01*
Y1095700D01*
X8275172D01*
Y1092695D01*
X8290199D01*
Y1089690D01*
X8299215D01*
Y1086685D01*
X8302220D01*
Y1083679D01*
X8305225D01*
Y1080674D01*
X8308230D01*
Y1077669D01*
X8311236D01*
Y1074664D01*
Y1071658D01*
X8314241D01*
Y1068653D01*
X8317246D01*
Y1065648D01*
X8320252D01*
Y1062642D01*
Y1059637D01*
X8323257D01*
Y1056632D01*
X8326262D01*
Y1053626D01*
X8329268D01*
Y1050621D01*
Y1047616D01*
X8332273D01*
Y1044610D01*
X8335278D01*
Y1041605D01*
X8338284D01*
Y1038600D01*
X8341289D01*
Y1035595D01*
Y1032589D01*
X8344294D01*
Y1029584D01*
X8347299D01*
Y1026579D01*
X8350305D01*
Y1023573D01*
Y1020568D01*
X8353310D01*
Y1017563D01*
Y1014557D01*
Y1011552D01*
Y1008547D01*
Y1005542D01*
X8356315D01*
Y1002536D01*
Y999531D01*
Y996526D01*
Y993520D01*
Y990515D01*
Y987510D01*
Y984504D01*
Y981499D01*
Y978494D01*
Y975489D01*
Y972483D01*
Y969478D01*
Y966473D01*
Y963467D01*
Y960462D01*
Y957457D01*
Y954451D01*
Y951446D01*
Y948441D01*
Y945435D01*
Y942430D01*
Y939425D01*
Y936420D01*
Y933414D01*
Y930409D01*
Y927404D01*
Y924398D01*
Y921393D01*
X8347299D01*
Y918388D01*
X8329268D01*
Y915382D01*
X8311236D01*
Y912377D01*
X8293204D01*
Y909372D01*
X8272167D01*
Y906366D01*
X8251130D01*
Y903361D01*
X8236103D01*
Y900356D01*
X8215066D01*
Y897351D01*
X8200039D01*
Y894345D01*
X8185013D01*
Y891340D01*
X8175997D01*
Y888335D01*
X8172992D01*
Y885329D01*
Y882324D01*
X8166981D01*
Y879319D01*
Y876313D01*
X8163976D01*
Y873308D01*
Y870303D01*
Y867297D01*
Y864292D01*
Y861287D01*
Y858281D01*
Y855276D01*
X8166981D01*
Y852271D01*
Y849266D01*
X8169986D01*
Y846260D01*
X8172992D01*
Y843255D01*
Y840250D01*
X8179002D01*
Y837244D01*
X8185013D01*
Y840250D01*
X8188018D01*
Y837244D01*
X8185013D01*
Y834239D01*
X8209055D01*
Y837244D01*
X8227087D01*
Y840250D01*
X8242114D01*
Y843255D01*
X8257140D01*
Y846260D01*
X8278177D01*
Y849266D01*
X8299215D01*
Y852271D01*
X8317246D01*
Y855276D01*
X8335278D01*
Y858281D01*
X8356315D01*
Y861287D01*
Y864292D01*
X8359321D01*
Y861287D01*
X8374347D01*
Y864292D01*
X8392379D01*
Y867297D01*
X8401395D01*
Y870303D01*
X8407405D01*
Y873308D01*
X8410411D01*
Y876313D01*
X8413416D01*
Y879319D01*
Y882324D01*
X8416421D01*
Y885329D01*
Y888335D01*
X8419427D01*
Y891340D01*
Y894345D01*
Y897351D01*
Y900356D01*
Y903361D01*
Y906366D01*
Y909372D01*
Y912377D01*
Y915382D01*
Y918388D01*
Y921393D01*
Y924398D01*
Y927404D01*
Y930409D01*
Y933414D01*
Y936420D01*
Y939425D01*
Y942430D01*
Y945435D01*
Y948441D01*
Y951446D01*
Y954451D01*
Y957457D01*
Y960462D01*
Y963467D01*
Y966473D01*
Y969478D01*
Y972483D01*
Y975489D01*
Y978494D01*
X8416421D01*
Y981499D01*
Y984504D01*
Y987510D01*
Y990515D01*
Y993520D01*
Y996526D01*
X8419427D01*
Y999531D01*
X8422432D01*
Y1002536D01*
X8425437D01*
Y1005542D01*
Y1008547D01*
X8428442D01*
Y1011552D01*
X8431448D01*
Y1014557D01*
X8434453D01*
Y1017563D01*
X8437458D01*
Y1020568D01*
X8440464D01*
Y1023573D01*
X8443469D01*
Y1026579D01*
Y1029584D01*
X8449480D01*
Y1032589D01*
X8452485D01*
Y1035595D01*
X8455490D01*
Y1038600D01*
Y1041605D01*
X8461501D01*
Y1044610D01*
X8464506D01*
Y1047616D01*
X8467511D01*
Y1050621D01*
X8470517D01*
Y1053626D01*
X8473522D01*
Y1056632D01*
X8476527D01*
Y1059637D01*
X8479533D01*
Y1062642D01*
X8482538D01*
Y1065648D01*
X8485543D01*
Y1068653D01*
X8488549D01*
Y1071658D01*
X8491554D01*
Y1074664D01*
X8494559D01*
Y1077669D01*
X8497564D01*
Y1080674D01*
X8500570D01*
Y1083679D01*
X8503575D01*
Y1086685D01*
X8506580D01*
Y1089690D01*
X8509586D01*
Y1092695D01*
X8512591D01*
Y1095700D01*
X8515596D01*
Y1098706D01*
X8518601D01*
Y1101711D01*
X8521607D01*
Y1104716D01*
X8524612D01*
Y1107722D01*
X8527617D01*
Y1110727D01*
X8530623D01*
Y1113732D01*
X8533628D01*
Y1116738D01*
X8536633D01*
Y1119743D01*
X8539639D01*
Y1122748D01*
X8542644D01*
Y1125754D01*
X8545649D01*
Y1128759D01*
X8548655D01*
Y1131764D01*
X8551660D01*
Y1134770D01*
X8554665D01*
Y1137775D01*
X8557670D01*
Y1140780D01*
X8560676D01*
Y1143785D01*
X8563681D01*
Y1146791D01*
X8566686D01*
Y1149796D01*
X8569692D01*
Y1152801D01*
X8575702D01*
Y1149796D01*
X8578708D01*
Y1146791D01*
Y1143785D01*
Y1140780D01*
X8581713D01*
Y1137775D01*
Y1134770D01*
Y1131764D01*
X8584718D01*
Y1128759D01*
Y1125754D01*
Y1122748D01*
Y1119743D01*
Y1116738D01*
Y1113732D01*
Y1110727D01*
Y1107722D01*
X8587723D01*
Y1104716D01*
Y1101711D01*
Y1098706D01*
Y1095700D01*
Y1092695D01*
Y1089690D01*
Y1086685D01*
Y1083679D01*
Y1080674D01*
Y1077669D01*
Y1074664D01*
Y1071658D01*
Y1068653D01*
Y1065648D01*
Y1062642D01*
Y1059637D01*
Y1056632D01*
X8584718D01*
Y1053626D01*
Y1050621D01*
Y1047616D01*
Y1044610D01*
Y1041605D01*
Y1038600D01*
Y1035595D01*
Y1032589D01*
Y1029584D01*
X8581713D01*
Y1026579D01*
Y1023573D01*
Y1020568D01*
Y1017563D01*
Y1014557D01*
X8578708D01*
Y1011552D01*
Y1008547D01*
Y1005542D01*
Y1002536D01*
X8575702D01*
Y999531D01*
Y996526D01*
Y993520D01*
Y990515D01*
X8572697D01*
Y987510D01*
Y984504D01*
Y981499D01*
Y978494D01*
X8569692D01*
Y975489D01*
Y972483D01*
Y969478D01*
X8566686D01*
Y966473D01*
Y963467D01*
Y960462D01*
X8563681D01*
Y957457D01*
Y954451D01*
Y951446D01*
X8560676D01*
Y948441D01*
Y945435D01*
X8557670D01*
Y942430D01*
Y939425D01*
X8554665D01*
Y936420D01*
Y933414D01*
Y930409D01*
X8551660D01*
Y927404D01*
Y924398D01*
X8548655D01*
Y921393D01*
Y918388D01*
X8545649D01*
Y915382D01*
Y912377D01*
X8542644D01*
Y909372D01*
Y906366D01*
X8539639D01*
Y903361D01*
Y900356D01*
X8536633D01*
Y897351D01*
X8539639D01*
Y894345D01*
X8533628D01*
Y891340D01*
Y888335D01*
X8530623D01*
Y885329D01*
X8527617D01*
Y882324D01*
X8524612D01*
Y879319D01*
Y876313D01*
X8521607D01*
Y873308D01*
X8518601D01*
Y870303D01*
Y867297D01*
X8515596D01*
Y864292D01*
X8512591D01*
Y861287D01*
X8509586D01*
Y858281D01*
X8506580D01*
Y855276D01*
Y852271D01*
X8503575D01*
Y849266D01*
X8500570D01*
Y846260D01*
X8497564D01*
Y843255D01*
Y840250D01*
X8494559D01*
Y837244D01*
X8491554D01*
Y834239D01*
X8488549D01*
Y831234D01*
X8485543D01*
Y828229D01*
X8482538D01*
Y825223D01*
X8479533D01*
Y822218D01*
X8476527D01*
Y819213D01*
X8473522D01*
Y816207D01*
X8467511D01*
Y813202D01*
Y810197D01*
X8461501D01*
Y807191D01*
X8458495D01*
Y804186D01*
X8455490D01*
Y801181D01*
X8452485D01*
Y798175D01*
X8446474D01*
Y795170D01*
X8443469D01*
Y792165D01*
X8440464D01*
Y789160D01*
X8437458D01*
Y786154D01*
X8431448D01*
Y783149D01*
X8425437D01*
Y780144D01*
X8419427D01*
Y777139D01*
X8416421D01*
Y774133D01*
X8413416D01*
Y771128D01*
X8407405D01*
Y768123D01*
Y765117D01*
X8404400D01*
Y762112D01*
X8401395D01*
Y765117D01*
X8404400D01*
Y768123D01*
X8401395D01*
Y765117D01*
X8395384D01*
Y762112D01*
X8398390D01*
Y759107D01*
X8404400D01*
Y762112D01*
X8407405D01*
Y759107D01*
X8404400D01*
Y756101D01*
X8395384D01*
Y759107D01*
X8392379D01*
Y762112D01*
X8389374D01*
Y759107D01*
X8383363D01*
Y756101D01*
X8377352D01*
Y753096D01*
X8371342D01*
Y750091D01*
X8365331D01*
Y747085D01*
X8356315D01*
Y744080D01*
X8347299D01*
Y741075D01*
X8335278D01*
Y738069D01*
X8341289D01*
Y735064D01*
X8332273D01*
Y732059D01*
X8341289D01*
Y735064D01*
X8353310D01*
Y738069D01*
X8347299D01*
Y741075D01*
X8356315D01*
Y738069D01*
Y735064D01*
X8359321D01*
Y738069D01*
Y741075D01*
X8365331D01*
Y738069D01*
Y735064D01*
X8368336D01*
Y732059D01*
X8362326D01*
Y729054D01*
X8359321D01*
Y726048D01*
X8344294D01*
Y729054D01*
X8359321D01*
Y732059D01*
X8344294D01*
Y729054D01*
X8329268D01*
Y726048D01*
X8323257D01*
Y729054D01*
X8329268D01*
Y732059D01*
X8323257D01*
Y735064D01*
X8317246D01*
Y732059D01*
X8302220D01*
Y729054D01*
X8284188D01*
Y726048D01*
X8257140D01*
Y723043D01*
X8206050D01*
Y726048D01*
X8179002D01*
Y723043D01*
X8172992D01*
Y726048D01*
X8179002D01*
Y729054D01*
X8160970D01*
Y732059D01*
X8148949D01*
Y735064D01*
X8139933D01*
Y732059D01*
X8136928D01*
Y735064D01*
Y738069D01*
X8130917D01*
Y735064D01*
X8121902D01*
Y738069D01*
X8127912D01*
Y741075D01*
X8118896D01*
Y744080D01*
X8109880D01*
Y747085D01*
X8103870D01*
Y750091D01*
X8097859D01*
Y753096D01*
X8088843D01*
Y756101D01*
X8082833D01*
Y759107D01*
X8079827D01*
Y762112D01*
X8073817D01*
Y759107D01*
X8070811D01*
Y756101D01*
X8067806D01*
Y759107D01*
X8070811D01*
Y762112D01*
Y765117D01*
X8061795D01*
Y768123D01*
X8058790D01*
Y771128D01*
X8055785D01*
Y774133D01*
X8049774D01*
Y771128D01*
X8052780D01*
Y768123D01*
X8046769D01*
Y771128D01*
Y774133D01*
X8049774D01*
Y777139D01*
X8046769D01*
Y780144D01*
X8043764D01*
Y777139D01*
X8040759D01*
Y780144D01*
X8043764D01*
Y783149D01*
X8037753D01*
Y786154D01*
X8034748D01*
Y789160D01*
X8031743D01*
Y792165D01*
X8025732D01*
Y795170D01*
X8022727D01*
Y798175D01*
X8019721D01*
Y795170D01*
X8016716D01*
Y798175D01*
X8019721D01*
Y801181D01*
X8016716D01*
Y804186D01*
X8013711D01*
Y807191D01*
X8007700D01*
Y810197D01*
X8001689D01*
Y807191D01*
X7998684D01*
Y810197D01*
X8001689D01*
Y813202D01*
Y816207D01*
X7998684D01*
Y819213D01*
X7995679D01*
Y822218D01*
X7992674D01*
Y825223D01*
X7989668D01*
Y828229D01*
X7986663D01*
Y831234D01*
X7983658D01*
Y834239D01*
X7980653D01*
Y837244D01*
Y840250D01*
X7977647D01*
Y837244D01*
X7974642D01*
Y840250D01*
Y843255D01*
Y846260D01*
X7971637D01*
Y849266D01*
X7968631D01*
Y852271D01*
X7965626D01*
Y855276D01*
X7962621D01*
Y858281D01*
X7959615D01*
Y861287D01*
Y864292D01*
X7956610D01*
Y867297D01*
X7953605D01*
Y870303D01*
X7950599D01*
Y873308D01*
Y876313D01*
X7947594D01*
Y879319D01*
X7944589D01*
Y876313D01*
X7941584D01*
Y879319D01*
X7944589D01*
Y882324D01*
Y885329D01*
X7938578D01*
Y888335D01*
Y891340D01*
Y894345D01*
X7935573D01*
Y897351D01*
Y900356D01*
X7932568D01*
Y903361D01*
X7929562D01*
Y906366D01*
Y909372D01*
X7926557D01*
Y912377D01*
Y915382D01*
X7923552D01*
Y918388D01*
X7920546D01*
Y921393D01*
Y924398D01*
Y927404D01*
X7917541D01*
Y930409D01*
Y933414D01*
X7914536D01*
Y936420D01*
Y939425D01*
X7911531D01*
Y942430D01*
Y945435D01*
X7908525D01*
Y948441D01*
Y951446D01*
Y954451D01*
X7905520D01*
Y957457D01*
Y960462D01*
Y963467D01*
X7902515D01*
Y966473D01*
Y969478D01*
X7899509D01*
Y972483D01*
Y975489D01*
Y978494D01*
Y981499D01*
X7896504D01*
Y984504D01*
Y987510D01*
Y990515D01*
X7893499D01*
Y993520D01*
Y996526D01*
Y999531D01*
Y1002536D01*
X7890493D01*
Y1005542D01*
Y1008547D01*
Y1011552D01*
Y1014557D01*
Y1017563D01*
X7887488D01*
Y1020568D01*
Y1023573D01*
Y1026579D01*
Y1029584D01*
Y1032589D01*
Y1035595D01*
X7884483D01*
Y1038600D01*
Y1041605D01*
Y1044610D01*
Y1047616D01*
Y1050621D01*
Y1053626D01*
Y1056632D01*
Y1059637D01*
X7881478D01*
Y1062642D01*
Y1065648D01*
Y1068653D01*
Y1071658D01*
Y1074664D01*
Y1077669D01*
Y1080674D01*
Y1083679D01*
Y1086685D01*
Y1089690D01*
Y1092695D01*
Y1095700D01*
Y1098706D01*
Y1101711D01*
Y1104716D01*
Y1107722D01*
X7884483D01*
Y1110727D01*
Y1113732D01*
Y1116738D01*
Y1119743D01*
Y1122748D01*
Y1125754D01*
Y1128759D01*
Y1131764D01*
Y1134770D01*
Y1137775D01*
X7887488D01*
Y1140780D01*
Y1143785D01*
Y1146791D01*
Y1149796D01*
Y1152801D01*
X7890493D01*
Y1155807D01*
Y1158812D01*
Y1161817D01*
Y1164822D01*
Y1167828D01*
X7893499D01*
Y1170833D01*
Y1173838D01*
Y1176844D01*
Y1179849D01*
X7896504D01*
Y1182854D01*
Y1185860D01*
Y1188865D01*
Y1191870D01*
X7899509D01*
Y1194875D01*
Y1197881D01*
Y1200886D01*
X7902515D01*
Y1203891D01*
Y1206897D01*
X7905520D01*
Y1209902D01*
Y1212907D01*
Y1215913D01*
X7908525D01*
Y1218918D01*
Y1221923D01*
X7911531D01*
Y1224928D01*
Y1227934D01*
Y1230939D01*
X7914536D01*
Y1233944D01*
Y1236950D01*
X7917541D01*
Y1239955D01*
Y1242960D01*
X7920546D01*
Y1245966D01*
Y1248971D01*
X7923552D01*
Y1251976D01*
X7926557D01*
Y1254981D01*
Y1257987D01*
Y1260992D01*
X7929562D01*
Y1263997D01*
X7932568D01*
Y1267003D01*
Y1270008D01*
X7935573D01*
Y1273013D01*
Y1276019D01*
X7938578D01*
Y1279024D01*
Y1282029D01*
X7941584D01*
Y1285035D01*
X7944589D01*
Y1288040D01*
X7947594D01*
Y1291045D01*
Y1294050D01*
X7950599D01*
Y1297056D01*
X7953605D01*
Y1300061D01*
X7956610D01*
Y1303066D01*
X7959615D01*
Y1306072D01*
X7962621D01*
Y1309077D01*
Y1312082D01*
X7965626D01*
Y1315088D01*
X7968631D01*
Y1318093D01*
X7971637D01*
Y1321098D01*
X7974642D01*
Y1324104D01*
X7977647D01*
Y1327109D01*
X7980653D01*
Y1330114D01*
X7983658D01*
Y1333120D01*
X7986663D01*
Y1336125D01*
X7989668D01*
Y1339130D01*
X7992674D01*
Y1342135D01*
X7995679D01*
Y1345141D01*
X7998684D01*
Y1348146D01*
X8001689D01*
Y1351151D01*
X8004695D01*
Y1354157D01*
X8010705D01*
Y1357162D01*
X8013711D01*
Y1360167D01*
X8016716D01*
Y1363173D01*
X8022727D01*
Y1366178D01*
X8025732D01*
Y1369183D01*
X8028737D01*
Y1372189D01*
X8034748D01*
Y1375194D01*
X8040759D01*
Y1378199D01*
X8043764D01*
Y1381204D01*
X8049774D01*
Y1384210D01*
X8052780D01*
Y1387215D01*
X8058790D01*
Y1390220D01*
X8064801D01*
Y1393225D01*
X8070811D01*
Y1396231D01*
X8076822D01*
Y1399236D01*
X8085838D01*
Y1402241D01*
X8091849D01*
Y1405247D01*
X8097859D01*
Y1408252D01*
X8106875D01*
Y1411257D01*
X8115891D01*
Y1414263D01*
X8124907D01*
Y1417268D01*
X8136928D01*
Y1420273D01*
X8148949D01*
Y1423279D01*
X8160970D01*
Y1426284D01*
X8182008D01*
Y1429289D01*
X8215066D01*
Y1432295D01*
X8239108D01*
Y1429289D01*
X8269162D01*
Y1426284D01*
X8287193D01*
Y1423279D01*
X8305225D01*
Y1420273D01*
X8329268D01*
Y1417268D01*
X8341289D01*
Y1420273D01*
X8344294D01*
Y1423279D01*
Y1426284D01*
X8347299D01*
Y1429289D01*
X8350305D01*
Y1432295D01*
X8353310D01*
Y1435300D01*
Y1438305D01*
X8356315D01*
Y1441310D01*
X8359321D01*
Y1444316D01*
X8362326D01*
Y1447321D01*
X8365331D01*
Y1450326D01*
Y1453332D01*
X8368336D01*
Y1456337D01*
X8371342D01*
Y1459342D01*
X8374347D01*
Y1462347D01*
X8377352D01*
Y1465353D01*
X8380358D01*
Y1468358D01*
X8383363D01*
Y1471363D01*
Y1474369D01*
X8386368D01*
Y1477374D01*
X8389374D01*
Y1480379D01*
X8392379D01*
Y1483385D01*
X8395384D01*
Y1486390D01*
X8398390D01*
Y1489395D01*
Y1492400D01*
X8401395D01*
Y1495406D01*
X8404400D01*
Y1498411D01*
X8407405D01*
Y1501416D01*
X8410411D01*
Y1504422D01*
X8413416D01*
Y1507427D01*
X8416421D01*
Y1510432D01*
Y1513438D01*
X8419427D01*
Y1516443D01*
X8422432D01*
Y1519448D01*
X8425437D01*
Y1522453D01*
X8428442D01*
Y1525459D01*
X8431448D01*
Y1528464D01*
X8434453D01*
Y1531469D01*
Y1534475D01*
X8437458D01*
Y1537480D01*
X8440464D01*
Y1540485D01*
X8443469D01*
Y1543491D01*
X8446474D01*
Y1546496D01*
X8449480D01*
Y1549501D01*
X8452485D01*
Y1552506D01*
Y1555512D01*
X8455490D01*
Y1558517D01*
X8458495D01*
Y1561522D01*
X8461501D01*
Y1564528D01*
X8464506D01*
Y1567533D01*
X8467511D01*
Y1570538D01*
X8470517D01*
Y1573544D01*
X8473522D01*
Y1576549D01*
Y1579554D01*
X8476527D01*
Y1582560D01*
X8479533D01*
Y1585565D01*
X8482538D01*
Y1588570D01*
X8485543D01*
Y1591575D01*
X8488549D01*
Y1594581D01*
X8491554D01*
Y1597586D01*
Y1600591D01*
X8494559D01*
Y1603596D01*
X8497564D01*
Y1606602D01*
X8500570D01*
Y1609607D01*
X8503575D01*
Y1612612D01*
X8506580D01*
Y1615618D01*
X8509586D01*
Y1618623D01*
Y1621628D01*
X8512591D01*
Y1624634D01*
X8515596D01*
Y1627639D01*
X8518601D01*
Y1630644D01*
Y1633650D01*
X8521607D01*
Y1636655D01*
X8524612D01*
Y1639660D01*
X8527617D01*
Y1642666D01*
Y1645671D01*
X8530623D01*
Y1648676D01*
X8533628D01*
Y1651681D01*
X8536633D01*
Y1654687D01*
X8539639D01*
Y1657692D01*
Y1660697D01*
X8542644D01*
Y1663703D01*
X8545649D01*
Y1666708D01*
Y1669713D01*
X8548655D01*
Y1672719D01*
X8551660D01*
Y1675724D01*
Y1678729D01*
Y1681735D01*
X8554665D01*
Y1684740D01*
X8548655D01*
Y1681735D01*
D02*
G37*
%LPC*%
G36*
X8593734Y1426284D02*
X8596739D01*
Y1423279D01*
X8593734D01*
Y1426284D01*
D02*
G37*
G36*
X8410411Y999531D02*
X8413416D01*
Y996526D01*
X8410411D01*
Y999531D01*
D02*
G37*
G36*
X7905520Y939425D02*
X7908525D01*
Y936420D01*
X7905520D01*
Y939425D01*
D02*
G37*
G36*
X8566686D02*
X8569692D01*
Y936420D01*
X8566686D01*
Y939425D01*
D02*
G37*
G36*
X8545649Y912377D02*
X8548655D01*
Y909372D01*
Y906366D01*
X8545649D01*
Y909372D01*
Y912377D01*
D02*
G37*
G36*
X8407405Y891340D02*
X8410411D01*
Y888335D01*
X8407405D01*
Y891340D01*
D02*
G37*
G36*
X8747005D02*
X8750010D01*
Y888335D01*
X8747005D01*
Y891340D01*
D02*
G37*
G36*
X7926557Y876313D02*
X7929562D01*
Y873308D01*
X7926557D01*
Y876313D01*
D02*
G37*
G36*
X8172992Y873308D02*
X8175997D01*
Y870303D01*
X8172992D01*
Y873308D01*
D02*
G37*
G36*
X7929562Y870303D02*
X7932568D01*
Y867297D01*
X7929562D01*
Y870303D01*
D02*
G37*
G36*
X8175997Y867297D02*
X8179002D01*
Y864292D01*
X8175997D01*
Y867297D01*
D02*
G37*
G36*
X8521607Y858281D02*
X8524612D01*
Y855276D01*
X8521607D01*
Y858281D01*
D02*
G37*
G36*
X7953605Y855276D02*
X7956610D01*
Y852271D01*
X7953605D01*
Y855276D01*
D02*
G37*
G36*
X8747005D02*
X8750010D01*
Y852271D01*
X8747005D01*
Y855276D01*
D02*
G37*
G36*
X7956610Y852271D02*
X7959615D01*
Y849266D01*
X7956610D01*
Y852271D01*
D02*
G37*
G36*
X8515596D02*
X8518601D01*
Y849266D01*
X8515596D01*
Y852271D01*
D02*
G37*
G36*
X8506580D02*
X8509586D01*
Y849266D01*
Y846260D01*
X8506580D01*
Y849266D01*
Y852271D01*
D02*
G37*
G36*
X7953605Y846260D02*
X7956610D01*
Y843255D01*
X7953605D01*
Y846260D01*
D02*
G37*
G36*
X7962621D02*
X7965626D01*
Y843255D01*
X7962621D01*
Y846260D01*
D02*
G37*
G36*
X8509586D02*
X8512591D01*
Y843255D01*
X8509586D01*
Y846260D01*
D02*
G37*
G36*
X8722962Y843255D02*
X8725967D01*
Y840250D01*
X8722962D01*
Y843255D01*
D02*
G37*
G36*
X8737989D02*
X8740994D01*
Y840250D01*
X8737989D01*
Y843255D01*
D02*
G37*
G36*
X8728973Y834239D02*
X8731978D01*
Y831234D01*
X8728973D01*
Y834239D01*
D02*
G37*
G36*
X8494559Y822218D02*
X8500570D01*
Y819213D01*
X8494559D01*
Y822218D01*
D02*
G37*
G36*
X8731978Y825223D02*
X8734983D01*
Y822218D01*
Y819213D01*
X8731978D01*
Y822218D01*
Y825223D01*
D02*
G37*
G36*
X8476527Y819213D02*
X8479533D01*
Y816207D01*
X8476527D01*
Y813202D01*
X8473522D01*
Y816207D01*
X8476527D01*
Y819213D01*
D02*
G37*
G36*
X8725967Y816207D02*
X8728973D01*
Y813202D01*
X8725967D01*
Y816207D01*
D02*
G37*
G36*
X8728973Y813202D02*
X8731978D01*
Y810197D01*
X8728973D01*
Y813202D01*
D02*
G37*
G36*
X8467511Y810197D02*
X8470517D01*
Y807191D01*
X8467511D01*
Y810197D01*
D02*
G37*
G36*
X8473522Y807191D02*
X8476527D01*
Y804186D01*
X8473522D01*
Y807191D01*
D02*
G37*
G36*
X8458495Y804186D02*
X8461501D01*
Y801181D01*
X8458495D01*
Y804186D01*
D02*
G37*
G36*
X8476527D02*
X8479533D01*
Y801181D01*
X8476527D01*
Y804186D01*
D02*
G37*
G36*
X7998684Y801181D02*
X8001689D01*
Y798175D01*
X7998684D01*
Y801181D01*
D02*
G37*
G36*
X8007700D02*
X8010705D01*
Y798175D01*
X8007700D01*
Y801181D01*
D02*
G37*
G36*
X8452485Y798175D02*
X8455490D01*
Y795170D01*
X8452485D01*
Y798175D01*
D02*
G37*
G36*
X7752249Y795170D02*
X7755255D01*
Y792165D01*
X7752249D01*
Y795170D01*
D02*
G37*
G36*
X8695915Y792165D02*
X8698920D01*
Y789160D01*
Y786154D01*
X8695915D01*
Y789160D01*
Y792165D01*
D02*
G37*
G36*
X8704930Y789160D02*
X8707936D01*
Y786154D01*
X8704930D01*
Y789160D01*
D02*
G37*
G36*
X8025732Y786154D02*
X8028737D01*
Y783149D01*
X8025732D01*
Y786154D01*
D02*
G37*
G36*
X8695915Y780144D02*
X8698920D01*
Y777139D01*
X8695915D01*
Y780144D01*
D02*
G37*
G36*
X8028737Y783149D02*
X8031743D01*
Y780144D01*
X8028737D01*
Y777139D01*
X8025732D01*
Y774133D01*
X8022727D01*
Y777139D01*
X8025732D01*
Y780144D01*
X8028737D01*
Y783149D01*
D02*
G37*
G36*
X8031743Y777139D02*
X8034748D01*
Y774133D01*
X8031743D01*
Y777139D01*
D02*
G37*
G36*
X8431448Y780144D02*
X8434453D01*
Y777139D01*
X8431448D01*
Y774133D01*
X8428442D01*
Y777139D01*
X8431448D01*
Y780144D01*
D02*
G37*
G36*
X8025732Y774133D02*
X8028737D01*
Y771128D01*
X8025732D01*
Y774133D01*
D02*
G37*
G36*
X8434453D02*
X8437458D01*
Y771128D01*
X8434453D01*
Y774133D01*
D02*
G37*
G36*
X7767276Y771128D02*
X7770281D01*
Y768123D01*
X7767276D01*
Y771128D01*
D02*
G37*
G36*
X8698920D02*
X8701925D01*
Y768123D01*
Y765117D01*
X8698920D01*
Y768123D01*
Y771128D01*
D02*
G37*
G36*
X7776292D02*
X7779297D01*
Y768123D01*
X7776292D01*
Y765117D01*
Y762112D01*
X7773286D01*
Y765117D01*
Y768123D01*
X7776292D01*
Y771128D01*
D02*
G37*
G36*
X7767276Y762112D02*
X7770281D01*
Y759107D01*
X7767276D01*
Y762112D01*
D02*
G37*
G36*
X8055785Y765117D02*
X8058790D01*
Y762112D01*
X8061795D01*
Y759107D01*
X8055785D01*
Y762112D01*
Y765117D01*
D02*
G37*
G36*
X7776292Y759107D02*
X7779297D01*
Y756101D01*
X7776292D01*
Y759107D01*
D02*
G37*
G36*
X8073817D02*
X8076822D01*
Y756101D01*
X8073817D01*
Y759107D01*
D02*
G37*
G36*
X8404400Y756101D02*
X8407405D01*
Y753096D01*
X8404400D01*
Y756101D01*
D02*
G37*
G36*
X8055785Y753096D02*
X8061795D01*
Y750091D01*
X8055785D01*
Y753096D01*
D02*
G37*
G36*
X7776292Y750091D02*
X7779297D01*
Y747085D01*
X7776292D01*
Y750091D01*
D02*
G37*
G36*
X8046769D02*
X8049774D01*
Y747085D01*
X8046769D01*
Y750091D01*
D02*
G37*
G36*
X8091849D02*
X8094854D01*
Y747085D01*
X8091849D01*
Y750091D01*
D02*
G37*
G36*
X8371342D02*
X8374347D01*
Y747085D01*
X8371342D01*
Y750091D01*
D02*
G37*
G36*
X8398390D02*
X8404400D01*
Y747085D01*
X8398390D01*
Y750091D01*
D02*
G37*
G36*
X8683893Y747085D02*
X8686899D01*
Y744080D01*
X8683893D01*
Y747085D01*
D02*
G37*
G36*
X7779297Y744080D02*
X7782302D01*
Y741075D01*
X7779297D01*
Y744080D01*
D02*
G37*
G36*
X8377352Y753096D02*
X8383363D01*
Y750091D01*
X8389374D01*
Y747085D01*
X8383363D01*
Y744080D01*
Y741075D01*
X8380358D01*
Y744080D01*
X8374347D01*
Y741075D01*
X8371342D01*
Y744080D01*
X8374347D01*
Y747085D01*
X8377352D01*
Y750091D01*
Y753096D01*
D02*
G37*
G36*
X8677883Y747085D02*
X8680888D01*
Y744080D01*
Y741075D01*
X8677883D01*
Y744080D01*
Y747085D01*
D02*
G37*
G36*
X8686899Y744080D02*
X8689904D01*
Y741075D01*
X8686899D01*
Y744080D01*
D02*
G37*
G36*
X7785308Y747085D02*
X7788313D01*
Y744080D01*
Y741075D01*
Y738069D01*
X7785308D01*
Y741075D01*
Y744080D01*
Y747085D01*
D02*
G37*
G36*
X7803339Y744080D02*
X7806345D01*
Y741075D01*
Y738069D01*
X7803339D01*
Y741075D01*
Y744080D01*
D02*
G37*
G36*
X8680888Y741075D02*
X8683893D01*
Y738069D01*
X8680888D01*
Y741075D01*
D02*
G37*
G36*
X7788313Y738069D02*
X7791318D01*
Y735064D01*
X7788313D01*
Y738069D01*
D02*
G37*
G36*
X8115891D02*
X8118896D01*
Y735064D01*
X8115891D01*
Y738069D01*
D02*
G37*
G36*
X8398390D02*
X8407405D01*
Y735064D01*
X8398390D01*
Y738069D01*
D02*
G37*
G36*
X8100864Y735064D02*
X8106875D01*
Y732059D01*
X8100864D01*
Y735064D01*
D02*
G37*
G36*
X7791318D02*
X7794324D01*
Y732059D01*
Y729054D01*
X7791318D01*
Y732059D01*
Y735064D01*
D02*
G37*
G36*
X8106875Y732059D02*
X8115891D01*
Y729054D01*
X8106875D01*
Y732059D01*
D02*
G37*
G36*
X8124907D02*
X8133923D01*
Y729054D01*
X8124907D01*
Y732059D01*
D02*
G37*
G36*
X8317246D02*
X8320252D01*
Y729054D01*
X8317246D01*
Y732059D01*
D02*
G37*
G36*
X8398390D02*
X8407405D01*
Y729054D01*
X8398390D01*
Y732059D01*
D02*
G37*
G36*
X8094854Y729054D02*
X8097859D01*
Y726048D01*
X8094854D01*
Y729054D01*
D02*
G37*
G36*
X8118896D02*
X8121902D01*
Y726048D01*
X8118896D01*
Y729054D01*
D02*
G37*
G36*
X8139933D02*
X8145944D01*
Y726048D01*
X8139933D01*
Y729054D01*
D02*
G37*
G36*
X8305225D02*
X8314241D01*
Y726048D01*
X8305225D01*
Y729054D01*
D02*
G37*
G36*
X8674877Y732059D02*
X8677883D01*
Y729054D01*
Y726048D01*
X8674877D01*
Y729054D01*
Y732059D01*
D02*
G37*
G36*
X8130917Y726048D02*
X8133923D01*
Y723043D01*
X8130917D01*
Y726048D01*
D02*
G37*
G36*
X8293204D02*
X8296209D01*
Y723043D01*
X8293204D01*
Y726048D01*
D02*
G37*
G36*
X8368336Y729054D02*
X8383363D01*
Y726048D01*
Y723043D01*
X8368336D01*
Y726048D01*
Y729054D01*
D02*
G37*
G36*
X8314241Y726048D02*
X8320252D01*
Y723043D01*
Y720038D01*
X8311236D01*
Y723043D01*
X8314241D01*
Y726048D01*
D02*
G37*
G36*
X8332273D02*
X8338284D01*
Y723043D01*
X8335278D01*
Y720038D01*
X8332273D01*
Y723043D01*
Y726048D01*
D02*
G37*
G36*
X8668867Y723043D02*
X8671872D01*
Y720038D01*
X8668867D01*
Y723043D01*
D02*
G37*
G36*
X7797329Y720038D02*
X7800334D01*
Y717032D01*
X7797329D01*
Y720038D01*
D02*
G37*
G36*
X8662856D02*
X8665861D01*
Y717032D01*
X8662856D01*
Y720038D01*
D02*
G37*
G36*
X8650835Y723043D02*
X8653840D01*
Y720038D01*
X8650835D01*
Y717032D01*
Y714027D01*
X8647830D01*
Y717032D01*
Y720038D01*
X8650835D01*
Y723043D01*
D02*
G37*
G36*
X8665861Y717032D02*
X8668867D01*
Y714027D01*
X8665861D01*
Y717032D01*
D02*
G37*
G36*
X8659851Y723043D02*
X8662856D01*
Y720038D01*
X8659851D01*
Y717032D01*
X8656846D01*
Y714027D01*
X8653840D01*
Y711022D01*
Y708017D01*
X8650835D01*
Y711022D01*
Y714027D01*
X8653840D01*
Y717032D01*
X8656846D01*
Y720038D01*
X8659851D01*
Y723043D01*
D02*
G37*
G36*
X8656846Y711022D02*
X8662856D01*
Y708017D01*
X8656846D01*
Y705011D01*
X8653840D01*
Y702006D01*
X8650835D01*
Y705011D01*
X8653840D01*
Y708017D01*
X8656846D01*
Y711022D01*
D02*
G37*
G36*
X8629798Y699001D02*
X8635808D01*
Y695995D01*
X8629798D01*
Y699001D01*
D02*
G37*
G36*
X7824377D02*
X7827382D01*
Y695995D01*
Y692990D01*
Y689985D01*
X7824377D01*
Y692990D01*
Y695995D01*
Y699001D01*
D02*
G37*
G36*
X7848419D02*
X7854430D01*
Y695995D01*
Y692990D01*
Y689985D01*
X7848419D01*
Y692990D01*
Y695995D01*
Y699001D01*
D02*
G37*
G36*
X8620782D02*
X8626793D01*
Y695995D01*
Y692990D01*
Y689985D01*
X8623787D01*
Y692990D01*
Y695995D01*
X8620782D01*
Y699001D01*
D02*
G37*
G36*
X7827382Y689985D02*
X7830387D01*
Y686979D01*
X7827382D01*
Y689985D01*
D02*
G37*
G36*
X7836398Y683974D02*
X7839403D01*
Y680969D01*
X7842408D01*
Y677964D01*
X7833393D01*
Y680969D01*
X7836398D01*
Y683974D01*
D02*
G37*
G36*
X8641819Y699001D02*
X8644824D01*
Y695995D01*
X8647830D01*
Y692990D01*
X8641819D01*
Y689985D01*
Y686979D01*
X8638814D01*
Y683974D01*
X8635808D01*
Y680969D01*
X8632803D01*
Y683974D01*
X8626793D01*
Y680969D01*
Y677964D01*
X8623787D01*
Y680969D01*
Y683974D01*
X8626793D01*
Y686979D01*
Y689985D01*
X8629798D01*
Y686979D01*
X8635808D01*
Y689985D01*
Y692990D01*
X8641819D01*
Y695995D01*
Y699001D01*
D02*
G37*
G36*
X8608761Y677964D02*
X8614771D01*
Y674958D01*
X8608761D01*
Y677964D01*
D02*
G37*
G36*
X8626793D02*
X8632803D01*
Y674958D01*
X8626793D01*
Y677964D01*
D02*
G37*
G36*
X7839403Y674958D02*
X7842408D01*
Y671953D01*
X7839403D01*
Y674958D01*
D02*
G37*
G36*
X8590729Y671953D02*
X8593734D01*
Y668948D01*
X8596739D01*
Y671953D01*
X8599745D01*
Y668948D01*
Y665942D01*
X8602750D01*
Y668948D01*
X8605755D01*
Y671953D01*
X8611766D01*
Y668948D01*
X8608761D01*
Y665942D01*
X8602750D01*
Y662937D01*
Y659932D01*
X8596739D01*
Y662937D01*
X8590729D01*
Y665942D01*
X8587723D01*
Y668948D01*
X8590729D01*
Y671953D01*
D02*
G37*
G36*
X8614771Y674958D02*
X8620782D01*
Y671953D01*
X8623787D01*
Y668948D01*
Y665942D01*
X8620782D01*
Y668948D01*
X8617777D01*
Y671953D01*
X8614771D01*
Y674958D01*
D02*
G37*
G36*
X7857435Y662937D02*
X7860440D01*
Y659932D01*
X7857435D01*
Y662937D01*
D02*
G37*
G36*
X7860440Y659932D02*
X7863446D01*
Y656926D01*
X7860440D01*
Y659932D01*
D02*
G37*
G36*
X7899509Y656926D02*
X7902515D01*
Y653921D01*
X7899509D01*
Y656926D01*
D02*
G37*
G36*
X8572697Y653921D02*
X8581713D01*
Y650916D01*
X8572697D01*
Y653921D01*
D02*
G37*
G36*
X7866451Y650916D02*
X7875467D01*
Y647911D01*
X7866451D01*
Y650916D01*
D02*
G37*
G36*
X7878472D02*
X7881478D01*
Y647911D01*
X7890493D01*
Y650916D01*
X7893499D01*
Y647911D01*
X7890493D01*
Y644905D01*
X7887488D01*
Y641900D01*
X7884483D01*
Y638895D01*
X7875467D01*
Y641900D01*
X7881478D01*
Y644905D01*
X7875467D01*
Y641900D01*
X7872462D01*
Y644905D01*
X7875467D01*
Y647911D01*
X7878472D01*
Y650916D01*
D02*
G37*
%LPD*%
D76*
X2116912Y955040D02*
G03*
X2116912Y955040I-315000J0D01*
G01*
X4602519Y3646612D02*
G03*
X4602519Y3646612I-315000J0D01*
G01*
Y955040D02*
G03*
X4602519Y955040I-315000J0D01*
G01*
X2945448Y3646612D02*
G03*
X2945448Y3646612I-315000J0D01*
G01*
X2116912D02*
G03*
X2116912Y3646612I-315000J0D01*
G01*
X2945448Y955040D02*
G03*
X2945448Y955040I-315000J0D01*
G01*
X3773984Y3646612D02*
G03*
X3773984Y3646612I-315000J0D01*
G01*
Y955040D02*
G03*
X3773984Y955040I-315000J0D01*
G01*
X1270000Y1367600D02*
Y2137600D01*
X457200Y1367600D02*
Y2137600D01*
X710000Y1252600D02*
Y1367600D01*
Y1252600D02*
X889000D01*
X710000Y2137600D02*
Y2252600D01*
X889000D01*
X635000Y1367600D02*
Y2137600D01*
X800000Y1666800D02*
Y1717600D01*
Y1666800D02*
X927000Y1590600D01*
X1270000D01*
X927000Y1914600D02*
X1270000D01*
X800000Y1838400D02*
X927000Y1914600D01*
X800000Y1717600D02*
Y1838400D01*
X457200Y1367600D02*
X710000D01*
X457200Y2137600D02*
X710000D01*
X577600Y5923180D02*
Y6010680D01*
X260600Y5923180D02*
Y6010680D01*
X577600Y6147680D02*
Y6228180D01*
X260600Y6147680D02*
Y6228180D01*
X3670300Y6516180D02*
X3975100D01*
X3670300Y6016180D02*
Y6516180D01*
X3975100Y6016180D02*
Y6516180D01*
X5074920Y6053617D02*
X5110284Y6088982D01*
X5039556D02*
X5074920Y6053617D01*
X4410238Y6718300D02*
X4445602Y6753664D01*
X4410238Y6718300D02*
X4445602Y6682936D01*
X5074920Y7382983D02*
X5110284Y7347618D01*
X5039556D02*
X5074920Y7382983D01*
X5704239Y6753664D02*
X5739603Y6718300D01*
X5704239Y6682936D02*
X5739603Y6718300D01*
X2651733Y6690376D02*
Y6791976D01*
X2961733Y6690376D02*
Y6791976D01*
X2651733Y6690376D02*
X2961733D01*
X2651733Y6791976D02*
X2961733D01*
X3888740Y7376160D02*
Y7490460D01*
X3891280D02*
X4003040D01*
D77*
X529100Y6310680D02*
G03*
X529100Y6310680I-12500J0D01*
G01*
X2654133Y6576076D02*
G03*
X2654133Y6576076I-12500J0D01*
G01*
D78*
X3822700Y6066980D02*
G03*
X3771900Y6016180I0J-50800D01*
G01*
X3873500Y6016180D02*
G03*
X3822700Y6066980I-50800J0D01*
G01*
X582402Y3200714D02*
G03*
X499325Y3202940I-41322J9186D01*
G01*
X665480D02*
G03*
X582402Y3200714I-41755J6960D01*
G01*
X748558D02*
G03*
X665480Y3202940I-41322J9186D01*
G01*
X831636D02*
G03*
X748558Y3200714I-41755J6960D01*
G01*
X499325Y3202940D02*
G03*
X416247Y3205166I-41322J9186D01*
G01*
X914714D02*
G03*
X831636Y3202940I-41755J6960D01*
G01*
X2867652Y6164448D02*
G03*
X2816852Y6164448I-25400J0D01*
G01*
X2715252D02*
G03*
X2664452Y6164448I-25400J0D01*
G01*
X2816852D02*
G03*
X2766052Y6164448I-25400J0D01*
G01*
D02*
G03*
X2715252Y6164448I-25400J0D01*
G01*
X2661928Y7310252D02*
G03*
X2712728Y7310252I25400J0D01*
G01*
X2814328D02*
G03*
X2865128Y7310252I25400J0D01*
G01*
X2712728D02*
G03*
X2763528Y7310252I25400J0D01*
G01*
D02*
G03*
X2814328Y7310252I25400J0D01*
G01*
X3670300Y6016180D02*
X3771900D01*
X3873500D02*
X3975100D01*
X677333Y2735400D02*
X860213D01*
X677333Y2395400D02*
X860213D01*
X677333D02*
Y2527300D01*
Y2603500D02*
Y2735400D01*
X860197Y2603500D02*
Y2735400D01*
Y2395400D02*
Y2527300D01*
X886460Y2735400D02*
X1069340D01*
X886460Y2395400D02*
X1069340D01*
X886460D02*
Y2527300D01*
Y2603500D02*
Y2735400D01*
X1069324Y2603500D02*
Y2735400D01*
Y2395400D02*
Y2527300D01*
X259080Y2735400D02*
X441960D01*
X259080Y2395400D02*
X441960D01*
X259080D02*
Y2527300D01*
Y2603500D02*
Y2735400D01*
X441944Y2603500D02*
Y2735400D01*
Y2395400D02*
Y2527300D01*
X685620Y4660892D02*
Y4843772D01*
X345620Y4660892D02*
Y4843772D01*
X477520D01*
X553720D02*
X685620D01*
X553720Y4660908D02*
X685620D01*
X345620D02*
X477520D01*
X685620Y4866632D02*
Y5049512D01*
X345620Y4866632D02*
Y5049512D01*
X477520D01*
X553720D02*
X685620D01*
X553720Y4866648D02*
X685620D01*
X345620D02*
X477520D01*
X708300Y4866656D02*
Y5049536D01*
X1048300Y4866656D02*
Y5049536D01*
X916400Y4866656D02*
X1048300D01*
X708300D02*
X840200D01*
X708300Y5049520D02*
X840200D01*
X916400D02*
X1048300D01*
X708840Y4660908D02*
Y4843788D01*
X1048840Y4660908D02*
Y4843788D01*
X916940Y4660908D02*
X1048840D01*
X708840D02*
X840740D01*
X708840Y4843772D02*
X840740D01*
X916940D02*
X1048840D01*
X334225Y3202940D02*
X416247D01*
X914714D02*
X1009436D01*
X1071880Y3139440D02*
Y3291840D01*
X259080Y3139440D02*
Y3291840D01*
Y3393440D02*
Y3660140D01*
X1071880D01*
Y3393440D02*
Y3660140D01*
Y2771140D02*
Y3037840D01*
X259080Y2771140D02*
X1071880D01*
X259080D02*
Y3037840D01*
X651071Y2395400D02*
Y2527300D01*
Y2603500D02*
Y2735400D01*
X468207Y2603500D02*
Y2735400D01*
Y2395400D02*
Y2527300D01*
Y2395400D02*
X651087D01*
X468207Y2735400D02*
X651087D01*
X1658775Y5977690D02*
X1719374Y5917092D01*
X1289731Y5487449D02*
X1719374Y5917092D01*
X1658632Y5977547D02*
X1658775Y5977690D01*
X1496987Y6139191D02*
X1497131Y6139335D01*
X1290585Y6345881D02*
X1497131Y6139335D01*
X1254520Y6309816D02*
X1290585Y6345881D01*
X1254520Y6309816D02*
X1317382Y6246954D01*
X1236560Y6166132D02*
X1317382Y6246954D01*
X1431933Y6002296D02*
X1521736Y5912493D01*
X1476835Y5867592D02*
X1521736Y5912493D01*
X1387032Y5957394D02*
X1476835Y5867592D01*
X1387032Y5957394D02*
X1431933Y6002296D01*
X1229133Y5548048D02*
X1229276Y5548192D01*
X1229133Y5548048D02*
X1289731Y5487449D01*
X1067488Y5709692D02*
X1067631Y5709836D01*
X860942Y5916238D02*
X1067488Y5709692D01*
X860942Y5916238D02*
X897007Y5952303D01*
X959869Y5889441D01*
X1040691Y5970264D01*
X1184375Y5754738D02*
X1274178Y5664935D01*
X1319079Y5709836D01*
X1229276Y5799639D02*
X1319079Y5709836D01*
X1184375Y5754738D02*
X1229276Y5799639D01*
X2969260Y6139040D02*
Y6215240D01*
X2562860Y6139040D02*
Y6215240D01*
X2588260Y6164448D02*
X2664452D01*
X2867652D02*
X2943860D01*
X2562860Y6266040D02*
Y6405740D01*
X2969260D01*
Y6266040D02*
Y6405740D01*
Y5948540D02*
Y6088240D01*
X2562860Y5948540D02*
X2969260D01*
X2562860D02*
Y6088240D01*
X2560320Y7259460D02*
Y7335660D01*
X2966720Y7259460D02*
Y7335660D01*
X2865128Y7310252D02*
X2941320D01*
X2585720D02*
X2661928D01*
X2966720Y7068960D02*
Y7208660D01*
X2560320Y7068960D02*
X2966720D01*
X2560320D02*
Y7208660D01*
Y7386460D02*
Y7526160D01*
X2966720D01*
Y7386460D02*
Y7526160D01*
D79*
X4092150Y5961380D02*
G03*
X4092150Y5961380I-15450J0D01*
G01*
D80*
X5178157Y6105947D02*
G03*
X5178337Y6106127I10696J-10516D01*
G01*
D81*
X1275680Y6995910D02*
G03*
X1275680Y6995910I-177800J0D01*
G01*
X1110580Y6563380D02*
G03*
X1173508Y7498947I0J469900D01*
G01*
X1471912Y625040D02*
Y1130040D01*
X1626912Y1285040D01*
X1986912D01*
X2131912Y625040D02*
Y1140040D01*
X1471912Y625040D02*
X2131912D01*
X1986912Y1285040D02*
X2131912Y1140040D01*
X3957519Y3316612D02*
Y3821612D01*
X4112520Y3976612D01*
X4472519D01*
X4617520Y3316612D02*
Y3831612D01*
X3957519Y3316612D02*
X4617520D01*
X4472519Y3976612D02*
X4617520Y3831612D01*
X7432040Y6716268D02*
X7609840D01*
Y6614668D02*
Y6716268D01*
X7432040Y6614668D02*
X7609840D01*
X7432040D02*
Y6716268D01*
X6797040D02*
X6974840D01*
Y6614668D02*
Y6716268D01*
X6797040Y6614668D02*
X6974840D01*
X6797040D02*
Y6716268D01*
X6720840Y7148068D02*
X7686040D01*
Y6868668D02*
Y7148068D01*
X6720840Y6868668D02*
X7686040D01*
X6720840D02*
Y7148068D01*
X6517640Y7224268D02*
X7889240D01*
Y6614668D02*
Y7224268D01*
X6517640Y6614668D02*
X7889240D01*
X6517640D02*
Y7224268D01*
X4472519Y1285040D02*
X4617520Y1140040D01*
X3957519Y625040D02*
X4617520D01*
Y1140040D01*
X4112520Y1285040D02*
X4472519D01*
X3957519Y1130040D02*
X4112520Y1285040D01*
X3957519Y625040D02*
Y1130040D01*
X2815448Y3976612D02*
X2960448Y3831612D01*
X2300448Y3316612D02*
X2960448D01*
Y3831612D01*
X2455448Y3976612D02*
X2815448D01*
X2300448Y3821612D02*
X2455448Y3976612D01*
X2300448Y3316612D02*
Y3821612D01*
X1986912Y3976612D02*
X2131912Y3831612D01*
X1471912Y3316612D02*
X2131912D01*
Y3831612D01*
X1626912Y3976612D02*
X1986912D01*
X1471912Y3821612D02*
X1626912Y3976612D01*
X1471912Y3316612D02*
Y3821612D01*
X2815448Y1285040D02*
X2960448Y1140040D01*
X2300448Y625040D02*
X2960448D01*
Y1140040D01*
X2455448Y1285040D02*
X2815448D01*
X2300448Y1130040D02*
X2455448Y1285040D01*
X2300448Y625040D02*
Y1130040D01*
X3643984Y3976612D02*
X3788984Y3831612D01*
X3128984Y3316612D02*
X3788984D01*
Y3831612D01*
X3283984Y3976612D02*
X3643984D01*
X3128984Y3821612D02*
X3283984Y3976612D01*
X3128984Y3316612D02*
Y3821612D01*
X3643984Y1285040D02*
X3788984Y1140040D01*
X3128984Y625040D02*
X3788984D01*
Y1140040D01*
X3283984Y1285040D02*
X3643984D01*
X3128984Y1130040D02*
X3283984Y1285040D01*
X3128984Y625040D02*
Y1130040D01*
X399380Y6563380D02*
X1110580D01*
X399380D02*
Y7498947D01*
X1173508D01*
X8408061Y7429119D02*
X8808060D01*
X8408061Y6429121D02*
X8808060D01*
Y7255949D02*
Y7429119D01*
Y6775940D02*
Y7082300D01*
Y6429121D02*
Y6602291D01*
X8408061Y7255949D02*
Y7429119D01*
Y6775940D02*
Y7082300D01*
Y6429121D02*
Y6602291D01*
X4930107Y3187700D02*
X4828540D01*
X4930107Y3289267D01*
Y3314659D01*
X4904715Y3340051D01*
X4853932D01*
X4828540Y3314659D01*
X4980891D02*
X5006283Y3340051D01*
X5057066D01*
X5082458Y3314659D01*
Y3213092D01*
X5057066Y3187700D01*
X5006283D01*
X4980891Y3213092D01*
Y3314659D01*
X5234809Y3187700D02*
X5133241D01*
X5234809Y3289267D01*
Y3314659D01*
X5209417Y3340051D01*
X5158633D01*
X5133241Y3314659D01*
X5387159Y3340051D02*
X5285592D01*
Y3263875D01*
X5336376Y3289267D01*
X5361768D01*
X5387159Y3263875D01*
Y3213092D01*
X5361768Y3187700D01*
X5310984D01*
X5285592Y3213092D01*
X5437943Y3187700D02*
X5539510Y3289267D01*
X5590294Y3187700D02*
X5641077D01*
X5615685D01*
Y3340051D01*
X5590294Y3314659D01*
X5818820Y3187700D02*
X5717252D01*
X5818820Y3289267D01*
Y3314659D01*
X5793428Y3340051D01*
X5742644D01*
X5717252Y3314659D01*
X5869603Y3187700D02*
X5971170Y3289267D01*
X6123521Y3187700D02*
X6021954D01*
X6123521Y3289267D01*
Y3314659D01*
X6098129Y3340051D01*
X6047346D01*
X6021954Y3314659D01*
X6174305Y3213092D02*
X6199697Y3187700D01*
X6250480D01*
X6275872Y3213092D01*
Y3314659D01*
X6250480Y3340051D01*
X6199697D01*
X6174305Y3314659D01*
Y3289267D01*
X6199697Y3263875D01*
X6275872D01*
X4853940Y3456940D02*
Y3558507D01*
X4879332D01*
X4904723Y3533115D01*
Y3456940D01*
Y3533115D01*
X4930115Y3558507D01*
X4955507Y3533115D01*
Y3456940D01*
X5006291D02*
X5057074D01*
X5031683D01*
Y3558507D01*
X5006291D01*
X5133250Y3456940D02*
X5209425D01*
X5234817Y3482332D01*
X5209425Y3507723D01*
X5158641D01*
X5133250Y3533115D01*
X5158641Y3558507D01*
X5234817D01*
X5310992D02*
X5361776D01*
X5387168Y3533115D01*
Y3456940D01*
X5310992D01*
X5285600Y3482332D01*
X5310992Y3507723D01*
X5387168D01*
X5437951Y3456940D02*
Y3609291D01*
Y3507723D02*
X5514126Y3558507D01*
X5437951Y3507723D02*
X5514126Y3456940D01*
X5615694Y3558507D02*
X5666477D01*
X5691869Y3533115D01*
Y3456940D01*
X5615694D01*
X5590302Y3482332D01*
X5615694Y3507723D01*
X5691869D01*
X5742652Y3456940D02*
X5793436D01*
X5768044D01*
Y3609291D01*
X5742652Y3583899D01*
X5869611D02*
X5895003Y3609291D01*
X5945787D01*
X5971179Y3583899D01*
Y3482332D01*
X5945787Y3456940D01*
X5895003D01*
X5869611Y3482332D01*
Y3583899D01*
X6021962D02*
X6047354Y3609291D01*
X6098137D01*
X6123529Y3583899D01*
Y3482332D01*
X6098137Y3456940D01*
X6047354D01*
X6021962Y3482332D01*
Y3583899D01*
X6174313D02*
X6199705Y3609291D01*
X6250488D01*
X6275880Y3583899D01*
Y3558507D01*
X6250488Y3533115D01*
X6225096D01*
X6250488D01*
X6275880Y3507723D01*
Y3482332D01*
X6250488Y3456940D01*
X6199705D01*
X6174313Y3482332D01*
X6326663D02*
X6352055Y3456940D01*
X6402839D01*
X6428231Y3482332D01*
Y3583899D01*
X6402839Y3609291D01*
X6352055D01*
X6326663Y3583899D01*
Y3558507D01*
X6352055Y3533115D01*
X6428231D01*
X6393180Y3342591D02*
Y3241023D01*
X6443963Y3190240D01*
X6494747Y3241023D01*
Y3342591D01*
X6621706Y3190240D02*
X6570923D01*
X6545531Y3215632D01*
Y3266415D01*
X6570923Y3291807D01*
X6621706D01*
X6647098Y3266415D01*
Y3241023D01*
X6545531D01*
X6697881Y3291807D02*
Y3190240D01*
Y3241023D01*
X6723273Y3266415D01*
X6748665Y3291807D01*
X6774057D01*
X6850232Y3317199D02*
X6875624Y3342591D01*
X6926408D01*
X6951799Y3317199D01*
Y3215632D01*
X6926408Y3190240D01*
X6875624D01*
X6850232Y3215632D01*
Y3317199D01*
X7002583Y3190240D02*
Y3215632D01*
X7027975D01*
Y3190240D01*
X7002583D01*
X7129542Y3317199D02*
X7154934Y3342591D01*
X7205717D01*
X7231109Y3317199D01*
Y3291807D01*
X7205717Y3266415D01*
X7180325D01*
X7205717D01*
X7231109Y3241023D01*
Y3215632D01*
X7205717Y3190240D01*
X7154934D01*
X7129542Y3215632D01*
X4836160Y1310574D02*
Y1183615D01*
X4861552Y1158223D01*
X4912335D01*
X4937727Y1183615D01*
Y1310574D01*
X5090078Y1285182D02*
X5064686Y1310574D01*
X5013903D01*
X4988511Y1285182D01*
Y1259791D01*
X5013903Y1234399D01*
X5064686D01*
X5090078Y1209007D01*
Y1183615D01*
X5064686Y1158223D01*
X5013903D01*
X4988511Y1183615D01*
X5140861Y1310574D02*
Y1158223D01*
X5217037D01*
X5242429Y1183615D01*
Y1209007D01*
X5217037Y1234399D01*
X5140861D01*
X5217037D01*
X5242429Y1259791D01*
Y1285182D01*
X5217037Y1310574D01*
X5140861D01*
X5293212Y1285182D02*
X5318604Y1310574D01*
X5369388D01*
X5394779Y1285182D01*
Y1259791D01*
X5369388Y1234399D01*
X5343996D01*
X5369388D01*
X5394779Y1209007D01*
Y1183615D01*
X5369388Y1158223D01*
X5318604D01*
X5293212Y1183615D01*
X5445563Y1158223D02*
Y1183615D01*
X5470955D01*
Y1158223D01*
X5445563D01*
X5572522Y1285182D02*
X5597914Y1310574D01*
X5648697D01*
X5674089Y1285182D01*
Y1183615D01*
X5648697Y1158223D01*
X5597914D01*
X5572522Y1183615D01*
Y1285182D01*
X5978790D02*
X5953399Y1310574D01*
X5902615D01*
X5877223Y1285182D01*
Y1183615D01*
X5902615Y1158223D01*
X5953399D01*
X5978790Y1183615D01*
Y1234399D01*
X5928007D01*
X6105749Y1158223D02*
X6054966D01*
X6029574Y1183615D01*
Y1234399D01*
X6054966Y1259791D01*
X6105749D01*
X6131141Y1234399D01*
Y1209007D01*
X6029574D01*
X6181925Y1158223D02*
Y1259791D01*
X6258100D01*
X6283492Y1234399D01*
Y1158223D01*
X6435843D02*
X6334275D01*
X6435843Y1259791D01*
Y1285182D01*
X6410451Y1310574D01*
X6359667D01*
X6334275Y1285182D01*
X6486626Y1158223D02*
X6588193Y1259791D01*
X6638977Y1158223D02*
X6689760D01*
X6664369D01*
Y1310574D01*
X6638977Y1285182D01*
X6765936D02*
X6791328Y1310574D01*
X6842111D01*
X6867503Y1285182D01*
Y1183615D01*
X6842111Y1158223D01*
X6791328D01*
X6765936Y1183615D01*
Y1285182D01*
X7019854D02*
X6994462Y1310574D01*
X6943678D01*
X6918286Y1285182D01*
Y1183615D01*
X6943678Y1158223D01*
X6994462D01*
X7019854Y1183615D01*
Y1234399D01*
X6969070D01*
X7070637Y1107440D02*
Y1259791D01*
X7146812D01*
X7172204Y1234399D01*
Y1183615D01*
X7146812Y1158223D01*
X7070637D01*
X7222988Y1310574D02*
Y1158223D01*
X7299163D01*
X7324555Y1183615D01*
Y1209007D01*
Y1234399D01*
X7299163Y1259791D01*
X7222988D01*
X7375339Y1158223D02*
X7451514D01*
X7476906Y1183615D01*
X7451514Y1209007D01*
X7400730D01*
X7375339Y1234399D01*
X7400730Y1259791D01*
X7476906D01*
D82*
X700949Y4033850D02*
G03*
X701203Y4033850I127J-12445D01*
G01*
D83*
X1494012Y1267540D02*
X1554412D01*
X1524412Y1237940D02*
Y1297940D01*
X3979619Y3959112D02*
X4040019D01*
X4010019Y3929512D02*
Y3989512D01*
X4659953Y6053254D02*
X4783696Y6176998D01*
X4719038Y6241656D02*
X4783696Y6176998D01*
X4595295Y6117912D02*
X4659953Y6053254D01*
X4595295Y6117912D02*
X4719038Y6241656D01*
X4665925Y6211627D02*
X4708037Y6253739D01*
X4643381Y6318398D02*
X4708039Y6253741D01*
X4584299Y6130001D02*
X4626411Y6172113D01*
X4519637Y6194655D02*
X4584295Y6129997D01*
X4601267Y6276284D02*
X4643381Y6318398D01*
X4519641Y6194658D02*
X4561754Y6236771D01*
X4431353Y6281854D02*
X4555096Y6405598D01*
X4490438Y6470256D02*
X4555096Y6405598D01*
X4366695Y6346512D02*
X4431353Y6281854D01*
X4366695Y6346512D02*
X4490438Y6470256D01*
X4443443Y6270861D02*
X4485556Y6312974D01*
X4443442Y6270860D02*
X4508100Y6206202D01*
X4525069Y6352487D02*
X4567182Y6394600D01*
X4567186Y6394603D02*
X4631844Y6329946D01*
X4508100Y6206202D02*
X4550214Y6248316D01*
X4589727Y6287829D02*
X4631840Y6329942D01*
X4214843Y6499461D02*
X4256956Y6541574D01*
X4214842Y6499460D02*
X4279500Y6434802D01*
X4296469Y6581087D02*
X4338582Y6623200D01*
X4338586Y6623203D02*
X4403244Y6558546D01*
X4279500Y6434802D02*
X4321614Y6476916D01*
X4361127Y6516429D02*
X4403240Y6558542D01*
X4290495Y6422712D02*
X4414238Y6546456D01*
X4290495Y6422712D02*
X4355153Y6358054D01*
X4414238Y6546456D02*
X4478896Y6481798D01*
X4355153Y6358054D02*
X4478896Y6481798D01*
X4139752Y6574230D02*
X4263496Y6697974D01*
X4204410Y6509572D02*
X4328154Y6633316D01*
X4139752Y6574230D02*
X4204410Y6509572D01*
X4263496Y6697974D02*
X4328154Y6633316D01*
X4010019Y1237940D02*
Y1297940D01*
X3979619Y1267540D02*
X4040019D01*
X2352948Y3929512D02*
Y3989512D01*
X2322548Y3959112D02*
X2382948D01*
X657860Y6203362D02*
Y6262918D01*
X749300Y6318798D02*
Y6378355D01*
Y6203362D02*
Y6262918D01*
X657860Y6318798D02*
Y6378356D01*
X749300D01*
X657860Y6203356D02*
X749300D01*
X1524412Y3929512D02*
Y3989512D01*
X1494012Y3959112D02*
X1554412D01*
X2352948Y1237940D02*
Y1297940D01*
X2322548Y1267540D02*
X2382948D01*
X3181484Y3929512D02*
Y3989512D01*
X3151084Y3959112D02*
X3211484D01*
X3181484Y1237940D02*
Y1297940D01*
X3151084Y1267540D02*
X3211484D01*
X2326640Y6232379D02*
X2418080D01*
X2326640Y6407379D02*
X2418080D01*
X2326640Y6232379D02*
Y6407379D01*
X2418080Y6232379D02*
Y6407379D01*
X341822Y4061460D02*
Y4152900D01*
X166822Y4061460D02*
Y4152900D01*
Y4061460D02*
X341822D01*
X166822Y4152900D02*
X341822D01*
X359182Y4488180D02*
Y4579620D01*
X534182Y4488180D02*
Y4579620D01*
X359182D02*
X534182D01*
X359182Y4488180D02*
X534182D01*
X730665Y2552700D02*
X806865D01*
X730665Y2578100D02*
X806865D01*
X768765D02*
Y2590800D01*
Y2540000D02*
Y2552700D01*
X939792D02*
X1015992D01*
X939792Y2578100D02*
X1015992D01*
X977892D02*
Y2590800D01*
Y2540000D02*
Y2552700D01*
X312412D02*
X388612D01*
X312412Y2578100D02*
X388612D01*
X350512D02*
Y2590800D01*
Y2540000D02*
Y2552700D01*
X341825Y3954780D02*
Y4046220D01*
X166825Y3954780D02*
Y4046220D01*
Y3954780D02*
X226383D01*
X282263Y4046220D02*
X341820D01*
X166827D02*
X226383D01*
X282263Y3954780D02*
X341820D01*
X166822Y3848100D02*
Y3939540D01*
X341822Y3848100D02*
Y3939540D01*
X166822D02*
X341822D01*
X166822Y3848100D02*
X341822D01*
Y4274820D02*
Y4366260D01*
X166822Y4274820D02*
Y4366260D01*
Y4274820D02*
X341822D01*
X166822Y4366260D02*
X341822D01*
Y4488180D02*
Y4579620D01*
X166822Y4488180D02*
Y4579620D01*
Y4488180D02*
X226380D01*
X282260Y4579620D02*
X341816D01*
X166823D02*
X226380D01*
X282260Y4488180D02*
X341816D01*
X166822Y4381500D02*
Y4472940D01*
X341822Y4381500D02*
Y4472940D01*
X166822D02*
X341822D01*
X166822Y4381500D02*
X341822D01*
X502920Y4714240D02*
Y4790440D01*
X528320Y4714240D02*
Y4790440D01*
Y4752340D02*
X541020D01*
X490220D02*
X502920D01*
Y4919980D02*
Y4996180D01*
X528320Y4919980D02*
Y4996180D01*
Y4958080D02*
X541020D01*
X490220D02*
X502920D01*
X891000Y4919988D02*
Y4996188D01*
X865600Y4919988D02*
Y4996188D01*
X852900Y4958088D02*
X865600D01*
X891000D02*
X903700D01*
X891540Y4714240D02*
Y4790440D01*
X866140Y4714240D02*
Y4790440D01*
X853440Y4752340D02*
X866140D01*
X891540D02*
X904240D01*
X6325873Y6019553D02*
X6385430D01*
X6385431D02*
Y6110993D01*
X6210437Y6019553D02*
X6269993D01*
X6210432D02*
Y6110993D01*
X6325873D02*
X6385431D01*
X6210437D02*
X6269993D01*
X6325873Y5912873D02*
X6385430D01*
X6385431D02*
Y6004313D01*
X6210437Y5912873D02*
X6269993D01*
X6210432D02*
Y6004313D01*
X6325873D02*
X6385431D01*
X6210437D02*
X6269993D01*
X6316980Y6334760D02*
X6376537D01*
X6376538D02*
Y6426200D01*
X6201544Y6334760D02*
X6261100D01*
X6201539D02*
Y6426200D01*
X6316980D02*
X6376538D01*
X6201544D02*
X6261100D01*
X4888682Y7503160D02*
X5063682D01*
X4888682Y7411720D02*
Y7503160D01*
X5063682Y7411720D02*
Y7503160D01*
X4888682Y7411720D02*
X5063682D01*
X4700165Y7424414D02*
X4823908Y7300670D01*
X4635507Y7359756D02*
X4700165Y7424414D01*
X4759250Y7236012D02*
X4823908Y7300670D01*
X4635507Y7359756D02*
X4759250Y7236012D01*
X5427762Y7194220D02*
X5469875Y7236332D01*
X5509388Y7275845D02*
X5551502Y7317959D01*
X5427758Y7194216D02*
X5492416Y7129558D01*
X5492420Y7129562D02*
X5534532Y7171675D01*
X5551502Y7317959D02*
X5616160Y7253302D01*
X5574046Y7211188D02*
X5616158Y7253300D01*
X5343942Y7280580D02*
X5386055Y7322692D01*
X5425568Y7362205D02*
X5467682Y7404319D01*
X5343938Y7280576D02*
X5408596Y7215918D01*
X5408600Y7215922D02*
X5450712Y7258035D01*
X5467682Y7404319D02*
X5532340Y7339662D01*
X5490226Y7297548D02*
X5532338Y7339660D01*
X5370500Y6202898D02*
X5412612Y6160785D01*
X5452126Y6121272D02*
X5494240Y6079158D01*
X5305838Y6138244D02*
X5370496Y6202902D01*
X5305842Y6138240D02*
X5347955Y6096128D01*
X5429582Y6014501D02*
X5494240Y6079158D01*
X5387468Y6056615D02*
X5429581Y6014502D01*
X5514122Y7107860D02*
X5556235Y7149972D01*
X5595748Y7189485D02*
X5637862Y7231599D01*
X5514118Y7107856D02*
X5578776Y7043198D01*
X5578780Y7043202D02*
X5620892Y7085315D01*
X5637862Y7231599D02*
X5702520Y7166942D01*
X5660406Y7124828D02*
X5702518Y7166940D01*
X4894442Y6014720D02*
X5069441D01*
X4894442Y5923280D02*
Y6014720D01*
X5069441Y5923280D02*
Y6014720D01*
X4894442Y5923280D02*
X5069441D01*
X5456860Y6289258D02*
X5498972Y6247145D01*
X5538486Y6207632D02*
X5580600Y6165518D01*
X5392198Y6224604D02*
X5456856Y6289262D01*
X5392202Y6224600D02*
X5434315Y6182488D01*
X5515942Y6100861D02*
X5580600Y6165518D01*
X5473828Y6142975D02*
X5515941Y6100862D01*
X5214172Y6047030D02*
X5337916Y5923286D01*
X5402574Y5987944D01*
X5214172Y6047030D02*
X5278830Y6111688D01*
X5402574Y5987944D01*
X4487362Y7503160D02*
X4662362D01*
X4487362Y7411720D02*
Y7503160D01*
X4662362Y7411720D02*
Y7503160D01*
X4487362Y7411720D02*
X4662362D01*
X4462908Y7029435D02*
X4505021Y6987322D01*
X4381281Y7111062D02*
X4423395Y7068948D01*
X4505025Y6987318D02*
X4569682Y7051976D01*
X4527566Y7094092D02*
X4569678Y7051980D01*
X4381281Y7111062D02*
X4445939Y7175719D01*
X4445940Y7175718D02*
X4488052Y7133605D01*
X5627040Y6456898D02*
X5669152Y6414785D01*
X5708666Y6375272D02*
X5750780Y6333158D01*
X5562378Y6392244D02*
X5627036Y6456902D01*
X5562382Y6392240D02*
X5604495Y6350128D01*
X5686122Y6268501D02*
X5750780Y6333158D01*
X5644008Y6310615D02*
X5686121Y6268502D01*
X5713400Y6540718D02*
X5755512Y6498605D01*
X5795026Y6459092D02*
X5837140Y6416978D01*
X5648738Y6476064D02*
X5713396Y6540722D01*
X5648742Y6476060D02*
X5690855Y6433948D01*
X5772482Y6352321D02*
X5837140Y6416978D01*
X5730368Y6394435D02*
X5772481Y6352322D01*
X4386708Y6953235D02*
X4428821Y6911122D01*
X4305081Y7034862D02*
X4347195Y6992748D01*
X4428825Y6911118D02*
X4493482Y6975776D01*
X4451366Y7017892D02*
X4493478Y6975780D01*
X4305081Y7034862D02*
X4369739Y7099519D01*
X4369740Y7099518D02*
X4411852Y7057405D01*
X5540680Y6373078D02*
X5582792Y6330965D01*
X5622306Y6291452D02*
X5664420Y6249338D01*
X5476018Y6308424D02*
X5540676Y6373082D01*
X5476022Y6308420D02*
X5518135Y6266308D01*
X5599762Y6184681D02*
X5664420Y6249338D01*
X5557648Y6226795D02*
X5599761Y6184682D01*
X4310508Y6877035D02*
X4352621Y6834922D01*
X4228881Y6958662D02*
X4270995Y6916548D01*
X4352625Y6834918D02*
X4417282Y6899576D01*
X4375166Y6941692D02*
X4417278Y6899580D01*
X4228881Y6958662D02*
X4293539Y7023319D01*
X4293540Y7023318D02*
X4335652Y6981205D01*
X4244340Y7097442D02*
Y7156998D01*
Y7212878D02*
Y7272437D01*
Y7097437D02*
X4335780D01*
Y7097442D02*
Y7156998D01*
X4244340Y7272437D02*
X4335780D01*
Y7212878D02*
Y7272435D01*
X4866587Y6010969D02*
X4908700Y6053082D01*
X4784960Y5929342D02*
X4827074Y5971456D01*
X4844046Y6117743D02*
X4908704Y6053086D01*
X4801929Y6075627D02*
X4844042Y6117740D01*
X4720302Y5994000D02*
X4784960Y5929342D01*
X4720303Y5994001D02*
X4762416Y6036114D01*
X4335780Y7419340D02*
Y7478896D01*
Y7303902D02*
Y7363460D01*
X4244340Y7478902D02*
X4335780D01*
X4244340Y7419340D02*
Y7478896D01*
Y7303902D02*
X4335780D01*
X4244340Y7303904D02*
Y7363460D01*
X6181959Y7072919D02*
X6224071Y7030807D01*
X6263585Y6991293D02*
X6305699Y6949179D01*
X6117297Y7008265D02*
X6181955Y7072923D01*
X6117301Y7008262D02*
X6159414Y6966149D01*
X6241041Y6884522D02*
X6305699Y6949179D01*
X6198927Y6926636D02*
X6241040Y6884523D01*
X6105759Y6996719D02*
X6147871Y6954607D01*
X6187385Y6915093D02*
X6229499Y6872979D01*
X6041097Y6932065D02*
X6105755Y6996723D01*
X6041101Y6932062D02*
X6083214Y6889949D01*
X6164841Y6808322D02*
X6229499Y6872979D01*
X6122727Y6850436D02*
X6164840Y6808323D01*
X6201544Y6319520D02*
X6261100D01*
X6316980D02*
X6376538D01*
X6201539Y6228080D02*
Y6319520D01*
X6201544Y6228080D02*
X6261100D01*
X6376538D02*
Y6319520D01*
X6316980Y6228080D02*
X6376537D01*
X6160904Y7269480D02*
X6220460D01*
X6276340D02*
X6335898D01*
X6160899Y7178040D02*
Y7269480D01*
X6160904Y7178040D02*
X6220460D01*
X6335898D02*
Y7269480D01*
X6276340Y7178040D02*
X6335897D01*
X5262662Y7364400D02*
X5304775Y7406512D01*
X5344288Y7446025D02*
X5386402Y7488139D01*
X5262658Y7364396D02*
X5327316Y7299738D01*
X5327320Y7299742D02*
X5369432Y7341855D01*
X5386402Y7488139D02*
X5451060Y7423482D01*
X5408946Y7381368D02*
X5451058Y7423480D01*
X4522365Y7251694D02*
X4646108Y7127950D01*
X4457707Y7187036D02*
X4522365Y7251694D01*
X4581450Y7063292D02*
X4646108Y7127950D01*
X4457707Y7187036D02*
X4581450Y7063292D01*
X6160904Y7376160D02*
X6220460D01*
X6276340D02*
X6335898D01*
X6160899Y7284720D02*
Y7376160D01*
X6160904Y7284720D02*
X6220460D01*
X6335898D02*
Y7376160D01*
X6276340Y7284720D02*
X6335897D01*
X4711252Y7436410D02*
X4834996Y7312666D01*
X4899654Y7377324D01*
X4711252Y7436410D02*
X4775910Y7501068D01*
X4899654Y7377324D01*
X5781750Y6844852D02*
X5905494Y6968596D01*
X5840836Y7033254D02*
X5905494Y6968596D01*
X5717092Y6909510D02*
X5781750Y6844852D01*
X5717092Y6909510D02*
X5840836Y7033254D01*
X5082939Y7411720D02*
X5257939D01*
Y7503160D01*
X5082939Y7411720D02*
Y7503160D01*
X5257939D01*
X4617848Y7181835D02*
X4659961Y7139722D01*
X4536221Y7263462D02*
X4578335Y7221348D01*
X4659965Y7139718D02*
X4724622Y7204376D01*
X4682506Y7246492D02*
X4724618Y7204380D01*
X4536221Y7263462D02*
X4600879Y7328119D01*
X4600880Y7328118D02*
X4642992Y7286005D01*
X5597942Y7026580D02*
X5640055Y7068692D01*
X5679568Y7108205D02*
X5721682Y7150319D01*
X5597938Y7026576D02*
X5662596Y6961918D01*
X5662600Y6961922D02*
X5704712Y7004035D01*
X5721682Y7150319D02*
X5786340Y7085662D01*
X5744226Y7043548D02*
X5786338Y7085660D01*
X5086159Y5923280D02*
X5261159D01*
Y6014720D01*
X5086159Y5923280D02*
Y6014720D01*
X5261159D01*
X449580Y3846601D02*
Y4021601D01*
X358140Y3846601D02*
Y4021601D01*
X449580D01*
X358140Y3846601D02*
X449580D01*
X580942Y3848100D02*
X640498D01*
X465506Y3939540D02*
X525062D01*
X580942D02*
X640498D01*
X465504Y3848100D02*
X525062D01*
X465504D02*
Y3939540D01*
X640504Y3848100D02*
Y3939540D01*
X559639Y2540000D02*
Y2552700D01*
Y2578100D02*
Y2590800D01*
X521539Y2578100D02*
X597739D01*
X521539Y2552700D02*
X597739D01*
X166822Y4168140D02*
X341822D01*
X166822Y4259580D02*
X341822D01*
Y4168140D02*
Y4259580D01*
X166822Y4168140D02*
Y4259580D01*
X3265280Y6591300D02*
Y6728460D01*
X2996040Y6591300D02*
Y6728460D01*
X3163680D02*
X3265280D01*
X2996040Y6591300D02*
X3097640D01*
X3163680D02*
X3265280D01*
X2996040Y6728460D02*
X3097640D01*
X3140820Y6659880D02*
X3153520D01*
X3107800D02*
X3120500D01*
Y6634480D02*
Y6685280D01*
X3140820Y6634480D02*
Y6685280D01*
X3265280Y6748780D02*
Y6885940D01*
X2996040Y6748780D02*
Y6885940D01*
X3163680D02*
X3265280D01*
X2996040Y6748780D02*
X3097640D01*
X3163680D02*
X3265280D01*
X2996040Y6885940D02*
X3097640D01*
X3140820Y6817360D02*
X3153520D01*
X3107800D02*
X3120500D01*
Y6791960D02*
Y6842760D01*
X3140820Y6791960D02*
Y6842760D01*
X2329180Y5947861D02*
Y6122861D01*
X2420620Y5947861D02*
Y6122861D01*
X2329180Y5947861D02*
X2420620D01*
X2329180Y6122861D02*
X2420620D01*
Y7351839D02*
Y7526839D01*
X2329180Y7351839D02*
Y7526839D01*
X2420620D01*
X2329180Y7351839D02*
X2420620D01*
X858520Y6201861D02*
Y6376861D01*
X767080Y6201861D02*
Y6376861D01*
X858520D01*
X767080Y6201861D02*
X858520D01*
X2529840Y5947861D02*
Y6122861D01*
X2438400Y5947861D02*
Y6122861D01*
X2529840D01*
X2438400Y5947861D02*
X2529840D01*
X2438400Y7351839D02*
Y7526839D01*
X2529840Y7351839D02*
Y7526839D01*
X2438400Y7351839D02*
X2529840D01*
X2438400Y7526839D02*
X2529840D01*
X2438400Y6232379D02*
Y6407379D01*
X2529840Y6232379D02*
Y6407379D01*
X2438400Y6232379D02*
X2529840D01*
X2438400Y6407379D02*
X2529840D01*
Y7065461D02*
Y7240461D01*
X2438400Y7065461D02*
Y7240461D01*
X2529840D01*
X2438400Y7065461D02*
X2529840D01*
X3265280Y5946140D02*
Y6083300D01*
X2996040Y5946140D02*
Y6083300D01*
X3163680D02*
X3265280D01*
X2996040Y5946140D02*
X3097640D01*
X3163680D02*
X3265280D01*
X2996040Y6083300D02*
X3097640D01*
X3140820Y6014720D02*
X3153520D01*
X3107800D02*
X3120500D01*
Y5989320D02*
Y6040120D01*
X3140820Y5989320D02*
Y6040120D01*
X3265280Y6101080D02*
Y6238240D01*
X2996040Y6101080D02*
Y6238240D01*
X3163680D02*
X3265280D01*
X2996040Y6101080D02*
X3097640D01*
X3163680D02*
X3265280D01*
X2996040Y6238240D02*
X3097640D01*
X3140820Y6169660D02*
X3153520D01*
X3107800D02*
X3120500D01*
Y6144260D02*
Y6195060D01*
X3140820Y6144260D02*
Y6195060D01*
X3265280Y7391400D02*
Y7528560D01*
X2996040Y7391400D02*
Y7528560D01*
X3163680D02*
X3265280D01*
X2996040Y7391400D02*
X3097640D01*
X3163680D02*
X3265280D01*
X2996040Y7528560D02*
X3097640D01*
X3140820Y7459980D02*
X3153520D01*
X3107800D02*
X3120500D01*
Y7434580D02*
Y7485380D01*
X3140820Y7434580D02*
Y7485380D01*
X3265280Y7236460D02*
Y7373620D01*
X2996040Y7236460D02*
Y7373620D01*
X3163680D02*
X3265280D01*
X2996040Y7236460D02*
X3097640D01*
X3163680D02*
X3265280D01*
X2996040Y7373620D02*
X3097640D01*
X3140820Y7305040D02*
X3153520D01*
X3107800D02*
X3120500D01*
Y7279640D02*
Y7330440D01*
X3140820Y7279640D02*
Y7330440D01*
X2329180Y7065461D02*
Y7240461D01*
X2420620Y7065461D02*
Y7240461D01*
X2329180Y7065461D02*
X2420620D01*
X2329180Y7240461D02*
X2420620D01*
D84*
X1040948Y4345206D02*
Y4353850D01*
Y4363850D01*
X924796Y4063850D02*
X1040948D01*
Y4082489D01*
X854797Y4063850D02*
X862099D01*
X784797D02*
X792099D01*
X640949D02*
Y4082494D01*
Y4063850D02*
X722099D01*
X640949Y4363850D02*
X757101D01*
X640949Y4345206D02*
Y4363850D01*
X819798D02*
X827100D01*
X889798D02*
X897100D01*
X959798D02*
X1040948D01*
D85*
X3898900Y7096760D02*
X4229100D01*
Y7477760D01*
X3898900Y7096760D02*
Y7477760D01*
X4229100D01*
D86*
X4962259Y908378D02*
X4919939Y950697D01*
X4835300D01*
X4792980Y908378D01*
Y739099D01*
X4835300Y696779D01*
X4919939D01*
X4962259Y739099D01*
X5046898Y950697D02*
Y696779D01*
Y823738D01*
X5089218Y866058D01*
X5173857D01*
X5216177Y823738D01*
Y696779D01*
X5343136Y866058D02*
X5427775D01*
X5470094Y823738D01*
Y696779D01*
X5343136D01*
X5300816Y739099D01*
X5343136Y781419D01*
X5470094D01*
X5554734Y696779D02*
Y866058D01*
X5681693D01*
X5724012Y823738D01*
Y696779D01*
X5893291Y612140D02*
X5935611D01*
X5977930Y654460D01*
Y866058D01*
X5850972D01*
X5808652Y823738D01*
Y739099D01*
X5850972Y696779D01*
X5977930D01*
X6189529D02*
X6104889D01*
X6062570Y739099D01*
Y823738D01*
X6104889Y866058D01*
X6189529D01*
X6231848Y823738D01*
Y781419D01*
X6062570D01*
X6358807Y696779D02*
X6443447D01*
X6485766Y739099D01*
Y823738D01*
X6443447Y866058D01*
X6358807D01*
X6316488Y823738D01*
Y739099D01*
X6358807Y696779D01*
X6824324Y950697D02*
X6993602D01*
X6908963D01*
Y696779D01*
X7205200D02*
X7120561D01*
X7078242Y739099D01*
Y823738D01*
X7120561Y866058D01*
X7205200D01*
X7247520Y823738D01*
Y781419D01*
X7078242D01*
X7501438Y866058D02*
X7374479D01*
X7332160Y823738D01*
Y739099D01*
X7374479Y696779D01*
X7501438D01*
%TF.MD5,3dea057f2aa6dd88a3c389e354cf0ef0*%
M02*
